<?xml version="1.0" encoding="utf-8"?>
<svg xmlns="http://www.w3.org/2000/svg" xmlns:xlink="http://www.w3.org/1999/xlink" width="600" height="400" viewBox="0 0 2400 1600">
<defs>
  <clipPath id="clip390">
    <rect x="0" y="0" width="2400" height="1600"/>
  </clipPath>
</defs>
<path clip-path="url(#clip390)" d="
M0 1600 L2400 1600 L2400 0 L0 0  Z
  " fill="#ffffff" fill-rule="evenodd" fill-opacity="1"/>
<defs>
  <clipPath id="clip391">
    <rect x="480" y="0" width="1681" height="1600"/>
  </clipPath>
</defs>
<path clip-path="url(#clip390)" d="
M156.922 1486.45 L2352.76 1486.45 L2352.76 123.472 L156.922 123.472  Z
  " fill="#ffffff" fill-rule="evenodd" fill-opacity="1"/>
<defs>
  <clipPath id="clip392">
    <rect x="156" y="123" width="2197" height="1364"/>
  </clipPath>
</defs>
<polyline clip-path="url(#clip392)" style="stroke:#000000; stroke-linecap:butt; stroke-linejoin:round; stroke-width:2; stroke-opacity:0.1; fill:none" points="
  156.922,1486.45 156.922,123.472 
  "/>
<polyline clip-path="url(#clip392)" style="stroke:#000000; stroke-linecap:butt; stroke-linejoin:round; stroke-width:2; stroke-opacity:0.1; fill:none" points="
  705.881,1486.45 705.881,123.472 
  "/>
<polyline clip-path="url(#clip392)" style="stroke:#000000; stroke-linecap:butt; stroke-linejoin:round; stroke-width:2; stroke-opacity:0.1; fill:none" points="
  1254.84,1486.45 1254.84,123.472 
  "/>
<polyline clip-path="url(#clip392)" style="stroke:#000000; stroke-linecap:butt; stroke-linejoin:round; stroke-width:2; stroke-opacity:0.1; fill:none" points="
  1803.8,1486.45 1803.8,123.472 
  "/>
<polyline clip-path="url(#clip390)" style="stroke:#000000; stroke-linecap:butt; stroke-linejoin:round; stroke-width:4; stroke-opacity:1; fill:none" points="
  156.922,1486.45 2352.76,1486.45 
  "/>
<polyline clip-path="url(#clip390)" style="stroke:#000000; stroke-linecap:butt; stroke-linejoin:round; stroke-width:4; stroke-opacity:1; fill:none" points="
  156.922,1486.45 156.922,1467.55 
  "/>
<polyline clip-path="url(#clip390)" style="stroke:#000000; stroke-linecap:butt; stroke-linejoin:round; stroke-width:4; stroke-opacity:1; fill:none" points="
  705.881,1486.45 705.881,1467.55 
  "/>
<polyline clip-path="url(#clip390)" style="stroke:#000000; stroke-linecap:butt; stroke-linejoin:round; stroke-width:4; stroke-opacity:1; fill:none" points="
  1254.84,1486.45 1254.84,1467.55 
  "/>
<polyline clip-path="url(#clip390)" style="stroke:#000000; stroke-linecap:butt; stroke-linejoin:round; stroke-width:4; stroke-opacity:1; fill:none" points="
  1803.8,1486.45 1803.8,1467.55 
  "/>
<path clip-path="url(#clip390)" d="M138.01 1518.36 L126.205 1536.81 L138.01 1536.81 L138.01 1518.36 M136.784 1514.29 L142.663 1514.29 L142.663 1536.81 L147.594 1536.81 L147.594 1540.7 L142.663 1540.7 L142.663 1548.85 L138.01 1548.85 L138.01 1540.7 L122.409 1540.7 L122.409 1536.19 L136.784 1514.29 Z" fill="#000000" fill-rule="evenodd" fill-opacity="1" /><path clip-path="url(#clip390)" d="M155.325 1542.97 L160.209 1542.97 L160.209 1548.85 L155.325 1548.85 L155.325 1542.97 Z" fill="#000000" fill-rule="evenodd" fill-opacity="1" /><path clip-path="url(#clip390)" d="M169.214 1514.29 L191.436 1514.29 L191.436 1516.28 L178.89 1548.85 L174.006 1548.85 L185.811 1518.22 L169.214 1518.22 L169.214 1514.29 Z" fill="#000000" fill-rule="evenodd" fill-opacity="1" /><path clip-path="url(#clip390)" d="M686.564 1518.36 L674.758 1536.81 L686.564 1536.81 L686.564 1518.36 M685.337 1514.29 L691.216 1514.29 L691.216 1536.81 L696.147 1536.81 L696.147 1540.7 L691.216 1540.7 L691.216 1548.85 L686.564 1548.85 L686.564 1540.7 L670.962 1540.7 L670.962 1536.19 L685.337 1514.29 Z" fill="#000000" fill-rule="evenodd" fill-opacity="1" /><path clip-path="url(#clip390)" d="M703.878 1542.97 L708.763 1542.97 L708.763 1548.85 L703.878 1548.85 L703.878 1542.97 Z" fill="#000000" fill-rule="evenodd" fill-opacity="1" /><path clip-path="url(#clip390)" d="M728.948 1532.44 Q725.614 1532.44 723.693 1534.22 Q721.795 1536 721.795 1539.13 Q721.795 1542.25 723.693 1544.03 Q725.614 1545.82 728.948 1545.82 Q732.281 1545.82 734.202 1544.03 Q736.124 1542.23 736.124 1539.13 Q736.124 1536 734.202 1534.22 Q732.304 1532.44 728.948 1532.44 M724.272 1530.45 Q721.263 1529.7 719.573 1527.64 Q717.906 1525.58 717.906 1522.62 Q717.906 1518.48 720.846 1516.07 Q723.809 1513.66 728.948 1513.66 Q734.11 1513.66 737.05 1516.07 Q739.989 1518.48 739.989 1522.62 Q739.989 1525.58 738.3 1527.64 Q736.633 1529.7 733.647 1530.45 Q737.026 1531.23 738.901 1533.52 Q740.8 1535.82 740.8 1539.13 Q740.8 1544.15 737.721 1546.83 Q734.665 1549.52 728.948 1549.52 Q723.23 1549.52 720.151 1546.83 Q717.096 1544.15 717.096 1539.13 Q717.096 1535.82 718.994 1533.52 Q720.892 1531.23 724.272 1530.45 M722.559 1523.06 Q722.559 1525.75 724.226 1527.25 Q725.915 1528.76 728.948 1528.76 Q731.957 1528.76 733.647 1527.25 Q735.36 1525.75 735.36 1523.06 Q735.36 1520.38 733.647 1518.87 Q731.957 1517.37 728.948 1517.37 Q725.915 1517.37 724.226 1518.87 Q722.559 1520.38 722.559 1523.06 Z" fill="#000000" fill-rule="evenodd" fill-opacity="1" /><path clip-path="url(#clip390)" d="M1235.57 1518.36 L1223.76 1536.81 L1235.57 1536.81 L1235.57 1518.36 M1234.34 1514.29 L1240.22 1514.29 L1240.22 1536.81 L1245.15 1536.81 L1245.15 1540.7 L1240.22 1540.7 L1240.22 1548.85 L1235.57 1548.85 L1235.57 1540.7 L1219.97 1540.7 L1219.97 1536.19 L1234.34 1514.29 Z" fill="#000000" fill-rule="evenodd" fill-opacity="1" /><path clip-path="url(#clip390)" d="M1252.88 1542.97 L1257.77 1542.97 L1257.77 1548.85 L1252.88 1548.85 L1252.88 1542.97 Z" fill="#000000" fill-rule="evenodd" fill-opacity="1" /><path clip-path="url(#clip390)" d="M1268.09 1548.13 L1268.09 1543.87 Q1269.85 1544.7 1271.66 1545.14 Q1273.46 1545.58 1275.2 1545.58 Q1279.83 1545.58 1282.26 1542.48 Q1284.71 1539.36 1285.06 1533.01 Q1283.72 1535.01 1281.66 1536.07 Q1279.6 1537.13 1277.1 1537.13 Q1271.91 1537.13 1268.88 1534.01 Q1265.87 1530.86 1265.87 1525.42 Q1265.87 1520.1 1269.02 1516.88 Q1272.17 1513.66 1277.4 1513.66 Q1283.39 1513.66 1286.54 1518.27 Q1289.71 1522.85 1289.71 1531.6 Q1289.71 1539.77 1285.82 1544.66 Q1281.96 1549.52 1275.41 1549.52 Q1273.65 1549.52 1271.84 1549.17 Q1270.04 1548.82 1268.09 1548.13 M1277.4 1533.48 Q1280.54 1533.48 1282.37 1531.32 Q1284.23 1529.17 1284.23 1525.42 Q1284.23 1521.7 1282.37 1519.54 Q1280.54 1517.37 1277.4 1517.37 Q1274.25 1517.37 1272.4 1519.54 Q1270.57 1521.7 1270.57 1525.42 Q1270.57 1529.17 1272.4 1531.32 Q1274.25 1533.48 1277.4 1533.48 Z" fill="#000000" fill-rule="evenodd" fill-opacity="1" /><path clip-path="url(#clip390)" d="M1770.96 1514.29 L1789.32 1514.29 L1789.32 1518.22 L1775.24 1518.22 L1775.24 1526.7 Q1776.26 1526.35 1777.28 1526.19 Q1778.3 1526 1779.32 1526 Q1785.11 1526 1788.49 1529.17 Q1791.86 1532.34 1791.86 1537.76 Q1791.86 1543.34 1788.39 1546.44 Q1784.92 1549.52 1778.6 1549.52 Q1776.42 1549.52 1774.16 1549.15 Q1771.91 1548.78 1769.5 1548.04 L1769.5 1543.34 Q1771.59 1544.47 1773.81 1545.03 Q1776.03 1545.58 1778.51 1545.58 Q1782.51 1545.58 1784.85 1543.48 Q1787.19 1541.37 1787.19 1537.76 Q1787.19 1534.15 1784.85 1532.04 Q1782.51 1529.94 1778.51 1529.94 Q1776.63 1529.94 1774.76 1530.35 Q1772.91 1530.77 1770.96 1531.65 L1770.96 1514.29 Z" fill="#000000" fill-rule="evenodd" fill-opacity="1" /><path clip-path="url(#clip390)" d="M1801.08 1542.97 L1805.96 1542.97 L1805.96 1548.85 L1801.08 1548.85 L1801.08 1542.97 Z" fill="#000000" fill-rule="evenodd" fill-opacity="1" /><path clip-path="url(#clip390)" d="M1826.15 1517.37 Q1822.54 1517.37 1820.71 1520.93 Q1818.9 1524.47 1818.9 1531.6 Q1818.9 1538.71 1820.71 1542.27 Q1822.54 1545.82 1826.15 1545.82 Q1829.78 1545.82 1831.59 1542.27 Q1833.42 1538.71 1833.42 1531.6 Q1833.42 1524.47 1831.59 1520.93 Q1829.78 1517.37 1826.15 1517.37 M1826.15 1513.66 Q1831.96 1513.66 1835.01 1518.27 Q1838.09 1522.85 1838.09 1531.6 Q1838.09 1540.33 1835.01 1544.94 Q1831.96 1549.52 1826.15 1549.52 Q1820.34 1549.52 1817.26 1544.94 Q1814.2 1540.33 1814.2 1531.6 Q1814.2 1522.85 1817.26 1518.27 Q1820.34 1513.66 1826.15 1513.66 Z" fill="#000000" fill-rule="evenodd" fill-opacity="1" /><polyline clip-path="url(#clip392)" style="stroke:#000000; stroke-linecap:butt; stroke-linejoin:round; stroke-width:2; stroke-opacity:0.1; fill:none" points="
  156.922,1304.23 2352.76,1304.23 
  "/>
<polyline clip-path="url(#clip392)" style="stroke:#000000; stroke-linecap:butt; stroke-linejoin:round; stroke-width:2; stroke-opacity:0.1; fill:none" points="
  156.922,1100.13 2352.76,1100.13 
  "/>
<polyline clip-path="url(#clip392)" style="stroke:#000000; stroke-linecap:butt; stroke-linejoin:round; stroke-width:2; stroke-opacity:0.1; fill:none" points="
  156.922,896.032 2352.76,896.032 
  "/>
<polyline clip-path="url(#clip392)" style="stroke:#000000; stroke-linecap:butt; stroke-linejoin:round; stroke-width:2; stroke-opacity:0.1; fill:none" points="
  156.922,691.932 2352.76,691.932 
  "/>
<polyline clip-path="url(#clip392)" style="stroke:#000000; stroke-linecap:butt; stroke-linejoin:round; stroke-width:2; stroke-opacity:0.1; fill:none" points="
  156.922,487.833 2352.76,487.833 
  "/>
<polyline clip-path="url(#clip392)" style="stroke:#000000; stroke-linecap:butt; stroke-linejoin:round; stroke-width:2; stroke-opacity:0.1; fill:none" points="
  156.922,283.733 2352.76,283.733 
  "/>
<polyline clip-path="url(#clip390)" style="stroke:#000000; stroke-linecap:butt; stroke-linejoin:round; stroke-width:4; stroke-opacity:1; fill:none" points="
  156.922,1486.45 156.922,123.472 
  "/>
<polyline clip-path="url(#clip390)" style="stroke:#000000; stroke-linecap:butt; stroke-linejoin:round; stroke-width:4; stroke-opacity:1; fill:none" points="
  156.922,1304.23 175.82,1304.23 
  "/>
<polyline clip-path="url(#clip390)" style="stroke:#000000; stroke-linecap:butt; stroke-linejoin:round; stroke-width:4; stroke-opacity:1; fill:none" points="
  156.922,1100.13 175.82,1100.13 
  "/>
<polyline clip-path="url(#clip390)" style="stroke:#000000; stroke-linecap:butt; stroke-linejoin:round; stroke-width:4; stroke-opacity:1; fill:none" points="
  156.922,896.032 175.82,896.032 
  "/>
<polyline clip-path="url(#clip390)" style="stroke:#000000; stroke-linecap:butt; stroke-linejoin:round; stroke-width:4; stroke-opacity:1; fill:none" points="
  156.922,691.932 175.82,691.932 
  "/>
<polyline clip-path="url(#clip390)" style="stroke:#000000; stroke-linecap:butt; stroke-linejoin:round; stroke-width:4; stroke-opacity:1; fill:none" points="
  156.922,487.833 175.82,487.833 
  "/>
<polyline clip-path="url(#clip390)" style="stroke:#000000; stroke-linecap:butt; stroke-linejoin:round; stroke-width:4; stroke-opacity:1; fill:none" points="
  156.922,283.733 175.82,283.733 
  "/>
<path clip-path="url(#clip390)" d="M67.9133 1302.88 Q71.2698 1303.59 73.1448 1305.86 Q75.0429 1308.13 75.0429 1311.46 Q75.0429 1316.58 71.5244 1319.38 Q68.0059 1322.18 61.5245 1322.18 Q59.3486 1322.18 57.0338 1321.74 Q54.7421 1321.33 52.2884 1320.47 L52.2884 1315.95 Q54.2328 1317.09 56.5477 1317.67 Q58.8625 1318.25 61.3856 1318.25 Q65.7837 1318.25 68.0754 1316.51 Q70.3902 1314.77 70.3902 1311.46 Q70.3902 1308.41 68.2374 1306.7 Q66.1078 1304.96 62.2884 1304.96 L58.2606 1304.96 L58.2606 1301.12 L62.4735 1301.12 Q65.9226 1301.12 67.7513 1299.75 Q69.58 1298.36 69.58 1295.77 Q69.58 1293.11 67.6819 1291.7 Q65.8069 1290.26 62.2884 1290.26 Q60.3671 1290.26 58.168 1290.68 Q55.969 1291.09 53.3301 1291.97 L53.3301 1287.81 Q55.9921 1287.07 58.3069 1286.7 Q60.6449 1286.33 62.705 1286.33 Q68.0291 1286.33 71.1309 1288.76 Q74.2327 1291.16 74.2327 1295.28 Q74.2327 1298.15 72.5892 1300.14 Q70.9457 1302.11 67.9133 1302.88 Z" fill="#000000" fill-rule="evenodd" fill-opacity="1" /><path clip-path="url(#clip390)" d="M83.9086 1315.63 L88.7928 1315.63 L88.7928 1321.51 L83.9086 1321.51 L83.9086 1315.63 Z" fill="#000000" fill-rule="evenodd" fill-opacity="1" /><path clip-path="url(#clip390)" d="M108.978 1290.03 Q105.367 1290.03 103.538 1293.59 Q101.733 1297.14 101.733 1304.27 Q101.733 1311.37 103.538 1314.94 Q105.367 1318.48 108.978 1318.48 Q112.612 1318.48 114.418 1314.94 Q116.246 1311.37 116.246 1304.27 Q116.246 1297.14 114.418 1293.59 Q112.612 1290.03 108.978 1290.03 M108.978 1286.33 Q114.788 1286.33 117.844 1290.93 Q120.922 1295.52 120.922 1304.27 Q120.922 1312.99 117.844 1317.6 Q114.788 1322.18 108.978 1322.18 Q103.168 1322.18 100.089 1317.6 Q97.0335 1312.99 97.0335 1304.27 Q97.0335 1295.52 100.089 1290.93 Q103.168 1286.33 108.978 1286.33 Z" fill="#000000" fill-rule="evenodd" fill-opacity="1" /><path clip-path="url(#clip390)" d="M68.9087 1098.78 Q72.2652 1099.49 74.1402 1101.76 Q76.0383 1104.03 76.0383 1107.36 Q76.0383 1112.48 72.5198 1115.28 Q69.0013 1118.08 62.5198 1118.08 Q60.3439 1118.08 58.0291 1117.64 Q55.7375 1117.23 53.2838 1116.37 L53.2838 1111.86 Q55.2282 1112.99 57.543 1113.57 Q59.8578 1114.15 62.381 1114.15 Q66.7791 1114.15 69.0707 1112.41 Q71.3855 1110.67 71.3855 1107.36 Q71.3855 1104.31 69.2328 1102.6 Q67.1032 1100.86 63.2837 1100.86 L59.256 1100.86 L59.256 1097.02 L63.4689 1097.02 Q66.918 1097.02 68.7467 1095.65 Q70.5754 1094.26 70.5754 1091.67 Q70.5754 1089.01 68.6772 1087.6 Q66.8022 1086.16 63.2837 1086.16 Q61.3624 1086.16 59.1634 1086.58 Q56.9643 1086.99 54.3254 1087.87 L54.3254 1083.71 Q56.9875 1082.97 59.3023 1082.6 Q61.6402 1082.23 63.7004 1082.23 Q69.0244 1082.23 72.1263 1084.66 Q75.2281 1087.06 75.2281 1091.18 Q75.2281 1094.05 73.5846 1096.05 Q71.9411 1098.01 68.9087 1098.78 Z" fill="#000000" fill-rule="evenodd" fill-opacity="1" /><path clip-path="url(#clip390)" d="M84.904 1111.53 L89.7882 1111.53 L89.7882 1117.41 L84.904 1117.41 L84.904 1111.53 Z" fill="#000000" fill-rule="evenodd" fill-opacity="1" /><path clip-path="url(#clip390)" d="M100.02 1082.85 L118.376 1082.85 L118.376 1086.79 L104.302 1086.79 L104.302 1095.26 Q105.321 1094.91 106.339 1094.75 Q107.358 1094.56 108.376 1094.56 Q114.163 1094.56 117.543 1097.74 Q120.922 1100.91 120.922 1106.32 Q120.922 1111.9 117.45 1115 Q113.978 1118.08 107.658 1118.08 Q105.483 1118.08 103.214 1117.71 Q100.969 1117.34 98.5613 1116.6 L98.5613 1111.9 Q100.645 1113.04 102.867 1113.59 Q105.089 1114.15 107.566 1114.15 Q111.571 1114.15 113.908 1112.04 Q116.246 1109.93 116.246 1106.32 Q116.246 1102.71 113.908 1100.61 Q111.571 1098.5 107.566 1098.5 Q105.691 1098.5 103.816 1098.92 Q101.964 1099.33 100.02 1100.21 L100.02 1082.85 Z" fill="#000000" fill-rule="evenodd" fill-opacity="1" /><path clip-path="url(#clip390)" d="M66.5939 882.826 L54.7884 901.275 L66.5939 901.275 L66.5939 882.826 M65.367 878.752 L71.2466 878.752 L71.2466 901.275 L76.1772 901.275 L76.1772 905.163 L71.2466 905.163 L71.2466 913.312 L66.5939 913.312 L66.5939 905.163 L50.9921 905.163 L50.9921 900.65 L65.367 878.752 Z" fill="#000000" fill-rule="evenodd" fill-opacity="1" /><path clip-path="url(#clip390)" d="M83.9086 907.432 L88.7928 907.432 L88.7928 913.312 L83.9086 913.312 L83.9086 907.432 Z" fill="#000000" fill-rule="evenodd" fill-opacity="1" /><path clip-path="url(#clip390)" d="M108.978 881.83 Q105.367 881.83 103.538 885.395 Q101.733 888.937 101.733 896.066 Q101.733 903.173 103.538 906.738 Q105.367 910.279 108.978 910.279 Q112.612 910.279 114.418 906.738 Q116.246 903.173 116.246 896.066 Q116.246 888.937 114.418 885.395 Q112.612 881.83 108.978 881.83 M108.978 878.127 Q114.788 878.127 117.844 882.733 Q120.922 887.316 120.922 896.066 Q120.922 904.793 117.844 909.4 Q114.788 913.983 108.978 913.983 Q103.168 913.983 100.089 909.4 Q97.0335 904.793 97.0335 896.066 Q97.0335 887.316 100.089 882.733 Q103.168 878.127 108.978 878.127 Z" fill="#000000" fill-rule="evenodd" fill-opacity="1" /><path clip-path="url(#clip390)" d="M67.5893 678.726 L55.7838 697.175 L67.5893 697.175 L67.5893 678.726 M66.3624 674.652 L72.242 674.652 L72.242 697.175 L77.1725 697.175 L77.1725 701.064 L72.242 701.064 L72.242 709.212 L67.5893 709.212 L67.5893 701.064 L51.9875 701.064 L51.9875 696.55 L66.3624 674.652 Z" fill="#000000" fill-rule="evenodd" fill-opacity="1" /><path clip-path="url(#clip390)" d="M84.904 703.333 L89.7882 703.333 L89.7882 709.212 L84.904 709.212 L84.904 703.333 Z" fill="#000000" fill-rule="evenodd" fill-opacity="1" /><path clip-path="url(#clip390)" d="M100.02 674.652 L118.376 674.652 L118.376 678.587 L104.302 678.587 L104.302 687.059 Q105.321 686.712 106.339 686.55 Q107.358 686.365 108.376 686.365 Q114.163 686.365 117.543 689.536 Q120.922 692.708 120.922 698.124 Q120.922 703.703 117.45 706.805 Q113.978 709.883 107.658 709.883 Q105.483 709.883 103.214 709.513 Q100.969 709.143 98.5613 708.402 L98.5613 703.703 Q100.645 704.837 102.867 705.393 Q105.089 705.948 107.566 705.948 Q111.571 705.948 113.908 703.842 Q116.246 701.735 116.246 698.124 Q116.246 694.513 113.908 692.407 Q111.571 690.3 107.566 690.3 Q105.691 690.3 103.816 690.717 Q101.964 691.134 100.02 692.013 L100.02 674.652 Z" fill="#000000" fill-rule="evenodd" fill-opacity="1" /><path clip-path="url(#clip390)" d="M53.793 470.553 L72.1494 470.553 L72.1494 474.488 L58.0754 474.488 L58.0754 482.96 Q59.0939 482.613 60.1124 482.451 Q61.131 482.266 62.1495 482.266 Q67.9365 482.266 71.3161 485.437 Q74.6957 488.608 74.6957 494.025 Q74.6957 499.604 71.2235 502.705 Q67.7513 505.784 61.4319 505.784 Q59.256 505.784 56.9875 505.414 Q54.7421 505.043 52.3347 504.303 L52.3347 499.604 Q54.418 500.738 56.6402 501.293 Q58.8625 501.849 61.3393 501.849 Q65.3439 501.849 67.6819 499.742 Q70.0198 497.636 70.0198 494.025 Q70.0198 490.414 67.6819 488.307 Q65.3439 486.201 61.3393 486.201 Q59.4643 486.201 57.5893 486.617 Q55.7375 487.034 53.793 487.914 L53.793 470.553 Z" fill="#000000" fill-rule="evenodd" fill-opacity="1" /><path clip-path="url(#clip390)" d="M83.9086 499.233 L88.7928 499.233 L88.7928 505.113 L83.9086 505.113 L83.9086 499.233 Z" fill="#000000" fill-rule="evenodd" fill-opacity="1" /><path clip-path="url(#clip390)" d="M108.978 473.631 Q105.367 473.631 103.538 477.196 Q101.733 480.738 101.733 487.867 Q101.733 494.974 103.538 498.539 Q105.367 502.08 108.978 502.08 Q112.612 502.08 114.418 498.539 Q116.246 494.974 116.246 487.867 Q116.246 480.738 114.418 477.196 Q112.612 473.631 108.978 473.631 M108.978 469.928 Q114.788 469.928 117.844 474.534 Q120.922 479.118 120.922 487.867 Q120.922 496.594 117.844 501.201 Q114.788 505.784 108.978 505.784 Q103.168 505.784 100.089 501.201 Q97.0335 496.594 97.0335 487.867 Q97.0335 479.118 100.089 474.534 Q103.168 469.928 108.978 469.928 Z" fill="#000000" fill-rule="evenodd" fill-opacity="1" /><path clip-path="url(#clip390)" d="M54.7884 266.453 L73.1448 266.453 L73.1448 270.389 L59.0708 270.389 L59.0708 278.861 Q60.0893 278.513 61.1078 278.351 Q62.1263 278.166 63.1448 278.166 Q68.9318 278.166 72.3115 281.338 Q75.6911 284.509 75.6911 289.925 Q75.6911 295.504 72.2189 298.606 Q68.7467 301.685 62.4272 301.685 Q60.2513 301.685 57.9828 301.314 Q55.7375 300.944 53.3301 300.203 L53.3301 295.504 Q55.4134 296.638 57.6356 297.194 Q59.8578 297.749 62.3347 297.749 Q66.3393 297.749 68.6772 295.643 Q71.0152 293.537 71.0152 289.925 Q71.0152 286.314 68.6772 284.208 Q66.3393 282.101 62.3347 282.101 Q60.4597 282.101 58.5847 282.518 Q56.7328 282.935 54.7884 283.814 L54.7884 266.453 Z" fill="#000000" fill-rule="evenodd" fill-opacity="1" /><path clip-path="url(#clip390)" d="M84.904 295.134 L89.7882 295.134 L89.7882 301.013 L84.904 301.013 L84.904 295.134 Z" fill="#000000" fill-rule="evenodd" fill-opacity="1" /><path clip-path="url(#clip390)" d="M100.02 266.453 L118.376 266.453 L118.376 270.389 L104.302 270.389 L104.302 278.861 Q105.321 278.513 106.339 278.351 Q107.358 278.166 108.376 278.166 Q114.163 278.166 117.543 281.338 Q120.922 284.509 120.922 289.925 Q120.922 295.504 117.45 298.606 Q113.978 301.685 107.658 301.685 Q105.483 301.685 103.214 301.314 Q100.969 300.944 98.5613 300.203 L98.5613 295.504 Q100.645 296.638 102.867 297.194 Q105.089 297.749 107.566 297.749 Q111.571 297.749 113.908 295.643 Q116.246 293.537 116.246 289.925 Q116.246 286.314 113.908 284.208 Q111.571 282.101 107.566 282.101 Q105.691 282.101 103.816 282.518 Q101.964 282.935 100.02 283.814 L100.02 266.453 Z" fill="#000000" fill-rule="evenodd" fill-opacity="1" /><path clip-path="url(#clip390)" d="M774.706 20.1573 L763.606 50.2555 L785.846 50.2555 L774.706 20.1573 M770.088 12.096 L779.364 12.096 L802.414 72.576 L793.907 72.576 L788.398 57.061 L761.135 57.061 L755.626 72.576 L746.997 72.576 L770.088 12.096 Z" fill="#000000" fill-rule="evenodd" fill-opacity="1" /><path clip-path="url(#clip390)" d="M837.211 34.1734 Q835.955 33.4443 834.457 33.1202 Q832.998 32.7556 831.216 32.7556 Q824.896 32.7556 821.494 36.8875 Q818.131 40.9789 818.131 48.6757 L818.131 72.576 L810.637 72.576 L810.637 27.2059 L818.131 27.2059 L818.131 34.2544 Q820.481 30.1225 824.248 28.1376 Q828.016 26.1121 833.403 26.1121 Q834.173 26.1121 835.105 26.2337 Q836.036 26.3147 837.171 26.5172 L837.211 34.1734 Z" fill="#000000" fill-rule="evenodd" fill-opacity="1" /><path clip-path="url(#clip390)" d="M882.014 48.0275 L882.014 51.6733 L847.743 51.6733 Q848.23 59.3701 852.362 63.421 Q856.534 67.4314 863.947 67.4314 Q868.241 67.4314 872.251 66.3781 Q876.302 65.3249 880.272 63.2184 L880.272 70.267 Q876.262 71.9684 872.049 72.8596 Q867.836 73.7508 863.502 73.7508 Q852.645 73.7508 846.285 67.4314 Q839.966 61.1119 839.966 50.3365 Q839.966 39.1965 845.961 32.6746 Q851.997 26.1121 862.205 26.1121 Q871.36 26.1121 876.667 32.0264 Q882.014 37.9003 882.014 48.0275 M874.56 45.84 Q874.479 39.7232 871.117 36.0774 Q867.795 32.4315 862.286 32.4315 Q856.048 32.4315 852.28 35.9558 Q848.554 39.4801 847.987 45.8805 L874.56 45.84 Z" fill="#000000" fill-rule="evenodd" fill-opacity="1" /><path clip-path="url(#clip390)" d="M914.867 49.7694 Q905.833 49.7694 902.35 51.8354 Q898.866 53.9013 898.866 58.8839 Q898.866 62.8538 901.458 65.2034 Q904.092 67.5124 908.588 67.5124 Q914.786 67.5124 918.513 63.1374 Q922.28 58.7219 922.28 51.4303 L922.28 49.7694 L914.867 49.7694 M929.734 46.6907 L929.734 72.576 L922.28 72.576 L922.28 65.6895 Q919.728 69.8214 915.92 71.8063 Q912.112 73.7508 906.603 73.7508 Q899.636 73.7508 895.504 69.8619 Q891.412 65.9325 891.412 59.3701 Q891.412 51.7138 896.516 47.825 Q901.661 43.9361 911.829 43.9361 L922.28 43.9361 L922.28 43.2069 Q922.28 38.0623 918.877 35.2672 Q915.515 32.4315 909.398 32.4315 Q905.509 32.4315 901.823 33.3632 Q898.137 34.295 894.734 36.1584 L894.734 29.2718 Q898.825 27.692 902.674 26.9223 Q906.522 26.1121 910.168 26.1121 Q920.012 26.1121 924.873 31.2163 Q929.734 36.3204 929.734 46.6907 Z" fill="#000000" fill-rule="evenodd" fill-opacity="1" /><path clip-path="url(#clip390)" d="M1010.27 48.0275 L1010.27 51.6733 L975.995 51.6733 Q976.481 59.3701 980.613 63.421 Q984.786 67.4314 992.199 67.4314 Q996.493 67.4314 1000.5 66.3781 Q1004.55 65.3249 1008.52 63.2184 L1008.52 70.267 Q1004.51 71.9684 1000.3 72.8596 Q996.088 73.7508 991.753 73.7508 Q980.897 73.7508 974.537 67.4314 Q968.217 61.1119 968.217 50.3365 Q968.217 39.1965 974.213 32.6746 Q980.249 26.1121 990.457 26.1121 Q999.612 26.1121 1004.92 32.0264 Q1010.27 37.9003 1010.27 48.0275 M1002.81 45.84 Q1002.73 39.7232 999.369 36.0774 Q996.047 32.4315 990.538 32.4315 Q984.299 32.4315 980.532 35.9558 Q976.805 39.4801 976.238 45.8805 L1002.81 45.84 Z" fill="#000000" fill-rule="evenodd" fill-opacity="1" /><path clip-path="url(#clip390)" d="M1045.47 9.54393 L1045.47 15.7418 L1038.34 15.7418 Q1034.33 15.7418 1032.75 17.3622 Q1031.21 18.9825 1031.21 23.1955 L1031.21 27.2059 L1043.48 27.2059 L1043.48 32.9987 L1031.21 32.9987 L1031.21 72.576 L1023.71 72.576 L1023.71 32.9987 L1016.59 32.9987 L1016.59 27.2059 L1023.71 27.2059 L1023.71 24.0462 Q1023.71 16.471 1027.24 13.0277 Q1030.76 9.54393 1038.42 9.54393 L1045.47 9.54393 Z" fill="#000000" fill-rule="evenodd" fill-opacity="1" /><path clip-path="url(#clip390)" d="M1074.68 9.54393 L1074.68 15.7418 L1067.55 15.7418 Q1063.54 15.7418 1061.96 17.3622 Q1060.42 18.9825 1060.42 23.1955 L1060.42 27.2059 L1072.69 27.2059 L1072.69 32.9987 L1060.42 32.9987 L1060.42 72.576 L1052.92 72.576 L1052.92 32.9987 L1045.79 32.9987 L1045.79 27.2059 L1052.92 27.2059 L1052.92 24.0462 Q1052.92 16.471 1056.45 13.0277 Q1059.97 9.54393 1067.63 9.54393 L1074.68 9.54393 Z" fill="#000000" fill-rule="evenodd" fill-opacity="1" /><path clip-path="url(#clip390)" d="M1119.72 48.0275 L1119.72 51.6733 L1085.45 51.6733 Q1085.94 59.3701 1090.07 63.421 Q1094.24 67.4314 1101.65 67.4314 Q1105.95 67.4314 1109.96 66.3781 Q1114.01 65.3249 1117.98 63.2184 L1117.98 70.267 Q1113.97 71.9684 1109.76 72.8596 Q1105.54 73.7508 1101.21 73.7508 Q1090.35 73.7508 1083.99 67.4314 Q1077.67 61.1119 1077.67 50.3365 Q1077.67 39.1965 1083.67 32.6746 Q1089.7 26.1121 1099.91 26.1121 Q1109.07 26.1121 1114.37 32.0264 Q1119.72 37.9003 1119.72 48.0275 M1112.27 45.84 Q1112.19 39.7232 1108.82 36.0774 Q1105.5 32.4315 1099.99 32.4315 Q1093.75 32.4315 1089.99 35.9558 Q1086.26 39.4801 1085.69 45.8805 L1112.27 45.84 Z" fill="#000000" fill-rule="evenodd" fill-opacity="1" /><path clip-path="url(#clip390)" d="M1164.61 28.9478 L1164.61 35.9153 Q1161.45 34.1734 1158.25 33.3227 Q1155.09 32.4315 1151.84 32.4315 Q1144.59 32.4315 1140.58 37.0496 Q1136.57 41.6271 1136.57 49.9314 Q1136.57 58.2358 1140.58 62.8538 Q1144.59 67.4314 1151.84 67.4314 Q1155.09 67.4314 1158.25 66.5807 Q1161.45 65.6895 1164.61 63.9476 L1164.61 70.8341 Q1161.49 72.2924 1158.12 73.0216 Q1154.8 73.7508 1151.03 73.7508 Q1140.79 73.7508 1134.75 67.3098 Q1128.71 60.8689 1128.71 49.9314 Q1128.71 38.832 1134.79 32.472 Q1140.91 26.1121 1151.52 26.1121 Q1154.96 26.1121 1158.25 26.8413 Q1161.53 27.5299 1164.61 28.9478 Z" fill="#000000" fill-rule="evenodd" fill-opacity="1" /><path clip-path="url(#clip390)" d="M1184.94 14.324 L1184.94 27.2059 L1200.29 27.2059 L1200.29 32.9987 L1184.94 32.9987 L1184.94 57.6282 Q1184.94 63.1779 1186.44 64.7578 Q1187.98 66.3376 1192.64 66.3376 L1200.29 66.3376 L1200.29 72.576 L1192.64 72.576 Q1184.01 72.576 1180.73 69.3758 Q1177.45 66.1351 1177.45 57.6282 L1177.45 32.9987 L1171.98 32.9987 L1171.98 27.2059 L1177.45 27.2059 L1177.45 14.324 L1184.94 14.324 Z" fill="#000000" fill-rule="evenodd" fill-opacity="1" /><path clip-path="url(#clip390)" d="M1254.05 32.4315 Q1248.05 32.4315 1244.57 37.1306 Q1241.09 41.7891 1241.09 49.9314 Q1241.09 58.0738 1244.53 62.7728 Q1248.01 67.4314 1254.05 67.4314 Q1260 67.4314 1263.49 62.7323 Q1266.97 58.0333 1266.97 49.9314 Q1266.97 41.8701 1263.49 37.1711 Q1260 32.4315 1254.05 32.4315 M1254.05 26.1121 Q1263.77 26.1121 1269.32 32.4315 Q1274.87 38.7509 1274.87 49.9314 Q1274.87 61.0714 1269.32 67.4314 Q1263.77 73.7508 1254.05 73.7508 Q1244.29 73.7508 1238.74 67.4314 Q1233.23 61.0714 1233.23 49.9314 Q1233.23 38.7509 1238.74 32.4315 Q1244.29 26.1121 1254.05 26.1121 Z" fill="#000000" fill-rule="evenodd" fill-opacity="1" /><path clip-path="url(#clip390)" d="M1324.94 45.1919 L1324.94 72.576 L1317.49 72.576 L1317.49 45.4349 Q1317.49 38.994 1314.97 35.7938 Q1312.46 32.5936 1307.44 32.5936 Q1301.4 32.5936 1297.92 36.4419 Q1294.44 40.2903 1294.44 46.9338 L1294.44 72.576 L1286.94 72.576 L1286.94 27.2059 L1294.44 27.2059 L1294.44 34.2544 Q1297.11 30.163 1300.72 28.1376 Q1304.36 26.1121 1309.1 26.1121 Q1316.92 26.1121 1320.93 30.9732 Q1324.94 35.7938 1324.94 45.1919 Z" fill="#000000" fill-rule="evenodd" fill-opacity="1" /><path clip-path="url(#clip390)" d="M1366.18 9.54393 L1373.63 9.54393 L1373.63 72.576 L1366.18 72.576 L1366.18 9.54393 Z" fill="#000000" fill-rule="evenodd" fill-opacity="1" /><path clip-path="url(#clip390)" d="M1409.85 49.7694 Q1400.81 49.7694 1397.33 51.8354 Q1393.85 53.9013 1393.85 58.8839 Q1393.85 62.8538 1396.44 65.2034 Q1399.07 67.5124 1403.57 67.5124 Q1409.77 67.5124 1413.49 63.1374 Q1417.26 58.7219 1417.26 51.4303 L1417.26 49.7694 L1409.85 49.7694 M1424.71 46.6907 L1424.71 72.576 L1417.26 72.576 L1417.26 65.6895 Q1414.71 69.8214 1410.9 71.8063 Q1407.09 73.7508 1401.58 73.7508 Q1394.62 73.7508 1390.48 69.8619 Q1386.39 65.9325 1386.39 59.3701 Q1386.39 51.7138 1391.5 47.825 Q1396.64 43.9361 1406.81 43.9361 L1417.26 43.9361 L1417.26 43.2069 Q1417.26 38.0623 1413.86 35.2672 Q1410.5 32.4315 1404.38 32.4315 Q1400.49 32.4315 1396.8 33.3632 Q1393.12 34.295 1389.71 36.1584 L1389.71 29.2718 Q1393.81 27.692 1397.65 26.9223 Q1401.5 26.1121 1405.15 26.1121 Q1414.99 26.1121 1419.85 31.2163 Q1424.71 36.3204 1424.71 46.6907 Z" fill="#000000" fill-rule="evenodd" fill-opacity="1" /><path clip-path="url(#clip390)" d="M1468.99 28.5427 L1468.99 35.5912 Q1465.83 33.9709 1462.43 33.1607 Q1459.02 32.3505 1455.38 32.3505 Q1449.83 32.3505 1447.03 34.0519 Q1444.28 35.7533 1444.28 39.156 Q1444.28 41.7486 1446.26 43.2475 Q1448.25 44.7058 1454.24 46.0426 L1456.8 46.6097 Q1464.74 48.3111 1468.06 51.4303 Q1471.42 54.509 1471.42 60.0587 Q1471.42 66.3781 1466.4 70.0644 Q1461.41 73.7508 1452.67 73.7508 Q1449.02 73.7508 1445.05 73.0216 Q1441.12 72.3329 1436.74 70.9151 L1436.74 63.2184 Q1440.88 65.3654 1444.89 66.4591 Q1448.9 67.5124 1452.83 67.5124 Q1458.09 67.5124 1460.93 65.73 Q1463.76 63.9071 1463.76 60.6258 Q1463.76 57.5877 1461.7 55.9673 Q1459.67 54.3469 1452.75 52.8481 L1450.15 52.2405 Q1443.23 50.7821 1440.15 47.7845 Q1437.07 44.7463 1437.07 39.4801 Q1437.07 33.0797 1441.61 29.5959 Q1446.14 26.1121 1454.49 26.1121 Q1458.62 26.1121 1462.27 26.7198 Q1465.91 27.3274 1468.99 28.5427 Z" fill="#000000" fill-rule="evenodd" fill-opacity="1" /><path clip-path="url(#clip390)" d="M1490.66 14.324 L1490.66 27.2059 L1506.02 27.2059 L1506.02 32.9987 L1490.66 32.9987 L1490.66 57.6282 Q1490.66 63.1779 1492.16 64.7578 Q1493.7 66.3376 1498.36 66.3376 L1506.02 66.3376 L1506.02 72.576 L1498.36 72.576 Q1489.73 72.576 1486.45 69.3758 Q1483.17 66.1351 1483.17 57.6282 L1483.17 32.9987 L1477.7 32.9987 L1477.7 27.2059 L1483.17 27.2059 L1483.17 14.324 L1490.66 14.324 Z" fill="#000000" fill-rule="evenodd" fill-opacity="1" /><path clip-path="url(#clip390)" d="M1574.76 49.9314 Q1574.76 41.7081 1571.36 37.0496 Q1567.99 32.3505 1562.08 32.3505 Q1556.17 32.3505 1552.76 37.0496 Q1549.4 41.7081 1549.4 49.9314 Q1549.4 58.1548 1552.76 62.8538 Q1556.17 67.5124 1562.08 67.5124 Q1567.99 67.5124 1571.36 62.8538 Q1574.76 58.1548 1574.76 49.9314 M1549.4 34.0924 Q1551.75 30.0415 1555.31 28.0971 Q1558.92 26.1121 1563.9 26.1121 Q1572.17 26.1121 1577.31 32.6746 Q1582.5 39.2371 1582.5 49.9314 Q1582.5 60.6258 1577.31 67.1883 Q1572.17 73.7508 1563.9 73.7508 Q1558.92 73.7508 1555.31 71.8063 Q1551.75 69.8214 1549.4 65.7705 L1549.4 72.576 L1541.91 72.576 L1541.91 9.54393 L1549.4 9.54393 L1549.4 34.0924 Z" fill="#000000" fill-rule="evenodd" fill-opacity="1" /><path clip-path="url(#clip390)" d="M1633.66 48.0275 L1633.66 51.6733 L1599.39 51.6733 Q1599.87 59.3701 1604.01 63.421 Q1608.18 67.4314 1615.59 67.4314 Q1619.89 67.4314 1623.9 66.3781 Q1627.95 65.3249 1631.92 63.2184 L1631.92 70.267 Q1627.91 71.9684 1623.69 72.8596 Q1619.48 73.7508 1615.15 73.7508 Q1604.29 73.7508 1597.93 67.4314 Q1591.61 61.1119 1591.61 50.3365 Q1591.61 39.1965 1597.61 32.6746 Q1603.64 26.1121 1613.85 26.1121 Q1623.01 26.1121 1628.31 32.0264 Q1633.66 37.9003 1633.66 48.0275 M1626.21 45.84 Q1626.12 39.7232 1622.76 36.0774 Q1619.44 32.4315 1613.93 32.4315 Q1607.69 32.4315 1603.93 35.9558 Q1600.2 39.4801 1599.63 45.8805 L1626.21 45.84 Z" fill="#000000" fill-rule="evenodd" fill-opacity="1" /><path clip-path="url(#clip390)" d="M1666.51 49.7694 Q1657.48 49.7694 1653.99 51.8354 Q1650.51 53.9013 1650.51 58.8839 Q1650.51 62.8538 1653.1 65.2034 Q1655.74 67.5124 1660.23 67.5124 Q1666.43 67.5124 1670.16 63.1374 Q1673.93 58.7219 1673.93 51.4303 L1673.93 49.7694 L1666.51 49.7694 M1681.38 46.6907 L1681.38 72.576 L1673.93 72.576 L1673.93 65.6895 Q1671.37 69.8214 1667.57 71.8063 Q1663.76 73.7508 1658.25 73.7508 Q1651.28 73.7508 1647.15 69.8619 Q1643.06 65.9325 1643.06 59.3701 Q1643.06 51.7138 1648.16 47.825 Q1653.31 43.9361 1663.47 43.9361 L1673.93 43.9361 L1673.93 43.2069 Q1673.93 38.0623 1670.52 35.2672 Q1667.16 32.4315 1661.04 32.4315 Q1657.15 32.4315 1653.47 33.3632 Q1649.78 34.295 1646.38 36.1584 L1646.38 29.2718 Q1650.47 27.692 1654.32 26.9223 Q1658.17 26.1121 1661.81 26.1121 Q1671.66 26.1121 1676.52 31.2163 Q1681.38 36.3204 1681.38 46.6907 Z" fill="#000000" fill-rule="evenodd" fill-opacity="1" /><path clip-path="url(#clip390)" d="M1732.06 35.9153 Q1734.85 30.8922 1738.74 28.5022 Q1742.63 26.1121 1747.89 26.1121 Q1754.98 26.1121 1758.83 31.0947 Q1762.68 36.0368 1762.68 45.1919 L1762.68 72.576 L1755.19 72.576 L1755.19 45.4349 Q1755.19 38.913 1752.88 35.7533 Q1750.57 32.5936 1745.83 32.5936 Q1740.04 32.5936 1736.67 36.4419 Q1733.31 40.2903 1733.31 46.9338 L1733.31 72.576 L1725.82 72.576 L1725.82 45.4349 Q1725.82 38.8725 1723.51 35.7533 Q1721.2 32.5936 1716.38 32.5936 Q1710.67 32.5936 1707.3 36.4824 Q1703.94 40.3308 1703.94 46.9338 L1703.94 72.576 L1696.45 72.576 L1696.45 27.2059 L1703.94 27.2059 L1703.94 34.2544 Q1706.49 30.082 1710.06 28.0971 Q1713.62 26.1121 1718.53 26.1121 Q1723.47 26.1121 1726.91 28.6237 Q1730.4 31.1352 1732.06 35.9153 Z" fill="#000000" fill-rule="evenodd" fill-opacity="1" /><polyline clip-path="url(#clip392)" style="stroke:#ff0000; stroke-linecap:butt; stroke-linejoin:round; stroke-width:8; stroke-opacity:1; fill:none" points="
  1967.91,162.047 1959.9,169.324 1951.93,176.577 1944,183.805 1936.1,191.009 1928.24,198.189 1920.41,205.345 1912.62,212.477 1904.87,219.587 1897.15,226.673 
  1889.46,233.737 1881.81,240.779 1874.19,247.798 1866.61,254.795 1859.05,261.77 1851.53,268.724 1844.05,275.657 1836.59,282.569 1829.16,289.46 1821.77,296.331 
  1814.41,303.181 1807.07,310.012 1799.77,316.822 1792.49,323.614 1785.25,330.386 1778.03,337.139 1770.84,343.874 1763.68,350.59 1756.55,357.288 1749.44,363.968 
  1742.36,370.63 1735.31,377.275 1728.28,383.902 1721.28,390.513 1714.31,397.107 1707.35,403.684 1700.43,410.246 1693.52,416.791 1686.64,423.321 1679.79,429.835 
  1672.96,436.334 1666.15,442.818 1659.36,449.288 1652.59,455.743 1645.85,462.184 1639.12,468.61 1632.42,475.024 1625.73,481.424 1619.07,487.81 1612.43,494.184 
  1605.8,500.545 1599.2,506.894 1592.61,513.23 1586.04,519.555 1579.49,525.867 1572.95,532.169 1566.44,538.459 1559.93,544.738 1553.45,551.007 1546.98,557.265 
  1540.53,563.514 1534.09,569.752 1527.66,575.98 1521.25,582.199 1514.86,588.409 1508.47,594.61 1502.1,600.803 1495.75,606.987 1489.4,613.163 1483.07,619.33 
  1476.75,625.491 1470.44,631.644 1464.14,637.789 1457.85,643.928 1451.57,650.06 1445.3,656.186 1439.04,662.306 1432.79,668.419 1426.55,674.527 1420.31,680.63 
  1414.09,686.727 1407.87,692.82 1401.65,698.908 1395.45,704.992 1389.25,711.071 1383.06,717.147 1376.87,723.218 1370.69,729.287 1364.51,735.352 1358.33,741.415 
  1352.16,747.475 1346,753.532 1339.83,759.588 1333.67,765.641 1327.52,771.693 1321.36,777.743 1315.21,783.793 1309.06,789.841 1302.9,795.889 1296.75,801.936 
  1290.6,807.984 1284.45,814.031 1278.3,820.079 1272.15,826.127 1265.99,832.177 1259.84,838.227 1253.68,844.279 1247.52,850.332 1241.36,856.388 1235.19,862.445 
  1229.02,868.505 1222.85,874.568 1216.67,880.633 1210.49,886.702 1204.3,892.773 1198.11,898.849 1191.91,904.928 1185.7,911.012 1179.49,917.1 1173.27,923.193 
  1167.04,929.29 1160.81,935.393 1154.57,941.501 1148.31,947.614 1142.05,953.734 1135.79,959.86 1129.51,965.992 1123.22,972.131 1116.92,978.276 1110.61,984.429 
  1104.29,990.59 1097.95,996.757 1091.61,1002.93 1085.25,1009.12 1078.88,1015.31 1072.5,1021.51 1066.1,1027.72 1059.69,1033.94 1053.27,1040.17 1046.83,1046.41 
  1040.37,1052.65 1033.91,1058.91 1027.42,1065.18 1020.92,1071.46 1014.4,1077.75 1007.87,1084.05 1001.31,1090.37 994.745,1096.69 988.158,1103.03 981.552,1109.38 
  974.927,1115.74 968.284,1122.11 961.62,1128.5 954.937,1134.9 948.234,1141.31 941.51,1147.74 934.765,1154.18 927.998,1160.63 921.21,1167.1 914.399,1173.59 
  907.566,1180.09 900.71,1186.6 893.831,1193.13 886.928,1199.67 880.001,1206.24 873.049,1212.81 866.073,1219.41 859.072,1226.02 852.044,1232.65 844.991,1239.29 
  837.912,1245.95 830.806,1252.63 823.672,1259.33 816.512,1266.05 809.323,1272.78 802.106,1279.53 794.861,1286.31 787.586,1293.1 780.283,1299.91 772.949,1306.74 
  765.585,1313.59 758.191,1320.46 750.766,1327.35 743.31,1334.26 735.821,1341.2 728.301,1348.15 720.749,1355.13 713.164,1362.12 705.545,1369.14 697.893,1376.18 
  690.207,1383.25 682.487,1390.33 674.732,1397.44 666.942,1404.58 659.117,1411.73 651.256,1418.91 643.358,1426.12 635.424,1433.34 627.453,1440.6 619.445,1447.87 
  
  "/>
<polyline clip-path="url(#clip392)" style="stroke:#008000; stroke-linecap:butt; stroke-linejoin:round; stroke-width:8; stroke-opacity:1; fill:none" points="
  1967.91,162.047 1960.07,169.17 1952.26,176.269 1944.48,183.343 1936.74,190.393 1929.02,197.419 1921.34,204.422 1913.69,211.4 1906.06,218.356 1898.47,225.289 
  1890.91,232.199 1883.38,239.086 1875.87,245.952 1868.4,252.795 1860.95,259.616 1853.53,266.417 1846.14,273.196 1838.77,279.954 1831.44,286.691 1824.13,293.408 
  1816.84,300.104 1809.58,306.781 1802.35,313.438 1795.14,320.075 1787.96,326.694 1780.8,333.293 1773.67,339.874 1766.56,346.436 1759.48,352.98 1752.42,359.506 
  1745.38,366.014 1738.36,372.505 1731.37,378.979 1724.4,385.436 1717.45,391.876 1710.52,398.3 1703.61,404.707 1696.73,411.099 1689.86,417.475 1683.02,423.835 
  1676.19,430.18 1669.39,436.511 1662.6,442.826 1655.83,449.127 1649.08,455.414 1642.35,461.688 1635.64,467.947 1628.94,474.193 1622.26,480.426 1615.6,486.646 
  1608.96,492.853 1602.33,499.048 1595.72,505.23 1589.12,511.401 1582.54,517.56 1575.97,523.707 1569.42,529.844 1562.88,535.969 1556.35,542.084 1549.84,548.189 
  1543.34,554.283 1536.86,560.367 1530.39,566.442 1523.93,572.507 1517.48,578.563 1511.04,584.61 1504.62,590.649 1498.21,596.679 1491.8,602.701 1485.41,608.715 
  1479.03,614.722 1472.65,620.721 1466.29,626.712 1459.93,632.697 1453.59,638.676 1447.25,644.648 1440.92,650.613 1434.6,656.573 1428.28,662.527 1421.98,668.476 
  1415.67,674.42 1409.38,680.359 1403.09,686.293 1396.81,692.223 1390.53,698.148 1384.26,704.07 1377.99,709.988 1371.73,715.903 1365.47,721.814 1359.21,727.723 
  1352.96,733.629 1346.71,739.532 1340.47,745.434 1334.22,751.334 1327.98,757.232 1321.74,763.128 1315.5,769.024 1309.27,774.918 1303.03,780.812 1296.8,786.706 
  1290.56,792.599 1284.32,798.493 1278.09,804.387 1271.85,810.281 1265.61,816.177 1259.37,822.074 1253.13,827.972 1246.89,833.871 1240.64,839.773 1234.39,845.676 
  1228.14,851.582 1221.89,857.491 1215.63,863.402 1209.36,869.317 1203.1,875.235 1196.82,881.157 1190.55,887.083 1184.26,893.012 1177.98,898.946 1171.68,904.885 
  1165.38,910.829 1159.07,916.778 1152.76,922.732 1146.43,928.692 1140.11,934.657 1133.77,940.629 1127.42,946.608 1121.07,952.593 1114.7,958.584 1108.33,964.583 
  1101.95,970.59 1095.55,976.604 1089.15,982.626 1082.74,988.656 1076.31,994.695 1069.87,1000.74 1063.43,1006.8 1056.97,1012.86 1050.49,1018.94 1044.01,1025.02 
  1037.51,1031.12 1031,1037.22 1024.48,1043.34 1017.94,1049.46 1011.39,1055.6 1004.82,1061.75 998.236,1067.9 991.639,1074.07 985.026,1080.26 978.397,1086.45 
  971.752,1092.66 965.09,1098.88 958.412,1105.11 951.716,1111.36 945.003,1117.62 938.271,1123.89 931.522,1130.18 924.754,1136.48 917.968,1142.79 911.162,1149.12 
  904.336,1155.47 897.491,1161.83 890.626,1168.21 883.74,1174.6 876.833,1181.01 869.906,1187.43 862.956,1193.87 855.985,1200.33 848.992,1206.8 841.977,1213.29 
  834.938,1219.8 827.877,1226.33 820.792,1232.87 813.683,1239.43 806.55,1246.01 799.393,1252.61 792.211,1259.23 785.004,1265.87 777.772,1272.52 770.514,1279.2 
  763.23,1285.9 755.919,1292.61 748.582,1299.35 741.218,1306.11 733.826,1312.89 726.407,1319.69 718.959,1326.51 711.484,1333.35 703.979,1340.22 696.446,1347.11 
  688.883,1354.02 681.291,1360.95 673.669,1367.9 666.016,1374.88 658.333,1381.89 650.618,1388.91 642.873,1395.96 635.096,1403.04 627.287,1410.13 619.445,1417.26 
  
  "/>
<polyline clip-path="url(#clip392)" style="stroke:#0000ff; stroke-linecap:butt; stroke-linejoin:round; stroke-width:8; stroke-opacity:1; fill:none" points="
  1967.91,162.047 1960.12,169.119 1952.37,176.166 1944.64,183.189 1936.95,190.188 1929.28,197.163 1921.65,204.114 1914.04,211.042 1906.46,217.946 1898.91,224.827 
  1891.39,231.686 1883.9,238.522 1876.43,245.336 1868.99,252.128 1861.58,258.899 1854.19,265.647 1846.83,272.375 1839.5,279.082 1832.19,285.768 1824.91,292.433 
  1817.65,299.079 1810.42,305.704 1803.21,312.31 1796.03,318.896 1788.87,325.463 1781.73,332.011 1774.61,338.54 1767.52,345.051 1760.45,351.544 1753.41,358.019 
  1746.38,364.476 1739.38,370.916 1732.4,377.338 1725.44,383.744 1718.5,390.132 1711.58,396.505 1704.68,402.861 1697.8,409.201 1690.94,415.526 1684.1,421.835 
  1677.27,428.129 1670.47,434.408 1663.68,440.672 1656.91,446.922 1650.16,453.158 1643.43,459.38 1636.71,465.588 1630.01,471.783 1623.33,477.964 1616.66,484.133 
  1610.01,490.289 1603.37,496.432 1596.75,502.564 1590.14,508.683 1583.55,514.791 1576.97,520.887 1570.41,526.972 1563.86,533.046 1557.32,539.11 1550.8,545.163 
  1544.28,551.206 1537.78,557.239 1531.3,563.262 1524.82,569.276 1518.36,575.281 1511.9,581.277 1505.46,587.264 1499.03,593.243 1492.6,599.214 1486.19,605.177 
  1479.79,611.132 1473.39,617.08 1467.01,623.02 1460.63,628.954 1454.26,634.881 1447.9,640.802 1441.55,646.716 1435.2,652.625 1428.86,658.528 1422.53,664.425 
  1416.2,670.317 1409.88,676.205 1403.57,682.088 1397.26,687.966 1390.96,693.841 1384.66,699.711 1378.36,705.578 1372.07,711.441 1365.79,717.301 1359.51,723.159 
  1353.23,729.014 1346.95,734.866 1340.68,740.716 1334.41,746.564 1328.14,752.411 1321.87,758.256 1315.6,764.101 1309.34,769.944 1303.07,775.787 1296.81,781.629 
  1290.55,787.471 1284.28,793.313 1278.02,799.156 1271.75,804.999 1265.49,810.844 1259.22,816.689 1252.95,822.536 1246.68,828.384 1240.4,834.234 1234.13,840.087 
  1227.85,845.941 1221.57,851.799 1215.28,857.659 1208.99,863.522 1202.7,869.389 1196.4,875.26 1190.09,881.134 1183.79,887.012 1177.47,892.895 1171.15,898.783 
  1164.83,904.675 1158.49,910.573 1152.15,916.476 1145.81,922.384 1139.46,928.299 1133.09,934.219 1126.73,940.146 1120.35,946.08 1113.96,952.02 1107.57,957.968 
  1101.17,963.923 1094.75,969.886 1088.33,975.857 1081.9,981.836 1075.45,987.823 1069,993.819 1062.53,999.824 1056.06,1005.84 1049.57,1011.86 1043.07,1017.89 
  1036.56,1023.94 1030.03,1029.99 1023.5,1036.05 1016.95,1042.13 1010.38,1048.21 1003.8,1054.31 997.21,1060.42 990.603,1066.54 983.982,1072.67 977.345,1078.81 
  970.693,1084.97 964.026,1091.14 957.342,1097.32 950.642,1103.51 943.925,1109.72 937.192,1115.94 930.441,1122.18 923.673,1128.43 916.887,1134.69 910.083,1140.97 
  903.26,1147.27 896.418,1153.57 889.557,1159.9 882.677,1166.24 875.778,1172.6 868.858,1178.97 861.917,1185.36 854.957,1191.76 847.975,1198.18 840.972,1204.62 
  833.947,1211.08 826.9,1217.56 819.832,1224.05 812.74,1230.56 805.626,1237.09 798.489,1243.64 791.328,1250.2 784.144,1256.79 776.935,1263.4 769.702,1270.02 
  762.445,1276.67 755.162,1283.33 747.854,1290.02 740.521,1296.73 733.161,1303.45 725.775,1310.2 718.363,1316.97 710.924,1323.76 703.457,1330.58 695.964,1337.41 
  688.442,1344.27 680.892,1351.15 673.314,1358.06 665.707,1364.99 658.071,1371.94 650.406,1378.91 642.711,1385.91 634.986,1392.93 627.231,1399.98 619.445,1407.05 
  
  "/>
<polyline clip-path="url(#clip392)" style="stroke:#000000; stroke-linecap:butt; stroke-linejoin:round; stroke-width:8; stroke-opacity:1; fill:none" points="
  1967.91,162.047 1960.15,169.093 1952.42,176.115 1944.72,183.112 1937.06,190.086 1929.41,197.035 1921.8,203.96 1914.22,210.862 1906.66,217.741 1899.13,224.596 
  1891.63,231.43 1884.16,238.24 1876.71,245.028 1869.29,251.795 1861.9,258.54 1854.53,265.263 1847.18,271.965 1839.86,278.646 1832.57,285.306 1825.3,291.946 
  1818.06,298.566 1810.84,305.166 1803.64,311.746 1796.47,318.306 1789.32,324.848 1782.19,331.37 1775.09,337.874 1768,344.359 1760.94,350.826 1753.9,357.275 
  1746.89,363.707 1739.89,370.121 1732.91,376.518 1725.96,382.898 1719.02,389.261 1712.11,395.607 1705.21,401.938 1698.33,408.253 1691.47,414.552 1684.63,420.835 
  1677.81,427.103 1671.01,433.357 1664.22,439.596 1657.45,445.82 1650.7,452.03 1643.97,458.226 1637.25,464.409 1630.55,470.578 1623.86,476.733 1617.19,482.876 
  1610.54,489.007 1603.9,495.125 1597.27,501.23 1590.66,507.324 1584.06,513.406 1577.48,519.477 1570.91,525.536 1564.35,531.585 1557.81,537.623 1551.27,543.65 
  1544.75,549.668 1538.25,555.675 1531.75,561.673 1525.27,567.661 1518.79,573.64 1512.33,579.611 1505.88,585.572 1499.43,591.525 1493,597.47 1486.58,603.408 
  1480.17,609.337 1473.76,615.259 1467.36,621.174 1460.98,627.082 1454.6,632.984 1448.22,638.878 1441.86,644.767 1435.5,650.65 1429.15,656.528 1422.81,662.399 
  1416.47,668.266 1410.14,674.128 1403.81,679.985 1397.49,685.838 1391.17,691.687 1384.86,697.532 1378.55,703.373 1372.25,709.21 1365.95,715.045 1359.65,720.877 
  1353.36,726.706 1347.07,732.533 1340.78,738.357 1334.5,744.18 1328.21,750.001 1321.93,755.821 1315.65,761.639 1309.37,767.457 1303.09,773.274 1296.82,779.091 
  1290.54,784.907 1284.26,790.724 1277.98,796.541 1271.7,802.358 1265.42,808.177 1259.14,813.997 1252.86,819.818 1246.57,825.64 1240.29,831.465 1233.99,837.292 
  1227.7,843.121 1221.41,848.953 1215.11,854.787 1208.8,860.625 1202.5,866.466 1196.18,872.311 1189.87,878.16 1183.55,884.012 1177.22,889.87 1170.89,895.731 
  1164.55,901.598 1158.2,907.47 1151.85,913.347 1145.5,919.23 1139.13,925.119 1132.76,931.014 1126.38,936.916 1119.99,942.824 1113.59,948.738 1107.19,954.661 
  1100.78,960.59 1094.35,966.527 1087.92,972.472 1081.48,978.425 1075.03,984.387 1068.56,990.357 1062.09,996.337 1055.6,1002.32 1049.11,1008.32 1042.6,1014.33 
  1036.08,1020.35 1029.55,1026.37 1023.01,1032.41 1016.45,1038.46 1009.88,1044.52 1003.29,1050.59 996.697,1056.67 990.086,1062.77 983.46,1068.87 976.819,1074.99 
  970.164,1081.12 963.493,1087.26 956.807,1093.42 950.105,1099.59 943.387,1105.77 936.652,1111.97 929.901,1118.18 923.132,1124.4 916.346,1130.64 909.543,1136.89 
  902.721,1143.16 895.882,1149.45 889.023,1155.74 882.146,1162.06 875.25,1168.39 868.334,1174.74 861.398,1181.1 854.442,1187.48 847.466,1193.88 840.469,1200.29 
  833.451,1206.72 826.412,1213.17 819.352,1219.64 812.269,1226.12 805.164,1232.63 798.037,1239.15 790.887,1245.69 783.713,1252.25 776.517,1258.83 769.296,1265.43 
  762.052,1272.05 754.783,1278.69 747.49,1285.35 740.172,1292.03 732.828,1298.73 725.46,1305.46 718.065,1312.2 710.644,1318.97 703.197,1325.76 695.722,1332.57 
  688.221,1339.4 680.693,1346.26 673.137,1353.14 665.553,1360.04 657.941,1366.96 650.3,1373.91 642.63,1380.89 634.931,1387.88 627.203,1394.9 619.445,1401.95 
  
  "/>
<polyline clip-path="url(#clip392)" style="stroke:#ffa500; stroke-linecap:butt; stroke-linejoin:round; stroke-width:8; stroke-opacity:1; fill:none" points="
  1967.91,162.047 1960.17,169.078 1952.46,176.084 1944.77,183.066 1937.12,190.024 1929.49,196.958 1921.89,203.868 1914.32,210.754 1906.78,217.618 1899.27,224.458 
  1891.78,231.276 1884.31,238.071 1876.88,244.844 1869.47,251.595 1862.08,258.324 1854.73,265.032 1847.39,271.719 1840.08,278.384 1832.8,285.029 1825.54,291.654 
  1818.3,298.258 1811.09,304.842 1803.9,311.407 1796.73,317.952 1789.59,324.478 1782.47,330.985 1775.37,337.474 1768.29,343.944 1761.24,350.395 1754.2,356.829 
  1747.19,363.245 1740.19,369.644 1733.22,376.025 1726.27,382.39 1719.34,388.738 1712.42,395.069 1705.53,401.384 1698.65,407.683 1691.8,413.967 1684.96,420.235 
  1678.14,426.488 1671.33,432.726 1664.55,438.949 1657.78,445.158 1651.03,451.353 1644.29,457.534 1637.57,463.701 1630.87,469.855 1624.18,475.995 1617.51,482.123 
  1610.85,488.237 1604.21,494.34 1597.58,500.43 1590.97,506.509 1584.37,512.575 1577.78,518.631 1571.2,524.675 1564.64,530.708 1558.1,536.73 1551.56,542.743 
  1545.04,548.745 1538.52,554.737 1532.02,560.719 1525.53,566.692 1519.05,572.656 1512.59,578.611 1506.13,584.557 1499.68,590.495 1493.24,596.424 1486.81,602.346 
  1480.39,608.26 1473.98,614.167 1467.58,620.066 1461.19,625.959 1454.8,631.845 1448.42,637.725 1442.05,643.598 1435.68,649.466 1429.32,655.328 1422.97,661.184 
  1416.63,667.035 1410.29,672.882 1403.95,678.724 1397.62,684.561 1391.3,690.394 1384.98,696.224 1378.66,702.05 1372.35,707.872 1366.05,713.691 1359.74,719.508 
  1353.44,725.321 1347.14,731.133 1340.85,736.942 1334.55,742.749 1328.26,748.555 1321.97,754.359 1315.68,760.162 1309.39,765.965 1303.11,771.766 1296.82,777.567 
  1290.53,783.369 1284.25,789.17 1277.96,794.972 1271.67,800.774 1265.38,806.577 1259.09,812.381 1252.8,818.187 1246.51,823.994 1240.21,829.804 1233.92,835.615 
  1227.61,841.429 1221.31,847.245 1215,853.064 1208.69,858.887 1202.38,864.712 1196.06,870.542 1189.73,876.375 1183.4,882.212 1177.07,888.054 1170.73,893.901 
  1164.38,899.752 1158.03,905.609 1151.67,911.47 1145.31,917.338 1138.94,923.211 1132.56,929.091 1126.17,934.977 1119.78,940.87 1113.37,946.769 1106.96,952.676 
  1100.54,958.59 1094.11,964.512 1087.67,970.442 1081.23,976.379 1074.77,982.326 1068.3,988.28 1061.82,994.244 1055.33,1000.22 1048.83,1006.2 1042.32,1012.19 
  1035.8,1018.19 1029.26,1024.21 1022.71,1030.23 1016.15,1036.26 1009.58,1042.31 1002.99,1048.36 996.389,1054.43 989.775,1060.51 983.147,1066.6 976.504,1072.7 
  969.846,1078.81 963.174,1084.94 956.486,1091.08 949.783,1097.24 943.064,1103.4 936.328,1109.58 929.577,1115.78 922.808,1121.99 916.022,1128.21 909.219,1134.45 
  902.398,1140.7 895.56,1146.97 888.703,1153.25 881.827,1159.55 874.933,1165.87 868.019,1172.2 861.086,1178.55 854.134,1184.91 847.161,1191.29 840.168,1197.69 
  833.154,1204.11 826.119,1210.54 819.064,1216.99 811.986,1223.46 804.887,1229.95 797.766,1236.46 790.622,1242.98 783.455,1249.53 776.266,1256.09 769.053,1262.68 
  761.817,1269.28 754.556,1275.91 747.272,1282.55 739.963,1289.22 732.629,1295.9 725.27,1302.61 717.886,1309.34 710.476,1316.09 703.04,1322.87 695.578,1329.66 
  688.089,1336.48 680.573,1343.32 673.03,1350.18 665.46,1357.07 657.862,1363.98 650.236,1370.91 642.582,1377.87 634.899,1384.85 627.186,1391.86 619.445,1398.89 
  
  "/>
<path clip-path="url(#clip390)" d="
M230.117 479.945 L678.426 479.945 L678.426 168.905 L230.117 168.905  Z
  " fill="#ffffff" fill-rule="evenodd" fill-opacity="1"/>
<polyline clip-path="url(#clip390)" style="stroke:#000000; stroke-linecap:butt; stroke-linejoin:round; stroke-width:4; stroke-opacity:1; fill:none" points="
  230.117,479.945 678.426,479.945 678.426,168.905 230.117,168.905 230.117,479.945 
  "/>
<polyline clip-path="url(#clip390)" style="stroke:#ff0000; stroke-linecap:butt; stroke-linejoin:round; stroke-width:4; stroke-opacity:1; fill:none" points="
  254.515,220.745 400.904,220.745 
  "/>
<path clip-path="url(#clip390)" d="M441.135 208.071 L434.793 225.27 L447.501 225.27 L441.135 208.071 M438.496 203.465 L443.797 203.465 L456.968 238.025 L452.107 238.025 L448.959 229.159 L433.381 229.159 L430.232 238.025 L425.302 238.025 L438.496 203.465 Z" fill="#000000" fill-rule="evenodd" fill-opacity="1" /><path clip-path="url(#clip390)" d="M477.454 216.497 L507.13 216.497 L507.13 220.386 L477.454 220.386 L477.454 216.497 M477.454 225.941 L507.13 225.941 L507.13 229.877 L477.454 229.877 L477.454 225.941 Z" fill="#000000" fill-rule="evenodd" fill-opacity="1" /><path clip-path="url(#clip390)" d="M545.139 207.539 L533.334 225.988 L545.139 225.988 L545.139 207.539 M543.912 203.465 L549.792 203.465 L549.792 225.988 L554.723 225.988 L554.723 229.877 L549.792 229.877 L549.792 238.025 L545.139 238.025 L545.139 229.877 L529.538 229.877 L529.538 225.363 L543.912 203.465 Z" fill="#000000" fill-rule="evenodd" fill-opacity="1" /><path clip-path="url(#clip390)" d="M562.454 232.145 L567.338 232.145 L567.338 238.025 L562.454 238.025 L562.454 232.145 Z" fill="#000000" fill-rule="evenodd" fill-opacity="1" /><path clip-path="url(#clip390)" d="M587.523 206.543 Q583.912 206.543 582.084 210.108 Q580.278 213.65 580.278 220.779 Q580.278 227.886 582.084 231.451 Q583.912 234.992 587.523 234.992 Q591.158 234.992 592.963 231.451 Q594.792 227.886 594.792 220.779 Q594.792 213.65 592.963 210.108 Q591.158 206.543 587.523 206.543 M587.523 202.84 Q593.333 202.84 596.389 207.446 Q599.468 212.029 599.468 220.779 Q599.468 229.506 596.389 234.113 Q593.333 238.696 587.523 238.696 Q581.713 238.696 578.634 234.113 Q575.579 229.506 575.579 220.779 Q575.579 212.029 578.634 207.446 Q581.713 202.84 587.523 202.84 Z" fill="#000000" fill-rule="evenodd" fill-opacity="1" /><polyline clip-path="url(#clip390)" style="stroke:#008000; stroke-linecap:butt; stroke-linejoin:round; stroke-width:4; stroke-opacity:1; fill:none" points="
  254.515,272.585 400.904,272.585 
  "/>
<path clip-path="url(#clip390)" d="M441.135 259.911 L434.793 277.11 L447.501 277.11 L441.135 259.911 M438.496 255.305 L443.797 255.305 L456.968 289.865 L452.107 289.865 L448.959 280.999 L433.381 280.999 L430.232 289.865 L425.302 289.865 L438.496 255.305 Z" fill="#000000" fill-rule="evenodd" fill-opacity="1" /><path clip-path="url(#clip390)" d="M477.454 268.337 L507.13 268.337 L507.13 272.226 L477.454 272.226 L477.454 268.337 M477.454 277.781 L507.13 277.781 L507.13 281.717 L477.454 281.717 L477.454 277.781 Z" fill="#000000" fill-rule="evenodd" fill-opacity="1" /><path clip-path="url(#clip390)" d="M542.292 273.453 Q538.959 273.453 537.037 275.235 Q535.139 277.017 535.139 280.142 Q535.139 283.267 537.037 285.05 Q538.959 286.832 542.292 286.832 Q545.625 286.832 547.547 285.05 Q549.468 283.244 549.468 280.142 Q549.468 277.017 547.547 275.235 Q545.649 273.453 542.292 273.453 M537.616 271.462 Q534.607 270.721 532.917 268.661 Q531.25 266.601 531.25 263.638 Q531.25 259.494 534.19 257.087 Q537.153 254.68 542.292 254.68 Q547.454 254.68 550.394 257.087 Q553.334 259.494 553.334 263.638 Q553.334 266.601 551.644 268.661 Q549.977 270.721 546.991 271.462 Q550.371 272.249 552.246 274.541 Q554.144 276.832 554.144 280.142 Q554.144 285.166 551.065 287.851 Q548.01 290.536 542.292 290.536 Q536.575 290.536 533.496 287.851 Q530.44 285.166 530.44 280.142 Q530.44 276.832 532.338 274.541 Q534.237 272.249 537.616 271.462 M535.903 264.078 Q535.903 266.763 537.57 268.268 Q539.26 269.772 542.292 269.772 Q545.301 269.772 546.991 268.268 Q548.704 266.763 548.704 264.078 Q548.704 261.393 546.991 259.888 Q545.301 258.383 542.292 258.383 Q539.26 258.383 537.57 259.888 Q535.903 261.393 535.903 264.078 Z" fill="#000000" fill-rule="evenodd" fill-opacity="1" /><path clip-path="url(#clip390)" d="M562.454 283.985 L567.338 283.985 L567.338 289.865 L562.454 289.865 L562.454 283.985 Z" fill="#000000" fill-rule="evenodd" fill-opacity="1" /><path clip-path="url(#clip390)" d="M587.523 258.383 Q583.912 258.383 582.084 261.948 Q580.278 265.49 580.278 272.619 Q580.278 279.726 582.084 283.291 Q583.912 286.832 587.523 286.832 Q591.158 286.832 592.963 283.291 Q594.792 279.726 594.792 272.619 Q594.792 265.49 592.963 261.948 Q591.158 258.383 587.523 258.383 M587.523 254.68 Q593.333 254.68 596.389 259.286 Q599.468 263.869 599.468 272.619 Q599.468 281.346 596.389 285.953 Q593.333 290.536 587.523 290.536 Q581.713 290.536 578.634 285.953 Q575.579 281.346 575.579 272.619 Q575.579 263.869 578.634 259.286 Q581.713 254.68 587.523 254.68 Z" fill="#000000" fill-rule="evenodd" fill-opacity="1" /><polyline clip-path="url(#clip390)" style="stroke:#0000ff; stroke-linecap:butt; stroke-linejoin:round; stroke-width:4; stroke-opacity:1; fill:none" points="
  254.515,324.425 400.904,324.425 
  "/>
<path clip-path="url(#clip390)" d="M441.135 311.751 L434.793 328.95 L447.501 328.95 L441.135 311.751 M438.496 307.145 L443.797 307.145 L456.968 341.705 L452.107 341.705 L448.959 332.839 L433.381 332.839 L430.232 341.705 L425.302 341.705 L438.496 307.145 Z" fill="#000000" fill-rule="evenodd" fill-opacity="1" /><path clip-path="url(#clip390)" d="M477.454 320.177 L507.13 320.177 L507.13 324.066 L477.454 324.066 L477.454 320.177 M477.454 329.621 L507.13 329.621 L507.13 333.557 L477.454 333.557 L477.454 329.621 Z" fill="#000000" fill-rule="evenodd" fill-opacity="1" /><path clip-path="url(#clip390)" d="M533.102 337.769 L540.741 337.769 L540.741 311.404 L532.431 313.071 L532.431 308.811 L540.695 307.145 L545.371 307.145 L545.371 337.769 L553.01 337.769 L553.01 341.705 L533.102 341.705 L533.102 337.769 Z" fill="#000000" fill-rule="evenodd" fill-opacity="1" /><path clip-path="url(#clip390)" d="M566.482 337.769 L582.801 337.769 L582.801 341.705 L560.857 341.705 L560.857 337.769 Q563.519 335.015 568.102 330.385 Q572.709 325.733 573.889 324.39 Q576.134 321.867 577.014 320.131 Q577.917 318.371 577.917 316.682 Q577.917 313.927 575.972 312.191 Q574.051 310.455 570.949 310.455 Q568.75 310.455 566.297 311.219 Q563.866 311.983 561.088 313.534 L561.088 308.811 Q563.912 307.677 566.366 307.098 Q568.82 306.52 570.857 306.52 Q576.227 306.52 579.422 309.205 Q582.616 311.89 582.616 316.381 Q582.616 318.51 581.806 320.432 Q581.019 322.33 578.912 324.922 Q578.334 325.594 575.232 328.811 Q572.13 332.006 566.482 337.769 Z" fill="#000000" fill-rule="evenodd" fill-opacity="1" /><path clip-path="url(#clip390)" d="M592.616 335.825 L597.5 335.825 L597.5 341.705 L592.616 341.705 L592.616 335.825 Z" fill="#000000" fill-rule="evenodd" fill-opacity="1" /><path clip-path="url(#clip390)" d="M617.685 310.223 Q614.074 310.223 612.245 313.788 Q610.44 317.33 610.44 324.459 Q610.44 331.566 612.245 335.131 Q614.074 338.672 617.685 338.672 Q621.319 338.672 623.125 335.131 Q624.954 331.566 624.954 324.459 Q624.954 317.33 623.125 313.788 Q621.319 310.223 617.685 310.223 M617.685 306.52 Q623.495 306.52 626.551 311.126 Q629.63 315.709 629.63 324.459 Q629.63 333.186 626.551 337.793 Q623.495 342.376 617.685 342.376 Q611.875 342.376 608.796 337.793 Q605.741 333.186 605.741 324.459 Q605.741 315.709 608.796 311.126 Q611.875 306.52 617.685 306.52 Z" fill="#000000" fill-rule="evenodd" fill-opacity="1" /><polyline clip-path="url(#clip390)" style="stroke:#000000; stroke-linecap:butt; stroke-linejoin:round; stroke-width:4; stroke-opacity:1; fill:none" points="
  254.515,376.265 400.904,376.265 
  "/>
<path clip-path="url(#clip390)" d="M441.135 363.591 L434.793 380.79 L447.501 380.79 L441.135 363.591 M438.496 358.985 L443.797 358.985 L456.968 393.545 L452.107 393.545 L448.959 384.679 L433.381 384.679 L430.232 393.545 L425.302 393.545 L438.496 358.985 Z" fill="#000000" fill-rule="evenodd" fill-opacity="1" /><path clip-path="url(#clip390)" d="M477.454 372.017 L507.13 372.017 L507.13 375.906 L477.454 375.906 L477.454 372.017 M477.454 381.461 L507.13 381.461 L507.13 385.397 L477.454 385.397 L477.454 381.461 Z" fill="#000000" fill-rule="evenodd" fill-opacity="1" /><path clip-path="url(#clip390)" d="M533.102 389.609 L540.741 389.609 L540.741 363.244 L532.431 364.911 L532.431 360.651 L540.695 358.985 L545.371 358.985 L545.371 389.609 L553.01 389.609 L553.01 393.545 L533.102 393.545 L533.102 389.609 Z" fill="#000000" fill-rule="evenodd" fill-opacity="1" /><path clip-path="url(#clip390)" d="M573.033 374.401 Q569.885 374.401 568.033 376.554 Q566.204 378.707 566.204 382.457 Q566.204 386.184 568.033 388.359 Q569.885 390.512 573.033 390.512 Q576.181 390.512 578.009 388.359 Q579.861 386.184 579.861 382.457 Q579.861 378.707 578.009 376.554 Q576.181 374.401 573.033 374.401 M582.315 359.749 L582.315 364.008 Q580.556 363.174 578.75 362.735 Q576.968 362.295 575.209 362.295 Q570.579 362.295 568.125 365.42 Q565.695 368.545 565.348 374.864 Q566.713 372.85 568.773 371.786 Q570.834 370.698 573.31 370.698 Q578.519 370.698 581.528 373.869 Q584.56 377.017 584.56 382.457 Q584.56 387.781 581.412 390.998 Q578.264 394.216 573.033 394.216 Q567.037 394.216 563.866 389.633 Q560.695 385.026 560.695 376.299 Q560.695 368.105 564.584 363.244 Q568.472 358.36 575.023 358.36 Q576.783 358.36 578.565 358.707 Q580.371 359.054 582.315 359.749 Z" fill="#000000" fill-rule="evenodd" fill-opacity="1" /><path clip-path="url(#clip390)" d="M592.616 387.665 L597.5 387.665 L597.5 393.545 L592.616 393.545 L592.616 387.665 Z" fill="#000000" fill-rule="evenodd" fill-opacity="1" /><path clip-path="url(#clip390)" d="M617.685 362.063 Q614.074 362.063 612.245 365.628 Q610.44 369.17 610.44 376.299 Q610.44 383.406 612.245 386.971 Q614.074 390.512 617.685 390.512 Q621.319 390.512 623.125 386.971 Q624.954 383.406 624.954 376.299 Q624.954 369.17 623.125 365.628 Q621.319 362.063 617.685 362.063 M617.685 358.36 Q623.495 358.36 626.551 362.966 Q629.63 367.549 629.63 376.299 Q629.63 385.026 626.551 389.633 Q623.495 394.216 617.685 394.216 Q611.875 394.216 608.796 389.633 Q605.741 385.026 605.741 376.299 Q605.741 367.549 608.796 362.966 Q611.875 358.36 617.685 358.36 Z" fill="#000000" fill-rule="evenodd" fill-opacity="1" /><polyline clip-path="url(#clip390)" style="stroke:#ffa500; stroke-linecap:butt; stroke-linejoin:round; stroke-width:4; stroke-opacity:1; fill:none" points="
  254.515,428.105 400.904,428.105 
  "/>
<path clip-path="url(#clip390)" d="M441.135 415.431 L434.793 432.63 L447.501 432.63 L441.135 415.431 M438.496 410.825 L443.797 410.825 L456.968 445.385 L452.107 445.385 L448.959 436.519 L433.381 436.519 L430.232 445.385 L425.302 445.385 L438.496 410.825 Z" fill="#000000" fill-rule="evenodd" fill-opacity="1" /><path clip-path="url(#clip390)" d="M477.454 423.857 L507.13 423.857 L507.13 427.746 L477.454 427.746 L477.454 423.857 M477.454 433.301 L507.13 433.301 L507.13 437.237 L477.454 437.237 L477.454 433.301 Z" fill="#000000" fill-rule="evenodd" fill-opacity="1" /><path clip-path="url(#clip390)" d="M536.32 441.449 L552.639 441.449 L552.639 445.385 L530.695 445.385 L530.695 441.449 Q533.357 438.695 537.94 434.065 Q542.547 429.413 543.727 428.07 Q545.973 425.547 546.852 423.811 Q547.755 422.051 547.755 420.362 Q547.755 417.607 545.811 415.871 Q543.889 414.135 540.787 414.135 Q538.588 414.135 536.135 414.899 Q533.704 415.663 530.926 417.214 L530.926 412.491 Q533.75 411.357 536.204 410.778 Q538.658 410.2 540.695 410.2 Q546.065 410.2 549.26 412.885 Q552.454 415.57 552.454 420.061 Q552.454 422.19 551.644 424.112 Q550.857 426.01 548.75 428.602 Q548.172 429.274 545.07 432.491 Q541.968 435.686 536.32 441.449 Z" fill="#000000" fill-rule="evenodd" fill-opacity="1" /><path clip-path="url(#clip390)" d="M572.454 413.903 Q568.843 413.903 567.014 417.468 Q565.209 421.01 565.209 428.139 Q565.209 435.246 567.014 438.811 Q568.843 442.352 572.454 442.352 Q576.088 442.352 577.894 438.811 Q579.722 435.246 579.722 428.139 Q579.722 421.01 577.894 417.468 Q576.088 413.903 572.454 413.903 M572.454 410.2 Q578.264 410.2 581.32 414.806 Q584.398 419.389 584.398 428.139 Q584.398 436.866 581.32 441.473 Q578.264 446.056 572.454 446.056 Q566.644 446.056 563.565 441.473 Q560.51 436.866 560.51 428.139 Q560.51 419.389 563.565 414.806 Q566.644 410.2 572.454 410.2 Z" fill="#000000" fill-rule="evenodd" fill-opacity="1" /><path clip-path="url(#clip390)" d="M592.616 439.505 L597.5 439.505 L597.5 445.385 L592.616 445.385 L592.616 439.505 Z" fill="#000000" fill-rule="evenodd" fill-opacity="1" /><path clip-path="url(#clip390)" d="M617.685 413.903 Q614.074 413.903 612.245 417.468 Q610.44 421.01 610.44 428.139 Q610.44 435.246 612.245 438.811 Q614.074 442.352 617.685 442.352 Q621.319 442.352 623.125 438.811 Q624.954 435.246 624.954 428.139 Q624.954 421.01 623.125 417.468 Q621.319 413.903 617.685 413.903 M617.685 410.2 Q623.495 410.2 626.551 414.806 Q629.63 419.389 629.63 428.139 Q629.63 436.866 626.551 441.473 Q623.495 446.056 617.685 446.056 Q611.875 446.056 608.796 441.473 Q605.741 436.866 605.741 428.139 Q605.741 419.389 608.796 414.806 Q611.875 410.2 617.685 410.2 Z" fill="#000000" fill-rule="evenodd" fill-opacity="1" /></svg>
