<?xml version="1.0" encoding="utf-8"?>
<svg xmlns="http://www.w3.org/2000/svg" xmlns:xlink="http://www.w3.org/1999/xlink" width="600" height="400" viewBox="0 0 2400 1600">
<defs>
  <clipPath id="clip270">
    <rect x="0" y="0" width="2400" height="1600"/>
  </clipPath>
</defs>
<path clip-path="url(#clip270)" d="
M0 1600 L2400 1600 L2400 0 L0 0  Z
  " fill="#ffffff" fill-rule="evenodd" fill-opacity="1"/>
<defs>
  <clipPath id="clip271">
    <rect x="480" y="0" width="1681" height="1600"/>
  </clipPath>
</defs>
<path clip-path="url(#clip270)" d="
M112.177 1486.45 L2352.76 1486.45 L2352.76 123.472 L112.177 123.472  Z
  " fill="#ffffff" fill-rule="evenodd" fill-opacity="1"/>
<defs>
  <clipPath id="clip272">
    <rect x="112" y="123" width="2242" height="1364"/>
  </clipPath>
</defs>
<polyline clip-path="url(#clip272)" style="stroke:#000000; stroke-linecap:butt; stroke-linejoin:round; stroke-width:2; stroke-opacity:0.1; fill:none" points="
  112.177,1486.45 112.177,123.472 
  "/>
<polyline clip-path="url(#clip272)" style="stroke:#000000; stroke-linecap:butt; stroke-linejoin:round; stroke-width:2; stroke-opacity:0.1; fill:none" points="
  672.322,1486.45 672.322,123.472 
  "/>
<polyline clip-path="url(#clip272)" style="stroke:#000000; stroke-linecap:butt; stroke-linejoin:round; stroke-width:2; stroke-opacity:0.1; fill:none" points="
  1232.47,1486.45 1232.47,123.472 
  "/>
<polyline clip-path="url(#clip272)" style="stroke:#000000; stroke-linecap:butt; stroke-linejoin:round; stroke-width:2; stroke-opacity:0.1; fill:none" points="
  1792.61,1486.45 1792.61,123.472 
  "/>
<polyline clip-path="url(#clip270)" style="stroke:#000000; stroke-linecap:butt; stroke-linejoin:round; stroke-width:4; stroke-opacity:1; fill:none" points="
  112.177,1486.45 2352.76,1486.45 
  "/>
<polyline clip-path="url(#clip270)" style="stroke:#000000; stroke-linecap:butt; stroke-linejoin:round; stroke-width:4; stroke-opacity:1; fill:none" points="
  112.177,1486.45 112.177,1467.55 
  "/>
<polyline clip-path="url(#clip270)" style="stroke:#000000; stroke-linecap:butt; stroke-linejoin:round; stroke-width:4; stroke-opacity:1; fill:none" points="
  672.322,1486.45 672.322,1467.55 
  "/>
<polyline clip-path="url(#clip270)" style="stroke:#000000; stroke-linecap:butt; stroke-linejoin:round; stroke-width:4; stroke-opacity:1; fill:none" points="
  1232.47,1486.45 1232.47,1467.55 
  "/>
<polyline clip-path="url(#clip270)" style="stroke:#000000; stroke-linecap:butt; stroke-linejoin:round; stroke-width:4; stroke-opacity:1; fill:none" points="
  1792.61,1486.45 1792.61,1467.55 
  "/>
<path clip-path="url(#clip270)" d="M93.2652 1518.36 L81.4597 1536.81 L93.2652 1536.81 L93.2652 1518.36 M92.0384 1514.29 L97.918 1514.29 L97.918 1536.81 L102.849 1536.81 L102.849 1540.7 L97.918 1540.7 L97.918 1548.85 L93.2652 1548.85 L93.2652 1540.7 L77.6635 1540.7 L77.6635 1536.19 L92.0384 1514.29 Z" fill="#000000" fill-rule="evenodd" fill-opacity="1" /><path clip-path="url(#clip270)" d="M110.58 1542.97 L115.464 1542.97 L115.464 1548.85 L110.58 1548.85 L110.58 1542.97 Z" fill="#000000" fill-rule="evenodd" fill-opacity="1" /><path clip-path="url(#clip270)" d="M124.469 1514.29 L146.691 1514.29 L146.691 1516.28 L134.145 1548.85 L129.26 1548.85 L141.066 1518.22 L124.469 1518.22 L124.469 1514.29 Z" fill="#000000" fill-rule="evenodd" fill-opacity="1" /><path clip-path="url(#clip270)" d="M653.005 1518.36 L641.199 1536.81 L653.005 1536.81 L653.005 1518.36 M651.778 1514.29 L657.658 1514.29 L657.658 1536.81 L662.588 1536.81 L662.588 1540.7 L657.658 1540.7 L657.658 1548.85 L653.005 1548.85 L653.005 1540.7 L637.403 1540.7 L637.403 1536.19 L651.778 1514.29 Z" fill="#000000" fill-rule="evenodd" fill-opacity="1" /><path clip-path="url(#clip270)" d="M670.32 1542.97 L675.204 1542.97 L675.204 1548.85 L670.32 1548.85 L670.32 1542.97 Z" fill="#000000" fill-rule="evenodd" fill-opacity="1" /><path clip-path="url(#clip270)" d="M695.389 1532.44 Q692.056 1532.44 690.134 1534.22 Q688.236 1536 688.236 1539.13 Q688.236 1542.25 690.134 1544.03 Q692.056 1545.82 695.389 1545.82 Q698.722 1545.82 700.643 1544.03 Q702.565 1542.23 702.565 1539.13 Q702.565 1536 700.643 1534.22 Q698.745 1532.44 695.389 1532.44 M690.713 1530.45 Q687.704 1529.7 686.014 1527.64 Q684.347 1525.58 684.347 1522.62 Q684.347 1518.48 687.287 1516.07 Q690.25 1513.66 695.389 1513.66 Q700.551 1513.66 703.491 1516.07 Q706.43 1518.48 706.43 1522.62 Q706.43 1525.58 704.741 1527.64 Q703.074 1529.7 700.088 1530.45 Q703.468 1531.23 705.343 1533.52 Q707.241 1535.82 707.241 1539.13 Q707.241 1544.15 704.162 1546.83 Q701.106 1549.52 695.389 1549.52 Q689.671 1549.52 686.593 1546.83 Q683.537 1544.15 683.537 1539.13 Q683.537 1535.82 685.435 1533.52 Q687.333 1531.23 690.713 1530.45 M689 1523.06 Q689 1525.75 690.667 1527.25 Q692.356 1528.76 695.389 1528.76 Q698.398 1528.76 700.088 1527.25 Q701.801 1525.75 701.801 1523.06 Q701.801 1520.38 700.088 1518.87 Q698.398 1517.37 695.389 1517.37 Q692.356 1517.37 690.667 1518.87 Q689 1520.38 689 1523.06 Z" fill="#000000" fill-rule="evenodd" fill-opacity="1" /><path clip-path="url(#clip270)" d="M1213.2 1518.36 L1201.39 1536.81 L1213.2 1536.81 L1213.2 1518.36 M1211.97 1514.29 L1217.85 1514.29 L1217.85 1536.81 L1222.78 1536.81 L1222.78 1540.7 L1217.85 1540.7 L1217.85 1548.85 L1213.2 1548.85 L1213.2 1540.7 L1197.59 1540.7 L1197.59 1536.19 L1211.97 1514.29 Z" fill="#000000" fill-rule="evenodd" fill-opacity="1" /><path clip-path="url(#clip270)" d="M1230.51 1542.97 L1235.39 1542.97 L1235.39 1548.85 L1230.51 1548.85 L1230.51 1542.97 Z" fill="#000000" fill-rule="evenodd" fill-opacity="1" /><path clip-path="url(#clip270)" d="M1245.72 1548.13 L1245.72 1543.87 Q1247.48 1544.7 1249.28 1545.14 Q1251.09 1545.58 1252.83 1545.58 Q1257.45 1545.58 1259.89 1542.48 Q1262.34 1539.36 1262.69 1533.01 Q1261.34 1535.01 1259.28 1536.07 Q1257.22 1537.13 1254.72 1537.13 Q1249.54 1537.13 1246.51 1534.01 Q1243.5 1530.86 1243.5 1525.42 Q1243.5 1520.1 1246.64 1516.88 Q1249.79 1513.66 1255.02 1513.66 Q1261.02 1513.66 1264.17 1518.27 Q1267.34 1522.85 1267.34 1531.6 Q1267.34 1539.77 1263.45 1544.66 Q1259.58 1549.52 1253.03 1549.52 Q1251.27 1549.52 1249.47 1549.17 Q1247.66 1548.82 1245.72 1548.13 M1255.02 1533.48 Q1258.17 1533.48 1260 1531.32 Q1261.85 1529.17 1261.85 1525.42 Q1261.85 1521.7 1260 1519.54 Q1258.17 1517.37 1255.02 1517.37 Q1251.88 1517.37 1250.02 1519.54 Q1248.2 1521.7 1248.2 1525.42 Q1248.2 1529.17 1250.02 1531.32 Q1251.88 1533.48 1255.02 1533.48 Z" fill="#000000" fill-rule="evenodd" fill-opacity="1" /><path clip-path="url(#clip270)" d="M1759.78 1514.29 L1778.13 1514.29 L1778.13 1518.22 L1764.06 1518.22 L1764.06 1526.7 Q1765.08 1526.35 1766.1 1526.19 Q1767.11 1526 1768.13 1526 Q1773.92 1526 1777.3 1529.17 Q1780.68 1532.34 1780.68 1537.76 Q1780.68 1543.34 1777.21 1546.44 Q1773.73 1549.52 1767.41 1549.52 Q1765.24 1549.52 1762.97 1549.15 Q1760.72 1548.78 1758.32 1548.04 L1758.32 1543.34 Q1760.4 1544.47 1762.62 1545.03 Q1764.85 1545.58 1767.32 1545.58 Q1771.33 1545.58 1773.66 1543.48 Q1776 1541.37 1776 1537.76 Q1776 1534.15 1773.66 1532.04 Q1771.33 1529.94 1767.32 1529.94 Q1765.45 1529.94 1763.57 1530.35 Q1761.72 1530.77 1759.78 1531.65 L1759.78 1514.29 Z" fill="#000000" fill-rule="evenodd" fill-opacity="1" /><path clip-path="url(#clip270)" d="M1789.89 1542.97 L1794.78 1542.97 L1794.78 1548.85 L1789.89 1548.85 L1789.89 1542.97 Z" fill="#000000" fill-rule="evenodd" fill-opacity="1" /><path clip-path="url(#clip270)" d="M1814.96 1517.37 Q1811.35 1517.37 1809.52 1520.93 Q1807.72 1524.47 1807.72 1531.6 Q1807.72 1538.71 1809.52 1542.27 Q1811.35 1545.82 1814.96 1545.82 Q1818.59 1545.82 1820.4 1542.27 Q1822.23 1538.71 1822.23 1531.6 Q1822.23 1524.47 1820.4 1520.93 Q1818.59 1517.37 1814.96 1517.37 M1814.96 1513.66 Q1820.77 1513.66 1823.83 1518.27 Q1826.91 1522.85 1826.91 1531.6 Q1826.91 1540.33 1823.83 1544.94 Q1820.77 1549.52 1814.96 1549.52 Q1809.15 1549.52 1806.07 1544.94 Q1803.02 1540.33 1803.02 1531.6 Q1803.02 1522.85 1806.07 1518.27 Q1809.15 1513.66 1814.96 1513.66 Z" fill="#000000" fill-rule="evenodd" fill-opacity="1" /><polyline clip-path="url(#clip272)" style="stroke:#000000; stroke-linecap:butt; stroke-linejoin:round; stroke-width:2; stroke-opacity:0.1; fill:none" points="
  112.177,1464.37 2352.76,1464.37 
  "/>
<polyline clip-path="url(#clip272)" style="stroke:#000000; stroke-linecap:butt; stroke-linejoin:round; stroke-width:2; stroke-opacity:0.1; fill:none" points="
  112.177,1121.48 2352.76,1121.48 
  "/>
<polyline clip-path="url(#clip272)" style="stroke:#000000; stroke-linecap:butt; stroke-linejoin:round; stroke-width:2; stroke-opacity:0.1; fill:none" points="
  112.177,778.594 2352.76,778.594 
  "/>
<polyline clip-path="url(#clip272)" style="stroke:#000000; stroke-linecap:butt; stroke-linejoin:round; stroke-width:2; stroke-opacity:0.1; fill:none" points="
  112.177,435.707 2352.76,435.707 
  "/>
<polyline clip-path="url(#clip270)" style="stroke:#000000; stroke-linecap:butt; stroke-linejoin:round; stroke-width:4; stroke-opacity:1; fill:none" points="
  112.177,1486.45 112.177,123.472 
  "/>
<polyline clip-path="url(#clip270)" style="stroke:#000000; stroke-linecap:butt; stroke-linejoin:round; stroke-width:4; stroke-opacity:1; fill:none" points="
  112.177,1464.37 131.075,1464.37 
  "/>
<polyline clip-path="url(#clip270)" style="stroke:#000000; stroke-linecap:butt; stroke-linejoin:round; stroke-width:4; stroke-opacity:1; fill:none" points="
  112.177,1121.48 131.075,1121.48 
  "/>
<polyline clip-path="url(#clip270)" style="stroke:#000000; stroke-linecap:butt; stroke-linejoin:round; stroke-width:4; stroke-opacity:1; fill:none" points="
  112.177,778.594 131.075,778.594 
  "/>
<polyline clip-path="url(#clip270)" style="stroke:#000000; stroke-linecap:butt; stroke-linejoin:round; stroke-width:4; stroke-opacity:1; fill:none" points="
  112.177,435.707 131.075,435.707 
  "/>
<path clip-path="url(#clip270)" d="M59.8578 1477.71 L76.1772 1477.71 L76.1772 1481.65 L54.2328 1481.65 L54.2328 1477.71 Q56.8949 1474.96 61.4782 1470.33 Q66.0846 1465.68 67.2652 1464.33 Q69.5105 1461.81 70.3902 1460.07 Q71.2929 1458.31 71.2929 1456.62 Q71.2929 1453.87 69.3485 1452.13 Q67.4272 1450.4 64.3254 1450.4 Q62.1263 1450.4 59.6726 1451.16 Q57.2421 1451.93 54.4643 1453.48 L54.4643 1448.75 Q57.2884 1447.62 59.7421 1447.04 Q62.1958 1446.46 64.2328 1446.46 Q69.6031 1446.46 72.7976 1449.15 Q75.992 1451.83 75.992 1456.32 Q75.992 1458.45 75.1818 1460.37 Q74.3948 1462.27 72.2883 1464.87 Q71.7096 1465.54 68.6078 1468.75 Q65.5059 1471.95 59.8578 1477.71 Z" fill="#000000" fill-rule="evenodd" fill-opacity="1" /><path clip-path="url(#clip270)" d="M69.0476 1120.13 Q72.404 1120.84 74.279 1123.11 Q76.1772 1125.38 76.1772 1128.71 Q76.1772 1133.83 72.6587 1136.63 Q69.1402 1139.43 62.6587 1139.43 Q60.4828 1139.43 58.168 1138.99 Q55.8764 1138.58 53.4227 1137.72 L53.4227 1133.21 Q55.3671 1134.34 57.6819 1134.92 Q59.9967 1135.5 62.5198 1135.5 Q66.918 1135.5 69.2096 1133.76 Q71.5244 1132.02 71.5244 1128.71 Q71.5244 1125.66 69.3717 1123.95 Q67.242 1122.21 63.4226 1122.21 L59.3949 1122.21 L59.3949 1118.37 L63.6078 1118.37 Q67.0569 1118.37 68.8855 1117 Q70.7142 1115.61 70.7142 1113.02 Q70.7142 1110.36 68.8161 1108.95 Q66.9411 1107.51 63.4226 1107.51 Q61.5013 1107.51 59.3023 1107.93 Q57.1032 1108.34 54.4643 1109.22 L54.4643 1105.06 Q57.1264 1104.32 59.4412 1103.95 Q61.7791 1103.58 63.8393 1103.58 Q69.1633 1103.58 72.2652 1106.01 Q75.367 1108.41 75.367 1112.53 Q75.367 1115.4 73.7235 1117.4 Q72.08 1119.36 69.0476 1120.13 Z" fill="#000000" fill-rule="evenodd" fill-opacity="1" /><path clip-path="url(#clip270)" d="M66.5939 765.388 L54.7884 783.837 L66.5939 783.837 L66.5939 765.388 M65.367 761.314 L71.2466 761.314 L71.2466 783.837 L76.1772 783.837 L76.1772 787.726 L71.2466 787.726 L71.2466 795.874 L66.5939 795.874 L66.5939 787.726 L50.9921 787.726 L50.9921 783.212 L65.367 761.314 Z" fill="#000000" fill-rule="evenodd" fill-opacity="1" /><path clip-path="url(#clip270)" d="M55.2745 418.427 L73.6309 418.427 L73.6309 422.362 L59.5569 422.362 L59.5569 430.834 Q60.5754 430.487 61.5939 430.325 Q62.6124 430.14 63.6309 430.14 Q69.418 430.14 72.7976 433.311 Q76.1772 436.482 76.1772 441.899 Q76.1772 447.478 72.705 450.58 Q69.2328 453.658 62.9134 453.658 Q60.7374 453.658 58.4689 453.288 Q56.2236 452.918 53.8162 452.177 L53.8162 447.478 Q55.8995 448.612 58.1217 449.168 Q60.3439 449.723 62.8208 449.723 Q66.8254 449.723 69.1633 447.617 Q71.5013 445.51 71.5013 441.899 Q71.5013 438.288 69.1633 436.182 Q66.8254 434.075 62.8208 434.075 Q60.9458 434.075 59.0708 434.492 Q57.2189 434.908 55.2745 435.788 L55.2745 418.427 Z" fill="#000000" fill-rule="evenodd" fill-opacity="1" /><path clip-path="url(#clip270)" d="M471.524 12.096 L480.315 12.096 L497.086 36.9686 L513.735 12.096 L522.525 12.096 L501.137 43.7741 L501.137 72.576 L492.913 72.576 L492.913 43.7741 L471.524 12.096 Z" fill="#000000" fill-rule="evenodd" fill-opacity="1" /><path clip-path="url(#clip270)" d="M536.744 32.4315 Q530.749 32.4315 527.265 37.1306 Q523.781 41.7891 523.781 49.9314 Q523.781 58.0738 527.224 62.7728 Q530.708 67.4314 536.744 67.4314 Q542.699 67.4314 546.183 62.7323 Q549.666 58.0333 549.666 49.9314 Q549.666 41.8701 546.183 37.1711 Q542.699 32.4315 536.744 32.4315 M536.744 26.1121 Q546.466 26.1121 552.016 32.4315 Q557.566 38.7509 557.566 49.9314 Q557.566 61.0714 552.016 67.4314 Q546.466 73.7508 536.744 73.7508 Q526.981 73.7508 521.432 67.4314 Q515.922 61.0714 515.922 49.9314 Q515.922 38.7509 521.432 32.4315 Q526.981 26.1121 536.744 26.1121 Z" fill="#000000" fill-rule="evenodd" fill-opacity="1" /><path clip-path="url(#clip270)" d="M569.151 54.671 L569.151 27.2059 L576.605 27.2059 L576.605 54.3874 Q576.605 60.8284 579.116 64.0691 Q581.628 67.2693 586.651 67.2693 Q592.687 67.2693 596.171 63.421 Q599.695 59.5726 599.695 52.9291 L599.695 27.2059 L607.149 27.2059 L607.149 72.576 L599.695 72.576 L599.695 65.6084 Q596.981 69.7404 593.376 71.7658 Q589.811 73.7508 585.071 73.7508 Q577.253 73.7508 573.202 68.8897 Q569.151 64.0286 569.151 54.671 M587.907 26.1121 L587.907 26.1121 Z" fill="#000000" fill-rule="evenodd" fill-opacity="1" /><path clip-path="url(#clip270)" d="M660.216 45.1919 L660.216 72.576 L652.762 72.576 L652.762 45.4349 Q652.762 38.994 650.25 35.7938 Q647.739 32.5936 642.716 32.5936 Q636.68 32.5936 633.196 36.4419 Q629.712 40.2903 629.712 46.9338 L629.712 72.576 L622.218 72.576 L622.218 27.2059 L629.712 27.2059 L629.712 34.2544 Q632.386 30.163 635.991 28.1376 Q639.637 26.1121 644.377 26.1121 Q652.195 26.1121 656.205 30.9732 Q660.216 35.7938 660.216 45.1919 Z" fill="#000000" fill-rule="evenodd" fill-opacity="1" /><path clip-path="url(#clip270)" d="M704.938 49.3643 Q704.938 41.2625 701.575 36.8065 Q698.254 32.3505 692.218 32.3505 Q686.222 32.3505 682.86 36.8065 Q679.538 41.2625 679.538 49.3643 Q679.538 57.4256 682.86 61.8816 Q686.222 66.3376 692.218 66.3376 Q698.254 66.3376 701.575 61.8816 Q704.938 57.4256 704.938 49.3643 M712.391 66.9452 Q712.391 78.5308 707.247 84.1616 Q702.102 89.8329 691.489 89.8329 Q687.559 89.8329 684.075 89.2252 Q680.592 88.6581 677.31 87.4428 L677.31 80.1917 Q680.592 81.9741 683.792 82.8248 Q686.992 83.6755 690.314 83.6755 Q697.646 83.6755 701.292 79.8271 Q704.938 76.0193 704.938 68.282 L704.938 64.5957 Q702.629 68.6061 699.023 70.5911 Q695.418 72.576 690.395 72.576 Q682.05 72.576 676.946 66.2161 Q671.842 59.8562 671.842 49.3643 Q671.842 38.832 676.946 32.472 Q682.05 26.1121 690.395 26.1121 Q695.418 26.1121 699.023 28.0971 Q702.629 30.082 704.938 34.0924 L704.938 27.2059 L712.391 27.2059 L712.391 66.9452 Z" fill="#000000" fill-rule="evenodd" fill-opacity="1" /><path clip-path="url(#clip270)" d="M734.793 12.096 L734.793 34.5785 L727.906 34.5785 L727.906 12.096 L734.793 12.096 Z" fill="#000000" fill-rule="evenodd" fill-opacity="1" /><path clip-path="url(#clip270)" d="M779.474 28.5427 L779.474 35.5912 Q776.314 33.9709 772.912 33.1607 Q769.509 32.3505 765.863 32.3505 Q760.313 32.3505 757.518 34.0519 Q754.764 35.7533 754.764 39.156 Q754.764 41.7486 756.749 43.2475 Q758.734 44.7058 764.729 46.0426 L767.281 46.6097 Q775.221 48.3111 778.542 51.4303 Q781.905 54.509 781.905 60.0587 Q781.905 66.3781 776.882 70.0644 Q771.899 73.7508 763.149 73.7508 Q759.503 73.7508 755.533 73.0216 Q751.604 72.3329 747.229 70.9151 L747.229 63.2184 Q751.361 65.3654 755.371 66.4591 Q759.382 67.5124 763.311 67.5124 Q768.577 67.5124 771.413 65.73 Q774.249 63.9071 774.249 60.6258 Q774.249 57.5877 772.183 55.9673 Q770.157 54.3469 763.23 52.8481 L760.637 52.2405 Q753.71 50.7821 750.632 47.7845 Q747.553 44.7463 747.553 39.4801 Q747.553 33.0797 752.09 29.5959 Q756.627 26.1121 764.972 26.1121 Q769.104 26.1121 772.75 26.7198 Q776.395 27.3274 779.474 28.5427 Z" fill="#000000" fill-rule="evenodd" fill-opacity="1" /><path clip-path="url(#clip270)" d="M855.469 35.9153 Q858.264 30.8922 862.153 28.5022 Q866.042 26.1121 871.308 26.1121 Q878.397 26.1121 882.246 31.0947 Q886.094 36.0368 886.094 45.1919 L886.094 72.576 L878.6 72.576 L878.6 45.4349 Q878.6 38.913 876.291 35.7533 Q873.982 32.5936 869.242 32.5936 Q863.449 32.5936 860.087 36.4419 Q856.725 40.2903 856.725 46.9338 L856.725 72.576 L849.231 72.576 L849.231 45.4349 Q849.231 38.8725 846.922 35.7533 Q844.613 32.5936 839.792 32.5936 Q834.08 32.5936 830.718 36.4824 Q827.356 40.3308 827.356 46.9338 L827.356 72.576 L819.862 72.576 L819.862 27.2059 L827.356 27.2059 L827.356 34.2544 Q829.908 30.082 833.473 28.0971 Q837.038 26.1121 841.939 26.1121 Q846.881 26.1121 850.324 28.6237 Q853.808 31.1352 855.469 35.9153 Z" fill="#000000" fill-rule="evenodd" fill-opacity="1" /><path clip-path="url(#clip270)" d="M918.542 32.4315 Q912.546 32.4315 909.063 37.1306 Q905.579 41.7891 905.579 49.9314 Q905.579 58.0738 909.022 62.7728 Q912.506 67.4314 918.542 67.4314 Q924.497 67.4314 927.98 62.7323 Q931.464 58.0333 931.464 49.9314 Q931.464 41.8701 927.98 37.1711 Q924.497 32.4315 918.542 32.4315 M918.542 26.1121 Q928.264 26.1121 933.814 32.4315 Q939.363 38.7509 939.363 49.9314 Q939.363 61.0714 933.814 67.4314 Q928.264 73.7508 918.542 73.7508 Q908.779 73.7508 903.229 67.4314 Q897.72 61.0714 897.72 49.9314 Q897.72 38.7509 903.229 32.4315 Q908.779 26.1121 918.542 26.1121 Z" fill="#000000" fill-rule="evenodd" fill-opacity="1" /><path clip-path="url(#clip270)" d="M981.574 34.0924 L981.574 9.54393 L989.027 9.54393 L989.027 72.576 L981.574 72.576 L981.574 65.7705 Q979.224 69.8214 975.619 71.8063 Q972.054 73.7508 967.031 73.7508 Q958.808 73.7508 953.623 67.1883 Q948.478 60.6258 948.478 49.9314 Q948.478 39.2371 953.623 32.6746 Q958.808 26.1121 967.031 26.1121 Q972.054 26.1121 975.619 28.0971 Q979.224 30.0415 981.574 34.0924 M956.175 49.9314 Q956.175 58.1548 959.537 62.8538 Q962.94 67.5124 968.854 67.5124 Q974.768 67.5124 978.171 62.8538 Q981.574 58.1548 981.574 49.9314 Q981.574 41.7081 978.171 37.0496 Q974.768 32.3505 968.854 32.3505 Q962.94 32.3505 959.537 37.0496 Q956.175 41.7081 956.175 49.9314 Z" fill="#000000" fill-rule="evenodd" fill-opacity="1" /><path clip-path="url(#clip270)" d="M1003.61 54.671 L1003.61 27.2059 L1011.06 27.2059 L1011.06 54.3874 Q1011.06 60.8284 1013.58 64.0691 Q1016.09 67.2693 1021.11 67.2693 Q1027.15 67.2693 1030.63 63.421 Q1034.15 59.5726 1034.15 52.9291 L1034.15 27.2059 L1041.61 27.2059 L1041.61 72.576 L1034.15 72.576 L1034.15 65.6084 Q1031.44 69.7404 1027.84 71.7658 Q1024.27 73.7508 1019.53 73.7508 Q1011.71 73.7508 1007.66 68.8897 Q1003.61 64.0286 1003.61 54.671 M1022.37 26.1121 L1022.37 26.1121 Z" fill="#000000" fill-rule="evenodd" fill-opacity="1" /><path clip-path="url(#clip270)" d="M1056.96 9.54393 L1064.41 9.54393 L1064.41 72.576 L1056.96 72.576 L1056.96 9.54393 Z" fill="#000000" fill-rule="evenodd" fill-opacity="1" /><path clip-path="url(#clip270)" d="M1079.24 54.671 L1079.24 27.2059 L1086.69 27.2059 L1086.69 54.3874 Q1086.69 60.8284 1089.21 64.0691 Q1091.72 67.2693 1096.74 67.2693 Q1102.78 67.2693 1106.26 63.421 Q1109.78 59.5726 1109.78 52.9291 L1109.78 27.2059 L1117.24 27.2059 L1117.24 72.576 L1109.78 72.576 L1109.78 65.6084 Q1107.07 69.7404 1103.47 71.7658 Q1099.9 73.7508 1095.16 73.7508 Q1087.34 73.7508 1083.29 68.8897 Q1079.24 64.0286 1079.24 54.671 M1098 26.1121 L1098 26.1121 Z" fill="#000000" fill-rule="evenodd" fill-opacity="1" /><path clip-path="url(#clip270)" d="M1161.51 28.5427 L1161.51 35.5912 Q1158.36 33.9709 1154.95 33.1607 Q1151.55 32.3505 1147.9 32.3505 Q1142.35 32.3505 1139.56 34.0519 Q1136.8 35.7533 1136.8 39.156 Q1136.8 41.7486 1138.79 43.2475 Q1140.77 44.7058 1146.77 46.0426 L1149.32 46.6097 Q1157.26 48.3111 1160.58 51.4303 Q1163.95 54.509 1163.95 60.0587 Q1163.95 66.3781 1158.92 70.0644 Q1153.94 73.7508 1145.19 73.7508 Q1141.54 73.7508 1137.57 73.0216 Q1133.64 72.3329 1129.27 70.9151 L1129.27 63.2184 Q1133.4 65.3654 1137.41 66.4591 Q1141.42 67.5124 1145.35 67.5124 Q1150.62 67.5124 1153.45 65.73 Q1156.29 63.9071 1156.29 60.6258 Q1156.29 57.5877 1154.22 55.9673 Q1152.2 54.3469 1145.27 52.8481 L1142.68 52.2405 Q1135.75 50.7821 1132.67 47.7845 Q1129.59 44.7463 1129.59 39.4801 Q1129.59 33.0797 1134.13 29.5959 Q1138.67 26.1121 1147.01 26.1121 Q1151.14 26.1121 1154.79 26.7198 Q1158.44 27.3274 1161.51 28.5427 Z" fill="#000000" fill-rule="evenodd" fill-opacity="1" /><path clip-path="url(#clip270)" d="M1240.99 48.0275 L1240.99 51.6733 L1206.72 51.6733 Q1207.21 59.3701 1211.34 63.421 Q1215.51 67.4314 1222.93 67.4314 Q1227.22 67.4314 1231.23 66.3781 Q1235.28 65.3249 1239.25 63.2184 L1239.25 70.267 Q1235.24 71.9684 1231.03 72.8596 Q1226.82 73.7508 1222.48 73.7508 Q1211.62 73.7508 1205.26 67.4314 Q1198.95 61.1119 1198.95 50.3365 Q1198.95 39.1965 1204.94 32.6746 Q1210.98 26.1121 1221.18 26.1121 Q1230.34 26.1121 1235.65 32.0264 Q1240.99 37.9003 1240.99 48.0275 M1233.54 45.84 Q1233.46 39.7232 1230.1 36.0774 Q1226.78 32.4315 1221.27 32.4315 Q1215.03 32.4315 1211.26 35.9558 Q1207.53 39.4801 1206.97 45.8805 L1233.54 45.84 Z" fill="#000000" fill-rule="evenodd" fill-opacity="1" /><path clip-path="url(#clip270)" d="M1276.2 9.54393 L1276.2 15.7418 L1269.07 15.7418 Q1265.06 15.7418 1263.48 17.3622 Q1261.94 18.9825 1261.94 23.1955 L1261.94 27.2059 L1274.21 27.2059 L1274.21 32.9987 L1261.94 32.9987 L1261.94 72.576 L1254.44 72.576 L1254.44 32.9987 L1247.31 32.9987 L1247.31 27.2059 L1254.44 27.2059 L1254.44 24.0462 Q1254.44 16.471 1257.97 13.0277 Q1261.49 9.54393 1269.15 9.54393 L1276.2 9.54393 Z" fill="#000000" fill-rule="evenodd" fill-opacity="1" /><path clip-path="url(#clip270)" d="M1305.4 9.54393 L1305.4 15.7418 L1298.27 15.7418 Q1294.26 15.7418 1292.68 17.3622 Q1291.14 18.9825 1291.14 23.1955 L1291.14 27.2059 L1303.42 27.2059 L1303.42 32.9987 L1291.14 32.9987 L1291.14 72.576 L1283.65 72.576 L1283.65 32.9987 L1276.52 32.9987 L1276.52 27.2059 L1283.65 27.2059 L1283.65 24.0462 Q1283.65 16.471 1287.17 13.0277 Q1290.7 9.54393 1298.35 9.54393 L1305.4 9.54393 Z" fill="#000000" fill-rule="evenodd" fill-opacity="1" /><path clip-path="url(#clip270)" d="M1350.45 48.0275 L1350.45 51.6733 L1316.18 51.6733 Q1316.66 59.3701 1320.8 63.421 Q1324.97 67.4314 1332.38 67.4314 Q1336.68 67.4314 1340.69 66.3781 Q1344.74 65.3249 1348.71 63.2184 L1348.71 70.267 Q1344.7 71.9684 1340.48 72.8596 Q1336.27 73.7508 1331.94 73.7508 Q1321.08 73.7508 1314.72 67.4314 Q1308.4 61.1119 1308.4 50.3365 Q1308.4 39.1965 1314.4 32.6746 Q1320.43 26.1121 1330.64 26.1121 Q1339.8 26.1121 1345.1 32.0264 Q1350.45 37.9003 1350.45 48.0275 M1343 45.84 Q1342.91 39.7232 1339.55 36.0774 Q1336.23 32.4315 1330.72 32.4315 Q1324.48 32.4315 1320.72 35.9558 Q1316.99 39.4801 1316.42 45.8805 L1343 45.84 Z" fill="#000000" fill-rule="evenodd" fill-opacity="1" /><path clip-path="url(#clip270)" d="M1395.33 28.9478 L1395.33 35.9153 Q1392.17 34.1734 1388.97 33.3227 Q1385.81 32.4315 1382.57 32.4315 Q1375.32 32.4315 1371.31 37.0496 Q1367.3 41.6271 1367.3 49.9314 Q1367.3 58.2358 1371.31 62.8538 Q1375.32 67.4314 1382.57 67.4314 Q1385.81 67.4314 1388.97 66.5807 Q1392.17 65.6895 1395.33 63.9476 L1395.33 70.8341 Q1392.21 72.2924 1388.85 73.0216 Q1385.53 73.7508 1381.76 73.7508 Q1371.51 73.7508 1365.48 67.3098 Q1359.44 60.8689 1359.44 49.9314 Q1359.44 38.832 1365.52 32.472 Q1371.64 26.1121 1382.25 26.1121 Q1385.69 26.1121 1388.97 26.8413 Q1392.25 27.5299 1395.33 28.9478 Z" fill="#000000" fill-rule="evenodd" fill-opacity="1" /><path clip-path="url(#clip270)" d="M1415.67 14.324 L1415.67 27.2059 L1431.02 27.2059 L1431.02 32.9987 L1415.67 32.9987 L1415.67 57.6282 Q1415.67 63.1779 1417.17 64.7578 Q1418.71 66.3376 1423.37 66.3376 L1431.02 66.3376 L1431.02 72.576 L1423.37 72.576 Q1414.74 72.576 1411.46 69.3758 Q1408.17 66.1351 1408.17 57.6282 L1408.17 32.9987 L1402.71 32.9987 L1402.71 27.2059 L1408.17 27.2059 L1408.17 14.324 L1415.67 14.324 Z" fill="#000000" fill-rule="evenodd" fill-opacity="1" /><path clip-path="url(#clip270)" d="M1484.78 32.4315 Q1478.78 32.4315 1475.3 37.1306 Q1471.81 41.7891 1471.81 49.9314 Q1471.81 58.0738 1475.26 62.7728 Q1478.74 67.4314 1484.78 67.4314 Q1490.73 67.4314 1494.22 62.7323 Q1497.7 58.0333 1497.7 49.9314 Q1497.7 41.8701 1494.22 37.1711 Q1490.73 32.4315 1484.78 32.4315 M1484.78 26.1121 Q1494.5 26.1121 1500.05 32.4315 Q1505.6 38.7509 1505.6 49.9314 Q1505.6 61.0714 1500.05 67.4314 Q1494.5 73.7508 1484.78 73.7508 Q1475.01 73.7508 1469.46 67.4314 Q1463.96 61.0714 1463.96 49.9314 Q1463.96 38.7509 1469.46 32.4315 Q1475.01 26.1121 1484.78 26.1121 Z" fill="#000000" fill-rule="evenodd" fill-opacity="1" /><path clip-path="url(#clip270)" d="M1555.67 45.1919 L1555.67 72.576 L1548.21 72.576 L1548.21 45.4349 Q1548.21 38.994 1545.7 35.7938 Q1543.19 32.5936 1538.17 32.5936 Q1532.13 32.5936 1528.65 36.4419 Q1525.16 40.2903 1525.16 46.9338 L1525.16 72.576 L1517.67 72.576 L1517.67 27.2059 L1525.16 27.2059 L1525.16 34.2544 Q1527.84 30.163 1531.44 28.1376 Q1535.09 26.1121 1539.83 26.1121 Q1547.65 26.1121 1551.66 30.9732 Q1555.67 35.7938 1555.67 45.1919 Z" fill="#000000" fill-rule="evenodd" fill-opacity="1" /><path clip-path="url(#clip270)" d="M1596.91 9.54393 L1604.36 9.54393 L1604.36 72.576 L1596.91 72.576 L1596.91 9.54393 Z" fill="#000000" fill-rule="evenodd" fill-opacity="1" /><path clip-path="url(#clip270)" d="M1640.57 49.7694 Q1631.54 49.7694 1628.06 51.8354 Q1624.57 53.9013 1624.57 58.8839 Q1624.57 62.8538 1627.17 65.2034 Q1629.8 67.5124 1634.3 67.5124 Q1640.49 67.5124 1644.22 63.1374 Q1647.99 58.7219 1647.99 51.4303 L1647.99 49.7694 L1640.57 49.7694 M1655.44 46.6907 L1655.44 72.576 L1647.99 72.576 L1647.99 65.6895 Q1645.44 69.8214 1641.63 71.8063 Q1637.82 73.7508 1632.31 73.7508 Q1625.34 73.7508 1621.21 69.8619 Q1617.12 65.9325 1617.12 59.3701 Q1617.12 51.7138 1622.22 47.825 Q1627.37 43.9361 1637.54 43.9361 L1647.99 43.9361 L1647.99 43.2069 Q1647.99 38.0623 1644.59 35.2672 Q1641.22 32.4315 1635.11 32.4315 Q1631.22 32.4315 1627.53 33.3632 Q1623.84 34.295 1620.44 36.1584 L1620.44 29.2718 Q1624.53 27.692 1628.38 26.9223 Q1632.23 26.1121 1635.88 26.1121 Q1645.72 26.1121 1650.58 31.2163 Q1655.44 36.3204 1655.44 46.6907 Z" fill="#000000" fill-rule="evenodd" fill-opacity="1" /><path clip-path="url(#clip270)" d="M1699.72 28.5427 L1699.72 35.5912 Q1696.56 33.9709 1693.16 33.1607 Q1689.75 32.3505 1686.11 32.3505 Q1680.56 32.3505 1677.76 34.0519 Q1675.01 35.7533 1675.01 39.156 Q1675.01 41.7486 1676.99 43.2475 Q1678.98 44.7058 1684.97 46.0426 L1687.52 46.6097 Q1695.46 48.3111 1698.79 51.4303 Q1702.15 54.509 1702.15 60.0587 Q1702.15 66.3781 1697.13 70.0644 Q1692.14 73.7508 1683.39 73.7508 Q1679.75 73.7508 1675.78 73.0216 Q1671.85 72.3329 1667.47 70.9151 L1667.47 63.2184 Q1671.6 65.3654 1675.62 66.4591 Q1679.63 67.5124 1683.55 67.5124 Q1688.82 67.5124 1691.66 65.73 Q1694.49 63.9071 1694.49 60.6258 Q1694.49 57.5877 1692.43 55.9673 Q1690.4 54.3469 1683.47 52.8481 L1680.88 52.2405 Q1673.95 50.7821 1670.88 47.7845 Q1667.8 44.7463 1667.8 39.4801 Q1667.8 33.0797 1672.33 29.5959 Q1676.87 26.1121 1685.22 26.1121 Q1689.35 26.1121 1692.99 26.7198 Q1696.64 27.3274 1699.72 28.5427 Z" fill="#000000" fill-rule="evenodd" fill-opacity="1" /><path clip-path="url(#clip270)" d="M1721.39 14.324 L1721.39 27.2059 L1736.74 27.2059 L1736.74 32.9987 L1721.39 32.9987 L1721.39 57.6282 Q1721.39 63.1779 1722.89 64.7578 Q1724.43 66.3376 1729.09 66.3376 L1736.74 66.3376 L1736.74 72.576 L1729.09 72.576 Q1720.46 72.576 1717.18 69.3758 Q1713.9 66.1351 1713.9 57.6282 L1713.9 32.9987 L1708.43 32.9987 L1708.43 27.2059 L1713.9 27.2059 L1713.9 14.324 L1721.39 14.324 Z" fill="#000000" fill-rule="evenodd" fill-opacity="1" /><path clip-path="url(#clip270)" d="M1805.49 49.9314 Q1805.49 41.7081 1802.08 37.0496 Q1798.72 32.3505 1792.81 32.3505 Q1786.89 32.3505 1783.49 37.0496 Q1780.13 41.7081 1780.13 49.9314 Q1780.13 58.1548 1783.49 62.8538 Q1786.89 67.5124 1792.81 67.5124 Q1798.72 67.5124 1802.08 62.8538 Q1805.49 58.1548 1805.49 49.9314 M1780.13 34.0924 Q1782.48 30.0415 1786.04 28.0971 Q1789.65 26.1121 1794.63 26.1121 Q1802.89 26.1121 1808.04 32.6746 Q1813.22 39.2371 1813.22 49.9314 Q1813.22 60.6258 1808.04 67.1883 Q1802.89 73.7508 1794.63 73.7508 Q1789.65 73.7508 1786.04 71.8063 Q1782.48 69.8214 1780.13 65.7705 L1780.13 72.576 L1772.63 72.576 L1772.63 9.54393 L1780.13 9.54393 L1780.13 34.0924 Z" fill="#000000" fill-rule="evenodd" fill-opacity="1" /><path clip-path="url(#clip270)" d="M1864.39 48.0275 L1864.39 51.6733 L1830.12 51.6733 Q1830.6 59.3701 1834.73 63.421 Q1838.91 67.4314 1846.32 67.4314 Q1850.61 67.4314 1854.62 66.3781 Q1858.68 65.3249 1862.65 63.2184 L1862.65 70.267 Q1858.64 71.9684 1854.42 72.8596 Q1850.21 73.7508 1845.87 73.7508 Q1835.02 73.7508 1828.66 67.4314 Q1822.34 61.1119 1822.34 50.3365 Q1822.34 39.1965 1828.33 32.6746 Q1834.37 26.1121 1844.58 26.1121 Q1853.73 26.1121 1859.04 32.0264 Q1864.39 37.9003 1864.39 48.0275 M1856.93 45.84 Q1856.85 39.7232 1853.49 36.0774 Q1850.17 32.4315 1844.66 32.4315 Q1838.42 32.4315 1834.65 35.9558 Q1830.93 39.4801 1830.36 45.8805 L1856.93 45.84 Z" fill="#000000" fill-rule="evenodd" fill-opacity="1" /><path clip-path="url(#clip270)" d="M1897.24 49.7694 Q1888.21 49.7694 1884.72 51.8354 Q1881.24 53.9013 1881.24 58.8839 Q1881.24 62.8538 1883.83 65.2034 Q1886.46 67.5124 1890.96 67.5124 Q1897.16 67.5124 1900.89 63.1374 Q1904.65 58.7219 1904.65 51.4303 L1904.65 49.7694 L1897.24 49.7694 M1912.11 46.6907 L1912.11 72.576 L1904.65 72.576 L1904.65 65.6895 Q1902.1 69.8214 1898.29 71.8063 Q1894.49 73.7508 1888.98 73.7508 Q1882.01 73.7508 1877.88 69.8619 Q1873.79 65.9325 1873.79 59.3701 Q1873.79 51.7138 1878.89 47.825 Q1884.03 43.9361 1894.2 43.9361 L1904.65 43.9361 L1904.65 43.2069 Q1904.65 38.0623 1901.25 35.2672 Q1897.89 32.4315 1891.77 32.4315 Q1887.88 32.4315 1884.2 33.3632 Q1880.51 34.295 1877.11 36.1584 L1877.11 29.2718 Q1881.2 27.692 1885.05 26.9223 Q1888.9 26.1121 1892.54 26.1121 Q1902.38 26.1121 1907.25 31.2163 Q1912.11 36.3204 1912.11 46.6907 Z" fill="#000000" fill-rule="evenodd" fill-opacity="1" /><path clip-path="url(#clip270)" d="M1962.78 35.9153 Q1965.58 30.8922 1969.47 28.5022 Q1973.36 26.1121 1978.62 26.1121 Q1985.71 26.1121 1989.56 31.0947 Q1993.41 36.0368 1993.41 45.1919 L1993.41 72.576 L1985.91 72.576 L1985.91 45.4349 Q1985.91 38.913 1983.61 35.7533 Q1981.3 32.5936 1976.56 32.5936 Q1970.76 32.5936 1967.4 36.4419 Q1964.04 40.2903 1964.04 46.9338 L1964.04 72.576 L1956.55 72.576 L1956.55 45.4349 Q1956.55 38.8725 1954.24 35.7533 Q1951.93 32.5936 1947.11 32.5936 Q1941.4 32.5936 1938.03 36.4824 Q1934.67 40.3308 1934.67 46.9338 L1934.67 72.576 L1927.18 72.576 L1927.18 27.2059 L1934.67 27.2059 L1934.67 34.2544 Q1937.22 30.082 1940.79 28.0971 Q1944.35 26.1121 1949.25 26.1121 Q1954.2 26.1121 1957.64 28.6237 Q1961.12 31.1352 1962.78 35.9153 Z" fill="#000000" fill-rule="evenodd" fill-opacity="1" /><polyline clip-path="url(#clip272)" style="stroke:#ff0000; stroke-linecap:butt; stroke-linejoin:round; stroke-width:8; stroke-opacity:1; fill:none" points="
  1960.07,162.047 1950.53,169.194 1941.08,176.32 1931.7,183.425 1922.41,190.51 1913.19,197.575 1904.04,204.62 1894.97,211.645 1885.98,218.651 1877.06,225.638 
  1868.21,232.605 1859.43,239.554 1850.73,246.483 1842.09,253.395 1833.53,260.288 1825.03,267.163 1816.6,274.021 1808.24,280.86 1799.95,287.683 1791.72,294.488 
  1783.56,301.276 1775.46,308.048 1767.42,314.803 1759.45,321.541 1751.54,328.264 1743.69,334.97 1735.9,341.661 1728.16,348.336 1720.49,354.996 1712.88,361.641 
  1705.32,368.271 1697.81,374.887 1690.37,381.488 1682.97,388.075 1675.63,394.647 1668.35,401.206 1661.11,407.752 1653.93,414.284 1646.79,420.802 1639.71,427.308 
  1632.67,433.801 1625.69,440.282 1618.75,446.75 1611.85,453.206 1605.01,459.65 1598.2,466.083 1591.44,472.504 1584.73,478.913 1578.05,485.312 1571.42,491.7 
  1564.83,498.077 1558.27,504.443 1551.76,510.8 1545.29,517.146 1538.85,523.483 1532.45,529.81 1526.08,536.128 1519.75,542.436 1513.46,548.736 1507.2,555.026 
  1500.97,561.309 1494.77,567.583 1488.6,573.848 1482.47,580.106 1476.36,586.356 1470.28,592.599 1464.23,598.835 1458.21,605.063 1452.21,611.284 1446.24,617.499 
  1440.29,623.708 1434.37,629.91 1428.47,636.106 1422.59,642.297 1416.73,648.481 1410.9,654.661 1405.08,660.835 1399.28,667.005 1393.5,673.169 1387.74,679.329 
  1381.99,685.485 1376.26,691.637 1370.55,697.784 1364.85,703.928 1359.16,710.069 1353.48,716.206 1347.82,722.34 1342.17,728.472 1336.52,734.601 1330.89,740.727 
  1325.27,746.851 1319.65,752.973 1314.04,759.093 1308.43,765.212 1302.83,771.33 1297.24,777.446 1291.65,783.561 1286.06,789.676 1280.47,795.79 1274.89,801.903 
  1269.3,808.017 1263.72,814.13 1258.13,820.244 1252.54,826.359 1246.95,832.474 1241.36,838.59 1235.76,844.708 1230.15,850.827 1224.54,856.947 1218.93,863.069 
  1213.3,869.193 1207.67,875.319 1202.03,881.448 1196.37,887.58 1190.71,893.714 1185.03,899.851 1179.35,905.992 1173.64,912.136 1167.93,918.283 1162.2,924.435 
  1156.45,930.591 1150.69,936.751 1144.91,942.915 1139.11,949.085 1133.3,955.259 1127.46,961.439 1121.6,967.623 1115.72,973.814 1109.82,980.01 1103.9,986.212 
  1097.95,992.421 1091.98,998.636 1085.98,1004.86 1079.96,1011.09 1073.91,1017.32 1067.83,1023.56 1061.72,1029.81 1055.59,1036.07 1049.42,1042.34 1043.22,1048.61 
  1037,1054.89 1030.73,1061.18 1024.44,1067.48 1018.11,1073.79 1011.74,1080.11 1005.34,1086.44 998.905,1092.77 992.431,1099.12 985.918,1105.48 979.366,1111.84 
  972.774,1118.22 966.141,1124.61 959.467,1131.01 952.75,1137.42 945.991,1143.84 939.187,1150.27 932.339,1156.71 925.445,1163.17 918.505,1169.64 911.518,1176.12 
  904.483,1182.61 897.399,1189.12 890.266,1195.64 883.082,1202.17 875.847,1208.71 868.56,1215.27 861.22,1221.85 853.827,1228.43 846.379,1235.03 838.876,1241.65 
  831.317,1248.28 823.701,1254.92 816.028,1261.58 808.296,1268.26 800.505,1274.95 792.654,1281.66 784.742,1288.38 776.769,1295.12 768.733,1301.87 760.634,1308.64 
  752.471,1315.43 744.242,1322.24 735.949,1329.06 727.588,1335.9 719.161,1342.76 710.665,1349.63 702.1,1356.53 693.466,1363.44 684.761,1370.37 675.985,1377.31 
  667.137,1384.28 658.216,1391.27 649.221,1398.27 640.152,1405.3 631.007,1412.34 621.786,1419.41 612.488,1426.49 603.113,1433.6 593.659,1440.73 584.125,1447.87 
  
  "/>
<polyline clip-path="url(#clip272)" style="stroke:#008000; stroke-linecap:butt; stroke-linejoin:round; stroke-width:8; stroke-opacity:1; fill:none" points="
  1960.07,162.047 1951.39,168.547 1942.76,175.027 1934.18,181.487 1925.66,187.926 1917.19,194.344 1908.77,200.743 1900.4,207.122 1892.08,213.482 1883.81,219.822 
  1875.59,226.144 1867.42,232.446 1859.3,238.73 1851.22,244.995 1843.19,251.242 1835.21,257.471 1827.28,263.682 1819.39,269.876 1811.54,276.052 1803.74,282.211 
  1795.98,288.353 1788.27,294.479 1780.6,300.587 1772.97,306.68 1765.38,312.756 1757.83,318.817 1750.33,324.861 1742.86,330.89 1735.43,336.904 1728.05,342.903 
  1720.7,348.887 1713.39,354.856 1706.11,360.811 1698.87,366.752 1691.67,372.679 1684.51,378.591 1677.38,384.491 1670.28,390.376 1663.22,396.249 1656.19,402.109 
  1649.19,407.956 1642.23,413.79 1635.3,419.612 1628.4,425.422 1621.53,431.22 1614.69,437.006 1607.88,442.781 1601.1,448.545 1594.34,454.297 1587.62,460.039 
  1580.92,465.77 1574.25,471.49 1567.61,477.2 1560.99,482.901 1554.4,488.591 1547.83,494.272 1541.29,499.944 1534.77,505.606 1528.27,511.259 1521.8,516.904 
  1515.35,522.54 1508.92,528.168 1502.51,533.787 1496.12,539.399 1489.75,545.003 1483.4,550.6 1477.07,556.189 1470.75,561.771 1464.46,567.347 1458.18,572.915 
  1451.92,578.478 1445.67,584.034 1439.44,589.584 1433.23,595.128 1427.03,600.667 1420.84,606.2 1414.67,611.728 1408.51,617.251 1402.36,622.77 1396.22,628.284 
  1390.1,633.793 1383.98,639.299 1377.88,644.801 1371.78,650.298 1365.69,655.793 1359.62,661.284 1353.55,666.772 1347.48,672.257 1341.43,677.74 1335.38,683.22 
  1329.33,688.698 1323.29,694.174 1317.26,699.648 1311.23,705.121 1305.2,710.592 1299.18,716.062 1293.16,721.531 1287.14,727 1281.12,732.467 1275.1,737.935 
  1269.09,743.402 1263.07,748.87 1257.05,754.338 1251.03,759.806 1245.01,765.275 1238.99,770.745 1232.96,776.217 1226.93,781.689 1220.9,787.163 1214.86,792.639 
  1208.81,798.117 1202.76,803.597 1196.71,809.08 1190.65,814.565 1184.58,820.053 1178.5,825.545 1172.41,831.039 1166.32,836.537 1160.21,842.038 1154.1,847.544 
  1147.97,853.054 1141.83,858.567 1135.69,864.086 1129.52,869.609 1123.35,875.137 1117.16,880.671 1110.96,886.209 1104.75,891.754 1098.52,897.304 1092.27,902.86 
  1086.01,908.422 1079.73,913.991 1073.44,919.566 1067.12,925.148 1060.79,930.738 1054.44,936.334 1048.07,941.938 1041.69,947.55 1035.28,953.17 1028.84,958.797 
  1022.39,964.433 1015.92,970.078 1009.42,975.731 1002.9,981.394 996.359,987.065 989.792,992.746 983.2,998.437 976.582,1004.14 969.939,1009.85 963.269,1015.57 
  956.572,1021.3 949.848,1027.04 943.096,1032.79 936.315,1038.56 929.505,1044.33 922.666,1050.12 915.796,1055.92 908.895,1061.73 901.964,1067.55 895,1073.38 
  888.004,1079.23 880.976,1085.09 873.913,1090.96 866.817,1096.85 859.686,1102.75 852.521,1108.66 845.319,1114.59 838.081,1120.53 830.807,1126.48 823.496,1132.45 
  816.146,1138.43 808.758,1144.43 801.332,1150.45 793.866,1156.48 786.36,1162.52 778.813,1168.58 771.225,1174.66 763.596,1180.75 755.925,1186.86 748.211,1192.98 
  740.453,1199.13 732.652,1205.29 724.807,1211.46 716.916,1217.65 708.981,1223.87 700.999,1230.1 692.971,1236.34 684.896,1242.61 676.773,1248.89 668.602,1255.19 
  660.382,1261.52 652.113,1267.86 643.795,1274.22 635.426,1280.59 627.006,1286.99 618.535,1293.41 610.012,1299.85 601.436,1306.31 592.807,1312.79 584.125,1319.29 
  
  "/>
<polyline clip-path="url(#clip272)" style="stroke:#0000ff; stroke-linecap:butt; stroke-linejoin:round; stroke-width:8; stroke-opacity:1; fill:none" points="
  1960.07,162.047 1951.67,168.332 1943.32,174.597 1935.01,180.84 1926.74,187.064 1918.52,193.267 1910.34,199.451 1902.21,205.615 1894.11,211.759 1886.06,217.884 
  1878.05,223.99 1870.08,230.077 1862.15,236.145 1854.26,242.195 1846.42,248.227 1838.61,254.24 1830.83,260.236 1823.1,266.215 1815.4,272.175 1807.74,278.119 
  1800.12,284.046 1792.54,289.956 1784.99,295.849 1777.47,301.726 1769.99,307.587 1762.55,313.432 1755.14,319.261 1747.76,325.075 1740.42,330.874 1733.1,336.657 
  1725.82,342.426 1718.58,348.18 1711.36,353.919 1704.17,359.644 1697.02,365.356 1689.89,371.053 1682.8,376.737 1675.73,382.407 1668.69,388.064 1661.68,393.709 
  1654.7,399.34 1647.74,404.959 1640.81,410.566 1633.91,416.16 1627.03,421.743 1620.18,427.314 1613.36,432.873 1606.55,438.422 1599.78,443.959 1593.02,449.485 
  1586.29,455.001 1579.58,460.506 1572.89,466.001 1566.23,471.486 1559.58,476.961 1552.96,482.426 1546.36,487.882 1539.78,493.329 1533.21,498.767 1526.67,504.196 
  1520.14,509.617 1513.63,515.03 1507.14,520.434 1500.67,525.83 1494.21,531.219 1487.77,536.6 1481.35,541.974 1474.94,547.341 1468.54,552.701 1462.16,558.054 
  1455.8,563.401 1449.44,568.742 1443.1,574.076 1436.78,579.405 1430.46,584.729 1424.16,590.047 1417.86,595.359 1411.58,600.667 1405.31,605.97 1399.05,611.269 
  1392.8,616.563 1386.55,621.853 1380.32,627.139 1374.09,632.422 1367.87,637.701 1361.66,642.977 1355.46,648.249 1349.26,653.519 1343.06,658.786 1336.87,664.051 
  1330.69,669.314 1324.51,674.574 1318.33,679.833 1312.16,685.09 1305.99,690.346 1299.83,695.601 1293.66,700.855 1287.5,706.108 1281.34,711.36 1275.18,716.612 
  1269.02,721.864 1262.85,727.116 1256.69,732.369 1250.53,737.622 1244.37,742.876 1238.2,748.13 1232.03,753.386 1225.86,758.643 1219.68,763.902 1213.5,769.163 
  1207.32,774.425 1201.13,779.69 1194.94,784.957 1188.74,790.227 1182.53,795.5 1176.32,800.776 1170.1,806.055 1163.87,811.337 1157.64,816.623 1151.4,821.914 
  1145.14,827.208 1138.88,832.506 1132.61,837.809 1126.33,843.117 1120.04,848.43 1113.73,853.748 1107.42,859.071 1101.09,864.4 1094.75,869.735 1088.4,875.075 
  1082.03,880.422 1075.65,885.776 1069.26,891.136 1062.85,896.503 1056.42,901.876 1049.98,907.258 1043.52,912.646 1037.05,918.043 1030.56,923.447 1024.05,928.859 
  1017.53,934.28 1010.98,939.709 1004.42,945.147 997.834,950.594 991.231,956.05 984.608,961.516 977.964,966.991 971.299,972.476 964.612,977.971 957.903,983.476 
  951.172,988.992 944.417,994.518 937.639,1000.05 930.836,1005.6 924.01,1011.16 917.158,1016.73 910.281,1022.32 903.379,1027.91 896.45,1033.52 889.494,1039.14 
  882.512,1044.77 875.501,1050.41 868.463,1056.07 861.396,1061.74 854.3,1067.42 847.174,1073.12 840.019,1078.83 832.833,1084.56 825.616,1090.3 818.369,1096.05 
  811.089,1101.82 803.777,1107.6 796.433,1113.4 789.055,1119.22 781.644,1125.04 774.199,1130.89 766.72,1136.75 759.205,1142.63 751.655,1148.52 744.07,1154.43 
  736.448,1160.36 728.789,1166.3 721.093,1172.26 713.359,1178.24 705.587,1184.24 697.777,1190.25 689.928,1196.28 682.039,1202.33 674.11,1208.4 666.141,1214.49 
  658.13,1220.59 650.079,1226.72 641.986,1232.86 633.85,1239.03 625.672,1245.21 617.451,1251.41 609.186,1257.64 600.877,1263.88 592.523,1270.14 584.125,1276.43 
  
  "/>
<polyline clip-path="url(#clip272)" style="stroke:#000000; stroke-linecap:butt; stroke-linejoin:round; stroke-width:8; stroke-opacity:1; fill:none" points="
  1960.07,162.047 1951.81,168.224 1943.6,174.381 1935.42,180.517 1927.28,186.633 1919.19,192.729 1911.13,198.805 1903.11,204.861 1895.13,210.897 1887.19,216.915 
  1879.28,222.913 1871.41,228.892 1863.58,234.853 1855.79,240.795 1848.03,246.719 1840.3,252.625 1832.61,258.513 1824.96,264.384 1817.34,270.237 1809.75,276.073 
  1802.19,281.892 1794.67,287.694 1787.18,293.48 1779.73,299.249 1772.3,305.002 1764.91,310.74 1757.54,316.461 1750.21,322.167 1742.91,327.858 1735.63,333.534 
  1728.39,339.195 1721.17,344.841 1713.98,350.473 1706.82,356.091 1699.69,361.694 1692.59,367.284 1685.51,372.86 1678.46,378.423 1671.43,383.972 1664.43,389.509 
  1657.45,395.033 1650.5,400.544 1643.57,406.043 1636.67,411.53 1629.79,417.005 1622.93,422.468 1616.1,427.92 1609.28,433.36 1602.49,438.79 1595.72,444.208 
  1588.97,449.616 1582.24,455.013 1575.53,460.401 1568.85,465.778 1562.18,471.145 1555.53,476.503 1548.89,481.852 1542.28,487.191 1535.68,492.521 1529.1,497.843 
  1522.54,503.156 1515.99,508.46 1509.46,513.757 1502.94,519.046 1496.44,524.327 1489.96,529.6 1483.49,534.866 1477.03,540.125 1470.58,545.378 1464.15,550.623 
  1457.73,555.863 1451.33,561.096 1444.93,566.323 1438.55,571.544 1432.18,576.76 1425.81,581.97 1419.46,587.175 1413.12,592.375 1406.79,597.57 1400.46,602.761 
  1394.15,607.948 1387.84,613.13 1381.54,618.309 1375.25,623.483 1368.96,628.655 1362.68,633.823 1356.41,638.988 1350.14,644.15 1343.88,649.31 1337.62,654.467 
  1331.37,659.622 1325.12,664.774 1318.87,669.926 1312.63,675.075 1306.39,680.223 1300.15,685.37 1293.91,690.516 1287.68,695.662 1281.45,700.806 1275.21,705.951 
  1268.98,711.095 1262.75,716.24 1256.51,721.384 1250.28,726.53 1244.04,731.676 1237.8,736.823 1231.56,741.971 1225.32,747.12 1219.07,752.272 1212.82,757.424 
  1206.57,762.579 1200.31,767.736 1194.05,772.896 1187.78,778.058 1181.51,783.223 1175.23,788.391 1168.94,793.563 1162.65,798.737 1156.35,803.916 1150.04,809.098 
  1143.73,814.285 1137.41,819.476 1131.07,824.671 1124.73,829.871 1118.38,835.076 1112.02,840.287 1105.64,845.502 1099.26,850.723 1092.87,855.95 1086.46,861.183 
  1080.04,866.423 1073.61,871.668 1067.16,876.921 1060.71,882.18 1054.24,887.446 1047.75,892.719 1041.25,898 1034.73,903.289 1028.2,908.586 1021.66,913.89 
  1015.09,919.203 1008.51,924.525 1001.91,929.855 995.3,935.195 988.667,940.543 982.016,945.901 975.347,951.268 968.658,956.645 961.949,962.033 955.22,967.43 
  948.471,972.838 941.701,978.257 934.91,983.686 928.097,989.126 921.262,994.578 914.405,1000.04 907.524,1005.52 900.62,1011 893.693,1016.5 886.741,1022.01 
  879.765,1027.54 872.764,1033.07 865.737,1038.62 858.685,1044.19 851.606,1049.76 844.501,1055.35 837.369,1060.96 830.209,1066.57 823.021,1072.2 815.805,1077.85 
  808.561,1083.51 801.287,1089.19 793.984,1094.88 786.65,1100.58 779.287,1106.31 771.892,1112.04 764.467,1117.8 757.01,1123.57 749.521,1129.35 741.999,1135.15 
  734.445,1140.97 726.857,1146.81 719.236,1152.66 711.581,1158.53 703.891,1164.42 696.166,1170.33 688.406,1176.25 680.61,1182.19 672.778,1188.15 664.91,1194.13 
  657.005,1200.13 649.062,1206.15 641.081,1212.19 633.063,1218.24 625.005,1224.32 616.909,1230.41 608.773,1236.53 600.598,1242.66 592.382,1248.82 584.125,1255 
  
  "/>
<polyline clip-path="url(#clip272)" style="stroke:#ffa500; stroke-linecap:butt; stroke-linejoin:round; stroke-width:8; stroke-opacity:1; fill:none" points="
  1960.07,162.047 1951.9,168.16 1943.76,174.252 1935.67,180.324 1927.61,186.375 1919.59,192.406 1911.6,198.417 1903.65,204.409 1895.74,210.38 1887.86,216.333 
  1880.02,222.267 1872.21,228.181 1864.44,234.078 1856.7,239.955 1848.99,245.815 1841.32,251.656 1833.68,257.479 1826.07,263.285 1818.49,269.074 1810.95,274.845 
  1803.44,280.6 1795.95,286.337 1788.5,292.058 1781.08,297.763 1773.68,303.452 1766.32,309.124 1758.99,314.781 1751.68,320.423 1744.4,326.049 1737.15,331.66 
  1729.93,337.257 1722.73,342.838 1715.56,348.405 1708.41,353.958 1701.3,359.497 1694.2,365.022 1687.13,370.534 1680.09,376.032 1673.07,381.517 1666.08,386.989 
  1659.1,392.448 1652.15,397.895 1645.23,403.329 1638.32,408.751 1631.44,414.162 1624.58,419.56 1617.74,424.947 1610.92,430.323 1604.12,435.688 1597.34,441.042 
  1590.58,446.385 1583.84,451.718 1577.12,457.041 1570.42,462.353 1563.73,467.656 1557.06,472.949 1550.41,478.233 1543.78,483.508 1537.16,488.774 1530.56,494.03 
  1523.98,499.279 1517.41,504.519 1510.85,509.751 1504.31,514.975 1497.78,520.191 1491.27,525.4 1484.77,530.602 1478.28,535.796 1471.81,540.984 1465.35,546.165 
  1458.9,551.34 1452.46,556.508 1446.03,561.67 1439.61,566.827 1433.21,571.978 1426.81,577.124 1420.42,582.264 1414.04,587.4 1407.67,592.53 1401.31,597.657 
  1394.96,602.779 1388.61,607.896 1382.27,613.01 1375.94,618.12 1369.62,623.227 1363.3,628.331 1356.98,633.431 1350.67,638.529 1344.37,643.624 1338.07,648.716 
  1331.77,653.806 1325.48,658.895 1319.19,663.981 1312.91,669.066 1306.63,674.15 1300.34,679.232 1294.07,684.313 1287.79,689.394 1281.51,694.474 1275.23,699.554 
  1268.96,704.634 1262.68,709.714 1256.41,714.794 1250.13,719.874 1243.85,724.956 1237.57,730.038 1231.28,735.122 1225,740.207 1218.71,745.293 1212.42,750.382 
  1206.12,755.472 1199.82,760.564 1193.52,765.659 1187.21,770.757 1180.9,775.857 1174.58,780.961 1168.25,786.067 1161.92,791.178 1155.58,796.291 1149.23,801.409 
  1142.88,806.531 1136.52,811.657 1130.15,816.788 1123.77,821.924 1117.38,827.064 1110.99,832.21 1104.58,837.361 1098.16,842.517 1091.73,847.68 1085.3,852.848 
  1078.85,858.023 1072.38,863.204 1065.91,868.391 1059.42,873.586 1052.92,878.788 1046.41,883.997 1039.88,889.213 1033.34,894.437 1026.79,899.669 1020.22,904.909 
  1013.63,910.157 1007.03,915.414 1000.41,920.68 993.78,925.955 987.129,931.238 980.461,936.532 973.776,941.834 967.073,947.147 960.351,952.47 953.611,957.803 
  946.851,963.146 940.072,968.5 933.273,973.865 926.454,979.24 919.614,984.627 912.752,990.026 905.87,995.436 898.965,1000.86 892.039,1006.29 885.09,1011.74 
  878.117,1017.2 871.122,1022.67 864.102,1028.16 857.058,1033.65 849.99,1039.17 842.897,1044.69 835.779,1050.23 828.634,1055.78 821.464,1061.35 814.267,1066.93 
  807.043,1072.53 799.793,1078.14 792.514,1083.76 785.207,1089.41 777.872,1095.06 770.508,1100.74 763.115,1106.42 755.692,1112.13 748.24,1117.85 740.757,1123.59 
  733.243,1129.34 725.698,1135.11 718.122,1140.9 710.513,1146.71 702.873,1152.53 695.199,1158.37 687.493,1164.23 679.753,1170.11 671.98,1176.01 664.172,1181.92 
  656.329,1187.85 648.452,1193.81 640.539,1199.78 632.59,1205.77 624.605,1211.78 616.584,1217.81 608.525,1223.86 600.43,1229.94 592.296,1236.03 584.125,1242.14 
  
  "/>
<path clip-path="url(#clip270)" d="
M186.863 479.945 L633.385 479.945 L633.385 168.905 L186.863 168.905  Z
  " fill="#ffffff" fill-rule="evenodd" fill-opacity="1"/>
<polyline clip-path="url(#clip270)" style="stroke:#000000; stroke-linecap:butt; stroke-linejoin:round; stroke-width:4; stroke-opacity:1; fill:none" points="
  186.863,479.945 633.385,479.945 633.385,168.905 186.863,168.905 186.863,479.945 
  "/>
<polyline clip-path="url(#clip270)" style="stroke:#ff0000; stroke-linecap:butt; stroke-linejoin:round; stroke-width:4; stroke-opacity:1; fill:none" points="
  211.758,220.745 361.13,220.745 
  "/>
<path clip-path="url(#clip270)" d="M386.026 203.465 L407.877 203.465 L407.877 207.4 L390.702 207.4 L390.702 217.631 L407.16 217.631 L407.16 221.566 L390.702 221.566 L390.702 234.089 L408.294 234.089 L408.294 238.025 L386.026 238.025 L386.026 203.465 Z" fill="#000000" fill-rule="evenodd" fill-opacity="1" /><path clip-path="url(#clip270)" d="M431.419 216.497 L461.095 216.497 L461.095 220.386 L431.419 220.386 L431.419 216.497 M431.419 225.941 L461.095 225.941 L461.095 229.877 L431.419 229.877 L431.419 225.941 Z" fill="#000000" fill-rule="evenodd" fill-opacity="1" /><path clip-path="url(#clip270)" d="M499.104 207.539 L487.298 225.988 L499.104 225.988 L499.104 207.539 M497.877 203.465 L503.757 203.465 L503.757 225.988 L508.687 225.988 L508.687 229.877 L503.757 229.877 L503.757 238.025 L499.104 238.025 L499.104 229.877 L483.502 229.877 L483.502 225.363 L497.877 203.465 Z" fill="#000000" fill-rule="evenodd" fill-opacity="1" /><path clip-path="url(#clip270)" d="M516.419 232.145 L521.303 232.145 L521.303 238.025 L516.419 238.025 L516.419 232.145 Z" fill="#000000" fill-rule="evenodd" fill-opacity="1" /><path clip-path="url(#clip270)" d="M541.488 206.543 Q537.877 206.543 536.048 210.108 Q534.242 213.65 534.242 220.779 Q534.242 227.886 536.048 231.451 Q537.877 234.992 541.488 234.992 Q545.122 234.992 546.928 231.451 Q548.756 227.886 548.756 220.779 Q548.756 213.65 546.928 210.108 Q545.122 206.543 541.488 206.543 M541.488 202.84 Q547.298 202.84 550.354 207.446 Q553.432 212.029 553.432 220.779 Q553.432 229.506 550.354 234.113 Q547.298 238.696 541.488 238.696 Q535.678 238.696 532.599 234.113 Q529.543 229.506 529.543 220.779 Q529.543 212.029 532.599 207.446 Q535.678 202.84 541.488 202.84 Z" fill="#000000" fill-rule="evenodd" fill-opacity="1" /><polyline clip-path="url(#clip270)" style="stroke:#008000; stroke-linecap:butt; stroke-linejoin:round; stroke-width:4; stroke-opacity:1; fill:none" points="
  211.758,272.585 361.13,272.585 
  "/>
<path clip-path="url(#clip270)" d="M386.026 255.305 L407.877 255.305 L407.877 259.24 L390.702 259.24 L390.702 269.471 L407.16 269.471 L407.16 273.406 L390.702 273.406 L390.702 285.929 L408.294 285.929 L408.294 289.865 L386.026 289.865 L386.026 255.305 Z" fill="#000000" fill-rule="evenodd" fill-opacity="1" /><path clip-path="url(#clip270)" d="M431.419 268.337 L461.095 268.337 L461.095 272.226 L431.419 272.226 L431.419 268.337 M431.419 277.781 L461.095 277.781 L461.095 281.717 L431.419 281.717 L431.419 277.781 Z" fill="#000000" fill-rule="evenodd" fill-opacity="1" /><path clip-path="url(#clip270)" d="M496.257 273.453 Q492.923 273.453 491.002 275.235 Q489.104 277.017 489.104 280.142 Q489.104 283.267 491.002 285.05 Q492.923 286.832 496.257 286.832 Q499.59 286.832 501.511 285.05 Q503.432 283.244 503.432 280.142 Q503.432 277.017 501.511 275.235 Q499.613 273.453 496.257 273.453 M491.581 271.462 Q488.571 270.721 486.882 268.661 Q485.215 266.601 485.215 263.638 Q485.215 259.494 488.155 257.087 Q491.118 254.68 496.257 254.68 Q501.419 254.68 504.358 257.087 Q507.298 259.494 507.298 263.638 Q507.298 266.601 505.608 268.661 Q503.942 270.721 500.956 271.462 Q504.335 272.249 506.21 274.541 Q508.108 276.832 508.108 280.142 Q508.108 285.166 505.03 287.851 Q501.974 290.536 496.257 290.536 Q490.539 290.536 487.46 287.851 Q484.405 285.166 484.405 280.142 Q484.405 276.832 486.303 274.541 Q488.201 272.249 491.581 271.462 M489.868 264.078 Q489.868 266.763 491.534 268.268 Q493.224 269.772 496.257 269.772 Q499.266 269.772 500.956 268.268 Q502.669 266.763 502.669 264.078 Q502.669 261.393 500.956 259.888 Q499.266 258.383 496.257 258.383 Q493.224 258.383 491.534 259.888 Q489.868 261.393 489.868 264.078 Z" fill="#000000" fill-rule="evenodd" fill-opacity="1" /><path clip-path="url(#clip270)" d="M516.419 283.985 L521.303 283.985 L521.303 289.865 L516.419 289.865 L516.419 283.985 Z" fill="#000000" fill-rule="evenodd" fill-opacity="1" /><path clip-path="url(#clip270)" d="M541.488 258.383 Q537.877 258.383 536.048 261.948 Q534.242 265.49 534.242 272.619 Q534.242 279.726 536.048 283.291 Q537.877 286.832 541.488 286.832 Q545.122 286.832 546.928 283.291 Q548.756 279.726 548.756 272.619 Q548.756 265.49 546.928 261.948 Q545.122 258.383 541.488 258.383 M541.488 254.68 Q547.298 254.68 550.354 259.286 Q553.432 263.869 553.432 272.619 Q553.432 281.346 550.354 285.953 Q547.298 290.536 541.488 290.536 Q535.678 290.536 532.599 285.953 Q529.543 281.346 529.543 272.619 Q529.543 263.869 532.599 259.286 Q535.678 254.68 541.488 254.68 Z" fill="#000000" fill-rule="evenodd" fill-opacity="1" /><polyline clip-path="url(#clip270)" style="stroke:#0000ff; stroke-linecap:butt; stroke-linejoin:round; stroke-width:4; stroke-opacity:1; fill:none" points="
  211.758,324.425 361.13,324.425 
  "/>
<path clip-path="url(#clip270)" d="M386.026 307.145 L407.877 307.145 L407.877 311.08 L390.702 311.08 L390.702 321.311 L407.16 321.311 L407.16 325.246 L390.702 325.246 L390.702 337.769 L408.294 337.769 L408.294 341.705 L386.026 341.705 L386.026 307.145 Z" fill="#000000" fill-rule="evenodd" fill-opacity="1" /><path clip-path="url(#clip270)" d="M431.419 320.177 L461.095 320.177 L461.095 324.066 L431.419 324.066 L431.419 320.177 M431.419 329.621 L461.095 329.621 L461.095 333.557 L431.419 333.557 L431.419 329.621 Z" fill="#000000" fill-rule="evenodd" fill-opacity="1" /><path clip-path="url(#clip270)" d="M487.067 337.769 L494.706 337.769 L494.706 311.404 L486.396 313.071 L486.396 308.811 L494.659 307.145 L499.335 307.145 L499.335 337.769 L506.974 337.769 L506.974 341.705 L487.067 341.705 L487.067 337.769 Z" fill="#000000" fill-rule="evenodd" fill-opacity="1" /><path clip-path="url(#clip270)" d="M520.446 337.769 L536.766 337.769 L536.766 341.705 L514.821 341.705 L514.821 337.769 Q517.483 335.015 522.067 330.385 Q526.673 325.733 527.854 324.39 Q530.099 321.867 530.979 320.131 Q531.881 318.371 531.881 316.682 Q531.881 313.927 529.937 312.191 Q528.016 310.455 524.914 310.455 Q522.715 310.455 520.261 311.219 Q517.831 311.983 515.053 313.534 L515.053 308.811 Q517.877 307.677 520.331 307.098 Q522.784 306.52 524.821 306.52 Q530.192 306.52 533.386 309.205 Q536.58 311.89 536.58 316.381 Q536.58 318.51 535.77 320.432 Q534.983 322.33 532.877 324.922 Q532.298 325.594 529.196 328.811 Q526.094 332.006 520.446 337.769 Z" fill="#000000" fill-rule="evenodd" fill-opacity="1" /><path clip-path="url(#clip270)" d="M546.58 335.825 L551.465 335.825 L551.465 341.705 L546.58 341.705 L546.58 335.825 Z" fill="#000000" fill-rule="evenodd" fill-opacity="1" /><path clip-path="url(#clip270)" d="M571.65 310.223 Q568.039 310.223 566.21 313.788 Q564.404 317.33 564.404 324.459 Q564.404 331.566 566.21 335.131 Q568.039 338.672 571.65 338.672 Q575.284 338.672 577.089 335.131 Q578.918 331.566 578.918 324.459 Q578.918 317.33 577.089 313.788 Q575.284 310.223 571.65 310.223 M571.65 306.52 Q577.46 306.52 580.515 311.126 Q583.594 315.709 583.594 324.459 Q583.594 333.186 580.515 337.793 Q577.46 342.376 571.65 342.376 Q565.84 342.376 562.761 337.793 Q559.705 333.186 559.705 324.459 Q559.705 315.709 562.761 311.126 Q565.84 306.52 571.65 306.52 Z" fill="#000000" fill-rule="evenodd" fill-opacity="1" /><polyline clip-path="url(#clip270)" style="stroke:#000000; stroke-linecap:butt; stroke-linejoin:round; stroke-width:4; stroke-opacity:1; fill:none" points="
  211.758,376.265 361.13,376.265 
  "/>
<path clip-path="url(#clip270)" d="M386.026 358.985 L407.877 358.985 L407.877 362.92 L390.702 362.92 L390.702 373.151 L407.16 373.151 L407.16 377.086 L390.702 377.086 L390.702 389.609 L408.294 389.609 L408.294 393.545 L386.026 393.545 L386.026 358.985 Z" fill="#000000" fill-rule="evenodd" fill-opacity="1" /><path clip-path="url(#clip270)" d="M431.419 372.017 L461.095 372.017 L461.095 375.906 L431.419 375.906 L431.419 372.017 M431.419 381.461 L461.095 381.461 L461.095 385.397 L431.419 385.397 L431.419 381.461 Z" fill="#000000" fill-rule="evenodd" fill-opacity="1" /><path clip-path="url(#clip270)" d="M487.067 389.609 L494.706 389.609 L494.706 363.244 L486.396 364.911 L486.396 360.651 L494.659 358.985 L499.335 358.985 L499.335 389.609 L506.974 389.609 L506.974 393.545 L487.067 393.545 L487.067 389.609 Z" fill="#000000" fill-rule="evenodd" fill-opacity="1" /><path clip-path="url(#clip270)" d="M526.997 374.401 Q523.849 374.401 521.997 376.554 Q520.168 378.707 520.168 382.457 Q520.168 386.184 521.997 388.359 Q523.849 390.512 526.997 390.512 Q530.145 390.512 531.974 388.359 Q533.826 386.184 533.826 382.457 Q533.826 378.707 531.974 376.554 Q530.145 374.401 526.997 374.401 M536.28 359.749 L536.28 364.008 Q534.52 363.174 532.715 362.735 Q530.932 362.295 529.173 362.295 Q524.543 362.295 522.09 365.42 Q519.659 368.545 519.312 374.864 Q520.678 372.85 522.738 371.786 Q524.798 370.698 527.275 370.698 Q532.483 370.698 535.492 373.869 Q538.525 377.017 538.525 382.457 Q538.525 387.781 535.377 390.998 Q532.229 394.216 526.997 394.216 Q521.002 394.216 517.831 389.633 Q514.659 385.026 514.659 376.299 Q514.659 368.105 518.548 363.244 Q522.437 358.36 528.988 358.36 Q530.747 358.36 532.53 358.707 Q534.335 359.054 536.28 359.749 Z" fill="#000000" fill-rule="evenodd" fill-opacity="1" /><path clip-path="url(#clip270)" d="M546.58 387.665 L551.465 387.665 L551.465 393.545 L546.58 393.545 L546.58 387.665 Z" fill="#000000" fill-rule="evenodd" fill-opacity="1" /><path clip-path="url(#clip270)" d="M571.65 362.063 Q568.039 362.063 566.21 365.628 Q564.404 369.17 564.404 376.299 Q564.404 383.406 566.21 386.971 Q568.039 390.512 571.65 390.512 Q575.284 390.512 577.089 386.971 Q578.918 383.406 578.918 376.299 Q578.918 369.17 577.089 365.628 Q575.284 362.063 571.65 362.063 M571.65 358.36 Q577.46 358.36 580.515 362.966 Q583.594 367.549 583.594 376.299 Q583.594 385.026 580.515 389.633 Q577.46 394.216 571.65 394.216 Q565.84 394.216 562.761 389.633 Q559.705 385.026 559.705 376.299 Q559.705 367.549 562.761 362.966 Q565.84 358.36 571.65 358.36 Z" fill="#000000" fill-rule="evenodd" fill-opacity="1" /><polyline clip-path="url(#clip270)" style="stroke:#ffa500; stroke-linecap:butt; stroke-linejoin:round; stroke-width:4; stroke-opacity:1; fill:none" points="
  211.758,428.105 361.13,428.105 
  "/>
<path clip-path="url(#clip270)" d="M386.026 410.825 L407.877 410.825 L407.877 414.76 L390.702 414.76 L390.702 424.991 L407.16 424.991 L407.16 428.926 L390.702 428.926 L390.702 441.449 L408.294 441.449 L408.294 445.385 L386.026 445.385 L386.026 410.825 Z" fill="#000000" fill-rule="evenodd" fill-opacity="1" /><path clip-path="url(#clip270)" d="M431.419 423.857 L461.095 423.857 L461.095 427.746 L431.419 427.746 L431.419 423.857 M431.419 433.301 L461.095 433.301 L461.095 437.237 L431.419 437.237 L431.419 433.301 Z" fill="#000000" fill-rule="evenodd" fill-opacity="1" /><path clip-path="url(#clip270)" d="M490.284 441.449 L506.604 441.449 L506.604 445.385 L484.659 445.385 L484.659 441.449 Q487.321 438.695 491.905 434.065 Q496.511 429.413 497.692 428.07 Q499.937 425.547 500.817 423.811 Q501.72 422.051 501.72 420.362 Q501.72 417.607 499.775 415.871 Q497.854 414.135 494.752 414.135 Q492.553 414.135 490.099 414.899 Q487.669 415.663 484.891 417.214 L484.891 412.491 Q487.715 411.357 490.169 410.778 Q492.622 410.2 494.659 410.2 Q500.03 410.2 503.224 412.885 Q506.419 415.57 506.419 420.061 Q506.419 422.19 505.608 424.112 Q504.821 426.01 502.715 428.602 Q502.136 429.274 499.034 432.491 Q495.933 435.686 490.284 441.449 Z" fill="#000000" fill-rule="evenodd" fill-opacity="1" /><path clip-path="url(#clip270)" d="M526.418 413.903 Q522.807 413.903 520.979 417.468 Q519.173 421.01 519.173 428.139 Q519.173 435.246 520.979 438.811 Q522.807 442.352 526.418 442.352 Q530.053 442.352 531.858 438.811 Q533.687 435.246 533.687 428.139 Q533.687 421.01 531.858 417.468 Q530.053 413.903 526.418 413.903 M526.418 410.2 Q532.229 410.2 535.284 414.806 Q538.363 419.389 538.363 428.139 Q538.363 436.866 535.284 441.473 Q532.229 446.056 526.418 446.056 Q520.608 446.056 517.53 441.473 Q514.474 436.866 514.474 428.139 Q514.474 419.389 517.53 414.806 Q520.608 410.2 526.418 410.2 Z" fill="#000000" fill-rule="evenodd" fill-opacity="1" /><path clip-path="url(#clip270)" d="M546.58 439.505 L551.465 439.505 L551.465 445.385 L546.58 445.385 L546.58 439.505 Z" fill="#000000" fill-rule="evenodd" fill-opacity="1" /><path clip-path="url(#clip270)" d="M571.65 413.903 Q568.039 413.903 566.21 417.468 Q564.404 421.01 564.404 428.139 Q564.404 435.246 566.21 438.811 Q568.039 442.352 571.65 442.352 Q575.284 442.352 577.089 438.811 Q578.918 435.246 578.918 428.139 Q578.918 421.01 577.089 417.468 Q575.284 413.903 571.65 413.903 M571.65 410.2 Q577.46 410.2 580.515 414.806 Q583.594 419.389 583.594 428.139 Q583.594 436.866 580.515 441.473 Q577.46 446.056 571.65 446.056 Q565.84 446.056 562.761 441.473 Q559.705 436.866 559.705 428.139 Q559.705 419.389 562.761 414.806 Q565.84 410.2 571.65 410.2 Z" fill="#000000" fill-rule="evenodd" fill-opacity="1" /></svg>
