<?xml version="1.0" encoding="utf-8"?>
<svg xmlns="http://www.w3.org/2000/svg" xmlns:xlink="http://www.w3.org/1999/xlink" width="600" height="400" viewBox="0 0 2400 1600">
<defs>
  <clipPath id="clip360">
    <rect x="0" y="0" width="2400" height="1600"/>
  </clipPath>
</defs>
<path clip-path="url(#clip360)" d="
M0 1600 L2400 1600 L2400 0 L0 0  Z
  " fill="#ffffff" fill-rule="evenodd" fill-opacity="1"/>
<defs>
  <clipPath id="clip361">
    <rect x="480" y="0" width="1681" height="1600"/>
  </clipPath>
</defs>
<path clip-path="url(#clip360)" d="
M156.922 1486.45 L2352.76 1486.45 L2352.76 123.472 L156.922 123.472  Z
  " fill="#ffffff" fill-rule="evenodd" fill-opacity="1"/>
<defs>
  <clipPath id="clip362">
    <rect x="156" y="123" width="2197" height="1364"/>
  </clipPath>
</defs>
<polyline clip-path="url(#clip362)" style="stroke:#000000; stroke-linecap:butt; stroke-linejoin:round; stroke-width:2; stroke-opacity:0.1; fill:none" points="
  156.922,1486.45 156.922,123.472 
  "/>
<polyline clip-path="url(#clip362)" style="stroke:#000000; stroke-linecap:butt; stroke-linejoin:round; stroke-width:2; stroke-opacity:0.1; fill:none" points="
  705.881,1486.45 705.881,123.472 
  "/>
<polyline clip-path="url(#clip362)" style="stroke:#000000; stroke-linecap:butt; stroke-linejoin:round; stroke-width:2; stroke-opacity:0.1; fill:none" points="
  1254.84,1486.45 1254.84,123.472 
  "/>
<polyline clip-path="url(#clip362)" style="stroke:#000000; stroke-linecap:butt; stroke-linejoin:round; stroke-width:2; stroke-opacity:0.1; fill:none" points="
  1803.8,1486.45 1803.8,123.472 
  "/>
<polyline clip-path="url(#clip360)" style="stroke:#000000; stroke-linecap:butt; stroke-linejoin:round; stroke-width:4; stroke-opacity:1; fill:none" points="
  156.922,1486.45 2352.76,1486.45 
  "/>
<polyline clip-path="url(#clip360)" style="stroke:#000000; stroke-linecap:butt; stroke-linejoin:round; stroke-width:4; stroke-opacity:1; fill:none" points="
  156.922,1486.45 156.922,1467.55 
  "/>
<polyline clip-path="url(#clip360)" style="stroke:#000000; stroke-linecap:butt; stroke-linejoin:round; stroke-width:4; stroke-opacity:1; fill:none" points="
  705.881,1486.45 705.881,1467.55 
  "/>
<polyline clip-path="url(#clip360)" style="stroke:#000000; stroke-linecap:butt; stroke-linejoin:round; stroke-width:4; stroke-opacity:1; fill:none" points="
  1254.84,1486.45 1254.84,1467.55 
  "/>
<polyline clip-path="url(#clip360)" style="stroke:#000000; stroke-linecap:butt; stroke-linejoin:round; stroke-width:4; stroke-opacity:1; fill:none" points="
  1803.8,1486.45 1803.8,1467.55 
  "/>
<path clip-path="url(#clip360)" d="M138.01 1518.36 L126.205 1536.81 L138.01 1536.81 L138.01 1518.36 M136.784 1514.29 L142.663 1514.29 L142.663 1536.81 L147.594 1536.81 L147.594 1540.7 L142.663 1540.7 L142.663 1548.85 L138.01 1548.85 L138.01 1540.7 L122.409 1540.7 L122.409 1536.19 L136.784 1514.29 Z" fill="#000000" fill-rule="evenodd" fill-opacity="1" /><path clip-path="url(#clip360)" d="M155.325 1542.97 L160.209 1542.97 L160.209 1548.85 L155.325 1548.85 L155.325 1542.97 Z" fill="#000000" fill-rule="evenodd" fill-opacity="1" /><path clip-path="url(#clip360)" d="M169.214 1514.29 L191.436 1514.29 L191.436 1516.28 L178.89 1548.85 L174.006 1548.85 L185.811 1518.22 L169.214 1518.22 L169.214 1514.29 Z" fill="#000000" fill-rule="evenodd" fill-opacity="1" /><path clip-path="url(#clip360)" d="M686.564 1518.36 L674.758 1536.81 L686.564 1536.81 L686.564 1518.36 M685.337 1514.29 L691.216 1514.29 L691.216 1536.81 L696.147 1536.81 L696.147 1540.7 L691.216 1540.7 L691.216 1548.85 L686.564 1548.85 L686.564 1540.7 L670.962 1540.7 L670.962 1536.19 L685.337 1514.29 Z" fill="#000000" fill-rule="evenodd" fill-opacity="1" /><path clip-path="url(#clip360)" d="M703.878 1542.97 L708.763 1542.97 L708.763 1548.85 L703.878 1548.85 L703.878 1542.97 Z" fill="#000000" fill-rule="evenodd" fill-opacity="1" /><path clip-path="url(#clip360)" d="M728.948 1532.44 Q725.614 1532.44 723.693 1534.22 Q721.795 1536 721.795 1539.13 Q721.795 1542.25 723.693 1544.03 Q725.614 1545.82 728.948 1545.82 Q732.281 1545.82 734.202 1544.03 Q736.124 1542.23 736.124 1539.13 Q736.124 1536 734.202 1534.22 Q732.304 1532.44 728.948 1532.44 M724.272 1530.45 Q721.263 1529.7 719.573 1527.64 Q717.906 1525.58 717.906 1522.62 Q717.906 1518.48 720.846 1516.07 Q723.809 1513.66 728.948 1513.66 Q734.11 1513.66 737.05 1516.07 Q739.989 1518.48 739.989 1522.62 Q739.989 1525.58 738.3 1527.64 Q736.633 1529.7 733.647 1530.45 Q737.026 1531.23 738.901 1533.52 Q740.8 1535.82 740.8 1539.13 Q740.8 1544.15 737.721 1546.83 Q734.665 1549.52 728.948 1549.52 Q723.23 1549.52 720.151 1546.83 Q717.096 1544.15 717.096 1539.13 Q717.096 1535.82 718.994 1533.52 Q720.892 1531.23 724.272 1530.45 M722.559 1523.06 Q722.559 1525.75 724.226 1527.25 Q725.915 1528.76 728.948 1528.76 Q731.957 1528.76 733.647 1527.25 Q735.36 1525.75 735.36 1523.06 Q735.36 1520.38 733.647 1518.87 Q731.957 1517.37 728.948 1517.37 Q725.915 1517.37 724.226 1518.87 Q722.559 1520.38 722.559 1523.06 Z" fill="#000000" fill-rule="evenodd" fill-opacity="1" /><path clip-path="url(#clip360)" d="M1235.57 1518.36 L1223.76 1536.81 L1235.57 1536.81 L1235.57 1518.36 M1234.34 1514.29 L1240.22 1514.29 L1240.22 1536.81 L1245.15 1536.81 L1245.15 1540.7 L1240.22 1540.7 L1240.22 1548.85 L1235.57 1548.85 L1235.57 1540.7 L1219.97 1540.7 L1219.97 1536.19 L1234.34 1514.29 Z" fill="#000000" fill-rule="evenodd" fill-opacity="1" /><path clip-path="url(#clip360)" d="M1252.88 1542.97 L1257.77 1542.97 L1257.77 1548.85 L1252.88 1548.85 L1252.88 1542.97 Z" fill="#000000" fill-rule="evenodd" fill-opacity="1" /><path clip-path="url(#clip360)" d="M1268.09 1548.13 L1268.09 1543.87 Q1269.85 1544.7 1271.66 1545.14 Q1273.46 1545.58 1275.2 1545.58 Q1279.83 1545.58 1282.26 1542.48 Q1284.71 1539.36 1285.06 1533.01 Q1283.72 1535.01 1281.66 1536.07 Q1279.6 1537.13 1277.1 1537.13 Q1271.91 1537.13 1268.88 1534.01 Q1265.87 1530.86 1265.87 1525.42 Q1265.87 1520.1 1269.02 1516.88 Q1272.17 1513.66 1277.4 1513.66 Q1283.39 1513.66 1286.54 1518.27 Q1289.71 1522.85 1289.71 1531.6 Q1289.71 1539.77 1285.82 1544.66 Q1281.96 1549.52 1275.41 1549.52 Q1273.65 1549.52 1271.84 1549.17 Q1270.04 1548.82 1268.09 1548.13 M1277.4 1533.48 Q1280.54 1533.48 1282.37 1531.32 Q1284.23 1529.17 1284.23 1525.42 Q1284.23 1521.7 1282.37 1519.54 Q1280.54 1517.37 1277.4 1517.37 Q1274.25 1517.37 1272.4 1519.54 Q1270.57 1521.7 1270.57 1525.42 Q1270.57 1529.17 1272.4 1531.32 Q1274.25 1533.48 1277.4 1533.48 Z" fill="#000000" fill-rule="evenodd" fill-opacity="1" /><path clip-path="url(#clip360)" d="M1770.96 1514.29 L1789.32 1514.29 L1789.32 1518.22 L1775.24 1518.22 L1775.24 1526.7 Q1776.26 1526.35 1777.28 1526.19 Q1778.3 1526 1779.32 1526 Q1785.11 1526 1788.49 1529.17 Q1791.86 1532.34 1791.86 1537.76 Q1791.86 1543.34 1788.39 1546.44 Q1784.92 1549.52 1778.6 1549.52 Q1776.42 1549.52 1774.16 1549.15 Q1771.91 1548.78 1769.5 1548.04 L1769.5 1543.34 Q1771.59 1544.47 1773.81 1545.03 Q1776.03 1545.58 1778.51 1545.58 Q1782.51 1545.58 1784.85 1543.48 Q1787.19 1541.37 1787.19 1537.76 Q1787.19 1534.15 1784.85 1532.04 Q1782.51 1529.94 1778.51 1529.94 Q1776.63 1529.94 1774.76 1530.35 Q1772.91 1530.77 1770.96 1531.65 L1770.96 1514.29 Z" fill="#000000" fill-rule="evenodd" fill-opacity="1" /><path clip-path="url(#clip360)" d="M1801.08 1542.97 L1805.96 1542.97 L1805.96 1548.85 L1801.08 1548.85 L1801.08 1542.97 Z" fill="#000000" fill-rule="evenodd" fill-opacity="1" /><path clip-path="url(#clip360)" d="M1826.15 1517.37 Q1822.54 1517.37 1820.71 1520.93 Q1818.9 1524.47 1818.9 1531.6 Q1818.9 1538.71 1820.71 1542.27 Q1822.54 1545.82 1826.15 1545.82 Q1829.78 1545.82 1831.59 1542.27 Q1833.42 1538.71 1833.42 1531.6 Q1833.42 1524.47 1831.59 1520.93 Q1829.78 1517.37 1826.15 1517.37 M1826.15 1513.66 Q1831.96 1513.66 1835.01 1518.27 Q1838.09 1522.85 1838.09 1531.6 Q1838.09 1540.33 1835.01 1544.94 Q1831.96 1549.52 1826.15 1549.52 Q1820.34 1549.52 1817.26 1544.94 Q1814.2 1540.33 1814.2 1531.6 Q1814.2 1522.85 1817.26 1518.27 Q1820.34 1513.66 1826.15 1513.66 Z" fill="#000000" fill-rule="evenodd" fill-opacity="1" /><polyline clip-path="url(#clip362)" style="stroke:#000000; stroke-linecap:butt; stroke-linejoin:round; stroke-width:2; stroke-opacity:0.1; fill:none" points="
  156.922,1340.04 2352.76,1340.04 
  "/>
<polyline clip-path="url(#clip362)" style="stroke:#000000; stroke-linecap:butt; stroke-linejoin:round; stroke-width:2; stroke-opacity:0.1; fill:none" points="
  156.922,1161.46 2352.76,1161.46 
  "/>
<polyline clip-path="url(#clip362)" style="stroke:#000000; stroke-linecap:butt; stroke-linejoin:round; stroke-width:2; stroke-opacity:0.1; fill:none" points="
  156.922,982.87 2352.76,982.87 
  "/>
<polyline clip-path="url(#clip362)" style="stroke:#000000; stroke-linecap:butt; stroke-linejoin:round; stroke-width:2; stroke-opacity:0.1; fill:none" points="
  156.922,804.283 2352.76,804.283 
  "/>
<polyline clip-path="url(#clip362)" style="stroke:#000000; stroke-linecap:butt; stroke-linejoin:round; stroke-width:2; stroke-opacity:0.1; fill:none" points="
  156.922,625.696 2352.76,625.696 
  "/>
<polyline clip-path="url(#clip362)" style="stroke:#000000; stroke-linecap:butt; stroke-linejoin:round; stroke-width:2; stroke-opacity:0.1; fill:none" points="
  156.922,447.11 2352.76,447.11 
  "/>
<polyline clip-path="url(#clip362)" style="stroke:#000000; stroke-linecap:butt; stroke-linejoin:round; stroke-width:2; stroke-opacity:0.1; fill:none" points="
  156.922,268.523 2352.76,268.523 
  "/>
<polyline clip-path="url(#clip360)" style="stroke:#000000; stroke-linecap:butt; stroke-linejoin:round; stroke-width:4; stroke-opacity:1; fill:none" points="
  156.922,1486.45 156.922,123.472 
  "/>
<polyline clip-path="url(#clip360)" style="stroke:#000000; stroke-linecap:butt; stroke-linejoin:round; stroke-width:4; stroke-opacity:1; fill:none" points="
  156.922,1340.04 175.82,1340.04 
  "/>
<polyline clip-path="url(#clip360)" style="stroke:#000000; stroke-linecap:butt; stroke-linejoin:round; stroke-width:4; stroke-opacity:1; fill:none" points="
  156.922,1161.46 175.82,1161.46 
  "/>
<polyline clip-path="url(#clip360)" style="stroke:#000000; stroke-linecap:butt; stroke-linejoin:round; stroke-width:4; stroke-opacity:1; fill:none" points="
  156.922,982.87 175.82,982.87 
  "/>
<polyline clip-path="url(#clip360)" style="stroke:#000000; stroke-linecap:butt; stroke-linejoin:round; stroke-width:4; stroke-opacity:1; fill:none" points="
  156.922,804.283 175.82,804.283 
  "/>
<polyline clip-path="url(#clip360)" style="stroke:#000000; stroke-linecap:butt; stroke-linejoin:round; stroke-width:4; stroke-opacity:1; fill:none" points="
  156.922,625.696 175.82,625.696 
  "/>
<polyline clip-path="url(#clip360)" style="stroke:#000000; stroke-linecap:butt; stroke-linejoin:round; stroke-width:4; stroke-opacity:1; fill:none" points="
  156.922,447.11 175.82,447.11 
  "/>
<polyline clip-path="url(#clip360)" style="stroke:#000000; stroke-linecap:butt; stroke-linejoin:round; stroke-width:4; stroke-opacity:1; fill:none" points="
  156.922,268.523 175.82,268.523 
  "/>
<path clip-path="url(#clip360)" d="M58.7699 1353.39 L75.0892 1353.39 L75.0892 1357.32 L53.1449 1357.32 L53.1449 1353.39 Q55.8069 1350.63 60.3902 1346 Q64.9967 1341.35 66.1772 1340.01 Q68.4226 1337.49 69.3022 1335.75 Q70.205 1333.99 70.205 1332.3 Q70.205 1329.55 68.2606 1327.81 Q66.3393 1326.07 63.2374 1326.07 Q61.0384 1326.07 58.5847 1326.84 Q56.1541 1327.6 53.3764 1329.15 L53.3764 1324.43 Q56.2004 1323.3 58.6541 1322.72 Q61.1078 1322.14 63.1448 1322.14 Q68.5152 1322.14 71.7096 1324.82 Q74.904 1327.51 74.904 1332 Q74.904 1334.13 74.0939 1336.05 Q73.3068 1337.95 71.2004 1340.54 Q70.6217 1341.21 67.5198 1344.43 Q64.418 1347.63 58.7699 1353.39 Z" fill="#000000" fill-rule="evenodd" fill-opacity="1" /><path clip-path="url(#clip360)" d="M84.904 1351.44 L89.7882 1351.44 L89.7882 1357.32 L84.904 1357.32 L84.904 1351.44 Z" fill="#000000" fill-rule="evenodd" fill-opacity="1" /><path clip-path="url(#clip360)" d="M100.02 1322.76 L118.376 1322.76 L118.376 1326.7 L104.302 1326.7 L104.302 1335.17 Q105.321 1334.82 106.339 1334.66 Q107.358 1334.48 108.376 1334.48 Q114.163 1334.48 117.543 1337.65 Q120.922 1340.82 120.922 1346.24 Q120.922 1351.82 117.45 1354.92 Q113.978 1358 107.658 1358 Q105.483 1358 103.214 1357.63 Q100.969 1357.25 98.5613 1356.51 L98.5613 1351.82 Q100.645 1352.95 102.867 1353.5 Q105.089 1354.06 107.566 1354.06 Q111.571 1354.06 113.908 1351.95 Q116.246 1349.85 116.246 1346.24 Q116.246 1342.63 113.908 1340.52 Q111.571 1338.41 107.566 1338.41 Q105.691 1338.41 103.816 1338.83 Q101.964 1339.25 100.02 1340.13 L100.02 1322.76 Z" fill="#000000" fill-rule="evenodd" fill-opacity="1" /><path clip-path="url(#clip360)" d="M67.9133 1160.1 Q71.2698 1160.82 73.1448 1163.09 Q75.0429 1165.36 75.0429 1168.69 Q75.0429 1173.81 71.5244 1176.61 Q68.0059 1179.41 61.5245 1179.41 Q59.3486 1179.41 57.0338 1178.97 Q54.7421 1178.55 52.2884 1177.7 L52.2884 1173.18 Q54.2328 1174.32 56.5477 1174.89 Q58.8625 1175.47 61.3856 1175.47 Q65.7837 1175.47 68.0754 1173.74 Q70.3902 1172 70.3902 1168.69 Q70.3902 1165.64 68.2374 1163.92 Q66.1078 1162.19 62.2884 1162.19 L58.2606 1162.19 L58.2606 1158.34 L62.4735 1158.34 Q65.9226 1158.34 67.7513 1156.98 Q69.58 1155.59 69.58 1153 Q69.58 1150.33 67.6819 1148.92 Q65.8069 1147.49 62.2884 1147.49 Q60.3671 1147.49 58.168 1147.9 Q55.969 1148.32 53.3301 1149.2 L53.3301 1145.03 Q55.9921 1144.29 58.3069 1143.92 Q60.6449 1143.55 62.705 1143.55 Q68.0291 1143.55 71.1309 1145.98 Q74.2327 1148.39 74.2327 1152.51 Q74.2327 1155.38 72.5892 1157.37 Q70.9457 1159.34 67.9133 1160.1 Z" fill="#000000" fill-rule="evenodd" fill-opacity="1" /><path clip-path="url(#clip360)" d="M83.9086 1172.86 L88.7928 1172.86 L88.7928 1178.74 L83.9086 1178.74 L83.9086 1172.86 Z" fill="#000000" fill-rule="evenodd" fill-opacity="1" /><path clip-path="url(#clip360)" d="M108.978 1147.26 Q105.367 1147.26 103.538 1150.82 Q101.733 1154.36 101.733 1161.49 Q101.733 1168.6 103.538 1172.16 Q105.367 1175.71 108.978 1175.71 Q112.612 1175.71 114.418 1172.16 Q116.246 1168.6 116.246 1161.49 Q116.246 1154.36 114.418 1150.82 Q112.612 1147.26 108.978 1147.26 M108.978 1143.55 Q114.788 1143.55 117.844 1148.16 Q120.922 1152.74 120.922 1161.49 Q120.922 1170.22 117.844 1174.83 Q114.788 1179.41 108.978 1179.41 Q103.168 1179.41 100.089 1174.83 Q97.0335 1170.22 97.0335 1161.49 Q97.0335 1152.74 100.089 1148.16 Q103.168 1143.55 108.978 1143.55 Z" fill="#000000" fill-rule="evenodd" fill-opacity="1" /><path clip-path="url(#clip360)" d="M68.9087 981.516 Q72.2652 982.234 74.1402 984.502 Q76.0383 986.771 76.0383 990.104 Q76.0383 995.22 72.5198 998.021 Q69.0013 1000.82 62.5198 1000.82 Q60.3439 1000.82 58.0291 1000.38 Q55.7375 999.965 53.2838 999.109 L53.2838 994.595 Q55.2282 995.729 57.543 996.308 Q59.8578 996.887 62.381 996.887 Q66.7791 996.887 69.0707 995.15 Q71.3855 993.414 71.3855 990.104 Q71.3855 987.049 69.2328 985.336 Q67.1032 983.6 63.2837 983.6 L59.256 983.6 L59.256 979.757 L63.4689 979.757 Q66.918 979.757 68.7467 978.391 Q70.5754 977.002 70.5754 974.41 Q70.5754 971.748 68.6772 970.336 Q66.8022 968.901 63.2837 968.901 Q61.3624 968.901 59.1634 969.317 Q56.9643 969.734 54.3254 970.614 L54.3254 966.447 Q56.9875 965.706 59.3023 965.336 Q61.6402 964.965 63.7004 964.965 Q69.0244 964.965 72.1263 967.396 Q75.2281 969.803 75.2281 973.924 Q75.2281 976.794 73.5846 978.785 Q71.9411 980.752 68.9087 981.516 Z" fill="#000000" fill-rule="evenodd" fill-opacity="1" /><path clip-path="url(#clip360)" d="M84.904 994.271 L89.7882 994.271 L89.7882 1000.15 L84.904 1000.15 L84.904 994.271 Z" fill="#000000" fill-rule="evenodd" fill-opacity="1" /><path clip-path="url(#clip360)" d="M100.02 965.59 L118.376 965.59 L118.376 969.526 L104.302 969.526 L104.302 977.998 Q105.321 977.651 106.339 977.489 Q107.358 977.303 108.376 977.303 Q114.163 977.303 117.543 980.475 Q120.922 983.646 120.922 989.063 Q120.922 994.641 117.45 997.743 Q113.978 1000.82 107.658 1000.82 Q105.483 1000.82 103.214 1000.45 Q100.969 1000.08 98.5613 999.34 L98.5613 994.641 Q100.645 995.775 102.867 996.331 Q105.089 996.887 107.566 996.887 Q111.571 996.887 113.908 994.78 Q116.246 992.674 116.246 989.063 Q116.246 985.451 113.908 983.345 Q111.571 981.238 107.566 981.238 Q105.691 981.238 103.816 981.655 Q101.964 982.072 100.02 982.951 L100.02 965.59 Z" fill="#000000" fill-rule="evenodd" fill-opacity="1" /><path clip-path="url(#clip360)" d="M66.5939 791.078 L54.7884 809.526 L66.5939 809.526 L66.5939 791.078 M65.367 787.003 L71.2466 787.003 L71.2466 809.526 L76.1772 809.526 L76.1772 813.415 L71.2466 813.415 L71.2466 821.563 L66.5939 821.563 L66.5939 813.415 L50.9921 813.415 L50.9921 808.901 L65.367 787.003 Z" fill="#000000" fill-rule="evenodd" fill-opacity="1" /><path clip-path="url(#clip360)" d="M83.9086 815.684 L88.7928 815.684 L88.7928 821.563 L83.9086 821.563 L83.9086 815.684 Z" fill="#000000" fill-rule="evenodd" fill-opacity="1" /><path clip-path="url(#clip360)" d="M108.978 790.082 Q105.367 790.082 103.538 793.647 Q101.733 797.189 101.733 804.318 Q101.733 811.425 103.538 814.989 Q105.367 818.531 108.978 818.531 Q112.612 818.531 114.418 814.989 Q116.246 811.425 116.246 804.318 Q116.246 797.189 114.418 793.647 Q112.612 790.082 108.978 790.082 M108.978 786.378 Q114.788 786.378 117.844 790.985 Q120.922 795.568 120.922 804.318 Q120.922 813.045 117.844 817.651 Q114.788 822.235 108.978 822.235 Q103.168 822.235 100.089 817.651 Q97.0335 813.045 97.0335 804.318 Q97.0335 795.568 100.089 790.985 Q103.168 786.378 108.978 786.378 Z" fill="#000000" fill-rule="evenodd" fill-opacity="1" /><path clip-path="url(#clip360)" d="M67.5893 612.491 L55.7838 630.94 L67.5893 630.94 L67.5893 612.491 M66.3624 608.416 L72.242 608.416 L72.242 630.94 L77.1725 630.94 L77.1725 634.828 L72.242 634.828 L72.242 642.976 L67.5893 642.976 L67.5893 634.828 L51.9875 634.828 L51.9875 630.315 L66.3624 608.416 Z" fill="#000000" fill-rule="evenodd" fill-opacity="1" /><path clip-path="url(#clip360)" d="M84.904 637.097 L89.7882 637.097 L89.7882 642.976 L84.904 642.976 L84.904 637.097 Z" fill="#000000" fill-rule="evenodd" fill-opacity="1" /><path clip-path="url(#clip360)" d="M100.02 608.416 L118.376 608.416 L118.376 612.352 L104.302 612.352 L104.302 620.824 Q105.321 620.477 106.339 620.315 Q107.358 620.129 108.376 620.129 Q114.163 620.129 117.543 623.301 Q120.922 626.472 120.922 631.889 Q120.922 637.467 117.45 640.569 Q113.978 643.648 107.658 643.648 Q105.483 643.648 103.214 643.277 Q100.969 642.907 98.5613 642.166 L98.5613 637.467 Q100.645 638.602 102.867 639.157 Q105.089 639.713 107.566 639.713 Q111.571 639.713 113.908 637.606 Q116.246 635.5 116.246 631.889 Q116.246 628.277 113.908 626.171 Q111.571 624.065 107.566 624.065 Q105.691 624.065 103.816 624.481 Q101.964 624.898 100.02 625.778 L100.02 608.416 Z" fill="#000000" fill-rule="evenodd" fill-opacity="1" /><path clip-path="url(#clip360)" d="M53.793 429.83 L72.1494 429.83 L72.1494 433.765 L58.0754 433.765 L58.0754 442.237 Q59.0939 441.89 60.1124 441.728 Q61.131 441.542 62.1495 441.542 Q67.9365 441.542 71.3161 444.714 Q74.6957 447.885 74.6957 453.302 Q74.6957 458.88 71.2235 461.982 Q67.7513 465.061 61.4319 465.061 Q59.256 465.061 56.9875 464.69 Q54.7421 464.32 52.3347 463.579 L52.3347 458.88 Q54.418 460.015 56.6402 460.57 Q58.8625 461.126 61.3393 461.126 Q65.3439 461.126 67.6819 459.019 Q70.0198 456.913 70.0198 453.302 Q70.0198 449.691 67.6819 447.584 Q65.3439 445.478 61.3393 445.478 Q59.4643 445.478 57.5893 445.894 Q55.7375 446.311 53.793 447.191 L53.793 429.83 Z" fill="#000000" fill-rule="evenodd" fill-opacity="1" /><path clip-path="url(#clip360)" d="M83.9086 458.51 L88.7928 458.51 L88.7928 464.39 L83.9086 464.39 L83.9086 458.51 Z" fill="#000000" fill-rule="evenodd" fill-opacity="1" /><path clip-path="url(#clip360)" d="M108.978 432.908 Q105.367 432.908 103.538 436.473 Q101.733 440.015 101.733 447.144 Q101.733 454.251 103.538 457.815 Q105.367 461.357 108.978 461.357 Q112.612 461.357 114.418 457.815 Q116.246 454.251 116.246 447.144 Q116.246 440.015 114.418 436.473 Q112.612 432.908 108.978 432.908 M108.978 429.205 Q114.788 429.205 117.844 433.811 Q120.922 438.394 120.922 447.144 Q120.922 455.871 117.844 460.478 Q114.788 465.061 108.978 465.061 Q103.168 465.061 100.089 460.478 Q97.0335 455.871 97.0335 447.144 Q97.0335 438.394 100.089 433.811 Q103.168 429.205 108.978 429.205 Z" fill="#000000" fill-rule="evenodd" fill-opacity="1" /><path clip-path="url(#clip360)" d="M54.7884 251.243 L73.1448 251.243 L73.1448 255.178 L59.0708 255.178 L59.0708 263.65 Q60.0893 263.303 61.1078 263.141 Q62.1263 262.955 63.1448 262.955 Q68.9318 262.955 72.3115 266.127 Q75.6911 269.298 75.6911 274.715 Q75.6911 280.293 72.2189 283.395 Q68.7467 286.474 62.4272 286.474 Q60.2513 286.474 57.9828 286.103 Q55.7375 285.733 53.3301 284.992 L53.3301 280.293 Q55.4134 281.428 57.6356 281.983 Q59.8578 282.539 62.3347 282.539 Q66.3393 282.539 68.6772 280.432 Q71.0152 278.326 71.0152 274.715 Q71.0152 271.104 68.6772 268.997 Q66.3393 266.891 62.3347 266.891 Q60.4597 266.891 58.5847 267.307 Q56.7328 267.724 54.7884 268.604 L54.7884 251.243 Z" fill="#000000" fill-rule="evenodd" fill-opacity="1" /><path clip-path="url(#clip360)" d="M84.904 279.923 L89.7882 279.923 L89.7882 285.803 L84.904 285.803 L84.904 279.923 Z" fill="#000000" fill-rule="evenodd" fill-opacity="1" /><path clip-path="url(#clip360)" d="M100.02 251.243 L118.376 251.243 L118.376 255.178 L104.302 255.178 L104.302 263.65 Q105.321 263.303 106.339 263.141 Q107.358 262.955 108.376 262.955 Q114.163 262.955 117.543 266.127 Q120.922 269.298 120.922 274.715 Q120.922 280.293 117.45 283.395 Q113.978 286.474 107.658 286.474 Q105.483 286.474 103.214 286.103 Q100.969 285.733 98.5613 284.992 L98.5613 280.293 Q100.645 281.428 102.867 281.983 Q105.089 282.539 107.566 282.539 Q111.571 282.539 113.908 280.432 Q116.246 278.326 116.246 274.715 Q116.246 271.104 113.908 268.997 Q111.571 266.891 107.566 266.891 Q105.691 266.891 103.816 267.307 Q101.964 267.724 100.02 268.604 L100.02 251.243 Z" fill="#000000" fill-rule="evenodd" fill-opacity="1" /><path clip-path="url(#clip360)" d="M387.297 20.1573 L376.198 50.2555 L398.437 50.2555 L387.297 20.1573 M382.679 12.096 L391.956 12.096 L415.006 72.576 L406.499 72.576 L400.99 57.061 L373.727 57.061 L368.218 72.576 L359.589 72.576 L382.679 12.096 Z" fill="#000000" fill-rule="evenodd" fill-opacity="1" /><path clip-path="url(#clip360)" d="M449.803 34.1734 Q448.547 33.4443 447.048 33.1202 Q445.59 32.7556 443.808 32.7556 Q437.488 32.7556 434.085 36.8875 Q430.723 40.9789 430.723 48.6757 L430.723 72.576 L423.229 72.576 L423.229 27.2059 L430.723 27.2059 L430.723 34.2544 Q433.073 30.1225 436.84 28.1376 Q440.607 26.1121 445.995 26.1121 Q446.765 26.1121 447.696 26.2337 Q448.628 26.3147 449.762 26.5172 L449.803 34.1734 Z" fill="#000000" fill-rule="evenodd" fill-opacity="1" /><path clip-path="url(#clip360)" d="M494.606 48.0275 L494.606 51.6733 L460.335 51.6733 Q460.821 59.3701 464.953 63.421 Q469.126 67.4314 476.539 67.4314 Q480.833 67.4314 484.843 66.3781 Q488.894 65.3249 492.864 63.2184 L492.864 70.267 Q488.854 71.9684 484.641 72.8596 Q480.428 73.7508 476.093 73.7508 Q465.237 73.7508 458.877 67.4314 Q452.558 61.1119 452.558 50.3365 Q452.558 39.1965 458.553 32.6746 Q464.589 26.1121 474.797 26.1121 Q483.952 26.1121 489.259 32.0264 Q494.606 37.9003 494.606 48.0275 M487.152 45.84 Q487.071 39.7232 483.709 36.0774 Q480.387 32.4315 474.878 32.4315 Q468.64 32.4315 464.872 35.9558 Q461.145 39.4801 460.578 45.8805 L487.152 45.84 Z" fill="#000000" fill-rule="evenodd" fill-opacity="1" /><path clip-path="url(#clip360)" d="M527.459 49.7694 Q518.425 49.7694 514.941 51.8354 Q511.458 53.9013 511.458 58.8839 Q511.458 62.8538 514.05 65.2034 Q516.683 67.5124 521.18 67.5124 Q527.378 67.5124 531.105 63.1374 Q534.872 58.7219 534.872 51.4303 L534.872 49.7694 L527.459 49.7694 M542.326 46.6907 L542.326 72.576 L534.872 72.576 L534.872 65.6895 Q532.32 69.8214 528.512 71.8063 Q524.704 73.7508 519.195 73.7508 Q512.227 73.7508 508.095 69.8619 Q504.004 65.9325 504.004 59.3701 Q504.004 51.7138 509.108 47.825 Q514.253 43.9361 524.421 43.9361 L534.872 43.9361 L534.872 43.2069 Q534.872 38.0623 531.469 35.2672 Q528.107 32.4315 521.99 32.4315 Q518.101 32.4315 514.415 33.3632 Q510.729 34.295 507.326 36.1584 L507.326 29.2718 Q511.417 27.692 515.266 26.9223 Q519.114 26.1121 522.76 26.1121 Q532.603 26.1121 537.464 31.2163 Q542.326 36.3204 542.326 46.6907 Z" fill="#000000" fill-rule="evenodd" fill-opacity="1" /><path clip-path="url(#clip360)" d="M619.374 35.9153 Q622.169 30.8922 626.058 28.5022 Q629.947 26.1121 635.213 26.1121 Q642.302 26.1121 646.15 31.0947 Q649.999 36.0368 649.999 45.1919 L649.999 72.576 L642.504 72.576 L642.504 45.4349 Q642.504 38.913 640.195 35.7533 Q637.886 32.5936 633.147 32.5936 Q627.354 32.5936 623.992 36.4419 Q620.63 40.2903 620.63 46.9338 L620.63 72.576 L613.135 72.576 L613.135 45.4349 Q613.135 38.8725 610.826 35.7533 Q608.517 32.5936 603.697 32.5936 Q597.985 32.5936 594.623 36.4824 Q591.26 40.3308 591.26 46.9338 L591.26 72.576 L583.766 72.576 L583.766 27.2059 L591.26 27.2059 L591.26 34.2544 Q593.813 30.082 597.377 28.0971 Q600.942 26.1121 605.844 26.1121 Q610.786 26.1121 614.229 28.6237 Q617.713 31.1352 619.374 35.9153 Z" fill="#000000" fill-rule="evenodd" fill-opacity="1" /><path clip-path="url(#clip360)" d="M682.446 32.4315 Q676.451 32.4315 672.967 37.1306 Q669.483 41.7891 669.483 49.9314 Q669.483 58.0738 672.927 62.7728 Q676.41 67.4314 682.446 67.4314 Q688.401 67.4314 691.885 62.7323 Q695.369 58.0333 695.369 49.9314 Q695.369 41.8701 691.885 37.1711 Q688.401 32.4315 682.446 32.4315 M682.446 26.1121 Q692.169 26.1121 697.718 32.4315 Q703.268 38.7509 703.268 49.9314 Q703.268 61.0714 697.718 67.4314 Q692.169 73.7508 682.446 73.7508 Q672.684 73.7508 667.134 67.4314 Q661.625 61.0714 661.625 49.9314 Q661.625 38.7509 667.134 32.4315 Q672.684 26.1121 682.446 26.1121 Z" fill="#000000" fill-rule="evenodd" fill-opacity="1" /><path clip-path="url(#clip360)" d="M750.947 35.9153 Q753.742 30.8922 757.631 28.5022 Q761.52 26.1121 766.786 26.1121 Q773.875 26.1121 777.724 31.0947 Q781.572 36.0368 781.572 45.1919 L781.572 72.576 L774.078 72.576 L774.078 45.4349 Q774.078 38.913 771.769 35.7533 Q769.46 32.5936 764.72 32.5936 Q758.927 32.5936 755.565 36.4419 Q752.203 40.2903 752.203 46.9338 L752.203 72.576 L744.709 72.576 L744.709 45.4349 Q744.709 38.8725 742.4 35.7533 Q740.091 32.5936 735.27 32.5936 Q729.558 32.5936 726.196 36.4824 Q722.834 40.3308 722.834 46.9338 L722.834 72.576 L715.34 72.576 L715.34 27.2059 L722.834 27.2059 L722.834 34.2544 Q725.386 30.082 728.951 28.0971 Q732.516 26.1121 737.417 26.1121 Q742.359 26.1121 745.802 28.6237 Q749.286 31.1352 750.947 35.9153 Z" fill="#000000" fill-rule="evenodd" fill-opacity="1" /><path clip-path="url(#clip360)" d="M835.246 48.0275 L835.246 51.6733 L800.976 51.6733 Q801.462 59.3701 805.594 63.421 Q809.766 67.4314 817.179 67.4314 Q821.473 67.4314 825.484 66.3781 Q829.535 65.3249 833.505 63.2184 L833.505 70.267 Q829.494 71.9684 825.281 72.8596 Q821.068 73.7508 816.734 73.7508 Q805.877 73.7508 799.517 67.4314 Q793.198 61.1119 793.198 50.3365 Q793.198 39.1965 799.193 32.6746 Q805.229 26.1121 815.438 26.1121 Q824.593 26.1121 829.899 32.0264 Q835.246 37.9003 835.246 48.0275 M827.793 45.84 Q827.712 39.7232 824.35 36.0774 Q821.028 32.4315 815.519 32.4315 Q809.28 32.4315 805.513 35.9558 Q801.786 39.4801 801.219 45.8805 L827.793 45.84 Z" fill="#000000" fill-rule="evenodd" fill-opacity="1" /><path clip-path="url(#clip360)" d="M885.194 45.1919 L885.194 72.576 L877.74 72.576 L877.74 45.4349 Q877.74 38.994 875.229 35.7938 Q872.717 32.5936 867.694 32.5936 Q861.658 32.5936 858.175 36.4419 Q854.691 40.2903 854.691 46.9338 L854.691 72.576 L847.197 72.576 L847.197 27.2059 L854.691 27.2059 L854.691 34.2544 Q857.364 30.163 860.97 28.1376 Q864.616 26.1121 869.355 26.1121 Q877.173 26.1121 881.184 30.9732 Q885.194 35.7938 885.194 45.1919 Z" fill="#000000" fill-rule="evenodd" fill-opacity="1" /><path clip-path="url(#clip360)" d="M907.434 14.324 L907.434 27.2059 L922.786 27.2059 L922.786 32.9987 L907.434 32.9987 L907.434 57.6282 Q907.434 63.1779 908.932 64.7578 Q910.472 66.3376 915.13 66.3376 L922.786 66.3376 L922.786 72.576 L915.13 72.576 Q906.502 72.576 903.221 69.3758 Q899.939 66.1351 899.939 57.6282 L899.939 32.9987 L894.471 32.9987 L894.471 27.2059 L899.939 27.2059 L899.939 14.324 L907.434 14.324 Z" fill="#000000" fill-rule="evenodd" fill-opacity="1" /><path clip-path="url(#clip360)" d="M976.542 32.4315 Q970.547 32.4315 967.063 37.1306 Q963.579 41.7891 963.579 49.9314 Q963.579 58.0738 967.022 62.7728 Q970.506 67.4314 976.542 67.4314 Q982.497 67.4314 985.981 62.7323 Q989.464 58.0333 989.464 49.9314 Q989.464 41.8701 985.981 37.1711 Q982.497 32.4315 976.542 32.4315 M976.542 26.1121 Q986.264 26.1121 991.814 32.4315 Q997.364 38.7509 997.364 49.9314 Q997.364 61.0714 991.814 67.4314 Q986.264 73.7508 976.542 73.7508 Q966.779 73.7508 961.23 67.4314 Q955.72 61.0714 955.72 49.9314 Q955.72 38.7509 961.23 32.4315 Q966.779 26.1121 976.542 26.1121 Z" fill="#000000" fill-rule="evenodd" fill-opacity="1" /><path clip-path="url(#clip360)" d="M1032.69 9.54393 L1032.69 15.7418 L1025.56 15.7418 Q1021.55 15.7418 1019.97 17.3622 Q1018.43 18.9825 1018.43 23.1955 L1018.43 27.2059 L1030.7 27.2059 L1030.7 32.9987 L1018.43 32.9987 L1018.43 72.576 L1010.93 72.576 L1010.93 32.9987 L1003.8 32.9987 L1003.8 27.2059 L1010.93 27.2059 L1010.93 24.0462 Q1010.93 16.471 1014.46 13.0277 Q1017.98 9.54393 1025.64 9.54393 L1032.69 9.54393 Z" fill="#000000" fill-rule="evenodd" fill-opacity="1" /><path clip-path="url(#clip360)" d="M1065.3 27.2059 L1072.75 27.2059 L1072.75 72.576 L1065.3 72.576 L1065.3 27.2059 M1065.3 9.54393 L1072.75 9.54393 L1072.75 18.9825 L1065.3 18.9825 L1065.3 9.54393 Z" fill="#000000" fill-rule="evenodd" fill-opacity="1" /><path clip-path="url(#clip360)" d="M1126.06 45.1919 L1126.06 72.576 L1118.61 72.576 L1118.61 45.4349 Q1118.61 38.994 1116.1 35.7938 Q1113.58 32.5936 1108.56 32.5936 Q1102.53 32.5936 1099.04 36.4419 Q1095.56 40.2903 1095.56 46.9338 L1095.56 72.576 L1088.06 72.576 L1088.06 27.2059 L1095.56 27.2059 L1095.56 34.2544 Q1098.23 30.163 1101.84 28.1376 Q1105.48 26.1121 1110.22 26.1121 Q1118.04 26.1121 1122.05 30.9732 Q1126.06 35.7938 1126.06 45.1919 Z" fill="#000000" fill-rule="evenodd" fill-opacity="1" /><path clip-path="url(#clip360)" d="M1179.74 48.0275 L1179.74 51.6733 L1145.46 51.6733 Q1145.95 59.3701 1150.08 63.421 Q1154.26 67.4314 1161.67 67.4314 Q1165.96 67.4314 1169.97 66.3781 Q1174.02 65.3249 1177.99 63.2184 L1177.99 70.267 Q1173.98 71.9684 1169.77 72.8596 Q1165.56 73.7508 1161.22 73.7508 Q1150.37 73.7508 1144.01 67.4314 Q1137.69 61.1119 1137.69 50.3365 Q1137.69 39.1965 1143.68 32.6746 Q1149.72 26.1121 1159.93 26.1121 Q1169.08 26.1121 1174.39 32.0264 Q1179.74 37.9003 1179.74 48.0275 M1172.28 45.84 Q1172.2 39.7232 1168.84 36.0774 Q1165.52 32.4315 1160.01 32.4315 Q1153.77 32.4315 1150 35.9558 Q1146.27 39.4801 1145.71 45.8805 L1172.28 45.84 Z" fill="#000000" fill-rule="evenodd" fill-opacity="1" /><path clip-path="url(#clip360)" d="M1218.26 34.1734 Q1217 33.4443 1215.5 33.1202 Q1214.05 32.7556 1212.26 32.7556 Q1205.94 32.7556 1202.54 36.8875 Q1199.18 40.9789 1199.18 48.6757 L1199.18 72.576 L1191.69 72.576 L1191.69 27.2059 L1199.18 27.2059 L1199.18 34.2544 Q1201.53 30.1225 1205.3 28.1376 Q1209.06 26.1121 1214.45 26.1121 Q1215.22 26.1121 1216.15 26.2337 Q1217.08 26.3147 1218.22 26.5172 L1218.26 34.1734 Z" fill="#000000" fill-rule="evenodd" fill-opacity="1" /><path clip-path="url(#clip360)" d="M1233.45 14.324 L1233.45 27.2059 L1248.8 27.2059 L1248.8 32.9987 L1233.45 32.9987 L1233.45 57.6282 Q1233.45 63.1779 1234.95 64.7578 Q1236.49 66.3376 1241.15 66.3376 L1248.8 66.3376 L1248.8 72.576 L1241.15 72.576 Q1232.52 72.576 1229.24 69.3758 Q1225.96 66.1351 1225.96 57.6282 L1225.96 32.9987 L1220.49 32.9987 L1220.49 27.2059 L1225.96 27.2059 L1225.96 14.324 L1233.45 14.324 Z" fill="#000000" fill-rule="evenodd" fill-opacity="1" /><path clip-path="url(#clip360)" d="M1258.61 27.2059 L1266.06 27.2059 L1266.06 72.576 L1258.61 72.576 L1258.61 27.2059 M1258.61 9.54393 L1266.06 9.54393 L1266.06 18.9825 L1258.61 18.9825 L1258.61 9.54393 Z" fill="#000000" fill-rule="evenodd" fill-opacity="1" /><path clip-path="url(#clip360)" d="M1302.28 49.7694 Q1293.24 49.7694 1289.76 51.8354 Q1286.27 53.9013 1286.27 58.8839 Q1286.27 62.8538 1288.87 65.2034 Q1291.5 67.5124 1296 67.5124 Q1302.19 67.5124 1305.92 63.1374 Q1309.69 58.7219 1309.69 51.4303 L1309.69 49.7694 L1302.28 49.7694 M1317.14 46.6907 L1317.14 72.576 L1309.69 72.576 L1309.69 65.6895 Q1307.14 69.8214 1303.33 71.8063 Q1299.52 73.7508 1294.01 73.7508 Q1287.04 73.7508 1282.91 69.8619 Q1278.82 65.9325 1278.82 59.3701 Q1278.82 51.7138 1283.92 47.825 Q1289.07 43.9361 1299.24 43.9361 L1309.69 43.9361 L1309.69 43.2069 Q1309.69 38.0623 1306.29 35.2672 Q1302.92 32.4315 1296.81 32.4315 Q1292.92 32.4315 1289.23 33.3632 Q1285.54 34.295 1282.14 36.1584 L1282.14 29.2718 Q1286.23 27.692 1290.08 26.9223 Q1293.93 26.1121 1297.58 26.1121 Q1307.42 26.1121 1312.28 31.2163 Q1317.14 36.3204 1317.14 46.6907 Z" fill="#000000" fill-rule="evenodd" fill-opacity="1" /><path clip-path="url(#clip360)" d="M1397.67 48.0275 L1397.67 51.6733 L1363.4 51.6733 Q1363.89 59.3701 1368.02 63.421 Q1372.19 67.4314 1379.61 67.4314 Q1383.9 67.4314 1387.91 66.3781 Q1391.96 65.3249 1395.93 63.2184 L1395.93 70.267 Q1391.92 71.9684 1387.71 72.8596 Q1383.5 73.7508 1379.16 73.7508 Q1368.3 73.7508 1361.95 67.4314 Q1355.63 61.1119 1355.63 50.3365 Q1355.63 39.1965 1361.62 32.6746 Q1367.66 26.1121 1377.87 26.1121 Q1387.02 26.1121 1392.33 32.0264 Q1397.67 37.9003 1397.67 48.0275 M1390.22 45.84 Q1390.14 39.7232 1386.78 36.0774 Q1383.46 32.4315 1377.95 32.4315 Q1371.71 32.4315 1367.94 35.9558 Q1364.21 39.4801 1363.65 45.8805 L1390.22 45.84 Z" fill="#000000" fill-rule="evenodd" fill-opacity="1" /><path clip-path="url(#clip360)" d="M1432.88 9.54393 L1432.88 15.7418 L1425.75 15.7418 Q1421.74 15.7418 1420.16 17.3622 Q1418.62 18.9825 1418.62 23.1955 L1418.62 27.2059 L1430.89 27.2059 L1430.89 32.9987 L1418.62 32.9987 L1418.62 72.576 L1411.12 72.576 L1411.12 32.9987 L1403.99 32.9987 L1403.99 27.2059 L1411.12 27.2059 L1411.12 24.0462 Q1411.12 16.471 1414.65 13.0277 Q1418.17 9.54393 1425.83 9.54393 L1432.88 9.54393 Z" fill="#000000" fill-rule="evenodd" fill-opacity="1" /><path clip-path="url(#clip360)" d="M1462.08 9.54393 L1462.08 15.7418 L1454.95 15.7418 Q1450.94 15.7418 1449.36 17.3622 Q1447.82 18.9825 1447.82 23.1955 L1447.82 27.2059 L1460.1 27.2059 L1460.1 32.9987 L1447.82 32.9987 L1447.82 72.576 L1440.33 72.576 L1440.33 32.9987 L1433.2 32.9987 L1433.2 27.2059 L1440.33 27.2059 L1440.33 24.0462 Q1440.33 16.471 1443.85 13.0277 Q1447.38 9.54393 1455.03 9.54393 L1462.08 9.54393 Z" fill="#000000" fill-rule="evenodd" fill-opacity="1" /><path clip-path="url(#clip360)" d="M1507.13 48.0275 L1507.13 51.6733 L1472.86 51.6733 Q1473.34 59.3701 1477.48 63.421 Q1481.65 67.4314 1489.06 67.4314 Q1493.36 67.4314 1497.37 66.3781 Q1501.42 65.3249 1505.39 63.2184 L1505.39 70.267 Q1501.38 71.9684 1497.16 72.8596 Q1492.95 73.7508 1488.62 73.7508 Q1477.76 73.7508 1471.4 67.4314 Q1465.08 61.1119 1465.08 50.3365 Q1465.08 39.1965 1471.08 32.6746 Q1477.11 26.1121 1487.32 26.1121 Q1496.48 26.1121 1501.78 32.0264 Q1507.13 37.9003 1507.13 48.0275 M1499.68 45.84 Q1499.59 39.7232 1496.23 36.0774 Q1492.91 32.4315 1487.4 32.4315 Q1481.16 32.4315 1477.4 35.9558 Q1473.67 39.4801 1473.1 45.8805 L1499.68 45.84 Z" fill="#000000" fill-rule="evenodd" fill-opacity="1" /><path clip-path="url(#clip360)" d="M1552.01 28.9478 L1552.01 35.9153 Q1548.85 34.1734 1545.65 33.3227 Q1542.49 32.4315 1539.25 32.4315 Q1532 32.4315 1527.99 37.0496 Q1523.98 41.6271 1523.98 49.9314 Q1523.98 58.2358 1527.99 62.8538 Q1532 67.4314 1539.25 67.4314 Q1542.49 67.4314 1545.65 66.5807 Q1548.85 65.6895 1552.01 63.9476 L1552.01 70.8341 Q1548.89 72.2924 1545.53 73.0216 Q1542.21 73.7508 1538.44 73.7508 Q1528.19 73.7508 1522.16 67.3098 Q1516.12 60.8689 1516.12 49.9314 Q1516.12 38.832 1522.2 32.472 Q1528.32 26.1121 1538.93 26.1121 Q1542.37 26.1121 1545.65 26.8413 Q1548.93 27.5299 1552.01 28.9478 Z" fill="#000000" fill-rule="evenodd" fill-opacity="1" /><path clip-path="url(#clip360)" d="M1572.35 14.324 L1572.35 27.2059 L1587.7 27.2059 L1587.7 32.9987 L1572.35 32.9987 L1572.35 57.6282 Q1572.35 63.1779 1573.85 64.7578 Q1575.39 66.3376 1580.05 66.3376 L1587.7 66.3376 L1587.7 72.576 L1580.05 72.576 Q1571.42 72.576 1568.14 69.3758 Q1564.85 66.1351 1564.85 57.6282 L1564.85 32.9987 L1559.39 32.9987 L1559.39 27.2059 L1564.85 27.2059 L1564.85 14.324 L1572.35 14.324 Z" fill="#000000" fill-rule="evenodd" fill-opacity="1" /><path clip-path="url(#clip360)" d="M1641.46 32.4315 Q1635.46 32.4315 1631.98 37.1306 Q1628.49 41.7891 1628.49 49.9314 Q1628.49 58.0738 1631.94 62.7728 Q1635.42 67.4314 1641.46 67.4314 Q1647.41 67.4314 1650.9 62.7323 Q1654.38 58.0333 1654.38 49.9314 Q1654.38 41.8701 1650.9 37.1711 Q1647.41 32.4315 1641.46 32.4315 M1641.46 26.1121 Q1651.18 26.1121 1656.73 32.4315 Q1662.28 38.7509 1662.28 49.9314 Q1662.28 61.0714 1656.73 67.4314 Q1651.18 73.7508 1641.46 73.7508 Q1631.69 73.7508 1626.14 67.4314 Q1620.64 61.0714 1620.64 49.9314 Q1620.64 38.7509 1626.14 32.4315 Q1631.69 26.1121 1641.46 26.1121 Z" fill="#000000" fill-rule="evenodd" fill-opacity="1" /><path clip-path="url(#clip360)" d="M1712.35 45.1919 L1712.35 72.576 L1704.89 72.576 L1704.89 45.4349 Q1704.89 38.994 1702.38 35.7938 Q1699.87 32.5936 1694.85 32.5936 Q1688.81 32.5936 1685.33 36.4419 Q1681.84 40.2903 1681.84 46.9338 L1681.84 72.576 L1674.35 72.576 L1674.35 27.2059 L1681.84 27.2059 L1681.84 34.2544 Q1684.52 30.163 1688.12 28.1376 Q1691.77 26.1121 1696.51 26.1121 Q1704.33 26.1121 1708.34 30.9732 Q1712.35 35.7938 1712.35 45.1919 Z" fill="#000000" fill-rule="evenodd" fill-opacity="1" /><path clip-path="url(#clip360)" d="M1753.59 9.54393 L1761.04 9.54393 L1761.04 72.576 L1753.59 72.576 L1753.59 9.54393 Z" fill="#000000" fill-rule="evenodd" fill-opacity="1" /><path clip-path="url(#clip360)" d="M1797.26 49.7694 Q1788.22 49.7694 1784.74 51.8354 Q1781.25 53.9013 1781.25 58.8839 Q1781.25 62.8538 1783.85 65.2034 Q1786.48 67.5124 1790.98 67.5124 Q1797.17 67.5124 1800.9 63.1374 Q1804.67 58.7219 1804.67 51.4303 L1804.67 49.7694 L1797.26 49.7694 M1812.12 46.6907 L1812.12 72.576 L1804.67 72.576 L1804.67 65.6895 Q1802.12 69.8214 1798.31 71.8063 Q1794.5 73.7508 1788.99 73.7508 Q1782.02 73.7508 1777.89 69.8619 Q1773.8 65.9325 1773.8 59.3701 Q1773.8 51.7138 1778.9 47.825 Q1784.05 43.9361 1794.22 43.9361 L1804.67 43.9361 L1804.67 43.2069 Q1804.67 38.0623 1801.27 35.2672 Q1797.9 32.4315 1791.79 32.4315 Q1787.9 32.4315 1784.21 33.3632 Q1780.52 34.295 1777.12 36.1584 L1777.12 29.2718 Q1781.21 27.692 1785.06 26.9223 Q1788.91 26.1121 1792.56 26.1121 Q1802.4 26.1121 1807.26 31.2163 Q1812.12 36.3204 1812.12 46.6907 Z" fill="#000000" fill-rule="evenodd" fill-opacity="1" /><path clip-path="url(#clip360)" d="M1856.4 28.5427 L1856.4 35.5912 Q1853.24 33.9709 1849.84 33.1607 Q1846.43 32.3505 1842.79 32.3505 Q1837.24 32.3505 1834.44 34.0519 Q1831.69 35.7533 1831.69 39.156 Q1831.69 41.7486 1833.67 43.2475 Q1835.66 44.7058 1841.65 46.0426 L1844.21 46.6097 Q1852.14 48.3111 1855.47 51.4303 Q1858.83 54.509 1858.83 60.0587 Q1858.83 66.3781 1853.81 70.0644 Q1848.82 73.7508 1840.07 73.7508 Q1836.43 73.7508 1832.46 73.0216 Q1828.53 72.3329 1824.15 70.9151 L1824.15 63.2184 Q1828.29 65.3654 1832.3 66.4591 Q1836.31 67.5124 1840.24 67.5124 Q1845.5 67.5124 1848.34 65.73 Q1851.17 63.9071 1851.17 60.6258 Q1851.17 57.5877 1849.11 55.9673 Q1847.08 54.3469 1840.15 52.8481 L1837.56 52.2405 Q1830.63 50.7821 1827.56 47.7845 Q1824.48 44.7463 1824.48 39.4801 Q1824.48 33.0797 1829.01 29.5959 Q1833.55 26.1121 1841.9 26.1121 Q1846.03 26.1121 1849.67 26.7198 Q1853.32 27.3274 1856.4 28.5427 Z" fill="#000000" fill-rule="evenodd" fill-opacity="1" /><path clip-path="url(#clip360)" d="M1878.07 14.324 L1878.07 27.2059 L1893.42 27.2059 L1893.42 32.9987 L1878.07 32.9987 L1878.07 57.6282 Q1878.07 63.1779 1879.57 64.7578 Q1881.11 66.3376 1885.77 66.3376 L1893.42 66.3376 L1893.42 72.576 L1885.77 72.576 Q1877.14 72.576 1873.86 69.3758 Q1870.58 66.1351 1870.58 57.6282 L1870.58 32.9987 L1865.11 32.9987 L1865.11 27.2059 L1870.58 27.2059 L1870.58 14.324 L1878.07 14.324 Z" fill="#000000" fill-rule="evenodd" fill-opacity="1" /><path clip-path="url(#clip360)" d="M1962.17 49.9314 Q1962.17 41.7081 1958.76 37.0496 Q1955.4 32.3505 1949.49 32.3505 Q1943.57 32.3505 1940.17 37.0496 Q1936.81 41.7081 1936.81 49.9314 Q1936.81 58.1548 1940.17 62.8538 Q1943.57 67.5124 1949.49 67.5124 Q1955.4 67.5124 1958.76 62.8538 Q1962.17 58.1548 1962.17 49.9314 M1936.81 34.0924 Q1939.16 30.0415 1942.72 28.0971 Q1946.33 26.1121 1951.31 26.1121 Q1959.57 26.1121 1964.72 32.6746 Q1969.9 39.2371 1969.9 49.9314 Q1969.9 60.6258 1964.72 67.1883 Q1959.57 73.7508 1951.31 73.7508 Q1946.33 73.7508 1942.72 71.8063 Q1939.16 69.8214 1936.81 65.7705 L1936.81 72.576 L1929.31 72.576 L1929.31 9.54393 L1936.81 9.54393 L1936.81 34.0924 Z" fill="#000000" fill-rule="evenodd" fill-opacity="1" /><path clip-path="url(#clip360)" d="M2021.07 48.0275 L2021.07 51.6733 L1986.8 51.6733 Q1987.28 59.3701 1991.42 63.421 Q1995.59 67.4314 2003 67.4314 Q2007.29 67.4314 2011.3 66.3781 Q2015.36 65.3249 2019.33 63.2184 L2019.33 70.267 Q2015.32 71.9684 2011.1 72.8596 Q2006.89 73.7508 2002.56 73.7508 Q1991.7 73.7508 1985.34 67.4314 Q1979.02 61.1119 1979.02 50.3365 Q1979.02 39.1965 1985.01 32.6746 Q1991.05 26.1121 2001.26 26.1121 Q2010.41 26.1121 2015.72 32.0264 Q2021.07 37.9003 2021.07 48.0275 M2013.61 45.84 Q2013.53 39.7232 2010.17 36.0774 Q2006.85 32.4315 2001.34 32.4315 Q1995.1 32.4315 1991.33 35.9558 Q1987.61 39.4801 1987.04 45.8805 L2013.61 45.84 Z" fill="#000000" fill-rule="evenodd" fill-opacity="1" /><path clip-path="url(#clip360)" d="M2053.92 49.7694 Q2044.89 49.7694 2041.4 51.8354 Q2037.92 53.9013 2037.92 58.8839 Q2037.92 62.8538 2040.51 65.2034 Q2043.15 67.5124 2047.64 67.5124 Q2053.84 67.5124 2057.57 63.1374 Q2061.33 58.7219 2061.33 51.4303 L2061.33 49.7694 L2053.92 49.7694 M2068.79 46.6907 L2068.79 72.576 L2061.33 72.576 L2061.33 65.6895 Q2058.78 69.8214 2054.97 71.8063 Q2051.17 73.7508 2045.66 73.7508 Q2038.69 73.7508 2034.56 69.8619 Q2030.47 65.9325 2030.47 59.3701 Q2030.47 51.7138 2035.57 47.825 Q2040.71 43.9361 2050.88 43.9361 L2061.33 43.9361 L2061.33 43.2069 Q2061.33 38.0623 2057.93 35.2672 Q2054.57 32.4315 2048.45 32.4315 Q2044.56 32.4315 2040.88 33.3632 Q2037.19 34.295 2033.79 36.1584 L2033.79 29.2718 Q2037.88 27.692 2041.73 26.9223 Q2045.58 26.1121 2049.22 26.1121 Q2059.07 26.1121 2063.93 31.2163 Q2068.79 36.3204 2068.79 46.6907 Z" fill="#000000" fill-rule="evenodd" fill-opacity="1" /><path clip-path="url(#clip360)" d="M2119.46 35.9153 Q2122.26 30.8922 2126.15 28.5022 Q2130.04 26.1121 2135.3 26.1121 Q2142.39 26.1121 2146.24 31.0947 Q2150.09 36.0368 2150.09 45.1919 L2150.09 72.576 L2142.59 72.576 L2142.59 45.4349 Q2142.59 38.913 2140.29 35.7533 Q2137.98 32.5936 2133.24 32.5936 Q2127.44 32.5936 2124.08 36.4419 Q2120.72 40.2903 2120.72 46.9338 L2120.72 72.576 L2113.23 72.576 L2113.23 45.4349 Q2113.23 38.8725 2110.92 35.7533 Q2108.61 32.5936 2103.79 32.5936 Q2098.08 32.5936 2094.71 36.4824 Q2091.35 40.3308 2091.35 46.9338 L2091.35 72.576 L2083.86 72.576 L2083.86 27.2059 L2091.35 27.2059 L2091.35 34.2544 Q2093.9 30.082 2097.47 28.0971 Q2101.03 26.1121 2105.93 26.1121 Q2110.88 26.1121 2114.32 28.6237 Q2117.8 31.1352 2119.46 35.9153 Z" fill="#000000" fill-rule="evenodd" fill-opacity="1" /><polyline clip-path="url(#clip362)" style="stroke:#ff0000; stroke-linecap:butt; stroke-linejoin:round; stroke-width:8; stroke-opacity:1; fill:none" points="
  1967.91,162.047 1958.9,169.222 1949.96,176.376 1941.08,183.508 1932.28,190.619 1923.53,197.709 1914.85,204.779 1906.24,211.827 1897.69,218.856 1889.2,225.864 
  1880.78,232.853 1872.41,239.822 1864.11,246.771 1855.87,253.701 1847.69,260.612 1839.56,267.505 1831.49,274.379 1823.49,281.234 1815.53,288.072 1807.64,294.891 
  1799.8,301.693 1792.01,308.477 1784.28,315.244 1776.6,321.995 1768.97,328.728 1761.4,335.445 1753.87,342.145 1746.4,348.829 1738.98,355.498 1731.6,362.15 
  1724.28,368.787 1717,375.409 1709.77,382.016 1702.58,388.608 1695.44,395.185 1688.35,401.748 1681.3,408.297 1674.29,414.832 1667.33,421.353 1660.41,427.861 
  1653.53,434.355 1646.69,440.837 1639.89,447.305 1633.13,453.761 1626.41,460.204 1619.73,466.636 1613.09,473.055 1606.48,479.462 1599.91,485.858 1593.37,492.243 
  1586.87,498.617 1580.4,504.979 1573.97,511.331 1567.57,517.673 1561.2,524.005 1554.86,530.326 1548.55,536.638 1542.28,542.94 1536.03,549.233 1529.81,555.516 
  1523.62,561.791 1517.45,568.057 1511.31,574.315 1505.2,580.564 1499.11,586.805 1493.05,593.039 1487.01,599.265 1480.99,605.484 1475,611.695 1469.02,617.9 
  1463.07,624.098 1457.14,630.289 1451.23,636.474 1445.34,642.654 1439.46,648.827 1433.6,654.995 1427.76,661.157 1421.94,667.314 1416.13,673.466 1410.34,679.614 
  1404.56,685.757 1398.79,691.895 1393.04,698.03 1387.29,704.161 1381.56,710.288 1375.84,716.412 1370.13,722.533 1364.43,728.65 1358.74,734.765 1353.06,740.877 
  1347.38,746.987 1341.71,753.095 1336.04,759.202 1330.39,765.306 1324.73,771.409 1319.08,777.511 1313.43,783.612 1307.79,789.712 1302.14,795.811 1296.5,801.91 
  1290.86,808.01 1285.21,814.109 1279.57,820.208 1273.92,826.308 1268.28,832.409 1262.62,838.511 1256.97,844.614 1251.31,850.718 1245.65,856.825 1239.97,862.933 
  1234.3,869.043 1228.61,875.155 1222.92,881.27 1217.22,887.387 1211.51,893.508 1205.79,899.632 1200.06,905.759 1194.32,911.89 1188.57,918.025 1182.8,924.163 
  1177.02,930.306 1171.22,936.454 1165.42,942.606 1159.59,948.763 1153.75,954.925 1147.89,961.093 1142.02,967.266 1136.13,973.446 1130.21,979.631 1124.28,985.822 
  1118.33,992.02 1112.36,998.225 1106.36,1004.44 1100.35,1010.65 1094.31,1016.88 1088.24,1023.11 1082.16,1029.36 1076.04,1035.61 1069.9,1041.86 1063.74,1048.13 
  1057.55,1054.4 1051.33,1060.69 1045.08,1066.98 1038.8,1073.28 1032.49,1079.59 1026.15,1085.92 1019.79,1092.25 1013.38,1098.59 1006.95,1104.94 1000.48,1111.3 
  993.981,1117.68 987.445,1124.06 980.874,1130.46 974.266,1136.87 967.622,1143.28 960.94,1149.72 954.22,1156.16 947.462,1162.61 940.663,1169.08 933.825,1175.56 
  926.946,1182.06 920.025,1188.57 913.062,1195.09 906.056,1201.62 899.006,1208.17 891.912,1214.73 884.773,1221.31 877.589,1227.9 870.358,1234.51 863.079,1241.13 
  855.754,1247.77 848.379,1254.42 840.956,1261.09 833.483,1267.77 825.959,1274.48 818.384,1281.19 810.757,1287.93 803.078,1294.68 795.346,1301.44 787.559,1308.23 
  779.718,1315.03 771.821,1321.85 763.869,1328.69 755.86,1335.54 747.794,1342.42 739.669,1349.31 731.486,1356.22 723.243,1363.15 714.94,1370.1 706.577,1377.07 
  698.152,1384.06 689.664,1391.06 681.114,1398.09 672.5,1405.14 663.822,1412.21 655.08,1419.3 646.271,1426.41 637.396,1433.54 628.455,1440.7 619.445,1447.87 
  
  "/>
<polyline clip-path="url(#clip362)" style="stroke:#008000; stroke-linecap:butt; stroke-linejoin:round; stroke-width:8; stroke-opacity:1; fill:none" points="
  1967.91,162.047 1958.9,169.222 1949.96,176.376 1941.08,183.508 1932.28,190.619 1923.53,197.709 1914.85,204.779 1906.24,211.827 1897.69,218.856 1889.2,225.864 
  1880.78,232.853 1872.41,239.822 1864.11,246.771 1855.87,253.701 1847.69,260.612 1839.56,267.505 1831.49,274.379 1823.49,281.234 1815.53,288.072 1807.64,294.891 
  1799.8,301.693 1792.01,308.477 1784.28,315.244 1776.6,321.995 1768.97,328.728 1761.4,335.445 1753.87,342.145 1746.4,348.829 1738.98,355.498 1731.6,362.15 
  1724.28,368.787 1717,375.409 1709.77,382.016 1702.58,388.608 1695.44,395.185 1688.35,401.748 1681.3,408.297 1674.29,414.832 1667.33,421.353 1660.41,427.861 
  1653.53,434.355 1646.69,440.837 1639.89,447.305 1633.13,453.761 1626.41,460.204 1619.73,466.636 1613.09,473.055 1606.48,479.462 1599.91,485.858 1593.37,492.243 
  1586.87,498.617 1580.4,504.979 1573.97,511.331 1567.57,517.673 1561.2,524.005 1554.86,530.326 1548.55,536.638 1542.28,542.94 1536.03,549.233 1529.81,555.516 
  1523.62,561.791 1517.45,568.057 1511.31,574.315 1505.2,580.564 1499.11,586.805 1493.05,593.039 1487.01,599.265 1480.99,605.484 1475,611.695 1469.02,617.9 
  1463.07,624.098 1457.14,630.289 1451.23,636.474 1445.34,642.654 1439.46,648.827 1433.6,654.995 1427.76,661.157 1421.94,667.314 1416.13,673.466 1410.34,679.614 
  1404.56,685.757 1398.79,691.895 1393.04,698.03 1387.29,704.161 1381.56,710.288 1375.84,716.412 1370.13,722.533 1364.43,728.65 1358.74,734.765 1353.06,740.877 
  1347.38,746.987 1341.71,753.095 1336.04,759.202 1330.39,765.306 1324.73,771.409 1319.08,777.511 1313.43,783.612 1307.79,789.712 1302.14,795.811 1296.5,801.91 
  1290.86,808.01 1285.21,814.109 1279.57,820.208 1273.92,826.308 1268.28,832.409 1262.62,838.511 1256.97,844.614 1251.31,850.718 1245.65,856.825 1239.97,862.933 
  1234.3,869.043 1228.61,875.155 1222.92,881.27 1217.22,887.387 1211.51,893.508 1205.79,899.632 1200.06,905.759 1194.32,911.89 1188.57,918.025 1182.8,924.163 
  1177.02,930.306 1171.22,936.454 1165.42,942.606 1159.59,948.763 1153.75,954.925 1147.89,961.093 1142.02,967.266 1136.13,973.446 1130.21,979.631 1124.28,985.822 
  1118.33,992.02 1112.36,998.225 1106.36,1004.44 1100.35,1010.65 1094.31,1016.88 1088.24,1023.11 1082.16,1029.36 1076.04,1035.61 1069.9,1041.86 1063.74,1048.13 
  1057.55,1054.4 1051.33,1060.69 1045.08,1066.98 1038.8,1073.28 1032.49,1079.59 1026.15,1085.92 1019.79,1092.25 1013.38,1098.59 1006.95,1104.94 1000.48,1111.3 
  993.981,1117.68 987.445,1124.06 980.874,1130.46 974.266,1136.87 967.622,1143.28 960.94,1149.72 954.22,1156.16 947.462,1162.61 940.663,1169.08 933.825,1175.56 
  926.946,1182.06 920.025,1188.57 913.062,1195.09 906.056,1201.62 899.006,1208.17 891.912,1214.73 884.773,1221.31 877.589,1227.9 870.358,1234.51 863.079,1241.13 
  855.754,1247.77 848.379,1254.42 840.956,1261.09 833.483,1267.77 825.959,1274.48 818.384,1281.19 810.757,1287.93 803.078,1294.68 795.346,1301.44 787.559,1308.23 
  779.718,1315.03 771.821,1321.85 763.869,1328.69 755.86,1335.54 747.794,1342.42 739.669,1349.31 731.486,1356.22 723.243,1363.15 714.94,1370.1 706.577,1377.07 
  698.152,1384.06 689.664,1391.06 681.114,1398.09 672.5,1405.14 663.822,1412.21 655.08,1419.3 646.271,1426.41 637.396,1433.54 628.455,1440.7 619.445,1447.87 
  
  "/>
<polyline clip-path="url(#clip362)" style="stroke:#0000ff; stroke-linecap:butt; stroke-linejoin:round; stroke-width:8; stroke-opacity:1; fill:none" points="
  1967.91,162.047 1958.9,169.222 1949.96,176.376 1941.08,183.508 1932.28,190.619 1923.53,197.709 1914.85,204.779 1906.24,211.827 1897.69,218.856 1889.2,225.864 
  1880.78,232.853 1872.41,239.822 1864.11,246.771 1855.87,253.701 1847.69,260.612 1839.56,267.505 1831.49,274.379 1823.49,281.234 1815.53,288.072 1807.64,294.891 
  1799.8,301.693 1792.01,308.477 1784.28,315.244 1776.6,321.995 1768.97,328.728 1761.4,335.445 1753.87,342.145 1746.4,348.829 1738.98,355.498 1731.6,362.15 
  1724.28,368.787 1717,375.409 1709.77,382.016 1702.58,388.608 1695.44,395.185 1688.35,401.748 1681.3,408.297 1674.29,414.832 1667.33,421.353 1660.41,427.861 
  1653.53,434.355 1646.69,440.837 1639.89,447.305 1633.13,453.761 1626.41,460.204 1619.73,466.636 1613.09,473.055 1606.48,479.462 1599.91,485.858 1593.37,492.243 
  1586.87,498.617 1580.4,504.979 1573.97,511.331 1567.57,517.673 1561.2,524.005 1554.86,530.326 1548.55,536.638 1542.28,542.94 1536.03,549.233 1529.81,555.516 
  1523.62,561.791 1517.45,568.057 1511.31,574.315 1505.2,580.564 1499.11,586.805 1493.05,593.039 1487.01,599.265 1480.99,605.484 1475,611.695 1469.02,617.9 
  1463.07,624.098 1457.14,630.289 1451.23,636.474 1445.34,642.654 1439.46,648.827 1433.6,654.995 1427.76,661.157 1421.94,667.314 1416.13,673.466 1410.34,679.614 
  1404.56,685.757 1398.79,691.895 1393.04,698.03 1387.29,704.161 1381.56,710.288 1375.84,716.412 1370.13,722.533 1364.43,728.65 1358.74,734.765 1353.06,740.877 
  1347.38,746.987 1341.71,753.095 1336.04,759.202 1330.39,765.306 1324.73,771.409 1319.08,777.511 1313.43,783.612 1307.79,789.712 1302.14,795.811 1296.5,801.91 
  1290.86,808.01 1285.21,814.109 1279.57,820.208 1273.92,826.308 1268.28,832.409 1262.62,838.511 1256.97,844.614 1251.31,850.718 1245.65,856.825 1239.97,862.933 
  1234.3,869.043 1228.61,875.155 1222.92,881.27 1217.22,887.387 1211.51,893.508 1205.79,899.632 1200.06,905.759 1194.32,911.89 1188.57,918.025 1182.8,924.163 
  1177.02,930.306 1171.22,936.454 1165.42,942.606 1159.59,948.763 1153.75,954.925 1147.89,961.093 1142.02,967.266 1136.13,973.446 1130.21,979.631 1124.28,985.822 
  1118.33,992.02 1112.36,998.225 1106.36,1004.44 1100.35,1010.65 1094.31,1016.88 1088.24,1023.11 1082.16,1029.36 1076.04,1035.61 1069.9,1041.86 1063.74,1048.13 
  1057.55,1054.4 1051.33,1060.69 1045.08,1066.98 1038.8,1073.28 1032.49,1079.59 1026.15,1085.92 1019.79,1092.25 1013.38,1098.59 1006.95,1104.94 1000.48,1111.3 
  993.981,1117.68 987.445,1124.06 980.874,1130.46 974.266,1136.87 967.622,1143.28 960.94,1149.72 954.22,1156.16 947.462,1162.61 940.663,1169.08 933.825,1175.56 
  926.946,1182.06 920.025,1188.57 913.062,1195.09 906.056,1201.62 899.006,1208.17 891.912,1214.73 884.773,1221.31 877.589,1227.9 870.358,1234.51 863.079,1241.13 
  855.754,1247.77 848.379,1254.42 840.956,1261.09 833.483,1267.77 825.959,1274.48 818.384,1281.19 810.757,1287.93 803.078,1294.68 795.346,1301.44 787.559,1308.23 
  779.718,1315.03 771.821,1321.85 763.869,1328.69 755.86,1335.54 747.794,1342.42 739.669,1349.31 731.486,1356.22 723.243,1363.15 714.94,1370.1 706.577,1377.07 
  698.152,1384.06 689.664,1391.06 681.114,1398.09 672.5,1405.14 663.822,1412.21 655.08,1419.3 646.271,1426.41 637.396,1433.54 628.455,1440.7 619.445,1447.87 
  
  "/>
<polyline clip-path="url(#clip362)" style="stroke:#000000; stroke-linecap:butt; stroke-linejoin:round; stroke-width:8; stroke-opacity:1; fill:none" points="
  1967.91,162.047 1958.9,169.222 1949.96,176.376 1941.08,183.508 1932.28,190.619 1923.53,197.709 1914.85,204.779 1906.24,211.827 1897.69,218.856 1889.2,225.864 
  1880.78,232.853 1872.41,239.822 1864.11,246.771 1855.87,253.701 1847.69,260.612 1839.56,267.505 1831.49,274.379 1823.49,281.234 1815.53,288.072 1807.64,294.891 
  1799.8,301.693 1792.01,308.477 1784.28,315.244 1776.6,321.995 1768.97,328.728 1761.4,335.445 1753.87,342.145 1746.4,348.829 1738.98,355.498 1731.6,362.15 
  1724.28,368.787 1717,375.409 1709.77,382.016 1702.58,388.608 1695.44,395.185 1688.35,401.748 1681.3,408.297 1674.29,414.832 1667.33,421.353 1660.41,427.861 
  1653.53,434.355 1646.69,440.837 1639.89,447.305 1633.13,453.761 1626.41,460.204 1619.73,466.636 1613.09,473.055 1606.48,479.462 1599.91,485.858 1593.37,492.243 
  1586.87,498.617 1580.4,504.979 1573.97,511.331 1567.57,517.673 1561.2,524.005 1554.86,530.326 1548.55,536.638 1542.28,542.94 1536.03,549.233 1529.81,555.516 
  1523.62,561.791 1517.45,568.057 1511.31,574.315 1505.2,580.564 1499.11,586.805 1493.05,593.039 1487.01,599.265 1480.99,605.484 1475,611.695 1469.02,617.9 
  1463.07,624.098 1457.14,630.289 1451.23,636.474 1445.34,642.654 1439.46,648.827 1433.6,654.995 1427.76,661.157 1421.94,667.314 1416.13,673.466 1410.34,679.614 
  1404.56,685.757 1398.79,691.895 1393.04,698.03 1387.29,704.161 1381.56,710.288 1375.84,716.412 1370.13,722.533 1364.43,728.65 1358.74,734.765 1353.06,740.877 
  1347.38,746.987 1341.71,753.095 1336.04,759.202 1330.39,765.306 1324.73,771.409 1319.08,777.511 1313.43,783.612 1307.79,789.712 1302.14,795.811 1296.5,801.91 
  1290.86,808.01 1285.21,814.109 1279.57,820.208 1273.92,826.308 1268.28,832.409 1262.62,838.511 1256.97,844.614 1251.31,850.718 1245.65,856.825 1239.97,862.933 
  1234.3,869.043 1228.61,875.155 1222.92,881.27 1217.22,887.387 1211.51,893.508 1205.79,899.632 1200.06,905.759 1194.32,911.89 1188.57,918.025 1182.8,924.163 
  1177.02,930.306 1171.22,936.454 1165.42,942.606 1159.59,948.763 1153.75,954.925 1147.89,961.093 1142.02,967.266 1136.13,973.446 1130.21,979.631 1124.28,985.822 
  1118.33,992.02 1112.36,998.225 1106.36,1004.44 1100.35,1010.65 1094.31,1016.88 1088.24,1023.11 1082.16,1029.36 1076.04,1035.61 1069.9,1041.86 1063.74,1048.13 
  1057.55,1054.4 1051.33,1060.69 1045.08,1066.98 1038.8,1073.28 1032.49,1079.59 1026.15,1085.92 1019.79,1092.25 1013.38,1098.59 1006.95,1104.94 1000.48,1111.3 
  993.981,1117.68 987.445,1124.06 980.874,1130.46 974.266,1136.87 967.622,1143.28 960.94,1149.72 954.22,1156.16 947.462,1162.61 940.663,1169.08 933.825,1175.56 
  926.946,1182.06 920.025,1188.57 913.062,1195.09 906.056,1201.62 899.006,1208.17 891.912,1214.73 884.773,1221.31 877.589,1227.9 870.358,1234.51 863.079,1241.13 
  855.754,1247.77 848.379,1254.42 840.956,1261.09 833.483,1267.77 825.959,1274.48 818.384,1281.19 810.757,1287.93 803.078,1294.68 795.346,1301.44 787.559,1308.23 
  779.718,1315.03 771.821,1321.85 763.869,1328.69 755.86,1335.54 747.794,1342.42 739.669,1349.31 731.486,1356.22 723.243,1363.15 714.94,1370.1 706.577,1377.07 
  698.152,1384.06 689.664,1391.06 681.114,1398.09 672.5,1405.14 663.822,1412.21 655.08,1419.3 646.271,1426.41 637.396,1433.54 628.455,1440.7 619.445,1447.87 
  
  "/>
<polyline clip-path="url(#clip362)" style="stroke:#ffa500; stroke-linecap:butt; stroke-linejoin:round; stroke-width:8; stroke-opacity:1; fill:none" points="
  1967.91,162.047 1958.9,169.222 1949.96,176.376 1941.08,183.508 1932.28,190.619 1923.53,197.709 1914.85,204.779 1906.24,211.827 1897.69,218.856 1889.2,225.864 
  1880.78,232.853 1872.41,239.822 1864.11,246.771 1855.87,253.701 1847.69,260.612 1839.56,267.505 1831.49,274.379 1823.49,281.234 1815.53,288.072 1807.64,294.891 
  1799.8,301.693 1792.01,308.477 1784.28,315.244 1776.6,321.995 1768.97,328.728 1761.4,335.445 1753.87,342.145 1746.4,348.829 1738.98,355.498 1731.6,362.15 
  1724.28,368.787 1717,375.409 1709.77,382.016 1702.58,388.608 1695.44,395.185 1688.35,401.748 1681.3,408.297 1674.29,414.832 1667.33,421.353 1660.41,427.861 
  1653.53,434.355 1646.69,440.837 1639.89,447.305 1633.13,453.761 1626.41,460.204 1619.73,466.636 1613.09,473.055 1606.48,479.462 1599.91,485.858 1593.37,492.243 
  1586.87,498.617 1580.4,504.979 1573.97,511.331 1567.57,517.673 1561.2,524.005 1554.86,530.326 1548.55,536.638 1542.28,542.94 1536.03,549.233 1529.81,555.516 
  1523.62,561.791 1517.45,568.057 1511.31,574.315 1505.2,580.564 1499.11,586.805 1493.05,593.039 1487.01,599.265 1480.99,605.484 1475,611.695 1469.02,617.9 
  1463.07,624.098 1457.14,630.289 1451.23,636.474 1445.34,642.654 1439.46,648.827 1433.6,654.995 1427.76,661.157 1421.94,667.314 1416.13,673.466 1410.34,679.614 
  1404.56,685.757 1398.79,691.895 1393.04,698.03 1387.29,704.161 1381.56,710.288 1375.84,716.412 1370.13,722.533 1364.43,728.65 1358.74,734.765 1353.06,740.877 
  1347.38,746.987 1341.71,753.095 1336.04,759.202 1330.39,765.306 1324.73,771.409 1319.08,777.511 1313.43,783.612 1307.79,789.712 1302.14,795.811 1296.5,801.91 
  1290.86,808.01 1285.21,814.109 1279.57,820.208 1273.92,826.308 1268.28,832.409 1262.62,838.511 1256.97,844.614 1251.31,850.718 1245.65,856.825 1239.97,862.933 
  1234.3,869.043 1228.61,875.155 1222.92,881.27 1217.22,887.387 1211.51,893.508 1205.79,899.632 1200.06,905.759 1194.32,911.89 1188.57,918.025 1182.8,924.163 
  1177.02,930.306 1171.22,936.454 1165.42,942.606 1159.59,948.763 1153.75,954.925 1147.89,961.093 1142.02,967.266 1136.13,973.446 1130.21,979.631 1124.28,985.822 
  1118.33,992.02 1112.36,998.225 1106.36,1004.44 1100.35,1010.65 1094.31,1016.88 1088.24,1023.11 1082.16,1029.36 1076.04,1035.61 1069.9,1041.86 1063.74,1048.13 
  1057.55,1054.4 1051.33,1060.69 1045.08,1066.98 1038.8,1073.28 1032.49,1079.59 1026.15,1085.92 1019.79,1092.25 1013.38,1098.59 1006.95,1104.94 1000.48,1111.3 
  993.981,1117.68 987.445,1124.06 980.874,1130.46 974.266,1136.87 967.622,1143.28 960.94,1149.72 954.22,1156.16 947.462,1162.61 940.663,1169.08 933.825,1175.56 
  926.946,1182.06 920.025,1188.57 913.062,1195.09 906.056,1201.62 899.006,1208.17 891.912,1214.73 884.773,1221.31 877.589,1227.9 870.358,1234.51 863.079,1241.13 
  855.754,1247.77 848.379,1254.42 840.956,1261.09 833.483,1267.77 825.959,1274.48 818.384,1281.19 810.757,1287.93 803.078,1294.68 795.346,1301.44 787.559,1308.23 
  779.718,1315.03 771.821,1321.85 763.869,1328.69 755.86,1335.54 747.794,1342.42 739.669,1349.31 731.486,1356.22 723.243,1363.15 714.94,1370.1 706.577,1377.07 
  698.152,1384.06 689.664,1391.06 681.114,1398.09 672.5,1405.14 663.822,1412.21 655.08,1419.3 646.271,1426.41 637.396,1433.54 628.455,1440.7 619.445,1447.87 
  
  "/>
<path clip-path="url(#clip360)" d="
M230.117 479.945 L655.695 479.945 L655.695 168.905 L230.117 168.905  Z
  " fill="#ffffff" fill-rule="evenodd" fill-opacity="1"/>
<polyline clip-path="url(#clip360)" style="stroke:#000000; stroke-linecap:butt; stroke-linejoin:round; stroke-width:4; stroke-opacity:1; fill:none" points="
  230.117,479.945 655.695,479.945 655.695,168.905 230.117,168.905 230.117,479.945 
  "/>
<polyline clip-path="url(#clip360)" style="stroke:#ff0000; stroke-linecap:butt; stroke-linejoin:round; stroke-width:4; stroke-opacity:1; fill:none" points="
  254.515,220.745 400.904,220.745 
  "/>
<path clip-path="url(#clip360)" d="M425.302 203.465 L429.978 203.465 L429.978 238.025 L425.302 238.025 L425.302 203.465 Z" fill="#000000" fill-rule="evenodd" fill-opacity="1" /><path clip-path="url(#clip360)" d="M454.723 216.497 L484.399 216.497 L484.399 220.386 L454.723 220.386 L454.723 216.497 M454.723 225.941 L484.399 225.941 L484.399 229.877 L454.723 229.877 L454.723 225.941 Z" fill="#000000" fill-rule="evenodd" fill-opacity="1" /><path clip-path="url(#clip360)" d="M522.408 207.539 L510.602 225.988 L522.408 225.988 L522.408 207.539 M521.181 203.465 L527.061 203.465 L527.061 225.988 L531.991 225.988 L531.991 229.877 L527.061 229.877 L527.061 238.025 L522.408 238.025 L522.408 229.877 L506.806 229.877 L506.806 225.363 L521.181 203.465 Z" fill="#000000" fill-rule="evenodd" fill-opacity="1" /><path clip-path="url(#clip360)" d="M539.723 232.145 L544.607 232.145 L544.607 238.025 L539.723 238.025 L539.723 232.145 Z" fill="#000000" fill-rule="evenodd" fill-opacity="1" /><path clip-path="url(#clip360)" d="M564.792 206.543 Q561.181 206.543 559.352 210.108 Q557.547 213.65 557.547 220.779 Q557.547 227.886 559.352 231.451 Q561.181 234.992 564.792 234.992 Q568.426 234.992 570.232 231.451 Q572.06 227.886 572.06 220.779 Q572.06 213.65 570.232 210.108 Q568.426 206.543 564.792 206.543 M564.792 202.84 Q570.602 202.84 573.658 207.446 Q576.736 212.029 576.736 220.779 Q576.736 229.506 573.658 234.113 Q570.602 238.696 564.792 238.696 Q558.982 238.696 555.903 234.113 Q552.848 229.506 552.848 220.779 Q552.848 212.029 555.903 207.446 Q558.982 202.84 564.792 202.84 Z" fill="#000000" fill-rule="evenodd" fill-opacity="1" /><polyline clip-path="url(#clip360)" style="stroke:#008000; stroke-linecap:butt; stroke-linejoin:round; stroke-width:4; stroke-opacity:1; fill:none" points="
  254.515,272.585 400.904,272.585 
  "/>
<path clip-path="url(#clip360)" d="M425.302 255.305 L429.978 255.305 L429.978 289.865 L425.302 289.865 L425.302 255.305 Z" fill="#000000" fill-rule="evenodd" fill-opacity="1" /><path clip-path="url(#clip360)" d="M454.723 268.337 L484.399 268.337 L484.399 272.226 L454.723 272.226 L454.723 268.337 M454.723 277.781 L484.399 277.781 L484.399 281.717 L454.723 281.717 L454.723 277.781 Z" fill="#000000" fill-rule="evenodd" fill-opacity="1" /><path clip-path="url(#clip360)" d="M519.561 273.453 Q516.227 273.453 514.306 275.235 Q512.408 277.017 512.408 280.142 Q512.408 283.267 514.306 285.05 Q516.227 286.832 519.561 286.832 Q522.894 286.832 524.815 285.05 Q526.737 283.244 526.737 280.142 Q526.737 277.017 524.815 275.235 Q522.917 273.453 519.561 273.453 M514.885 271.462 Q511.876 270.721 510.186 268.661 Q508.519 266.601 508.519 263.638 Q508.519 259.494 511.459 257.087 Q514.422 254.68 519.561 254.68 Q524.723 254.68 527.663 257.087 Q530.602 259.494 530.602 263.638 Q530.602 266.601 528.913 268.661 Q527.246 270.721 524.26 271.462 Q527.639 272.249 529.514 274.541 Q531.413 276.832 531.413 280.142 Q531.413 285.166 528.334 287.851 Q525.278 290.536 519.561 290.536 Q513.843 290.536 510.764 287.851 Q507.709 285.166 507.709 280.142 Q507.709 276.832 509.607 274.541 Q511.505 272.249 514.885 271.462 M513.172 264.078 Q513.172 266.763 514.839 268.268 Q516.528 269.772 519.561 269.772 Q522.57 269.772 524.26 268.268 Q525.973 266.763 525.973 264.078 Q525.973 261.393 524.26 259.888 Q522.57 258.383 519.561 258.383 Q516.528 258.383 514.839 259.888 Q513.172 261.393 513.172 264.078 Z" fill="#000000" fill-rule="evenodd" fill-opacity="1" /><path clip-path="url(#clip360)" d="M539.723 283.985 L544.607 283.985 L544.607 289.865 L539.723 289.865 L539.723 283.985 Z" fill="#000000" fill-rule="evenodd" fill-opacity="1" /><path clip-path="url(#clip360)" d="M564.792 258.383 Q561.181 258.383 559.352 261.948 Q557.547 265.49 557.547 272.619 Q557.547 279.726 559.352 283.291 Q561.181 286.832 564.792 286.832 Q568.426 286.832 570.232 283.291 Q572.06 279.726 572.06 272.619 Q572.06 265.49 570.232 261.948 Q568.426 258.383 564.792 258.383 M564.792 254.68 Q570.602 254.68 573.658 259.286 Q576.736 263.869 576.736 272.619 Q576.736 281.346 573.658 285.953 Q570.602 290.536 564.792 290.536 Q558.982 290.536 555.903 285.953 Q552.848 281.346 552.848 272.619 Q552.848 263.869 555.903 259.286 Q558.982 254.68 564.792 254.68 Z" fill="#000000" fill-rule="evenodd" fill-opacity="1" /><polyline clip-path="url(#clip360)" style="stroke:#0000ff; stroke-linecap:butt; stroke-linejoin:round; stroke-width:4; stroke-opacity:1; fill:none" points="
  254.515,324.425 400.904,324.425 
  "/>
<path clip-path="url(#clip360)" d="M425.302 307.145 L429.978 307.145 L429.978 341.705 L425.302 341.705 L425.302 307.145 Z" fill="#000000" fill-rule="evenodd" fill-opacity="1" /><path clip-path="url(#clip360)" d="M454.723 320.177 L484.399 320.177 L484.399 324.066 L454.723 324.066 L454.723 320.177 M454.723 329.621 L484.399 329.621 L484.399 333.557 L454.723 333.557 L454.723 329.621 Z" fill="#000000" fill-rule="evenodd" fill-opacity="1" /><path clip-path="url(#clip360)" d="M510.371 337.769 L518.01 337.769 L518.01 311.404 L509.7 313.071 L509.7 308.811 L517.964 307.145 L522.639 307.145 L522.639 337.769 L530.278 337.769 L530.278 341.705 L510.371 341.705 L510.371 337.769 Z" fill="#000000" fill-rule="evenodd" fill-opacity="1" /><path clip-path="url(#clip360)" d="M543.75 337.769 L560.07 337.769 L560.07 341.705 L538.125 341.705 L538.125 337.769 Q540.787 335.015 545.371 330.385 Q549.977 325.733 551.158 324.39 Q553.403 321.867 554.283 320.131 Q555.186 318.371 555.186 316.682 Q555.186 313.927 553.241 312.191 Q551.32 310.455 548.218 310.455 Q546.019 310.455 543.565 311.219 Q541.135 311.983 538.357 313.534 L538.357 308.811 Q541.181 307.677 543.635 307.098 Q546.088 306.52 548.125 306.52 Q553.496 306.52 556.69 309.205 Q559.885 311.89 559.885 316.381 Q559.885 318.51 559.074 320.432 Q558.287 322.33 556.181 324.922 Q555.602 325.594 552.5 328.811 Q549.399 332.006 543.75 337.769 Z" fill="#000000" fill-rule="evenodd" fill-opacity="1" /><path clip-path="url(#clip360)" d="M569.885 335.825 L574.769 335.825 L574.769 341.705 L569.885 341.705 L569.885 335.825 Z" fill="#000000" fill-rule="evenodd" fill-opacity="1" /><path clip-path="url(#clip360)" d="M594.954 310.223 Q591.343 310.223 589.514 313.788 Q587.709 317.33 587.709 324.459 Q587.709 331.566 589.514 335.131 Q591.343 338.672 594.954 338.672 Q598.588 338.672 600.394 335.131 Q602.222 331.566 602.222 324.459 Q602.222 317.33 600.394 313.788 Q598.588 310.223 594.954 310.223 M594.954 306.52 Q600.764 306.52 603.82 311.126 Q606.898 315.709 606.898 324.459 Q606.898 333.186 603.82 337.793 Q600.764 342.376 594.954 342.376 Q589.144 342.376 586.065 337.793 Q583.009 333.186 583.009 324.459 Q583.009 315.709 586.065 311.126 Q589.144 306.52 594.954 306.52 Z" fill="#000000" fill-rule="evenodd" fill-opacity="1" /><polyline clip-path="url(#clip360)" style="stroke:#000000; stroke-linecap:butt; stroke-linejoin:round; stroke-width:4; stroke-opacity:1; fill:none" points="
  254.515,376.265 400.904,376.265 
  "/>
<path clip-path="url(#clip360)" d="M425.302 358.985 L429.978 358.985 L429.978 393.545 L425.302 393.545 L425.302 358.985 Z" fill="#000000" fill-rule="evenodd" fill-opacity="1" /><path clip-path="url(#clip360)" d="M454.723 372.017 L484.399 372.017 L484.399 375.906 L454.723 375.906 L454.723 372.017 M454.723 381.461 L484.399 381.461 L484.399 385.397 L454.723 385.397 L454.723 381.461 Z" fill="#000000" fill-rule="evenodd" fill-opacity="1" /><path clip-path="url(#clip360)" d="M510.371 389.609 L518.01 389.609 L518.01 363.244 L509.7 364.911 L509.7 360.651 L517.964 358.985 L522.639 358.985 L522.639 389.609 L530.278 389.609 L530.278 393.545 L510.371 393.545 L510.371 389.609 Z" fill="#000000" fill-rule="evenodd" fill-opacity="1" /><path clip-path="url(#clip360)" d="M550.301 374.401 Q547.153 374.401 545.301 376.554 Q543.473 378.707 543.473 382.457 Q543.473 386.184 545.301 388.359 Q547.153 390.512 550.301 390.512 Q553.449 390.512 555.278 388.359 Q557.13 386.184 557.13 382.457 Q557.13 378.707 555.278 376.554 Q553.449 374.401 550.301 374.401 M559.584 359.749 L559.584 364.008 Q557.824 363.174 556.019 362.735 Q554.236 362.295 552.477 362.295 Q547.848 362.295 545.394 365.42 Q542.963 368.545 542.616 374.864 Q543.982 372.85 546.042 371.786 Q548.102 370.698 550.579 370.698 Q555.787 370.698 558.797 373.869 Q561.829 377.017 561.829 382.457 Q561.829 387.781 558.681 390.998 Q555.533 394.216 550.301 394.216 Q544.306 394.216 541.135 389.633 Q537.963 385.026 537.963 376.299 Q537.963 368.105 541.852 363.244 Q545.741 358.36 552.292 358.36 Q554.051 358.36 555.834 358.707 Q557.639 359.054 559.584 359.749 Z" fill="#000000" fill-rule="evenodd" fill-opacity="1" /><path clip-path="url(#clip360)" d="M569.885 387.665 L574.769 387.665 L574.769 393.545 L569.885 393.545 L569.885 387.665 Z" fill="#000000" fill-rule="evenodd" fill-opacity="1" /><path clip-path="url(#clip360)" d="M594.954 362.063 Q591.343 362.063 589.514 365.628 Q587.709 369.17 587.709 376.299 Q587.709 383.406 589.514 386.971 Q591.343 390.512 594.954 390.512 Q598.588 390.512 600.394 386.971 Q602.222 383.406 602.222 376.299 Q602.222 369.17 600.394 365.628 Q598.588 362.063 594.954 362.063 M594.954 358.36 Q600.764 358.36 603.82 362.966 Q606.898 367.549 606.898 376.299 Q606.898 385.026 603.82 389.633 Q600.764 394.216 594.954 394.216 Q589.144 394.216 586.065 389.633 Q583.009 385.026 583.009 376.299 Q583.009 367.549 586.065 362.966 Q589.144 358.36 594.954 358.36 Z" fill="#000000" fill-rule="evenodd" fill-opacity="1" /><polyline clip-path="url(#clip360)" style="stroke:#ffa500; stroke-linecap:butt; stroke-linejoin:round; stroke-width:4; stroke-opacity:1; fill:none" points="
  254.515,428.105 400.904,428.105 
  "/>
<path clip-path="url(#clip360)" d="M425.302 410.825 L429.978 410.825 L429.978 445.385 L425.302 445.385 L425.302 410.825 Z" fill="#000000" fill-rule="evenodd" fill-opacity="1" /><path clip-path="url(#clip360)" d="M454.723 423.857 L484.399 423.857 L484.399 427.746 L454.723 427.746 L454.723 423.857 M454.723 433.301 L484.399 433.301 L484.399 437.237 L454.723 437.237 L454.723 433.301 Z" fill="#000000" fill-rule="evenodd" fill-opacity="1" /><path clip-path="url(#clip360)" d="M513.589 441.449 L529.908 441.449 L529.908 445.385 L507.964 445.385 L507.964 441.449 Q510.626 438.695 515.209 434.065 Q519.815 429.413 520.996 428.07 Q523.241 425.547 524.121 423.811 Q525.024 422.051 525.024 420.362 Q525.024 417.607 523.079 415.871 Q521.158 414.135 518.056 414.135 Q515.857 414.135 513.403 414.899 Q510.973 415.663 508.195 417.214 L508.195 412.491 Q511.019 411.357 513.473 410.778 Q515.926 410.2 517.964 410.2 Q523.334 410.2 526.528 412.885 Q529.723 415.57 529.723 420.061 Q529.723 422.19 528.913 424.112 Q528.125 426.01 526.019 428.602 Q525.44 429.274 522.338 432.491 Q519.237 435.686 513.589 441.449 Z" fill="#000000" fill-rule="evenodd" fill-opacity="1" /><path clip-path="url(#clip360)" d="M549.723 413.903 Q546.112 413.903 544.283 417.468 Q542.477 421.01 542.477 428.139 Q542.477 435.246 544.283 438.811 Q546.112 442.352 549.723 442.352 Q553.357 442.352 555.162 438.811 Q556.991 435.246 556.991 428.139 Q556.991 421.01 555.162 417.468 Q553.357 413.903 549.723 413.903 M549.723 410.2 Q555.533 410.2 558.588 414.806 Q561.667 419.389 561.667 428.139 Q561.667 436.866 558.588 441.473 Q555.533 446.056 549.723 446.056 Q543.912 446.056 540.834 441.473 Q537.778 436.866 537.778 428.139 Q537.778 419.389 540.834 414.806 Q543.912 410.2 549.723 410.2 Z" fill="#000000" fill-rule="evenodd" fill-opacity="1" /><path clip-path="url(#clip360)" d="M569.885 439.505 L574.769 439.505 L574.769 445.385 L569.885 445.385 L569.885 439.505 Z" fill="#000000" fill-rule="evenodd" fill-opacity="1" /><path clip-path="url(#clip360)" d="M594.954 413.903 Q591.343 413.903 589.514 417.468 Q587.709 421.01 587.709 428.139 Q587.709 435.246 589.514 438.811 Q591.343 442.352 594.954 442.352 Q598.588 442.352 600.394 438.811 Q602.222 435.246 602.222 428.139 Q602.222 421.01 600.394 417.468 Q598.588 413.903 594.954 413.903 M594.954 410.2 Q600.764 410.2 603.82 414.806 Q606.898 419.389 606.898 428.139 Q606.898 436.866 603.82 441.473 Q600.764 446.056 594.954 446.056 Q589.144 446.056 586.065 441.473 Q583.009 436.866 583.009 428.139 Q583.009 419.389 586.065 414.806 Q589.144 410.2 594.954 410.2 Z" fill="#000000" fill-rule="evenodd" fill-opacity="1" /></svg>
