<?xml version="1.0" encoding="utf-8"?>
<svg xmlns="http://www.w3.org/2000/svg" xmlns:xlink="http://www.w3.org/1999/xlink" width="600" height="400" viewBox="0 0 2400 1600">
<defs>
  <clipPath id="clip040">
    <rect x="0" y="0" width="2400" height="1600"/>
  </clipPath>
</defs>
<path clip-path="url(#clip040)" d="
M0 1600 L2400 1600 L2400 0 L0 0  Z
  " fill="#ffffff" fill-rule="evenodd" fill-opacity="1"/>
<defs>
  <clipPath id="clip041">
    <rect x="480" y="0" width="1681" height="1600"/>
  </clipPath>
</defs>
<defs>
  <clipPath id="clip042">
    <rect x="186" y="123" width="2167" height="1364"/>
  </clipPath>
</defs>
<path clip-path="url(#clip040)" d="
M186.274 1486.45 L2352.76 1486.45 L2352.76 123.472 L186.274 123.472  Z
  " fill="#ffffff" fill-rule="evenodd" fill-opacity="1"/>
<polyline clip-path="url(#clip042)" style="stroke:#000000; stroke-linecap:butt; stroke-linejoin:round; stroke-width:2; stroke-opacity:0.1; fill:none" points="
  247.59,1486.45 247.59,123.472 
  "/>
<polyline clip-path="url(#clip042)" style="stroke:#000000; stroke-linecap:butt; stroke-linejoin:round; stroke-width:2; stroke-opacity:0.1; fill:none" points="
  588.231,1486.45 588.231,123.472 
  "/>
<polyline clip-path="url(#clip042)" style="stroke:#000000; stroke-linecap:butt; stroke-linejoin:round; stroke-width:2; stroke-opacity:0.1; fill:none" points="
  928.873,1486.45 928.873,123.472 
  "/>
<polyline clip-path="url(#clip042)" style="stroke:#000000; stroke-linecap:butt; stroke-linejoin:round; stroke-width:2; stroke-opacity:0.1; fill:none" points="
  1269.51,1486.45 1269.51,123.472 
  "/>
<polyline clip-path="url(#clip042)" style="stroke:#000000; stroke-linecap:butt; stroke-linejoin:round; stroke-width:2; stroke-opacity:0.1; fill:none" points="
  1610.16,1486.45 1610.16,123.472 
  "/>
<polyline clip-path="url(#clip042)" style="stroke:#000000; stroke-linecap:butt; stroke-linejoin:round; stroke-width:2; stroke-opacity:0.1; fill:none" points="
  1950.8,1486.45 1950.8,123.472 
  "/>
<polyline clip-path="url(#clip042)" style="stroke:#000000; stroke-linecap:butt; stroke-linejoin:round; stroke-width:2; stroke-opacity:0.1; fill:none" points="
  2291.44,1486.45 2291.44,123.472 
  "/>
<polyline clip-path="url(#clip040)" style="stroke:#000000; stroke-linecap:butt; stroke-linejoin:round; stroke-width:4; stroke-opacity:1; fill:none" points="
  186.274,1486.45 2352.76,1486.45 
  "/>
<polyline clip-path="url(#clip040)" style="stroke:#000000; stroke-linecap:butt; stroke-linejoin:round; stroke-width:4; stroke-opacity:1; fill:none" points="
  247.59,1486.45 247.59,1467.55 
  "/>
<polyline clip-path="url(#clip040)" style="stroke:#000000; stroke-linecap:butt; stroke-linejoin:round; stroke-width:4; stroke-opacity:1; fill:none" points="
  588.231,1486.45 588.231,1467.55 
  "/>
<polyline clip-path="url(#clip040)" style="stroke:#000000; stroke-linecap:butt; stroke-linejoin:round; stroke-width:4; stroke-opacity:1; fill:none" points="
  928.873,1486.45 928.873,1467.55 
  "/>
<polyline clip-path="url(#clip040)" style="stroke:#000000; stroke-linecap:butt; stroke-linejoin:round; stroke-width:4; stroke-opacity:1; fill:none" points="
  1269.51,1486.45 1269.51,1467.55 
  "/>
<polyline clip-path="url(#clip040)" style="stroke:#000000; stroke-linecap:butt; stroke-linejoin:round; stroke-width:4; stroke-opacity:1; fill:none" points="
  1610.16,1486.45 1610.16,1467.55 
  "/>
<polyline clip-path="url(#clip040)" style="stroke:#000000; stroke-linecap:butt; stroke-linejoin:round; stroke-width:4; stroke-opacity:1; fill:none" points="
  1950.8,1486.45 1950.8,1467.55 
  "/>
<polyline clip-path="url(#clip040)" style="stroke:#000000; stroke-linecap:butt; stroke-linejoin:round; stroke-width:4; stroke-opacity:1; fill:none" points="
  2291.44,1486.45 2291.44,1467.55 
  "/>
<path clip-path="url(#clip040)" d="M194.442 1532.02 L224.117 1532.02 L224.117 1535.95 L194.442 1535.95 L194.442 1532.02 Z" fill="#000000" fill-rule="evenodd" fill-opacity="1" /><path clip-path="url(#clip040)" d="M244.21 1517.37 Q240.599 1517.37 238.77 1520.93 Q236.965 1524.47 236.965 1531.6 Q236.965 1538.71 238.77 1542.27 Q240.599 1545.82 244.21 1545.82 Q247.844 1545.82 249.65 1542.27 Q251.478 1538.71 251.478 1531.6 Q251.478 1524.47 249.65 1520.93 Q247.844 1517.37 244.21 1517.37 M244.21 1513.66 Q250.02 1513.66 253.076 1518.27 Q256.154 1522.85 256.154 1531.6 Q256.154 1540.33 253.076 1544.94 Q250.02 1549.52 244.21 1549.52 Q238.4 1549.52 235.321 1544.94 Q232.266 1540.33 232.266 1531.6 Q232.266 1522.85 235.321 1518.27 Q238.4 1513.66 244.21 1513.66 Z" fill="#000000" fill-rule="evenodd" fill-opacity="1" /><path clip-path="url(#clip040)" d="M264.372 1542.97 L269.256 1542.97 L269.256 1548.85 L264.372 1548.85 L264.372 1542.97 Z" fill="#000000" fill-rule="evenodd" fill-opacity="1" /><path clip-path="url(#clip040)" d="M293.608 1530.21 Q296.964 1530.93 298.839 1533.2 Q300.737 1535.47 300.737 1538.8 Q300.737 1543.92 297.219 1546.72 Q293.7 1549.52 287.219 1549.52 Q285.043 1549.52 282.728 1549.08 Q280.437 1548.66 277.983 1547.81 L277.983 1543.29 Q279.927 1544.43 282.242 1545.01 Q284.557 1545.58 287.08 1545.58 Q291.478 1545.58 293.77 1543.85 Q296.085 1542.11 296.085 1538.8 Q296.085 1535.75 293.932 1534.03 Q291.802 1532.3 287.983 1532.3 L283.955 1532.3 L283.955 1528.45 L288.168 1528.45 Q291.617 1528.45 293.446 1527.09 Q295.274 1525.7 295.274 1523.11 Q295.274 1520.45 293.376 1519.03 Q291.501 1517.6 287.983 1517.6 Q286.062 1517.6 283.862 1518.01 Q281.663 1518.43 279.025 1519.31 L279.025 1515.14 Q281.687 1514.4 284.001 1514.03 Q286.339 1513.66 288.399 1513.66 Q293.724 1513.66 296.825 1516.09 Q299.927 1518.5 299.927 1522.62 Q299.927 1525.49 298.284 1527.48 Q296.64 1529.45 293.608 1530.21 Z" fill="#000000" fill-rule="evenodd" fill-opacity="1" /><path clip-path="url(#clip040)" d="M535.558 1532.02 L565.234 1532.02 L565.234 1535.95 L535.558 1535.95 L535.558 1532.02 Z" fill="#000000" fill-rule="evenodd" fill-opacity="1" /><path clip-path="url(#clip040)" d="M585.326 1517.37 Q581.715 1517.37 579.886 1520.93 Q578.081 1524.47 578.081 1531.6 Q578.081 1538.71 579.886 1542.27 Q581.715 1545.82 585.326 1545.82 Q588.96 1545.82 590.766 1542.27 Q592.595 1538.71 592.595 1531.6 Q592.595 1524.47 590.766 1520.93 Q588.96 1517.37 585.326 1517.37 M585.326 1513.66 Q591.136 1513.66 594.192 1518.27 Q597.271 1522.85 597.271 1531.6 Q597.271 1540.33 594.192 1544.94 Q591.136 1549.52 585.326 1549.52 Q579.516 1549.52 576.437 1544.94 Q573.382 1540.33 573.382 1531.6 Q573.382 1522.85 576.437 1518.27 Q579.516 1513.66 585.326 1513.66 Z" fill="#000000" fill-rule="evenodd" fill-opacity="1" /><path clip-path="url(#clip040)" d="M605.488 1542.97 L610.372 1542.97 L610.372 1548.85 L605.488 1548.85 L605.488 1542.97 Z" fill="#000000" fill-rule="evenodd" fill-opacity="1" /><path clip-path="url(#clip040)" d="M624.585 1544.91 L640.905 1544.91 L640.905 1548.85 L618.96 1548.85 L618.96 1544.91 Q621.622 1542.16 626.206 1537.53 Q630.812 1532.88 631.993 1531.53 Q634.238 1529.01 635.118 1527.27 Q636.02 1525.51 636.02 1523.82 Q636.02 1521.07 634.076 1519.33 Q632.155 1517.6 629.053 1517.6 Q626.854 1517.6 624.4 1518.36 Q621.97 1519.13 619.192 1520.68 L619.192 1515.95 Q622.016 1514.82 624.47 1514.24 Q626.923 1513.66 628.96 1513.66 Q634.331 1513.66 637.525 1516.35 Q640.719 1519.03 640.719 1523.52 Q640.719 1525.65 639.909 1527.57 Q639.122 1529.47 637.016 1532.07 Q636.437 1532.74 633.335 1535.95 Q630.233 1539.15 624.585 1544.91 Z" fill="#000000" fill-rule="evenodd" fill-opacity="1" /><path clip-path="url(#clip040)" d="M876.015 1532.02 L905.69 1532.02 L905.69 1535.95 L876.015 1535.95 L876.015 1532.02 Z" fill="#000000" fill-rule="evenodd" fill-opacity="1" /><path clip-path="url(#clip040)" d="M925.783 1517.37 Q922.172 1517.37 920.343 1520.93 Q918.538 1524.47 918.538 1531.6 Q918.538 1538.71 920.343 1542.27 Q922.172 1545.82 925.783 1545.82 Q929.417 1545.82 931.223 1542.27 Q933.051 1538.71 933.051 1531.6 Q933.051 1524.47 931.223 1520.93 Q929.417 1517.37 925.783 1517.37 M925.783 1513.66 Q931.593 1513.66 934.649 1518.27 Q937.727 1522.85 937.727 1531.6 Q937.727 1540.33 934.649 1544.94 Q931.593 1549.52 925.783 1549.52 Q919.973 1549.52 916.894 1544.94 Q913.839 1540.33 913.839 1531.6 Q913.839 1522.85 916.894 1518.27 Q919.973 1513.66 925.783 1513.66 Z" fill="#000000" fill-rule="evenodd" fill-opacity="1" /><path clip-path="url(#clip040)" d="M945.945 1542.97 L950.829 1542.97 L950.829 1548.85 L945.945 1548.85 L945.945 1542.97 Z" fill="#000000" fill-rule="evenodd" fill-opacity="1" /><path clip-path="url(#clip040)" d="M961.824 1544.91 L969.463 1544.91 L969.463 1518.55 L961.153 1520.21 L961.153 1515.95 L969.417 1514.29 L974.093 1514.29 L974.093 1544.91 L981.732 1544.91 L981.732 1548.85 L961.824 1548.85 L961.824 1544.91 Z" fill="#000000" fill-rule="evenodd" fill-opacity="1" /><path clip-path="url(#clip040)" d="M1246.9 1517.37 Q1243.29 1517.37 1241.46 1520.93 Q1239.65 1524.47 1239.65 1531.6 Q1239.65 1538.71 1241.46 1542.27 Q1243.29 1545.82 1246.9 1545.82 Q1250.53 1545.82 1252.34 1542.27 Q1254.17 1538.71 1254.17 1531.6 Q1254.17 1524.47 1252.34 1520.93 Q1250.53 1517.37 1246.9 1517.37 M1246.9 1513.66 Q1252.71 1513.66 1255.77 1518.27 Q1258.84 1522.85 1258.84 1531.6 Q1258.84 1540.33 1255.77 1544.94 Q1252.71 1549.52 1246.9 1549.52 Q1241.09 1549.52 1238.01 1544.94 Q1234.95 1540.33 1234.95 1531.6 Q1234.95 1522.85 1238.01 1518.27 Q1241.09 1513.66 1246.9 1513.66 Z" fill="#000000" fill-rule="evenodd" fill-opacity="1" /><path clip-path="url(#clip040)" d="M1267.06 1542.97 L1271.95 1542.97 L1271.95 1548.85 L1267.06 1548.85 L1267.06 1542.97 Z" fill="#000000" fill-rule="evenodd" fill-opacity="1" /><path clip-path="url(#clip040)" d="M1292.13 1517.37 Q1288.52 1517.37 1286.69 1520.93 Q1284.89 1524.47 1284.89 1531.6 Q1284.89 1538.71 1286.69 1542.27 Q1288.52 1545.82 1292.13 1545.82 Q1295.76 1545.82 1297.57 1542.27 Q1299.4 1538.71 1299.4 1531.6 Q1299.4 1524.47 1297.57 1520.93 Q1295.76 1517.37 1292.13 1517.37 M1292.13 1513.66 Q1297.94 1513.66 1301 1518.27 Q1304.07 1522.85 1304.07 1531.6 Q1304.07 1540.33 1301 1544.94 Q1297.94 1549.52 1292.13 1549.52 Q1286.32 1549.52 1283.24 1544.94 Q1280.19 1540.33 1280.19 1531.6 Q1280.19 1522.85 1283.24 1518.27 Q1286.32 1513.66 1292.13 1513.66 Z" fill="#000000" fill-rule="evenodd" fill-opacity="1" /><path clip-path="url(#clip040)" d="M1588.15 1517.37 Q1584.54 1517.37 1582.71 1520.93 Q1580.91 1524.47 1580.91 1531.6 Q1580.91 1538.71 1582.71 1542.27 Q1584.54 1545.82 1588.15 1545.82 Q1591.79 1545.82 1593.59 1542.27 Q1595.42 1538.71 1595.42 1531.6 Q1595.42 1524.47 1593.59 1520.93 Q1591.79 1517.37 1588.15 1517.37 M1588.15 1513.66 Q1593.96 1513.66 1597.02 1518.27 Q1600.1 1522.85 1600.1 1531.6 Q1600.1 1540.33 1597.02 1544.94 Q1593.96 1549.52 1588.15 1549.52 Q1582.34 1549.52 1579.27 1544.94 Q1576.21 1540.33 1576.21 1531.6 Q1576.21 1522.85 1579.27 1518.27 Q1582.34 1513.66 1588.15 1513.66 Z" fill="#000000" fill-rule="evenodd" fill-opacity="1" /><path clip-path="url(#clip040)" d="M1608.32 1542.97 L1613.2 1542.97 L1613.2 1548.85 L1608.32 1548.85 L1608.32 1542.97 Z" fill="#000000" fill-rule="evenodd" fill-opacity="1" /><path clip-path="url(#clip040)" d="M1624.2 1544.91 L1631.83 1544.91 L1631.83 1518.55 L1623.52 1520.21 L1623.52 1515.95 L1631.79 1514.29 L1636.46 1514.29 L1636.46 1544.91 L1644.1 1544.91 L1644.1 1548.85 L1624.2 1548.85 L1624.2 1544.91 Z" fill="#000000" fill-rule="evenodd" fill-opacity="1" /><path clip-path="url(#clip040)" d="M1928.98 1517.37 Q1925.37 1517.37 1923.54 1520.93 Q1921.74 1524.47 1921.74 1531.6 Q1921.74 1538.71 1923.54 1542.27 Q1925.37 1545.82 1928.98 1545.82 Q1932.62 1545.82 1934.42 1542.27 Q1936.25 1538.71 1936.25 1531.6 Q1936.25 1524.47 1934.42 1520.93 Q1932.62 1517.37 1928.98 1517.37 M1928.98 1513.66 Q1934.79 1513.66 1937.85 1518.27 Q1940.93 1522.85 1940.93 1531.6 Q1940.93 1540.33 1937.85 1544.94 Q1934.79 1549.52 1928.98 1549.52 Q1923.17 1549.52 1920.09 1544.94 Q1917.04 1540.33 1917.04 1531.6 Q1917.04 1522.85 1920.09 1518.27 Q1923.17 1513.66 1928.98 1513.66 Z" fill="#000000" fill-rule="evenodd" fill-opacity="1" /><path clip-path="url(#clip040)" d="M1949.14 1542.97 L1954.03 1542.97 L1954.03 1548.85 L1949.14 1548.85 L1949.14 1542.97 Z" fill="#000000" fill-rule="evenodd" fill-opacity="1" /><path clip-path="url(#clip040)" d="M1968.24 1544.91 L1984.56 1544.91 L1984.56 1548.85 L1962.62 1548.85 L1962.62 1544.91 Q1965.28 1542.16 1969.86 1537.53 Q1974.47 1532.88 1975.65 1531.53 Q1977.89 1529.01 1978.77 1527.27 Q1979.68 1525.51 1979.68 1523.82 Q1979.68 1521.07 1977.73 1519.33 Q1975.81 1517.6 1972.71 1517.6 Q1970.51 1517.6 1968.06 1518.36 Q1965.62 1519.13 1962.85 1520.68 L1962.85 1515.95 Q1965.67 1514.82 1968.12 1514.24 Q1970.58 1513.66 1972.62 1513.66 Q1977.99 1513.66 1981.18 1516.35 Q1984.37 1519.03 1984.37 1523.52 Q1984.37 1525.65 1983.56 1527.57 Q1982.78 1529.47 1980.67 1532.07 Q1980.09 1532.74 1976.99 1535.95 Q1973.89 1539.15 1968.24 1544.91 Z" fill="#000000" fill-rule="evenodd" fill-opacity="1" /><path clip-path="url(#clip040)" d="M2269.15 1517.37 Q2265.54 1517.37 2263.71 1520.93 Q2261.9 1524.47 2261.9 1531.6 Q2261.9 1538.71 2263.71 1542.27 Q2265.54 1545.82 2269.15 1545.82 Q2272.78 1545.82 2274.59 1542.27 Q2276.42 1538.71 2276.42 1531.6 Q2276.42 1524.47 2274.59 1520.93 Q2272.78 1517.37 2269.15 1517.37 M2269.15 1513.66 Q2274.96 1513.66 2278.01 1518.27 Q2281.09 1522.85 2281.09 1531.6 Q2281.09 1540.33 2278.01 1544.94 Q2274.96 1549.52 2269.15 1549.52 Q2263.34 1549.52 2260.26 1544.94 Q2257.2 1540.33 2257.2 1531.6 Q2257.2 1522.85 2260.26 1518.27 Q2263.34 1513.66 2269.15 1513.66 Z" fill="#000000" fill-rule="evenodd" fill-opacity="1" /><path clip-path="url(#clip040)" d="M2289.31 1542.97 L2294.19 1542.97 L2294.19 1548.85 L2289.31 1548.85 L2289.31 1542.97 Z" fill="#000000" fill-rule="evenodd" fill-opacity="1" /><path clip-path="url(#clip040)" d="M2318.55 1530.21 Q2321.9 1530.93 2323.78 1533.2 Q2325.68 1535.47 2325.68 1538.8 Q2325.68 1543.92 2322.16 1546.72 Q2318.64 1549.52 2312.16 1549.52 Q2309.98 1549.52 2307.67 1549.08 Q2305.38 1548.66 2302.92 1547.81 L2302.92 1543.29 Q2304.87 1544.43 2307.18 1545.01 Q2309.5 1545.58 2312.02 1545.58 Q2316.42 1545.58 2318.71 1543.85 Q2321.02 1542.11 2321.02 1538.8 Q2321.02 1535.75 2318.87 1534.03 Q2316.74 1532.3 2312.92 1532.3 L2308.89 1532.3 L2308.89 1528.45 L2313.11 1528.45 Q2316.56 1528.45 2318.38 1527.09 Q2320.21 1525.7 2320.21 1523.11 Q2320.21 1520.45 2318.32 1519.03 Q2316.44 1517.6 2312.92 1517.6 Q2311 1517.6 2308.8 1518.01 Q2306.6 1518.43 2303.96 1519.31 L2303.96 1515.14 Q2306.63 1514.4 2308.94 1514.03 Q2311.28 1513.66 2313.34 1513.66 Q2318.66 1513.66 2321.76 1516.09 Q2324.87 1518.5 2324.87 1522.62 Q2324.87 1525.49 2323.22 1527.48 Q2321.58 1529.45 2318.55 1530.21 Z" fill="#000000" fill-rule="evenodd" fill-opacity="1" /><polyline clip-path="url(#clip042)" style="stroke:#000000; stroke-linecap:butt; stroke-linejoin:round; stroke-width:2; stroke-opacity:0.1; fill:none" points="
  186.274,1296.61 2352.76,1296.61 
  "/>
<polyline clip-path="url(#clip042)" style="stroke:#000000; stroke-linecap:butt; stroke-linejoin:round; stroke-width:2; stroke-opacity:0.1; fill:none" points="
  186.274,1012.97 2352.76,1012.97 
  "/>
<polyline clip-path="url(#clip042)" style="stroke:#000000; stroke-linecap:butt; stroke-linejoin:round; stroke-width:2; stroke-opacity:0.1; fill:none" points="
  186.274,729.328 2352.76,729.328 
  "/>
<polyline clip-path="url(#clip042)" style="stroke:#000000; stroke-linecap:butt; stroke-linejoin:round; stroke-width:2; stroke-opacity:0.1; fill:none" points="
  186.274,445.688 2352.76,445.688 
  "/>
<polyline clip-path="url(#clip042)" style="stroke:#000000; stroke-linecap:butt; stroke-linejoin:round; stroke-width:2; stroke-opacity:0.1; fill:none" points="
  186.274,162.047 2352.76,162.047 
  "/>
<polyline clip-path="url(#clip040)" style="stroke:#000000; stroke-linecap:butt; stroke-linejoin:round; stroke-width:4; stroke-opacity:1; fill:none" points="
  186.274,1486.45 186.274,123.472 
  "/>
<polyline clip-path="url(#clip040)" style="stroke:#000000; stroke-linecap:butt; stroke-linejoin:round; stroke-width:4; stroke-opacity:1; fill:none" points="
  186.274,1296.61 205.172,1296.61 
  "/>
<polyline clip-path="url(#clip040)" style="stroke:#000000; stroke-linecap:butt; stroke-linejoin:round; stroke-width:4; stroke-opacity:1; fill:none" points="
  186.274,1012.97 205.172,1012.97 
  "/>
<polyline clip-path="url(#clip040)" style="stroke:#000000; stroke-linecap:butt; stroke-linejoin:round; stroke-width:4; stroke-opacity:1; fill:none" points="
  186.274,729.328 205.172,729.328 
  "/>
<polyline clip-path="url(#clip040)" style="stroke:#000000; stroke-linecap:butt; stroke-linejoin:round; stroke-width:4; stroke-opacity:1; fill:none" points="
  186.274,445.688 205.172,445.688 
  "/>
<polyline clip-path="url(#clip040)" style="stroke:#000000; stroke-linecap:butt; stroke-linejoin:round; stroke-width:4; stroke-opacity:1; fill:none" points="
  186.274,162.047 205.172,162.047 
  "/>
<path clip-path="url(#clip040)" d="M62.9365 1282.41 Q59.3254 1282.41 57.4967 1285.97 Q55.6912 1289.51 55.6912 1296.64 Q55.6912 1303.75 57.4967 1307.32 Q59.3254 1310.86 62.9365 1310.86 Q66.5707 1310.86 68.3763 1307.32 Q70.205 1303.75 70.205 1296.64 Q70.205 1289.51 68.3763 1285.97 Q66.5707 1282.41 62.9365 1282.41 M62.9365 1278.7 Q68.7467 1278.7 71.8022 1283.31 Q74.8809 1287.89 74.8809 1296.64 Q74.8809 1305.37 71.8022 1309.98 Q68.7467 1314.56 62.9365 1314.56 Q57.1264 1314.56 54.0477 1309.98 Q50.9921 1305.37 50.9921 1296.64 Q50.9921 1287.89 54.0477 1283.31 Q57.1264 1278.7 62.9365 1278.7 Z" fill="#000000" fill-rule="evenodd" fill-opacity="1" /><path clip-path="url(#clip040)" d="M83.0984 1308.01 L87.9827 1308.01 L87.9827 1313.89 L83.0984 1313.89 L83.0984 1308.01 Z" fill="#000000" fill-rule="evenodd" fill-opacity="1" /><path clip-path="url(#clip040)" d="M108.168 1282.41 Q104.557 1282.41 102.728 1285.97 Q100.922 1289.51 100.922 1296.64 Q100.922 1303.75 102.728 1307.32 Q104.557 1310.86 108.168 1310.86 Q111.802 1310.86 113.608 1307.32 Q115.436 1303.75 115.436 1296.64 Q115.436 1289.51 113.608 1285.97 Q111.802 1282.41 108.168 1282.41 M108.168 1278.7 Q113.978 1278.7 117.033 1283.31 Q120.112 1287.89 120.112 1296.64 Q120.112 1305.37 117.033 1309.98 Q113.978 1314.56 108.168 1314.56 Q102.358 1314.56 99.2789 1309.98 Q96.2234 1305.37 96.2234 1296.64 Q96.2234 1287.89 99.2789 1283.31 Q102.358 1278.7 108.168 1278.7 Z" fill="#000000" fill-rule="evenodd" fill-opacity="1" /><path clip-path="url(#clip040)" d="M138.33 1282.41 Q134.719 1282.41 132.89 1285.97 Q131.084 1289.51 131.084 1296.64 Q131.084 1303.75 132.89 1307.32 Q134.719 1310.86 138.33 1310.86 Q141.964 1310.86 143.769 1307.32 Q145.598 1303.75 145.598 1296.64 Q145.598 1289.51 143.769 1285.97 Q141.964 1282.41 138.33 1282.41 M138.33 1278.7 Q144.14 1278.7 147.195 1283.31 Q150.274 1287.89 150.274 1296.64 Q150.274 1305.37 147.195 1309.98 Q144.14 1314.56 138.33 1314.56 Q132.519 1314.56 129.441 1309.98 Q126.385 1305.37 126.385 1296.64 Q126.385 1287.89 129.441 1283.31 Q132.519 1278.7 138.33 1278.7 Z" fill="#000000" fill-rule="evenodd" fill-opacity="1" /><path clip-path="url(#clip040)" d="M63.9319 998.768 Q60.3208 998.768 58.4921 1002.33 Q56.6865 1005.87 56.6865 1013 Q56.6865 1020.11 58.4921 1023.67 Q60.3208 1027.22 63.9319 1027.22 Q67.5661 1027.22 69.3717 1023.67 Q71.2004 1020.11 71.2004 1013 Q71.2004 1005.87 69.3717 1002.33 Q67.5661 998.768 63.9319 998.768 M63.9319 995.064 Q69.742 995.064 72.7976 999.67 Q75.8763 1004.25 75.8763 1013 Q75.8763 1021.73 72.7976 1026.34 Q69.742 1030.92 63.9319 1030.92 Q58.1217 1030.92 55.043 1026.34 Q51.9875 1021.73 51.9875 1013 Q51.9875 1004.25 55.043 999.67 Q58.1217 995.064 63.9319 995.064 Z" fill="#000000" fill-rule="evenodd" fill-opacity="1" /><path clip-path="url(#clip040)" d="M84.0938 1024.37 L88.978 1024.37 L88.978 1030.25 L84.0938 1030.25 L84.0938 1024.37 Z" fill="#000000" fill-rule="evenodd" fill-opacity="1" /><path clip-path="url(#clip040)" d="M103.191 1026.31 L119.51 1026.31 L119.51 1030.25 L97.566 1030.25 L97.566 1026.31 Q100.228 1023.56 104.811 1018.93 Q109.418 1014.28 110.598 1012.93 Q112.844 1010.41 113.723 1008.67 Q114.626 1006.92 114.626 1005.23 Q114.626 1002.47 112.682 1000.74 Q110.76 998.999 107.658 998.999 Q105.459 998.999 103.006 999.763 Q100.575 1000.53 97.7974 1002.08 L97.7974 997.355 Q100.621 996.221 103.075 995.643 Q105.529 995.064 107.566 995.064 Q112.936 995.064 116.131 997.749 Q119.325 1000.43 119.325 1004.92 Q119.325 1007.05 118.515 1008.98 Q117.728 1010.87 115.621 1013.47 Q115.043 1014.14 111.941 1017.36 Q108.839 1020.55 103.191 1026.31 Z" fill="#000000" fill-rule="evenodd" fill-opacity="1" /><path clip-path="url(#clip040)" d="M129.371 995.689 L147.728 995.689 L147.728 999.624 L133.654 999.624 L133.654 1008.1 Q134.672 1007.75 135.691 1007.59 Q136.709 1007.4 137.728 1007.4 Q143.515 1007.4 146.894 1010.57 Q150.274 1013.74 150.274 1019.16 Q150.274 1024.74 146.802 1027.84 Q143.33 1030.92 137.01 1030.92 Q134.834 1030.92 132.566 1030.55 Q130.32 1030.18 127.913 1029.44 L127.913 1024.74 Q129.996 1025.87 132.219 1026.43 Q134.441 1026.98 136.918 1026.98 Q140.922 1026.98 143.26 1024.88 Q145.598 1022.77 145.598 1019.16 Q145.598 1015.55 143.26 1013.44 Q140.922 1011.34 136.918 1011.34 Q135.043 1011.34 133.168 1011.75 Q131.316 1012.17 129.371 1013.05 L129.371 995.689 Z" fill="#000000" fill-rule="evenodd" fill-opacity="1" /><path clip-path="url(#clip040)" d="M62.9365 715.127 Q59.3254 715.127 57.4967 718.692 Q55.6912 722.233 55.6912 729.363 Q55.6912 736.469 57.4967 740.034 Q59.3254 743.576 62.9365 743.576 Q66.5707 743.576 68.3763 740.034 Q70.205 736.469 70.205 729.363 Q70.205 722.233 68.3763 718.692 Q66.5707 715.127 62.9365 715.127 M62.9365 711.423 Q68.7467 711.423 71.8022 716.03 Q74.8809 720.613 74.8809 729.363 Q74.8809 738.09 71.8022 742.696 Q68.7467 747.279 62.9365 747.279 Q57.1264 747.279 54.0477 742.696 Q50.9921 738.09 50.9921 729.363 Q50.9921 720.613 54.0477 716.03 Q57.1264 711.423 62.9365 711.423 Z" fill="#000000" fill-rule="evenodd" fill-opacity="1" /><path clip-path="url(#clip040)" d="M83.0984 740.729 L87.9827 740.729 L87.9827 746.608 L83.0984 746.608 L83.0984 740.729 Z" fill="#000000" fill-rule="evenodd" fill-opacity="1" /><path clip-path="url(#clip040)" d="M98.2141 712.048 L116.57 712.048 L116.57 715.983 L102.496 715.983 L102.496 724.456 Q103.515 724.108 104.534 723.946 Q105.552 723.761 106.571 723.761 Q112.358 723.761 115.737 726.932 Q119.117 730.104 119.117 735.52 Q119.117 741.099 115.645 744.201 Q112.172 747.279 105.853 747.279 Q103.677 747.279 101.409 746.909 Q99.1632 746.539 96.7558 745.798 L96.7558 741.099 Q98.8391 742.233 101.061 742.789 Q103.284 743.344 105.76 743.344 Q109.765 743.344 112.103 741.238 Q114.441 739.131 114.441 735.52 Q114.441 731.909 112.103 729.803 Q109.765 727.696 105.76 727.696 Q103.885 727.696 102.01 728.113 Q100.159 728.53 98.2141 729.409 L98.2141 712.048 Z" fill="#000000" fill-rule="evenodd" fill-opacity="1" /><path clip-path="url(#clip040)" d="M138.33 715.127 Q134.719 715.127 132.89 718.692 Q131.084 722.233 131.084 729.363 Q131.084 736.469 132.89 740.034 Q134.719 743.576 138.33 743.576 Q141.964 743.576 143.769 740.034 Q145.598 736.469 145.598 729.363 Q145.598 722.233 143.769 718.692 Q141.964 715.127 138.33 715.127 M138.33 711.423 Q144.14 711.423 147.195 716.03 Q150.274 720.613 150.274 729.363 Q150.274 738.09 147.195 742.696 Q144.14 747.279 138.33 747.279 Q132.519 747.279 129.441 742.696 Q126.385 738.09 126.385 729.363 Q126.385 720.613 129.441 716.03 Q132.519 711.423 138.33 711.423 Z" fill="#000000" fill-rule="evenodd" fill-opacity="1" /><path clip-path="url(#clip040)" d="M63.9319 431.486 Q60.3208 431.486 58.4921 435.051 Q56.6865 438.593 56.6865 445.722 Q56.6865 452.829 58.4921 456.394 Q60.3208 459.935 63.9319 459.935 Q67.5661 459.935 69.3717 456.394 Q71.2004 452.829 71.2004 445.722 Q71.2004 438.593 69.3717 435.051 Q67.5661 431.486 63.9319 431.486 M63.9319 427.783 Q69.742 427.783 72.7976 432.389 Q75.8763 436.972 75.8763 445.722 Q75.8763 454.449 72.7976 459.056 Q69.742 463.639 63.9319 463.639 Q58.1217 463.639 55.043 459.056 Q51.9875 454.449 51.9875 445.722 Q51.9875 436.972 55.043 432.389 Q58.1217 427.783 63.9319 427.783 Z" fill="#000000" fill-rule="evenodd" fill-opacity="1" /><path clip-path="url(#clip040)" d="M84.0938 457.088 L88.978 457.088 L88.978 462.968 L84.0938 462.968 L84.0938 457.088 Z" fill="#000000" fill-rule="evenodd" fill-opacity="1" /><path clip-path="url(#clip040)" d="M97.9826 428.408 L120.205 428.408 L120.205 430.398 L107.658 462.968 L102.774 462.968 L114.58 432.343 L97.9826 432.343 L97.9826 428.408 Z" fill="#000000" fill-rule="evenodd" fill-opacity="1" /><path clip-path="url(#clip040)" d="M129.371 428.408 L147.728 428.408 L147.728 432.343 L133.654 432.343 L133.654 440.815 Q134.672 440.468 135.691 440.306 Q136.709 440.12 137.728 440.12 Q143.515 440.12 146.894 443.292 Q150.274 446.463 150.274 451.88 Q150.274 457.458 146.802 460.56 Q143.33 463.639 137.01 463.639 Q134.834 463.639 132.566 463.268 Q130.32 462.898 127.913 462.157 L127.913 457.458 Q129.996 458.593 132.219 459.148 Q134.441 459.704 136.918 459.704 Q140.922 459.704 143.26 457.597 Q145.598 455.491 145.598 451.88 Q145.598 448.269 143.26 446.162 Q140.922 444.056 136.918 444.056 Q135.043 444.056 133.168 444.472 Q131.316 444.889 129.371 445.769 L129.371 428.408 Z" fill="#000000" fill-rule="evenodd" fill-opacity="1" /><path clip-path="url(#clip040)" d="M53.7467 175.392 L61.3856 175.392 L61.3856 149.026 L53.0754 150.693 L53.0754 146.434 L61.3393 144.767 L66.0152 144.767 L66.0152 175.392 L73.654 175.392 L73.654 179.327 L53.7467 179.327 L53.7467 175.392 Z" fill="#000000" fill-rule="evenodd" fill-opacity="1" /><path clip-path="url(#clip040)" d="M83.0984 173.447 L87.9827 173.447 L87.9827 179.327 L83.0984 179.327 L83.0984 173.447 Z" fill="#000000" fill-rule="evenodd" fill-opacity="1" /><path clip-path="url(#clip040)" d="M108.168 147.846 Q104.557 147.846 102.728 151.41 Q100.922 154.952 100.922 162.082 Q100.922 169.188 102.728 172.753 Q104.557 176.295 108.168 176.295 Q111.802 176.295 113.608 172.753 Q115.436 169.188 115.436 162.082 Q115.436 154.952 113.608 151.41 Q111.802 147.846 108.168 147.846 M108.168 144.142 Q113.978 144.142 117.033 148.748 Q120.112 153.332 120.112 162.082 Q120.112 170.808 117.033 175.415 Q113.978 179.998 108.168 179.998 Q102.358 179.998 99.2789 175.415 Q96.2234 170.808 96.2234 162.082 Q96.2234 153.332 99.2789 148.748 Q102.358 144.142 108.168 144.142 Z" fill="#000000" fill-rule="evenodd" fill-opacity="1" /><path clip-path="url(#clip040)" d="M138.33 147.846 Q134.719 147.846 132.89 151.41 Q131.084 154.952 131.084 162.082 Q131.084 169.188 132.89 172.753 Q134.719 176.295 138.33 176.295 Q141.964 176.295 143.769 172.753 Q145.598 169.188 145.598 162.082 Q145.598 154.952 143.769 151.41 Q141.964 147.846 138.33 147.846 M138.33 144.142 Q144.14 144.142 147.195 148.748 Q150.274 153.332 150.274 162.082 Q150.274 170.808 147.195 175.415 Q144.14 179.998 138.33 179.998 Q132.519 179.998 129.441 175.415 Q126.385 170.808 126.385 162.082 Q126.385 153.332 129.441 148.748 Q132.519 144.142 138.33 144.142 Z" fill="#000000" fill-rule="evenodd" fill-opacity="1" /><path clip-path="url(#clip040)" d="M970.923 43.6931 L970.923 65.8515 L984.048 65.8515 Q990.651 65.8515 993.81 63.1374 Q997.011 60.3828 997.011 54.752 Q997.011 49.0808 993.81 46.4072 Q990.651 43.6931 984.048 43.6931 L970.923 43.6931 M970.923 18.8205 L970.923 37.0496 L983.035 37.0496 Q989.03 37.0496 991.947 34.8216 Q994.904 32.5531 994.904 27.935 Q994.904 23.3575 991.947 21.089 Q989.03 18.8205 983.035 18.8205 L970.923 18.8205 M962.74 12.096 L983.643 12.096 Q993 12.096 998.064 15.9849 Q1003.13 19.8737 1003.13 27.0438 Q1003.13 32.5936 1000.53 35.8748 Q997.942 39.156 992.919 39.9662 Q998.955 41.2625 1002.28 45.3944 Q1005.64 49.4858 1005.64 55.6432 Q1005.64 63.745 1000.13 68.1605 Q994.621 72.576 984.453 72.576 L962.74 72.576 L962.74 12.096 Z" fill="#000000" fill-rule="evenodd" fill-opacity="1" /><path clip-path="url(#clip040)" d="M1039.95 49.7694 Q1030.92 49.7694 1027.43 51.8354 Q1023.95 53.9013 1023.95 58.8839 Q1023.95 62.8538 1026.54 65.2034 Q1029.17 67.5124 1033.67 67.5124 Q1039.87 67.5124 1043.6 63.1374 Q1047.36 58.7219 1047.36 51.4303 L1047.36 49.7694 L1039.95 49.7694 M1054.82 46.6907 L1054.82 72.576 L1047.36 72.576 L1047.36 65.6895 Q1044.81 69.8214 1041 71.8063 Q1037.2 73.7508 1031.69 73.7508 Q1024.72 73.7508 1020.59 69.8619 Q1016.5 65.9325 1016.5 59.3701 Q1016.5 51.7138 1021.6 47.825 Q1026.74 43.9361 1036.91 43.9361 L1047.36 43.9361 L1047.36 43.2069 Q1047.36 38.0623 1043.96 35.2672 Q1040.6 32.4315 1034.48 32.4315 Q1030.59 32.4315 1026.91 33.3632 Q1023.22 34.295 1019.82 36.1584 L1019.82 29.2718 Q1023.91 27.692 1027.76 26.9223 Q1031.61 26.1121 1035.25 26.1121 Q1045.09 26.1121 1049.96 31.2163 Q1054.82 36.3204 1054.82 46.6907 Z" fill="#000000" fill-rule="evenodd" fill-opacity="1" /><path clip-path="url(#clip040)" d="M1099.09 28.5427 L1099.09 35.5912 Q1095.93 33.9709 1092.53 33.1607 Q1089.13 32.3505 1085.48 32.3505 Q1079.93 32.3505 1077.14 34.0519 Q1074.38 35.7533 1074.38 39.156 Q1074.38 41.7486 1076.37 43.2475 Q1078.35 44.7058 1084.35 46.0426 L1086.9 46.6097 Q1094.84 48.3111 1098.16 51.4303 Q1101.52 54.509 1101.52 60.0587 Q1101.52 66.3781 1096.5 70.0644 Q1091.52 73.7508 1082.77 73.7508 Q1079.12 73.7508 1075.15 73.0216 Q1071.22 72.3329 1066.85 70.9151 L1066.85 63.2184 Q1070.98 65.3654 1074.99 66.4591 Q1079 67.5124 1082.93 67.5124 Q1088.2 67.5124 1091.03 65.73 Q1093.87 63.9071 1093.87 60.6258 Q1093.87 57.5877 1091.8 55.9673 Q1089.78 54.3469 1082.85 52.8481 L1080.26 52.2405 Q1073.33 50.7821 1070.25 47.7845 Q1067.17 44.7463 1067.17 39.4801 Q1067.17 33.0797 1071.71 29.5959 Q1076.25 26.1121 1084.59 26.1121 Q1088.72 26.1121 1092.37 26.7198 Q1096.01 27.3274 1099.09 28.5427 Z" fill="#000000" fill-rule="evenodd" fill-opacity="1" /><path clip-path="url(#clip040)" d="M1113.39 27.2059 L1120.85 27.2059 L1120.85 72.576 L1113.39 72.576 L1113.39 27.2059 M1113.39 9.54393 L1120.85 9.54393 L1120.85 18.9825 L1113.39 18.9825 L1113.39 9.54393 Z" fill="#000000" fill-rule="evenodd" fill-opacity="1" /><path clip-path="url(#clip040)" d="M1165.37 28.5427 L1165.37 35.5912 Q1162.21 33.9709 1158.8 33.1607 Q1155.4 32.3505 1151.76 32.3505 Q1146.21 32.3505 1143.41 34.0519 Q1140.66 35.7533 1140.66 39.156 Q1140.66 41.7486 1142.64 43.2475 Q1144.63 44.7058 1150.62 46.0426 L1153.17 46.6097 Q1161.11 48.3111 1164.43 51.4303 Q1167.8 54.509 1167.8 60.0587 Q1167.8 66.3781 1162.77 70.0644 Q1157.79 73.7508 1149.04 73.7508 Q1145.4 73.7508 1141.43 73.0216 Q1137.5 72.3329 1133.12 70.9151 L1133.12 63.2184 Q1137.25 65.3654 1141.26 66.4591 Q1145.27 67.5124 1149.2 67.5124 Q1154.47 67.5124 1157.3 65.73 Q1160.14 63.9071 1160.14 60.6258 Q1160.14 57.5877 1158.07 55.9673 Q1156.05 54.3469 1149.12 52.8481 L1146.53 52.2405 Q1139.6 50.7821 1136.52 47.7845 Q1133.45 44.7463 1133.45 39.4801 Q1133.45 33.0797 1137.98 29.5959 Q1142.52 26.1121 1150.86 26.1121 Q1155 26.1121 1158.64 26.7198 Q1162.29 27.3274 1165.37 28.5427 Z" fill="#000000" fill-rule="evenodd" fill-opacity="1" /><path clip-path="url(#clip040)" d="M1229.01 9.54393 L1229.01 15.7418 L1221.88 15.7418 Q1217.87 15.7418 1216.29 17.3622 Q1214.75 18.9825 1214.75 23.1955 L1214.75 27.2059 L1227.02 27.2059 L1227.02 32.9987 L1214.75 32.9987 L1214.75 72.576 L1207.25 72.576 L1207.25 32.9987 L1200.12 32.9987 L1200.12 27.2059 L1207.25 27.2059 L1207.25 24.0462 Q1207.25 16.471 1210.78 13.0277 Q1214.3 9.54393 1221.96 9.54393 L1229.01 9.54393 Z" fill="#000000" fill-rule="evenodd" fill-opacity="1" /><path clip-path="url(#clip040)" d="M1234.47 54.671 L1234.47 27.2059 L1241.93 27.2059 L1241.93 54.3874 Q1241.93 60.8284 1244.44 64.0691 Q1246.95 67.2693 1251.97 67.2693 Q1258.01 67.2693 1261.49 63.421 Q1265.02 59.5726 1265.02 52.9291 L1265.02 27.2059 L1272.47 27.2059 L1272.47 72.576 L1265.02 72.576 L1265.02 65.6084 Q1262.3 69.7404 1258.7 71.7658 Q1255.13 73.7508 1250.39 73.7508 Q1242.58 73.7508 1238.53 68.8897 Q1234.47 64.0286 1234.47 54.671 M1253.23 26.1121 L1253.23 26.1121 Z" fill="#000000" fill-rule="evenodd" fill-opacity="1" /><path clip-path="url(#clip040)" d="M1325.54 45.1919 L1325.54 72.576 L1318.09 72.576 L1318.09 45.4349 Q1318.09 38.994 1315.57 35.7938 Q1313.06 32.5936 1308.04 32.5936 Q1302 32.5936 1298.52 36.4419 Q1295.04 40.2903 1295.04 46.9338 L1295.04 72.576 L1287.54 72.576 L1287.54 27.2059 L1295.04 27.2059 L1295.04 34.2544 Q1297.71 30.163 1301.31 28.1376 Q1304.96 26.1121 1309.7 26.1121 Q1317.52 26.1121 1321.53 30.9732 Q1325.54 35.7938 1325.54 45.1919 Z" fill="#000000" fill-rule="evenodd" fill-opacity="1" /><path clip-path="url(#clip040)" d="M1373.06 28.9478 L1373.06 35.9153 Q1369.9 34.1734 1366.7 33.3227 Q1363.54 32.4315 1360.3 32.4315 Q1353.04 32.4315 1349.03 37.0496 Q1345.02 41.6271 1345.02 49.9314 Q1345.02 58.2358 1349.03 62.8538 Q1353.04 67.4314 1360.3 67.4314 Q1363.54 67.4314 1366.7 66.5807 Q1369.9 65.6895 1373.06 63.9476 L1373.06 70.8341 Q1369.94 72.2924 1366.57 73.0216 Q1363.25 73.7508 1359.49 73.7508 Q1349.24 73.7508 1343.2 67.3098 Q1337.17 60.8689 1337.17 49.9314 Q1337.17 38.832 1343.24 32.472 Q1349.36 26.1121 1359.97 26.1121 Q1363.41 26.1121 1366.7 26.8413 Q1369.98 27.5299 1373.06 28.9478 Z" fill="#000000" fill-rule="evenodd" fill-opacity="1" /><path clip-path="url(#clip040)" d="M1393.39 14.324 L1393.39 27.2059 L1408.74 27.2059 L1408.74 32.9987 L1393.39 32.9987 L1393.39 57.6282 Q1393.39 63.1779 1394.89 64.7578 Q1396.43 66.3376 1401.09 66.3376 L1408.74 66.3376 L1408.74 72.576 L1401.09 72.576 Q1392.46 72.576 1389.18 69.3758 Q1385.9 66.1351 1385.9 57.6282 L1385.9 32.9987 L1380.43 32.9987 L1380.43 27.2059 L1385.9 27.2059 L1385.9 14.324 L1393.39 14.324 Z" fill="#000000" fill-rule="evenodd" fill-opacity="1" /><path clip-path="url(#clip040)" d="M1418.55 27.2059 L1426 27.2059 L1426 72.576 L1418.55 72.576 L1418.55 27.2059 M1418.55 9.54393 L1426 9.54393 L1426 18.9825 L1418.55 18.9825 L1418.55 9.54393 Z" fill="#000000" fill-rule="evenodd" fill-opacity="1" /><path clip-path="url(#clip040)" d="M1459.18 32.4315 Q1453.18 32.4315 1449.7 37.1306 Q1446.22 41.7891 1446.22 49.9314 Q1446.22 58.0738 1449.66 62.7728 Q1453.14 67.4314 1459.18 67.4314 Q1465.13 67.4314 1468.62 62.7323 Q1472.1 58.0333 1472.1 49.9314 Q1472.1 41.8701 1468.62 37.1711 Q1465.13 32.4315 1459.18 32.4315 M1459.18 26.1121 Q1468.9 26.1121 1474.45 32.4315 Q1480 38.7509 1480 49.9314 Q1480 61.0714 1474.45 67.4314 Q1468.9 73.7508 1459.18 73.7508 Q1449.42 73.7508 1443.87 67.4314 Q1438.36 61.0714 1438.36 49.9314 Q1438.36 38.7509 1443.87 32.4315 Q1449.42 26.1121 1459.18 26.1121 Z" fill="#000000" fill-rule="evenodd" fill-opacity="1" /><path clip-path="url(#clip040)" d="M1530.07 45.1919 L1530.07 72.576 L1522.62 72.576 L1522.62 45.4349 Q1522.62 38.994 1520.1 35.7938 Q1517.59 32.5936 1512.57 32.5936 Q1506.53 32.5936 1503.05 36.4419 Q1499.57 40.2903 1499.57 46.9338 L1499.57 72.576 L1492.07 72.576 L1492.07 27.2059 L1499.57 27.2059 L1499.57 34.2544 Q1502.24 30.163 1505.84 28.1376 Q1509.49 26.1121 1514.23 26.1121 Q1522.05 26.1121 1526.06 30.9732 Q1530.07 35.7938 1530.07 45.1919 Z" fill="#000000" fill-rule="evenodd" fill-opacity="1" /><path clip-path="url(#clip040)" d="M1573.86 28.5427 L1573.86 35.5912 Q1570.7 33.9709 1567.3 33.1607 Q1563.89 32.3505 1560.25 32.3505 Q1554.7 32.3505 1551.9 34.0519 Q1549.15 35.7533 1549.15 39.156 Q1549.15 41.7486 1551.13 43.2475 Q1553.12 44.7058 1559.11 46.0426 L1561.67 46.6097 Q1569.61 48.3111 1572.93 51.4303 Q1576.29 54.509 1576.29 60.0587 Q1576.29 66.3781 1571.27 70.0644 Q1566.28 73.7508 1557.53 73.7508 Q1553.89 73.7508 1549.92 73.0216 Q1545.99 72.3329 1541.61 70.9151 L1541.61 63.2184 Q1545.75 65.3654 1549.76 66.4591 Q1553.77 67.5124 1557.7 67.5124 Q1562.96 67.5124 1565.8 65.73 Q1568.63 63.9071 1568.63 60.6258 Q1568.63 57.5877 1566.57 55.9673 Q1564.54 54.3469 1557.62 52.8481 L1555.02 52.2405 Q1548.1 50.7821 1545.02 47.7845 Q1541.94 44.7463 1541.94 39.4801 Q1541.94 33.0797 1546.48 29.5959 Q1551.01 26.1121 1559.36 26.1121 Q1563.49 26.1121 1567.13 26.7198 Q1570.78 27.3274 1573.86 28.5427 Z" fill="#000000" fill-rule="evenodd" fill-opacity="1" /><polyline clip-path="url(#clip042)" style="stroke:#0000ff; stroke-linecap:butt; stroke-linejoin:round; stroke-width:12; stroke-opacity:1; fill:none" points="
  247.59,1296.61 250.996,1296.61 254.402,1296.61 257.809,1296.61 261.215,1296.61 264.622,1296.61 268.028,1296.61 271.434,1296.61 274.841,1296.61 278.247,1296.61 
  281.654,1296.61 285.06,1296.61 288.467,1296.61 291.873,1296.61 295.279,1296.61 298.686,1296.61 302.092,1296.61 305.499,1296.61 308.905,1296.61 312.311,1296.61 
  315.718,1296.61 319.124,1296.61 322.531,1296.61 325.937,1296.61 329.344,1296.61 332.75,1296.61 336.156,1296.61 339.563,1296.61 342.969,1296.61 346.376,1296.61 
  349.782,1296.61 353.188,1296.61 356.595,1296.61 360.001,1296.61 363.408,1296.61 366.814,1296.61 370.221,1296.61 373.627,1296.61 377.033,1296.61 380.44,1296.61 
  383.846,1296.61 387.253,1296.61 390.659,1296.61 394.066,1296.61 397.472,1296.61 400.878,1296.61 404.285,1296.61 407.691,1296.61 411.098,1296.61 414.504,1296.61 
  417.91,1296.61 421.317,1296.61 424.723,1296.61 428.13,1296.61 431.536,1296.61 434.943,1296.61 438.349,1296.61 441.755,1296.61 445.162,1296.61 448.568,1296.61 
  451.975,1296.61 455.381,1296.61 458.787,1296.61 462.194,1296.61 465.6,1296.61 469.007,1296.61 472.413,1296.61 475.82,1296.61 479.226,1296.61 482.632,1296.61 
  486.039,1296.61 489.445,1296.61 492.852,1296.61 496.258,1296.61 499.664,1296.61 503.071,1296.61 506.477,1296.61 509.884,1296.61 513.29,1296.61 516.697,1296.61 
  520.103,1296.61 523.509,1296.61 526.916,1296.61 530.322,1296.61 533.729,1296.61 537.135,1296.61 540.541,1296.61 543.948,1296.61 547.354,1296.61 550.761,1296.61 
  554.167,1296.61 557.574,1296.61 560.98,1296.61 564.386,1296.61 567.793,1296.61 571.199,1296.61 574.606,1296.61 578.012,1296.61 581.418,1296.61 584.825,1296.61 
  588.231,1296.61 591.638,1296.61 595.044,1296.61 598.451,1296.61 601.857,1296.61 605.263,1296.61 608.67,1296.61 612.076,1296.61 615.483,1296.61 618.889,1296.61 
  622.296,1296.61 625.702,1296.61 629.108,1296.61 632.515,1296.61 635.921,1296.61 639.328,1296.61 642.734,1296.61 646.14,1296.61 649.547,1296.61 652.953,1296.61 
  656.36,1296.61 659.766,1296.61 663.173,1296.61 666.579,1296.61 669.985,1296.61 673.392,1296.61 676.798,1296.61 680.205,1296.61 683.611,1296.61 687.017,1296.61 
  690.424,1296.61 693.83,1296.61 697.237,1296.61 700.643,1296.61 704.05,1296.61 707.456,1296.61 710.862,1296.61 714.269,1296.61 717.675,1296.61 721.082,1296.61 
  724.488,1296.61 727.894,1296.61 731.301,1296.61 734.707,1296.61 738.114,1296.61 741.52,1296.61 744.927,1296.61 748.333,1296.61 751.739,1296.61 755.146,1296.61 
  758.552,1296.61 761.959,1296.61 765.365,1296.61 768.771,1296.61 772.178,1296.61 775.584,1296.61 778.991,1296.61 782.397,1296.61 785.804,1296.61 789.21,1296.61 
  792.616,1296.61 796.023,1296.61 799.429,1296.61 802.836,1296.61 806.242,1296.61 809.649,1296.61 813.055,1296.61 816.461,1296.61 819.868,1296.61 823.274,1296.61 
  826.681,1296.61 830.087,1296.61 833.493,1296.61 836.9,1296.61 840.306,1296.61 843.713,1296.61 847.119,1296.61 850.526,1296.61 853.932,1296.61 857.338,1296.61 
  860.745,1296.61 864.151,1296.61 867.558,1296.61 870.964,1296.61 874.37,1296.61 877.777,1296.61 881.183,1296.61 884.59,1296.61 887.996,1296.61 891.403,1296.61 
  894.809,1296.61 898.215,1296.61 901.622,1296.61 905.028,1296.61 908.435,1296.61 911.841,1296.61 915.247,1296.61 918.654,1296.61 922.06,1296.61 925.467,1296.61 
  928.873,1296.61 932.28,1296.27 935.686,1295.27 939.092,1293.61 942.499,1291.31 945.905,1288.38 949.312,1284.85 952.718,1280.71 956.124,1275.99 959.531,1270.69 
  962.937,1264.84 966.344,1258.45 969.75,1251.52 973.157,1244.07 976.563,1236.12 979.969,1227.68 983.376,1218.77 986.782,1209.39 990.189,1199.56 993.595,1189.3 
  997.002,1178.61 1000.41,1167.52 1003.81,1156.03 1007.22,1144.16 1010.63,1131.93 1014.03,1119.33 1017.44,1106.4 1020.85,1093.14 1024.25,1079.57 1027.66,1065.7 
  1031.07,1051.54 1034.47,1037.11 1037.88,1022.43 1041.28,1007.49 1044.69,992.329 1048.1,976.946 1051.5,961.36 1054.91,945.583 1058.32,929.628 1061.72,913.511 
  1065.13,897.243 1068.54,880.84 1071.94,864.314 1075.35,847.679 1078.76,830.949 1082.16,814.137 1085.57,797.257 1088.97,780.322 1092.38,763.347 1095.79,746.344 
  1099.19,729.328 1102.6,712.312 1106.01,695.309 1109.41,678.334 1112.82,661.4 1116.23,644.52 1119.63,627.708 1123.04,610.977 1126.45,594.342 1129.85,577.816 
  1133.26,561.413 1136.66,545.146 1140.07,529.028 1143.48,513.074 1146.88,497.297 1150.29,481.71 1153.7,466.328 1157.1,451.163 1160.51,436.23 1163.92,421.542 
  1167.32,407.112 1170.73,392.955 1174.14,379.084 1177.54,365.513 1180.95,352.254 1184.35,339.322 1187.76,326.731 1191.17,314.494 1194.57,302.624 1197.98,291.135 
  1201.39,280.041 1204.79,269.356 1208.2,259.093 1211.61,249.265 1215.01,239.887 1218.42,230.972 1221.83,222.533 1225.23,214.584 1228.64,207.139 1232.04,200.211 
  1235.45,193.815 1238.86,187.963 1242.26,182.669 1245.67,177.947 1249.08,173.81 1252.48,170.272 1255.89,167.348 1259.3,165.049 1262.7,163.39 1266.11,162.385 
  1269.51,162.047 1272.92,162.385 1276.33,163.39 1279.73,165.049 1283.14,167.348 1286.55,170.272 1289.95,173.81 1293.36,177.947 1296.77,182.669 1300.17,187.963 
  1303.58,193.815 1306.99,200.211 1310.39,207.139 1313.8,214.584 1317.2,222.533 1320.61,230.972 1324.02,239.887 1327.42,249.265 1330.83,259.093 1334.24,269.356 
  1337.64,280.041 1341.05,291.135 1344.46,302.624 1347.86,314.494 1351.27,326.731 1354.68,339.322 1358.08,352.254 1361.49,365.513 1364.89,379.084 1368.3,392.955 
  1371.71,407.112 1375.11,421.542 1378.52,436.23 1381.93,451.163 1385.33,466.328 1388.74,481.71 1392.15,497.297 1395.55,513.074 1398.96,529.028 1402.37,545.146 
  1405.77,561.413 1409.18,577.816 1412.58,594.342 1415.99,610.977 1419.4,627.708 1422.8,644.52 1426.21,661.4 1429.62,678.334 1433.02,695.309 1436.43,712.312 
  1439.84,729.328 1443.24,746.344 1446.65,763.347 1450.06,780.322 1453.46,797.257 1456.87,814.137 1460.27,830.949 1463.68,847.679 1467.09,864.314 1470.49,880.84 
  1473.9,897.243 1477.31,913.511 1480.71,929.628 1484.12,945.583 1487.53,961.36 1490.93,976.946 1494.34,992.329 1497.74,1007.49 1501.15,1022.43 1504.56,1037.11 
  1507.96,1051.54 1511.37,1065.7 1514.78,1079.57 1518.18,1093.14 1521.59,1106.4 1525,1119.33 1528.4,1131.93 1531.81,1144.16 1535.22,1156.03 1538.62,1167.52 
  1542.03,1178.61 1545.43,1189.3 1548.84,1199.56 1552.25,1209.39 1555.65,1218.77 1559.06,1227.68 1562.47,1236.12 1565.87,1244.07 1569.28,1251.52 1572.69,1258.45 
  1576.09,1264.84 1579.5,1270.69 1582.91,1275.99 1586.31,1280.71 1589.72,1284.85 1593.12,1288.38 1596.53,1291.31 1599.94,1293.61 1603.34,1295.27 1606.75,1296.27 
  1610.16,1296.61 1613.56,1296.61 1616.97,1296.61 1620.38,1296.61 1623.78,1296.61 1627.19,1296.61 1630.6,1296.61 1634,1296.61 1637.41,1296.61 1640.81,1296.61 
  1644.22,1296.61 1647.63,1296.61 1651.03,1296.61 1654.44,1296.61 1657.85,1296.61 1661.25,1296.61 1664.66,1296.61 1668.07,1296.61 1671.47,1296.61 1674.88,1296.61 
  1678.29,1296.61 1681.69,1296.61 1685.1,1296.61 1688.5,1296.61 1691.91,1296.61 1695.32,1296.61 1698.72,1296.61 1702.13,1296.61 1705.54,1296.61 1708.94,1296.61 
  1712.35,1296.61 1715.76,1296.61 1719.16,1296.61 1722.57,1296.61 1725.97,1296.61 1729.38,1296.61 1732.79,1296.61 1736.19,1296.61 1739.6,1296.61 1743.01,1296.61 
  1746.41,1296.61 1749.82,1296.61 1753.23,1296.61 1756.63,1296.61 1760.04,1296.61 1763.45,1296.61 1766.85,1296.61 1770.26,1296.61 1773.66,1296.61 1777.07,1296.61 
  1780.48,1296.61 1783.88,1296.61 1787.29,1296.61 1790.7,1296.61 1794.1,1296.61 1797.51,1296.61 1800.92,1296.61 1804.32,1296.61 1807.73,1296.61 1811.14,1296.61 
  1814.54,1296.61 1817.95,1296.61 1821.35,1296.61 1824.76,1296.61 1828.17,1296.61 1831.57,1296.61 1834.98,1296.61 1838.39,1296.61 1841.79,1296.61 1845.2,1296.61 
  1848.61,1296.61 1852.01,1296.61 1855.42,1296.61 1858.83,1296.61 1862.23,1296.61 1865.64,1296.61 1869.04,1296.61 1872.45,1296.61 1875.86,1296.61 1879.26,1296.61 
  1882.67,1296.61 1886.08,1296.61 1889.48,1296.61 1892.89,1296.61 1896.3,1296.61 1899.7,1296.61 1903.11,1296.61 1906.52,1296.61 1909.92,1296.61 1913.33,1296.61 
  1916.73,1296.61 1920.14,1296.61 1923.55,1296.61 1926.95,1296.61 1930.36,1296.61 1933.77,1296.61 1937.17,1296.61 1940.58,1296.61 1943.99,1296.61 1947.39,1296.61 
  1950.8,1296.61 1954.2,1296.61 1957.61,1296.61 1961.02,1296.61 1964.42,1296.61 1967.83,1296.61 1971.24,1296.61 1974.64,1296.61 1978.05,1296.61 1981.46,1296.61 
  1984.86,1296.61 1988.27,1296.61 1991.68,1296.61 1995.08,1296.61 1998.49,1296.61 2001.89,1296.61 2005.3,1296.61 2008.71,1296.61 2012.11,1296.61 2015.52,1296.61 
  2018.93,1296.61 2022.33,1296.61 2025.74,1296.61 2029.15,1296.61 2032.55,1296.61 2035.96,1296.61 2039.37,1296.61 2042.77,1296.61 2046.18,1296.61 2049.58,1296.61 
  2052.99,1296.61 2056.4,1296.61 2059.8,1296.61 2063.21,1296.61 2066.62,1296.61 2070.02,1296.61 2073.43,1296.61 2076.84,1296.61 2080.24,1296.61 2083.65,1296.61 
  2087.06,1296.61 2090.46,1296.61 2093.87,1296.61 2097.27,1296.61 2100.68,1296.61 2104.09,1296.61 2107.49,1296.61 2110.9,1296.61 2114.31,1296.61 2117.71,1296.61 
  2121.12,1296.61 2124.53,1296.61 2127.93,1296.61 2131.34,1296.61 2134.75,1296.61 2138.15,1296.61 2141.56,1296.61 2144.96,1296.61 2148.37,1296.61 2151.78,1296.61 
  2155.18,1296.61 2158.59,1296.61 2162,1296.61 2165.4,1296.61 2168.81,1296.61 2172.22,1296.61 2175.62,1296.61 2179.03,1296.61 2182.44,1296.61 2185.84,1296.61 
  2189.25,1296.61 2192.65,1296.61 2196.06,1296.61 2199.47,1296.61 2202.87,1296.61 2206.28,1296.61 2209.69,1296.61 2213.09,1296.61 2216.5,1296.61 2219.91,1296.61 
  2223.31,1296.61 2226.72,1296.61 2230.12,1296.61 2233.53,1296.61 2236.94,1296.61 2240.34,1296.61 2243.75,1296.61 2247.16,1296.61 2250.56,1296.61 2253.97,1296.61 
  2257.38,1296.61 2260.78,1296.61 2264.19,1296.61 2267.6,1296.61 2271,1296.61 2274.41,1296.61 2277.81,1296.61 2281.22,1296.61 2284.63,1296.61 2288.03,1296.61 
  2291.44,1296.61 
  "/>
<polyline clip-path="url(#clip042)" style="stroke:#ff0000; stroke-linecap:butt; stroke-linejoin:round; stroke-width:12; stroke-opacity:1; fill:none" points="
  247.59,1296.61 250.996,1296.61 254.402,1296.61 257.809,1296.61 261.215,1296.61 264.622,1296.61 268.028,1296.61 271.434,1296.61 274.841,1296.61 278.247,1296.61 
  281.654,1296.61 285.06,1296.61 288.467,1296.61 291.873,1296.61 295.279,1296.61 298.686,1296.61 302.092,1296.61 305.499,1296.61 308.905,1296.61 312.311,1296.61 
  315.718,1296.61 319.124,1296.61 322.531,1296.61 325.937,1296.61 329.344,1296.61 332.75,1296.61 336.156,1296.61 339.563,1296.61 342.969,1296.61 346.376,1296.61 
  349.782,1296.61 353.188,1296.61 356.595,1296.61 360.001,1296.61 363.408,1296.61 366.814,1296.61 370.221,1296.61 373.627,1296.61 377.033,1296.61 380.44,1296.61 
  383.846,1296.61 387.253,1296.61 390.659,1296.61 394.066,1296.61 397.472,1296.61 400.878,1296.61 404.285,1296.61 407.691,1296.61 411.098,1296.61 414.504,1296.61 
  417.91,1296.61 421.317,1296.61 424.723,1296.61 428.13,1296.61 431.536,1296.61 434.943,1296.61 438.349,1296.61 441.755,1296.61 445.162,1296.61 448.568,1296.61 
  451.975,1296.61 455.381,1296.61 458.787,1296.61 462.194,1296.61 465.6,1296.61 469.007,1296.61 472.413,1296.61 475.82,1296.61 479.226,1296.61 482.632,1296.61 
  486.039,1296.61 489.445,1296.61 492.852,1296.61 496.258,1296.61 499.664,1296.61 503.071,1296.61 506.477,1296.61 509.884,1296.61 513.29,1296.61 516.697,1296.61 
  520.103,1296.61 523.509,1296.61 526.916,1296.61 530.322,1296.61 533.729,1296.61 537.135,1296.61 540.541,1296.61 543.948,1296.61 547.354,1296.61 550.761,1296.61 
  554.167,1296.61 557.574,1296.61 560.98,1296.61 564.386,1296.61 567.793,1296.61 571.199,1296.61 574.606,1296.61 578.012,1296.61 581.418,1296.61 584.825,1296.61 
  588.231,1296.61 591.638,1296.61 595.044,1296.61 598.451,1296.61 601.857,1296.61 605.263,1296.61 608.67,1296.61 612.076,1296.61 615.483,1296.61 618.889,1296.61 
  622.296,1296.61 625.702,1296.61 629.108,1296.61 632.515,1296.61 635.921,1296.61 639.328,1296.61 642.734,1296.61 646.14,1296.61 649.547,1296.61 652.953,1296.61 
  656.36,1296.61 659.766,1296.61 663.173,1296.61 666.579,1296.61 669.985,1296.61 673.392,1296.61 676.798,1296.61 680.205,1296.61 683.611,1296.61 687.017,1296.61 
  690.424,1296.61 693.83,1296.61 697.237,1296.61 700.643,1296.61 704.05,1296.61 707.456,1296.61 710.862,1296.61 714.269,1296.61 717.675,1296.61 721.082,1296.61 
  724.488,1296.61 727.894,1296.61 731.301,1296.61 734.707,1296.61 738.114,1296.61 741.52,1296.61 744.927,1296.61 748.333,1296.61 751.739,1296.61 755.146,1296.61 
  758.552,1296.61 761.959,1296.61 765.365,1296.61 768.771,1296.61 772.178,1296.61 775.584,1296.61 778.991,1296.61 782.397,1296.61 785.804,1296.61 789.21,1296.61 
  792.616,1296.61 796.023,1296.61 799.429,1296.61 802.836,1296.61 806.242,1296.61 809.649,1296.61 813.055,1296.61 816.461,1296.61 819.868,1296.61 823.274,1296.61 
  826.681,1296.61 830.087,1296.61 833.493,1296.61 836.9,1296.61 840.306,1296.61 843.713,1296.61 847.119,1296.61 850.526,1296.61 853.932,1296.61 857.338,1296.61 
  860.745,1296.61 864.151,1296.61 867.558,1296.61 870.964,1296.61 874.37,1296.61 877.777,1296.61 881.183,1296.61 884.59,1296.61 887.996,1296.61 891.403,1296.61 
  894.809,1296.61 898.215,1296.61 901.622,1296.61 905.028,1296.61 908.435,1296.61 911.841,1296.61 915.247,1296.61 918.654,1296.61 922.06,1296.61 925.467,1296.61 
  928.873,1296.61 932.28,1296.71 935.686,1297.01 939.092,1297.5 942.499,1298.18 945.905,1299.03 949.312,1300.06 952.718,1301.26 956.124,1302.62 959.531,1304.14 
  962.937,1305.8 966.344,1307.61 969.75,1309.55 973.157,1311.62 976.563,1313.82 979.969,1316.14 983.376,1318.57 986.782,1321.1 990.189,1323.74 993.595,1326.47 
  997.002,1329.28 1000.41,1332.18 1003.81,1335.16 1007.22,1338.2 1010.63,1341.31 1014.03,1344.47 1017.44,1347.69 1020.85,1350.95 1024.25,1354.25 1027.66,1357.58 
  1031.07,1360.94 1034.47,1364.32 1037.88,1367.71 1041.28,1371.11 1044.69,1374.52 1048.1,1377.92 1051.5,1381.3 1054.91,1384.68 1058.32,1388.03 1061.72,1391.35 
  1065.13,1394.64 1068.54,1397.88 1071.94,1401.08 1075.35,1404.23 1078.76,1407.31 1082.16,1410.34 1085.57,1413.29 1088.97,1416.16 1092.38,1418.95 1095.79,1421.64 
  1099.19,1424.25 1102.6,1426.75 1106.01,1429.14 1109.41,1431.42 1112.82,1433.58 1116.23,1435.61 1119.63,1437.51 1123.04,1439.27 1126.45,1440.88 1129.85,1442.34 
  1133.26,1443.65 1136.66,1444.79 1140.07,1445.76 1143.48,1446.56 1146.88,1447.18 1150.29,1447.61 1153.7,1447.84 1157.1,1447.87 1160.51,1447.7 1163.92,1447.32 
  1167.32,1446.71 1170.73,1445.88 1174.14,1444.83 1177.54,1443.53 1180.95,1441.99 1184.35,1440.2 1187.76,1438.16 1191.17,1435.85 1194.57,1433.28 1197.98,1430.44 
  1201.39,1427.31 1204.79,1423.9 1208.2,1420.2 1211.61,1416.19 1215.01,1411.89 1218.42,1407.27 1221.83,1402.34 1225.23,1397.08 1228.64,1391.5 1232.04,1385.58 
  1235.45,1379.32 1238.86,1372.71 1242.26,1365.75 1245.67,1358.43 1249.08,1350.74 1252.48,1342.69 1255.89,1334.25 1259.3,1325.43 1262.7,1316.22 1266.11,1306.62 
  1269.51,1296.61 1272.92,1286.6 1276.33,1277 1279.73,1267.79 1283.14,1258.97 1286.55,1250.53 1289.95,1242.47 1293.36,1234.79 1296.77,1227.47 1300.17,1220.51 
  1303.58,1213.9 1306.99,1207.64 1310.39,1201.72 1313.8,1196.14 1317.2,1190.88 1320.61,1185.95 1324.02,1181.33 1327.42,1177.02 1330.83,1173.02 1334.24,1169.32 
  1337.64,1165.91 1341.05,1162.78 1344.46,1159.94 1347.86,1157.36 1351.27,1155.06 1354.68,1153.02 1358.08,1151.23 1361.49,1149.69 1364.89,1148.39 1368.3,1147.33 
  1371.71,1146.51 1375.11,1145.9 1378.52,1145.52 1381.93,1145.35 1385.33,1145.38 1388.74,1145.61 1392.15,1146.04 1395.55,1146.66 1398.96,1147.45 1402.37,1148.43 
  1405.77,1149.57 1409.18,1150.88 1412.58,1152.34 1415.99,1153.95 1419.4,1155.71 1422.8,1157.61 1426.21,1159.64 1429.62,1161.8 1433.02,1164.08 1436.43,1166.47 
  1439.84,1168.97 1443.24,1171.57 1446.65,1174.27 1450.06,1177.06 1453.46,1179.93 1456.87,1182.88 1460.27,1185.91 1463.68,1188.99 1467.09,1192.14 1470.49,1195.34 
  1473.9,1198.58 1477.31,1201.87 1480.71,1205.19 1484.12,1208.54 1487.53,1211.91 1490.93,1215.3 1494.34,1218.7 1497.74,1222.11 1501.15,1225.51 1504.56,1228.9 
  1507.96,1232.28 1511.37,1235.64 1514.78,1238.97 1518.18,1242.27 1521.59,1245.53 1525,1248.75 1528.4,1251.91 1531.81,1255.02 1535.22,1258.06 1538.62,1261.04 
  1542.03,1263.93 1545.43,1266.75 1548.84,1269.48 1552.25,1272.12 1555.65,1274.65 1559.06,1277.08 1562.47,1279.4 1565.87,1281.6 1569.28,1283.67 1572.69,1285.61 
  1576.09,1287.42 1579.5,1289.08 1582.91,1290.6 1586.31,1291.96 1589.72,1293.15 1593.12,1294.18 1596.53,1295.04 1599.94,1295.72 1603.34,1296.21 1606.75,1296.51 
  1610.16,1296.61 1613.56,1296.61 1616.97,1296.61 1620.38,1296.61 1623.78,1296.61 1627.19,1296.61 1630.6,1296.61 1634,1296.61 1637.41,1296.61 1640.81,1296.61 
  1644.22,1296.61 1647.63,1296.61 1651.03,1296.61 1654.44,1296.61 1657.85,1296.61 1661.25,1296.61 1664.66,1296.61 1668.07,1296.61 1671.47,1296.61 1674.88,1296.61 
  1678.29,1296.61 1681.69,1296.61 1685.1,1296.61 1688.5,1296.61 1691.91,1296.61 1695.32,1296.61 1698.72,1296.61 1702.13,1296.61 1705.54,1296.61 1708.94,1296.61 
  1712.35,1296.61 1715.76,1296.61 1719.16,1296.61 1722.57,1296.61 1725.97,1296.61 1729.38,1296.61 1732.79,1296.61 1736.19,1296.61 1739.6,1296.61 1743.01,1296.61 
  1746.41,1296.61 1749.82,1296.61 1753.23,1296.61 1756.63,1296.61 1760.04,1296.61 1763.45,1296.61 1766.85,1296.61 1770.26,1296.61 1773.66,1296.61 1777.07,1296.61 
  1780.48,1296.61 1783.88,1296.61 1787.29,1296.61 1790.7,1296.61 1794.1,1296.61 1797.51,1296.61 1800.92,1296.61 1804.32,1296.61 1807.73,1296.61 1811.14,1296.61 
  1814.54,1296.61 1817.95,1296.61 1821.35,1296.61 1824.76,1296.61 1828.17,1296.61 1831.57,1296.61 1834.98,1296.61 1838.39,1296.61 1841.79,1296.61 1845.2,1296.61 
  1848.61,1296.61 1852.01,1296.61 1855.42,1296.61 1858.83,1296.61 1862.23,1296.61 1865.64,1296.61 1869.04,1296.61 1872.45,1296.61 1875.86,1296.61 1879.26,1296.61 
  1882.67,1296.61 1886.08,1296.61 1889.48,1296.61 1892.89,1296.61 1896.3,1296.61 1899.7,1296.61 1903.11,1296.61 1906.52,1296.61 1909.92,1296.61 1913.33,1296.61 
  1916.73,1296.61 1920.14,1296.61 1923.55,1296.61 1926.95,1296.61 1930.36,1296.61 1933.77,1296.61 1937.17,1296.61 1940.58,1296.61 1943.99,1296.61 1947.39,1296.61 
  1950.8,1296.61 1954.2,1296.61 1957.61,1296.61 1961.02,1296.61 1964.42,1296.61 1967.83,1296.61 1971.24,1296.61 1974.64,1296.61 1978.05,1296.61 1981.46,1296.61 
  1984.86,1296.61 1988.27,1296.61 1991.68,1296.61 1995.08,1296.61 1998.49,1296.61 2001.89,1296.61 2005.3,1296.61 2008.71,1296.61 2012.11,1296.61 2015.52,1296.61 
  2018.93,1296.61 2022.33,1296.61 2025.74,1296.61 2029.15,1296.61 2032.55,1296.61 2035.96,1296.61 2039.37,1296.61 2042.77,1296.61 2046.18,1296.61 2049.58,1296.61 
  2052.99,1296.61 2056.4,1296.61 2059.8,1296.61 2063.21,1296.61 2066.62,1296.61 2070.02,1296.61 2073.43,1296.61 2076.84,1296.61 2080.24,1296.61 2083.65,1296.61 
  2087.06,1296.61 2090.46,1296.61 2093.87,1296.61 2097.27,1296.61 2100.68,1296.61 2104.09,1296.61 2107.49,1296.61 2110.9,1296.61 2114.31,1296.61 2117.71,1296.61 
  2121.12,1296.61 2124.53,1296.61 2127.93,1296.61 2131.34,1296.61 2134.75,1296.61 2138.15,1296.61 2141.56,1296.61 2144.96,1296.61 2148.37,1296.61 2151.78,1296.61 
  2155.18,1296.61 2158.59,1296.61 2162,1296.61 2165.4,1296.61 2168.81,1296.61 2172.22,1296.61 2175.62,1296.61 2179.03,1296.61 2182.44,1296.61 2185.84,1296.61 
  2189.25,1296.61 2192.65,1296.61 2196.06,1296.61 2199.47,1296.61 2202.87,1296.61 2206.28,1296.61 2209.69,1296.61 2213.09,1296.61 2216.5,1296.61 2219.91,1296.61 
  2223.31,1296.61 2226.72,1296.61 2230.12,1296.61 2233.53,1296.61 2236.94,1296.61 2240.34,1296.61 2243.75,1296.61 2247.16,1296.61 2250.56,1296.61 2253.97,1296.61 
  2257.38,1296.61 2260.78,1296.61 2264.19,1296.61 2267.6,1296.61 2271,1296.61 2274.41,1296.61 2277.81,1296.61 2281.22,1296.61 2284.63,1296.61 2288.03,1296.61 
  2291.44,1296.61 
  "/>
<path clip-path="url(#clip040)" d="
M1807.64 485.992 L2280.54 485.992 L2280.54 168.905 L1807.64 168.905  Z
  " fill="#ffffff" fill-rule="evenodd" fill-opacity="1"/>
<polyline clip-path="url(#clip040)" style="stroke:#000000; stroke-linecap:butt; stroke-linejoin:round; stroke-width:4; stroke-opacity:1; fill:none" points="
  1807.64,485.992 2280.54,485.992 2280.54,168.905 1807.64,168.905 1807.64,485.992 
  "/>
<polyline clip-path="url(#clip040)" style="stroke:#0000ff; stroke-linecap:butt; stroke-linejoin:round; stroke-width:7.5; stroke-opacity:1; fill:none" points="
  1831.71,274.601 1976.14,274.601 
  "/>
<path clip-path="url(#clip040)" d="M2047.38 272.942 Q2047.38 277.377 2045.1 281.813 Q2042.81 286.249 2039.08 289.674 Q2035.35 293.056 2030.25 295.252 Q2025.16 297.447 2019.84 297.623 L2016.42 311.018 Q2015.76 314.268 2015.41 314.619 Q2015.06 314.97 2014.53 314.97 Q2013.43 314.97 2013.43 313.96 Q2013.43 313.653 2015.41 306.055 L2017.52 297.623 Q2009.52 297.184 2004.87 292.573 Q2000.21 287.961 2000.21 281.33 Q2000.21 276.85 2002.5 272.415 Q2004.82 267.935 2008.56 264.553 Q2012.33 261.172 2017.43 259.02 Q2022.52 256.868 2027.75 256.692 L2032.97 235.92 Q2033.24 234.734 2033.46 234.426 Q2033.68 234.119 2034.34 234.119 Q2034.82 234.119 2035.08 234.339 Q2035.35 234.558 2035.35 234.778 L2035.39 234.997 L2035.13 236.271 L2030.08 256.692 Q2034.56 257 2038.02 258.581 Q2041.49 260.162 2043.47 262.533 Q2045.45 264.861 2046.41 267.496 Q2047.38 270.131 2047.38 272.942 M2027.22 258.669 Q2022.39 259.108 2018.31 261.479 Q2014.22 263.851 2011.59 267.364 Q2008.95 270.834 2007.5 275.006 Q2006.05 279.134 2006.05 283.218 Q2006.05 286.424 2007.11 288.884 Q2008.21 291.343 2010.01 292.748 Q2011.81 294.11 2013.78 294.856 Q2015.8 295.559 2017.95 295.647 L2027.22 258.669 M2041.49 271.053 Q2041.49 265.344 2038.2 262.138 Q2034.91 258.932 2029.55 258.669 L2020.28 295.647 Q2024.19 295.339 2027.62 293.714 Q2031.09 292.046 2033.59 289.586 Q2036.09 287.083 2037.89 284.009 Q2039.69 280.891 2040.57 277.597 Q2041.49 274.259 2041.49 271.053 Z" fill="#000000" fill-rule="evenodd" fill-opacity="1" /><path clip-path="url(#clip040)" d="M2056.52 339.709 Q2056.52 338.571 2056.61 338.233 Q2056.73 337.895 2057.22 337.372 L2069.3 323.907 Q2075.91 316.468 2075.91 309.981 Q2075.91 305.769 2073.7 302.757 Q2071.52 299.744 2067.49 299.744 Q2064.72 299.744 2062.39 301.435 Q2060.05 303.126 2058.97 306.138 Q2059.16 306.077 2059.8 306.077 Q2061.37 306.077 2062.23 307.061 Q2063.12 308.044 2063.12 309.366 Q2063.12 311.057 2062.02 311.887 Q2060.94 312.686 2059.87 312.686 Q2059.44 312.686 2058.85 312.594 Q2058.3 312.502 2057.41 311.641 Q2056.52 310.75 2056.52 309.182 Q2056.52 304.786 2059.84 301.281 Q2063.19 297.777 2068.29 297.777 Q2074.07 297.777 2077.85 301.22 Q2081.66 304.632 2081.66 309.981 Q2081.66 311.856 2081.08 313.578 Q2080.52 315.269 2079.76 316.591 Q2079.02 317.913 2076.99 320.034 Q2074.96 322.155 2073.33 323.661 Q2071.7 325.168 2068.04 328.365 L2061.37 334.851 L2072.72 334.851 Q2078.25 334.851 2078.68 334.359 Q2079.3 333.468 2080.06 328.764 L2081.66 328.764 L2079.88 339.709 L2056.52 339.709 Z" fill="#000000" fill-rule="evenodd" fill-opacity="1" /><path clip-path="url(#clip040)" d="M2102.76 300.359 Q2102.76 301.711 2101.66 302.726 Q2100.58 303.71 2099.41 303.71 Q2098.34 303.71 2097.66 303.064 Q2097.01 302.388 2097.01 301.435 Q2097.01 300.174 2098.09 299.129 Q2099.17 298.084 2100.43 298.084 Q2101.47 298.084 2102.12 298.73 Q2102.76 299.375 2102.76 300.359 M2103.32 330.701 Q2103.32 330.947 2103.04 331.931 Q2102.76 332.884 2102.09 334.359 Q2101.44 335.804 2100.55 337.157 Q2099.66 338.51 2098.18 339.463 Q2096.74 340.416 2095.08 340.416 Q2092.83 340.416 2091.36 338.94 Q2089.91 337.464 2089.91 335.251 Q2089.91 334.052 2091.36 330.209 Q2095.54 319.019 2095.69 318.558 Q2096.4 316.806 2096.4 315.269 Q2096.4 314.562 2096.25 314.131 Q2096.09 313.67 2095.78 313.516 Q2095.48 313.332 2095.29 313.301 Q2095.14 313.27 2094.83 313.27 Q2093.02 313.27 2091.33 315.115 Q2089.64 316.96 2088.47 321.079 Q2088.22 321.847 2088.07 322.032 Q2087.91 322.216 2087.45 322.216 Q2086.68 322.186 2086.68 321.571 Q2086.68 321.386 2086.9 320.679 Q2087.12 319.941 2087.51 318.835 Q2087.91 317.697 2088.62 316.529 Q2089.33 315.33 2090.19 314.285 Q2091.08 313.24 2092.34 312.563 Q2093.6 311.887 2095.02 311.887 Q2097.32 311.887 2098.74 313.393 Q2100.18 314.869 2100.18 317.052 Q2100.18 318.251 2099.35 320.372 Q2098.34 323.139 2097.97 324.03 L2095.51 330.64 Q2094.62 333.038 2094.34 333.775 Q2094.09 334.482 2093.88 335.343 Q2093.69 336.173 2093.69 336.942 Q2093.69 338.018 2094.03 338.51 Q2094.4 339.001 2095.2 339.001 Q2097.41 339.001 2099.04 336.819 Q2100.67 334.605 2101.63 331.224 Q2101.66 331.132 2101.69 330.978 Q2101.93 330.209 2102.18 330.117 Q2102.3 330.086 2102.55 330.086 Q2103.32 330.086 2103.32 330.701 Z" fill="#000000" fill-rule="evenodd" fill-opacity="1" /><path clip-path="url(#clip040)" d="M2167.21 323.077 Q2167.58 323.446 2167.58 323.969 Q2167.58 324.491 2167.21 324.86 Q2166.84 325.229 2166.32 325.229 L2126.91 325.229 Q2126.39 325.229 2126.02 324.86 Q2125.65 324.491 2125.65 323.969 Q2125.65 323.446 2126.02 323.077 Q2126.39 322.708 2126.91 322.708 L2166.32 322.708 Q2166.84 322.708 2167.21 323.077 Z" fill="#000000" fill-rule="evenodd" fill-opacity="1" /><path clip-path="url(#clip040)" d="M2191.62 303.771 L2191.62 301.804 Q2199.18 301.804 2203.09 297.777 Q2204.16 297.777 2204.35 298.022 Q2204.53 298.268 2204.53 299.406 L2204.53 334.728 Q2204.53 336.604 2205.45 337.188 Q2206.37 337.772 2210.4 337.772 L2212.4 337.772 L2212.4 339.709 Q2210.19 339.524 2202.19 339.524 Q2194.2 339.524 2192.02 339.709 L2192.02 337.772 L2194.02 337.772 Q2197.98 337.772 2198.94 337.218 Q2199.89 336.634 2199.89 334.728 L2199.89 302.111 Q2196.6 303.771 2191.62 303.771 Z" fill="#000000" fill-rule="evenodd" fill-opacity="1" /><polyline clip-path="url(#clip040)" style="stroke:#ff0000; stroke-linecap:butt; stroke-linejoin:round; stroke-width:7.5; stroke-opacity:1; fill:none" points="
  1831.71,380.297 1976.14,380.297 
  "/>
<path clip-path="url(#clip040)" d="M2047.38 378.638 Q2047.38 383.073 2045.1 387.509 Q2042.81 391.944 2039.08 395.37 Q2035.35 398.752 2030.25 400.947 Q2025.16 403.143 2019.84 403.319 L2016.42 416.714 Q2015.76 419.964 2015.41 420.315 Q2015.06 420.666 2014.53 420.666 Q2013.43 420.666 2013.43 419.656 Q2013.43 419.349 2015.41 411.751 L2017.52 403.319 Q2009.52 402.88 2004.87 398.269 Q2000.21 393.657 2000.21 387.026 Q2000.21 382.546 2002.5 378.111 Q2004.82 373.631 2008.56 370.249 Q2012.33 366.868 2017.43 364.716 Q2022.52 362.564 2027.75 362.388 L2032.97 341.615 Q2033.24 340.43 2033.46 340.122 Q2033.68 339.815 2034.34 339.815 Q2034.82 339.815 2035.08 340.034 Q2035.35 340.254 2035.35 340.474 L2035.39 340.693 L2035.13 341.967 L2030.08 362.388 Q2034.56 362.696 2038.02 364.277 Q2041.49 365.858 2043.47 368.229 Q2045.45 370.557 2046.41 373.192 Q2047.38 375.827 2047.38 378.638 M2027.22 364.365 Q2022.39 364.804 2018.31 367.175 Q2014.22 369.547 2011.59 373.06 Q2008.95 376.53 2007.5 380.702 Q2006.05 384.83 2006.05 388.914 Q2006.05 392.12 2007.11 394.579 Q2008.21 397.039 2010.01 398.444 Q2011.81 399.806 2013.78 400.552 Q2015.8 401.255 2017.95 401.343 L2027.22 364.365 M2041.49 376.749 Q2041.49 371.04 2038.2 367.834 Q2034.91 364.628 2029.55 364.365 L2020.28 401.343 Q2024.19 401.035 2027.62 399.41 Q2031.09 397.742 2033.59 395.282 Q2036.09 392.779 2037.89 389.705 Q2039.69 386.587 2040.57 383.293 Q2041.49 379.955 2041.49 376.749 Z" fill="#000000" fill-rule="evenodd" fill-opacity="1" /><path clip-path="url(#clip040)" d="M2056.52 445.404 Q2056.52 444.267 2056.61 443.929 Q2056.73 443.591 2057.22 443.068 L2069.3 429.603 Q2075.91 422.164 2075.91 415.677 Q2075.91 411.465 2073.7 408.453 Q2071.52 405.44 2067.49 405.44 Q2064.72 405.44 2062.39 407.131 Q2060.05 408.822 2058.97 411.834 Q2059.16 411.773 2059.8 411.773 Q2061.37 411.773 2062.23 412.757 Q2063.12 413.74 2063.12 415.062 Q2063.12 416.753 2062.02 417.583 Q2060.94 418.382 2059.87 418.382 Q2059.44 418.382 2058.85 418.29 Q2058.3 418.198 2057.41 417.337 Q2056.52 416.446 2056.52 414.878 Q2056.52 410.482 2059.84 406.977 Q2063.19 403.472 2068.29 403.472 Q2074.07 403.472 2077.85 406.916 Q2081.66 410.328 2081.66 415.677 Q2081.66 417.552 2081.08 419.274 Q2080.52 420.965 2079.76 422.287 Q2079.02 423.608 2076.99 425.73 Q2074.96 427.851 2073.33 429.357 Q2071.7 430.864 2068.04 434.061 L2061.37 440.547 L2072.72 440.547 Q2078.25 440.547 2078.68 440.055 Q2079.3 439.164 2080.06 434.46 L2081.66 434.46 L2079.88 445.404 L2056.52 445.404 Z" fill="#000000" fill-rule="evenodd" fill-opacity="1" /><path clip-path="url(#clip040)" d="M2102.76 406.055 Q2102.76 407.407 2101.66 408.422 Q2100.58 409.406 2099.41 409.406 Q2098.34 409.406 2097.66 408.76 Q2097.01 408.084 2097.01 407.131 Q2097.01 405.87 2098.09 404.825 Q2099.17 403.78 2100.43 403.78 Q2101.47 403.78 2102.12 404.425 Q2102.76 405.071 2102.76 406.055 M2103.32 436.397 Q2103.32 436.643 2103.04 437.627 Q2102.76 438.58 2102.09 440.055 Q2101.44 441.5 2100.55 442.853 Q2099.66 444.206 2098.18 445.159 Q2096.74 446.112 2095.08 446.112 Q2092.83 446.112 2091.36 444.636 Q2089.91 443.16 2089.91 440.947 Q2089.91 439.748 2091.36 435.905 Q2095.54 424.715 2095.69 424.254 Q2096.4 422.502 2096.4 420.965 Q2096.4 420.258 2096.25 419.827 Q2096.09 419.366 2095.78 419.212 Q2095.48 419.028 2095.29 418.997 Q2095.14 418.966 2094.83 418.966 Q2093.02 418.966 2091.33 420.811 Q2089.64 422.655 2088.47 426.775 Q2088.22 427.543 2088.07 427.728 Q2087.91 427.912 2087.45 427.912 Q2086.68 427.882 2086.68 427.267 Q2086.68 427.082 2086.9 426.375 Q2087.12 425.637 2087.51 424.531 Q2087.91 423.393 2088.62 422.225 Q2089.33 421.026 2090.19 419.981 Q2091.08 418.936 2092.34 418.259 Q2093.6 417.583 2095.02 417.583 Q2097.32 417.583 2098.74 419.089 Q2100.18 420.565 2100.18 422.748 Q2100.18 423.947 2099.35 426.068 Q2098.34 428.835 2097.97 429.726 L2095.51 436.336 Q2094.62 438.733 2094.34 439.471 Q2094.09 440.178 2093.88 441.039 Q2093.69 441.869 2093.69 442.638 Q2093.69 443.714 2094.03 444.206 Q2094.4 444.697 2095.2 444.697 Q2097.41 444.697 2099.04 442.515 Q2100.67 440.301 2101.63 436.92 Q2101.66 436.827 2101.69 436.674 Q2101.93 435.905 2102.18 435.813 Q2102.3 435.782 2102.55 435.782 Q2103.32 435.782 2103.32 436.397 Z" fill="#000000" fill-rule="evenodd" fill-opacity="1" /></svg>
