<?xml version="1.0" encoding="utf-8"?>
<svg xmlns="http://www.w3.org/2000/svg" xmlns:xlink="http://www.w3.org/1999/xlink" width="600" height="400" viewBox="0 0 2400 1600">
<defs>
  <clipPath id="clip760">
    <rect x="0" y="0" width="2400" height="1600"/>
  </clipPath>
</defs>
<path clip-path="url(#clip760)" d="
M0 1600 L2400 1600 L2400 0 L0 0  Z
  " fill="#ffffff" fill-rule="evenodd" fill-opacity="1"/>
<defs>
  <clipPath id="clip761">
    <rect x="480" y="0" width="1681" height="1600"/>
  </clipPath>
</defs>
<path clip-path="url(#clip760)" d="
M256.556 1423.18 L2352.76 1423.18 L2352.76 47.2441 L256.556 47.2441  Z
  " fill="#ffffff" fill-rule="evenodd" fill-opacity="1"/>
<defs>
  <clipPath id="clip762">
    <rect x="256" y="47" width="2097" height="1377"/>
  </clipPath>
</defs>
<polyline clip-path="url(#clip762)" style="stroke:#000000; stroke-linecap:butt; stroke-linejoin:round; stroke-width:2; stroke-opacity:0.1; fill:none" points="
  315.882,1423.18 315.882,47.2441 
  "/>
<polyline clip-path="url(#clip762)" style="stroke:#000000; stroke-linecap:butt; stroke-linejoin:round; stroke-width:2; stroke-opacity:0.1; fill:none" points="
  810.269,1423.18 810.269,47.2441 
  "/>
<polyline clip-path="url(#clip762)" style="stroke:#000000; stroke-linecap:butt; stroke-linejoin:round; stroke-width:2; stroke-opacity:0.1; fill:none" points="
  1304.66,1423.18 1304.66,47.2441 
  "/>
<polyline clip-path="url(#clip762)" style="stroke:#000000; stroke-linecap:butt; stroke-linejoin:round; stroke-width:2; stroke-opacity:0.1; fill:none" points="
  1799.04,1423.18 1799.04,47.2441 
  "/>
<polyline clip-path="url(#clip762)" style="stroke:#000000; stroke-linecap:butt; stroke-linejoin:round; stroke-width:2; stroke-opacity:0.1; fill:none" points="
  2293.43,1423.18 2293.43,47.2441 
  "/>
<polyline clip-path="url(#clip760)" style="stroke:#000000; stroke-linecap:butt; stroke-linejoin:round; stroke-width:4; stroke-opacity:1; fill:none" points="
  256.556,1423.18 2352.76,1423.18 
  "/>
<polyline clip-path="url(#clip760)" style="stroke:#000000; stroke-linecap:butt; stroke-linejoin:round; stroke-width:4; stroke-opacity:1; fill:none" points="
  315.882,1423.18 315.882,1404.28 
  "/>
<polyline clip-path="url(#clip760)" style="stroke:#000000; stroke-linecap:butt; stroke-linejoin:round; stroke-width:4; stroke-opacity:1; fill:none" points="
  810.269,1423.18 810.269,1404.28 
  "/>
<polyline clip-path="url(#clip760)" style="stroke:#000000; stroke-linecap:butt; stroke-linejoin:round; stroke-width:4; stroke-opacity:1; fill:none" points="
  1304.66,1423.18 1304.66,1404.28 
  "/>
<polyline clip-path="url(#clip760)" style="stroke:#000000; stroke-linecap:butt; stroke-linejoin:round; stroke-width:4; stroke-opacity:1; fill:none" points="
  1799.04,1423.18 1799.04,1404.28 
  "/>
<polyline clip-path="url(#clip760)" style="stroke:#000000; stroke-linecap:butt; stroke-linejoin:round; stroke-width:4; stroke-opacity:1; fill:none" points="
  2293.43,1423.18 2293.43,1404.28 
  "/>
<path clip-path="url(#clip760)" d="M278.186 1454.1 Q274.575 1454.1 272.746 1457.66 Q270.94 1461.2 270.94 1468.33 Q270.94 1475.44 272.746 1479.01 Q274.575 1482.55 278.186 1482.55 Q281.82 1482.55 283.626 1479.01 Q285.454 1475.44 285.454 1468.33 Q285.454 1461.2 283.626 1457.66 Q281.82 1454.1 278.186 1454.1 M278.186 1450.39 Q283.996 1450.39 287.051 1455 Q290.13 1459.58 290.13 1468.33 Q290.13 1477.06 287.051 1481.67 Q283.996 1486.25 278.186 1486.25 Q272.376 1486.25 269.297 1481.67 Q266.241 1477.06 266.241 1468.33 Q266.241 1459.58 269.297 1455 Q272.376 1450.39 278.186 1450.39 Z" fill="#000000" fill-rule="evenodd" fill-opacity="1" /><path clip-path="url(#clip760)" d="M298.348 1479.7 L303.232 1479.7 L303.232 1485.58 L298.348 1485.58 L298.348 1479.7 Z" fill="#000000" fill-rule="evenodd" fill-opacity="1" /><path clip-path="url(#clip760)" d="M323.417 1454.1 Q319.806 1454.1 317.977 1457.66 Q316.172 1461.2 316.172 1468.33 Q316.172 1475.44 317.977 1479.01 Q319.806 1482.55 323.417 1482.55 Q327.051 1482.55 328.857 1479.01 Q330.685 1475.44 330.685 1468.33 Q330.685 1461.2 328.857 1457.66 Q327.051 1454.1 323.417 1454.1 M323.417 1450.39 Q329.227 1450.39 332.283 1455 Q335.361 1459.58 335.361 1468.33 Q335.361 1477.06 332.283 1481.67 Q329.227 1486.25 323.417 1486.25 Q317.607 1486.25 314.528 1481.67 Q311.473 1477.06 311.473 1468.33 Q311.473 1459.58 314.528 1455 Q317.607 1450.39 323.417 1450.39 Z" fill="#000000" fill-rule="evenodd" fill-opacity="1" /><path clip-path="url(#clip760)" d="M353.579 1454.1 Q349.968 1454.1 348.139 1457.66 Q346.334 1461.2 346.334 1468.33 Q346.334 1475.44 348.139 1479.01 Q349.968 1482.55 353.579 1482.55 Q357.213 1482.55 359.019 1479.01 Q360.847 1475.44 360.847 1468.33 Q360.847 1461.2 359.019 1457.66 Q357.213 1454.1 353.579 1454.1 M353.579 1450.39 Q359.389 1450.39 362.445 1455 Q365.523 1459.58 365.523 1468.33 Q365.523 1477.06 362.445 1481.67 Q359.389 1486.25 353.579 1486.25 Q347.769 1486.25 344.69 1481.67 Q341.634 1477.06 341.634 1468.33 Q341.634 1459.58 344.69 1455 Q347.769 1450.39 353.579 1450.39 Z" fill="#000000" fill-rule="evenodd" fill-opacity="1" /><path clip-path="url(#clip760)" d="M773.07 1454.1 Q769.459 1454.1 767.63 1457.66 Q765.825 1461.2 765.825 1468.33 Q765.825 1475.44 767.63 1479.01 Q769.459 1482.55 773.07 1482.55 Q776.704 1482.55 778.51 1479.01 Q780.339 1475.44 780.339 1468.33 Q780.339 1461.2 778.51 1457.66 Q776.704 1454.1 773.07 1454.1 M773.07 1450.39 Q778.88 1450.39 781.936 1455 Q785.015 1459.58 785.015 1468.33 Q785.015 1477.06 781.936 1481.67 Q778.88 1486.25 773.07 1486.25 Q767.26 1486.25 764.181 1481.67 Q761.126 1477.06 761.126 1468.33 Q761.126 1459.58 764.181 1455 Q767.26 1450.39 773.07 1450.39 Z" fill="#000000" fill-rule="evenodd" fill-opacity="1" /><path clip-path="url(#clip760)" d="M793.232 1479.7 L798.116 1479.7 L798.116 1485.58 L793.232 1485.58 L793.232 1479.7 Z" fill="#000000" fill-rule="evenodd" fill-opacity="1" /><path clip-path="url(#clip760)" d="M812.329 1481.64 L828.649 1481.64 L828.649 1485.58 L806.704 1485.58 L806.704 1481.64 Q809.366 1478.89 813.95 1474.26 Q818.556 1469.61 819.737 1468.27 Q821.982 1465.74 822.862 1464.01 Q823.764 1462.25 823.764 1460.56 Q823.764 1457.8 821.82 1456.07 Q819.899 1454.33 816.797 1454.33 Q814.598 1454.33 812.144 1455.09 Q809.714 1455.86 806.936 1457.41 L806.936 1452.69 Q809.76 1451.55 812.214 1450.97 Q814.667 1450.39 816.704 1450.39 Q822.075 1450.39 825.269 1453.08 Q828.463 1455.77 828.463 1460.26 Q828.463 1462.39 827.653 1464.31 Q826.866 1466.2 824.76 1468.8 Q824.181 1469.47 821.079 1472.69 Q817.977 1475.88 812.329 1481.64 Z" fill="#000000" fill-rule="evenodd" fill-opacity="1" /><path clip-path="url(#clip760)" d="M838.51 1451.02 L856.866 1451.02 L856.866 1454.96 L842.792 1454.96 L842.792 1463.43 Q843.811 1463.08 844.829 1462.92 Q845.848 1462.73 846.866 1462.73 Q852.653 1462.73 856.033 1465.9 Q859.412 1469.08 859.412 1474.49 Q859.412 1480.07 855.94 1483.17 Q852.468 1486.25 846.149 1486.25 Q843.973 1486.25 841.704 1485.88 Q839.459 1485.51 837.051 1484.77 L837.051 1480.07 Q839.135 1481.2 841.357 1481.76 Q843.579 1482.32 846.056 1482.32 Q850.061 1482.32 852.399 1480.21 Q854.736 1478.1 854.736 1474.49 Q854.736 1470.88 852.399 1468.77 Q850.061 1466.67 846.056 1466.67 Q844.181 1466.67 842.306 1467.08 Q840.454 1467.5 838.51 1468.38 L838.51 1451.02 Z" fill="#000000" fill-rule="evenodd" fill-opacity="1" /><path clip-path="url(#clip760)" d="M1266.96 1454.1 Q1263.35 1454.1 1261.52 1457.66 Q1259.71 1461.2 1259.71 1468.33 Q1259.71 1475.44 1261.52 1479.01 Q1263.35 1482.55 1266.96 1482.55 Q1270.59 1482.55 1272.4 1479.01 Q1274.23 1475.44 1274.23 1468.33 Q1274.23 1461.2 1272.4 1457.66 Q1270.59 1454.1 1266.96 1454.1 M1266.96 1450.39 Q1272.77 1450.39 1275.83 1455 Q1278.9 1459.58 1278.9 1468.33 Q1278.9 1477.06 1275.83 1481.67 Q1272.77 1486.25 1266.96 1486.25 Q1261.15 1486.25 1258.07 1481.67 Q1255.01 1477.06 1255.01 1468.33 Q1255.01 1459.58 1258.07 1455 Q1261.15 1450.39 1266.96 1450.39 Z" fill="#000000" fill-rule="evenodd" fill-opacity="1" /><path clip-path="url(#clip760)" d="M1287.12 1479.7 L1292.01 1479.7 L1292.01 1485.58 L1287.12 1485.58 L1287.12 1479.7 Z" fill="#000000" fill-rule="evenodd" fill-opacity="1" /><path clip-path="url(#clip760)" d="M1302.24 1451.02 L1320.59 1451.02 L1320.59 1454.96 L1306.52 1454.96 L1306.52 1463.43 Q1307.54 1463.08 1308.56 1462.92 Q1309.57 1462.73 1310.59 1462.73 Q1316.38 1462.73 1319.76 1465.9 Q1323.14 1469.08 1323.14 1474.49 Q1323.14 1480.07 1319.67 1483.17 Q1316.2 1486.25 1309.88 1486.25 Q1307.7 1486.25 1305.43 1485.88 Q1303.19 1485.51 1300.78 1484.77 L1300.78 1480.07 Q1302.86 1481.2 1305.08 1481.76 Q1307.31 1482.32 1309.78 1482.32 Q1313.79 1482.32 1316.13 1480.21 Q1318.46 1478.1 1318.46 1474.49 Q1318.46 1470.88 1316.13 1468.77 Q1313.79 1466.67 1309.78 1466.67 Q1307.91 1466.67 1306.03 1467.08 Q1304.18 1467.5 1302.24 1468.38 L1302.24 1451.02 Z" fill="#000000" fill-rule="evenodd" fill-opacity="1" /><path clip-path="url(#clip760)" d="M1342.35 1454.1 Q1338.74 1454.1 1336.91 1457.66 Q1335.11 1461.2 1335.11 1468.33 Q1335.11 1475.44 1336.91 1479.01 Q1338.74 1482.55 1342.35 1482.55 Q1345.99 1482.55 1347.79 1479.01 Q1349.62 1475.44 1349.62 1468.33 Q1349.62 1461.2 1347.79 1457.66 Q1345.99 1454.1 1342.35 1454.1 M1342.35 1450.39 Q1348.16 1450.39 1351.22 1455 Q1354.3 1459.58 1354.3 1468.33 Q1354.3 1477.06 1351.22 1481.67 Q1348.16 1486.25 1342.35 1486.25 Q1336.54 1486.25 1333.46 1481.67 Q1330.41 1477.06 1330.41 1468.33 Q1330.41 1459.58 1333.46 1455 Q1336.54 1450.39 1342.35 1450.39 Z" fill="#000000" fill-rule="evenodd" fill-opacity="1" /><path clip-path="url(#clip760)" d="M1761.84 1454.1 Q1758.23 1454.1 1756.4 1457.66 Q1754.6 1461.2 1754.6 1468.33 Q1754.6 1475.44 1756.4 1479.01 Q1758.23 1482.55 1761.84 1482.55 Q1765.48 1482.55 1767.28 1479.01 Q1769.11 1475.44 1769.11 1468.33 Q1769.11 1461.2 1767.28 1457.66 Q1765.48 1454.1 1761.84 1454.1 M1761.84 1450.39 Q1767.65 1450.39 1770.71 1455 Q1773.79 1459.58 1773.79 1468.33 Q1773.79 1477.06 1770.71 1481.67 Q1767.65 1486.25 1761.84 1486.25 Q1756.03 1486.25 1752.95 1481.67 Q1749.9 1477.06 1749.9 1468.33 Q1749.9 1459.58 1752.95 1455 Q1756.03 1450.39 1761.84 1450.39 Z" fill="#000000" fill-rule="evenodd" fill-opacity="1" /><path clip-path="url(#clip760)" d="M1782.01 1479.7 L1786.89 1479.7 L1786.89 1485.58 L1782.01 1485.58 L1782.01 1479.7 Z" fill="#000000" fill-rule="evenodd" fill-opacity="1" /><path clip-path="url(#clip760)" d="M1795.89 1451.02 L1818.12 1451.02 L1818.12 1453.01 L1805.57 1485.58 L1800.69 1485.58 L1812.49 1454.96 L1795.89 1454.96 L1795.89 1451.02 Z" fill="#000000" fill-rule="evenodd" fill-opacity="1" /><path clip-path="url(#clip760)" d="M1827.28 1451.02 L1845.64 1451.02 L1845.64 1454.96 L1831.57 1454.96 L1831.57 1463.43 Q1832.58 1463.08 1833.6 1462.92 Q1834.62 1462.73 1835.64 1462.73 Q1841.43 1462.73 1844.81 1465.9 Q1848.19 1469.08 1848.19 1474.49 Q1848.19 1480.07 1844.71 1483.17 Q1841.24 1486.25 1834.92 1486.25 Q1832.75 1486.25 1830.48 1485.88 Q1828.23 1485.51 1825.82 1484.77 L1825.82 1480.07 Q1827.91 1481.2 1830.13 1481.76 Q1832.35 1482.32 1834.83 1482.32 Q1838.83 1482.32 1841.17 1480.21 Q1843.51 1478.1 1843.51 1474.49 Q1843.51 1470.88 1841.17 1468.77 Q1838.83 1466.67 1834.83 1466.67 Q1832.95 1466.67 1831.08 1467.08 Q1829.23 1467.5 1827.28 1468.38 L1827.28 1451.02 Z" fill="#000000" fill-rule="evenodd" fill-opacity="1" /><path clip-path="url(#clip760)" d="M2245.5 1481.64 L2253.14 1481.64 L2253.14 1455.28 L2244.83 1456.95 L2244.83 1452.69 L2253.09 1451.02 L2257.77 1451.02 L2257.77 1481.64 L2265.41 1481.64 L2265.41 1485.58 L2245.5 1485.58 L2245.5 1481.64 Z" fill="#000000" fill-rule="evenodd" fill-opacity="1" /><path clip-path="url(#clip760)" d="M2274.85 1479.7 L2279.74 1479.7 L2279.74 1485.58 L2274.85 1485.58 L2274.85 1479.7 Z" fill="#000000" fill-rule="evenodd" fill-opacity="1" /><path clip-path="url(#clip760)" d="M2299.92 1454.1 Q2296.31 1454.1 2294.48 1457.66 Q2292.68 1461.2 2292.68 1468.33 Q2292.68 1475.44 2294.48 1479.01 Q2296.31 1482.55 2299.92 1482.55 Q2303.56 1482.55 2305.36 1479.01 Q2307.19 1475.44 2307.19 1468.33 Q2307.19 1461.2 2305.36 1457.66 Q2303.56 1454.1 2299.92 1454.1 M2299.92 1450.39 Q2305.73 1450.39 2308.79 1455 Q2311.87 1459.58 2311.87 1468.33 Q2311.87 1477.06 2308.79 1481.67 Q2305.73 1486.25 2299.92 1486.25 Q2294.11 1486.25 2291.03 1481.67 Q2287.98 1477.06 2287.98 1468.33 Q2287.98 1459.58 2291.03 1455 Q2294.11 1450.39 2299.92 1450.39 Z" fill="#000000" fill-rule="evenodd" fill-opacity="1" /><path clip-path="url(#clip760)" d="M2330.08 1454.1 Q2326.47 1454.1 2324.64 1457.66 Q2322.84 1461.2 2322.84 1468.33 Q2322.84 1475.44 2324.64 1479.01 Q2326.47 1482.55 2330.08 1482.55 Q2333.72 1482.55 2335.52 1479.01 Q2337.35 1475.44 2337.35 1468.33 Q2337.35 1461.2 2335.52 1457.66 Q2333.72 1454.1 2330.08 1454.1 M2330.08 1450.39 Q2335.89 1450.39 2338.95 1455 Q2342.03 1459.58 2342.03 1468.33 Q2342.03 1477.06 2338.95 1481.67 Q2335.89 1486.25 2330.08 1486.25 Q2324.27 1486.25 2321.2 1481.67 Q2318.14 1477.06 2318.14 1468.33 Q2318.14 1459.58 2321.2 1455 Q2324.27 1450.39 2330.08 1450.39 Z" fill="#000000" fill-rule="evenodd" fill-opacity="1" /><path clip-path="url(#clip760)" d="M1321.27 1532.4 L1308.38 1549.74 L1321.94 1568.04 L1315.03 1568.04 L1304.66 1554.04 L1294.28 1568.04 L1287.37 1568.04 L1301.22 1549.39 L1288.55 1532.4 L1295.46 1532.4 L1304.91 1545.1 L1314.36 1532.4 L1321.27 1532.4 Z" fill="#000000" fill-rule="evenodd" fill-opacity="1" /><polyline clip-path="url(#clip762)" style="stroke:#000000; stroke-linecap:butt; stroke-linejoin:round; stroke-width:2; stroke-opacity:0.1; fill:none" points="
  256.556,1124.63 2352.76,1124.63 
  "/>
<polyline clip-path="url(#clip762)" style="stroke:#000000; stroke-linecap:butt; stroke-linejoin:round; stroke-width:2; stroke-opacity:0.1; fill:none" points="
  256.556,778.48 2352.76,778.48 
  "/>
<polyline clip-path="url(#clip762)" style="stroke:#000000; stroke-linecap:butt; stroke-linejoin:round; stroke-width:2; stroke-opacity:0.1; fill:none" points="
  256.556,432.333 2352.76,432.333 
  "/>
<polyline clip-path="url(#clip762)" style="stroke:#000000; stroke-linecap:butt; stroke-linejoin:round; stroke-width:2; stroke-opacity:0.1; fill:none" points="
  256.556,86.1857 2352.76,86.1857 
  "/>
<polyline clip-path="url(#clip760)" style="stroke:#000000; stroke-linecap:butt; stroke-linejoin:round; stroke-width:4; stroke-opacity:1; fill:none" points="
  256.556,1423.18 256.556,47.2441 
  "/>
<polyline clip-path="url(#clip760)" style="stroke:#000000; stroke-linecap:butt; stroke-linejoin:round; stroke-width:4; stroke-opacity:1; fill:none" points="
  256.556,1124.63 275.454,1124.63 
  "/>
<polyline clip-path="url(#clip760)" style="stroke:#000000; stroke-linecap:butt; stroke-linejoin:round; stroke-width:4; stroke-opacity:1; fill:none" points="
  256.556,778.48 275.454,778.48 
  "/>
<polyline clip-path="url(#clip760)" style="stroke:#000000; stroke-linecap:butt; stroke-linejoin:round; stroke-width:4; stroke-opacity:1; fill:none" points="
  256.556,432.333 275.454,432.333 
  "/>
<polyline clip-path="url(#clip760)" style="stroke:#000000; stroke-linecap:butt; stroke-linejoin:round; stroke-width:4; stroke-opacity:1; fill:none" points="
  256.556,86.1857 275.454,86.1857 
  "/>
<path clip-path="url(#clip760)" d="M114.26 1125.08 L143.936 1125.08 L143.936 1129.01 L114.26 1129.01 L114.26 1125.08 Z" fill="#000000" fill-rule="evenodd" fill-opacity="1" /><path clip-path="url(#clip760)" d="M164.028 1110.43 Q160.417 1110.43 158.589 1113.99 Q156.783 1117.53 156.783 1124.66 Q156.783 1131.77 158.589 1135.33 Q160.417 1138.88 164.028 1138.88 Q167.663 1138.88 169.468 1135.33 Q171.297 1131.77 171.297 1124.66 Q171.297 1117.53 169.468 1113.99 Q167.663 1110.43 164.028 1110.43 M164.028 1106.72 Q169.839 1106.72 172.894 1111.33 Q175.973 1115.91 175.973 1124.66 Q175.973 1133.39 172.894 1138 Q169.839 1142.58 164.028 1142.58 Q158.218 1142.58 155.14 1138 Q152.084 1133.39 152.084 1124.66 Q152.084 1115.91 155.14 1111.33 Q158.218 1106.72 164.028 1106.72 Z" fill="#000000" fill-rule="evenodd" fill-opacity="1" /><path clip-path="url(#clip760)" d="M184.19 1136.03 L189.075 1136.03 L189.075 1141.91 L184.19 1141.91 L184.19 1136.03 Z" fill="#000000" fill-rule="evenodd" fill-opacity="1" /><path clip-path="url(#clip760)" d="M213.426 1123.27 Q216.783 1123.99 218.658 1126.26 Q220.556 1128.53 220.556 1131.86 Q220.556 1136.98 217.037 1139.78 Q213.519 1142.58 207.037 1142.58 Q204.862 1142.58 202.547 1142.14 Q200.255 1141.72 197.801 1140.87 L197.801 1136.35 Q199.746 1137.49 202.061 1138.07 Q204.375 1138.64 206.899 1138.64 Q211.297 1138.64 213.588 1136.91 Q215.903 1135.17 215.903 1131.86 Q215.903 1128.81 213.75 1127.09 Q211.621 1125.36 207.801 1125.36 L203.774 1125.36 L203.774 1121.51 L207.987 1121.51 Q211.436 1121.51 213.264 1120.15 Q215.093 1118.76 215.093 1116.17 Q215.093 1113.51 213.195 1112.09 Q211.32 1110.66 207.801 1110.66 Q205.88 1110.66 203.681 1111.07 Q201.482 1111.49 198.843 1112.37 L198.843 1108.2 Q201.505 1107.46 203.82 1107.09 Q206.158 1106.72 208.218 1106.72 Q213.542 1106.72 216.644 1109.15 Q219.746 1111.56 219.746 1115.68 Q219.746 1118.55 218.102 1120.54 Q216.459 1122.51 213.426 1123.27 Z" fill="#000000" fill-rule="evenodd" fill-opacity="1" /><path clip-path="url(#clip760)" d="M115.209 778.932 L144.885 778.932 L144.885 782.867 L115.209 782.867 L115.209 778.932 Z" fill="#000000" fill-rule="evenodd" fill-opacity="1" /><path clip-path="url(#clip760)" d="M164.977 764.279 Q161.366 764.279 159.538 767.844 Q157.732 771.386 157.732 778.515 Q157.732 785.622 159.538 789.186 Q161.366 792.728 164.977 792.728 Q168.612 792.728 170.417 789.186 Q172.246 785.622 172.246 778.515 Q172.246 771.386 170.417 767.844 Q168.612 764.279 164.977 764.279 M164.977 760.575 Q170.788 760.575 173.843 765.182 Q176.922 769.765 176.922 778.515 Q176.922 787.242 173.843 791.848 Q170.788 796.432 164.977 796.432 Q159.167 796.432 156.089 791.848 Q153.033 787.242 153.033 778.515 Q153.033 769.765 156.089 765.182 Q159.167 760.575 164.977 760.575 Z" fill="#000000" fill-rule="evenodd" fill-opacity="1" /><path clip-path="url(#clip760)" d="M185.139 789.881 L190.024 789.881 L190.024 795.76 L185.139 795.76 L185.139 789.881 Z" fill="#000000" fill-rule="evenodd" fill-opacity="1" /><path clip-path="url(#clip760)" d="M204.237 791.825 L220.556 791.825 L220.556 795.76 L198.612 795.76 L198.612 791.825 Q201.274 789.071 205.857 784.441 Q210.463 779.788 211.644 778.446 Q213.889 775.923 214.769 774.186 Q215.672 772.427 215.672 770.737 Q215.672 767.983 213.727 766.247 Q211.806 764.511 208.704 764.511 Q206.505 764.511 204.051 765.274 Q201.621 766.038 198.843 767.589 L198.843 762.867 Q201.667 761.733 204.121 761.154 Q206.574 760.575 208.612 760.575 Q213.982 760.575 217.176 763.261 Q220.371 765.946 220.371 770.436 Q220.371 772.566 219.561 774.487 Q218.773 776.385 216.667 778.978 Q216.088 779.649 212.986 782.867 Q209.885 786.061 204.237 791.825 Z" fill="#000000" fill-rule="evenodd" fill-opacity="1" /><path clip-path="url(#clip760)" d="M114.839 432.784 L144.515 432.784 L144.515 436.72 L114.839 436.72 L114.839 432.784 Z" fill="#000000" fill-rule="evenodd" fill-opacity="1" /><path clip-path="url(#clip760)" d="M164.607 418.132 Q160.996 418.132 159.167 421.697 Q157.362 425.238 157.362 432.368 Q157.362 439.474 159.167 443.039 Q160.996 446.581 164.607 446.581 Q168.241 446.581 170.047 443.039 Q171.876 439.474 171.876 432.368 Q171.876 425.238 170.047 421.697 Q168.241 418.132 164.607 418.132 M164.607 414.428 Q170.417 414.428 173.473 419.034 Q176.551 423.618 176.551 432.368 Q176.551 441.095 173.473 445.701 Q170.417 450.284 164.607 450.284 Q158.797 450.284 155.718 445.701 Q152.663 441.095 152.663 432.368 Q152.663 423.618 155.718 419.034 Q158.797 414.428 164.607 414.428 Z" fill="#000000" fill-rule="evenodd" fill-opacity="1" /><path clip-path="url(#clip760)" d="M184.769 443.733 L189.653 443.733 L189.653 449.613 L184.769 449.613 L184.769 443.733 Z" fill="#000000" fill-rule="evenodd" fill-opacity="1" /><path clip-path="url(#clip760)" d="M200.649 445.678 L208.287 445.678 L208.287 419.312 L199.977 420.979 L199.977 416.72 L208.241 415.053 L212.917 415.053 L212.917 445.678 L220.556 445.678 L220.556 449.613 L200.649 449.613 L200.649 445.678 Z" fill="#000000" fill-rule="evenodd" fill-opacity="1" /><path clip-path="url(#clip760)" d="M163.38 71.9844 Q159.769 71.9844 157.94 75.5492 Q156.135 79.0908 156.135 86.2204 Q156.135 93.3268 157.94 96.8916 Q159.769 100.433 163.38 100.433 Q167.015 100.433 168.82 96.8916 Q170.649 93.3268 170.649 86.2204 Q170.649 79.0908 168.82 75.5492 Q167.015 71.9844 163.38 71.9844 M163.38 68.2807 Q169.19 68.2807 172.246 72.8871 Q175.325 77.4704 175.325 86.2204 Q175.325 94.9472 172.246 99.5537 Q169.19 104.137 163.38 104.137 Q157.57 104.137 154.491 99.5537 Q151.436 94.9472 151.436 86.2204 Q151.436 77.4704 154.491 72.8871 Q157.57 68.2807 163.38 68.2807 Z" fill="#000000" fill-rule="evenodd" fill-opacity="1" /><path clip-path="url(#clip760)" d="M183.542 97.5861 L188.426 97.5861 L188.426 103.466 L183.542 103.466 L183.542 97.5861 Z" fill="#000000" fill-rule="evenodd" fill-opacity="1" /><path clip-path="url(#clip760)" d="M208.612 71.9844 Q205 71.9844 203.172 75.5492 Q201.366 79.0908 201.366 86.2204 Q201.366 93.3268 203.172 96.8916 Q205 100.433 208.612 100.433 Q212.246 100.433 214.051 96.8916 Q215.88 93.3268 215.88 86.2204 Q215.88 79.0908 214.051 75.5492 Q212.246 71.9844 208.612 71.9844 M208.612 68.2807 Q214.422 68.2807 217.477 72.8871 Q220.556 77.4704 220.556 86.2204 Q220.556 94.9472 217.477 99.5537 Q214.422 104.137 208.612 104.137 Q202.801 104.137 199.723 99.5537 Q196.667 94.9472 196.667 86.2204 Q196.667 77.4704 199.723 72.8871 Q202.801 68.2807 208.612 68.2807 Z" fill="#000000" fill-rule="evenodd" fill-opacity="1" /><path clip-path="url(#clip760)" d="M28.3562 802.418 L28.3562 796.561 L56.1743 789.241 L28.3562 781.952 L28.3562 775.045 L56.1743 767.725 L28.3562 760.436 L28.3562 754.58 L64.0042 763.905 L64.0042 770.812 L34.7856 778.483 L64.0042 786.185 L64.0042 793.092 L28.3562 802.418 Z" fill="#000000" fill-rule="evenodd" fill-opacity="1" /><path clip-path="url(#clip760)" d="M14.5426 731.631 Q21.8632 735.896 29.0246 737.965 Q36.186 740.034 43.5384 740.034 Q50.8908 740.034 58.1159 737.965 Q65.3091 735.864 72.5979 731.631 L72.5979 736.724 Q65.1182 741.498 57.8931 743.885 Q50.668 746.241 43.5384 746.241 Q36.4406 746.241 29.2474 743.885 Q22.0542 741.53 14.5426 736.724 L14.5426 731.631 Z" fill="#000000" fill-rule="evenodd" fill-opacity="1" /><path clip-path="url(#clip760)" d="M28.3562 690.636 L45.7028 703.527 L64.0042 689.968 L64.0042 696.875 L49.9996 707.251 L64.0042 717.627 L64.0042 724.533 L45.3526 710.688 L28.3562 723.356 L28.3562 716.449 L41.0558 706.996 L28.3562 697.543 L28.3562 690.636 Z" fill="#000000" fill-rule="evenodd" fill-opacity="1" /><path clip-path="url(#clip760)" d="M14.5426 682.615 L14.5426 677.523 Q22.0542 672.748 29.2474 670.393 Q36.4406 668.006 43.5384 668.006 Q50.668 668.006 57.8931 670.393 Q65.1182 672.748 72.5979 677.523 L72.5979 682.615 Q65.3091 678.382 58.1159 676.313 Q50.8908 674.213 43.5384 674.213 Q36.186 674.213 29.0246 676.313 Q21.8632 678.382 14.5426 682.615 Z" fill="#000000" fill-rule="evenodd" fill-opacity="1" /><polyline clip-path="url(#clip762)" style="stroke:#ff0000; stroke-linecap:butt; stroke-linejoin:round; stroke-width:4; stroke-opacity:1; fill:none" points="
  315.882,86.1857 419.964,93.1281 524.045,112.986 628.127,144.365 732.208,185.949 836.289,236.505 940.371,294.877 1044.45,359.988 1148.53,430.843 1252.62,506.526 
  1356.7,586.199 1460.78,669.106 1564.86,754.57 1668.94,841.993 1773.02,930.856 1877.1,1020.72 1981.19,1111.23 2085.27,1202.11 2189.35,1293.15 2293.43,1384.24 
  
  "/>
<polyline clip-path="url(#clip762)" style="stroke:#0000ff; stroke-linecap:butt; stroke-linejoin:round; stroke-width:12; stroke-opacity:1; fill:none" points="
  367.923,87.952 472.004,101.531 576.086,127.319 680.167,163.96 784.249,210.18 888.33,264.783 992.412,326.654 1096.49,394.756 1200.57,468.135 1304.66,545.912 
  1408.74,627.292 1512.82,711.558 1616.9,798.071 1720.98,886.273 1825.06,975.688 1929.14,1065.92 2033.23,1156.64 2137.31,1247.62 2241.39,1338.69 
  "/>
<polyline clip-path="url(#clip762)" style="stroke:#0000ff; stroke-linecap:butt; stroke-linejoin:round; stroke-width:4; stroke-opacity:1; fill:none" points="
  315.882,86.1857 419.964,88.4599 524.045,94.8169 628.127,104.614 732.208,117.28 836.289,132.309 940.371,149.262 1044.45,167.755 1148.53,187.46 1252.62,208.099 
  1356.7,229.441 1460.78,251.295 1564.86,273.51 1668.94,295.968 1773.02,318.578 1877.1,341.277 1981.19,364.023 2085.27,386.788 2189.35,409.56 2293.43,432.333 
  
  "/>
<polyline clip-path="url(#clip762)" style="stroke:#ff0000; stroke-linecap:butt; stroke-linejoin:round; stroke-width:12; stroke-opacity:1; fill:none" points="
  367.923,86.7692 472.004,91.1698 576.086,99.3226 680.167,110.621 784.249,124.528 888.33,140.571 992.412,158.338 1096.49,177.475 1200.57,197.678 1304.66,218.695 
  1408.74,240.314 1512.82,262.366 1616.9,284.715 1720.98,307.258 1825.06,329.92 1929.14,352.646 2033.23,375.404 2137.31,398.174 2241.39,420.947 
  "/>
<path clip-path="url(#clip760)" d="
M326.429 1377.32 L990.542 1377.32 L990.542 1118.12 L326.429 1118.12  Z
  " fill="#ffffff" fill-rule="evenodd" fill-opacity="1"/>
<polyline clip-path="url(#clip760)" style="stroke:#000000; stroke-linecap:butt; stroke-linejoin:round; stroke-width:4; stroke-opacity:1; fill:none" points="
  326.429,1377.32 990.542,1377.32 990.542,1118.12 326.429,1118.12 326.429,1377.32 
  "/>
<polyline clip-path="url(#clip760)" style="stroke:#ff0000; stroke-linecap:butt; stroke-linejoin:round; stroke-width:4; stroke-opacity:1; fill:none" points="
  349.72,1169.96 489.467,1169.96 
  "/>
<path clip-path="url(#clip760)" d="M528.591 1157.28 L522.249 1174.48 L534.957 1174.48 L528.591 1157.28 M525.952 1152.68 L531.253 1152.68 L544.425 1187.24 L539.564 1187.24 L536.415 1178.37 L520.837 1178.37 L517.689 1187.24 L512.758 1187.24 L525.952 1152.68 Z" fill="#000000" fill-rule="evenodd" fill-opacity="1" /><path clip-path="url(#clip760)" d="M570.837 1171.59 L570.837 1187.24 L566.577 1187.24 L566.577 1171.73 Q566.577 1168.05 565.142 1166.22 Q563.707 1164.39 560.837 1164.39 Q557.387 1164.39 555.397 1166.59 Q553.406 1168.79 553.406 1172.58 L553.406 1187.24 L549.124 1187.24 L549.124 1161.31 L553.406 1161.31 L553.406 1165.34 Q554.934 1163 556.994 1161.84 Q559.077 1160.68 561.786 1160.68 Q566.253 1160.68 568.545 1163.46 Q570.837 1166.22 570.837 1171.59 Z" fill="#000000" fill-rule="evenodd" fill-opacity="1" /><path clip-path="url(#clip760)" d="M591.114 1174.2 Q585.952 1174.2 583.961 1175.38 Q581.971 1176.56 581.971 1179.41 Q581.971 1181.68 583.452 1183.02 Q584.957 1184.34 587.526 1184.34 Q591.068 1184.34 593.197 1181.84 Q595.35 1179.32 595.35 1175.15 L595.35 1174.2 L591.114 1174.2 M599.609 1172.44 L599.609 1187.24 L595.35 1187.24 L595.35 1183.3 Q593.892 1185.66 591.716 1186.8 Q589.54 1187.91 586.392 1187.91 Q582.411 1187.91 580.049 1185.68 Q577.711 1183.44 577.711 1179.69 Q577.711 1175.31 580.628 1173.09 Q583.568 1170.87 589.378 1170.87 L595.35 1170.87 L595.35 1170.45 Q595.35 1167.51 593.406 1165.92 Q591.485 1164.3 587.989 1164.3 Q585.767 1164.3 583.661 1164.83 Q581.554 1165.36 579.61 1166.43 L579.61 1162.49 Q581.948 1161.59 584.147 1161.15 Q586.346 1160.68 588.429 1160.68 Q594.054 1160.68 596.832 1163.6 Q599.609 1166.52 599.609 1172.44 Z" fill="#000000" fill-rule="evenodd" fill-opacity="1" /><path clip-path="url(#clip760)" d="M608.383 1151.22 L612.642 1151.22 L612.642 1187.24 L608.383 1187.24 L608.383 1151.22 Z" fill="#000000" fill-rule="evenodd" fill-opacity="1" /><path clip-path="url(#clip760)" d="M632.341 1189.64 Q630.535 1194.27 628.822 1195.68 Q627.109 1197.1 624.239 1197.1 L620.836 1197.1 L620.836 1193.53 L623.336 1193.53 Q625.095 1193.53 626.068 1192.7 Q627.04 1191.86 628.22 1188.76 L628.984 1186.82 L618.498 1161.31 L623.012 1161.31 L631.114 1181.59 L639.216 1161.31 L643.73 1161.31 L632.341 1189.64 Z" fill="#000000" fill-rule="evenodd" fill-opacity="1" /><path clip-path="url(#clip760)" d="M653.822 1153.95 L653.822 1161.31 L662.595 1161.31 L662.595 1164.62 L653.822 1164.62 L653.822 1178.69 Q653.822 1181.86 654.679 1182.77 Q655.558 1183.67 658.22 1183.67 L662.595 1183.67 L662.595 1187.24 L658.22 1187.24 Q653.29 1187.24 651.415 1185.41 Q649.54 1183.55 649.54 1178.69 L649.54 1164.62 L646.415 1164.62 L646.415 1161.31 L649.54 1161.31 L649.54 1153.95 L653.822 1153.95 Z" fill="#000000" fill-rule="evenodd" fill-opacity="1" /><path clip-path="url(#clip760)" d="M668.197 1161.31 L672.456 1161.31 L672.456 1187.24 L668.197 1187.24 L668.197 1161.31 M668.197 1151.22 L672.456 1151.22 L672.456 1156.61 L668.197 1156.61 L668.197 1151.22 Z" fill="#000000" fill-rule="evenodd" fill-opacity="1" /><path clip-path="url(#clip760)" d="M700.026 1162.3 L700.026 1166.29 Q698.22 1165.29 696.391 1164.8 Q694.586 1164.3 692.734 1164.3 Q688.591 1164.3 686.299 1166.93 Q684.007 1169.55 684.007 1174.3 Q684.007 1179.04 686.299 1181.68 Q688.591 1184.3 692.734 1184.3 Q694.586 1184.3 696.391 1183.81 Q698.22 1183.3 700.026 1182.3 L700.026 1186.24 Q698.243 1187.07 696.322 1187.49 Q694.424 1187.91 692.271 1187.91 Q686.415 1187.91 682.966 1184.23 Q679.516 1180.55 679.516 1174.3 Q679.516 1167.95 682.989 1164.32 Q686.484 1160.68 692.549 1160.68 Q694.516 1160.68 696.391 1161.1 Q698.266 1161.49 700.026 1162.3 Z" fill="#000000" fill-rule="evenodd" fill-opacity="1" /><path clip-path="url(#clip760)" d="M719.215 1174.2 Q714.053 1174.2 712.063 1175.38 Q710.072 1176.56 710.072 1179.41 Q710.072 1181.68 711.553 1183.02 Q713.058 1184.34 715.627 1184.34 Q719.169 1184.34 721.299 1181.84 Q723.451 1179.32 723.451 1175.15 L723.451 1174.2 L719.215 1174.2 M727.711 1172.44 L727.711 1187.24 L723.451 1187.24 L723.451 1183.3 Q721.993 1185.66 719.817 1186.8 Q717.641 1187.91 714.493 1187.91 Q710.512 1187.91 708.151 1185.68 Q705.813 1183.44 705.813 1179.69 Q705.813 1175.31 708.729 1173.09 Q711.669 1170.87 717.479 1170.87 L723.451 1170.87 L723.451 1170.45 Q723.451 1167.51 721.507 1165.92 Q719.586 1164.3 716.09 1164.3 Q713.868 1164.3 711.762 1164.83 Q709.655 1165.36 707.711 1166.43 L707.711 1162.49 Q710.049 1161.59 712.248 1161.15 Q714.447 1160.68 716.53 1160.68 Q722.155 1160.68 724.933 1163.6 Q727.711 1166.52 727.711 1172.44 Z" fill="#000000" fill-rule="evenodd" fill-opacity="1" /><path clip-path="url(#clip760)" d="M736.484 1151.22 L740.743 1151.22 L740.743 1187.24 L736.484 1187.24 L736.484 1151.22 Z" fill="#000000" fill-rule="evenodd" fill-opacity="1" /><path clip-path="url(#clip760)" d="M781.252 1162.07 L781.252 1166.1 Q779.446 1165.18 777.502 1164.71 Q775.558 1164.25 773.474 1164.25 Q770.303 1164.25 768.706 1165.22 Q767.132 1166.19 767.132 1168.14 Q767.132 1169.62 768.266 1170.48 Q769.4 1171.31 772.826 1172.07 L774.284 1172.4 Q778.821 1173.37 780.72 1175.15 Q782.641 1176.91 782.641 1180.08 Q782.641 1183.69 779.771 1185.8 Q776.923 1187.91 771.923 1187.91 Q769.84 1187.91 767.572 1187.49 Q765.326 1187.1 762.826 1186.29 L762.826 1181.89 Q765.187 1183.11 767.479 1183.74 Q769.771 1184.34 772.016 1184.34 Q775.025 1184.34 776.646 1183.32 Q778.266 1182.28 778.266 1180.41 Q778.266 1178.67 777.085 1177.74 Q775.928 1176.82 771.97 1175.96 L770.488 1175.62 Q766.53 1174.78 764.771 1173.07 Q763.011 1171.33 763.011 1168.32 Q763.011 1164.67 765.604 1162.68 Q768.197 1160.68 772.965 1160.68 Q775.326 1160.68 777.409 1161.03 Q779.493 1161.38 781.252 1162.07 Z" fill="#000000" fill-rule="evenodd" fill-opacity="1" /><path clip-path="url(#clip760)" d="M799.47 1164.3 Q796.044 1164.3 794.053 1166.98 Q792.062 1169.64 792.062 1174.3 Q792.062 1178.95 794.03 1181.63 Q796.02 1184.3 799.47 1184.3 Q802.872 1184.3 804.863 1181.61 Q806.854 1178.93 806.854 1174.3 Q806.854 1169.69 804.863 1167 Q802.872 1164.3 799.47 1164.3 M799.47 1160.68 Q805.025 1160.68 808.196 1164.3 Q811.368 1167.91 811.368 1174.3 Q811.368 1180.66 808.196 1184.3 Q805.025 1187.91 799.47 1187.91 Q793.891 1187.91 790.72 1184.3 Q787.571 1180.66 787.571 1174.3 Q787.571 1167.91 790.72 1164.3 Q793.891 1160.68 799.47 1160.68 Z" fill="#000000" fill-rule="evenodd" fill-opacity="1" /><path clip-path="url(#clip760)" d="M818.428 1151.22 L822.687 1151.22 L822.687 1187.24 L818.428 1187.24 L818.428 1151.22 Z" fill="#000000" fill-rule="evenodd" fill-opacity="1" /><path clip-path="url(#clip760)" d="M831.159 1177 L831.159 1161.31 L835.418 1161.31 L835.418 1176.84 Q835.418 1180.52 836.854 1182.37 Q838.289 1184.2 841.159 1184.2 Q844.608 1184.2 846.599 1182 Q848.613 1179.8 848.613 1176.01 L848.613 1161.31 L852.872 1161.31 L852.872 1187.24 L848.613 1187.24 L848.613 1183.25 Q847.062 1185.61 845.002 1186.77 Q842.965 1187.91 840.256 1187.91 Q835.789 1187.91 833.474 1185.13 Q831.159 1182.35 831.159 1177 M841.877 1160.68 L841.877 1160.68 Z" fill="#000000" fill-rule="evenodd" fill-opacity="1" /><path clip-path="url(#clip760)" d="M865.858 1153.95 L865.858 1161.31 L874.631 1161.31 L874.631 1164.62 L865.858 1164.62 L865.858 1178.69 Q865.858 1181.86 866.715 1182.77 Q867.594 1183.67 870.256 1183.67 L874.631 1183.67 L874.631 1187.24 L870.256 1187.24 Q865.326 1187.24 863.451 1185.41 Q861.576 1183.55 861.576 1178.69 L861.576 1164.62 L858.451 1164.62 L858.451 1161.31 L861.576 1161.31 L861.576 1153.95 L865.858 1153.95 Z" fill="#000000" fill-rule="evenodd" fill-opacity="1" /><path clip-path="url(#clip760)" d="M880.233 1161.31 L884.492 1161.31 L884.492 1187.24 L880.233 1187.24 L880.233 1161.31 M880.233 1151.22 L884.492 1151.22 L884.492 1156.61 L880.233 1156.61 L880.233 1151.22 Z" fill="#000000" fill-rule="evenodd" fill-opacity="1" /><path clip-path="url(#clip760)" d="M903.45 1164.3 Q900.025 1164.3 898.034 1166.98 Q896.043 1169.64 896.043 1174.3 Q896.043 1178.95 898.011 1181.63 Q900.001 1184.3 903.45 1184.3 Q906.853 1184.3 908.844 1181.61 Q910.835 1178.93 910.835 1174.3 Q910.835 1169.69 908.844 1167 Q906.853 1164.3 903.45 1164.3 M903.45 1160.68 Q909.006 1160.68 912.177 1164.3 Q915.349 1167.91 915.349 1174.3 Q915.349 1180.66 912.177 1184.3 Q909.006 1187.91 903.45 1187.91 Q897.872 1187.91 894.701 1184.3 Q891.552 1180.66 891.552 1174.3 Q891.552 1167.91 894.701 1164.3 Q897.872 1160.68 903.45 1160.68 Z" fill="#000000" fill-rule="evenodd" fill-opacity="1" /><path clip-path="url(#clip760)" d="M943.96 1171.59 L943.96 1187.24 L939.7 1187.24 L939.7 1171.73 Q939.7 1168.05 938.265 1166.22 Q936.83 1164.39 933.96 1164.39 Q930.511 1164.39 928.52 1166.59 Q926.529 1168.79 926.529 1172.58 L926.529 1187.24 L922.247 1187.24 L922.247 1161.31 L926.529 1161.31 L926.529 1165.34 Q928.057 1163 930.117 1161.84 Q932.2 1160.68 934.909 1160.68 Q939.376 1160.68 941.668 1163.46 Q943.96 1166.22 943.96 1171.59 Z" fill="#000000" fill-rule="evenodd" fill-opacity="1" /><polyline clip-path="url(#clip760)" style="stroke:#0000ff; stroke-linecap:butt; stroke-linejoin:round; stroke-width:4; stroke-opacity:1; fill:none" points="
  349.72,1221.8 489.467,1221.8 
  "/>
<path clip-path="url(#clip760)" d="M540.628 1207.18 L540.628 1212.11 Q538.267 1209.91 535.582 1208.82 Q532.92 1207.73 529.911 1207.73 Q523.985 1207.73 520.837 1211.37 Q517.689 1214.98 517.689 1221.83 Q517.689 1228.66 520.837 1232.29 Q523.985 1235.9 529.911 1235.9 Q532.92 1235.9 535.582 1234.82 Q538.267 1233.73 540.628 1231.53 L540.628 1236.41 Q538.175 1238.08 535.42 1238.91 Q532.689 1239.75 529.633 1239.75 Q521.786 1239.75 517.272 1234.95 Q512.758 1230.14 512.758 1221.83 Q512.758 1213.5 517.272 1208.71 Q521.786 1203.89 529.633 1203.89 Q532.735 1203.89 535.466 1204.72 Q538.221 1205.53 540.628 1207.18 Z" fill="#000000" fill-rule="evenodd" fill-opacity="1" /><path clip-path="url(#clip760)" d="M557.712 1216.14 Q554.286 1216.14 552.295 1218.82 Q550.304 1221.48 550.304 1226.14 Q550.304 1230.79 552.272 1233.47 Q554.263 1236.14 557.712 1236.14 Q561.114 1236.14 563.105 1233.45 Q565.096 1230.77 565.096 1226.14 Q565.096 1221.53 563.105 1218.84 Q561.114 1216.14 557.712 1216.14 M557.712 1212.52 Q563.267 1212.52 566.438 1216.14 Q569.61 1219.75 569.61 1226.14 Q569.61 1232.5 566.438 1236.14 Q563.267 1239.75 557.712 1239.75 Q552.133 1239.75 548.962 1236.14 Q545.813 1232.5 545.813 1226.14 Q545.813 1219.75 548.962 1216.14 Q552.133 1212.52 557.712 1212.52 Z" fill="#000000" fill-rule="evenodd" fill-opacity="1" /><path clip-path="url(#clip760)" d="M598.221 1223.43 L598.221 1239.08 L593.961 1239.08 L593.961 1223.57 Q593.961 1219.89 592.526 1218.06 Q591.091 1216.23 588.221 1216.23 Q584.772 1216.23 582.781 1218.43 Q580.79 1220.63 580.79 1224.42 L580.79 1239.08 L576.508 1239.08 L576.508 1213.15 L580.79 1213.15 L580.79 1217.18 Q582.318 1214.84 584.378 1213.68 Q586.461 1212.52 589.17 1212.52 Q593.637 1212.52 595.929 1215.3 Q598.221 1218.06 598.221 1223.43 Z" fill="#000000" fill-rule="evenodd" fill-opacity="1" /><path clip-path="url(#clip760)" d="M623.244 1213.91 L623.244 1217.94 Q621.438 1217.02 619.494 1216.55 Q617.549 1216.09 615.466 1216.09 Q612.295 1216.09 610.697 1217.06 Q609.123 1218.03 609.123 1219.98 Q609.123 1221.46 610.258 1222.32 Q611.392 1223.15 614.818 1223.91 L616.276 1224.24 Q620.813 1225.21 622.711 1226.99 Q624.633 1228.75 624.633 1231.92 Q624.633 1235.53 621.762 1237.64 Q618.915 1239.75 613.915 1239.75 Q611.832 1239.75 609.563 1239.33 Q607.318 1238.94 604.818 1238.13 L604.818 1233.73 Q607.179 1234.95 609.471 1235.58 Q611.762 1236.18 614.008 1236.18 Q617.017 1236.18 618.637 1235.16 Q620.258 1234.12 620.258 1232.25 Q620.258 1230.51 619.077 1229.58 Q617.92 1228.66 613.961 1227.8 L612.48 1227.46 Q608.521 1226.62 606.762 1224.91 Q605.003 1223.17 605.003 1220.16 Q605.003 1216.51 607.596 1214.52 Q610.188 1212.52 614.957 1212.52 Q617.318 1212.52 619.401 1212.87 Q621.484 1213.22 623.244 1213.91 Z" fill="#000000" fill-rule="evenodd" fill-opacity="1" /><path clip-path="url(#clip760)" d="M635.628 1205.79 L635.628 1213.15 L644.401 1213.15 L644.401 1216.46 L635.628 1216.46 L635.628 1230.53 Q635.628 1233.7 636.484 1234.61 Q637.364 1235.51 640.026 1235.51 L644.401 1235.51 L644.401 1239.08 L640.026 1239.08 Q635.095 1239.08 633.22 1237.25 Q631.345 1235.39 631.345 1230.53 L631.345 1216.46 L628.22 1216.46 L628.22 1213.15 L631.345 1213.15 L631.345 1205.79 L635.628 1205.79 Z" fill="#000000" fill-rule="evenodd" fill-opacity="1" /><path clip-path="url(#clip760)" d="M661.785 1226.04 Q656.623 1226.04 654.632 1227.22 Q652.642 1228.4 652.642 1231.25 Q652.642 1233.52 654.123 1234.86 Q655.628 1236.18 658.197 1236.18 Q661.739 1236.18 663.868 1233.68 Q666.021 1231.16 666.021 1226.99 L666.021 1226.04 L661.785 1226.04 M670.28 1224.28 L670.28 1239.08 L666.021 1239.08 L666.021 1235.14 Q664.563 1237.5 662.387 1238.64 Q660.211 1239.75 657.063 1239.75 Q653.081 1239.75 650.72 1237.52 Q648.382 1235.28 648.382 1231.53 Q648.382 1227.15 651.299 1224.93 Q654.239 1222.71 660.049 1222.71 L666.021 1222.71 L666.021 1222.29 Q666.021 1219.35 664.077 1217.76 Q662.155 1216.14 658.66 1216.14 Q656.438 1216.14 654.331 1216.67 Q652.225 1217.2 650.281 1218.27 L650.281 1214.33 Q652.618 1213.43 654.818 1212.99 Q657.017 1212.52 659.1 1212.52 Q664.725 1212.52 667.503 1215.44 Q670.28 1218.36 670.28 1224.28 Z" fill="#000000" fill-rule="evenodd" fill-opacity="1" /><path clip-path="url(#clip760)" d="M700.604 1223.43 L700.604 1239.08 L696.345 1239.08 L696.345 1223.57 Q696.345 1219.89 694.91 1218.06 Q693.475 1216.23 690.604 1216.23 Q687.155 1216.23 685.165 1218.43 Q683.174 1220.63 683.174 1224.42 L683.174 1239.08 L678.891 1239.08 L678.891 1213.15 L683.174 1213.15 L683.174 1217.18 Q684.702 1214.84 686.762 1213.68 Q688.845 1212.52 691.553 1212.52 Q696.021 1212.52 698.313 1215.3 Q700.604 1218.06 700.604 1223.43 Z" fill="#000000" fill-rule="evenodd" fill-opacity="1" /><path clip-path="url(#clip760)" d="M713.313 1205.79 L713.313 1213.15 L722.086 1213.15 L722.086 1216.46 L713.313 1216.46 L713.313 1230.53 Q713.313 1233.7 714.169 1234.61 Q715.049 1235.51 717.711 1235.51 L722.086 1235.51 L722.086 1239.08 L717.711 1239.08 Q712.78 1239.08 710.905 1237.25 Q709.03 1235.39 709.03 1230.53 L709.03 1216.46 L705.905 1216.46 L705.905 1213.15 L709.03 1213.15 L709.03 1205.79 L713.313 1205.79 Z" fill="#000000" fill-rule="evenodd" fill-opacity="1" /><path clip-path="url(#clip760)" d="M742.757 1203.06 L747.016 1203.06 L747.016 1239.08 L742.757 1239.08 L742.757 1203.06 Z" fill="#000000" fill-rule="evenodd" fill-opacity="1" /><path clip-path="url(#clip760)" d="M765.974 1216.14 Q762.548 1216.14 760.558 1218.82 Q758.567 1221.48 758.567 1226.14 Q758.567 1230.79 760.535 1233.47 Q762.525 1236.14 765.974 1236.14 Q769.377 1236.14 771.368 1233.45 Q773.359 1230.77 773.359 1226.14 Q773.359 1221.53 771.368 1218.84 Q769.377 1216.14 765.974 1216.14 M765.974 1212.52 Q771.53 1212.52 774.701 1216.14 Q777.872 1219.75 777.872 1226.14 Q777.872 1232.5 774.701 1236.14 Q771.53 1239.75 765.974 1239.75 Q760.396 1239.75 757.224 1236.14 Q754.076 1232.5 754.076 1226.14 Q754.076 1219.75 757.224 1216.14 Q760.396 1212.52 765.974 1212.52 Z" fill="#000000" fill-rule="evenodd" fill-opacity="1" /><path clip-path="url(#clip760)" d="M796.715 1226.04 Q791.553 1226.04 789.562 1227.22 Q787.571 1228.4 787.571 1231.25 Q787.571 1233.52 789.053 1234.86 Q790.558 1236.18 793.127 1236.18 Q796.669 1236.18 798.798 1233.68 Q800.951 1231.16 800.951 1226.99 L800.951 1226.04 L796.715 1226.04 M805.21 1224.28 L805.21 1239.08 L800.951 1239.08 L800.951 1235.14 Q799.493 1237.5 797.317 1238.64 Q795.141 1239.75 791.993 1239.75 Q788.011 1239.75 785.65 1237.52 Q783.312 1235.28 783.312 1231.53 Q783.312 1227.15 786.229 1224.93 Q789.169 1222.71 794.979 1222.71 L800.951 1222.71 L800.951 1222.29 Q800.951 1219.35 799.007 1217.76 Q797.085 1216.14 793.59 1216.14 Q791.368 1216.14 789.261 1216.67 Q787.155 1217.2 785.21 1218.27 L785.21 1214.33 Q787.548 1213.43 789.747 1212.99 Q791.946 1212.52 794.03 1212.52 Q799.655 1212.52 802.432 1215.44 Q805.21 1218.36 805.21 1224.28 Z" fill="#000000" fill-rule="evenodd" fill-opacity="1" /><path clip-path="url(#clip760)" d="M831.043 1217.08 L831.043 1203.06 L835.303 1203.06 L835.303 1239.08 L831.043 1239.08 L831.043 1235.19 Q829.701 1237.5 827.641 1238.64 Q825.604 1239.75 822.733 1239.75 Q818.034 1239.75 815.071 1236 Q812.132 1232.25 812.132 1226.14 Q812.132 1220.02 815.071 1216.27 Q818.034 1212.52 822.733 1212.52 Q825.604 1212.52 827.641 1213.66 Q829.701 1214.77 831.043 1217.08 M816.53 1226.14 Q816.53 1230.83 818.451 1233.52 Q820.395 1236.18 823.775 1236.18 Q827.155 1236.18 829.099 1233.52 Q831.043 1230.83 831.043 1226.14 Q831.043 1221.44 829.099 1218.77 Q827.155 1216.09 823.775 1216.09 Q820.395 1216.09 818.451 1218.77 Q816.53 1221.44 816.53 1226.14 Z" fill="#000000" fill-rule="evenodd" fill-opacity="1" /><polyline clip-path="url(#clip760)" style="stroke:#0000ff; stroke-linecap:butt; stroke-linejoin:round; stroke-width:4; stroke-opacity:1; fill:none" points="
  349.72,1273.64 489.467,1273.64 
  "/>
<path clip-path="url(#clip760)" d="M528.591 1260.96 L522.249 1278.16 L534.957 1278.16 L528.591 1260.96 M525.952 1256.36 L531.253 1256.36 L544.425 1290.92 L539.564 1290.92 L536.415 1282.05 L520.837 1282.05 L517.689 1290.92 L512.758 1290.92 L525.952 1256.36 Z" fill="#000000" fill-rule="evenodd" fill-opacity="1" /><path clip-path="url(#clip760)" d="M570.837 1275.27 L570.837 1290.92 L566.577 1290.92 L566.577 1275.41 Q566.577 1271.73 565.142 1269.9 Q563.707 1268.07 560.837 1268.07 Q557.387 1268.07 555.397 1270.27 Q553.406 1272.47 553.406 1276.26 L553.406 1290.92 L549.124 1290.92 L549.124 1264.99 L553.406 1264.99 L553.406 1269.02 Q554.934 1266.68 556.994 1265.52 Q559.077 1264.36 561.786 1264.36 Q566.253 1264.36 568.545 1267.14 Q570.837 1269.9 570.837 1275.27 Z" fill="#000000" fill-rule="evenodd" fill-opacity="1" /><path clip-path="url(#clip760)" d="M591.114 1277.88 Q585.952 1277.88 583.961 1279.06 Q581.971 1280.24 581.971 1283.09 Q581.971 1285.36 583.452 1286.7 Q584.957 1288.02 587.526 1288.02 Q591.068 1288.02 593.197 1285.52 Q595.35 1283 595.35 1278.83 L595.35 1277.88 L591.114 1277.88 M599.609 1276.12 L599.609 1290.92 L595.35 1290.92 L595.35 1286.98 Q593.892 1289.34 591.716 1290.48 Q589.54 1291.59 586.392 1291.59 Q582.411 1291.59 580.049 1289.36 Q577.711 1287.12 577.711 1283.37 Q577.711 1278.99 580.628 1276.77 Q583.568 1274.55 589.378 1274.55 L595.35 1274.55 L595.35 1274.13 Q595.35 1271.19 593.406 1269.6 Q591.485 1267.98 587.989 1267.98 Q585.767 1267.98 583.661 1268.51 Q581.554 1269.04 579.61 1270.11 L579.61 1266.17 Q581.948 1265.27 584.147 1264.83 Q586.346 1264.36 588.429 1264.36 Q594.054 1264.36 596.832 1267.28 Q599.609 1270.2 599.609 1276.12 Z" fill="#000000" fill-rule="evenodd" fill-opacity="1" /><path clip-path="url(#clip760)" d="M608.383 1254.9 L612.642 1254.9 L612.642 1290.92 L608.383 1290.92 L608.383 1254.9 Z" fill="#000000" fill-rule="evenodd" fill-opacity="1" /><path clip-path="url(#clip760)" d="M632.341 1293.32 Q630.535 1297.95 628.822 1299.36 Q627.109 1300.78 624.239 1300.78 L620.836 1300.78 L620.836 1297.21 L623.336 1297.21 Q625.095 1297.21 626.068 1296.38 Q627.04 1295.54 628.22 1292.44 L628.984 1290.5 L618.498 1264.99 L623.012 1264.99 L631.114 1285.27 L639.216 1264.99 L643.73 1264.99 L632.341 1293.32 Z" fill="#000000" fill-rule="evenodd" fill-opacity="1" /><path clip-path="url(#clip760)" d="M653.822 1257.63 L653.822 1264.99 L662.595 1264.99 L662.595 1268.3 L653.822 1268.3 L653.822 1282.37 Q653.822 1285.54 654.679 1286.45 Q655.558 1287.35 658.22 1287.35 L662.595 1287.35 L662.595 1290.92 L658.22 1290.92 Q653.29 1290.92 651.415 1289.09 Q649.54 1287.23 649.54 1282.37 L649.54 1268.3 L646.415 1268.3 L646.415 1264.99 L649.54 1264.99 L649.54 1257.63 L653.822 1257.63 Z" fill="#000000" fill-rule="evenodd" fill-opacity="1" /><path clip-path="url(#clip760)" d="M668.197 1264.99 L672.456 1264.99 L672.456 1290.92 L668.197 1290.92 L668.197 1264.99 M668.197 1254.9 L672.456 1254.9 L672.456 1260.29 L668.197 1260.29 L668.197 1254.9 Z" fill="#000000" fill-rule="evenodd" fill-opacity="1" /><path clip-path="url(#clip760)" d="M700.026 1265.98 L700.026 1269.97 Q698.22 1268.97 696.391 1268.48 Q694.586 1267.98 692.734 1267.98 Q688.591 1267.98 686.299 1270.61 Q684.007 1273.23 684.007 1277.98 Q684.007 1282.72 686.299 1285.36 Q688.591 1287.98 692.734 1287.98 Q694.586 1287.98 696.391 1287.49 Q698.22 1286.98 700.026 1285.98 L700.026 1289.92 Q698.243 1290.75 696.322 1291.17 Q694.424 1291.59 692.271 1291.59 Q686.415 1291.59 682.966 1287.91 Q679.516 1284.23 679.516 1277.98 Q679.516 1271.63 682.989 1268 Q686.484 1264.36 692.549 1264.36 Q694.516 1264.36 696.391 1264.78 Q698.266 1265.17 700.026 1265.98 Z" fill="#000000" fill-rule="evenodd" fill-opacity="1" /><path clip-path="url(#clip760)" d="M719.215 1277.88 Q714.053 1277.88 712.063 1279.06 Q710.072 1280.24 710.072 1283.09 Q710.072 1285.36 711.553 1286.7 Q713.058 1288.02 715.627 1288.02 Q719.169 1288.02 721.299 1285.52 Q723.451 1283 723.451 1278.83 L723.451 1277.88 L719.215 1277.88 M727.711 1276.12 L727.711 1290.92 L723.451 1290.92 L723.451 1286.98 Q721.993 1289.34 719.817 1290.48 Q717.641 1291.59 714.493 1291.59 Q710.512 1291.59 708.151 1289.36 Q705.813 1287.12 705.813 1283.37 Q705.813 1278.99 708.729 1276.77 Q711.669 1274.55 717.479 1274.55 L723.451 1274.55 L723.451 1274.13 Q723.451 1271.19 721.507 1269.6 Q719.586 1267.98 716.09 1267.98 Q713.868 1267.98 711.762 1268.51 Q709.655 1269.04 707.711 1270.11 L707.711 1266.17 Q710.049 1265.27 712.248 1264.83 Q714.447 1264.36 716.53 1264.36 Q722.155 1264.36 724.933 1267.28 Q727.711 1270.2 727.711 1276.12 Z" fill="#000000" fill-rule="evenodd" fill-opacity="1" /><path clip-path="url(#clip760)" d="M736.484 1254.9 L740.743 1254.9 L740.743 1290.92 L736.484 1290.92 L736.484 1254.9 Z" fill="#000000" fill-rule="evenodd" fill-opacity="1" /><path clip-path="url(#clip760)" d="M781.252 1265.75 L781.252 1269.78 Q779.446 1268.86 777.502 1268.39 Q775.558 1267.93 773.474 1267.93 Q770.303 1267.93 768.706 1268.9 Q767.132 1269.87 767.132 1271.82 Q767.132 1273.3 768.266 1274.16 Q769.4 1274.99 772.826 1275.75 L774.284 1276.08 Q778.821 1277.05 780.72 1278.83 Q782.641 1280.59 782.641 1283.76 Q782.641 1287.37 779.771 1289.48 Q776.923 1291.59 771.923 1291.59 Q769.84 1291.59 767.572 1291.17 Q765.326 1290.78 762.826 1289.97 L762.826 1285.57 Q765.187 1286.79 767.479 1287.42 Q769.771 1288.02 772.016 1288.02 Q775.025 1288.02 776.646 1287 Q778.266 1285.96 778.266 1284.09 Q778.266 1282.35 777.085 1281.42 Q775.928 1280.5 771.97 1279.64 L770.488 1279.3 Q766.53 1278.46 764.771 1276.75 Q763.011 1275.01 763.011 1272 Q763.011 1268.35 765.604 1266.36 Q768.197 1264.36 772.965 1264.36 Q775.326 1264.36 777.409 1264.71 Q779.493 1265.06 781.252 1265.75 Z" fill="#000000" fill-rule="evenodd" fill-opacity="1" /><path clip-path="url(#clip760)" d="M799.47 1267.98 Q796.044 1267.98 794.053 1270.66 Q792.062 1273.32 792.062 1277.98 Q792.062 1282.63 794.03 1285.31 Q796.02 1287.98 799.47 1287.98 Q802.872 1287.98 804.863 1285.29 Q806.854 1282.61 806.854 1277.98 Q806.854 1273.37 804.863 1270.68 Q802.872 1267.98 799.47 1267.98 M799.47 1264.36 Q805.025 1264.36 808.196 1267.98 Q811.368 1271.59 811.368 1277.98 Q811.368 1284.34 808.196 1287.98 Q805.025 1291.59 799.47 1291.59 Q793.891 1291.59 790.72 1287.98 Q787.571 1284.34 787.571 1277.98 Q787.571 1271.59 790.72 1267.98 Q793.891 1264.36 799.47 1264.36 Z" fill="#000000" fill-rule="evenodd" fill-opacity="1" /><path clip-path="url(#clip760)" d="M818.428 1254.9 L822.687 1254.9 L822.687 1290.92 L818.428 1290.92 L818.428 1254.9 Z" fill="#000000" fill-rule="evenodd" fill-opacity="1" /><path clip-path="url(#clip760)" d="M831.159 1280.68 L831.159 1264.99 L835.418 1264.99 L835.418 1280.52 Q835.418 1284.2 836.854 1286.05 Q838.289 1287.88 841.159 1287.88 Q844.608 1287.88 846.599 1285.68 Q848.613 1283.48 848.613 1279.69 L848.613 1264.99 L852.872 1264.99 L852.872 1290.92 L848.613 1290.92 L848.613 1286.93 Q847.062 1289.29 845.002 1290.45 Q842.965 1291.59 840.256 1291.59 Q835.789 1291.59 833.474 1288.81 Q831.159 1286.03 831.159 1280.68 M841.877 1264.36 L841.877 1264.36 Z" fill="#000000" fill-rule="evenodd" fill-opacity="1" /><path clip-path="url(#clip760)" d="M865.858 1257.63 L865.858 1264.99 L874.631 1264.99 L874.631 1268.3 L865.858 1268.3 L865.858 1282.37 Q865.858 1285.54 866.715 1286.45 Q867.594 1287.35 870.256 1287.35 L874.631 1287.35 L874.631 1290.92 L870.256 1290.92 Q865.326 1290.92 863.451 1289.09 Q861.576 1287.23 861.576 1282.37 L861.576 1268.3 L858.451 1268.3 L858.451 1264.99 L861.576 1264.99 L861.576 1257.63 L865.858 1257.63 Z" fill="#000000" fill-rule="evenodd" fill-opacity="1" /><path clip-path="url(#clip760)" d="M880.233 1264.99 L884.492 1264.99 L884.492 1290.92 L880.233 1290.92 L880.233 1264.99 M880.233 1254.9 L884.492 1254.9 L884.492 1260.29 L880.233 1260.29 L880.233 1254.9 Z" fill="#000000" fill-rule="evenodd" fill-opacity="1" /><path clip-path="url(#clip760)" d="M903.45 1267.98 Q900.025 1267.98 898.034 1270.66 Q896.043 1273.32 896.043 1277.98 Q896.043 1282.63 898.011 1285.31 Q900.001 1287.98 903.45 1287.98 Q906.853 1287.98 908.844 1285.29 Q910.835 1282.61 910.835 1277.98 Q910.835 1273.37 908.844 1270.68 Q906.853 1267.98 903.45 1267.98 M903.45 1264.36 Q909.006 1264.36 912.177 1267.98 Q915.349 1271.59 915.349 1277.98 Q915.349 1284.34 912.177 1287.98 Q909.006 1291.59 903.45 1291.59 Q897.872 1291.59 894.701 1287.98 Q891.552 1284.34 891.552 1277.98 Q891.552 1271.59 894.701 1267.98 Q897.872 1264.36 903.45 1264.36 Z" fill="#000000" fill-rule="evenodd" fill-opacity="1" /><path clip-path="url(#clip760)" d="M943.96 1275.27 L943.96 1290.92 L939.7 1290.92 L939.7 1275.41 Q939.7 1271.73 938.265 1269.9 Q936.83 1268.07 933.96 1268.07 Q930.511 1268.07 928.52 1270.27 Q926.529 1272.47 926.529 1276.26 L926.529 1290.92 L922.247 1290.92 L922.247 1264.99 L926.529 1264.99 L926.529 1269.02 Q928.057 1266.68 930.117 1265.52 Q932.2 1264.36 934.909 1264.36 Q939.376 1264.36 941.668 1267.14 Q943.96 1269.9 943.96 1275.27 Z" fill="#000000" fill-rule="evenodd" fill-opacity="1" /><polyline clip-path="url(#clip760)" style="stroke:#ff0000; stroke-linecap:butt; stroke-linejoin:round; stroke-width:4; stroke-opacity:1; fill:none" points="
  349.72,1325.48 489.467,1325.48 
  "/>
<path clip-path="url(#clip760)" d="M517.434 1312.04 L517.434 1338.91 L523.082 1338.91 Q530.235 1338.91 533.545 1335.67 Q536.878 1332.43 536.878 1325.44 Q536.878 1318.5 533.545 1315.28 Q530.235 1312.04 523.082 1312.04 L517.434 1312.04 M512.758 1308.2 L522.365 1308.2 Q532.411 1308.2 537.11 1312.39 Q541.809 1316.55 541.809 1325.44 Q541.809 1334.38 537.087 1338.57 Q532.364 1342.76 522.365 1342.76 L512.758 1342.76 L512.758 1308.2 Z" fill="#000000" fill-rule="evenodd" fill-opacity="1" /><path clip-path="url(#clip760)" d="M571.253 1328.73 L571.253 1330.81 L551.67 1330.81 Q551.948 1335.21 554.309 1337.52 Q556.693 1339.82 560.929 1339.82 Q563.383 1339.82 565.674 1339.21 Q567.989 1338.61 570.258 1337.41 L570.258 1341.44 Q567.966 1342.41 565.559 1342.92 Q563.151 1343.43 560.675 1343.43 Q554.471 1343.43 550.837 1339.82 Q547.226 1336.2 547.226 1330.05 Q547.226 1323.68 550.651 1319.95 Q554.1 1316.2 559.934 1316.2 Q565.165 1316.2 568.198 1319.58 Q571.253 1322.94 571.253 1328.73 M566.994 1327.48 Q566.948 1323.98 565.026 1321.9 Q563.128 1319.82 559.98 1319.82 Q556.415 1319.82 554.263 1321.83 Q552.133 1323.84 551.809 1327.5 L566.994 1327.48 Z" fill="#000000" fill-rule="evenodd" fill-opacity="1" /><path clip-path="url(#clip760)" d="M596.901 1317.82 L596.901 1321.81 Q595.096 1320.81 593.267 1320.32 Q591.461 1319.82 589.61 1319.82 Q585.466 1319.82 583.174 1322.45 Q580.883 1325.07 580.883 1329.82 Q580.883 1334.56 583.174 1337.2 Q585.466 1339.82 589.61 1339.82 Q591.461 1339.82 593.267 1339.33 Q595.096 1338.82 596.901 1337.82 L596.901 1341.76 Q595.119 1342.59 593.197 1343.01 Q591.299 1343.43 589.147 1343.43 Q583.29 1343.43 579.841 1339.75 Q576.392 1336.07 576.392 1329.82 Q576.392 1323.47 579.864 1319.84 Q583.36 1316.2 589.424 1316.2 Q591.392 1316.2 593.267 1316.62 Q595.142 1317.01 596.901 1317.82 Z" fill="#000000" fill-rule="evenodd" fill-opacity="1" /><path clip-path="url(#clip760)" d="M619.332 1320.81 Q618.614 1320.39 617.758 1320.21 Q616.924 1320 615.906 1320 Q612.295 1320 610.35 1322.36 Q608.429 1324.7 608.429 1329.1 L608.429 1342.76 L604.147 1342.76 L604.147 1316.83 L608.429 1316.83 L608.429 1320.86 Q609.771 1318.5 611.924 1317.36 Q614.077 1316.2 617.156 1316.2 Q617.596 1316.2 618.128 1316.27 Q618.66 1316.32 619.308 1316.44 L619.332 1320.81 Z" fill="#000000" fill-rule="evenodd" fill-opacity="1" /><path clip-path="url(#clip760)" d="M644.933 1328.73 L644.933 1330.81 L625.35 1330.81 Q625.628 1335.21 627.989 1337.52 Q630.373 1339.82 634.609 1339.82 Q637.063 1339.82 639.355 1339.21 Q641.669 1338.61 643.938 1337.41 L643.938 1341.44 Q641.646 1342.41 639.239 1342.92 Q636.832 1343.43 634.355 1343.43 Q628.151 1343.43 624.517 1339.82 Q620.906 1336.2 620.906 1330.05 Q620.906 1323.68 624.332 1319.95 Q627.781 1316.2 633.614 1316.2 Q638.845 1316.2 641.878 1319.58 Q644.933 1322.94 644.933 1328.73 M640.674 1327.48 Q640.628 1323.98 638.707 1321.9 Q636.808 1319.82 633.66 1319.82 Q630.095 1319.82 627.943 1321.83 Q625.813 1323.84 625.489 1327.5 L640.674 1327.48 Z" fill="#000000" fill-rule="evenodd" fill-opacity="1" /><path clip-path="url(#clip760)" d="M663.706 1329.72 Q658.544 1329.72 656.554 1330.9 Q654.563 1332.08 654.563 1334.93 Q654.563 1337.2 656.044 1338.54 Q657.549 1339.86 660.118 1339.86 Q663.66 1339.86 665.79 1337.36 Q667.942 1334.84 667.942 1330.67 L667.942 1329.72 L663.706 1329.72 M672.202 1327.96 L672.202 1342.76 L667.942 1342.76 L667.942 1338.82 Q666.484 1341.18 664.308 1342.32 Q662.132 1343.43 658.984 1343.43 Q655.003 1343.43 652.642 1341.2 Q650.304 1338.96 650.304 1335.21 Q650.304 1330.83 653.22 1328.61 Q656.16 1326.39 661.97 1326.39 L667.942 1326.39 L667.942 1325.97 Q667.942 1323.03 665.998 1321.44 Q664.077 1319.82 660.581 1319.82 Q658.359 1319.82 656.253 1320.35 Q654.146 1320.88 652.202 1321.95 L652.202 1318.01 Q654.54 1317.11 656.739 1316.67 Q658.938 1316.2 661.021 1316.2 Q666.646 1316.2 669.424 1319.12 Q672.202 1322.04 672.202 1327.96 Z" fill="#000000" fill-rule="evenodd" fill-opacity="1" /><path clip-path="url(#clip760)" d="M697.502 1317.59 L697.502 1321.62 Q695.697 1320.7 693.753 1320.23 Q691.808 1319.77 689.725 1319.77 Q686.553 1319.77 684.956 1320.74 Q683.382 1321.71 683.382 1323.66 Q683.382 1325.14 684.516 1326 Q685.651 1326.83 689.077 1327.59 L690.535 1327.92 Q695.072 1328.89 696.97 1330.67 Q698.891 1332.43 698.891 1335.6 Q698.891 1339.21 696.021 1341.32 Q693.174 1343.43 688.174 1343.43 Q686.091 1343.43 683.822 1343.01 Q681.577 1342.62 679.077 1341.81 L679.077 1337.41 Q681.438 1338.63 683.729 1339.26 Q686.021 1339.86 688.266 1339.86 Q691.276 1339.86 692.896 1338.84 Q694.516 1337.8 694.516 1335.93 Q694.516 1334.19 693.336 1333.26 Q692.178 1332.34 688.22 1331.48 L686.739 1331.14 Q682.78 1330.3 681.021 1328.59 Q679.262 1326.85 679.262 1323.84 Q679.262 1320.19 681.854 1318.2 Q684.447 1316.2 689.215 1316.2 Q691.577 1316.2 693.66 1316.55 Q695.743 1316.9 697.502 1317.59 Z" fill="#000000" fill-rule="evenodd" fill-opacity="1" /><path clip-path="url(#clip760)" d="M705.674 1316.83 L709.933 1316.83 L709.933 1342.76 L705.674 1342.76 L705.674 1316.83 M705.674 1306.74 L709.933 1306.74 L709.933 1312.13 L705.674 1312.13 L705.674 1306.74 Z" fill="#000000" fill-rule="evenodd" fill-opacity="1" /><path clip-path="url(#clip760)" d="M740.396 1327.11 L740.396 1342.76 L736.137 1342.76 L736.137 1327.25 Q736.137 1323.57 734.701 1321.74 Q733.266 1319.91 730.396 1319.91 Q726.947 1319.91 724.956 1322.11 Q722.965 1324.31 722.965 1328.1 L722.965 1342.76 L718.683 1342.76 L718.683 1316.83 L722.965 1316.83 L722.965 1320.86 Q724.493 1318.52 726.553 1317.36 Q728.637 1316.2 731.345 1316.2 Q735.812 1316.2 738.104 1318.98 Q740.396 1321.74 740.396 1327.11 Z" fill="#000000" fill-rule="evenodd" fill-opacity="1" /><path clip-path="url(#clip760)" d="M765.951 1329.49 Q765.951 1324.86 764.03 1322.32 Q762.132 1319.77 758.683 1319.77 Q755.257 1319.77 753.336 1322.32 Q751.437 1324.86 751.437 1329.49 Q751.437 1334.1 753.336 1336.64 Q755.257 1339.19 758.683 1339.19 Q762.132 1339.19 764.03 1336.64 Q765.951 1334.1 765.951 1329.49 M770.21 1339.54 Q770.21 1346.16 767.271 1349.38 Q764.331 1352.62 758.266 1352.62 Q756.021 1352.62 754.03 1352.27 Q752.039 1351.95 750.164 1351.25 L750.164 1347.11 Q752.039 1348.13 753.868 1348.61 Q755.697 1349.1 757.595 1349.1 Q761.785 1349.1 763.868 1346.9 Q765.951 1344.72 765.951 1340.3 L765.951 1338.2 Q764.632 1340.49 762.572 1341.62 Q760.511 1342.76 757.641 1342.76 Q752.873 1342.76 749.956 1339.12 Q747.039 1335.49 747.039 1329.49 Q747.039 1323.47 749.956 1319.84 Q752.873 1316.2 757.641 1316.2 Q760.511 1316.2 762.572 1317.34 Q764.632 1318.47 765.951 1320.76 L765.951 1316.83 L770.21 1316.83 L770.21 1339.54 Z" fill="#000000" fill-rule="evenodd" fill-opacity="1" /><path clip-path="url(#clip760)" d="M794.053 1306.74 L798.312 1306.74 L798.312 1342.76 L794.053 1342.76 L794.053 1306.74 Z" fill="#000000" fill-rule="evenodd" fill-opacity="1" /><path clip-path="url(#clip760)" d="M817.27 1319.82 Q813.844 1319.82 811.854 1322.5 Q809.863 1325.16 809.863 1329.82 Q809.863 1334.47 811.831 1337.15 Q813.821 1339.82 817.27 1339.82 Q820.673 1339.82 822.664 1337.13 Q824.655 1334.45 824.655 1329.82 Q824.655 1325.21 822.664 1322.52 Q820.673 1319.82 817.27 1319.82 M817.27 1316.2 Q822.826 1316.2 825.997 1319.82 Q829.168 1323.43 829.168 1329.82 Q829.168 1336.18 825.997 1339.82 Q822.826 1343.43 817.27 1343.43 Q811.692 1343.43 808.52 1339.82 Q805.372 1336.18 805.372 1329.82 Q805.372 1323.43 808.52 1319.82 Q811.692 1316.2 817.27 1316.2 Z" fill="#000000" fill-rule="evenodd" fill-opacity="1" /><path clip-path="url(#clip760)" d="M848.011 1329.72 Q842.849 1329.72 840.858 1330.9 Q838.867 1332.08 838.867 1334.93 Q838.867 1337.2 840.349 1338.54 Q841.854 1339.86 844.423 1339.86 Q847.965 1339.86 850.094 1337.36 Q852.247 1334.84 852.247 1330.67 L852.247 1329.72 L848.011 1329.72 M856.506 1327.96 L856.506 1342.76 L852.247 1342.76 L852.247 1338.82 Q850.789 1341.18 848.613 1342.32 Q846.437 1343.43 843.289 1343.43 Q839.307 1343.43 836.946 1341.2 Q834.608 1338.96 834.608 1335.21 Q834.608 1330.83 837.525 1328.61 Q840.465 1326.39 846.275 1326.39 L852.247 1326.39 L852.247 1325.97 Q852.247 1323.03 850.303 1321.44 Q848.381 1319.82 844.886 1319.82 Q842.664 1319.82 840.557 1320.35 Q838.451 1320.88 836.506 1321.95 L836.506 1318.01 Q838.844 1317.11 841.043 1316.67 Q843.242 1316.2 845.326 1316.2 Q850.951 1316.2 853.729 1319.12 Q856.506 1322.04 856.506 1327.96 Z" fill="#000000" fill-rule="evenodd" fill-opacity="1" /><path clip-path="url(#clip760)" d="M882.339 1320.76 L882.339 1306.74 L886.599 1306.74 L886.599 1342.76 L882.339 1342.76 L882.339 1338.87 Q880.997 1341.18 878.937 1342.32 Q876.9 1343.43 874.029 1343.43 Q869.33 1343.43 866.367 1339.68 Q863.428 1335.93 863.428 1329.82 Q863.428 1323.7 866.367 1319.95 Q869.33 1316.2 874.029 1316.2 Q876.9 1316.2 878.937 1317.34 Q880.997 1318.45 882.339 1320.76 M867.826 1329.82 Q867.826 1334.51 869.747 1337.2 Q871.691 1339.86 875.071 1339.86 Q878.451 1339.86 880.395 1337.2 Q882.339 1334.51 882.339 1329.82 Q882.339 1325.12 880.395 1322.45 Q878.451 1319.77 875.071 1319.77 Q871.691 1319.77 869.747 1322.45 Q867.826 1325.12 867.826 1329.82 Z" fill="#000000" fill-rule="evenodd" fill-opacity="1" /></svg>
