<?xml version="1.0" encoding="utf-8"?>
<svg xmlns="http://www.w3.org/2000/svg" xmlns:xlink="http://www.w3.org/1999/xlink" width="600" height="400" viewBox="0 0 2400 1600">
<defs>
  <clipPath id="clip540">
    <rect x="0" y="0" width="2400" height="1600"/>
  </clipPath>
</defs>
<path clip-path="url(#clip540)" d="
M0 1600 L2400 1600 L2400 0 L0 0  Z
  " fill="#ffffff" fill-rule="evenodd" fill-opacity="1"/>
<defs>
  <clipPath id="clip541">
    <rect x="480" y="0" width="1681" height="1600"/>
  </clipPath>
</defs>
<defs>
  <clipPath id="clip542">
    <rect x="294" y="123" width="2060" height="1288"/>
  </clipPath>
</defs>
<path clip-path="url(#clip540)" d="
M294.05 1410.9 L2352.76 1410.9 L2352.76 123.472 L294.05 123.472  Z
  " fill="#ffffff" fill-rule="evenodd" fill-opacity="1"/>
<polyline clip-path="url(#clip542)" style="stroke:#000000; stroke-linecap:butt; stroke-linejoin:round; stroke-width:2; stroke-opacity:0.1; fill:none" points="
  754.84,1410.9 754.84,123.472 
  "/>
<polyline clip-path="url(#clip542)" style="stroke:#000000; stroke-linecap:butt; stroke-linejoin:round; stroke-width:2; stroke-opacity:0.1; fill:none" points="
  1524.67,1410.9 1524.67,123.472 
  "/>
<polyline clip-path="url(#clip542)" style="stroke:#000000; stroke-linecap:butt; stroke-linejoin:round; stroke-width:2; stroke-opacity:0.1; fill:none" points="
  2294.49,1410.9 2294.49,123.472 
  "/>
<polyline clip-path="url(#clip540)" style="stroke:#000000; stroke-linecap:butt; stroke-linejoin:round; stroke-width:4; stroke-opacity:1; fill:none" points="
  294.05,1410.9 2352.76,1410.9 
  "/>
<polyline clip-path="url(#clip540)" style="stroke:#000000; stroke-linecap:butt; stroke-linejoin:round; stroke-width:4; stroke-opacity:1; fill:none" points="
  754.84,1410.9 754.84,1392 
  "/>
<polyline clip-path="url(#clip540)" style="stroke:#000000; stroke-linecap:butt; stroke-linejoin:round; stroke-width:4; stroke-opacity:1; fill:none" points="
  1524.67,1410.9 1524.67,1392 
  "/>
<polyline clip-path="url(#clip540)" style="stroke:#000000; stroke-linecap:butt; stroke-linejoin:round; stroke-width:4; stroke-opacity:1; fill:none" points="
  2294.49,1410.9 2294.49,1392 
  "/>
<path clip-path="url(#clip540)" d="M721.168 1485.02 L728.807 1485.02 L728.807 1458.66 L720.497 1460.32 L720.497 1456.06 L728.76 1454.4 L733.436 1454.4 L733.436 1485.02 L741.075 1485.02 L741.075 1488.96 L721.168 1488.96 L721.168 1485.02 Z" fill="#000000" fill-rule="evenodd" fill-opacity="1" /><path clip-path="url(#clip540)" d="M760.519 1457.48 Q756.908 1457.48 755.08 1461.04 Q753.274 1464.58 753.274 1471.71 Q753.274 1478.82 755.08 1482.38 Q756.908 1485.92 760.519 1485.92 Q764.154 1485.92 765.959 1482.38 Q767.788 1478.82 767.788 1471.71 Q767.788 1464.58 765.959 1461.04 Q764.154 1457.48 760.519 1457.48 M760.519 1453.77 Q766.33 1453.77 769.385 1458.38 Q772.464 1462.96 772.464 1471.71 Q772.464 1480.44 769.385 1485.04 Q766.33 1489.63 760.519 1489.63 Q754.709 1489.63 751.631 1485.04 Q748.575 1480.44 748.575 1471.71 Q748.575 1462.96 751.631 1458.38 Q754.709 1453.77 760.519 1453.77 Z" fill="#000000" fill-rule="evenodd" fill-opacity="1" /><path clip-path="url(#clip540)" d="M773.009 1458.35 L779.216 1458.35 L779.216 1436.93 L772.464 1438.28 L772.464 1434.82 L779.178 1433.47 L782.977 1433.47 L782.977 1458.35 L789.184 1458.35 L789.184 1461.55 L773.009 1461.55 L773.009 1458.35 Z" fill="#000000" fill-rule="evenodd" fill-opacity="1" /><path clip-path="url(#clip540)" d="M1490.44 1485.02 L1498.08 1485.02 L1498.08 1458.66 L1489.77 1460.32 L1489.77 1456.06 L1498.03 1454.4 L1502.71 1454.4 L1502.71 1485.02 L1510.35 1485.02 L1510.35 1488.96 L1490.44 1488.96 L1490.44 1485.02 Z" fill="#000000" fill-rule="evenodd" fill-opacity="1" /><path clip-path="url(#clip540)" d="M1529.79 1457.48 Q1526.18 1457.48 1524.35 1461.04 Q1522.54 1464.58 1522.54 1471.71 Q1522.54 1478.82 1524.35 1482.38 Q1526.18 1485.92 1529.79 1485.92 Q1533.42 1485.92 1535.23 1482.38 Q1537.06 1478.82 1537.06 1471.71 Q1537.06 1464.58 1535.23 1461.04 Q1533.42 1457.48 1529.79 1457.48 M1529.79 1453.77 Q1535.6 1453.77 1538.66 1458.38 Q1541.73 1462.96 1541.73 1471.71 Q1541.73 1480.44 1538.66 1485.04 Q1535.6 1489.63 1529.79 1489.63 Q1523.98 1489.63 1520.9 1485.04 Q1517.85 1480.44 1517.85 1471.71 Q1517.85 1462.96 1520.9 1458.38 Q1523.98 1453.77 1529.79 1453.77 Z" fill="#000000" fill-rule="evenodd" fill-opacity="1" /><path clip-path="url(#clip540)" d="M1546.3 1458.35 L1559.56 1458.35 L1559.56 1461.55 L1541.73 1461.55 L1541.73 1458.35 Q1543.9 1456.11 1547.62 1452.35 Q1551.36 1448.57 1552.32 1447.48 Q1554.15 1445.43 1554.86 1444.02 Q1555.6 1442.59 1555.6 1441.22 Q1555.6 1438.98 1554.02 1437.57 Q1552.45 1436.16 1549.93 1436.16 Q1548.15 1436.16 1546.15 1436.78 Q1544.18 1437.4 1541.92 1438.66 L1541.92 1434.82 Q1544.22 1433.9 1546.21 1433.43 Q1548.2 1432.96 1549.86 1432.96 Q1554.22 1432.96 1556.82 1435.14 Q1559.41 1437.32 1559.41 1440.97 Q1559.41 1442.7 1558.76 1444.26 Q1558.12 1445.8 1556.4 1447.91 Q1555.93 1448.46 1553.41 1451.07 Q1550.89 1453.67 1546.3 1458.35 Z" fill="#000000" fill-rule="evenodd" fill-opacity="1" /><path clip-path="url(#clip540)" d="M2259.93 1485.02 L2267.57 1485.02 L2267.57 1458.66 L2259.26 1460.32 L2259.26 1456.06 L2267.53 1454.4 L2272.2 1454.4 L2272.2 1485.02 L2279.84 1485.02 L2279.84 1488.96 L2259.93 1488.96 L2259.93 1485.02 Z" fill="#000000" fill-rule="evenodd" fill-opacity="1" /><path clip-path="url(#clip540)" d="M2299.29 1457.48 Q2295.67 1457.48 2293.85 1461.04 Q2292.04 1464.58 2292.04 1471.71 Q2292.04 1478.82 2293.85 1482.38 Q2295.67 1485.92 2299.29 1485.92 Q2302.92 1485.92 2304.73 1482.38 Q2306.55 1478.82 2306.55 1471.71 Q2306.55 1464.58 2304.73 1461.04 Q2302.92 1457.48 2299.29 1457.48 M2299.29 1453.77 Q2305.1 1453.77 2308.15 1458.38 Q2311.23 1462.96 2311.23 1471.71 Q2311.23 1480.44 2308.15 1485.04 Q2305.1 1489.63 2299.29 1489.63 Q2293.48 1489.63 2290.4 1485.04 Q2287.34 1480.44 2287.34 1471.71 Q2287.34 1462.96 2290.4 1458.38 Q2293.48 1453.77 2299.29 1453.77 Z" fill="#000000" fill-rule="evenodd" fill-opacity="1" /><path clip-path="url(#clip540)" d="M2323.93 1446.41 Q2326.65 1446.99 2328.18 1448.83 Q2329.72 1450.68 2329.72 1453.38 Q2329.72 1457.54 2326.86 1459.82 Q2324 1462.09 2318.73 1462.09 Q2316.97 1462.09 2315.09 1461.73 Q2313.22 1461.4 2311.23 1460.7 L2311.23 1457.03 Q2312.81 1457.95 2314.69 1458.42 Q2316.57 1458.89 2318.62 1458.89 Q2322.2 1458.89 2324.06 1457.48 Q2325.94 1456.07 2325.94 1453.38 Q2325.94 1450.9 2324.19 1449.51 Q2322.46 1448.1 2319.36 1448.1 L2316.08 1448.1 L2316.08 1444.98 L2319.51 1444.98 Q2322.31 1444.98 2323.79 1443.87 Q2325.28 1442.74 2325.28 1440.63 Q2325.28 1438.47 2323.74 1437.32 Q2322.21 1436.16 2319.36 1436.16 Q2317.79 1436.16 2316.01 1436.49 Q2314.22 1436.83 2312.08 1437.55 L2312.08 1434.16 Q2314.24 1433.56 2316.12 1433.26 Q2318.02 1432.96 2319.69 1432.96 Q2324.02 1432.96 2326.54 1434.93 Q2329.06 1436.89 2329.06 1440.24 Q2329.06 1442.57 2327.72 1444.19 Q2326.39 1445.79 2323.93 1446.41 Z" fill="#000000" fill-rule="evenodd" fill-opacity="1" /><path clip-path="url(#clip540)" d="M1124.98 1545.51 L1115.72 1545.51 L1113.05 1556.14 L1122.37 1556.14 L1124.98 1545.51 M1120.21 1527.4 L1116.9 1540.61 L1126.19 1540.61 L1129.54 1527.4 L1134.63 1527.4 L1131.35 1540.61 L1141.28 1540.61 L1141.28 1545.51 L1130.11 1545.51 L1127.5 1556.14 L1137.62 1556.14 L1137.62 1561.01 L1126.26 1561.01 L1122.95 1574.19 L1117.85 1574.19 L1121.13 1561.01 L1111.81 1561.01 L1108.53 1574.19 L1103.4 1574.19 L1106.71 1561.01 L1096.69 1561.01 L1096.69 1556.14 L1107.89 1556.14 L1110.57 1545.51 L1100.32 1545.51 L1100.32 1540.61 L1111.81 1540.61 L1115.05 1527.4 L1120.21 1527.4 Z" fill="#000000" fill-rule="evenodd" fill-opacity="1" /><path clip-path="url(#clip540)" d="M1186.95 1542.64 Q1182.24 1542.64 1179.51 1546.34 Q1176.77 1550 1176.77 1556.39 Q1176.77 1562.79 1179.47 1566.48 Q1182.21 1570.14 1186.95 1570.14 Q1191.63 1570.14 1194.37 1566.45 Q1197.11 1562.76 1197.11 1556.39 Q1197.11 1550.06 1194.37 1546.37 Q1191.63 1542.64 1186.95 1542.64 M1186.95 1537.68 Q1194.59 1537.68 1198.95 1542.64 Q1203.31 1547.61 1203.31 1556.39 Q1203.31 1565.15 1198.95 1570.14 Q1194.59 1575.11 1186.95 1575.11 Q1179.28 1575.11 1174.92 1570.14 Q1170.59 1565.15 1170.59 1556.39 Q1170.59 1547.61 1174.92 1542.64 Q1179.28 1537.68 1186.95 1537.68 Z" fill="#000000" fill-rule="evenodd" fill-opacity="1" /><path clip-path="url(#clip540)" d="M1231.07 1524.66 L1231.07 1529.53 L1225.47 1529.53 Q1222.32 1529.53 1221.07 1530.8 Q1219.86 1532.08 1219.86 1535.39 L1219.86 1538.54 L1229.51 1538.54 L1229.51 1543.09 L1219.86 1543.09 L1219.86 1574.19 L1213.98 1574.19 L1213.98 1543.09 L1208.37 1543.09 L1208.37 1538.54 L1213.98 1538.54 L1213.98 1536.05 Q1213.98 1530.1 1216.75 1527.4 Q1219.51 1524.66 1225.53 1524.66 L1231.07 1524.66 Z" fill="#000000" fill-rule="evenodd" fill-opacity="1" /><path clip-path="url(#clip540)" d="M1287.18 1554.9 L1287.18 1557.76 L1260.26 1557.76 Q1260.64 1563.81 1263.88 1566.99 Q1267.16 1570.14 1272.99 1570.14 Q1276.36 1570.14 1279.51 1569.32 Q1282.69 1568.49 1285.81 1566.83 L1285.81 1572.37 Q1282.66 1573.71 1279.35 1574.41 Q1276.04 1575.11 1272.64 1575.11 Q1264.11 1575.11 1259.11 1570.14 Q1254.14 1565.18 1254.14 1556.71 Q1254.14 1547.96 1258.85 1542.83 Q1263.6 1537.68 1271.62 1537.68 Q1278.81 1537.68 1282.98 1542.33 Q1287.18 1546.94 1287.18 1554.9 M1281.33 1553.18 Q1281.26 1548.37 1278.62 1545.51 Q1276.01 1542.64 1271.68 1542.64 Q1266.78 1542.64 1263.82 1545.41 Q1260.89 1548.18 1260.45 1553.21 L1281.33 1553.18 Z" fill="#000000" fill-rule="evenodd" fill-opacity="1" /><path clip-path="url(#clip540)" d="M1296.79 1524.66 L1302.65 1524.66 L1302.65 1574.19 L1296.79 1574.19 L1296.79 1524.66 Z" fill="#000000" fill-rule="evenodd" fill-opacity="1" /><path clip-path="url(#clip540)" d="M1345.4 1554.9 L1345.4 1557.76 L1318.47 1557.76 Q1318.85 1563.81 1322.1 1566.99 Q1325.38 1570.14 1331.2 1570.14 Q1334.57 1570.14 1337.73 1569.32 Q1340.91 1568.49 1344.03 1566.83 L1344.03 1572.37 Q1340.88 1573.71 1337.57 1574.41 Q1334.26 1575.11 1330.85 1575.11 Q1322.32 1575.11 1317.32 1570.14 Q1312.36 1565.18 1312.36 1556.71 Q1312.36 1547.96 1317.07 1542.83 Q1321.81 1537.68 1329.83 1537.68 Q1337.03 1537.68 1341.19 1542.33 Q1345.4 1546.94 1345.4 1554.9 M1339.54 1553.18 Q1339.48 1548.37 1336.83 1545.51 Q1334.22 1542.64 1329.9 1542.64 Q1324.99 1542.64 1322.03 1545.41 Q1319.11 1548.18 1318.66 1553.21 L1339.54 1553.18 Z" fill="#000000" fill-rule="evenodd" fill-opacity="1" /><path clip-path="url(#clip540)" d="M1382.76 1545.38 Q1384.96 1541.43 1388.01 1539.56 Q1391.07 1537.68 1395.21 1537.68 Q1400.78 1537.68 1403.8 1541.59 Q1406.83 1545.48 1406.83 1552.67 L1406.83 1574.19 L1400.94 1574.19 L1400.94 1552.86 Q1400.94 1547.74 1399.12 1545.25 Q1397.31 1542.77 1393.58 1542.77 Q1389.03 1542.77 1386.39 1545.79 Q1383.75 1548.82 1383.75 1554.04 L1383.75 1574.19 L1377.86 1574.19 L1377.86 1552.86 Q1377.86 1547.7 1376.05 1545.25 Q1374.23 1542.77 1370.45 1542.77 Q1365.96 1542.77 1363.32 1545.83 Q1360.67 1548.85 1360.67 1554.04 L1360.67 1574.19 L1354.79 1574.19 L1354.79 1538.54 L1360.67 1538.54 L1360.67 1544.08 Q1362.68 1540.8 1365.48 1539.24 Q1368.28 1537.68 1372.13 1537.68 Q1376.02 1537.68 1378.72 1539.65 Q1381.46 1541.62 1382.76 1545.38 Z" fill="#000000" fill-rule="evenodd" fill-opacity="1" /><path clip-path="url(#clip540)" d="M1449 1554.9 L1449 1557.76 L1422.07 1557.76 Q1422.45 1563.81 1425.7 1566.99 Q1428.98 1570.14 1434.8 1570.14 Q1438.18 1570.14 1441.33 1569.32 Q1444.51 1568.49 1447.63 1566.83 L1447.63 1572.37 Q1444.48 1573.71 1441.17 1574.41 Q1437.86 1575.11 1434.45 1575.11 Q1425.92 1575.11 1420.93 1570.14 Q1415.96 1565.18 1415.96 1556.71 Q1415.96 1547.96 1420.67 1542.83 Q1425.41 1537.68 1433.43 1537.68 Q1440.63 1537.68 1444.8 1542.33 Q1449 1546.94 1449 1554.9 M1443.14 1553.18 Q1443.08 1548.37 1440.44 1545.51 Q1437.83 1542.64 1433.5 1542.64 Q1428.6 1542.64 1425.64 1545.41 Q1422.71 1548.18 1422.26 1553.21 L1443.14 1553.18 Z" fill="#000000" fill-rule="evenodd" fill-opacity="1" /><path clip-path="url(#clip540)" d="M1488.24 1552.67 L1488.24 1574.19 L1482.39 1574.19 L1482.39 1552.86 Q1482.39 1547.8 1480.41 1545.29 Q1478.44 1542.77 1474.49 1542.77 Q1469.75 1542.77 1467.01 1545.79 Q1464.28 1548.82 1464.28 1554.04 L1464.28 1574.19 L1458.39 1574.19 L1458.39 1538.54 L1464.28 1538.54 L1464.28 1544.08 Q1466.38 1540.86 1469.21 1539.27 Q1472.07 1537.68 1475.8 1537.68 Q1481.94 1537.68 1485.09 1541.5 Q1488.24 1545.29 1488.24 1552.67 Z" fill="#000000" fill-rule="evenodd" fill-opacity="1" /><path clip-path="url(#clip540)" d="M1505.72 1528.42 L1505.72 1538.54 L1517.78 1538.54 L1517.78 1543.09 L1505.72 1543.09 L1505.72 1562.44 Q1505.72 1566.8 1506.89 1568.04 Q1508.1 1569.28 1511.76 1569.28 L1517.78 1569.28 L1517.78 1574.19 L1511.76 1574.19 Q1504.98 1574.19 1502.41 1571.67 Q1499.83 1569.12 1499.83 1562.44 L1499.83 1543.09 L1495.53 1543.09 L1495.53 1538.54 L1499.83 1538.54 L1499.83 1528.42 L1505.72 1528.42 Z" fill="#000000" fill-rule="evenodd" fill-opacity="1" /><path clip-path="url(#clip540)" d="M1548.21 1539.59 L1548.21 1545.13 Q1545.73 1543.85 1543.05 1543.22 Q1540.38 1542.58 1537.51 1542.58 Q1533.15 1542.58 1530.96 1543.92 Q1528.79 1545.25 1528.79 1547.93 Q1528.79 1549.96 1530.35 1551.14 Q1531.91 1552.29 1536.62 1553.34 L1538.63 1553.78 Q1544.87 1555.12 1547.48 1557.57 Q1550.12 1559.99 1550.12 1564.35 Q1550.12 1569.32 1546.17 1572.21 Q1542.26 1575.11 1535.38 1575.11 Q1532.52 1575.11 1529.4 1574.54 Q1526.31 1573.99 1522.87 1572.88 L1522.87 1566.83 Q1526.12 1568.52 1529.27 1569.38 Q1532.42 1570.21 1535.51 1570.21 Q1539.65 1570.21 1541.87 1568.81 Q1544.1 1567.37 1544.1 1564.8 Q1544.1 1562.41 1542.48 1561.14 Q1540.89 1559.86 1535.44 1558.68 L1533.41 1558.21 Q1527.96 1557.06 1525.55 1554.71 Q1523.13 1552.32 1523.13 1548.18 Q1523.13 1543.15 1526.69 1540.42 Q1530.26 1537.68 1536.81 1537.68 Q1540.06 1537.68 1542.92 1538.16 Q1545.79 1538.63 1548.21 1539.59 Z" fill="#000000" fill-rule="evenodd" fill-opacity="1" /><polyline clip-path="url(#clip542)" style="stroke:#000000; stroke-linecap:butt; stroke-linejoin:round; stroke-width:2; stroke-opacity:0.1; fill:none" points="
  294.05,1126.27 2352.76,1126.27 
  "/>
<polyline clip-path="url(#clip542)" style="stroke:#000000; stroke-linecap:butt; stroke-linejoin:round; stroke-width:2; stroke-opacity:0.1; fill:none" points="
  294.05,839.432 2352.76,839.432 
  "/>
<polyline clip-path="url(#clip542)" style="stroke:#000000; stroke-linecap:butt; stroke-linejoin:round; stroke-width:2; stroke-opacity:0.1; fill:none" points="
  294.05,552.591 2352.76,552.591 
  "/>
<polyline clip-path="url(#clip542)" style="stroke:#000000; stroke-linecap:butt; stroke-linejoin:round; stroke-width:2; stroke-opacity:0.1; fill:none" points="
  294.05,265.75 2352.76,265.75 
  "/>
<polyline clip-path="url(#clip540)" style="stroke:#000000; stroke-linecap:butt; stroke-linejoin:round; stroke-width:4; stroke-opacity:1; fill:none" points="
  294.05,1410.9 294.05,123.472 
  "/>
<polyline clip-path="url(#clip540)" style="stroke:#000000; stroke-linecap:butt; stroke-linejoin:round; stroke-width:4; stroke-opacity:1; fill:none" points="
  294.05,1126.27 312.947,1126.27 
  "/>
<polyline clip-path="url(#clip540)" style="stroke:#000000; stroke-linecap:butt; stroke-linejoin:round; stroke-width:4; stroke-opacity:1; fill:none" points="
  294.05,839.432 312.947,839.432 
  "/>
<polyline clip-path="url(#clip540)" style="stroke:#000000; stroke-linecap:butt; stroke-linejoin:round; stroke-width:4; stroke-opacity:1; fill:none" points="
  294.05,552.591 312.947,552.591 
  "/>
<polyline clip-path="url(#clip540)" style="stroke:#000000; stroke-linecap:butt; stroke-linejoin:round; stroke-width:4; stroke-opacity:1; fill:none" points="
  294.05,265.75 312.947,265.75 
  "/>
<path clip-path="url(#clip540)" d="M120.388 1146.07 L128.027 1146.07 L128.027 1119.7 L119.717 1121.37 L119.717 1117.11 L127.981 1115.44 L132.657 1115.44 L132.657 1146.07 L140.296 1146.07 L140.296 1150 L120.388 1150 L120.388 1146.07 Z" fill="#000000" fill-rule="evenodd" fill-opacity="1" /><path clip-path="url(#clip540)" d="M159.74 1118.52 Q156.129 1118.52 154.3 1122.08 Q152.495 1125.63 152.495 1132.76 Q152.495 1139.86 154.3 1143.43 Q156.129 1146.97 159.74 1146.97 Q163.374 1146.97 165.18 1143.43 Q167.009 1139.86 167.009 1132.76 Q167.009 1125.63 165.18 1122.08 Q163.374 1118.52 159.74 1118.52 M159.74 1114.82 Q165.55 1114.82 168.606 1119.42 Q171.684 1124.01 171.684 1132.76 Q171.684 1141.48 168.606 1146.09 Q165.55 1150.67 159.74 1150.67 Q153.93 1150.67 150.851 1146.09 Q147.796 1141.48 147.796 1132.76 Q147.796 1124.01 150.851 1119.42 Q153.93 1114.82 159.74 1114.82 Z" fill="#000000" fill-rule="evenodd" fill-opacity="1" /><path clip-path="url(#clip540)" d="M171.684 1108.92 L195.796 1108.92 L195.796 1112.11 L171.684 1112.11 L171.684 1108.92 Z" fill="#000000" fill-rule="evenodd" fill-opacity="1" /><path clip-path="url(#clip540)" d="M215.507 1107.45 Q218.234 1108.03 219.757 1109.88 Q221.299 1111.72 221.299 1114.43 Q221.299 1118.58 218.441 1120.86 Q215.582 1123.14 210.316 1123.14 Q208.548 1123.14 206.667 1122.78 Q204.805 1122.44 202.811 1121.74 L202.811 1118.08 Q204.391 1119 206.272 1119.47 Q208.153 1119.94 210.203 1119.94 Q213.776 1119.94 215.638 1118.53 Q217.519 1117.12 217.519 1114.43 Q217.519 1111.94 215.77 1110.55 Q214.04 1109.14 210.936 1109.14 L207.664 1109.14 L207.664 1106.02 L211.087 1106.02 Q213.889 1106.02 215.375 1104.91 Q216.861 1103.78 216.861 1101.68 Q216.861 1099.51 215.318 1098.37 Q213.795 1097.2 210.936 1097.2 Q209.375 1097.2 207.589 1097.54 Q205.802 1097.88 203.658 1098.59 L203.658 1095.21 Q205.821 1094.6 207.701 1094.3 Q209.601 1094 211.275 1094 Q215.601 1094 218.121 1095.98 Q220.641 1097.93 220.641 1101.28 Q220.641 1103.61 219.306 1105.23 Q217.97 1106.83 215.507 1107.45 Z" fill="#000000" fill-rule="evenodd" fill-opacity="1" /><path clip-path="url(#clip540)" d="M228.503 1117.81 L232.471 1117.81 L232.471 1122.59 L228.503 1122.59 L228.503 1117.81 Z" fill="#000000" fill-rule="evenodd" fill-opacity="1" /><path clip-path="url(#clip540)" d="M252.257 1107.45 Q254.984 1108.03 256.508 1109.88 Q258.05 1111.72 258.05 1114.43 Q258.05 1118.58 255.191 1120.86 Q252.332 1123.14 247.066 1123.14 Q245.298 1123.14 243.417 1122.78 Q241.555 1122.44 239.562 1121.74 L239.562 1118.08 Q241.142 1119 243.022 1119.47 Q244.903 1119.94 246.953 1119.94 Q250.527 1119.94 252.389 1118.53 Q254.269 1117.12 254.269 1114.43 Q254.269 1111.94 252.52 1110.55 Q250.79 1109.14 247.687 1109.14 L244.414 1109.14 L244.414 1106.02 L247.837 1106.02 Q250.639 1106.02 252.125 1104.91 Q253.611 1103.78 253.611 1101.68 Q253.611 1099.51 252.069 1098.37 Q250.545 1097.2 247.687 1097.2 Q246.126 1097.2 244.339 1097.54 Q242.552 1097.88 240.408 1098.59 L240.408 1095.21 Q242.571 1094.6 244.452 1094.3 Q246.351 1094 248.025 1094 Q252.351 1094 254.871 1095.98 Q257.391 1097.93 257.391 1101.28 Q257.391 1103.61 256.056 1105.23 Q254.721 1106.83 252.257 1107.45 Z" fill="#000000" fill-rule="evenodd" fill-opacity="1" /><path clip-path="url(#clip540)" d="M119.862 859.224 L127.501 859.224 L127.501 832.859 L119.191 834.525 L119.191 830.266 L127.454 828.599 L132.13 828.599 L132.13 859.224 L139.769 859.224 L139.769 863.159 L119.862 863.159 L119.862 859.224 Z" fill="#000000" fill-rule="evenodd" fill-opacity="1" /><path clip-path="url(#clip540)" d="M159.213 831.678 Q155.602 831.678 153.774 835.243 Q151.968 838.785 151.968 845.914 Q151.968 853.021 153.774 856.585 Q155.602 860.127 159.213 860.127 Q162.848 860.127 164.653 856.585 Q166.482 853.021 166.482 845.914 Q166.482 838.785 164.653 835.243 Q162.848 831.678 159.213 831.678 M159.213 827.974 Q165.024 827.974 168.079 832.581 Q171.158 837.164 171.158 845.914 Q171.158 854.641 168.079 859.247 Q165.024 863.831 159.213 863.831 Q153.403 863.831 150.325 859.247 Q147.269 854.641 147.269 845.914 Q147.269 837.164 150.325 832.581 Q153.403 827.974 159.213 827.974 Z" fill="#000000" fill-rule="evenodd" fill-opacity="1" /><path clip-path="url(#clip540)" d="M171.158 822.076 L195.269 822.076 L195.269 825.273 L171.158 825.273 L171.158 822.076 Z" fill="#000000" fill-rule="evenodd" fill-opacity="1" /><path clip-path="url(#clip540)" d="M214.98 820.609 Q217.707 821.192 219.231 823.035 Q220.773 824.878 220.773 827.586 Q220.773 831.743 217.914 834.019 Q215.055 836.294 209.789 836.294 Q208.021 836.294 206.14 835.937 Q204.278 835.599 202.285 834.903 L202.285 831.235 Q203.865 832.157 205.745 832.627 Q207.626 833.097 209.676 833.097 Q213.25 833.097 215.112 831.687 Q216.992 830.276 216.992 827.586 Q216.992 825.104 215.243 823.712 Q213.513 822.301 210.41 822.301 L207.137 822.301 L207.137 819.179 L210.56 819.179 Q213.362 819.179 214.848 818.07 Q216.334 816.941 216.334 814.835 Q216.334 812.672 214.792 811.525 Q213.268 810.358 210.41 810.358 Q208.849 810.358 207.062 810.697 Q205.275 811.036 203.131 811.75 L203.131 808.365 Q205.294 807.763 207.175 807.462 Q209.074 807.161 210.748 807.161 Q215.074 807.161 217.594 809.136 Q220.114 811.092 220.114 814.44 Q220.114 816.772 218.779 818.389 Q217.444 819.988 214.98 820.609 Z" fill="#000000" fill-rule="evenodd" fill-opacity="1" /><path clip-path="url(#clip540)" d="M227.976 830.972 L231.945 830.972 L231.945 835.749 L227.976 835.749 L227.976 830.972 Z" fill="#000000" fill-rule="evenodd" fill-opacity="1" /><path clip-path="url(#clip540)" d="M248.345 810.17 Q245.411 810.17 243.925 813.067 Q242.458 815.944 242.458 821.737 Q242.458 827.511 243.925 830.408 Q245.411 833.285 248.345 833.285 Q251.298 833.285 252.765 830.408 Q254.251 827.511 254.251 821.737 Q254.251 815.944 252.765 813.067 Q251.298 810.17 248.345 810.17 M248.345 807.161 Q253.066 807.161 255.548 810.904 Q258.05 814.628 258.05 821.737 Q258.05 828.828 255.548 832.57 Q253.066 836.294 248.345 836.294 Q243.624 836.294 241.123 832.57 Q238.64 828.828 238.64 821.737 Q238.64 814.628 241.123 810.904 Q243.624 807.161 248.345 807.161 Z" fill="#000000" fill-rule="evenodd" fill-opacity="1" /><path clip-path="url(#clip540)" d="M120.595 572.383 L128.234 572.383 L128.234 546.018 L119.924 547.684 L119.924 543.425 L128.188 541.758 L132.864 541.758 L132.864 572.383 L140.503 572.383 L140.503 576.318 L120.595 576.318 L120.595 572.383 Z" fill="#000000" fill-rule="evenodd" fill-opacity="1" /><path clip-path="url(#clip540)" d="M159.947 544.837 Q156.336 544.837 154.507 548.402 Q152.702 551.944 152.702 559.073 Q152.702 566.18 154.507 569.744 Q156.336 573.286 159.947 573.286 Q163.581 573.286 165.387 569.744 Q167.215 566.18 167.215 559.073 Q167.215 551.944 165.387 548.402 Q163.581 544.837 159.947 544.837 M159.947 541.133 Q165.757 541.133 168.813 545.74 Q171.891 550.323 171.891 559.073 Q171.891 567.8 168.813 572.406 Q165.757 576.99 159.947 576.99 Q154.137 576.99 151.058 572.406 Q148.003 567.8 148.003 559.073 Q148.003 550.323 151.058 545.74 Q154.137 541.133 159.947 541.133 Z" fill="#000000" fill-rule="evenodd" fill-opacity="1" /><path clip-path="url(#clip540)" d="M171.891 535.235 L196.003 535.235 L196.003 538.432 L171.891 538.432 L171.891 535.235 Z" fill="#000000" fill-rule="evenodd" fill-opacity="1" /><path clip-path="url(#clip540)" d="M207.476 545.711 L220.735 545.711 L220.735 548.908 L202.905 548.908 L202.905 545.711 Q205.068 543.473 208.792 539.711 Q212.535 535.931 213.494 534.84 Q215.318 532.79 216.033 531.379 Q216.767 529.95 216.767 528.577 Q216.767 526.339 215.187 524.928 Q213.626 523.518 211.106 523.518 Q209.319 523.518 207.325 524.138 Q205.35 524.759 203.093 526.019 L203.093 522.182 Q205.388 521.261 207.382 520.79 Q209.375 520.32 211.03 520.32 Q215.394 520.32 217.989 522.502 Q220.585 524.684 220.585 528.332 Q220.585 530.063 219.926 531.624 Q219.287 533.166 217.575 535.272 Q217.105 535.818 214.585 538.432 Q212.065 541.028 207.476 545.711 Z" fill="#000000" fill-rule="evenodd" fill-opacity="1" /><path clip-path="url(#clip540)" d="M228.71 544.131 L232.678 544.131 L232.678 548.908 L228.71 548.908 L228.71 544.131 Z" fill="#000000" fill-rule="evenodd" fill-opacity="1" /><path clip-path="url(#clip540)" d="M239.994 520.828 L258.05 520.828 L258.05 522.445 L247.856 548.908 L243.887 548.908 L253.479 524.025 L239.994 524.025 L239.994 520.828 Z" fill="#000000" fill-rule="evenodd" fill-opacity="1" /><path clip-path="url(#clip540)" d="M119.467 285.542 L127.106 285.542 L127.106 259.177 L118.796 260.843 L118.796 256.584 L127.059 254.917 L131.735 254.917 L131.735 285.542 L139.374 285.542 L139.374 289.477 L119.467 289.477 L119.467 285.542 Z" fill="#000000" fill-rule="evenodd" fill-opacity="1" /><path clip-path="url(#clip540)" d="M158.819 257.996 Q155.207 257.996 153.379 261.561 Q151.573 265.103 151.573 272.232 Q151.573 279.339 153.379 282.903 Q155.207 286.445 158.819 286.445 Q162.453 286.445 164.258 282.903 Q166.087 279.339 166.087 272.232 Q166.087 265.103 164.258 261.561 Q162.453 257.996 158.819 257.996 M158.819 254.292 Q164.629 254.292 167.684 258.899 Q170.763 263.482 170.763 272.232 Q170.763 280.959 167.684 285.565 Q164.629 290.149 158.819 290.149 Q153.008 290.149 149.93 285.565 Q146.874 280.959 146.874 272.232 Q146.874 263.482 149.93 258.899 Q153.008 254.292 158.819 254.292 Z" fill="#000000" fill-rule="evenodd" fill-opacity="1" /><path clip-path="url(#clip540)" d="M170.763 248.394 L194.874 248.394 L194.874 251.591 L170.763 251.591 L170.763 248.394 Z" fill="#000000" fill-rule="evenodd" fill-opacity="1" /><path clip-path="url(#clip540)" d="M206.347 258.87 L219.607 258.87 L219.607 262.067 L201.777 262.067 L201.777 258.87 Q203.94 256.632 207.664 252.87 Q211.406 249.09 212.366 247.999 Q214.19 245.949 214.905 244.538 Q215.638 243.109 215.638 241.736 Q215.638 239.498 214.058 238.087 Q212.497 236.677 209.977 236.677 Q208.19 236.677 206.197 237.297 Q204.222 237.918 201.965 239.178 L201.965 235.341 Q204.26 234.42 206.253 233.949 Q208.247 233.479 209.902 233.479 Q214.265 233.479 216.861 235.661 Q219.456 237.843 219.456 241.491 Q219.456 243.222 218.798 244.783 Q218.158 246.325 216.447 248.431 Q215.977 248.977 213.457 251.591 Q210.936 254.187 206.347 258.87 Z" fill="#000000" fill-rule="evenodd" fill-opacity="1" /><path clip-path="url(#clip540)" d="M227.581 257.29 L231.55 257.29 L231.55 262.067 L227.581 262.067 L227.581 257.29 Z" fill="#000000" fill-rule="evenodd" fill-opacity="1" /><path clip-path="url(#clip540)" d="M250.263 237.297 L240.671 252.287 L250.263 252.287 L250.263 237.297 M249.267 233.987 L254.044 233.987 L254.044 252.287 L258.05 252.287 L258.05 255.447 L254.044 255.447 L254.044 262.067 L250.263 262.067 L250.263 255.447 L237.587 255.447 L237.587 251.779 L249.267 233.987 Z" fill="#000000" fill-rule="evenodd" fill-opacity="1" /><path clip-path="url(#clip540)" d="M77.6144 1097.32 L16.1978 1097.32 Q13.7502 1097.32 13.7502 1096 Q13.7502 1094.68 15.7147 1094.68 L77.1313 1094.68 Q79.5789 1094.68 79.5789 1096 Q79.5789 1097.32 77.6144 1097.32 Z" fill="#000000" fill-rule="evenodd" fill-opacity="1" /><path clip-path="url(#clip540)" d="M77.6144 1079.6 L16.1978 1079.6 Q13.7502 1079.6 13.7502 1078.28 Q13.7502 1076.96 15.7147 1076.96 L77.1313 1076.96 Q79.5789 1076.96 79.5789 1078.28 Q79.5789 1079.6 77.6144 1079.6 Z" fill="#000000" fill-rule="evenodd" fill-opacity="1" /><path clip-path="url(#clip540)" d="M53.7176 1018.46 Q57.8722 1019.3 60.2554 1020.43 Q63.8947 1022.27 63.8947 1025.32 Q63.8947 1027.45 62.7031 1029.06 Q61.4792 1030.64 59.4503 1031.19 Q60.2554 1031.8 60.8029 1032.35 Q61.3504 1032.86 62.1878 1033.86 Q62.9929 1034.86 63.4438 1036.21 Q63.8947 1037.53 63.8947 1039.04 Q63.8947 1040.2 63.6692 1041.27 Q63.476 1042.33 62.9285 1043.46 Q62.3488 1044.55 61.4792 1045.36 Q60.6097 1046.13 59.1926 1046.64 Q57.7756 1047.16 55.972 1047.16 Q53.7176 1047.16 50.6581 1046.29 Q47.5985 1045.39 42.1235 1043.33 Q39.225 1042.2 37.6147 1042.2 Q36.874 1042.2 36.3909 1042.36 Q35.9078 1042.52 35.7468 1042.84 Q35.5535 1043.13 35.5213 1043.33 Q35.4569 1043.52 35.4569 1043.84 Q35.4569 1045.84 37.4859 1047.58 Q39.5148 1049.32 43.6372 1050.51 Q44.4423 1050.77 44.6356 1050.93 Q44.8288 1051.09 44.8288 1051.57 Q44.7966 1052.38 44.1525 1052.38 Q43.8948 1052.38 42.8965 1052.09 Q41.8659 1051.8 40.3522 1051.12 Q38.8063 1050.41 37.4215 1049.45 Q36.0044 1048.48 35.006 1046.97 Q34.0076 1045.42 34.0076 1043.65 Q34.0076 1041.23 35.5857 1039.75 Q37.1316 1038.24 39.4182 1038.24 Q40.8353 1038.24 43.5728 1039.37 Q53.0735 1042.94 57.0348 1042.94 Q62.4132 1042.94 62.4132 1038.85 Q62.4132 1037.5 61.8657 1036.24 Q61.3182 1034.95 60.5453 1034.12 Q59.7723 1033.28 58.935 1032.64 Q58.0976 1031.96 57.5501 1031.67 Q57.0026 1031.35 56.8738 1031.31 L37.035 1026.39 Q36.2621 1026.19 35.7468 1025.84 Q35.1993 1025.45 35.006 1025 Q34.8128 1024.55 34.7806 1024.29 Q34.7162 1024.04 34.7162 1023.81 Q34.7162 1023.01 35.1993 1022.46 Q35.6823 1021.88 36.5197 1021.88 Q36.6807 1021.88 37.4537 1022.07 Q38.1944 1022.23 39.2894 1022.49 Q40.3522 1022.75 40.9319 1022.88 Q44.9898 1023.91 45.4085 1024 L52.526 1025.84 Q52.9447 1025.94 54.2973 1026.26 Q55.65 1026.55 56.3585 1026.71 Q57.0348 1026.87 57.9688 1027.03 Q58.8706 1027.16 59.3859 1027.16 Q60.9962 1027.16 61.7047 1026.68 Q62.4132 1026.19 62.4132 1025.13 Q62.4132 1024.13 61.7369 1023.36 Q61.0284 1022.55 59.6757 1021.94 Q58.2909 1021.33 57.1637 1020.98 Q56.0365 1020.62 54.2651 1020.17 Q53.4922 1020.01 53.299 1019.88 Q53.0735 1019.72 53.0735 1019.27 Q53.0735 1018.46 53.7176 1018.46 Z" fill="#000000" fill-rule="evenodd" fill-opacity="1" /><path clip-path="url(#clip540)" d="M82.9261 1011.76 L81.5059 1011.76 Q81.5059 1009.3 81.2128 1008.74 Q80.8972 1008.17 79.4093 1008.17 L67.0325 1008.17 Q65.3192 1008.17 64.8909 1008.78 Q64.4625 1009.37 64.4625 1011.76 L63.0197 1011.76 L62.5237 1005.27 L67.3707 1005.27 Q62.5237 1003.1 62.5237 998.436 Q62.5237 994.964 64.2371 993.589 Q65.3868 992.574 66.6718 992.371 Q67.9569 992.146 71.2934 992.146 L80.1081 992.146 Q81.0775 992.101 81.303 991.357 Q81.5059 990.613 81.5059 988.539 L82.9261 988.539 Q82.7909 993.251 82.7909 993.724 Q82.7909 994.085 82.9261 998.932 L81.5059 998.932 Q81.5059 996.474 81.2128 995.911 Q80.8972 995.325 79.4093 995.325 L68.6557 995.325 Q66.3111 995.325 64.9359 996.046 Q63.5382 996.768 63.5382 998.751 Q63.5382 1001.14 65.5446 1003.06 Q67.5511 1004.97 70.9327 1004.97 L79.4093 1004.97 Q80.8972 1004.97 81.2128 1004.41 Q81.5059 1003.82 81.5059 1001.39 L82.9261 1001.39 Q82.7909 1006.1 82.7909 1006.55 Q82.7909 1006.91 82.9261 1011.76 Z" fill="#000000" fill-rule="evenodd" fill-opacity="1" /><path clip-path="url(#clip540)" d="M64.4625 986.209 L63.0197 986.209 L62.5237 979.423 L77.8537 979.423 Q78.9584 979.423 79.6122 979.333 Q80.2434 979.243 80.9873 978.882 Q81.7313 978.499 82.0695 977.642 Q82.4076 976.763 82.4076 975.365 Q82.4076 972.863 80.3561 971.33 Q78.3046 969.774 75.2611 969.774 L67.0325 969.774 Q65.3192 969.774 64.8909 970.383 Q64.4625 970.992 64.4625 973.381 L63.0197 973.381 L62.5237 966.596 L78.9133 966.596 Q80.6266 966.596 81.0775 966.009 Q81.5059 965.401 81.5059 962.988 L82.9261 962.988 L83.4447 969.639 L79.274 969.639 Q83.4221 971.578 83.4447 975.591 Q83.4447 977.62 82.9261 979.017 Q82.4076 980.393 81.7764 981.091 Q81.1226 981.79 79.8827 982.173 Q78.6428 982.534 77.8763 982.579 Q77.1098 982.624 75.6218 982.624 L68.7008 982.624 Q65.5672 982.624 65.0261 983.075 Q64.4625 983.526 64.4625 986.209 Z" fill="#000000" fill-rule="evenodd" fill-opacity="1" /><path clip-path="url(#clip540)" d="M82.9261 961.398 L81.5059 961.398 Q81.5059 958.94 81.2128 958.377 Q80.8972 957.813 79.4093 957.813 L67.0325 957.813 Q65.3192 957.813 64.8909 958.422 Q64.4625 959.008 64.4625 961.398 L63.0197 961.398 L62.5237 954.905 L67.3707 954.905 Q62.5237 952.741 62.5237 948.074 Q62.5237 942.663 67.0325 941.919 Q65.2741 941.13 63.8989 939.485 Q62.5237 937.816 62.5237 935.224 Q62.5237 931.752 64.2371 930.377 Q65.3868 929.362 66.6718 929.16 Q67.9569 928.957 71.2934 928.957 L80.1081 928.957 Q81.0775 928.912 81.303 928.168 Q81.5059 927.424 81.5059 925.35 L82.9261 925.35 Q82.7909 930.061 82.7909 930.512 Q82.7909 930.873 82.9261 935.742 L81.5059 935.742 Q81.5059 933.285 81.2128 932.721 Q80.8972 932.135 79.4093 932.135 L68.6557 932.135 Q66.3111 932.135 64.9359 932.857 Q63.5382 933.578 63.5382 935.562 Q63.5382 937.952 65.5446 939.868 Q67.5511 941.784 70.9327 941.784 L79.4093 941.784 Q80.8972 941.784 81.2128 941.221 Q81.5059 940.634 81.5059 938.177 L82.9261 938.177 Q82.7909 942.889 82.7909 943.362 Q82.7909 943.723 82.9261 948.57 L81.5059 948.57 Q81.5059 946.113 81.2128 945.549 Q80.8972 944.963 79.4093 944.963 L68.6557 944.963 Q66.3111 944.963 64.9359 945.684 Q63.5382 946.406 63.5382 948.39 Q63.5382 950.779 65.5446 952.696 Q67.5511 954.612 70.9327 954.612 L79.4093 954.612 Q80.8972 954.612 81.2128 954.048 Q81.5059 953.462 81.5059 951.027 L82.9261 951.027 Q82.7909 955.739 82.7909 956.19 Q82.7909 956.551 82.9261 961.398 Z" fill="#000000" fill-rule="evenodd" fill-opacity="1" /><path clip-path="url(#clip540)" d="M72.7587 922.588 Q68.4077 922.588 65.3192 919.792 Q62.2307 916.997 62.2307 912.984 Q62.2307 908.926 64.8683 906.829 Q67.506 904.71 71.2934 904.71 Q71.9922 904.71 72.1275 904.89 Q72.2628 905.071 72.2628 905.86 L72.2628 918.755 Q76.9745 918.755 79.1838 917.357 Q82.2724 915.419 82.2724 912.15 Q82.2724 911.699 82.1822 911.158 Q82.092 910.617 81.7088 909.512 Q81.303 908.407 80.2434 907.438 Q79.1838 906.469 77.5156 905.905 Q76.8618 905.77 76.8843 905.319 Q76.8843 904.71 77.4254 904.71 Q77.8312 904.71 78.7555 905.161 Q79.6572 905.589 80.7394 906.423 Q81.8215 907.258 82.6331 908.881 Q83.4447 910.481 83.4447 912.42 Q83.4447 916.478 80.3787 919.544 Q77.2901 922.588 72.7587 922.588 M71.2934 918.71 L71.2934 907.754 Q70.324 907.754 69.2419 907.934 Q68.1597 908.092 66.6718 908.588 Q65.1614 909.061 64.2145 910.188 Q63.2677 911.315 63.2677 912.984 Q63.2677 913.728 63.5833 914.539 Q63.8989 915.328 64.6654 916.298 Q65.4319 917.267 67.1678 917.943 Q68.9037 918.62 71.2934 918.71 Z" fill="#000000" fill-rule="evenodd" fill-opacity="1" /><path clip-path="url(#clip540)" d="M82.9261 903.215 L81.5059 903.215 Q81.5059 900.757 81.2128 900.194 Q80.8972 899.607 79.4093 899.607 L67.0325 899.607 Q65.3192 899.607 64.8909 900.216 Q64.4625 900.802 64.4625 903.215 L63.0197 903.215 L62.5237 896.789 L67.5961 896.789 Q65.6123 896.136 64.0793 894.76 Q62.5237 893.363 62.5237 891.108 Q62.5237 889.62 63.3579 888.674 Q64.192 887.704 65.3417 887.704 Q66.3562 887.704 66.8747 888.335 Q67.3707 888.944 67.3707 889.688 Q67.3707 890.522 66.8522 891.108 Q66.3111 891.672 65.3868 891.672 Q64.8232 891.672 64.3949 891.424 Q63.944 891.153 63.7862 890.951 Q63.6284 890.748 63.5833 890.612 Q63.5382 890.703 63.5382 891.108 Q63.5382 893.656 66.0857 895.121 Q68.6106 896.564 72.2177 896.564 L79.3191 896.564 Q80.6492 896.564 81.0775 896.023 Q81.5059 895.459 81.5059 893.047 L81.5059 892.078 L82.9261 892.078 Q82.7909 893.926 82.7909 897.939 Q82.7909 898.503 82.8134 899.382 Q82.836 900.261 82.881 901.411 Q82.9261 902.561 82.9261 903.215 Z" fill="#000000" fill-rule="evenodd" fill-opacity="1" /><path clip-path="url(#clip540)" d="M82.9261 885.934 L81.5059 885.934 Q81.5059 883.477 81.2128 882.914 Q80.8972 882.35 79.4093 882.35 L66.9875 882.35 Q65.2741 882.35 64.8683 882.936 Q64.4625 883.5 64.4625 885.754 L63.0197 885.754 L62.5237 879.307 L79.4543 879.307 Q80.8295 879.307 81.1677 878.811 Q81.5059 878.315 81.5059 876.06 L82.9261 876.06 Q82.7909 880.772 82.7909 880.862 Q82.7909 881.493 82.9261 885.934 M54.4755 883.996 Q53.5512 883.996 52.8072 883.297 Q52.0407 882.575 52.0407 881.561 Q52.0407 880.546 52.7396 879.825 Q53.4159 879.104 54.498 879.104 Q55.5576 879.104 56.2565 879.825 Q56.9328 880.546 56.9328 881.561 Q56.9328 882.62 56.1888 883.319 Q55.4449 883.996 54.4755 883.996 Z" fill="#000000" fill-rule="evenodd" fill-opacity="1" /><path clip-path="url(#clip540)" d="M80.4012 869.05 Q77.3352 871.98 72.9616 871.98 Q68.5655 871.98 65.4094 869.095 Q62.2307 866.209 62.2307 861.971 Q62.2307 859.153 63.5833 857.034 Q64.9134 854.914 67.1904 854.914 Q68.2048 854.914 68.791 855.523 Q69.3546 856.109 69.3546 857.034 Q69.3546 858.003 68.7684 858.589 Q68.1597 859.153 67.2354 859.153 Q66.8296 859.153 66.4239 859.018 Q66.0181 858.882 65.5897 858.386 Q65.1614 857.868 65.0938 856.989 Q63.4029 858.634 63.4029 861.836 Q63.4029 861.881 63.4029 861.926 Q63.4029 864.27 65.6123 866.209 Q67.8216 868.148 72.8715 868.148 Q75.5091 868.148 77.4479 867.517 Q79.3642 866.863 80.3561 865.803 Q81.348 864.744 81.8215 863.707 Q82.2724 862.67 82.2724 861.655 Q82.2724 857.124 77.4254 855.591 Q76.9745 855.456 76.9745 855.005 Q76.9745 854.396 77.4254 854.396 Q77.6508 854.396 78.237 854.576 Q78.8231 854.757 79.7474 855.32 Q80.6717 855.884 81.4833 856.695 Q82.2724 857.485 82.8585 858.905 Q83.4447 860.303 83.4447 862.061 Q83.4447 866.119 80.4012 869.05 Z" fill="#000000" fill-rule="evenodd" fill-opacity="1" /><path clip-path="url(#clip540)" d="M78.53 852.053 Q74.6074 852.053 72.5333 847.431 Q71.2032 844.658 70.865 838.932 L69.1742 838.932 Q66.3111 838.932 64.8007 840.443 Q63.2677 841.931 63.2677 843.824 Q63.2677 847.206 65.3868 848.829 Q65.4319 847.454 66.1308 846.958 Q66.8071 846.462 67.506 846.462 Q68.4303 846.462 69.039 847.048 Q69.6251 847.612 69.6251 848.581 Q69.6251 849.505 69.0615 850.114 Q68.4754 850.723 67.4609 850.723 Q65.2065 850.723 63.7186 848.694 Q62.2307 846.642 62.2307 843.734 Q62.2307 839.947 64.7781 837.422 Q65.5672 836.633 66.5817 836.25 Q67.5961 835.844 68.2725 835.799 Q68.9262 835.754 70.2338 835.754 L79.4543 835.754 Q79.7249 835.754 80.1758 835.663 Q80.6266 835.573 81.2128 835.167 Q81.7764 834.739 81.7764 834.04 Q81.7764 832.372 78.8231 832.394 L76.2305 832.394 L76.2305 831.222 L78.8231 831.222 Q81.2804 831.222 82.2498 832.53 Q83.1967 833.815 83.1967 835.01 Q83.1967 836.543 82.0695 837.512 Q80.9423 838.481 79.4093 838.617 Q81.1677 839.316 82.3174 840.916 Q83.4447 842.494 83.4447 844.658 Q83.4447 846.327 83.0163 847.905 Q82.6105 849.46 81.4608 850.768 Q80.2885 852.053 78.53 852.053 M78.4849 848.491 Q80.1983 848.491 81.303 847.274 Q82.4076 846.056 82.4076 844.343 Q82.4076 842.404 80.9197 840.668 Q79.4093 838.932 76.456 838.932 L71.8344 838.932 Q72.0148 844.05 74.0663 846.282 Q76.0953 848.491 78.4849 848.491 Z" fill="#000000" fill-rule="evenodd" fill-opacity="1" /><path clip-path="url(#clip540)" d="M82.9261 829.373 L81.5059 829.373 Q81.5059 826.916 81.2128 826.352 Q80.8972 825.788 79.4093 825.788 L55.3998 825.788 Q53.6864 825.788 53.2581 826.397 Q52.8298 826.983 52.8298 829.373 L51.3869 829.373 L50.891 822.745 L79.4093 822.745 Q80.8972 822.745 81.2128 822.159 Q81.5059 821.573 81.5059 819.138 L82.9261 819.138 Q82.9261 819.701 82.881 820.874 Q82.836 822.046 82.8134 822.903 Q82.7909 823.759 82.7909 824.255 Q82.7909 824.796 82.9261 829.373 Z" fill="#000000" fill-rule="evenodd" fill-opacity="1" /><path clip-path="url(#clip540)" d="M45.7306 747.827 Q46.117 747.441 46.6645 747.441 Q47.212 747.441 47.5985 747.827 Q47.985 748.214 47.985 748.761 L47.985 790.049 Q47.985 790.597 47.5985 790.983 Q47.212 791.37 46.6645 791.37 Q46.117 791.37 45.7306 790.983 Q45.3441 790.597 45.3441 790.049 L45.3441 748.761 Q45.3441 748.214 45.7306 747.827 Z" fill="#000000" fill-rule="evenodd" fill-opacity="1" /><path clip-path="url(#clip540)" d="M53.7176 688.34 Q57.8722 689.177 60.2554 690.305 Q63.8947 692.14 63.8947 695.2 Q63.8947 697.326 62.7031 698.936 Q61.4792 700.514 59.4503 701.061 Q60.2554 701.673 60.8029 702.221 Q61.3504 702.736 62.1878 703.735 Q62.9929 704.733 63.4438 706.086 Q63.8947 707.406 63.8947 708.92 Q63.8947 710.079 63.6692 711.142 Q63.476 712.205 62.9285 713.332 Q62.3488 714.427 61.4792 715.232 Q60.6097 716.005 59.1926 716.52 Q57.7756 717.036 55.972 717.036 Q53.7176 717.036 50.6581 716.166 Q47.5985 715.264 42.1235 713.203 Q39.225 712.076 37.6147 712.076 Q36.874 712.076 36.3909 712.237 Q35.9078 712.398 35.7468 712.72 Q35.5535 713.01 35.5213 713.203 Q35.4569 713.396 35.4569 713.718 Q35.4569 715.715 37.4859 717.454 Q39.5148 719.193 43.6372 720.385 Q44.4423 720.643 44.6356 720.804 Q44.8288 720.965 44.8288 721.448 Q44.7966 722.253 44.1525 722.253 Q43.8948 722.253 42.8965 721.963 Q41.8659 721.673 40.3522 720.997 Q38.8063 720.288 37.4215 719.322 Q36.0044 718.356 35.006 716.842 Q34.0076 715.296 34.0076 713.525 Q34.0076 711.11 35.5857 709.628 Q37.1316 708.114 39.4182 708.114 Q40.8353 708.114 43.5728 709.242 Q53.0735 712.817 57.0348 712.817 Q62.4132 712.817 62.4132 708.726 Q62.4132 707.374 61.8657 706.118 Q61.3182 704.83 60.5453 703.992 Q59.7723 703.155 58.935 702.511 Q58.0976 701.834 57.5501 701.545 Q57.0026 701.222 56.8738 701.19 L37.035 696.263 Q36.2621 696.07 35.7468 695.715 Q35.1993 695.329 35.006 694.878 Q34.8128 694.427 34.7806 694.169 Q34.7162 693.912 34.7162 693.686 Q34.7162 692.881 35.1993 692.334 Q35.6823 691.754 36.5197 691.754 Q36.6807 691.754 37.4537 691.947 Q38.1944 692.108 39.2894 692.366 Q40.3522 692.623 40.9319 692.752 Q44.9898 693.783 45.4085 693.88 L52.526 695.715 Q52.9447 695.812 54.2973 696.134 Q55.65 696.424 56.3585 696.585 Q57.0348 696.746 57.9688 696.907 Q58.8706 697.036 59.3859 697.036 Q60.9962 697.036 61.7047 696.553 Q62.4132 696.07 62.4132 695.007 Q62.4132 694.008 61.7369 693.235 Q61.0284 692.43 59.6757 691.818 Q58.2909 691.206 57.1637 690.852 Q56.0365 690.498 54.2651 690.047 Q53.4922 689.886 53.299 689.757 Q53.0735 689.596 53.0735 689.145 Q53.0735 688.34 53.7176 688.34 Z" fill="#000000" fill-rule="evenodd" fill-opacity="1" /><path clip-path="url(#clip540)" d="M78.53 681.635 Q74.6074 681.635 72.5333 677.013 Q71.2032 674.24 70.865 668.514 L69.1742 668.514 Q66.3111 668.514 64.8007 670.025 Q63.2677 671.512 63.2677 673.406 Q63.2677 676.788 65.3868 678.411 Q65.4319 677.036 66.1308 676.54 Q66.8071 676.044 67.506 676.044 Q68.4303 676.044 69.039 676.63 Q69.6251 677.194 69.6251 678.163 Q69.6251 679.087 69.0615 679.696 Q68.4754 680.305 67.4609 680.305 Q65.2065 680.305 63.7186 678.276 Q62.2307 676.224 62.2307 673.316 Q62.2307 669.529 64.7781 667.004 Q65.5672 666.215 66.5817 665.831 Q67.5961 665.426 68.2725 665.38 Q68.9262 665.335 70.2338 665.335 L79.4543 665.335 Q79.7249 665.335 80.1758 665.245 Q80.6266 665.155 81.2128 664.749 Q81.7764 664.321 81.7764 663.622 Q81.7764 661.954 78.8231 661.976 L76.2305 661.976 L76.2305 660.804 L78.8231 660.804 Q81.2804 660.804 82.2498 662.112 Q83.1967 663.397 83.1967 664.591 Q83.1967 666.124 82.0695 667.094 Q80.9423 668.063 79.4093 668.198 Q81.1677 668.897 82.3174 670.498 Q83.4447 672.076 83.4447 674.24 Q83.4447 675.909 83.0163 677.487 Q82.6105 679.042 81.4608 680.35 Q80.2885 681.635 78.53 681.635 M78.4849 678.073 Q80.1983 678.073 81.303 676.855 Q82.4076 675.638 82.4076 673.925 Q82.4076 671.986 80.9197 670.25 Q79.4093 668.514 76.456 668.514 L71.8344 668.514 Q72.0148 673.632 74.0663 675.863 Q76.0953 678.073 78.4849 678.073 Z" fill="#000000" fill-rule="evenodd" fill-opacity="1" /><path clip-path="url(#clip540)" d="M82.9261 659.879 L81.5059 659.879 Q81.5059 657.421 81.2128 656.858 Q80.8972 656.294 79.4093 656.294 L67.0325 656.294 Q65.3192 656.294 64.8909 656.903 Q64.4625 657.489 64.4625 659.879 L63.0197 659.879 L62.5237 653.386 L67.3707 653.386 Q62.5237 651.222 62.5237 646.555 Q62.5237 643.083 64.2371 641.708 Q65.3868 640.694 66.6718 640.491 Q67.9569 640.265 71.2934 640.265 L80.1081 640.265 Q81.0775 640.22 81.303 639.476 Q81.5059 638.732 81.5059 636.658 L82.9261 636.658 Q82.7909 641.37 82.7909 641.843 Q82.7909 642.204 82.9261 647.051 L81.5059 647.051 Q81.5059 644.594 81.2128 644.03 Q80.8972 643.444 79.4093 643.444 L68.6557 643.444 Q66.3111 643.444 64.9359 644.165 Q63.5382 644.887 63.5382 646.871 Q63.5382 649.26 65.5446 651.177 Q67.5511 653.093 70.9327 653.093 L79.4093 653.093 Q80.8972 653.093 81.2128 652.529 Q81.5059 651.943 81.5059 649.508 L82.9261 649.508 Q82.7909 654.22 82.7909 654.671 Q82.7909 655.032 82.9261 659.879 Z" fill="#000000" fill-rule="evenodd" fill-opacity="1" /><path clip-path="url(#clip540)" d="M78.53 633.404 Q74.6074 633.404 72.5333 628.783 Q71.2032 626.01 70.865 620.284 L69.1742 620.284 Q66.3111 620.284 64.8007 621.794 Q63.2677 623.282 63.2677 625.176 Q63.2677 628.557 65.3868 630.18 Q65.4319 628.805 66.1308 628.309 Q66.8071 627.813 67.506 627.813 Q68.4303 627.813 69.039 628.399 Q69.6251 628.963 69.6251 629.932 Q69.6251 630.857 69.0615 631.465 Q68.4754 632.074 67.4609 632.074 Q65.2065 632.074 63.7186 630.045 Q62.2307 627.994 62.2307 625.085 Q62.2307 621.298 64.7781 618.773 Q65.5672 617.984 66.5817 617.601 Q67.5961 617.195 68.2725 617.15 Q68.9262 617.105 70.2338 617.105 L79.4543 617.105 Q79.7249 617.105 80.1758 617.015 Q80.6266 616.924 81.2128 616.519 Q81.7764 616.09 81.7764 615.391 Q81.7764 613.723 78.8231 613.746 L76.2305 613.746 L76.2305 612.573 L78.8231 612.573 Q81.2804 612.573 82.2498 613.881 Q83.1967 615.166 83.1967 616.361 Q83.1967 617.894 82.0695 618.863 Q80.9423 619.833 79.4093 619.968 Q81.1677 620.667 82.3174 622.267 Q83.4447 623.846 83.4447 626.01 Q83.4447 627.678 83.0163 629.256 Q82.6105 630.812 81.4608 632.119 Q80.2885 633.404 78.53 633.404 M78.4849 629.842 Q80.1983 629.842 81.303 628.625 Q82.4076 627.407 82.4076 625.694 Q82.4076 623.755 80.9197 622.019 Q79.4093 620.284 76.456 620.284 L71.8344 620.284 Q72.0148 625.401 74.0663 627.633 Q76.0953 629.842 78.4849 629.842 Z" fill="#000000" fill-rule="evenodd" fill-opacity="1" /><path clip-path="url(#clip540)" d="M82.9261 610.724 L81.5059 610.724 Q81.5059 608.267 81.2128 607.703 Q80.8972 607.14 79.4093 607.14 L55.3998 607.14 Q53.6864 607.14 53.2581 607.748 Q52.8298 608.334 52.8298 610.724 L51.3869 610.724 L50.891 604.096 L79.4093 604.096 Q80.8972 604.096 81.2128 603.51 Q81.5059 602.924 81.5059 600.489 L82.9261 600.489 Q82.9261 601.053 82.881 602.225 Q82.836 603.397 82.8134 604.254 Q82.7909 605.111 82.7909 605.607 Q82.7909 606.148 82.9261 610.724 Z" fill="#000000" fill-rule="evenodd" fill-opacity="1" /><path clip-path="url(#clip540)" d="M88.6523 601.184 Q87.6829 601.184 87.1644 600.621 Q86.6685 600.035 86.6685 599.245 Q86.6685 598.411 87.187 597.87 Q87.728 597.307 88.6073 597.307 Q90.3206 597.307 90.546 599.11 Q91.3802 598.231 91.3802 596.946 Q91.3802 595.571 90.3657 594.466 Q89.3512 593.339 88.3818 592.865 Q87.4124 592.37 85.654 591.671 Q84.2788 591.017 82.9261 590.521 L66.0631 597.442 Q64.9585 597.893 64.7105 598.592 Q64.4625 599.291 64.4625 601.184 L63.0197 601.184 Q63.155 599.11 63.155 596.698 Q63.155 595.278 63.0197 591.671 L64.4625 591.671 Q64.4625 594.263 65.6574 594.263 Q65.7926 594.263 66.4915 593.993 L78.9133 588.853 L67.5511 584.186 Q66.8973 583.915 66.4464 583.915 Q64.5527 583.915 64.4625 586.08 L63.0197 586.08 Q63.155 583.036 63.155 582.067 Q63.155 580.173 63.0197 578.618 L64.4625 578.618 Q64.4625 581.706 67.4158 582.901 L87.1193 591.039 Q92.3721 593.249 92.3947 596.946 Q92.3947 598.704 91.3125 599.944 Q90.2304 601.184 88.6523 601.184 Z" fill="#000000" fill-rule="evenodd" fill-opacity="1" /><path clip-path="url(#clip540)" d="M64.4625 575.428 L63.448 575.428 Q63.3579 573.309 61.8699 571.911 Q60.3595 570.491 58.5109 570.018 Q56.6623 569.522 54.5206 569.476 L54.5206 568.327 L63.0197 568.327 L63.0197 561.721 L64.4625 561.721 L64.4625 568.327 L77.2901 568.327 Q82.2724 568.327 82.2724 565.216 Q82.2724 563.886 80.9197 563.006 Q79.5445 562.127 77.1098 562.127 L74.5623 562.127 L74.5623 560.977 L77.1999 560.977 Q79.7023 560.977 81.5735 562.127 Q83.4447 563.277 83.4447 565.554 Q83.4447 566.388 83.2192 567.222 Q83.0163 568.034 82.4753 569.116 Q81.9117 570.175 80.559 570.852 Q79.1838 571.505 77.1999 571.505 L64.4625 571.505 L64.4625 575.428 Z" fill="#000000" fill-rule="evenodd" fill-opacity="1" /><path clip-path="url(#clip540)" d="M82.9261 558.253 L81.5059 558.253 Q81.5059 555.796 81.2128 555.232 Q80.8972 554.669 79.4093 554.669 L66.9875 554.669 Q65.2741 554.669 64.8683 555.255 Q64.4625 555.819 64.4625 558.073 L63.0197 558.073 L62.5237 551.625 L79.4543 551.625 Q80.8295 551.625 81.1677 551.129 Q81.5059 550.633 81.5059 548.379 L82.9261 548.379 Q82.7909 553.091 82.7909 553.181 Q82.7909 553.812 82.9261 558.253 M54.4755 556.315 Q53.5512 556.315 52.8072 555.616 Q52.0407 554.894 52.0407 553.88 Q52.0407 552.865 52.7396 552.144 Q53.4159 551.422 54.498 551.422 Q55.5576 551.422 56.2565 552.144 Q56.9328 552.865 56.9328 553.88 Q56.9328 554.939 56.1888 555.638 Q55.4449 556.315 54.4755 556.315 Z" fill="#000000" fill-rule="evenodd" fill-opacity="1" /><path clip-path="url(#clip540)" d="M80.4012 541.369 Q77.3352 544.299 72.9616 544.299 Q68.5655 544.299 65.4094 541.414 Q62.2307 538.528 62.2307 534.29 Q62.2307 531.472 63.5833 529.353 Q64.9134 527.233 67.1904 527.233 Q68.2048 527.233 68.791 527.842 Q69.3546 528.428 69.3546 529.353 Q69.3546 530.322 68.7684 530.908 Q68.1597 531.472 67.2354 531.472 Q66.8296 531.472 66.4239 531.336 Q66.0181 531.201 65.5897 530.705 Q65.1614 530.187 65.0938 529.307 Q63.4029 530.953 63.4029 534.154 Q63.4029 534.199 63.4029 534.245 Q63.4029 536.589 65.6123 538.528 Q67.8216 540.467 72.8715 540.467 Q75.5091 540.467 77.4479 539.836 Q79.3642 539.182 80.3561 538.122 Q81.348 537.063 81.8215 536.026 Q82.2724 534.989 82.2724 533.974 Q82.2724 529.443 77.4254 527.91 Q76.9745 527.774 76.9745 527.324 Q76.9745 526.715 77.4254 526.715 Q77.6508 526.715 78.237 526.895 Q78.8231 527.076 79.7474 527.639 Q80.6717 528.203 81.4833 529.014 Q82.2724 529.803 82.8585 531.224 Q83.4447 532.621 83.4447 534.38 Q83.4447 538.438 80.4012 541.369 Z" fill="#000000" fill-rule="evenodd" fill-opacity="1" /><path clip-path="url(#clip540)" d="M78.53 524.372 Q74.6074 524.372 72.5333 519.75 Q71.2032 516.977 70.865 511.251 L69.1742 511.251 Q66.3111 511.251 64.8007 512.762 Q63.2677 514.25 63.2677 516.143 Q63.2677 519.525 65.3868 521.148 Q65.4319 519.773 66.1308 519.277 Q66.8071 518.781 67.506 518.781 Q68.4303 518.781 69.039 519.367 Q69.6251 519.931 69.6251 520.9 Q69.6251 521.824 69.0615 522.433 Q68.4754 523.042 67.4609 523.042 Q65.2065 523.042 63.7186 521.013 Q62.2307 518.961 62.2307 516.053 Q62.2307 512.266 64.7781 509.741 Q65.5672 508.952 66.5817 508.568 Q67.5961 508.163 68.2725 508.118 Q68.9262 508.072 70.2338 508.072 L79.4543 508.072 Q79.7249 508.072 80.1758 507.982 Q80.6266 507.892 81.2128 507.486 Q81.7764 507.058 81.7764 506.359 Q81.7764 504.691 78.8231 504.713 L76.2305 504.713 L76.2305 503.541 L78.8231 503.541 Q81.2804 503.541 82.2498 504.849 Q83.1967 506.134 83.1967 507.328 Q83.1967 508.861 82.0695 509.831 Q80.9423 510.8 79.4093 510.936 Q81.1677 511.634 82.3174 513.235 Q83.4447 514.813 83.4447 516.977 Q83.4447 518.646 83.0163 520.224 Q82.6105 521.779 81.4608 523.087 Q80.2885 524.372 78.53 524.372 M78.4849 520.81 Q80.1983 520.81 81.303 519.592 Q82.4076 518.375 82.4076 516.662 Q82.4076 514.723 80.9197 512.987 Q79.4093 511.251 76.456 511.251 L71.8344 511.251 Q72.0148 516.369 74.0663 518.601 Q76.0953 520.81 78.4849 520.81 Z" fill="#000000" fill-rule="evenodd" fill-opacity="1" /><path clip-path="url(#clip540)" d="M82.9261 501.692 L81.5059 501.692 Q81.5059 499.234 81.2128 498.671 Q80.8972 498.107 79.4093 498.107 L55.3998 498.107 Q53.6864 498.107 53.2581 498.716 Q52.8298 499.302 52.8298 501.692 L51.3869 501.692 L50.891 495.064 L79.4093 495.064 Q80.8972 495.064 81.2128 494.478 Q81.5059 493.892 81.5059 491.457 L82.9261 491.457 Q82.9261 492.02 82.881 493.193 Q82.836 494.365 82.8134 495.222 Q82.7909 496.078 82.7909 496.574 Q82.7909 497.115 82.9261 501.692 Z" fill="#000000" fill-rule="evenodd" fill-opacity="1" /><path clip-path="url(#clip540)" d="M77.6144 481.991 L16.1978 481.991 Q13.7502 481.991 13.7502 480.671 Q13.7502 479.35 15.7147 479.35 L77.1313 479.35 Q79.5789 479.35 79.5789 480.671 Q79.5789 481.991 77.6144 481.991 Z" fill="#000000" fill-rule="evenodd" fill-opacity="1" /><path clip-path="url(#clip540)" d="M77.6144 464.27 L16.1978 464.27 Q13.7502 464.27 13.7502 462.949 Q13.7502 461.629 15.7147 461.629 L77.1313 461.629 Q79.5789 461.629 79.5789 462.949 Q79.5789 464.27 77.6144 464.27 Z" fill="#000000" fill-rule="evenodd" fill-opacity="1" /><path clip-path="url(#clip540)" d="M342.468 38.9413 L380.708 38.9413 L380.708 45.8278 L350.65 45.8278 L350.65 63.7328 L379.452 63.7328 L379.452 70.6194 L350.65 70.6194 L350.65 92.5348 L381.437 92.5348 L381.437 99.4213 L342.468 99.4213 L342.468 38.9413 Z" fill="#000000" fill-rule="evenodd" fill-opacity="1" /><path clip-path="url(#clip540)" d="M420.853 61.0187 Q419.597 60.2896 418.098 59.9655 Q416.64 59.6009 414.857 59.6009 Q408.538 59.6009 405.135 63.7328 Q401.773 67.8243 401.773 75.521 L401.773 99.4213 L394.279 99.4213 L394.279 54.0512 L401.773 54.0512 L401.773 61.0998 Q404.122 56.9678 407.89 54.9829 Q411.657 52.9574 417.045 52.9574 Q417.814 52.9574 418.746 53.079 Q419.678 53.16 420.812 53.3625 L420.853 61.0187 Z" fill="#000000" fill-rule="evenodd" fill-opacity="1" /><path clip-path="url(#clip540)" d="M453.503 61.0187 Q452.247 60.2896 450.748 59.9655 Q449.29 59.6009 447.508 59.6009 Q441.188 59.6009 437.785 63.7328 Q434.423 67.8243 434.423 75.521 L434.423 99.4213 L426.929 99.4213 L426.929 54.0512 L434.423 54.0512 L434.423 61.0998 Q436.773 56.9678 440.54 54.9829 Q444.307 52.9574 449.695 52.9574 Q450.465 52.9574 451.396 53.079 Q452.328 53.16 453.462 53.3625 L453.503 61.0187 Z" fill="#000000" fill-rule="evenodd" fill-opacity="1" /><path clip-path="url(#clip540)" d="M477.079 59.2769 Q471.084 59.2769 467.6 63.9759 Q464.116 68.6344 464.116 76.7768 Q464.116 84.9191 467.56 89.6181 Q471.043 94.2767 477.079 94.2767 Q483.034 94.2767 486.518 89.5776 Q490.002 84.8786 490.002 76.7768 Q490.002 68.7155 486.518 64.0164 Q483.034 59.2769 477.079 59.2769 M477.079 52.9574 Q486.801 52.9574 492.351 59.2769 Q497.901 65.5963 497.901 76.7768 Q497.901 87.9167 492.351 94.2767 Q486.801 100.596 477.079 100.596 Q467.317 100.596 461.767 94.2767 Q456.258 87.9167 456.258 76.7768 Q456.258 65.5963 461.767 59.2769 Q467.317 52.9574 477.079 52.9574 Z" fill="#000000" fill-rule="evenodd" fill-opacity="1" /><path clip-path="url(#clip540)" d="M536.546 61.0187 Q535.291 60.2896 533.792 59.9655 Q532.334 59.6009 530.551 59.6009 Q524.232 59.6009 520.829 63.7328 Q517.467 67.8243 517.467 75.521 L517.467 99.4213 L509.973 99.4213 L509.973 54.0512 L517.467 54.0512 L517.467 61.0998 Q519.816 56.9678 523.584 54.9829 Q527.351 52.9574 532.739 52.9574 Q533.508 52.9574 534.44 53.079 Q535.372 53.16 536.506 53.3625 L536.546 61.0187 Z" fill="#000000" fill-rule="evenodd" fill-opacity="1" /><path clip-path="url(#clip540)" d="M566.402 54.0512 L573.855 54.0512 L583.172 89.4561 L592.449 54.0512 L601.239 54.0512 L610.556 89.4561 L619.833 54.0512 L627.287 54.0512 L615.418 99.4213 L606.627 99.4213 L596.864 62.234 L587.061 99.4213 L578.271 99.4213 L566.402 54.0512 Z" fill="#000000" fill-rule="evenodd" fill-opacity="1" /><path clip-path="url(#clip540)" d="M664.879 61.0187 Q663.623 60.2896 662.125 59.9655 Q660.666 59.6009 658.884 59.6009 Q652.564 59.6009 649.162 63.7328 Q645.799 67.8243 645.799 75.521 L645.799 99.4213 L638.305 99.4213 L638.305 54.0512 L645.799 54.0512 L645.799 61.0998 Q648.149 56.9678 651.916 54.9829 Q655.684 52.9574 661.071 52.9574 Q661.841 52.9574 662.773 53.079 Q663.704 53.16 664.839 53.3625 L664.879 61.0187 Z" fill="#000000" fill-rule="evenodd" fill-opacity="1" /><path clip-path="url(#clip540)" d="M680.07 41.1693 L680.07 54.0512 L695.423 54.0512 L695.423 59.844 L680.07 59.844 L680.07 84.4735 Q680.07 90.0232 681.569 91.6031 Q683.108 93.1829 687.767 93.1829 L695.423 93.1829 L695.423 99.4213 L687.767 99.4213 Q679.138 99.4213 675.857 96.2211 Q672.576 92.9804 672.576 84.4735 L672.576 59.844 L667.107 59.844 L667.107 54.0512 L672.576 54.0512 L672.576 41.1693 L680.07 41.1693 Z" fill="#000000" fill-rule="evenodd" fill-opacity="1" /><path clip-path="url(#clip540)" d="M706.279 89.132 L714.827 89.132 L714.827 99.4213 L706.279 99.4213 L706.279 89.132 Z" fill="#000000" fill-rule="evenodd" fill-opacity="1" /><path clip-path="url(#clip540)" d="M800.854 78.6807 Q800.854 78.9267 800.526 79.8694 L793.886 97.9867 Q793.517 99.0524 793.148 99.2574 Q792.78 99.4213 791.263 99.4213 L752.405 99.4213 Q751.462 99.4213 751.093 99.3803 Q750.725 99.3393 750.438 99.1344 Q750.151 98.9294 750.151 98.4786 Q750.151 97.6588 750.438 97.2899 Q750.765 96.921 751.134 96.88 Q751.503 96.839 752.405 96.839 Q754.455 96.839 755.684 96.716 Q756.914 96.5931 757.693 96.4291 Q758.512 96.2241 758.922 95.6503 Q759.373 95.0764 759.578 94.5846 Q759.783 94.0517 760.07 92.863 L771.301 47.7748 Q771.629 46.4222 771.629 46.2172 Q771.629 45.4384 771.137 45.2335 Q770.686 44.9876 769.375 44.8646 L766.177 44.7006 Q765.194 44.7006 764.784 44.6596 Q764.415 44.6186 764.128 44.4137 Q763.841 44.2088 763.841 43.7579 Q763.841 42.9791 764.128 42.6102 Q764.456 42.2003 764.702 42.1593 Q764.989 42.0773 765.44 42.0773 L776.589 42.3232 L789.008 42.0773 Q790.361 42.0773 790.361 43.102 Q790.361 44.2497 789.787 44.4957 Q789.213 44.7006 787.164 44.7006 Q783.229 44.7006 781.425 45.1105 Q779.663 45.5204 779.171 46.2172 Q778.72 46.8731 778.269 48.6356 L766.915 93.9697 Q766.505 95.4863 766.505 95.8962 Q766.505 96.3471 766.71 96.5111 Q766.956 96.634 767.612 96.716 Q768.35 96.839 769.457 96.839 L777.327 96.839 Q779.704 96.839 781.794 96.4701 Q783.885 96.1012 785.483 95.5683 Q787.123 95.0355 788.599 94.0517 Q790.074 93.068 791.099 92.2072 Q792.165 91.3054 793.189 89.9118 Q794.255 88.4772 794.87 87.4934 Q795.526 86.4687 796.264 84.8291 Q797.001 83.1486 797.37 82.2058 Q797.78 81.2221 798.395 79.5415 Q798.764 78.6807 798.887 78.4348 Q799.01 78.1889 799.215 77.9839 Q799.461 77.779 799.83 77.779 Q800.322 77.779 800.567 78.0659 Q800.854 78.3528 800.854 78.6807 Z" fill="#000000" fill-rule="evenodd" fill-opacity="1" /><path clip-path="url(#clip540)" d="M809.314 54.2532 Q809.314 53.1916 809.4 52.8759 Q809.515 52.5603 809.974 52.0726 L821.25 39.5052 Q827.419 32.5617 827.419 26.5075 Q827.419 22.5767 825.353 19.7648 Q823.316 16.9529 819.557 16.9529 Q816.975 16.9529 814.794 18.531 Q812.613 20.1091 811.609 22.921 Q811.781 22.8636 812.384 22.8636 Q813.847 22.8636 814.651 23.7818 Q815.483 24.6999 815.483 25.9337 Q815.483 27.5118 814.45 28.2865 Q813.446 29.0325 812.441 29.0325 Q812.04 29.0325 811.494 28.9464 Q810.978 28.8603 810.146 28.0569 Q809.314 27.2249 809.314 25.7615 Q809.314 21.6585 812.413 18.3876 Q815.54 15.1166 820.303 15.1166 Q825.697 15.1166 829.226 18.3302 Q832.784 21.5151 832.784 26.5075 Q832.784 28.2578 832.239 29.8646 Q831.723 31.4427 831.005 32.6764 Q830.317 33.9102 828.423 35.89 Q826.529 37.8698 825.009 39.2757 Q823.488 40.6816 820.073 43.6657 L813.847 49.7198 L824.435 49.7198 Q829.599 49.7198 830.001 49.2607 Q830.575 48.4286 831.292 44.0387 L832.784 44.0387 L831.12 54.2532 L809.314 54.2532 Z" fill="#000000" fill-rule="evenodd" fill-opacity="1" /><path clip-path="url(#clip540)" d="M841.516 73.374 L863.35 73.374 L863.35 80.0175 L841.516 80.0175 L841.516 73.374 Z" fill="#000000" fill-rule="evenodd" fill-opacity="1" /><path clip-path="url(#clip540)" d="M912.933 72.0372 L912.933 99.4213 L905.48 99.4213 L905.48 72.2803 Q905.48 65.8393 902.968 62.6391 Q900.457 59.4389 895.434 59.4389 Q889.398 59.4389 885.914 63.2872 Q882.43 67.1356 882.43 73.7791 L882.43 99.4213 L874.936 99.4213 L874.936 54.0512 L882.43 54.0512 L882.43 61.0998 Q885.104 57.0083 888.709 54.9829 Q892.355 52.9574 897.094 52.9574 Q904.913 52.9574 908.923 57.8185 Q912.933 62.6391 912.933 72.0372 Z" fill="#000000" fill-rule="evenodd" fill-opacity="1" /><path clip-path="url(#clip540)" d="M945.381 59.2769 Q939.386 59.2769 935.902 63.9759 Q932.418 68.6344 932.418 76.7768 Q932.418 84.9191 935.862 89.6181 Q939.345 94.2767 945.381 94.2767 Q951.336 94.2767 954.82 89.5776 Q958.304 84.8786 958.304 76.7768 Q958.304 68.7155 954.82 64.0164 Q951.336 59.2769 945.381 59.2769 M945.381 52.9574 Q955.103 52.9574 960.653 59.2769 Q966.203 65.5963 966.203 76.7768 Q966.203 87.9167 960.653 94.2767 Q955.103 100.596 945.381 100.596 Q935.618 100.596 930.069 94.2767 Q924.56 87.9167 924.56 76.7768 Q924.56 65.5963 930.069 59.2769 Q935.618 52.9574 945.381 52.9574 Z" fill="#000000" fill-rule="evenodd" fill-opacity="1" /><path clip-path="url(#clip540)" d="M1004.85 61.0187 Q1003.59 60.2896 1002.09 59.9655 Q1000.64 59.6009 998.853 59.6009 Q992.534 59.6009 989.131 63.7328 Q985.769 67.8243 985.769 75.521 L985.769 99.4213 L978.274 99.4213 L978.274 54.0512 L985.769 54.0512 L985.769 61.0998 Q988.118 56.9678 991.886 54.9829 Q995.653 52.9574 1001.04 52.9574 Q1001.81 52.9574 1002.74 53.079 Q1003.67 53.16 1004.81 53.3625 L1004.85 61.0187 Z" fill="#000000" fill-rule="evenodd" fill-opacity="1" /><path clip-path="url(#clip540)" d="M1046.53 62.7606 Q1049.33 57.7375 1053.22 55.3475 Q1057.11 52.9574 1062.37 52.9574 Q1069.46 52.9574 1073.31 57.9401 Q1077.16 62.8822 1077.16 72.0372 L1077.16 99.4213 L1069.66 99.4213 L1069.66 72.2803 Q1069.66 65.7583 1067.35 62.5986 Q1065.04 59.4389 1060.31 59.4389 Q1054.51 59.4389 1051.15 63.2872 Q1047.79 67.1356 1047.79 73.7791 L1047.79 99.4213 L1040.29 99.4213 L1040.29 72.2803 Q1040.29 65.7178 1037.98 62.5986 Q1035.68 59.4389 1030.86 59.4389 Q1025.14 59.4389 1021.78 63.3278 Q1018.42 67.1761 1018.42 73.7791 L1018.42 99.4213 L1010.92 99.4213 L1010.92 54.0512 L1018.42 54.0512 L1018.42 61.0998 Q1020.97 56.9273 1024.54 54.9424 Q1028.1 52.9574 1033 52.9574 Q1037.94 52.9574 1041.39 55.469 Q1044.87 57.9806 1046.53 62.7606 Z" fill="#000000" fill-rule="evenodd" fill-opacity="1" /><path clip-path="url(#clip540)" d="M1114.06 54.0512 L1121.51 54.0512 L1130.83 89.4561 L1140.11 54.0512 L1148.9 54.0512 L1158.22 89.4561 L1167.49 54.0512 L1174.95 54.0512 L1163.08 99.4213 L1154.29 99.4213 L1144.52 62.234 L1134.72 99.4213 L1125.93 99.4213 L1114.06 54.0512 Z" fill="#000000" fill-rule="evenodd" fill-opacity="1" /><path clip-path="url(#clip540)" d="M1186.25 54.0512 L1193.7 54.0512 L1193.7 99.4213 L1186.25 99.4213 L1186.25 54.0512 M1186.25 36.3892 L1193.7 36.3892 L1193.7 45.8278 L1186.25 45.8278 L1186.25 36.3892 Z" fill="#000000" fill-rule="evenodd" fill-opacity="1" /><path clip-path="url(#clip540)" d="M1216.67 41.1693 L1216.67 54.0512 L1232.02 54.0512 L1232.02 59.844 L1216.67 59.844 L1216.67 84.4735 Q1216.67 90.0232 1218.17 91.6031 Q1219.71 93.1829 1224.37 93.1829 L1232.02 93.1829 L1232.02 99.4213 L1224.37 99.4213 Q1215.74 99.4213 1212.46 96.2211 Q1209.18 92.9804 1209.18 84.4735 L1209.18 59.844 L1203.71 59.844 L1203.71 54.0512 L1209.18 54.0512 L1209.18 41.1693 L1216.67 41.1693 Z" fill="#000000" fill-rule="evenodd" fill-opacity="1" /><path clip-path="url(#clip540)" d="M1279.54 72.0372 L1279.54 99.4213 L1272.09 99.4213 L1272.09 72.2803 Q1272.09 65.8393 1269.58 62.6391 Q1267.06 59.4389 1262.04 59.4389 Q1256 59.4389 1252.52 63.2872 Q1249.04 67.1356 1249.04 73.7791 L1249.04 99.4213 L1241.54 99.4213 L1241.54 36.3892 L1249.04 36.3892 L1249.04 61.0998 Q1251.71 57.0083 1255.32 54.9829 Q1258.96 52.9574 1263.7 52.9574 Q1271.52 52.9574 1275.53 57.8185 Q1279.54 62.6391 1279.54 72.0372 Z" fill="#000000" fill-rule="evenodd" fill-opacity="1" /><path clip-path="url(#clip540)" d="M1323.25 92.5348 L1336.62 92.5348 L1336.62 46.395 L1322.07 49.3116 L1322.07 41.858 L1336.54 38.9413 L1344.72 38.9413 L1344.72 92.5348 L1358.09 92.5348 L1358.09 99.4213 L1323.25 99.4213 L1323.25 92.5348 Z" fill="#000000" fill-rule="evenodd" fill-opacity="1" /><path clip-path="url(#clip540)" d="M1392.11 44.329 Q1385.8 44.329 1382.6 50.5674 Q1379.44 56.7653 1379.44 69.2421 Q1379.44 81.6784 1382.6 87.9167 Q1385.8 94.1146 1392.11 94.1146 Q1398.47 94.1146 1401.63 87.9167 Q1404.83 81.6784 1404.83 69.2421 Q1404.83 56.7653 1401.63 50.5674 Q1398.47 44.329 1392.11 44.329 M1392.11 37.8476 Q1402.28 37.8476 1407.63 45.9089 Q1413.02 53.9297 1413.02 69.2421 Q1413.02 84.514 1407.63 92.5753 Q1402.28 100.596 1392.11 100.596 Q1381.95 100.596 1376.56 92.5753 Q1371.21 84.514 1371.21 69.2421 Q1371.21 53.9297 1376.56 45.9089 Q1381.95 37.8476 1392.11 37.8476 Z" fill="#000000" fill-rule="evenodd" fill-opacity="1" /><path clip-path="url(#clip540)" d="M1444.9 44.329 Q1438.58 44.329 1435.38 50.5674 Q1432.22 56.7653 1432.22 69.2421 Q1432.22 81.6784 1435.38 87.9167 Q1438.58 94.1146 1444.9 94.1146 Q1451.26 94.1146 1454.42 87.9167 Q1457.62 81.6784 1457.62 69.2421 Q1457.62 56.7653 1454.42 50.5674 Q1451.26 44.329 1444.9 44.329 M1444.9 37.8476 Q1455.07 37.8476 1460.41 45.9089 Q1465.8 53.9297 1465.8 69.2421 Q1465.8 84.514 1460.41 92.5753 Q1455.07 100.596 1444.9 100.596 Q1434.73 100.596 1429.34 92.5753 Q1424 84.514 1424 69.2421 Q1424 53.9297 1429.34 45.9089 Q1434.73 37.8476 1444.9 37.8476 Z" fill="#000000" fill-rule="evenodd" fill-opacity="1" /><path clip-path="url(#clip540)" d="M1505.5 54.0512 L1512.95 54.0512 L1512.95 99.4213 L1505.5 99.4213 L1505.5 54.0512 M1505.5 36.3892 L1512.95 36.3892 L1512.95 45.8278 L1505.5 45.8278 L1505.5 36.3892 Z" fill="#000000" fill-rule="evenodd" fill-opacity="1" /><path clip-path="url(#clip540)" d="M1566.26 72.0372 L1566.26 99.4213 L1558.81 99.4213 L1558.81 72.2803 Q1558.81 65.8393 1556.3 62.6391 Q1553.79 59.4389 1548.76 59.4389 Q1542.73 59.4389 1539.24 63.2872 Q1535.76 67.1356 1535.76 73.7791 L1535.76 99.4213 L1528.27 99.4213 L1528.27 54.0512 L1535.76 54.0512 L1535.76 61.0998 Q1538.43 57.0083 1542.04 54.9829 Q1545.68 52.9574 1550.42 52.9574 Q1558.24 52.9574 1562.25 57.8185 Q1566.26 62.6391 1566.26 72.0372 Z" fill="#000000" fill-rule="evenodd" fill-opacity="1" /><path clip-path="url(#clip540)" d="M1588.5 41.1693 L1588.5 54.0512 L1603.86 54.0512 L1603.86 59.844 L1588.5 59.844 L1588.5 84.4735 Q1588.5 90.0232 1590 91.6031 Q1591.54 93.1829 1596.2 93.1829 L1603.86 93.1829 L1603.86 99.4213 L1596.2 99.4213 Q1587.57 99.4213 1584.29 96.2211 Q1581.01 92.9804 1581.01 84.4735 L1581.01 59.844 L1575.54 59.844 L1575.54 54.0512 L1581.01 54.0512 L1581.01 41.1693 L1588.5 41.1693 Z" fill="#000000" fill-rule="evenodd" fill-opacity="1" /><path clip-path="url(#clip540)" d="M1652.47 74.8728 L1652.47 78.5186 L1618.2 78.5186 Q1618.68 86.2154 1622.81 90.2663 Q1626.99 94.2767 1634.4 94.2767 Q1638.69 94.2767 1642.7 93.2234 Q1646.75 92.1702 1650.72 90.0637 L1650.72 97.1123 Q1646.71 98.8137 1642.5 99.7049 Q1638.29 100.596 1633.95 100.596 Q1623.1 100.596 1616.74 94.2767 Q1610.42 87.9573 1610.42 77.1818 Q1610.42 66.0419 1616.41 59.5199 Q1622.45 52.9574 1632.66 52.9574 Q1641.81 52.9574 1647.12 58.8718 Q1652.47 64.7456 1652.47 74.8728 M1645.01 72.6853 Q1644.93 66.5685 1641.57 62.9227 Q1638.25 59.2769 1632.74 59.2769 Q1626.5 59.2769 1622.73 62.8011 Q1619.01 66.3254 1618.44 72.7259 L1645.01 72.6853 Z" fill="#000000" fill-rule="evenodd" fill-opacity="1" /><path clip-path="url(#clip540)" d="M1690.99 61.0187 Q1689.73 60.2896 1688.24 59.9655 Q1686.78 59.6009 1685 59.6009 Q1678.68 59.6009 1675.27 63.7328 Q1671.91 67.8243 1671.91 75.521 L1671.91 99.4213 L1664.42 99.4213 L1664.42 54.0512 L1671.91 54.0512 L1671.91 61.0998 Q1674.26 56.9678 1678.03 54.9829 Q1681.8 52.9574 1687.18 52.9574 Q1687.95 52.9574 1688.88 53.079 Q1689.82 53.16 1690.95 53.3625 L1690.99 61.0187 Z" fill="#000000" fill-rule="evenodd" fill-opacity="1" /><path clip-path="url(#clip540)" d="M1706.02 92.6158 L1706.02 116.678 L1698.53 116.678 L1698.53 54.0512 L1706.02 54.0512 L1706.02 60.9377 Q1708.37 56.8868 1711.93 54.9424 Q1715.54 52.9574 1720.52 52.9574 Q1728.79 52.9574 1733.93 59.5199 Q1739.12 66.0824 1739.12 76.7768 Q1739.12 87.4711 1733.93 94.0336 Q1728.79 100.596 1720.52 100.596 Q1715.54 100.596 1711.93 98.6516 Q1708.37 96.6667 1706.02 92.6158 M1731.38 76.7768 Q1731.38 68.5534 1727.98 63.8949 Q1724.61 59.1958 1718.7 59.1958 Q1712.78 59.1958 1709.38 63.8949 Q1706.02 68.5534 1706.02 76.7768 Q1706.02 85.0001 1709.38 89.6991 Q1712.78 94.3577 1718.7 94.3577 Q1724.61 94.3577 1727.98 89.6991 Q1731.38 85.0001 1731.38 76.7768 Z" fill="#000000" fill-rule="evenodd" fill-opacity="1" /><path clip-path="url(#clip540)" d="M1769.05 59.2769 Q1763.06 59.2769 1759.57 63.9759 Q1756.09 68.6344 1756.09 76.7768 Q1756.09 84.9191 1759.53 89.6181 Q1763.02 94.2767 1769.05 94.2767 Q1775.01 94.2767 1778.49 89.5776 Q1781.97 84.8786 1781.97 76.7768 Q1781.97 68.7155 1778.49 64.0164 Q1775.01 59.2769 1769.05 59.2769 M1769.05 52.9574 Q1778.77 52.9574 1784.32 59.2769 Q1789.87 65.5963 1789.87 76.7768 Q1789.87 87.9167 1784.32 94.2767 Q1778.77 100.596 1769.05 100.596 Q1759.29 100.596 1753.74 94.2767 Q1748.23 87.9167 1748.23 76.7768 Q1748.23 65.5963 1753.74 59.2769 Q1759.29 52.9574 1769.05 52.9574 Z" fill="#000000" fill-rule="evenodd" fill-opacity="1" /><path clip-path="url(#clip540)" d="M1802.23 36.3892 L1809.68 36.3892 L1809.68 99.4213 L1802.23 99.4213 L1802.23 36.3892 Z" fill="#000000" fill-rule="evenodd" fill-opacity="1" /><path clip-path="url(#clip540)" d="M1845.9 76.6147 Q1836.86 76.6147 1833.38 78.6807 Q1829.9 80.7466 1829.9 85.7293 Q1829.9 89.6991 1832.49 92.0487 Q1835.12 94.3577 1839.62 94.3577 Q1845.82 94.3577 1849.54 89.9827 Q1853.31 85.5672 1853.31 78.2756 L1853.31 76.6147 L1845.9 76.6147 M1860.76 73.536 L1860.76 99.4213 L1853.31 99.4213 L1853.31 92.5348 Q1850.76 96.6667 1846.95 98.6516 Q1843.14 100.596 1837.63 100.596 Q1830.67 100.596 1826.53 96.7072 Q1822.44 92.7778 1822.44 86.2154 Q1822.44 78.5592 1827.55 74.6703 Q1832.69 70.7814 1842.86 70.7814 L1853.31 70.7814 L1853.31 70.0523 Q1853.31 64.9076 1849.91 62.1125 Q1846.55 59.2769 1840.43 59.2769 Q1836.54 59.2769 1832.85 60.2086 Q1829.17 61.1403 1825.76 63.0037 L1825.76 56.1171 Q1829.86 54.5373 1833.7 53.7676 Q1837.55 52.9574 1841.2 52.9574 Q1851.04 52.9574 1855.9 58.0616 Q1860.76 63.1657 1860.76 73.536 Z" fill="#000000" fill-rule="evenodd" fill-opacity="1" /><path clip-path="url(#clip540)" d="M1883.49 41.1693 L1883.49 54.0512 L1898.84 54.0512 L1898.84 59.844 L1883.49 59.844 L1883.49 84.4735 Q1883.49 90.0232 1884.99 91.6031 Q1886.53 93.1829 1891.19 93.1829 L1898.84 93.1829 L1898.84 99.4213 L1891.19 99.4213 Q1882.56 99.4213 1879.28 96.2211 Q1876 92.9804 1876 84.4735 L1876 59.844 L1870.53 59.844 L1870.53 54.0512 L1876 54.0512 L1876 41.1693 L1883.49 41.1693 Z" fill="#000000" fill-rule="evenodd" fill-opacity="1" /><path clip-path="url(#clip540)" d="M1908.65 54.0512 L1916.1 54.0512 L1916.1 99.4213 L1908.65 99.4213 L1908.65 54.0512 M1908.65 36.3892 L1916.1 36.3892 L1916.1 45.8278 L1908.65 45.8278 L1908.65 36.3892 Z" fill="#000000" fill-rule="evenodd" fill-opacity="1" /><path clip-path="url(#clip540)" d="M1949.28 59.2769 Q1943.28 59.2769 1939.8 63.9759 Q1936.31 68.6344 1936.31 76.7768 Q1936.31 84.9191 1939.76 89.6181 Q1943.24 94.2767 1949.28 94.2767 Q1955.23 94.2767 1958.71 89.5776 Q1962.2 84.8786 1962.2 76.7768 Q1962.2 68.7155 1958.71 64.0164 Q1955.23 59.2769 1949.28 59.2769 M1949.28 52.9574 Q1959 52.9574 1964.55 59.2769 Q1970.1 65.5963 1970.1 76.7768 Q1970.1 87.9167 1964.55 94.2767 Q1959 100.596 1949.28 100.596 Q1939.51 100.596 1933.96 94.2767 Q1928.45 87.9167 1928.45 76.7768 Q1928.45 65.5963 1933.96 59.2769 Q1939.51 52.9574 1949.28 52.9574 Z" fill="#000000" fill-rule="evenodd" fill-opacity="1" /><path clip-path="url(#clip540)" d="M2020.17 72.0372 L2020.17 99.4213 L2012.71 99.4213 L2012.71 72.2803 Q2012.71 65.8393 2010.2 62.6391 Q2007.69 59.4389 2002.67 59.4389 Q1996.63 59.4389 1993.15 63.2872 Q1989.66 67.1356 1989.66 73.7791 L1989.66 99.4213 L1982.17 99.4213 L1982.17 54.0512 L1989.66 54.0512 L1989.66 61.0998 Q1992.34 57.0083 1995.94 54.9829 Q1999.59 52.9574 2004.33 52.9574 Q2012.15 52.9574 2016.16 57.8185 Q2020.17 62.6391 2020.17 72.0372 Z" fill="#000000" fill-rule="evenodd" fill-opacity="1" /><path clip-path="url(#clip540)" d="M2068.62 92.6158 L2068.62 116.678 L2061.12 116.678 L2061.12 54.0512 L2068.62 54.0512 L2068.62 60.9377 Q2070.97 56.8868 2074.53 54.9424 Q2078.14 52.9574 2083.12 52.9574 Q2091.38 52.9574 2096.53 59.5199 Q2101.71 66.0824 2101.71 76.7768 Q2101.71 87.4711 2096.53 94.0336 Q2091.38 100.596 2083.12 100.596 Q2078.14 100.596 2074.53 98.6516 Q2070.97 96.6667 2068.62 92.6158 M2093.97 76.7768 Q2093.97 68.5534 2090.57 63.8949 Q2087.21 59.1958 2081.3 59.1958 Q2075.38 59.1958 2071.98 63.8949 Q2068.62 68.5534 2068.62 76.7768 Q2068.62 85.0001 2071.98 89.6991 Q2075.38 94.3577 2081.3 94.3577 Q2087.21 94.3577 2090.57 89.6991 Q2093.97 85.0001 2093.97 76.7768 Z" fill="#000000" fill-rule="evenodd" fill-opacity="1" /><path clip-path="url(#clip540)" d="M2131.65 59.2769 Q2125.65 59.2769 2122.17 63.9759 Q2118.69 68.6344 2118.69 76.7768 Q2118.69 84.9191 2122.13 89.6181 Q2125.61 94.2767 2131.65 94.2767 Q2137.6 94.2767 2141.09 89.5776 Q2144.57 84.8786 2144.57 76.7768 Q2144.57 68.7155 2141.09 64.0164 Q2137.6 59.2769 2131.65 59.2769 M2131.65 52.9574 Q2141.37 52.9574 2146.92 59.2769 Q2152.47 65.5963 2152.47 76.7768 Q2152.47 87.9167 2146.92 94.2767 Q2141.37 100.596 2131.65 100.596 Q2121.89 100.596 2116.34 94.2767 Q2110.83 87.9167 2110.83 76.7768 Q2110.83 65.5963 2116.34 59.2769 Q2121.89 52.9574 2131.65 52.9574 Z" fill="#000000" fill-rule="evenodd" fill-opacity="1" /><path clip-path="url(#clip540)" d="M2164.82 54.0512 L2172.28 54.0512 L2172.28 99.4213 L2164.82 99.4213 L2164.82 54.0512 M2164.82 36.3892 L2172.28 36.3892 L2172.28 45.8278 L2164.82 45.8278 L2164.82 36.3892 Z" fill="#000000" fill-rule="evenodd" fill-opacity="1" /><path clip-path="url(#clip540)" d="M2225.59 72.0372 L2225.59 99.4213 L2218.13 99.4213 L2218.13 72.2803 Q2218.13 65.8393 2215.62 62.6391 Q2213.11 59.4389 2208.09 59.4389 Q2202.05 59.4389 2198.57 63.2872 Q2195.09 67.1356 2195.09 73.7791 L2195.09 99.4213 L2187.59 99.4213 L2187.59 54.0512 L2195.09 54.0512 L2195.09 61.0998 Q2197.76 57.0083 2201.36 54.9829 Q2205.01 52.9574 2209.75 52.9574 Q2217.57 52.9574 2221.58 57.8185 Q2225.59 62.6391 2225.59 72.0372 Z" fill="#000000" fill-rule="evenodd" fill-opacity="1" /><path clip-path="url(#clip540)" d="M2247.83 41.1693 L2247.83 54.0512 L2263.18 54.0512 L2263.18 59.844 L2247.83 59.844 L2247.83 84.4735 Q2247.83 90.0232 2249.33 91.6031 Q2250.87 93.1829 2255.52 93.1829 L2263.18 93.1829 L2263.18 99.4213 L2255.52 99.4213 Q2246.9 99.4213 2243.61 96.2211 Q2240.33 92.9804 2240.33 84.4735 L2240.33 59.844 L2234.86 59.844 L2234.86 54.0512 L2240.33 54.0512 L2240.33 41.1693 L2247.83 41.1693 Z" fill="#000000" fill-rule="evenodd" fill-opacity="1" /><path clip-path="url(#clip540)" d="M2301.91 55.388 L2301.91 62.4366 Q2298.75 60.8162 2295.34 60.006 Q2291.94 59.1958 2288.3 59.1958 Q2282.75 59.1958 2279.95 60.8972 Q2277.2 62.5986 2277.2 66.0014 Q2277.2 68.5939 2279.18 70.0928 Q2281.17 71.5511 2287.16 72.8879 L2289.71 73.455 Q2297.65 75.1564 2300.98 78.2756 Q2304.34 81.3543 2304.34 86.904 Q2304.34 93.2234 2299.31 96.9098 Q2294.33 100.596 2285.58 100.596 Q2281.94 100.596 2277.97 99.8669 Q2274.04 99.1783 2269.66 97.7604 L2269.66 90.0637 Q2273.79 92.2107 2277.8 93.3044 Q2281.81 94.3577 2285.74 94.3577 Q2291.01 94.3577 2293.85 92.5753 Q2296.68 90.7524 2296.68 87.4711 Q2296.68 84.433 2294.62 82.8126 Q2292.59 81.1922 2285.66 79.6934 L2283.07 79.0858 Q2276.14 77.6274 2273.07 74.6298 Q2269.99 71.5916 2269.99 66.3254 Q2269.99 59.925 2274.52 56.4412 Q2279.06 52.9574 2287.41 52.9574 Q2291.54 52.9574 2295.18 53.5651 Q2298.83 54.1727 2301.91 55.388 Z" fill="#000000" fill-rule="evenodd" fill-opacity="1" /><circle clip-path="url(#clip542)" cx="352.315" cy="159.909" r="14" fill="#0000ff" fill-rule="evenodd" fill-opacity="1" stroke="#000000" stroke-opacity="1" stroke-width="3.2"/>
<circle clip-path="url(#clip542)" cx="352.315" cy="159.909" r="14" fill="#0000ff" fill-rule="evenodd" fill-opacity="1" stroke="#000000" stroke-opacity="1" stroke-width="3.2"/>
<circle clip-path="url(#clip542)" cx="352.315" cy="159.909" r="14" fill="#0000ff" fill-rule="evenodd" fill-opacity="1" stroke="#000000" stroke-opacity="1" stroke-width="3.2"/>
<circle clip-path="url(#clip542)" cx="448.496" cy="226.857" r="14" fill="#0000ff" fill-rule="evenodd" fill-opacity="1" stroke="#000000" stroke-opacity="1" stroke-width="3.2"/>
<circle clip-path="url(#clip542)" cx="448.496" cy="226.857" r="14" fill="#0000ff" fill-rule="evenodd" fill-opacity="1" stroke="#000000" stroke-opacity="1" stroke-width="3.2"/>
<circle clip-path="url(#clip542)" cx="523.1" cy="274.336" r="14" fill="#0000ff" fill-rule="evenodd" fill-opacity="1" stroke="#000000" stroke-opacity="1" stroke-width="3.2"/>
<circle clip-path="url(#clip542)" cx="584.055" cy="312.454" r="14" fill="#0000ff" fill-rule="evenodd" fill-opacity="1" stroke="#000000" stroke-opacity="1" stroke-width="3.2"/>
<circle clip-path="url(#clip542)" cx="584.055" cy="312.454" r="14" fill="#0000ff" fill-rule="evenodd" fill-opacity="1" stroke="#000000" stroke-opacity="1" stroke-width="3.2"/>
<circle clip-path="url(#clip542)" cx="635.593" cy="344.537" r="14" fill="#0000ff" fill-rule="evenodd" fill-opacity="1" stroke="#000000" stroke-opacity="1" stroke-width="3.2"/>
<circle clip-path="url(#clip542)" cx="680.236" cy="372.287" r="14" fill="#0000ff" fill-rule="evenodd" fill-opacity="1" stroke="#000000" stroke-opacity="1" stroke-width="3.2"/>
<circle clip-path="url(#clip542)" cx="719.615" cy="396.752" r="14" fill="#0000ff" fill-rule="evenodd" fill-opacity="1" stroke="#000000" stroke-opacity="1" stroke-width="3.2"/>
<circle clip-path="url(#clip542)" cx="786.705" cy="438.422" r="14" fill="#0000ff" fill-rule="evenodd" fill-opacity="1" stroke="#000000" stroke-opacity="1" stroke-width="3.2"/>
<circle clip-path="url(#clip542)" cx="815.796" cy="456.489" r="14" fill="#0000ff" fill-rule="evenodd" fill-opacity="1" stroke="#000000" stroke-opacity="1" stroke-width="3.2"/>
<circle clip-path="url(#clip542)" cx="867.333" cy="488.495" r="14" fill="#0000ff" fill-rule="evenodd" fill-opacity="1" stroke="#000000" stroke-opacity="1" stroke-width="3.2"/>
<circle clip-path="url(#clip542)" cx="890.4" cy="502.819" r="14" fill="#0000ff" fill-rule="evenodd" fill-opacity="1" stroke="#000000" stroke-opacity="1" stroke-width="3.2"/>
<circle clip-path="url(#clip542)" cx="932.246" cy="528.806" r="14" fill="#0000ff" fill-rule="evenodd" fill-opacity="1" stroke="#000000" stroke-opacity="1" stroke-width="3.2"/>
<circle clip-path="url(#clip542)" cx="969.432" cy="551.899" r="14" fill="#0000ff" fill-rule="evenodd" fill-opacity="1" stroke="#000000" stroke-opacity="1" stroke-width="3.2"/>
<circle clip-path="url(#clip542)" cx="1018.45" cy="582.337" r="14" fill="#0000ff" fill-rule="evenodd" fill-opacity="1" stroke="#000000" stroke-opacity="1" stroke-width="3.2"/>
<circle clip-path="url(#clip542)" cx="1061.18" cy="608.878" r="14" fill="#0000ff" fill-rule="evenodd" fill-opacity="1" stroke="#000000" stroke-opacity="1" stroke-width="3.2"/>
<circle clip-path="url(#clip542)" cx="1099.07" cy="632.408" r="14" fill="#0000ff" fill-rule="evenodd" fill-opacity="1" stroke="#000000" stroke-opacity="1" stroke-width="3.2"/>
<circle clip-path="url(#clip542)" cx="1143.72" cy="660.132" r="14" fill="#0000ff" fill-rule="evenodd" fill-opacity="1" stroke="#000000" stroke-opacity="1" stroke-width="3.2"/>
<circle clip-path="url(#clip542)" cx="1183.1" cy="684.586" r="14" fill="#0000ff" fill-rule="evenodd" fill-opacity="1" stroke="#000000" stroke-opacity="1" stroke-width="3.2"/>
<circle clip-path="url(#clip542)" cx="1218.32" cy="706.461" r="14" fill="#0000ff" fill-rule="evenodd" fill-opacity="1" stroke="#000000" stroke-opacity="1" stroke-width="3.2"/>
<circle clip-path="url(#clip542)" cx="1257.7" cy="730.916" r="14" fill="#0000ff" fill-rule="evenodd" fill-opacity="1" stroke="#000000" stroke-opacity="1" stroke-width="3.2"/>
<circle clip-path="url(#clip542)" cx="1299.55" cy="756.903" r="14" fill="#0000ff" fill-rule="evenodd" fill-opacity="1" stroke="#000000" stroke-opacity="1" stroke-width="3.2"/>
<circle clip-path="url(#clip542)" cx="1342.55" cy="783.606" r="14" fill="#0000ff" fill-rule="evenodd" fill-opacity="1" stroke="#000000" stroke-opacity="1" stroke-width="3.2"/>
<circle clip-path="url(#clip542)" cx="1380.64" cy="807.264" r="14" fill="#0000ff" fill-rule="evenodd" fill-opacity="1" stroke="#000000" stroke-opacity="1" stroke-width="3.2"/>
<circle clip-path="url(#clip542)" cx="1419.45" cy="831.363" r="14" fill="#0000ff" fill-rule="evenodd" fill-opacity="1" stroke="#000000" stroke-opacity="1" stroke-width="3.2"/>
<circle clip-path="url(#clip542)" cx="1458.32" cy="855.501" r="14" fill="#0000ff" fill-rule="evenodd" fill-opacity="1" stroke="#000000" stroke-opacity="1" stroke-width="3.2"/>
<circle clip-path="url(#clip542)" cx="1500.4" cy="881.637" r="14" fill="#0000ff" fill-rule="evenodd" fill-opacity="1" stroke="#000000" stroke-opacity="1" stroke-width="3.2"/>
<circle clip-path="url(#clip542)" cx="1540.98" cy="906.834" r="14" fill="#0000ff" fill-rule="evenodd" fill-opacity="1" stroke="#000000" stroke-opacity="1" stroke-width="3.2"/>
<circle clip-path="url(#clip542)" cx="1580" cy="931.068" r="14" fill="#0000ff" fill-rule="evenodd" fill-opacity="1" stroke="#000000" stroke-opacity="1" stroke-width="3.2"/>
<circle clip-path="url(#clip542)" cx="1620.01" cy="955.913" r="14" fill="#0000ff" fill-rule="evenodd" fill-opacity="1" stroke="#000000" stroke-opacity="1" stroke-width="3.2"/>
<circle clip-path="url(#clip542)" cx="1660.22" cy="980.888" r="14" fill="#0000ff" fill-rule="evenodd" fill-opacity="1" stroke="#000000" stroke-opacity="1" stroke-width="3.2"/>
<circle clip-path="url(#clip542)" cx="1698.11" cy="1004.42" r="14" fill="#0000ff" fill-rule="evenodd" fill-opacity="1" stroke="#000000" stroke-opacity="1" stroke-width="3.2"/>
<circle clip-path="url(#clip542)" cx="1739.26" cy="1029.97" r="14" fill="#0000ff" fill-rule="evenodd" fill-opacity="1" stroke="#000000" stroke-opacity="1" stroke-width="3.2"/>
<circle clip-path="url(#clip542)" cx="1779.03" cy="1054.67" r="14" fill="#0000ff" fill-rule="evenodd" fill-opacity="1" stroke="#000000" stroke-opacity="1" stroke-width="3.2"/>
<circle clip-path="url(#clip542)" cx="1818.75" cy="1079.33" r="14" fill="#0000ff" fill-rule="evenodd" fill-opacity="1" stroke="#000000" stroke-opacity="1" stroke-width="3.2"/>
<circle clip-path="url(#clip542)" cx="1857.98" cy="1103.69" r="14" fill="#0000ff" fill-rule="evenodd" fill-opacity="1" stroke="#000000" stroke-opacity="1" stroke-width="3.2"/>
<circle clip-path="url(#clip542)" cx="1897.49" cy="1128.24" r="14" fill="#0000ff" fill-rule="evenodd" fill-opacity="1" stroke="#000000" stroke-opacity="1" stroke-width="3.2"/>
<circle clip-path="url(#clip542)" cx="1937.72" cy="1153.22" r="14" fill="#0000ff" fill-rule="evenodd" fill-opacity="1" stroke="#000000" stroke-opacity="1" stroke-width="3.2"/>
<circle clip-path="url(#clip542)" cx="1977.1" cy="1177.66" r="14" fill="#0000ff" fill-rule="evenodd" fill-opacity="1" stroke="#000000" stroke-opacity="1" stroke-width="3.2"/>
<circle clip-path="url(#clip542)" cx="2016.96" cy="1202.44" r="14" fill="#0000ff" fill-rule="evenodd" fill-opacity="1" stroke="#000000" stroke-opacity="1" stroke-width="3.2"/>
<circle clip-path="url(#clip542)" cx="2056" cy="1226.69" r="14" fill="#0000ff" fill-rule="evenodd" fill-opacity="1" stroke="#000000" stroke-opacity="1" stroke-width="3.2"/>
<circle clip-path="url(#clip542)" cx="2095.83" cy="1251.41" r="14" fill="#0000ff" fill-rule="evenodd" fill-opacity="1" stroke="#000000" stroke-opacity="1" stroke-width="3.2"/>
<circle clip-path="url(#clip542)" cx="2135.75" cy="1276.12" r="14" fill="#0000ff" fill-rule="evenodd" fill-opacity="1" stroke="#000000" stroke-opacity="1" stroke-width="3.2"/>
<circle clip-path="url(#clip542)" cx="2175.24" cy="1300.64" r="14" fill="#0000ff" fill-rule="evenodd" fill-opacity="1" stroke="#000000" stroke-opacity="1" stroke-width="3.2"/>
<circle clip-path="url(#clip542)" cx="2214.83" cy="1324.86" r="14" fill="#0000ff" fill-rule="evenodd" fill-opacity="1" stroke="#000000" stroke-opacity="1" stroke-width="3.2"/>
<circle clip-path="url(#clip542)" cx="2254.78" cy="1350.06" r="14" fill="#0000ff" fill-rule="evenodd" fill-opacity="1" stroke="#000000" stroke-opacity="1" stroke-width="3.2"/>
<circle clip-path="url(#clip542)" cx="2294.49" cy="1374.46" r="14" fill="#0000ff" fill-rule="evenodd" fill-opacity="1" stroke="#000000" stroke-opacity="1" stroke-width="3.2"/>
</svg>
