<?xml version="1.0" encoding="utf-8"?>
<svg xmlns="http://www.w3.org/2000/svg" xmlns:xlink="http://www.w3.org/1999/xlink" width="600" height="400" viewBox="0 0 2400 1600">
<defs>
  <clipPath id="clip220">
    <rect x="0" y="0" width="2400" height="1600"/>
  </clipPath>
</defs>
<path clip-path="url(#clip220)" d="
M0 1600 L2400 1600 L2400 0 L0 0  Z
  " fill="#ffffff" fill-rule="evenodd" fill-opacity="1"/>
<defs>
  <clipPath id="clip221">
    <rect x="480" y="0" width="1681" height="1600"/>
  </clipPath>
</defs>
<path clip-path="url(#clip220)" d="
M281.411 1410.9 L2352.76 1410.9 L2352.76 47.2441 L281.411 47.2441  Z
  " fill="#ffffff" fill-rule="evenodd" fill-opacity="1"/>
<defs>
  <clipPath id="clip222">
    <rect x="281" y="47" width="2072" height="1365"/>
  </clipPath>
</defs>
<polyline clip-path="url(#clip222)" style="stroke:#000000; stroke-linecap:butt; stroke-linejoin:round; stroke-width:2; stroke-opacity:0.1; fill:none" points="
  680.62,1410.9 680.62,47.2441 
  "/>
<polyline clip-path="url(#clip222)" style="stroke:#000000; stroke-linecap:butt; stroke-linejoin:round; stroke-width:2; stroke-opacity:0.1; fill:none" points="
  1331.99,1410.9 1331.99,47.2441 
  "/>
<polyline clip-path="url(#clip222)" style="stroke:#000000; stroke-linecap:butt; stroke-linejoin:round; stroke-width:2; stroke-opacity:0.1; fill:none" points="
  1983.35,1410.9 1983.35,47.2441 
  "/>
<polyline clip-path="url(#clip220)" style="stroke:#000000; stroke-linecap:butt; stroke-linejoin:round; stroke-width:4; stroke-opacity:1; fill:none" points="
  281.411,1410.9 2352.76,1410.9 
  "/>
<polyline clip-path="url(#clip220)" style="stroke:#000000; stroke-linecap:butt; stroke-linejoin:round; stroke-width:4; stroke-opacity:1; fill:none" points="
  680.62,1410.9 680.62,1392 
  "/>
<polyline clip-path="url(#clip220)" style="stroke:#000000; stroke-linecap:butt; stroke-linejoin:round; stroke-width:4; stroke-opacity:1; fill:none" points="
  1331.99,1410.9 1331.99,1392 
  "/>
<polyline clip-path="url(#clip220)" style="stroke:#000000; stroke-linecap:butt; stroke-linejoin:round; stroke-width:4; stroke-opacity:1; fill:none" points="
  1983.35,1410.9 1983.35,1392 
  "/>
<path clip-path="url(#clip220)" d="M646.947 1485.02 L654.586 1485.02 L654.586 1458.66 L646.276 1460.32 L646.276 1456.06 L654.54 1454.4 L659.216 1454.4 L659.216 1485.02 L666.854 1485.02 L666.854 1488.96 L646.947 1488.96 L646.947 1485.02 Z" fill="#000000" fill-rule="evenodd" fill-opacity="1" /><path clip-path="url(#clip220)" d="M686.299 1457.48 Q682.688 1457.48 680.859 1461.04 Q679.053 1464.58 679.053 1471.71 Q679.053 1478.82 680.859 1482.38 Q682.688 1485.92 686.299 1485.92 Q689.933 1485.92 691.739 1482.38 Q693.567 1478.82 693.567 1471.71 Q693.567 1464.58 691.739 1461.04 Q689.933 1457.48 686.299 1457.48 M686.299 1453.77 Q692.109 1453.77 695.164 1458.38 Q698.243 1462.96 698.243 1471.71 Q698.243 1480.44 695.164 1485.04 Q692.109 1489.63 686.299 1489.63 Q680.489 1489.63 677.41 1485.04 Q674.354 1480.44 674.354 1471.71 Q674.354 1462.96 677.41 1458.38 Q680.489 1453.77 686.299 1453.77 Z" fill="#000000" fill-rule="evenodd" fill-opacity="1" /><path clip-path="url(#clip220)" d="M698.789 1458.35 L704.995 1458.35 L704.995 1436.93 L698.243 1438.28 L698.243 1434.82 L704.957 1433.47 L708.757 1433.47 L708.757 1458.35 L714.963 1458.35 L714.963 1461.55 L698.789 1461.55 L698.789 1458.35 Z" fill="#000000" fill-rule="evenodd" fill-opacity="1" /><path clip-path="url(#clip220)" d="M1297.76 1485.02 L1305.4 1485.02 L1305.4 1458.66 L1297.09 1460.32 L1297.09 1456.06 L1305.35 1454.4 L1310.03 1454.4 L1310.03 1485.02 L1317.67 1485.02 L1317.67 1488.96 L1297.76 1488.96 L1297.76 1485.02 Z" fill="#000000" fill-rule="evenodd" fill-opacity="1" /><path clip-path="url(#clip220)" d="M1337.11 1457.48 Q1333.5 1457.48 1331.67 1461.04 Q1329.86 1464.58 1329.86 1471.71 Q1329.86 1478.82 1331.67 1482.38 Q1333.5 1485.92 1337.11 1485.92 Q1340.74 1485.92 1342.55 1482.38 Q1344.38 1478.82 1344.38 1471.71 Q1344.38 1464.58 1342.55 1461.04 Q1340.74 1457.48 1337.11 1457.48 M1337.11 1453.77 Q1342.92 1453.77 1345.98 1458.38 Q1349.05 1462.96 1349.05 1471.71 Q1349.05 1480.44 1345.98 1485.04 Q1342.92 1489.63 1337.11 1489.63 Q1331.3 1489.63 1328.22 1485.04 Q1325.17 1480.44 1325.17 1471.71 Q1325.17 1462.96 1328.22 1458.38 Q1331.3 1453.77 1337.11 1453.77 Z" fill="#000000" fill-rule="evenodd" fill-opacity="1" /><path clip-path="url(#clip220)" d="M1353.62 1458.35 L1366.88 1458.35 L1366.88 1461.55 L1349.05 1461.55 L1349.05 1458.35 Q1351.22 1456.11 1354.94 1452.35 Q1358.68 1448.57 1359.64 1447.48 Q1361.47 1445.43 1362.18 1444.02 Q1362.92 1442.59 1362.92 1441.22 Q1362.92 1438.98 1361.34 1437.57 Q1359.78 1436.16 1357.25 1436.16 Q1355.47 1436.16 1353.47 1436.78 Q1351.5 1437.4 1349.24 1438.66 L1349.24 1434.82 Q1351.54 1433.9 1353.53 1433.43 Q1355.52 1432.96 1357.18 1432.96 Q1361.54 1432.96 1364.14 1435.14 Q1366.73 1437.32 1366.73 1440.97 Q1366.73 1442.7 1366.08 1444.26 Q1365.44 1445.8 1363.72 1447.91 Q1363.25 1448.46 1360.73 1451.07 Q1358.21 1453.67 1353.62 1458.35 Z" fill="#000000" fill-rule="evenodd" fill-opacity="1" /><path clip-path="url(#clip220)" d="M1948.8 1485.02 L1956.43 1485.02 L1956.43 1458.66 L1948.12 1460.32 L1948.12 1456.06 L1956.39 1454.4 L1961.06 1454.4 L1961.06 1485.02 L1968.7 1485.02 L1968.7 1488.96 L1948.8 1488.96 L1948.8 1485.02 Z" fill="#000000" fill-rule="evenodd" fill-opacity="1" /><path clip-path="url(#clip220)" d="M1988.15 1457.48 Q1984.54 1457.48 1982.71 1461.04 Q1980.9 1464.58 1980.9 1471.71 Q1980.9 1478.82 1982.71 1482.38 Q1984.54 1485.92 1988.15 1485.92 Q1991.78 1485.92 1993.59 1482.38 Q1995.42 1478.82 1995.42 1471.71 Q1995.42 1464.58 1993.59 1461.04 Q1991.78 1457.48 1988.15 1457.48 M1988.15 1453.77 Q1993.96 1453.77 1997.01 1458.38 Q2000.09 1462.96 2000.09 1471.71 Q2000.09 1480.44 1997.01 1485.04 Q1993.96 1489.63 1988.15 1489.63 Q1982.34 1489.63 1979.26 1485.04 Q1976.2 1480.44 1976.2 1471.71 Q1976.2 1462.96 1979.26 1458.38 Q1982.34 1453.77 1988.15 1453.77 Z" fill="#000000" fill-rule="evenodd" fill-opacity="1" /><path clip-path="url(#clip220)" d="M2012.79 1446.41 Q2015.51 1446.99 2017.04 1448.83 Q2018.58 1450.68 2018.58 1453.38 Q2018.58 1457.54 2015.72 1459.82 Q2012.86 1462.09 2007.6 1462.09 Q2005.83 1462.09 2003.95 1461.73 Q2002.09 1461.4 2000.09 1460.7 L2000.09 1457.03 Q2001.67 1457.95 2003.55 1458.42 Q2005.43 1458.89 2007.48 1458.89 Q2011.06 1458.89 2012.92 1457.48 Q2014.8 1456.07 2014.8 1453.38 Q2014.8 1450.9 2013.05 1449.51 Q2011.32 1448.1 2008.22 1448.1 L2004.94 1448.1 L2004.94 1444.98 L2008.37 1444.98 Q2011.17 1444.98 2012.66 1443.87 Q2014.14 1442.74 2014.14 1440.63 Q2014.14 1438.47 2012.6 1437.32 Q2011.08 1436.16 2008.22 1436.16 Q2006.66 1436.16 2004.87 1436.49 Q2003.08 1436.83 2000.94 1437.55 L2000.94 1434.16 Q2003.1 1433.56 2004.98 1433.26 Q2006.88 1432.96 2008.56 1432.96 Q2012.88 1432.96 2015.4 1434.93 Q2017.92 1436.89 2017.92 1440.24 Q2017.92 1442.57 2016.59 1444.19 Q2015.25 1445.79 2012.79 1446.41 Z" fill="#000000" fill-rule="evenodd" fill-opacity="1" /><path clip-path="url(#clip220)" d="M1118.66 1545.51 L1109.4 1545.51 L1106.73 1556.14 L1116.05 1556.14 L1118.66 1545.51 M1113.89 1527.4 L1110.58 1540.61 L1119.87 1540.61 L1123.22 1527.4 L1128.31 1527.4 L1125.03 1540.61 L1134.96 1540.61 L1134.96 1545.51 L1123.79 1545.51 L1121.18 1556.14 L1131.3 1556.14 L1131.3 1561.01 L1119.94 1561.01 L1116.63 1574.19 L1111.53 1574.19 L1114.81 1561.01 L1105.49 1561.01 L1102.21 1574.19 L1097.08 1574.19 L1100.39 1561.01 L1090.37 1561.01 L1090.37 1556.14 L1101.57 1556.14 L1104.25 1545.51 L1094 1545.51 L1094 1540.61 L1105.49 1540.61 L1108.73 1527.4 L1113.89 1527.4 Z" fill="#000000" fill-rule="evenodd" fill-opacity="1" /><path clip-path="url(#clip220)" d="M1180.63 1542.64 Q1175.92 1542.64 1173.19 1546.34 Q1170.45 1550 1170.45 1556.39 Q1170.45 1562.79 1173.15 1566.48 Q1175.89 1570.14 1180.63 1570.14 Q1185.31 1570.14 1188.05 1566.45 Q1190.79 1562.76 1190.79 1556.39 Q1190.79 1550.06 1188.05 1546.37 Q1185.31 1542.64 1180.63 1542.64 M1180.63 1537.68 Q1188.27 1537.68 1192.63 1542.64 Q1196.99 1547.61 1196.99 1556.39 Q1196.99 1565.15 1192.63 1570.14 Q1188.27 1575.11 1180.63 1575.11 Q1172.96 1575.11 1168.6 1570.14 Q1164.27 1565.15 1164.27 1556.39 Q1164.27 1547.61 1168.6 1542.64 Q1172.96 1537.68 1180.63 1537.68 Z" fill="#000000" fill-rule="evenodd" fill-opacity="1" /><path clip-path="url(#clip220)" d="M1224.75 1524.66 L1224.75 1529.53 L1219.15 1529.53 Q1216 1529.53 1214.75 1530.8 Q1213.55 1532.08 1213.55 1535.39 L1213.55 1538.54 L1223.19 1538.54 L1223.19 1543.09 L1213.55 1543.09 L1213.55 1574.19 L1207.66 1574.19 L1207.66 1543.09 L1202.06 1543.09 L1202.06 1538.54 L1207.66 1538.54 L1207.66 1536.05 Q1207.66 1530.1 1210.43 1527.4 Q1213.2 1524.66 1219.21 1524.66 L1224.75 1524.66 Z" fill="#000000" fill-rule="evenodd" fill-opacity="1" /><path clip-path="url(#clip220)" d="M1280.86 1554.9 L1280.86 1557.76 L1253.94 1557.76 Q1254.32 1563.81 1257.56 1566.99 Q1260.84 1570.14 1266.67 1570.14 Q1270.04 1570.14 1273.19 1569.32 Q1276.37 1568.49 1279.49 1566.83 L1279.49 1572.37 Q1276.34 1573.71 1273.03 1574.41 Q1269.72 1575.11 1266.32 1575.11 Q1257.79 1575.11 1252.79 1570.14 Q1247.82 1565.18 1247.82 1556.71 Q1247.82 1547.96 1252.54 1542.83 Q1257.28 1537.68 1265.3 1537.68 Q1272.49 1537.68 1276.66 1542.33 Q1280.86 1546.94 1280.86 1554.9 M1275.01 1553.18 Q1274.94 1548.37 1272.3 1545.51 Q1269.69 1542.64 1265.36 1542.64 Q1260.46 1542.64 1257.5 1545.41 Q1254.57 1548.18 1254.13 1553.21 L1275.01 1553.18 Z" fill="#000000" fill-rule="evenodd" fill-opacity="1" /><path clip-path="url(#clip220)" d="M1290.47 1524.66 L1296.33 1524.66 L1296.33 1574.19 L1290.47 1574.19 L1290.47 1524.66 Z" fill="#000000" fill-rule="evenodd" fill-opacity="1" /><path clip-path="url(#clip220)" d="M1339.08 1554.9 L1339.08 1557.76 L1312.15 1557.76 Q1312.53 1563.81 1315.78 1566.99 Q1319.06 1570.14 1324.88 1570.14 Q1328.26 1570.14 1331.41 1569.32 Q1334.59 1568.49 1337.71 1566.83 L1337.71 1572.37 Q1334.56 1573.71 1331.25 1574.41 Q1327.94 1575.11 1324.53 1575.11 Q1316 1575.11 1311 1570.14 Q1306.04 1565.18 1306.04 1556.71 Q1306.04 1547.96 1310.75 1542.83 Q1315.49 1537.68 1323.51 1537.68 Q1330.71 1537.68 1334.88 1542.33 Q1339.08 1546.94 1339.08 1554.9 M1333.22 1553.18 Q1333.16 1548.37 1330.52 1545.51 Q1327.91 1542.64 1323.58 1542.64 Q1318.67 1542.64 1315.71 1545.41 Q1312.79 1548.18 1312.34 1553.21 L1333.22 1553.18 Z" fill="#000000" fill-rule="evenodd" fill-opacity="1" /><path clip-path="url(#clip220)" d="M1376.44 1545.38 Q1378.64 1541.43 1381.7 1539.56 Q1384.75 1537.68 1388.89 1537.68 Q1394.46 1537.68 1397.48 1541.59 Q1400.51 1545.48 1400.51 1552.67 L1400.51 1574.19 L1394.62 1574.19 L1394.62 1552.86 Q1394.62 1547.74 1392.8 1545.25 Q1390.99 1542.77 1387.27 1542.77 Q1382.71 1542.77 1380.07 1545.79 Q1377.43 1548.82 1377.43 1554.04 L1377.43 1574.19 L1371.54 1574.19 L1371.54 1552.86 Q1371.54 1547.7 1369.73 1545.25 Q1367.91 1542.77 1364.13 1542.77 Q1359.64 1542.77 1357 1545.83 Q1354.35 1548.85 1354.35 1554.04 L1354.35 1574.19 L1348.47 1574.19 L1348.47 1538.54 L1354.35 1538.54 L1354.35 1544.08 Q1356.36 1540.8 1359.16 1539.24 Q1361.96 1537.68 1365.81 1537.68 Q1369.7 1537.68 1372.4 1539.65 Q1375.14 1541.62 1376.44 1545.38 Z" fill="#000000" fill-rule="evenodd" fill-opacity="1" /><path clip-path="url(#clip220)" d="M1442.68 1554.9 L1442.68 1557.76 L1415.75 1557.76 Q1416.13 1563.81 1419.38 1566.99 Q1422.66 1570.14 1428.48 1570.14 Q1431.86 1570.14 1435.01 1569.32 Q1438.19 1568.49 1441.31 1566.83 L1441.31 1572.37 Q1438.16 1573.71 1434.85 1574.41 Q1431.54 1575.11 1428.13 1575.11 Q1419.6 1575.11 1414.61 1570.14 Q1409.64 1565.18 1409.64 1556.71 Q1409.64 1547.96 1414.35 1542.83 Q1419.09 1537.68 1427.11 1537.68 Q1434.31 1537.68 1438.48 1542.33 Q1442.68 1546.94 1442.68 1554.9 M1436.82 1553.18 Q1436.76 1548.37 1434.12 1545.51 Q1431.51 1542.64 1427.18 1542.64 Q1422.28 1542.64 1419.32 1545.41 Q1416.39 1548.18 1415.94 1553.21 L1436.82 1553.18 Z" fill="#000000" fill-rule="evenodd" fill-opacity="1" /><path clip-path="url(#clip220)" d="M1481.92 1552.67 L1481.92 1574.19 L1476.07 1574.19 L1476.07 1552.86 Q1476.07 1547.8 1474.09 1545.29 Q1472.12 1542.77 1468.17 1542.77 Q1463.43 1542.77 1460.69 1545.79 Q1457.96 1548.82 1457.96 1554.04 L1457.96 1574.19 L1452.07 1574.19 L1452.07 1538.54 L1457.96 1538.54 L1457.96 1544.08 Q1460.06 1540.86 1462.89 1539.27 Q1465.75 1537.68 1469.48 1537.68 Q1475.62 1537.68 1478.77 1541.5 Q1481.92 1545.29 1481.92 1552.67 Z" fill="#000000" fill-rule="evenodd" fill-opacity="1" /><path clip-path="url(#clip220)" d="M1499.4 1528.42 L1499.4 1538.54 L1511.46 1538.54 L1511.46 1543.09 L1499.4 1543.09 L1499.4 1562.44 Q1499.4 1566.8 1500.57 1568.04 Q1501.78 1569.28 1505.44 1569.28 L1511.46 1569.28 L1511.46 1574.19 L1505.44 1574.19 Q1498.67 1574.19 1496.09 1571.67 Q1493.51 1569.12 1493.51 1562.44 L1493.51 1543.09 L1489.21 1543.09 L1489.21 1538.54 L1493.51 1538.54 L1493.51 1528.42 L1499.4 1528.42 Z" fill="#000000" fill-rule="evenodd" fill-opacity="1" /><path clip-path="url(#clip220)" d="M1541.89 1539.59 L1541.89 1545.13 Q1539.41 1543.85 1536.73 1543.22 Q1534.06 1542.58 1531.19 1542.58 Q1526.83 1542.58 1524.64 1543.92 Q1522.47 1545.25 1522.47 1547.93 Q1522.47 1549.96 1524.03 1551.14 Q1525.59 1552.29 1530.3 1553.34 L1532.31 1553.78 Q1538.55 1555.12 1541.16 1557.57 Q1543.8 1559.99 1543.8 1564.35 Q1543.8 1569.32 1539.85 1572.21 Q1535.94 1575.11 1529.06 1575.11 Q1526.2 1575.11 1523.08 1574.54 Q1519.99 1573.99 1516.55 1572.88 L1516.55 1566.83 Q1519.8 1568.52 1522.95 1569.38 Q1526.1 1570.21 1529.19 1570.21 Q1533.33 1570.21 1535.55 1568.81 Q1537.78 1567.37 1537.78 1564.8 Q1537.78 1562.41 1536.16 1561.14 Q1534.57 1559.86 1529.13 1558.68 L1527.09 1558.21 Q1521.65 1557.06 1519.23 1554.71 Q1516.81 1552.32 1516.81 1548.18 Q1516.81 1543.15 1520.37 1540.42 Q1523.94 1537.68 1530.49 1537.68 Q1533.74 1537.68 1536.6 1538.16 Q1539.47 1538.63 1541.89 1539.59 Z" fill="#000000" fill-rule="evenodd" fill-opacity="1" /><polyline clip-path="url(#clip222)" style="stroke:#000000; stroke-linecap:butt; stroke-linejoin:round; stroke-width:2; stroke-opacity:0.1; fill:none" points="
  281.411,1162.71 2352.76,1162.71 
  "/>
<polyline clip-path="url(#clip222)" style="stroke:#000000; stroke-linecap:butt; stroke-linejoin:round; stroke-width:2; stroke-opacity:0.1; fill:none" points="
  281.411,677.248 2352.76,677.248 
  "/>
<polyline clip-path="url(#clip222)" style="stroke:#000000; stroke-linecap:butt; stroke-linejoin:round; stroke-width:2; stroke-opacity:0.1; fill:none" points="
  281.411,191.787 2352.76,191.787 
  "/>
<polyline clip-path="url(#clip220)" style="stroke:#000000; stroke-linecap:butt; stroke-linejoin:round; stroke-width:4; stroke-opacity:1; fill:none" points="
  281.411,1410.9 281.411,47.2441 
  "/>
<polyline clip-path="url(#clip220)" style="stroke:#000000; stroke-linecap:butt; stroke-linejoin:round; stroke-width:4; stroke-opacity:1; fill:none" points="
  281.411,1162.71 300.309,1162.71 
  "/>
<polyline clip-path="url(#clip220)" style="stroke:#000000; stroke-linecap:butt; stroke-linejoin:round; stroke-width:4; stroke-opacity:1; fill:none" points="
  281.411,677.248 300.309,677.248 
  "/>
<polyline clip-path="url(#clip220)" style="stroke:#000000; stroke-linecap:butt; stroke-linejoin:round; stroke-width:4; stroke-opacity:1; fill:none" points="
  281.411,191.787 300.309,191.787 
  "/>
<path clip-path="url(#clip220)" d="M120.276 1182.5 L127.914 1182.5 L127.914 1156.14 L119.604 1157.8 L119.604 1153.54 L127.868 1151.88 L132.544 1151.88 L132.544 1182.5 L140.183 1182.5 L140.183 1186.44 L120.276 1186.44 L120.276 1182.5 Z" fill="#000000" fill-rule="evenodd" fill-opacity="1" /><path clip-path="url(#clip220)" d="M159.627 1154.96 Q156.016 1154.96 154.187 1158.52 Q152.382 1162.06 152.382 1169.19 Q152.382 1176.3 154.187 1179.86 Q156.016 1183.4 159.627 1183.4 Q163.261 1183.4 165.067 1179.86 Q166.896 1176.3 166.896 1169.19 Q166.896 1162.06 165.067 1158.52 Q163.261 1154.96 159.627 1154.96 M159.627 1151.25 Q165.437 1151.25 168.493 1155.86 Q171.572 1160.44 171.572 1169.19 Q171.572 1177.92 168.493 1182.52 Q165.437 1187.11 159.627 1187.11 Q153.817 1187.11 150.738 1182.52 Q147.683 1177.92 147.683 1169.19 Q147.683 1160.44 150.738 1155.86 Q153.817 1151.25 159.627 1151.25 Z" fill="#000000" fill-rule="evenodd" fill-opacity="1" /><path clip-path="url(#clip220)" d="M171.572 1145.35 L195.683 1145.35 L195.683 1148.55 L171.572 1148.55 L171.572 1145.35 Z" fill="#000000" fill-rule="evenodd" fill-opacity="1" /><path clip-path="url(#clip220)" d="M204.542 1155.83 L210.748 1155.83 L210.748 1134.41 L203.996 1135.76 L203.996 1132.3 L210.711 1130.95 L214.51 1130.95 L214.51 1155.83 L220.716 1155.83 L220.716 1159.03 L204.542 1159.03 L204.542 1155.83 Z" fill="#000000" fill-rule="evenodd" fill-opacity="1" /><path clip-path="url(#clip220)" d="M228.428 1130.95 L243.342 1130.95 L243.342 1134.14 L231.907 1134.14 L231.907 1141.03 Q232.734 1140.74 233.562 1140.61 Q234.39 1140.46 235.217 1140.46 Q239.919 1140.46 242.665 1143.04 Q245.411 1145.62 245.411 1150.02 Q245.411 1154.55 242.59 1157.07 Q239.769 1159.57 234.634 1159.57 Q232.866 1159.57 231.023 1159.27 Q229.199 1158.97 227.243 1158.37 L227.243 1154.55 Q228.935 1155.47 230.741 1155.92 Q232.546 1156.37 234.559 1156.37 Q237.813 1156.37 239.712 1154.66 Q241.612 1152.95 241.612 1150.02 Q241.612 1147.08 239.712 1145.37 Q237.813 1143.66 234.559 1143.66 Q233.035 1143.66 231.512 1144 Q230.007 1144.34 228.428 1145.05 L228.428 1130.95 Z" fill="#000000" fill-rule="evenodd" fill-opacity="1" /><path clip-path="url(#clip220)" d="M119.467 697.04 L127.106 697.04 L127.106 670.675 L118.796 672.341 L118.796 668.082 L127.059 666.416 L131.735 666.416 L131.735 697.04 L139.374 697.04 L139.374 700.976 L119.467 700.976 L119.467 697.04 Z" fill="#000000" fill-rule="evenodd" fill-opacity="1" /><path clip-path="url(#clip220)" d="M158.819 669.494 Q155.207 669.494 153.379 673.059 Q151.573 676.601 151.573 683.73 Q151.573 690.837 153.379 694.401 Q155.207 697.943 158.819 697.943 Q162.453 697.943 164.258 694.401 Q166.087 690.837 166.087 683.73 Q166.087 676.601 164.258 673.059 Q162.453 669.494 158.819 669.494 M158.819 665.791 Q164.629 665.791 167.684 670.397 Q170.763 674.98 170.763 683.73 Q170.763 692.457 167.684 697.064 Q164.629 701.647 158.819 701.647 Q153.008 701.647 149.93 697.064 Q146.874 692.457 146.874 683.73 Q146.874 674.98 149.93 670.397 Q153.008 665.791 158.819 665.791 Z" fill="#000000" fill-rule="evenodd" fill-opacity="1" /><path clip-path="url(#clip220)" d="M170.763 659.892 L194.874 659.892 L194.874 663.089 L170.763 663.089 L170.763 659.892 Z" fill="#000000" fill-rule="evenodd" fill-opacity="1" /><path clip-path="url(#clip220)" d="M203.733 670.368 L209.939 670.368 L209.939 648.946 L203.187 650.3 L203.187 646.839 L209.902 645.485 L213.701 645.485 L213.701 670.368 L219.908 670.368 L219.908 673.565 L203.733 673.565 L203.733 670.368 Z" fill="#000000" fill-rule="evenodd" fill-opacity="1" /><path clip-path="url(#clip220)" d="M235.706 647.987 Q232.772 647.987 231.286 650.883 Q229.819 653.761 229.819 659.553 Q229.819 665.327 231.286 668.224 Q232.772 671.101 235.706 671.101 Q238.659 671.101 240.126 668.224 Q241.612 665.327 241.612 659.553 Q241.612 653.761 240.126 650.883 Q238.659 647.987 235.706 647.987 M235.706 644.977 Q240.427 644.977 242.909 648.72 Q245.411 652.444 245.411 659.553 Q245.411 666.644 242.909 670.387 Q240.427 674.111 235.706 674.111 Q230.985 674.111 228.484 670.387 Q226.001 666.644 226.001 659.553 Q226.001 652.444 228.484 648.72 Q230.985 644.977 235.706 644.977 Z" fill="#000000" fill-rule="evenodd" fill-opacity="1" /><path clip-path="url(#clip220)" d="M144.782 211.579 L152.421 211.579 L152.421 185.214 L144.111 186.881 L144.111 182.621 L152.375 180.955 L157.051 180.955 L157.051 211.579 L164.689 211.579 L164.689 215.515 L144.782 215.515 L144.782 211.579 Z" fill="#000000" fill-rule="evenodd" fill-opacity="1" /><path clip-path="url(#clip220)" d="M184.134 184.033 Q180.523 184.033 178.694 187.598 Q176.888 191.14 176.888 198.269 Q176.888 205.376 178.694 208.941 Q180.523 212.482 184.134 212.482 Q187.768 212.482 189.574 208.941 Q191.402 205.376 191.402 198.269 Q191.402 191.14 189.574 187.598 Q187.768 184.033 184.134 184.033 M184.134 180.33 Q189.944 180.33 192.999 184.936 Q196.078 189.519 196.078 198.269 Q196.078 206.996 192.999 211.603 Q189.944 216.186 184.134 216.186 Q178.324 216.186 175.245 211.603 Q172.189 206.996 172.189 198.269 Q172.189 189.519 175.245 184.936 Q178.324 180.33 184.134 180.33 Z" fill="#000000" fill-rule="evenodd" fill-opacity="1" /><path clip-path="url(#clip220)" d="M196.078 174.431 L220.19 174.431 L220.19 177.628 L196.078 177.628 L196.078 174.431 Z" fill="#000000" fill-rule="evenodd" fill-opacity="1" /><path clip-path="url(#clip220)" d="M228.428 160.024 L243.342 160.024 L243.342 163.222 L231.907 163.222 L231.907 170.105 Q232.734 169.823 233.562 169.691 Q234.39 169.541 235.217 169.541 Q239.919 169.541 242.665 172.118 Q245.411 174.694 245.411 179.095 Q245.411 183.628 242.59 186.148 Q239.769 188.65 234.634 188.65 Q232.866 188.65 231.023 188.349 Q229.199 188.048 227.243 187.446 L227.243 183.628 Q228.935 184.55 230.741 185.001 Q232.546 185.452 234.559 185.452 Q237.813 185.452 239.712 183.741 Q241.612 182.029 241.612 179.095 Q241.612 176.161 239.712 174.45 Q237.813 172.738 234.559 172.738 Q233.035 172.738 231.512 173.077 Q230.007 173.415 228.428 174.13 L228.428 160.024 Z" fill="#000000" fill-rule="evenodd" fill-opacity="1" /><path clip-path="url(#clip220)" d="M77.6144 1059.21 L16.1978 1059.21 Q13.7502 1059.21 13.7502 1057.89 Q13.7502 1056.57 15.7147 1056.57 L77.1313 1056.57 Q79.5789 1056.57 79.5789 1057.89 Q79.5789 1059.21 77.6144 1059.21 Z" fill="#000000" fill-rule="evenodd" fill-opacity="1" /><path clip-path="url(#clip220)" d="M77.6144 1041.49 L16.1978 1041.49 Q13.7502 1041.49 13.7502 1040.17 Q13.7502 1038.85 15.7147 1038.85 L77.1313 1038.85 Q79.5789 1038.85 79.5789 1040.17 Q79.5789 1041.49 77.6144 1041.49 Z" fill="#000000" fill-rule="evenodd" fill-opacity="1" /><path clip-path="url(#clip220)" d="M53.7176 980.351 Q57.8722 981.188 60.2554 982.315 Q63.8947 984.151 63.8947 987.211 Q63.8947 989.336 62.7031 990.946 Q61.4792 992.525 59.4503 993.072 Q60.2554 993.684 60.8029 994.231 Q61.3504 994.747 62.1878 995.745 Q62.9929 996.743 63.4438 998.096 Q63.8947 999.417 63.8947 1000.93 Q63.8947 1002.09 63.6692 1003.15 Q63.476 1004.22 62.9285 1005.34 Q62.3488 1006.44 61.4792 1007.24 Q60.6097 1008.02 59.1926 1008.53 Q57.7756 1009.05 55.972 1009.05 Q53.7176 1009.05 50.6581 1008.18 Q47.5985 1007.27 42.1235 1005.21 Q39.225 1004.09 37.6147 1004.09 Q36.874 1004.09 36.3909 1004.25 Q35.9078 1004.41 35.7468 1004.73 Q35.5535 1005.02 35.5213 1005.21 Q35.4569 1005.41 35.4569 1005.73 Q35.4569 1007.73 37.4859 1009.46 Q39.5148 1011.2 43.6372 1012.4 Q44.4423 1012.65 44.6356 1012.81 Q44.8288 1012.98 44.8288 1013.46 Q44.7966 1014.26 44.1525 1014.26 Q43.8948 1014.26 42.8965 1013.97 Q41.8659 1013.68 40.3522 1013.01 Q38.8063 1012.3 37.4215 1011.33 Q36.0044 1010.37 35.006 1008.85 Q34.0076 1007.31 34.0076 1005.54 Q34.0076 1003.12 35.5857 1001.64 Q37.1316 1000.13 39.4182 1000.13 Q40.8353 1000.13 43.5728 1001.25 Q53.0735 1004.83 57.0348 1004.83 Q62.4132 1004.83 62.4132 1000.74 Q62.4132 999.384 61.8657 998.128 Q61.3182 996.84 60.5453 996.003 Q59.7723 995.165 58.935 994.521 Q58.0976 993.845 57.5501 993.555 Q57.0026 993.233 56.8738 993.201 L37.035 988.273 Q36.2621 988.08 35.7468 987.726 Q35.1993 987.339 35.006 986.888 Q34.8128 986.438 34.7806 986.18 Q34.7162 985.922 34.7162 985.697 Q34.7162 984.892 35.1993 984.344 Q35.6823 983.765 36.5197 983.765 Q36.6807 983.765 37.4537 983.958 Q38.1944 984.119 39.2894 984.376 Q40.3522 984.634 40.9319 984.763 Q44.9898 985.793 45.4085 985.89 L52.526 987.726 Q52.9447 987.822 54.2973 988.145 Q55.65 988.434 56.3585 988.595 Q57.0348 988.756 57.9688 988.917 Q58.8706 989.046 59.3859 989.046 Q60.9962 989.046 61.7047 988.563 Q62.4132 988.08 62.4132 987.017 Q62.4132 986.019 61.7369 985.246 Q61.0284 984.441 59.6757 983.829 Q58.2909 983.217 57.1637 982.863 Q56.0365 982.508 54.2651 982.058 Q53.4922 981.897 53.299 981.768 Q53.0735 981.607 53.0735 981.156 Q53.0735 980.351 53.7176 980.351 Z" fill="#000000" fill-rule="evenodd" fill-opacity="1" /><path clip-path="url(#clip220)" d="M82.9261 973.645 L81.5059 973.645 Q81.5059 971.188 81.2128 970.624 Q80.8972 970.061 79.4093 970.061 L67.0325 970.061 Q65.3192 970.061 64.8909 970.67 Q64.4625 971.256 64.4625 973.645 L63.0197 973.645 L62.5237 967.153 L67.3707 967.153 Q62.5237 964.988 62.5237 960.322 Q62.5237 956.85 64.2371 955.475 Q65.3868 954.46 66.6718 954.257 Q67.9569 954.032 71.2934 954.032 L80.1081 954.032 Q81.0775 953.987 81.303 953.243 Q81.5059 952.499 81.5059 950.425 L82.9261 950.425 Q82.7909 955.137 82.7909 955.61 Q82.7909 955.971 82.9261 960.818 L81.5059 960.818 Q81.5059 958.36 81.2128 957.797 Q80.8972 957.211 79.4093 957.211 L68.6557 957.211 Q66.3111 957.211 64.9359 957.932 Q63.5382 958.654 63.5382 960.637 Q63.5382 963.027 65.5446 964.943 Q67.5511 966.86 70.9327 966.86 L79.4093 966.86 Q80.8972 966.86 81.2128 966.296 Q81.5059 965.71 81.5059 963.275 L82.9261 963.275 Q82.7909 967.987 82.7909 968.438 Q82.7909 968.798 82.9261 973.645 Z" fill="#000000" fill-rule="evenodd" fill-opacity="1" /><path clip-path="url(#clip220)" d="M64.4625 948.095 L63.0197 948.095 L62.5237 941.309 L77.8537 941.309 Q78.9584 941.309 79.6122 941.219 Q80.2434 941.129 80.9873 940.768 Q81.7313 940.385 82.0695 939.528 Q82.4076 938.649 82.4076 937.251 Q82.4076 934.749 80.3561 933.216 Q78.3046 931.66 75.2611 931.66 L67.0325 931.66 Q65.3192 931.66 64.8909 932.269 Q64.4625 932.878 64.4625 935.267 L63.0197 935.267 L62.5237 928.481 L78.9133 928.481 Q80.6266 928.481 81.0775 927.895 Q81.5059 927.287 81.5059 924.874 L82.9261 924.874 L83.4447 931.525 L79.274 931.525 Q83.4221 933.464 83.4447 937.477 Q83.4447 939.506 82.9261 940.903 Q82.4076 942.278 81.7764 942.977 Q81.1226 943.676 79.8827 944.059 Q78.6428 944.42 77.8763 944.465 Q77.1098 944.51 75.6218 944.51 L68.7008 944.51 Q65.5672 944.51 65.0261 944.961 Q64.4625 945.412 64.4625 948.095 Z" fill="#000000" fill-rule="evenodd" fill-opacity="1" /><path clip-path="url(#clip220)" d="M82.9261 923.284 L81.5059 923.284 Q81.5059 920.826 81.2128 920.263 Q80.8972 919.699 79.4093 919.699 L67.0325 919.699 Q65.3192 919.699 64.8909 920.308 Q64.4625 920.894 64.4625 923.284 L63.0197 923.284 L62.5237 916.791 L67.3707 916.791 Q62.5237 914.627 62.5237 909.96 Q62.5237 904.549 67.0325 903.805 Q65.2741 903.016 63.8989 901.371 Q62.5237 899.702 62.5237 897.11 Q62.5237 893.638 64.2371 892.263 Q65.3868 891.248 66.6718 891.046 Q67.9569 890.843 71.2934 890.843 L80.1081 890.843 Q81.0775 890.798 81.303 890.054 Q81.5059 889.31 81.5059 887.236 L82.9261 887.236 Q82.7909 891.947 82.7909 892.398 Q82.7909 892.759 82.9261 897.628 L81.5059 897.628 Q81.5059 895.171 81.2128 894.607 Q80.8972 894.021 79.4093 894.021 L68.6557 894.021 Q66.3111 894.021 64.9359 894.743 Q63.5382 895.464 63.5382 897.448 Q63.5382 899.838 65.5446 901.754 Q67.5511 903.67 70.9327 903.67 L79.4093 903.67 Q80.8972 903.67 81.2128 903.107 Q81.5059 902.52 81.5059 900.063 L82.9261 900.063 Q82.7909 904.775 82.7909 905.248 Q82.7909 905.609 82.9261 910.456 L81.5059 910.456 Q81.5059 907.999 81.2128 907.435 Q80.8972 906.849 79.4093 906.849 L68.6557 906.849 Q66.3111 906.849 64.9359 907.57 Q63.5382 908.292 63.5382 910.276 Q63.5382 912.665 65.5446 914.582 Q67.5511 916.498 70.9327 916.498 L79.4093 916.498 Q80.8972 916.498 81.2128 915.934 Q81.5059 915.348 81.5059 912.913 L82.9261 912.913 Q82.7909 917.625 82.7909 918.076 Q82.7909 918.437 82.9261 923.284 Z" fill="#000000" fill-rule="evenodd" fill-opacity="1" /><path clip-path="url(#clip220)" d="M72.7587 884.474 Q68.4077 884.474 65.3192 881.678 Q62.2307 878.883 62.2307 874.87 Q62.2307 870.812 64.8683 868.715 Q67.506 866.596 71.2934 866.596 Q71.9922 866.596 72.1275 866.776 Q72.2628 866.957 72.2628 867.746 L72.2628 880.641 Q76.9745 880.641 79.1838 879.243 Q82.2724 877.304 82.2724 874.036 Q82.2724 873.585 82.1822 873.044 Q82.092 872.503 81.7088 871.398 Q81.303 870.293 80.2434 869.324 Q79.1838 868.354 77.5156 867.791 Q76.8618 867.656 76.8843 867.205 Q76.8843 866.596 77.4254 866.596 Q77.8312 866.596 78.7555 867.047 Q79.6572 867.475 80.7394 868.309 Q81.8215 869.144 82.6331 870.767 Q83.4447 872.367 83.4447 874.306 Q83.4447 878.364 80.3787 881.43 Q77.2901 884.474 72.7587 884.474 M71.2934 880.596 L71.2934 869.64 Q70.324 869.64 69.2419 869.82 Q68.1597 869.978 66.6718 870.474 Q65.1614 870.947 64.2145 872.074 Q63.2677 873.201 63.2677 874.87 Q63.2677 875.614 63.5833 876.425 Q63.8989 877.214 64.6654 878.184 Q65.4319 879.153 67.1678 879.829 Q68.9037 880.506 71.2934 880.596 Z" fill="#000000" fill-rule="evenodd" fill-opacity="1" /><path clip-path="url(#clip220)" d="M82.9261 865.101 L81.5059 865.101 Q81.5059 862.643 81.2128 862.08 Q80.8972 861.493 79.4093 861.493 L67.0325 861.493 Q65.3192 861.493 64.8909 862.102 Q64.4625 862.688 64.4625 865.101 L63.0197 865.101 L62.5237 858.675 L67.5961 858.675 Q65.6123 858.022 64.0793 856.646 Q62.5237 855.249 62.5237 852.994 Q62.5237 851.506 63.3579 850.56 Q64.192 849.59 65.3417 849.59 Q66.3562 849.59 66.8747 850.221 Q67.3707 850.83 67.3707 851.574 Q67.3707 852.408 66.8522 852.994 Q66.3111 853.558 65.3868 853.558 Q64.8232 853.558 64.3949 853.31 Q63.944 853.039 63.7862 852.837 Q63.6284 852.634 63.5833 852.498 Q63.5382 852.589 63.5382 852.994 Q63.5382 855.542 66.0857 857.007 Q68.6106 858.45 72.2177 858.45 L79.3191 858.45 Q80.6492 858.45 81.0775 857.909 Q81.5059 857.345 81.5059 854.933 L81.5059 853.964 L82.9261 853.964 Q82.7909 855.812 82.7909 859.825 Q82.7909 860.389 82.8134 861.268 Q82.836 862.147 82.881 863.297 Q82.9261 864.447 82.9261 865.101 Z" fill="#000000" fill-rule="evenodd" fill-opacity="1" /><path clip-path="url(#clip220)" d="M82.9261 847.82 L81.5059 847.82 Q81.5059 845.363 81.2128 844.8 Q80.8972 844.236 79.4093 844.236 L66.9875 844.236 Q65.2741 844.236 64.8683 844.822 Q64.4625 845.386 64.4625 847.64 L63.0197 847.64 L62.5237 841.192 L79.4543 841.192 Q80.8295 841.192 81.1677 840.697 Q81.5059 840.201 81.5059 837.946 L82.9261 837.946 Q82.7909 842.658 82.7909 842.748 Q82.7909 843.379 82.9261 847.82 M54.4755 845.882 Q53.5512 845.882 52.8072 845.183 Q52.0407 844.461 52.0407 843.447 Q52.0407 842.432 52.7396 841.711 Q53.4159 840.99 54.498 840.99 Q55.5576 840.99 56.2565 841.711 Q56.9328 842.432 56.9328 843.447 Q56.9328 844.506 56.1888 845.205 Q55.4449 845.882 54.4755 845.882 Z" fill="#000000" fill-rule="evenodd" fill-opacity="1" /><path clip-path="url(#clip220)" d="M80.4012 830.936 Q77.3352 833.866 72.9616 833.866 Q68.5655 833.866 65.4094 830.981 Q62.2307 828.095 62.2307 823.857 Q62.2307 821.039 63.5833 818.92 Q64.9134 816.8 67.1904 816.8 Q68.2048 816.8 68.791 817.409 Q69.3546 817.995 69.3546 818.92 Q69.3546 819.889 68.7684 820.475 Q68.1597 821.039 67.2354 821.039 Q66.8296 821.039 66.4239 820.903 Q66.0181 820.768 65.5897 820.272 Q65.1614 819.754 65.0938 818.875 Q63.4029 820.52 63.4029 823.722 Q63.4029 823.767 63.4029 823.812 Q63.4029 826.156 65.6123 828.095 Q67.8216 830.034 72.8715 830.034 Q75.5091 830.034 77.4479 829.403 Q79.3642 828.749 80.3561 827.689 Q81.348 826.63 81.8215 825.593 Q82.2724 824.556 82.2724 823.541 Q82.2724 819.01 77.4254 817.477 Q76.9745 817.342 76.9745 816.891 Q76.9745 816.282 77.4254 816.282 Q77.6508 816.282 78.237 816.462 Q78.8231 816.643 79.7474 817.206 Q80.6717 817.77 81.4833 818.581 Q82.2724 819.37 82.8585 820.791 Q83.4447 822.189 83.4447 823.947 Q83.4447 828.005 80.4012 830.936 Z" fill="#000000" fill-rule="evenodd" fill-opacity="1" /><path clip-path="url(#clip220)" d="M78.53 813.939 Q74.6074 813.939 72.5333 809.317 Q71.2032 806.544 70.865 800.818 L69.1742 800.818 Q66.3111 800.818 64.8007 802.329 Q63.2677 803.817 63.2677 805.71 Q63.2677 809.092 65.3868 810.715 Q65.4319 809.34 66.1308 808.844 Q66.8071 808.348 67.506 808.348 Q68.4303 808.348 69.039 808.934 Q69.6251 809.498 69.6251 810.467 Q69.6251 811.391 69.0615 812 Q68.4754 812.609 67.4609 812.609 Q65.2065 812.609 63.7186 810.58 Q62.2307 808.528 62.2307 805.62 Q62.2307 801.833 64.7781 799.308 Q65.5672 798.519 66.5817 798.136 Q67.5961 797.73 68.2725 797.685 Q68.9262 797.64 70.2338 797.64 L79.4543 797.64 Q79.7249 797.64 80.1758 797.549 Q80.6266 797.459 81.2128 797.053 Q81.7764 796.625 81.7764 795.926 Q81.7764 794.258 78.8231 794.28 L76.2305 794.28 L76.2305 793.108 L78.8231 793.108 Q81.2804 793.108 82.2498 794.416 Q83.1967 795.701 83.1967 796.896 Q83.1967 798.429 82.0695 799.398 Q80.9423 800.367 79.4093 800.503 Q81.1677 801.202 82.3174 802.802 Q83.4447 804.38 83.4447 806.544 Q83.4447 808.213 83.0163 809.791 Q82.6105 811.346 81.4608 812.654 Q80.2885 813.939 78.53 813.939 M78.4849 810.377 Q80.1983 810.377 81.303 809.16 Q82.4076 807.942 82.4076 806.229 Q82.4076 804.29 80.9197 802.554 Q79.4093 800.818 76.456 800.818 L71.8344 800.818 Q72.0148 805.936 74.0663 808.168 Q76.0953 810.377 78.4849 810.377 Z" fill="#000000" fill-rule="evenodd" fill-opacity="1" /><path clip-path="url(#clip220)" d="M82.9261 791.259 L81.5059 791.259 Q81.5059 788.802 81.2128 788.238 Q80.8972 787.674 79.4093 787.674 L55.3998 787.674 Q53.6864 787.674 53.2581 788.283 Q52.8298 788.869 52.8298 791.259 L51.3869 791.259 L50.891 784.631 L79.4093 784.631 Q80.8972 784.631 81.2128 784.045 Q81.5059 783.459 81.5059 781.024 L82.9261 781.024 Q82.9261 781.587 82.881 782.76 Q82.836 783.932 82.8134 784.789 Q82.7909 785.645 82.7909 786.141 Q82.7909 786.682 82.9261 791.259 Z" fill="#000000" fill-rule="evenodd" fill-opacity="1" /><path clip-path="url(#clip220)" d="M45.7306 709.713 Q46.117 709.327 46.6645 709.327 Q47.212 709.327 47.5985 709.713 Q47.985 710.1 47.985 710.647 L47.985 751.935 Q47.985 752.483 47.5985 752.869 Q47.212 753.256 46.6645 753.256 Q46.117 753.256 45.7306 752.869 Q45.3441 752.483 45.3441 751.935 L45.3441 710.647 Q45.3441 710.1 45.7306 709.713 Z" fill="#000000" fill-rule="evenodd" fill-opacity="1" /><path clip-path="url(#clip220)" d="M53.7176 650.226 Q57.8722 651.063 60.2554 652.191 Q63.8947 654.026 63.8947 657.086 Q63.8947 659.212 62.7031 660.822 Q61.4792 662.4 59.4503 662.947 Q60.2554 663.559 60.8029 664.107 Q61.3504 664.622 62.1878 665.62 Q62.9929 666.619 63.4438 667.972 Q63.8947 669.292 63.8947 670.806 Q63.8947 671.965 63.6692 673.028 Q63.476 674.091 62.9285 675.218 Q62.3488 676.313 61.4792 677.118 Q60.6097 677.891 59.1926 678.406 Q57.7756 678.922 55.972 678.922 Q53.7176 678.922 50.6581 678.052 Q47.5985 677.15 42.1235 675.089 Q39.225 673.962 37.6147 673.962 Q36.874 673.962 36.3909 674.123 Q35.9078 674.284 35.7468 674.606 Q35.5535 674.896 35.5213 675.089 Q35.4569 675.282 35.4569 675.604 Q35.4569 677.601 37.4859 679.34 Q39.5148 681.079 43.6372 682.271 Q44.4423 682.529 44.6356 682.69 Q44.8288 682.851 44.8288 683.334 Q44.7966 684.139 44.1525 684.139 Q43.8948 684.139 42.8965 683.849 Q41.8659 683.559 40.3522 682.883 Q38.8063 682.174 37.4215 681.208 Q36.0044 680.242 35.006 678.728 Q34.0076 677.182 34.0076 675.411 Q34.0076 672.996 35.5857 671.514 Q37.1316 670 39.4182 670 Q40.8353 670 43.5728 671.128 Q53.0735 674.703 57.0348 674.703 Q62.4132 674.703 62.4132 670.612 Q62.4132 669.26 61.8657 668.004 Q61.3182 666.715 60.5453 665.878 Q59.7723 665.041 58.935 664.397 Q58.0976 663.72 57.5501 663.43 Q57.0026 663.108 56.8738 663.076 L37.035 658.149 Q36.2621 657.955 35.7468 657.601 Q35.1993 657.215 35.006 656.764 Q34.8128 656.313 34.7806 656.055 Q34.7162 655.798 34.7162 655.572 Q34.7162 654.767 35.1993 654.22 Q35.6823 653.64 36.5197 653.64 Q36.6807 653.64 37.4537 653.833 Q38.1944 653.994 39.2894 654.252 Q40.3522 654.509 40.9319 654.638 Q44.9898 655.669 45.4085 655.765 L52.526 657.601 Q52.9447 657.698 54.2973 658.02 Q55.65 658.31 56.3585 658.471 Q57.0348 658.632 57.9688 658.793 Q58.8706 658.922 59.3859 658.922 Q60.9962 658.922 61.7047 658.439 Q62.4132 657.955 62.4132 656.893 Q62.4132 655.894 61.7369 655.121 Q61.0284 654.316 59.6757 653.704 Q58.2909 653.092 57.1637 652.738 Q56.0365 652.384 54.2651 651.933 Q53.4922 651.772 53.299 651.643 Q53.0735 651.482 53.0735 651.031 Q53.0735 650.226 53.7176 650.226 Z" fill="#000000" fill-rule="evenodd" fill-opacity="1" /><path clip-path="url(#clip220)" d="M78.53 643.521 Q74.6074 643.521 72.5333 638.899 Q71.2032 636.126 70.865 630.4 L69.1742 630.4 Q66.3111 630.4 64.8007 631.911 Q63.2677 633.398 63.2677 635.292 Q63.2677 638.674 65.3868 640.297 Q65.4319 638.922 66.1308 638.426 Q66.8071 637.93 67.506 637.93 Q68.4303 637.93 69.039 638.516 Q69.6251 639.08 69.6251 640.049 Q69.6251 640.973 69.0615 641.582 Q68.4754 642.191 67.4609 642.191 Q65.2065 642.191 63.7186 640.162 Q62.2307 638.11 62.2307 635.202 Q62.2307 631.415 64.7781 628.89 Q65.5672 628.101 66.5817 627.717 Q67.5961 627.312 68.2725 627.266 Q68.9262 627.221 70.2338 627.221 L79.4543 627.221 Q79.7249 627.221 80.1758 627.131 Q80.6266 627.041 81.2128 626.635 Q81.7764 626.207 81.7764 625.508 Q81.7764 623.84 78.8231 623.862 L76.2305 623.862 L76.2305 622.69 L78.8231 622.69 Q81.2804 622.69 82.2498 623.998 Q83.1967 625.283 83.1967 626.477 Q83.1967 628.01 82.0695 628.98 Q80.9423 629.949 79.4093 630.084 Q81.1677 630.783 82.3174 632.384 Q83.4447 633.962 83.4447 636.126 Q83.4447 637.795 83.0163 639.373 Q82.6105 640.928 81.4608 642.236 Q80.2885 643.521 78.53 643.521 M78.4849 639.959 Q80.1983 639.959 81.303 638.741 Q82.4076 637.524 82.4076 635.811 Q82.4076 633.872 80.9197 632.136 Q79.4093 630.4 76.456 630.4 L71.8344 630.4 Q72.0148 635.518 74.0663 637.749 Q76.0953 639.959 78.4849 639.959 Z" fill="#000000" fill-rule="evenodd" fill-opacity="1" /><path clip-path="url(#clip220)" d="M82.9261 621.765 L81.5059 621.765 Q81.5059 619.307 81.2128 618.744 Q80.8972 618.18 79.4093 618.18 L67.0325 618.18 Q65.3192 618.18 64.8909 618.789 Q64.4625 619.375 64.4625 621.765 L63.0197 621.765 L62.5237 615.272 L67.3707 615.272 Q62.5237 613.108 62.5237 608.441 Q62.5237 604.969 64.2371 603.594 Q65.3868 602.58 66.6718 602.377 Q67.9569 602.151 71.2934 602.151 L80.1081 602.151 Q81.0775 602.106 81.303 601.362 Q81.5059 600.618 81.5059 598.544 L82.9261 598.544 Q82.7909 603.256 82.7909 603.729 Q82.7909 604.09 82.9261 608.937 L81.5059 608.937 Q81.5059 606.48 81.2128 605.916 Q80.8972 605.33 79.4093 605.33 L68.6557 605.33 Q66.3111 605.33 64.9359 606.051 Q63.5382 606.773 63.5382 608.757 Q63.5382 611.146 65.5446 613.063 Q67.5511 614.979 70.9327 614.979 L79.4093 614.979 Q80.8972 614.979 81.2128 614.415 Q81.5059 613.829 81.5059 611.394 L82.9261 611.394 Q82.7909 616.106 82.7909 616.557 Q82.7909 616.918 82.9261 621.765 Z" fill="#000000" fill-rule="evenodd" fill-opacity="1" /><path clip-path="url(#clip220)" d="M78.53 595.29 Q74.6074 595.29 72.5333 590.669 Q71.2032 587.896 70.865 582.17 L69.1742 582.17 Q66.3111 582.17 64.8007 583.68 Q63.2677 585.168 63.2677 587.062 Q63.2677 590.443 65.3868 592.066 Q65.4319 590.691 66.1308 590.195 Q66.8071 589.699 67.506 589.699 Q68.4303 589.699 69.039 590.285 Q69.6251 590.849 69.6251 591.818 Q69.6251 592.743 69.0615 593.351 Q68.4754 593.96 67.4609 593.96 Q65.2065 593.96 63.7186 591.931 Q62.2307 589.88 62.2307 586.971 Q62.2307 583.184 64.7781 580.659 Q65.5672 579.87 66.5817 579.487 Q67.5961 579.081 68.2725 579.036 Q68.9262 578.991 70.2338 578.991 L79.4543 578.991 Q79.7249 578.991 80.1758 578.901 Q80.6266 578.81 81.2128 578.405 Q81.7764 577.976 81.7764 577.277 Q81.7764 575.609 78.8231 575.632 L76.2305 575.632 L76.2305 574.459 L78.8231 574.459 Q81.2804 574.459 82.2498 575.767 Q83.1967 577.052 83.1967 578.247 Q83.1967 579.78 82.0695 580.749 Q80.9423 581.719 79.4093 581.854 Q81.1677 582.553 82.3174 584.153 Q83.4447 585.732 83.4447 587.896 Q83.4447 589.564 83.0163 591.142 Q82.6105 592.698 81.4608 594.005 Q80.2885 595.29 78.53 595.29 M78.4849 591.728 Q80.1983 591.728 81.303 590.511 Q82.4076 589.293 82.4076 587.58 Q82.4076 585.641 80.9197 583.905 Q79.4093 582.17 76.456 582.17 L71.8344 582.17 Q72.0148 587.287 74.0663 589.519 Q76.0953 591.728 78.4849 591.728 Z" fill="#000000" fill-rule="evenodd" fill-opacity="1" /><path clip-path="url(#clip220)" d="M82.9261 572.61 L81.5059 572.61 Q81.5059 570.153 81.2128 569.589 Q80.8972 569.026 79.4093 569.026 L55.3998 569.026 Q53.6864 569.026 53.2581 569.634 Q52.8298 570.22 52.8298 572.61 L51.3869 572.61 L50.891 565.982 L79.4093 565.982 Q80.8972 565.982 81.2128 565.396 Q81.5059 564.81 81.5059 562.375 L82.9261 562.375 Q82.9261 562.939 82.881 564.111 Q82.836 565.283 82.8134 566.14 Q82.7909 566.997 82.7909 567.493 Q82.7909 568.034 82.9261 572.61 Z" fill="#000000" fill-rule="evenodd" fill-opacity="1" /><path clip-path="url(#clip220)" d="M88.6523 563.07 Q87.6829 563.07 87.1644 562.507 Q86.6685 561.921 86.6685 561.131 Q86.6685 560.297 87.187 559.756 Q87.728 559.193 88.6073 559.193 Q90.3206 559.193 90.546 560.996 Q91.3802 560.117 91.3802 558.832 Q91.3802 557.457 90.3657 556.352 Q89.3512 555.225 88.3818 554.751 Q87.4124 554.256 85.654 553.557 Q84.2788 552.903 82.9261 552.407 L66.0631 559.328 Q64.9585 559.779 64.7105 560.478 Q64.4625 561.177 64.4625 563.07 L63.0197 563.07 Q63.155 560.996 63.155 558.584 Q63.155 557.164 63.0197 553.557 L64.4625 553.557 Q64.4625 556.149 65.6574 556.149 Q65.7926 556.149 66.4915 555.879 L78.9133 550.739 L67.5511 546.072 Q66.8973 545.801 66.4464 545.801 Q64.5527 545.801 64.4625 547.966 L63.0197 547.966 Q63.155 544.922 63.155 543.953 Q63.155 542.059 63.0197 540.504 L64.4625 540.504 Q64.4625 543.592 67.4158 544.787 L87.1193 552.925 Q92.3721 555.135 92.3947 558.832 Q92.3947 560.59 91.3125 561.83 Q90.2304 563.07 88.6523 563.07 Z" fill="#000000" fill-rule="evenodd" fill-opacity="1" /><path clip-path="url(#clip220)" d="M64.4625 537.314 L63.448 537.314 Q63.3579 535.195 61.8699 533.797 Q60.3595 532.377 58.5109 531.904 Q56.6623 531.408 54.5206 531.362 L54.5206 530.213 L63.0197 530.213 L63.0197 523.607 L64.4625 523.607 L64.4625 530.213 L77.2901 530.213 Q82.2724 530.213 82.2724 527.102 Q82.2724 525.772 80.9197 524.892 Q79.5445 524.013 77.1098 524.013 L74.5623 524.013 L74.5623 522.863 L77.1999 522.863 Q79.7023 522.863 81.5735 524.013 Q83.4447 525.163 83.4447 527.44 Q83.4447 528.274 83.2192 529.108 Q83.0163 529.92 82.4753 531.002 Q81.9117 532.061 80.559 532.738 Q79.1838 533.391 77.1999 533.391 L64.4625 533.391 L64.4625 537.314 Z" fill="#000000" fill-rule="evenodd" fill-opacity="1" /><path clip-path="url(#clip220)" d="M82.9261 520.139 L81.5059 520.139 Q81.5059 517.682 81.2128 517.118 Q80.8972 516.555 79.4093 516.555 L66.9875 516.555 Q65.2741 516.555 64.8683 517.141 Q64.4625 517.705 64.4625 519.959 L63.0197 519.959 L62.5237 513.511 L79.4543 513.511 Q80.8295 513.511 81.1677 513.015 Q81.5059 512.519 81.5059 510.265 L82.9261 510.265 Q82.7909 514.977 82.7909 515.067 Q82.7909 515.698 82.9261 520.139 M54.4755 518.201 Q53.5512 518.201 52.8072 517.502 Q52.0407 516.78 52.0407 515.766 Q52.0407 514.751 52.7396 514.03 Q53.4159 513.308 54.498 513.308 Q55.5576 513.308 56.2565 514.03 Q56.9328 514.751 56.9328 515.766 Q56.9328 516.825 56.1888 517.524 Q55.4449 518.201 54.4755 518.201 Z" fill="#000000" fill-rule="evenodd" fill-opacity="1" /><path clip-path="url(#clip220)" d="M80.4012 503.254 Q77.3352 506.185 72.9616 506.185 Q68.5655 506.185 65.4094 503.3 Q62.2307 500.414 62.2307 496.176 Q62.2307 493.358 63.5833 491.238 Q64.9134 489.119 67.1904 489.119 Q68.2048 489.119 68.791 489.728 Q69.3546 490.314 69.3546 491.238 Q69.3546 492.208 68.7684 492.794 Q68.1597 493.358 67.2354 493.358 Q66.8296 493.358 66.4239 493.222 Q66.0181 493.087 65.5897 492.591 Q65.1614 492.073 65.0938 491.193 Q63.4029 492.839 63.4029 496.04 Q63.4029 496.085 63.4029 496.131 Q63.4029 498.475 65.6123 500.414 Q67.8216 502.353 72.8715 502.353 Q75.5091 502.353 77.4479 501.721 Q79.3642 501.068 80.3561 500.008 Q81.348 498.949 81.8215 497.912 Q82.2724 496.875 82.2724 495.86 Q82.2724 491.329 77.4254 489.796 Q76.9745 489.66 76.9745 489.21 Q76.9745 488.601 77.4254 488.601 Q77.6508 488.601 78.237 488.781 Q78.8231 488.962 79.7474 489.525 Q80.6717 490.089 81.4833 490.9 Q82.2724 491.689 82.8585 493.11 Q83.4447 494.507 83.4447 496.266 Q83.4447 500.324 80.4012 503.254 Z" fill="#000000" fill-rule="evenodd" fill-opacity="1" /><path clip-path="url(#clip220)" d="M78.53 486.258 Q74.6074 486.258 72.5333 481.636 Q71.2032 478.863 70.865 473.137 L69.1742 473.137 Q66.3111 473.137 64.8007 474.648 Q63.2677 476.136 63.2677 478.029 Q63.2677 481.411 65.3868 483.034 Q65.4319 481.659 66.1308 481.163 Q66.8071 480.667 67.506 480.667 Q68.4303 480.667 69.039 481.253 Q69.6251 481.817 69.6251 482.786 Q69.6251 483.71 69.0615 484.319 Q68.4754 484.928 67.4609 484.928 Q65.2065 484.928 63.7186 482.899 Q62.2307 480.847 62.2307 477.939 Q62.2307 474.152 64.7781 471.627 Q65.5672 470.838 66.5817 470.454 Q67.5961 470.049 68.2725 470.004 Q68.9262 469.958 70.2338 469.958 L79.4543 469.958 Q79.7249 469.958 80.1758 469.868 Q80.6266 469.778 81.2128 469.372 Q81.7764 468.944 81.7764 468.245 Q81.7764 466.577 78.8231 466.599 L76.2305 466.599 L76.2305 465.427 L78.8231 465.427 Q81.2804 465.427 82.2498 466.735 Q83.1967 468.02 83.1967 469.214 Q83.1967 470.747 82.0695 471.717 Q80.9423 472.686 79.4093 472.822 Q81.1677 473.52 82.3174 475.121 Q83.4447 476.699 83.4447 478.863 Q83.4447 480.532 83.0163 482.11 Q82.6105 483.665 81.4608 484.973 Q80.2885 486.258 78.53 486.258 M78.4849 482.696 Q80.1983 482.696 81.303 481.478 Q82.4076 480.261 82.4076 478.548 Q82.4076 476.609 80.9197 474.873 Q79.4093 473.137 76.456 473.137 L71.8344 473.137 Q72.0148 478.255 74.0663 480.487 Q76.0953 482.696 78.4849 482.696 Z" fill="#000000" fill-rule="evenodd" fill-opacity="1" /><path clip-path="url(#clip220)" d="M82.9261 463.578 L81.5059 463.578 Q81.5059 461.12 81.2128 460.557 Q80.8972 459.993 79.4093 459.993 L55.3998 459.993 Q53.6864 459.993 53.2581 460.602 Q52.8298 461.188 52.8298 463.578 L51.3869 463.578 L50.891 456.95 L79.4093 456.95 Q80.8972 456.95 81.2128 456.364 Q81.5059 455.778 81.5059 453.343 L82.9261 453.343 Q82.9261 453.906 82.881 455.079 Q82.836 456.251 82.8134 457.108 Q82.7909 457.964 82.7909 458.46 Q82.7909 459.001 82.9261 463.578 Z" fill="#000000" fill-rule="evenodd" fill-opacity="1" /><path clip-path="url(#clip220)" d="M77.6144 443.877 L16.1978 443.877 Q13.7502 443.877 13.7502 442.557 Q13.7502 441.236 15.7147 441.236 L77.1313 441.236 Q79.5789 441.236 79.5789 442.557 Q79.5789 443.877 77.6144 443.877 Z" fill="#000000" fill-rule="evenodd" fill-opacity="1" /><path clip-path="url(#clip220)" d="M77.6144 426.156 L16.1978 426.156 Q13.7502 426.156 13.7502 424.835 Q13.7502 423.515 15.7147 423.515 L77.1313 423.515 Q79.5789 423.515 79.5789 424.835 Q79.5789 426.156 77.6144 426.156 Z" fill="#000000" fill-rule="evenodd" fill-opacity="1" /><circle clip-path="url(#clip222)" cx="340.034" cy="1372.3" r="21" fill="#0000ff" fill-rule="evenodd" fill-opacity="1" stroke="#000000" stroke-opacity="1" stroke-width="3.2"/>
<circle clip-path="url(#clip222)" cx="340.034" cy="1372.3" r="21" fill="#0000ff" fill-rule="evenodd" fill-opacity="1" stroke="#000000" stroke-opacity="1" stroke-width="3.2"/>
<circle clip-path="url(#clip222)" cx="421.415" cy="1288.2" r="21" fill="#0000ff" fill-rule="evenodd" fill-opacity="1" stroke="#000000" stroke-opacity="1" stroke-width="3.2"/>
<circle clip-path="url(#clip222)" cx="536.115" cy="1274.13" r="21" fill="#0000ff" fill-rule="evenodd" fill-opacity="1" stroke="#000000" stroke-opacity="1" stroke-width="3.2"/>
<circle clip-path="url(#clip222)" cx="579.722" cy="1258.04" r="21" fill="#0000ff" fill-rule="evenodd" fill-opacity="1" stroke="#000000" stroke-opacity="1" stroke-width="3.2"/>
<circle clip-path="url(#clip222)" cx="650.815" cy="1181" r="21" fill="#0000ff" fill-rule="evenodd" fill-opacity="1" stroke="#000000" stroke-opacity="1" stroke-width="3.2"/>
<circle clip-path="url(#clip222)" cx="732.196" cy="1108.18" r="21" fill="#0000ff" fill-rule="evenodd" fill-opacity="1" stroke="#000000" stroke-opacity="1" stroke-width="3.2"/>
<circle clip-path="url(#clip222)" cx="795.319" cy="1097.35" r="21" fill="#0000ff" fill-rule="evenodd" fill-opacity="1" stroke="#000000" stroke-opacity="1" stroke-width="3.2"/>
<circle clip-path="url(#clip222)" cx="876.7" cy="1041.28" r="21" fill="#0000ff" fill-rule="evenodd" fill-opacity="1" stroke="#000000" stroke-opacity="1" stroke-width="3.2"/>
<circle clip-path="url(#clip222)" cx="939.824" cy="970.231" r="21" fill="#0000ff" fill-rule="evenodd" fill-opacity="1" stroke="#000000" stroke-opacity="1" stroke-width="3.2"/>
<circle clip-path="url(#clip222)" cx="1009.66" cy="1012.1" r="21" fill="#0000ff" fill-rule="evenodd" fill-opacity="1" stroke="#000000" stroke-opacity="1" stroke-width="3.2"/>
<circle clip-path="url(#clip222)" cx="1079.77" cy="859.885" r="21" fill="#0000ff" fill-rule="evenodd" fill-opacity="1" stroke="#000000" stroke-opacity="1" stroke-width="3.2"/>
<circle clip-path="url(#clip222)" cx="1147" cy="928.059" r="21" fill="#0000ff" fill-rule="evenodd" fill-opacity="1" stroke="#000000" stroke-opacity="1" stroke-width="3.2"/>
<circle clip-path="url(#clip222)" cx="1214.44" cy="835.053" r="21" fill="#0000ff" fill-rule="evenodd" fill-opacity="1" stroke="#000000" stroke-opacity="1" stroke-width="3.2"/>
<circle clip-path="url(#clip222)" cx="1282.66" cy="791.139" r="21" fill="#0000ff" fill-rule="evenodd" fill-opacity="1" stroke="#000000" stroke-opacity="1" stroke-width="3.2"/>
<circle clip-path="url(#clip222)" cx="1348.47" cy="746.899" r="21" fill="#0000ff" fill-rule="evenodd" fill-opacity="1" stroke="#000000" stroke-opacity="1" stroke-width="3.2"/>
<circle clip-path="url(#clip222)" cx="1416.88" cy="774.216" r="21" fill="#0000ff" fill-rule="evenodd" fill-opacity="1" stroke="#000000" stroke-opacity="1" stroke-width="3.2"/>
<circle clip-path="url(#clip222)" cx="1485.4" cy="637.128" r="21" fill="#0000ff" fill-rule="evenodd" fill-opacity="1" stroke="#000000" stroke-opacity="1" stroke-width="3.2"/>
<circle clip-path="url(#clip222)" cx="1552.45" cy="581.856" r="21" fill="#0000ff" fill-rule="evenodd" fill-opacity="1" stroke="#000000" stroke-opacity="1" stroke-width="3.2"/>
<circle clip-path="url(#clip222)" cx="1620.2" cy="531.386" r="21" fill="#0000ff" fill-rule="evenodd" fill-opacity="1" stroke="#000000" stroke-opacity="1" stroke-width="3.2"/>
<circle clip-path="url(#clip222)" cx="1687.18" cy="468.518" r="21" fill="#0000ff" fill-rule="evenodd" fill-opacity="1" stroke="#000000" stroke-opacity="1" stroke-width="3.2"/>
<circle clip-path="url(#clip222)" cx="1754.94" cy="452.821" r="21" fill="#0000ff" fill-rule="evenodd" fill-opacity="1" stroke="#000000" stroke-opacity="1" stroke-width="3.2"/>
<circle clip-path="url(#clip222)" cx="1822.35" cy="374.729" r="21" fill="#0000ff" fill-rule="evenodd" fill-opacity="1" stroke="#000000" stroke-opacity="1" stroke-width="3.2"/>
<circle clip-path="url(#clip222)" cx="1889.64" cy="307.83" r="21" fill="#0000ff" fill-rule="evenodd" fill-opacity="1" stroke="#000000" stroke-opacity="1" stroke-width="3.2"/>
<circle clip-path="url(#clip222)" cx="1956.98" cy="309.894" r="21" fill="#0000ff" fill-rule="evenodd" fill-opacity="1" stroke="#000000" stroke-opacity="1" stroke-width="3.2"/>
<circle clip-path="url(#clip222)" cx="2024.36" cy="239.28" r="21" fill="#0000ff" fill-rule="evenodd" fill-opacity="1" stroke="#000000" stroke-opacity="1" stroke-width="3.2"/>
<circle clip-path="url(#clip222)" cx="2091.95" cy="211.562" r="21" fill="#0000ff" fill-rule="evenodd" fill-opacity="1" stroke="#000000" stroke-opacity="1" stroke-width="3.2"/>
<circle clip-path="url(#clip222)" cx="2159.36" cy="238.226" r="21" fill="#0000ff" fill-rule="evenodd" fill-opacity="1" stroke="#000000" stroke-opacity="1" stroke-width="3.2"/>
<circle clip-path="url(#clip222)" cx="2226.73" cy="85.838" r="21" fill="#0000ff" fill-rule="evenodd" fill-opacity="1" stroke="#000000" stroke-opacity="1" stroke-width="3.2"/>
<circle clip-path="url(#clip222)" cx="2294.13" cy="92.8209" r="21" fill="#0000ff" fill-rule="evenodd" fill-opacity="1" stroke="#000000" stroke-opacity="1" stroke-width="3.2"/>
</svg>
