<?xml version="1.0" encoding="utf-8"?>
<svg xmlns="http://www.w3.org/2000/svg" xmlns:xlink="http://www.w3.org/1999/xlink" width="600" height="400" viewBox="0 0 2400 1600">
<defs>
  <clipPath id="clip810">
    <rect x="0" y="0" width="2400" height="1600"/>
  </clipPath>
</defs>
<path clip-path="url(#clip810)" d="
M0 1600 L2400 1600 L2400 0 L0 0  Z
  " fill="#ffffff" fill-rule="evenodd" fill-opacity="1"/>
<defs>
  <clipPath id="clip811">
    <rect x="480" y="0" width="1681" height="1600"/>
  </clipPath>
</defs>
<defs>
  <clipPath id="clip812">
    <rect x="294" y="123" width="2060" height="1288"/>
  </clipPath>
</defs>
<path clip-path="url(#clip810)" d="
M294.05 1410.9 L2352.76 1410.9 L2352.76 123.472 L294.05 123.472  Z
  " fill="#ffffff" fill-rule="evenodd" fill-opacity="1"/>
<polyline clip-path="url(#clip812)" style="stroke:#000000; stroke-linecap:butt; stroke-linejoin:round; stroke-width:2; stroke-opacity:0.1; fill:none" points="
  754.84,1410.9 754.84,123.472 
  "/>
<polyline clip-path="url(#clip812)" style="stroke:#000000; stroke-linecap:butt; stroke-linejoin:round; stroke-width:2; stroke-opacity:0.1; fill:none" points="
  1524.67,1410.9 1524.67,123.472 
  "/>
<polyline clip-path="url(#clip812)" style="stroke:#000000; stroke-linecap:butt; stroke-linejoin:round; stroke-width:2; stroke-opacity:0.1; fill:none" points="
  2294.49,1410.9 2294.49,123.472 
  "/>
<polyline clip-path="url(#clip810)" style="stroke:#000000; stroke-linecap:butt; stroke-linejoin:round; stroke-width:4; stroke-opacity:1; fill:none" points="
  294.05,1410.9 2352.76,1410.9 
  "/>
<polyline clip-path="url(#clip810)" style="stroke:#000000; stroke-linecap:butt; stroke-linejoin:round; stroke-width:4; stroke-opacity:1; fill:none" points="
  754.84,1410.9 754.84,1392 
  "/>
<polyline clip-path="url(#clip810)" style="stroke:#000000; stroke-linecap:butt; stroke-linejoin:round; stroke-width:4; stroke-opacity:1; fill:none" points="
  1524.67,1410.9 1524.67,1392 
  "/>
<polyline clip-path="url(#clip810)" style="stroke:#000000; stroke-linecap:butt; stroke-linejoin:round; stroke-width:4; stroke-opacity:1; fill:none" points="
  2294.49,1410.9 2294.49,1392 
  "/>
<path clip-path="url(#clip810)" d="M721.168 1485.02 L728.807 1485.02 L728.807 1458.66 L720.497 1460.32 L720.497 1456.06 L728.76 1454.4 L733.436 1454.4 L733.436 1485.02 L741.075 1485.02 L741.075 1488.96 L721.168 1488.96 L721.168 1485.02 Z" fill="#000000" fill-rule="evenodd" fill-opacity="1" /><path clip-path="url(#clip810)" d="M760.519 1457.48 Q756.908 1457.48 755.08 1461.04 Q753.274 1464.58 753.274 1471.71 Q753.274 1478.82 755.08 1482.38 Q756.908 1485.92 760.519 1485.92 Q764.154 1485.92 765.959 1482.38 Q767.788 1478.82 767.788 1471.71 Q767.788 1464.58 765.959 1461.04 Q764.154 1457.48 760.519 1457.48 M760.519 1453.77 Q766.33 1453.77 769.385 1458.38 Q772.464 1462.96 772.464 1471.71 Q772.464 1480.44 769.385 1485.04 Q766.33 1489.63 760.519 1489.63 Q754.709 1489.63 751.631 1485.04 Q748.575 1480.44 748.575 1471.71 Q748.575 1462.96 751.631 1458.38 Q754.709 1453.77 760.519 1453.77 Z" fill="#000000" fill-rule="evenodd" fill-opacity="1" /><path clip-path="url(#clip810)" d="M773.009 1458.35 L779.216 1458.35 L779.216 1436.93 L772.464 1438.28 L772.464 1434.82 L779.178 1433.47 L782.977 1433.47 L782.977 1458.35 L789.184 1458.35 L789.184 1461.55 L773.009 1461.55 L773.009 1458.35 Z" fill="#000000" fill-rule="evenodd" fill-opacity="1" /><path clip-path="url(#clip810)" d="M1490.44 1485.02 L1498.08 1485.02 L1498.08 1458.66 L1489.77 1460.32 L1489.77 1456.06 L1498.03 1454.4 L1502.71 1454.4 L1502.71 1485.02 L1510.35 1485.02 L1510.35 1488.96 L1490.44 1488.96 L1490.44 1485.02 Z" fill="#000000" fill-rule="evenodd" fill-opacity="1" /><path clip-path="url(#clip810)" d="M1529.79 1457.48 Q1526.18 1457.48 1524.35 1461.04 Q1522.54 1464.58 1522.54 1471.71 Q1522.54 1478.82 1524.35 1482.38 Q1526.18 1485.92 1529.79 1485.92 Q1533.42 1485.92 1535.23 1482.38 Q1537.06 1478.82 1537.06 1471.71 Q1537.06 1464.58 1535.23 1461.04 Q1533.42 1457.48 1529.79 1457.48 M1529.79 1453.77 Q1535.6 1453.77 1538.66 1458.38 Q1541.73 1462.96 1541.73 1471.71 Q1541.73 1480.44 1538.66 1485.04 Q1535.6 1489.63 1529.79 1489.63 Q1523.98 1489.63 1520.9 1485.04 Q1517.85 1480.44 1517.85 1471.71 Q1517.85 1462.96 1520.9 1458.38 Q1523.98 1453.77 1529.79 1453.77 Z" fill="#000000" fill-rule="evenodd" fill-opacity="1" /><path clip-path="url(#clip810)" d="M1546.3 1458.35 L1559.56 1458.35 L1559.56 1461.55 L1541.73 1461.55 L1541.73 1458.35 Q1543.9 1456.11 1547.62 1452.35 Q1551.36 1448.57 1552.32 1447.48 Q1554.15 1445.43 1554.86 1444.02 Q1555.6 1442.59 1555.6 1441.22 Q1555.6 1438.98 1554.02 1437.57 Q1552.45 1436.16 1549.93 1436.16 Q1548.15 1436.16 1546.15 1436.78 Q1544.18 1437.4 1541.92 1438.66 L1541.92 1434.82 Q1544.22 1433.9 1546.21 1433.43 Q1548.2 1432.96 1549.86 1432.96 Q1554.22 1432.96 1556.82 1435.14 Q1559.41 1437.32 1559.41 1440.97 Q1559.41 1442.7 1558.76 1444.26 Q1558.12 1445.8 1556.4 1447.91 Q1555.93 1448.46 1553.41 1451.07 Q1550.89 1453.67 1546.3 1458.35 Z" fill="#000000" fill-rule="evenodd" fill-opacity="1" /><path clip-path="url(#clip810)" d="M2259.93 1485.02 L2267.57 1485.02 L2267.57 1458.66 L2259.26 1460.32 L2259.26 1456.06 L2267.53 1454.4 L2272.2 1454.4 L2272.2 1485.02 L2279.84 1485.02 L2279.84 1488.96 L2259.93 1488.96 L2259.93 1485.02 Z" fill="#000000" fill-rule="evenodd" fill-opacity="1" /><path clip-path="url(#clip810)" d="M2299.29 1457.48 Q2295.67 1457.48 2293.85 1461.04 Q2292.04 1464.58 2292.04 1471.71 Q2292.04 1478.82 2293.85 1482.38 Q2295.67 1485.92 2299.29 1485.92 Q2302.92 1485.92 2304.73 1482.38 Q2306.55 1478.82 2306.55 1471.71 Q2306.55 1464.58 2304.73 1461.04 Q2302.92 1457.48 2299.29 1457.48 M2299.29 1453.77 Q2305.1 1453.77 2308.15 1458.38 Q2311.23 1462.96 2311.23 1471.71 Q2311.23 1480.44 2308.15 1485.04 Q2305.1 1489.63 2299.29 1489.63 Q2293.48 1489.63 2290.4 1485.04 Q2287.34 1480.44 2287.34 1471.71 Q2287.34 1462.96 2290.4 1458.38 Q2293.48 1453.77 2299.29 1453.77 Z" fill="#000000" fill-rule="evenodd" fill-opacity="1" /><path clip-path="url(#clip810)" d="M2323.93 1446.41 Q2326.65 1446.99 2328.18 1448.83 Q2329.72 1450.68 2329.72 1453.38 Q2329.72 1457.54 2326.86 1459.82 Q2324 1462.09 2318.73 1462.09 Q2316.97 1462.09 2315.09 1461.73 Q2313.22 1461.4 2311.23 1460.7 L2311.23 1457.03 Q2312.81 1457.95 2314.69 1458.42 Q2316.57 1458.89 2318.62 1458.89 Q2322.2 1458.89 2324.06 1457.48 Q2325.94 1456.07 2325.94 1453.38 Q2325.94 1450.9 2324.19 1449.51 Q2322.46 1448.1 2319.36 1448.1 L2316.08 1448.1 L2316.08 1444.98 L2319.51 1444.98 Q2322.31 1444.98 2323.79 1443.87 Q2325.28 1442.74 2325.28 1440.63 Q2325.28 1438.47 2323.74 1437.32 Q2322.21 1436.16 2319.36 1436.16 Q2317.79 1436.16 2316.01 1436.49 Q2314.22 1436.83 2312.08 1437.55 L2312.08 1434.16 Q2314.24 1433.56 2316.12 1433.26 Q2318.02 1432.96 2319.69 1432.96 Q2324.02 1432.96 2326.54 1434.93 Q2329.06 1436.89 2329.06 1440.24 Q2329.06 1442.57 2327.72 1444.19 Q2326.39 1445.79 2323.93 1446.41 Z" fill="#000000" fill-rule="evenodd" fill-opacity="1" /><path clip-path="url(#clip810)" d="M1124.98 1545.51 L1115.72 1545.51 L1113.05 1556.14 L1122.37 1556.14 L1124.98 1545.51 M1120.21 1527.4 L1116.9 1540.61 L1126.19 1540.61 L1129.54 1527.4 L1134.63 1527.4 L1131.35 1540.61 L1141.28 1540.61 L1141.28 1545.51 L1130.11 1545.51 L1127.5 1556.14 L1137.62 1556.14 L1137.62 1561.01 L1126.26 1561.01 L1122.95 1574.19 L1117.85 1574.19 L1121.13 1561.01 L1111.81 1561.01 L1108.53 1574.19 L1103.4 1574.19 L1106.71 1561.01 L1096.69 1561.01 L1096.69 1556.14 L1107.89 1556.14 L1110.57 1545.51 L1100.32 1545.51 L1100.32 1540.61 L1111.81 1540.61 L1115.05 1527.4 L1120.21 1527.4 Z" fill="#000000" fill-rule="evenodd" fill-opacity="1" /><path clip-path="url(#clip810)" d="M1186.95 1542.64 Q1182.24 1542.64 1179.51 1546.34 Q1176.77 1550 1176.77 1556.39 Q1176.77 1562.79 1179.47 1566.48 Q1182.21 1570.14 1186.95 1570.14 Q1191.63 1570.14 1194.37 1566.45 Q1197.11 1562.76 1197.11 1556.39 Q1197.11 1550.06 1194.37 1546.37 Q1191.63 1542.64 1186.95 1542.64 M1186.95 1537.68 Q1194.59 1537.68 1198.95 1542.64 Q1203.31 1547.61 1203.31 1556.39 Q1203.31 1565.15 1198.95 1570.14 Q1194.59 1575.11 1186.95 1575.11 Q1179.28 1575.11 1174.92 1570.14 Q1170.59 1565.15 1170.59 1556.39 Q1170.59 1547.61 1174.92 1542.64 Q1179.28 1537.68 1186.95 1537.68 Z" fill="#000000" fill-rule="evenodd" fill-opacity="1" /><path clip-path="url(#clip810)" d="M1231.07 1524.66 L1231.07 1529.53 L1225.47 1529.53 Q1222.32 1529.53 1221.07 1530.8 Q1219.86 1532.08 1219.86 1535.39 L1219.86 1538.54 L1229.51 1538.54 L1229.51 1543.09 L1219.86 1543.09 L1219.86 1574.19 L1213.98 1574.19 L1213.98 1543.09 L1208.37 1543.09 L1208.37 1538.54 L1213.98 1538.54 L1213.98 1536.05 Q1213.98 1530.1 1216.75 1527.4 Q1219.51 1524.66 1225.53 1524.66 L1231.07 1524.66 Z" fill="#000000" fill-rule="evenodd" fill-opacity="1" /><path clip-path="url(#clip810)" d="M1287.18 1554.9 L1287.18 1557.76 L1260.26 1557.76 Q1260.64 1563.81 1263.88 1566.99 Q1267.16 1570.14 1272.99 1570.14 Q1276.36 1570.14 1279.51 1569.32 Q1282.69 1568.49 1285.81 1566.83 L1285.81 1572.37 Q1282.66 1573.71 1279.35 1574.41 Q1276.04 1575.11 1272.64 1575.11 Q1264.11 1575.11 1259.11 1570.14 Q1254.14 1565.18 1254.14 1556.71 Q1254.14 1547.96 1258.85 1542.83 Q1263.6 1537.68 1271.62 1537.68 Q1278.81 1537.68 1282.98 1542.33 Q1287.18 1546.94 1287.18 1554.9 M1281.33 1553.18 Q1281.26 1548.37 1278.62 1545.51 Q1276.01 1542.64 1271.68 1542.64 Q1266.78 1542.64 1263.82 1545.41 Q1260.89 1548.18 1260.45 1553.21 L1281.33 1553.18 Z" fill="#000000" fill-rule="evenodd" fill-opacity="1" /><path clip-path="url(#clip810)" d="M1296.79 1524.66 L1302.65 1524.66 L1302.65 1574.19 L1296.79 1574.19 L1296.79 1524.66 Z" fill="#000000" fill-rule="evenodd" fill-opacity="1" /><path clip-path="url(#clip810)" d="M1345.4 1554.9 L1345.4 1557.76 L1318.47 1557.76 Q1318.85 1563.81 1322.1 1566.99 Q1325.38 1570.14 1331.2 1570.14 Q1334.57 1570.14 1337.73 1569.32 Q1340.91 1568.49 1344.03 1566.83 L1344.03 1572.37 Q1340.88 1573.71 1337.57 1574.41 Q1334.26 1575.11 1330.85 1575.11 Q1322.32 1575.11 1317.32 1570.14 Q1312.36 1565.18 1312.36 1556.71 Q1312.36 1547.96 1317.07 1542.83 Q1321.81 1537.68 1329.83 1537.68 Q1337.03 1537.68 1341.19 1542.33 Q1345.4 1546.94 1345.4 1554.9 M1339.54 1553.18 Q1339.48 1548.37 1336.83 1545.51 Q1334.22 1542.64 1329.9 1542.64 Q1324.99 1542.64 1322.03 1545.41 Q1319.11 1548.18 1318.66 1553.21 L1339.54 1553.18 Z" fill="#000000" fill-rule="evenodd" fill-opacity="1" /><path clip-path="url(#clip810)" d="M1382.76 1545.38 Q1384.96 1541.43 1388.01 1539.56 Q1391.07 1537.68 1395.21 1537.68 Q1400.78 1537.68 1403.8 1541.59 Q1406.83 1545.48 1406.83 1552.67 L1406.83 1574.19 L1400.94 1574.19 L1400.94 1552.86 Q1400.94 1547.74 1399.12 1545.25 Q1397.31 1542.77 1393.58 1542.77 Q1389.03 1542.77 1386.39 1545.79 Q1383.75 1548.82 1383.75 1554.04 L1383.75 1574.19 L1377.86 1574.19 L1377.86 1552.86 Q1377.86 1547.7 1376.05 1545.25 Q1374.23 1542.77 1370.45 1542.77 Q1365.96 1542.77 1363.32 1545.83 Q1360.67 1548.85 1360.67 1554.04 L1360.67 1574.19 L1354.79 1574.19 L1354.79 1538.54 L1360.67 1538.54 L1360.67 1544.08 Q1362.68 1540.8 1365.48 1539.24 Q1368.28 1537.68 1372.13 1537.68 Q1376.02 1537.68 1378.72 1539.65 Q1381.46 1541.62 1382.76 1545.38 Z" fill="#000000" fill-rule="evenodd" fill-opacity="1" /><path clip-path="url(#clip810)" d="M1449 1554.9 L1449 1557.76 L1422.07 1557.76 Q1422.45 1563.81 1425.7 1566.99 Q1428.98 1570.14 1434.8 1570.14 Q1438.18 1570.14 1441.33 1569.32 Q1444.51 1568.49 1447.63 1566.83 L1447.63 1572.37 Q1444.48 1573.71 1441.17 1574.41 Q1437.86 1575.11 1434.45 1575.11 Q1425.92 1575.11 1420.93 1570.14 Q1415.96 1565.18 1415.96 1556.71 Q1415.96 1547.96 1420.67 1542.83 Q1425.41 1537.68 1433.43 1537.68 Q1440.63 1537.68 1444.8 1542.33 Q1449 1546.94 1449 1554.9 M1443.14 1553.18 Q1443.08 1548.37 1440.44 1545.51 Q1437.83 1542.64 1433.5 1542.64 Q1428.6 1542.64 1425.64 1545.41 Q1422.71 1548.18 1422.26 1553.21 L1443.14 1553.18 Z" fill="#000000" fill-rule="evenodd" fill-opacity="1" /><path clip-path="url(#clip810)" d="M1488.24 1552.67 L1488.24 1574.19 L1482.39 1574.19 L1482.39 1552.86 Q1482.39 1547.8 1480.41 1545.29 Q1478.44 1542.77 1474.49 1542.77 Q1469.75 1542.77 1467.01 1545.79 Q1464.28 1548.82 1464.28 1554.04 L1464.28 1574.19 L1458.39 1574.19 L1458.39 1538.54 L1464.28 1538.54 L1464.28 1544.08 Q1466.38 1540.86 1469.21 1539.27 Q1472.07 1537.68 1475.8 1537.68 Q1481.94 1537.68 1485.09 1541.5 Q1488.24 1545.29 1488.24 1552.67 Z" fill="#000000" fill-rule="evenodd" fill-opacity="1" /><path clip-path="url(#clip810)" d="M1505.72 1528.42 L1505.72 1538.54 L1517.78 1538.54 L1517.78 1543.09 L1505.72 1543.09 L1505.72 1562.44 Q1505.72 1566.8 1506.89 1568.04 Q1508.1 1569.28 1511.76 1569.28 L1517.78 1569.28 L1517.78 1574.19 L1511.76 1574.19 Q1504.98 1574.19 1502.41 1571.67 Q1499.83 1569.12 1499.83 1562.44 L1499.83 1543.09 L1495.53 1543.09 L1495.53 1538.54 L1499.83 1538.54 L1499.83 1528.42 L1505.72 1528.42 Z" fill="#000000" fill-rule="evenodd" fill-opacity="1" /><path clip-path="url(#clip810)" d="M1548.21 1539.59 L1548.21 1545.13 Q1545.73 1543.85 1543.05 1543.22 Q1540.38 1542.58 1537.51 1542.58 Q1533.15 1542.58 1530.96 1543.92 Q1528.79 1545.25 1528.79 1547.93 Q1528.79 1549.96 1530.35 1551.14 Q1531.91 1552.29 1536.62 1553.34 L1538.63 1553.78 Q1544.87 1555.12 1547.48 1557.57 Q1550.12 1559.99 1550.12 1564.35 Q1550.12 1569.32 1546.17 1572.21 Q1542.26 1575.11 1535.38 1575.11 Q1532.52 1575.11 1529.4 1574.54 Q1526.31 1573.99 1522.87 1572.88 L1522.87 1566.83 Q1526.12 1568.52 1529.27 1569.38 Q1532.42 1570.21 1535.51 1570.21 Q1539.65 1570.21 1541.87 1568.81 Q1544.1 1567.37 1544.1 1564.8 Q1544.1 1562.41 1542.48 1561.14 Q1540.89 1559.86 1535.44 1558.68 L1533.41 1558.21 Q1527.96 1557.06 1525.55 1554.71 Q1523.13 1552.32 1523.13 1548.18 Q1523.13 1543.15 1526.69 1540.42 Q1530.26 1537.68 1536.81 1537.68 Q1540.06 1537.68 1542.92 1538.16 Q1545.79 1538.63 1548.21 1539.59 Z" fill="#000000" fill-rule="evenodd" fill-opacity="1" /><polyline clip-path="url(#clip812)" style="stroke:#000000; stroke-linecap:butt; stroke-linejoin:round; stroke-width:2; stroke-opacity:0.1; fill:none" points="
  294.05,1126.27 2352.76,1126.27 
  "/>
<polyline clip-path="url(#clip812)" style="stroke:#000000; stroke-linecap:butt; stroke-linejoin:round; stroke-width:2; stroke-opacity:0.1; fill:none" points="
  294.05,839.432 2352.76,839.432 
  "/>
<polyline clip-path="url(#clip812)" style="stroke:#000000; stroke-linecap:butt; stroke-linejoin:round; stroke-width:2; stroke-opacity:0.1; fill:none" points="
  294.05,552.591 2352.76,552.591 
  "/>
<polyline clip-path="url(#clip812)" style="stroke:#000000; stroke-linecap:butt; stroke-linejoin:round; stroke-width:2; stroke-opacity:0.1; fill:none" points="
  294.05,265.75 2352.76,265.75 
  "/>
<polyline clip-path="url(#clip810)" style="stroke:#000000; stroke-linecap:butt; stroke-linejoin:round; stroke-width:4; stroke-opacity:1; fill:none" points="
  294.05,1410.9 294.05,123.472 
  "/>
<polyline clip-path="url(#clip810)" style="stroke:#000000; stroke-linecap:butt; stroke-linejoin:round; stroke-width:4; stroke-opacity:1; fill:none" points="
  294.05,1126.27 312.947,1126.27 
  "/>
<polyline clip-path="url(#clip810)" style="stroke:#000000; stroke-linecap:butt; stroke-linejoin:round; stroke-width:4; stroke-opacity:1; fill:none" points="
  294.05,839.432 312.947,839.432 
  "/>
<polyline clip-path="url(#clip810)" style="stroke:#000000; stroke-linecap:butt; stroke-linejoin:round; stroke-width:4; stroke-opacity:1; fill:none" points="
  294.05,552.591 312.947,552.591 
  "/>
<polyline clip-path="url(#clip810)" style="stroke:#000000; stroke-linecap:butt; stroke-linejoin:round; stroke-width:4; stroke-opacity:1; fill:none" points="
  294.05,265.75 312.947,265.75 
  "/>
<path clip-path="url(#clip810)" d="M120.388 1146.07 L128.027 1146.07 L128.027 1119.7 L119.717 1121.37 L119.717 1117.11 L127.981 1115.44 L132.657 1115.44 L132.657 1146.07 L140.296 1146.07 L140.296 1150 L120.388 1150 L120.388 1146.07 Z" fill="#000000" fill-rule="evenodd" fill-opacity="1" /><path clip-path="url(#clip810)" d="M159.74 1118.52 Q156.129 1118.52 154.3 1122.08 Q152.495 1125.63 152.495 1132.76 Q152.495 1139.86 154.3 1143.43 Q156.129 1146.97 159.74 1146.97 Q163.374 1146.97 165.18 1143.43 Q167.009 1139.86 167.009 1132.76 Q167.009 1125.63 165.18 1122.08 Q163.374 1118.52 159.74 1118.52 M159.74 1114.82 Q165.55 1114.82 168.606 1119.42 Q171.684 1124.01 171.684 1132.76 Q171.684 1141.48 168.606 1146.09 Q165.55 1150.67 159.74 1150.67 Q153.93 1150.67 150.851 1146.09 Q147.796 1141.48 147.796 1132.76 Q147.796 1124.01 150.851 1119.42 Q153.93 1114.82 159.74 1114.82 Z" fill="#000000" fill-rule="evenodd" fill-opacity="1" /><path clip-path="url(#clip810)" d="M171.684 1108.92 L195.796 1108.92 L195.796 1112.11 L171.684 1112.11 L171.684 1108.92 Z" fill="#000000" fill-rule="evenodd" fill-opacity="1" /><path clip-path="url(#clip810)" d="M215.507 1107.45 Q218.234 1108.03 219.757 1109.88 Q221.299 1111.72 221.299 1114.43 Q221.299 1118.58 218.441 1120.86 Q215.582 1123.14 210.316 1123.14 Q208.548 1123.14 206.667 1122.78 Q204.805 1122.44 202.811 1121.74 L202.811 1118.08 Q204.391 1119 206.272 1119.47 Q208.153 1119.94 210.203 1119.94 Q213.776 1119.94 215.638 1118.53 Q217.519 1117.12 217.519 1114.43 Q217.519 1111.94 215.77 1110.55 Q214.04 1109.14 210.936 1109.14 L207.664 1109.14 L207.664 1106.02 L211.087 1106.02 Q213.889 1106.02 215.375 1104.91 Q216.861 1103.78 216.861 1101.68 Q216.861 1099.51 215.318 1098.37 Q213.795 1097.2 210.936 1097.2 Q209.375 1097.2 207.589 1097.54 Q205.802 1097.88 203.658 1098.59 L203.658 1095.21 Q205.821 1094.6 207.701 1094.3 Q209.601 1094 211.275 1094 Q215.601 1094 218.121 1095.98 Q220.641 1097.93 220.641 1101.28 Q220.641 1103.61 219.306 1105.23 Q217.97 1106.83 215.507 1107.45 Z" fill="#000000" fill-rule="evenodd" fill-opacity="1" /><path clip-path="url(#clip810)" d="M228.503 1117.81 L232.471 1117.81 L232.471 1122.59 L228.503 1122.59 L228.503 1117.81 Z" fill="#000000" fill-rule="evenodd" fill-opacity="1" /><path clip-path="url(#clip810)" d="M252.257 1107.45 Q254.984 1108.03 256.508 1109.88 Q258.05 1111.72 258.05 1114.43 Q258.05 1118.58 255.191 1120.86 Q252.332 1123.14 247.066 1123.14 Q245.298 1123.14 243.417 1122.78 Q241.555 1122.44 239.562 1121.74 L239.562 1118.08 Q241.142 1119 243.022 1119.47 Q244.903 1119.94 246.953 1119.94 Q250.527 1119.94 252.389 1118.53 Q254.269 1117.12 254.269 1114.43 Q254.269 1111.94 252.52 1110.55 Q250.79 1109.14 247.687 1109.14 L244.414 1109.14 L244.414 1106.02 L247.837 1106.02 Q250.639 1106.02 252.125 1104.91 Q253.611 1103.78 253.611 1101.68 Q253.611 1099.51 252.069 1098.37 Q250.545 1097.2 247.687 1097.2 Q246.126 1097.2 244.339 1097.54 Q242.552 1097.88 240.408 1098.59 L240.408 1095.21 Q242.571 1094.6 244.452 1094.3 Q246.351 1094 248.025 1094 Q252.351 1094 254.871 1095.98 Q257.391 1097.93 257.391 1101.28 Q257.391 1103.61 256.056 1105.23 Q254.721 1106.83 252.257 1107.45 Z" fill="#000000" fill-rule="evenodd" fill-opacity="1" /><path clip-path="url(#clip810)" d="M119.862 859.224 L127.501 859.224 L127.501 832.859 L119.191 834.525 L119.191 830.266 L127.454 828.599 L132.13 828.599 L132.13 859.224 L139.769 859.224 L139.769 863.159 L119.862 863.159 L119.862 859.224 Z" fill="#000000" fill-rule="evenodd" fill-opacity="1" /><path clip-path="url(#clip810)" d="M159.213 831.678 Q155.602 831.678 153.774 835.243 Q151.968 838.785 151.968 845.914 Q151.968 853.021 153.774 856.585 Q155.602 860.127 159.213 860.127 Q162.848 860.127 164.653 856.585 Q166.482 853.021 166.482 845.914 Q166.482 838.785 164.653 835.243 Q162.848 831.678 159.213 831.678 M159.213 827.974 Q165.024 827.974 168.079 832.581 Q171.158 837.164 171.158 845.914 Q171.158 854.641 168.079 859.247 Q165.024 863.831 159.213 863.831 Q153.403 863.831 150.325 859.247 Q147.269 854.641 147.269 845.914 Q147.269 837.164 150.325 832.581 Q153.403 827.974 159.213 827.974 Z" fill="#000000" fill-rule="evenodd" fill-opacity="1" /><path clip-path="url(#clip810)" d="M171.158 822.076 L195.269 822.076 L195.269 825.273 L171.158 825.273 L171.158 822.076 Z" fill="#000000" fill-rule="evenodd" fill-opacity="1" /><path clip-path="url(#clip810)" d="M214.98 820.609 Q217.707 821.192 219.231 823.035 Q220.773 824.878 220.773 827.586 Q220.773 831.743 217.914 834.019 Q215.055 836.294 209.789 836.294 Q208.021 836.294 206.14 835.937 Q204.278 835.599 202.285 834.903 L202.285 831.235 Q203.865 832.157 205.745 832.627 Q207.626 833.097 209.676 833.097 Q213.25 833.097 215.112 831.687 Q216.992 830.276 216.992 827.586 Q216.992 825.104 215.243 823.712 Q213.513 822.301 210.41 822.301 L207.137 822.301 L207.137 819.179 L210.56 819.179 Q213.362 819.179 214.848 818.07 Q216.334 816.941 216.334 814.835 Q216.334 812.672 214.792 811.525 Q213.268 810.358 210.41 810.358 Q208.849 810.358 207.062 810.697 Q205.275 811.036 203.131 811.75 L203.131 808.365 Q205.294 807.763 207.175 807.462 Q209.074 807.161 210.748 807.161 Q215.074 807.161 217.594 809.136 Q220.114 811.092 220.114 814.44 Q220.114 816.772 218.779 818.389 Q217.444 819.988 214.98 820.609 Z" fill="#000000" fill-rule="evenodd" fill-opacity="1" /><path clip-path="url(#clip810)" d="M227.976 830.972 L231.945 830.972 L231.945 835.749 L227.976 835.749 L227.976 830.972 Z" fill="#000000" fill-rule="evenodd" fill-opacity="1" /><path clip-path="url(#clip810)" d="M248.345 810.17 Q245.411 810.17 243.925 813.067 Q242.458 815.944 242.458 821.737 Q242.458 827.511 243.925 830.408 Q245.411 833.285 248.345 833.285 Q251.298 833.285 252.765 830.408 Q254.251 827.511 254.251 821.737 Q254.251 815.944 252.765 813.067 Q251.298 810.17 248.345 810.17 M248.345 807.161 Q253.066 807.161 255.548 810.904 Q258.05 814.628 258.05 821.737 Q258.05 828.828 255.548 832.57 Q253.066 836.294 248.345 836.294 Q243.624 836.294 241.123 832.57 Q238.64 828.828 238.64 821.737 Q238.64 814.628 241.123 810.904 Q243.624 807.161 248.345 807.161 Z" fill="#000000" fill-rule="evenodd" fill-opacity="1" /><path clip-path="url(#clip810)" d="M120.595 572.383 L128.234 572.383 L128.234 546.018 L119.924 547.684 L119.924 543.425 L128.188 541.758 L132.864 541.758 L132.864 572.383 L140.503 572.383 L140.503 576.318 L120.595 576.318 L120.595 572.383 Z" fill="#000000" fill-rule="evenodd" fill-opacity="1" /><path clip-path="url(#clip810)" d="M159.947 544.837 Q156.336 544.837 154.507 548.402 Q152.702 551.944 152.702 559.073 Q152.702 566.18 154.507 569.744 Q156.336 573.286 159.947 573.286 Q163.581 573.286 165.387 569.744 Q167.215 566.18 167.215 559.073 Q167.215 551.944 165.387 548.402 Q163.581 544.837 159.947 544.837 M159.947 541.133 Q165.757 541.133 168.813 545.74 Q171.891 550.323 171.891 559.073 Q171.891 567.8 168.813 572.406 Q165.757 576.99 159.947 576.99 Q154.137 576.99 151.058 572.406 Q148.003 567.8 148.003 559.073 Q148.003 550.323 151.058 545.74 Q154.137 541.133 159.947 541.133 Z" fill="#000000" fill-rule="evenodd" fill-opacity="1" /><path clip-path="url(#clip810)" d="M171.891 535.235 L196.003 535.235 L196.003 538.432 L171.891 538.432 L171.891 535.235 Z" fill="#000000" fill-rule="evenodd" fill-opacity="1" /><path clip-path="url(#clip810)" d="M207.476 545.711 L220.735 545.711 L220.735 548.908 L202.905 548.908 L202.905 545.711 Q205.068 543.473 208.792 539.711 Q212.535 535.931 213.494 534.84 Q215.318 532.79 216.033 531.379 Q216.767 529.95 216.767 528.577 Q216.767 526.339 215.187 524.928 Q213.626 523.518 211.106 523.518 Q209.319 523.518 207.325 524.138 Q205.35 524.759 203.093 526.019 L203.093 522.182 Q205.388 521.261 207.382 520.79 Q209.375 520.32 211.03 520.32 Q215.394 520.32 217.989 522.502 Q220.585 524.684 220.585 528.332 Q220.585 530.063 219.926 531.624 Q219.287 533.166 217.575 535.272 Q217.105 535.818 214.585 538.432 Q212.065 541.028 207.476 545.711 Z" fill="#000000" fill-rule="evenodd" fill-opacity="1" /><path clip-path="url(#clip810)" d="M228.71 544.131 L232.678 544.131 L232.678 548.908 L228.71 548.908 L228.71 544.131 Z" fill="#000000" fill-rule="evenodd" fill-opacity="1" /><path clip-path="url(#clip810)" d="M239.994 520.828 L258.05 520.828 L258.05 522.445 L247.856 548.908 L243.887 548.908 L253.479 524.025 L239.994 524.025 L239.994 520.828 Z" fill="#000000" fill-rule="evenodd" fill-opacity="1" /><path clip-path="url(#clip810)" d="M119.467 285.542 L127.106 285.542 L127.106 259.177 L118.796 260.843 L118.796 256.584 L127.059 254.917 L131.735 254.917 L131.735 285.542 L139.374 285.542 L139.374 289.477 L119.467 289.477 L119.467 285.542 Z" fill="#000000" fill-rule="evenodd" fill-opacity="1" /><path clip-path="url(#clip810)" d="M158.819 257.996 Q155.207 257.996 153.379 261.561 Q151.573 265.103 151.573 272.232 Q151.573 279.339 153.379 282.903 Q155.207 286.445 158.819 286.445 Q162.453 286.445 164.258 282.903 Q166.087 279.339 166.087 272.232 Q166.087 265.103 164.258 261.561 Q162.453 257.996 158.819 257.996 M158.819 254.292 Q164.629 254.292 167.684 258.899 Q170.763 263.482 170.763 272.232 Q170.763 280.959 167.684 285.565 Q164.629 290.149 158.819 290.149 Q153.008 290.149 149.93 285.565 Q146.874 280.959 146.874 272.232 Q146.874 263.482 149.93 258.899 Q153.008 254.292 158.819 254.292 Z" fill="#000000" fill-rule="evenodd" fill-opacity="1" /><path clip-path="url(#clip810)" d="M170.763 248.394 L194.874 248.394 L194.874 251.591 L170.763 251.591 L170.763 248.394 Z" fill="#000000" fill-rule="evenodd" fill-opacity="1" /><path clip-path="url(#clip810)" d="M206.347 258.87 L219.607 258.87 L219.607 262.067 L201.777 262.067 L201.777 258.87 Q203.94 256.632 207.664 252.87 Q211.406 249.09 212.366 247.999 Q214.19 245.949 214.905 244.538 Q215.638 243.109 215.638 241.736 Q215.638 239.498 214.058 238.087 Q212.497 236.677 209.977 236.677 Q208.19 236.677 206.197 237.297 Q204.222 237.918 201.965 239.178 L201.965 235.341 Q204.26 234.42 206.253 233.949 Q208.247 233.479 209.902 233.479 Q214.265 233.479 216.861 235.661 Q219.456 237.843 219.456 241.491 Q219.456 243.222 218.798 244.783 Q218.158 246.325 216.447 248.431 Q215.977 248.977 213.457 251.591 Q210.936 254.187 206.347 258.87 Z" fill="#000000" fill-rule="evenodd" fill-opacity="1" /><path clip-path="url(#clip810)" d="M227.581 257.29 L231.55 257.29 L231.55 262.067 L227.581 262.067 L227.581 257.29 Z" fill="#000000" fill-rule="evenodd" fill-opacity="1" /><path clip-path="url(#clip810)" d="M250.263 237.297 L240.671 252.287 L250.263 252.287 L250.263 237.297 M249.267 233.987 L254.044 233.987 L254.044 252.287 L258.05 252.287 L258.05 255.447 L254.044 255.447 L254.044 262.067 L250.263 262.067 L250.263 255.447 L237.587 255.447 L237.587 251.779 L249.267 233.987 Z" fill="#000000" fill-rule="evenodd" fill-opacity="1" /><path clip-path="url(#clip810)" d="M77.6144 1107 L16.1978 1107 Q13.7502 1107 13.7502 1105.68 Q13.7502 1104.36 15.7147 1104.36 L77.1313 1104.36 Q79.5789 1104.36 79.5789 1105.68 Q79.5789 1107 77.6144 1107 Z" fill="#000000" fill-rule="evenodd" fill-opacity="1" /><path clip-path="url(#clip810)" d="M77.6144 1089.27 L16.1978 1089.27 Q13.7502 1089.27 13.7502 1087.95 Q13.7502 1086.63 15.7147 1086.63 L77.1313 1086.63 Q79.5789 1086.63 79.5789 1087.95 Q79.5789 1089.27 77.6144 1089.27 Z" fill="#000000" fill-rule="evenodd" fill-opacity="1" /><path clip-path="url(#clip810)" d="M38.6131 1018.38 Q41.0929 1018.38 46.5679 1019.73 Q52.0429 1021.08 55.7788 1022.73 Q63.8947 1026.24 63.8947 1032.29 Q63.8947 1033.03 63.8303 1033.77 Q63.7659 1034.48 63.476 1035.54 Q63.1862 1036.61 62.7353 1037.48 Q62.2522 1038.35 61.3504 1039.22 Q60.4487 1040.05 59.257 1040.54 Q63.8947 1043.21 63.8947 1047.4 Q63.8947 1051.45 61.8335 1054.13 Q59.7723 1056.77 55.5534 1056.77 Q53.6532 1056.77 50.8513 1055.99 Q48.0494 1055.22 42.2523 1053.06 Q39.2572 1051.87 37.6147 1051.87 Q36.874 1051.87 36.3909 1052.03 Q35.9078 1052.19 35.7468 1052.52 Q35.5535 1052.81 35.5213 1053 Q35.4569 1053.19 35.4569 1053.51 Q35.4569 1055.45 37.4215 1057.19 Q39.3538 1058.93 43.6372 1060.18 Q44.4423 1060.44 44.6356 1060.6 Q44.8288 1060.76 44.8288 1061.24 Q44.7966 1062.05 44.1525 1062.05 Q43.8948 1062.05 42.8965 1061.76 Q41.8659 1061.47 40.3522 1060.79 Q38.8063 1060.08 37.4215 1059.12 Q36.0044 1058.15 35.006 1056.64 Q34.0076 1055.09 34.0076 1053.32 Q34.0076 1050.94 35.5857 1049.42 Q37.1638 1047.91 39.4182 1047.91 Q40.0623 1047.91 40.7709 1048.07 Q41.4472 1048.23 41.8981 1048.39 Q42.3168 1048.52 43.6372 1049.04 Q49.2088 1051.16 51.8819 1051.84 Q54.555 1052.48 56.4229 1052.48 Q57.0348 1052.48 57.5179 1052.45 Q58.001 1052.42 58.9994 1052.16 Q59.9978 1051.87 60.6741 1051.36 Q61.3182 1050.84 61.8657 1049.78 Q62.4132 1048.68 62.4132 1047.2 Q62.4132 1043.5 56.8738 1041.12 Q56.5517 1041.18 55.7144 1041.18 Q53.8465 1041.18 51.3344 1040.6 Q50.7547 1040.44 47.051 1039.51 Q43.3151 1038.57 40.0623 1037.77 Q36.7773 1036.93 36.5841 1036.83 Q35.6823 1036.51 35.1993 1035.8 Q34.7162 1035.09 34.7162 1034.38 Q34.7162 1033.58 35.1993 1033.03 Q35.6823 1032.48 36.5197 1032.48 Q36.6807 1032.48 37.4215 1032.68 Q38.13 1032.84 39.1928 1033.1 Q40.2556 1033.35 40.8031 1033.48 L51.8819 1036.25 Q54.4584 1036.96 56.6806 1036.96 Q59.4825 1036.96 60.964 1035.7 Q62.4132 1034.45 62.4132 1032.1 Q62.4132 1027.69 56.6162 1024.85 Q54.1041 1023.56 50.175 1022.4 Q46.2459 1021.21 44.539 1021.21 Q41.3184 1021.21 38.9351 1023.6 Q38.4843 1024.11 38.13 1024.34 Q37.7435 1024.56 37.1638 1024.56 Q36.0688 1024.56 35.0382 1023.53 Q34.0076 1022.5 34.0076 1021.28 Q34.0076 1020.18 35.1026 1019.28 Q36.1654 1018.38 38.6131 1018.38 Z" fill="#000000" fill-rule="evenodd" fill-opacity="1" /><path clip-path="url(#clip810)" d="M82.9261 1011.76 L81.5059 1011.76 Q81.5059 1009.3 81.2128 1008.74 Q80.8972 1008.17 79.4093 1008.17 L67.0325 1008.17 Q65.3192 1008.17 64.8909 1008.78 Q64.4625 1009.37 64.4625 1011.76 L63.0197 1011.76 L62.5237 1005.27 L67.3707 1005.27 Q62.5237 1003.1 62.5237 998.436 Q62.5237 994.964 64.2371 993.589 Q65.3868 992.574 66.6718 992.371 Q67.9569 992.146 71.2934 992.146 L80.1081 992.146 Q81.0775 992.101 81.303 991.357 Q81.5059 990.613 81.5059 988.539 L82.9261 988.539 Q82.7909 993.251 82.7909 993.724 Q82.7909 994.085 82.9261 998.932 L81.5059 998.932 Q81.5059 996.474 81.2128 995.911 Q80.8972 995.325 79.4093 995.325 L68.6557 995.325 Q66.3111 995.325 64.9359 996.046 Q63.5382 996.768 63.5382 998.751 Q63.5382 1001.14 65.5446 1003.06 Q67.5511 1004.97 70.9327 1004.97 L79.4093 1004.97 Q80.8972 1004.97 81.2128 1004.41 Q81.5059 1003.82 81.5059 1001.39 L82.9261 1001.39 Q82.7909 1006.1 82.7909 1006.55 Q82.7909 1006.91 82.9261 1011.76 Z" fill="#000000" fill-rule="evenodd" fill-opacity="1" /><path clip-path="url(#clip810)" d="M64.4625 986.209 L63.0197 986.209 L62.5237 979.423 L77.8537 979.423 Q78.9584 979.423 79.6122 979.333 Q80.2434 979.243 80.9873 978.882 Q81.7313 978.499 82.0695 977.642 Q82.4076 976.763 82.4076 975.365 Q82.4076 972.863 80.3561 971.33 Q78.3046 969.774 75.2611 969.774 L67.0325 969.774 Q65.3192 969.774 64.8909 970.383 Q64.4625 970.992 64.4625 973.381 L63.0197 973.381 L62.5237 966.596 L78.9133 966.596 Q80.6266 966.596 81.0775 966.009 Q81.5059 965.401 81.5059 962.988 L82.9261 962.988 L83.4447 969.639 L79.274 969.639 Q83.4221 971.578 83.4447 975.591 Q83.4447 977.62 82.9261 979.017 Q82.4076 980.393 81.7764 981.091 Q81.1226 981.79 79.8827 982.173 Q78.6428 982.534 77.8763 982.579 Q77.1098 982.624 75.6218 982.624 L68.7008 982.624 Q65.5672 982.624 65.0261 983.075 Q64.4625 983.526 64.4625 986.209 Z" fill="#000000" fill-rule="evenodd" fill-opacity="1" /><path clip-path="url(#clip810)" d="M82.9261 961.398 L81.5059 961.398 Q81.5059 958.94 81.2128 958.377 Q80.8972 957.813 79.4093 957.813 L67.0325 957.813 Q65.3192 957.813 64.8909 958.422 Q64.4625 959.008 64.4625 961.398 L63.0197 961.398 L62.5237 954.905 L67.3707 954.905 Q62.5237 952.741 62.5237 948.074 Q62.5237 942.663 67.0325 941.919 Q65.2741 941.13 63.8989 939.485 Q62.5237 937.816 62.5237 935.224 Q62.5237 931.752 64.2371 930.377 Q65.3868 929.362 66.6718 929.16 Q67.9569 928.957 71.2934 928.957 L80.1081 928.957 Q81.0775 928.912 81.303 928.168 Q81.5059 927.424 81.5059 925.35 L82.9261 925.35 Q82.7909 930.061 82.7909 930.512 Q82.7909 930.873 82.9261 935.742 L81.5059 935.742 Q81.5059 933.285 81.2128 932.721 Q80.8972 932.135 79.4093 932.135 L68.6557 932.135 Q66.3111 932.135 64.9359 932.857 Q63.5382 933.578 63.5382 935.562 Q63.5382 937.952 65.5446 939.868 Q67.5511 941.784 70.9327 941.784 L79.4093 941.784 Q80.8972 941.784 81.2128 941.221 Q81.5059 940.634 81.5059 938.177 L82.9261 938.177 Q82.7909 942.889 82.7909 943.362 Q82.7909 943.723 82.9261 948.57 L81.5059 948.57 Q81.5059 946.113 81.2128 945.549 Q80.8972 944.963 79.4093 944.963 L68.6557 944.963 Q66.3111 944.963 64.9359 945.684 Q63.5382 946.406 63.5382 948.39 Q63.5382 950.779 65.5446 952.696 Q67.5511 954.612 70.9327 954.612 L79.4093 954.612 Q80.8972 954.612 81.2128 954.048 Q81.5059 953.462 81.5059 951.027 L82.9261 951.027 Q82.7909 955.739 82.7909 956.19 Q82.7909 956.551 82.9261 961.398 Z" fill="#000000" fill-rule="evenodd" fill-opacity="1" /><path clip-path="url(#clip810)" d="M72.7587 922.588 Q68.4077 922.588 65.3192 919.792 Q62.2307 916.997 62.2307 912.984 Q62.2307 908.926 64.8683 906.829 Q67.506 904.71 71.2934 904.71 Q71.9922 904.71 72.1275 904.89 Q72.2628 905.071 72.2628 905.86 L72.2628 918.755 Q76.9745 918.755 79.1838 917.357 Q82.2724 915.419 82.2724 912.15 Q82.2724 911.699 82.1822 911.158 Q82.092 910.617 81.7088 909.512 Q81.303 908.407 80.2434 907.438 Q79.1838 906.469 77.5156 905.905 Q76.8618 905.77 76.8843 905.319 Q76.8843 904.71 77.4254 904.71 Q77.8312 904.71 78.7555 905.161 Q79.6572 905.589 80.7394 906.423 Q81.8215 907.258 82.6331 908.881 Q83.4447 910.481 83.4447 912.42 Q83.4447 916.478 80.3787 919.544 Q77.2901 922.588 72.7587 922.588 M71.2934 918.71 L71.2934 907.754 Q70.324 907.754 69.2419 907.934 Q68.1597 908.092 66.6718 908.588 Q65.1614 909.061 64.2145 910.188 Q63.2677 911.315 63.2677 912.984 Q63.2677 913.728 63.5833 914.539 Q63.8989 915.328 64.6654 916.298 Q65.4319 917.267 67.1678 917.943 Q68.9037 918.62 71.2934 918.71 Z" fill="#000000" fill-rule="evenodd" fill-opacity="1" /><path clip-path="url(#clip810)" d="M82.9261 903.215 L81.5059 903.215 Q81.5059 900.757 81.2128 900.194 Q80.8972 899.607 79.4093 899.607 L67.0325 899.607 Q65.3192 899.607 64.8909 900.216 Q64.4625 900.802 64.4625 903.215 L63.0197 903.215 L62.5237 896.789 L67.5961 896.789 Q65.6123 896.136 64.0793 894.76 Q62.5237 893.363 62.5237 891.108 Q62.5237 889.62 63.3579 888.674 Q64.192 887.704 65.3417 887.704 Q66.3562 887.704 66.8747 888.335 Q67.3707 888.944 67.3707 889.688 Q67.3707 890.522 66.8522 891.108 Q66.3111 891.672 65.3868 891.672 Q64.8232 891.672 64.3949 891.424 Q63.944 891.153 63.7862 890.951 Q63.6284 890.748 63.5833 890.612 Q63.5382 890.703 63.5382 891.108 Q63.5382 893.656 66.0857 895.121 Q68.6106 896.564 72.2177 896.564 L79.3191 896.564 Q80.6492 896.564 81.0775 896.023 Q81.5059 895.459 81.5059 893.047 L81.5059 892.078 L82.9261 892.078 Q82.7909 893.926 82.7909 897.939 Q82.7909 898.503 82.8134 899.382 Q82.836 900.261 82.881 901.411 Q82.9261 902.561 82.9261 903.215 Z" fill="#000000" fill-rule="evenodd" fill-opacity="1" /><path clip-path="url(#clip810)" d="M82.9261 885.934 L81.5059 885.934 Q81.5059 883.477 81.2128 882.914 Q80.8972 882.35 79.4093 882.35 L66.9875 882.35 Q65.2741 882.35 64.8683 882.936 Q64.4625 883.5 64.4625 885.754 L63.0197 885.754 L62.5237 879.307 L79.4543 879.307 Q80.8295 879.307 81.1677 878.811 Q81.5059 878.315 81.5059 876.06 L82.9261 876.06 Q82.7909 880.772 82.7909 880.862 Q82.7909 881.493 82.9261 885.934 M54.4755 883.996 Q53.5512 883.996 52.8072 883.297 Q52.0407 882.575 52.0407 881.561 Q52.0407 880.546 52.7396 879.825 Q53.4159 879.104 54.498 879.104 Q55.5576 879.104 56.2565 879.825 Q56.9328 880.546 56.9328 881.561 Q56.9328 882.62 56.1888 883.319 Q55.4449 883.996 54.4755 883.996 Z" fill="#000000" fill-rule="evenodd" fill-opacity="1" /><path clip-path="url(#clip810)" d="M80.4012 869.05 Q77.3352 871.98 72.9616 871.98 Q68.5655 871.98 65.4094 869.095 Q62.2307 866.209 62.2307 861.971 Q62.2307 859.153 63.5833 857.034 Q64.9134 854.914 67.1904 854.914 Q68.2048 854.914 68.791 855.523 Q69.3546 856.109 69.3546 857.034 Q69.3546 858.003 68.7684 858.589 Q68.1597 859.153 67.2354 859.153 Q66.8296 859.153 66.4239 859.018 Q66.0181 858.882 65.5897 858.386 Q65.1614 857.868 65.0938 856.989 Q63.4029 858.634 63.4029 861.836 Q63.4029 861.881 63.4029 861.926 Q63.4029 864.27 65.6123 866.209 Q67.8216 868.148 72.8715 868.148 Q75.5091 868.148 77.4479 867.517 Q79.3642 866.863 80.3561 865.803 Q81.348 864.744 81.8215 863.707 Q82.2724 862.67 82.2724 861.655 Q82.2724 857.124 77.4254 855.591 Q76.9745 855.456 76.9745 855.005 Q76.9745 854.396 77.4254 854.396 Q77.6508 854.396 78.237 854.576 Q78.8231 854.757 79.7474 855.32 Q80.6717 855.884 81.4833 856.695 Q82.2724 857.485 82.8585 858.905 Q83.4447 860.303 83.4447 862.061 Q83.4447 866.119 80.4012 869.05 Z" fill="#000000" fill-rule="evenodd" fill-opacity="1" /><path clip-path="url(#clip810)" d="M78.53 852.053 Q74.6074 852.053 72.5333 847.431 Q71.2032 844.658 70.865 838.932 L69.1742 838.932 Q66.3111 838.932 64.8007 840.443 Q63.2677 841.931 63.2677 843.824 Q63.2677 847.206 65.3868 848.829 Q65.4319 847.454 66.1308 846.958 Q66.8071 846.462 67.506 846.462 Q68.4303 846.462 69.039 847.048 Q69.6251 847.612 69.6251 848.581 Q69.6251 849.505 69.0615 850.114 Q68.4754 850.723 67.4609 850.723 Q65.2065 850.723 63.7186 848.694 Q62.2307 846.642 62.2307 843.734 Q62.2307 839.947 64.7781 837.422 Q65.5672 836.633 66.5817 836.25 Q67.5961 835.844 68.2725 835.799 Q68.9262 835.754 70.2338 835.754 L79.4543 835.754 Q79.7249 835.754 80.1758 835.663 Q80.6266 835.573 81.2128 835.167 Q81.7764 834.739 81.7764 834.04 Q81.7764 832.372 78.8231 832.394 L76.2305 832.394 L76.2305 831.222 L78.8231 831.222 Q81.2804 831.222 82.2498 832.53 Q83.1967 833.815 83.1967 835.01 Q83.1967 836.543 82.0695 837.512 Q80.9423 838.481 79.4093 838.617 Q81.1677 839.316 82.3174 840.916 Q83.4447 842.494 83.4447 844.658 Q83.4447 846.327 83.0163 847.905 Q82.6105 849.46 81.4608 850.768 Q80.2885 852.053 78.53 852.053 M78.4849 848.491 Q80.1983 848.491 81.303 847.274 Q82.4076 846.056 82.4076 844.343 Q82.4076 842.404 80.9197 840.668 Q79.4093 838.932 76.456 838.932 L71.8344 838.932 Q72.0148 844.05 74.0663 846.282 Q76.0953 848.491 78.4849 848.491 Z" fill="#000000" fill-rule="evenodd" fill-opacity="1" /><path clip-path="url(#clip810)" d="M82.9261 829.373 L81.5059 829.373 Q81.5059 826.916 81.2128 826.352 Q80.8972 825.788 79.4093 825.788 L55.3998 825.788 Q53.6864 825.788 53.2581 826.397 Q52.8298 826.983 52.8298 829.373 L51.3869 829.373 L50.891 822.745 L79.4093 822.745 Q80.8972 822.745 81.2128 822.159 Q81.5059 821.573 81.5059 819.138 L82.9261 819.138 Q82.9261 819.701 82.881 820.874 Q82.836 822.046 82.8134 822.903 Q82.7909 823.759 82.7909 824.255 Q82.7909 824.796 82.9261 829.373 Z" fill="#000000" fill-rule="evenodd" fill-opacity="1" /><path clip-path="url(#clip810)" d="M45.7306 747.827 Q46.117 747.441 46.6645 747.441 Q47.212 747.441 47.5985 747.827 Q47.985 748.214 47.985 748.761 L47.985 790.049 Q47.985 790.597 47.5985 790.983 Q47.212 791.37 46.6645 791.37 Q46.117 791.37 45.7306 790.983 Q45.3441 790.597 45.3441 790.049 L45.3441 748.761 Q45.3441 748.214 45.7306 747.827 Z" fill="#000000" fill-rule="evenodd" fill-opacity="1" /><path clip-path="url(#clip810)" d="M38.6131 678.582 Q41.0929 678.582 46.5679 679.934 Q52.0429 681.287 55.7788 682.93 Q63.8947 686.44 63.8947 692.495 Q63.8947 693.235 63.8303 693.976 Q63.7659 694.685 63.476 695.747 Q63.1862 696.81 62.7353 697.68 Q62.2522 698.549 61.3504 699.419 Q60.4487 700.256 59.257 700.739 Q63.8947 703.412 63.8947 707.599 Q63.8947 711.657 61.8335 714.33 Q59.7723 716.971 55.5534 716.971 Q53.6532 716.971 50.8513 716.198 Q48.0494 715.425 42.2523 713.267 Q39.2572 712.076 37.6147 712.076 Q36.874 712.076 36.3909 712.237 Q35.9078 712.398 35.7468 712.72 Q35.5535 713.01 35.5213 713.203 Q35.4569 713.396 35.4569 713.718 Q35.4569 715.651 37.4215 717.39 Q39.3538 719.129 43.6372 720.385 Q44.4423 720.643 44.6356 720.804 Q44.8288 720.965 44.8288 721.448 Q44.7966 722.253 44.1525 722.253 Q43.8948 722.253 42.8965 721.963 Q41.8659 721.673 40.3522 720.997 Q38.8063 720.288 37.4215 719.322 Q36.0044 718.356 35.006 716.842 Q34.0076 715.296 34.0076 713.525 Q34.0076 711.142 35.5857 709.628 Q37.1638 708.114 39.4182 708.114 Q40.0623 708.114 40.7709 708.276 Q41.4472 708.437 41.8981 708.598 Q42.3168 708.726 43.6372 709.242 Q49.2088 711.367 51.8819 712.044 Q54.555 712.688 56.4229 712.688 Q57.0348 712.688 57.5179 712.656 Q58.001 712.623 58.9994 712.366 Q59.9978 712.076 60.6741 711.561 Q61.3182 711.045 61.8657 709.982 Q62.4132 708.887 62.4132 707.406 Q62.4132 703.702 56.8738 701.319 Q56.5517 701.383 55.7144 701.383 Q53.8465 701.383 51.3344 700.804 Q50.7547 700.643 47.051 699.709 Q43.3151 698.775 40.0623 697.97 Q36.7773 697.132 36.5841 697.036 Q35.6823 696.714 35.1993 696.005 Q34.7162 695.297 34.7162 694.588 Q34.7162 693.783 35.1993 693.235 Q35.6823 692.688 36.5197 692.688 Q36.6807 692.688 37.4215 692.881 Q38.13 693.042 39.1928 693.3 Q40.2556 693.557 40.8031 693.686 L51.8819 696.456 Q54.4584 697.165 56.6806 697.165 Q59.4825 697.165 60.964 695.908 Q62.4132 694.652 62.4132 692.301 Q62.4132 687.889 56.6162 685.055 Q54.1041 683.767 50.175 682.607 Q46.2459 681.416 44.539 681.416 Q41.3184 681.416 38.9351 683.799 Q38.4843 684.314 38.13 684.54 Q37.7435 684.765 37.1638 684.765 Q36.0688 684.765 35.0382 683.735 Q34.0076 682.704 34.0076 681.48 Q34.0076 680.385 35.1026 679.483 Q36.1654 678.582 38.6131 678.582 Z" fill="#000000" fill-rule="evenodd" fill-opacity="1" /><path clip-path="url(#clip810)" d="M78.53 671.963 Q74.6074 671.963 72.5333 667.341 Q71.2032 664.568 70.865 658.842 L69.1742 658.842 Q66.3111 658.842 64.8007 660.353 Q63.2677 661.841 63.2677 663.734 Q63.2677 667.116 65.3868 668.739 Q65.4319 667.364 66.1308 666.868 Q66.8071 666.372 67.506 666.372 Q68.4303 666.372 69.039 666.958 Q69.6251 667.522 69.6251 668.491 Q69.6251 669.415 69.0615 670.024 Q68.4754 670.633 67.4609 670.633 Q65.2065 670.633 63.7186 668.604 Q62.2307 666.552 62.2307 663.644 Q62.2307 659.857 64.7781 657.332 Q65.5672 656.543 66.5817 656.159 Q67.5961 655.754 68.2725 655.709 Q68.9262 655.663 70.2338 655.663 L79.4543 655.663 Q79.7249 655.663 80.1758 655.573 Q80.6266 655.483 81.2128 655.077 Q81.7764 654.649 81.7764 653.95 Q81.7764 652.282 78.8231 652.304 L76.2305 652.304 L76.2305 651.132 L78.8231 651.132 Q81.2804 651.132 82.2498 652.44 Q83.1967 653.725 83.1967 654.92 Q83.1967 656.453 82.0695 657.422 Q80.9423 658.391 79.4093 658.527 Q81.1677 659.225 82.3174 660.826 Q83.4447 662.404 83.4447 664.568 Q83.4447 666.237 83.0163 667.815 Q82.6105 669.37 81.4608 670.678 Q80.2885 671.963 78.53 671.963 M78.4849 668.401 Q80.1983 668.401 81.303 667.184 Q82.4076 665.966 82.4076 664.253 Q82.4076 662.314 80.9197 660.578 Q79.4093 658.842 76.456 658.842 L71.8344 658.842 Q72.0148 663.96 74.0663 666.192 Q76.0953 668.401 78.4849 668.401 Z" fill="#000000" fill-rule="evenodd" fill-opacity="1" /><path clip-path="url(#clip810)" d="M82.9261 650.207 L81.5059 650.207 Q81.5059 647.75 81.2128 647.186 Q80.8972 646.622 79.4093 646.622 L67.0325 646.622 Q65.3192 646.622 64.8909 647.231 Q64.4625 647.817 64.4625 650.207 L63.0197 650.207 L62.5237 643.714 L67.3707 643.714 Q62.5237 641.55 62.5237 636.883 Q62.5237 633.411 64.2371 632.036 Q65.3868 631.022 66.6718 630.819 Q67.9569 630.593 71.2934 630.593 L80.1081 630.593 Q81.0775 630.548 81.303 629.804 Q81.5059 629.06 81.5059 626.986 L82.9261 626.986 Q82.7909 631.698 82.7909 632.172 Q82.7909 632.532 82.9261 637.379 L81.5059 637.379 Q81.5059 634.922 81.2128 634.358 Q80.8972 633.772 79.4093 633.772 L68.6557 633.772 Q66.3111 633.772 64.9359 634.494 Q63.5382 635.215 63.5382 637.199 Q63.5382 639.589 65.5446 641.505 Q67.5511 643.421 70.9327 643.421 L79.4093 643.421 Q80.8972 643.421 81.2128 642.857 Q81.5059 642.271 81.5059 639.837 L82.9261 639.837 Q82.7909 644.548 82.7909 644.999 Q82.7909 645.36 82.9261 650.207 Z" fill="#000000" fill-rule="evenodd" fill-opacity="1" /><path clip-path="url(#clip810)" d="M78.53 623.732 Q74.6074 623.732 72.5333 619.111 Q71.2032 616.338 70.865 610.612 L69.1742 610.612 Q66.3111 610.612 64.8007 612.122 Q63.2677 613.61 63.2677 615.504 Q63.2677 618.885 65.3868 620.509 Q65.4319 619.133 66.1308 618.637 Q66.8071 618.141 67.506 618.141 Q68.4303 618.141 69.039 618.728 Q69.6251 619.291 69.6251 620.261 Q69.6251 621.185 69.0615 621.794 Q68.4754 622.402 67.4609 622.402 Q65.2065 622.402 63.7186 620.373 Q62.2307 618.322 62.2307 615.414 Q62.2307 611.626 64.7781 609.101 Q65.5672 608.312 66.5817 607.929 Q67.5961 607.523 68.2725 607.478 Q68.9262 607.433 70.2338 607.433 L79.4543 607.433 Q79.7249 607.433 80.1758 607.343 Q80.6266 607.253 81.2128 606.847 Q81.7764 606.418 81.7764 605.72 Q81.7764 604.051 78.8231 604.074 L76.2305 604.074 L76.2305 602.902 L78.8231 602.902 Q81.2804 602.902 82.2498 604.209 Q83.1967 605.494 83.1967 606.689 Q83.1967 608.222 82.0695 609.191 Q80.9423 610.161 79.4093 610.296 Q81.1677 610.995 82.3174 612.596 Q83.4447 614.174 83.4447 616.338 Q83.4447 618.006 83.0163 619.584 Q82.6105 621.14 81.4608 622.447 Q80.2885 623.732 78.53 623.732 M78.4849 620.17 Q80.1983 620.17 81.303 618.953 Q82.4076 617.736 82.4076 616.022 Q82.4076 614.083 80.9197 612.348 Q79.4093 610.612 76.456 610.612 L71.8344 610.612 Q72.0148 615.729 74.0663 617.961 Q76.0953 620.17 78.4849 620.17 Z" fill="#000000" fill-rule="evenodd" fill-opacity="1" /><path clip-path="url(#clip810)" d="M82.9261 601.052 L81.5059 601.052 Q81.5059 598.595 81.2128 598.031 Q80.8972 597.468 79.4093 597.468 L55.3998 597.468 Q53.6864 597.468 53.2581 598.076 Q52.8298 598.663 52.8298 601.052 L51.3869 601.052 L50.891 594.424 L79.4093 594.424 Q80.8972 594.424 81.2128 593.838 Q81.5059 593.252 81.5059 590.817 L82.9261 590.817 Q82.9261 591.381 82.881 592.553 Q82.836 593.725 82.8134 594.582 Q82.7909 595.439 82.7909 595.935 Q82.7909 596.476 82.9261 601.052 Z" fill="#000000" fill-rule="evenodd" fill-opacity="1" /><path clip-path="url(#clip810)" d="M88.6523 591.512 Q87.6829 591.512 87.1644 590.949 Q86.6685 590.363 86.6685 589.574 Q86.6685 588.739 87.187 588.198 Q87.728 587.635 88.6073 587.635 Q90.3206 587.635 90.546 589.438 Q91.3802 588.559 91.3802 587.274 Q91.3802 585.899 90.3657 584.794 Q89.3512 583.667 88.3818 583.194 Q87.4124 582.698 85.654 581.999 Q84.2788 581.345 82.9261 580.849 L66.0631 587.77 Q64.9585 588.221 64.7105 588.92 Q64.4625 589.619 64.4625 591.512 L63.0197 591.512 Q63.155 589.438 63.155 587.026 Q63.155 585.606 63.0197 581.999 L64.4625 581.999 Q64.4625 584.591 65.6574 584.591 Q65.7926 584.591 66.4915 584.321 L78.9133 579.181 L67.5511 574.514 Q66.8973 574.244 66.4464 574.244 Q64.5527 574.244 64.4625 576.408 L63.0197 576.408 Q63.155 573.364 63.155 572.395 Q63.155 570.501 63.0197 568.946 L64.4625 568.946 Q64.4625 572.034 67.4158 573.229 L87.1193 581.368 Q92.3721 583.577 92.3947 587.274 Q92.3947 589.033 91.3125 590.272 Q90.2304 591.512 88.6523 591.512 Z" fill="#000000" fill-rule="evenodd" fill-opacity="1" /><path clip-path="url(#clip810)" d="M64.4625 565.756 L63.448 565.756 Q63.3579 563.637 61.8699 562.239 Q60.3595 560.819 58.5109 560.346 Q56.6623 559.85 54.5206 559.805 L54.5206 558.655 L63.0197 558.655 L63.0197 552.049 L64.4625 552.049 L64.4625 558.655 L77.2901 558.655 Q82.2724 558.655 82.2724 555.544 Q82.2724 554.214 80.9197 553.334 Q79.5445 552.455 77.1098 552.455 L74.5623 552.455 L74.5623 551.305 L77.1999 551.305 Q79.7023 551.305 81.5735 552.455 Q83.4447 553.605 83.4447 555.882 Q83.4447 556.716 83.2192 557.55 Q83.0163 558.362 82.4753 559.444 Q81.9117 560.503 80.559 561.18 Q79.1838 561.834 77.1999 561.834 L64.4625 561.834 L64.4625 565.756 Z" fill="#000000" fill-rule="evenodd" fill-opacity="1" /><path clip-path="url(#clip810)" d="M82.9261 548.581 L81.5059 548.581 Q81.5059 546.124 81.2128 545.561 Q80.8972 544.997 79.4093 544.997 L66.9875 544.997 Q65.2741 544.997 64.8683 545.583 Q64.4625 546.147 64.4625 548.401 L63.0197 548.401 L62.5237 541.954 L79.4543 541.954 Q80.8295 541.954 81.1677 541.458 Q81.5059 540.962 81.5059 538.707 L82.9261 538.707 Q82.7909 543.419 82.7909 543.509 Q82.7909 544.14 82.9261 548.581 M54.4755 546.643 Q53.5512 546.643 52.8072 545.944 Q52.0407 545.222 52.0407 544.208 Q52.0407 543.193 52.7396 542.472 Q53.4159 541.751 54.498 541.751 Q55.5576 541.751 56.2565 542.472 Q56.9328 543.193 56.9328 544.208 Q56.9328 545.267 56.1888 545.966 Q55.4449 546.643 54.4755 546.643 Z" fill="#000000" fill-rule="evenodd" fill-opacity="1" /><path clip-path="url(#clip810)" d="M80.4012 531.697 Q77.3352 534.627 72.9616 534.627 Q68.5655 534.627 65.4094 531.742 Q62.2307 528.856 62.2307 524.618 Q62.2307 521.8 63.5833 519.681 Q64.9134 517.561 67.1904 517.561 Q68.2048 517.561 68.791 518.17 Q69.3546 518.756 69.3546 519.681 Q69.3546 520.65 68.7684 521.236 Q68.1597 521.8 67.2354 521.8 Q66.8296 521.8 66.4239 521.665 Q66.0181 521.529 65.5897 521.033 Q65.1614 520.515 65.0938 519.636 Q63.4029 521.281 63.4029 524.483 Q63.4029 524.528 63.4029 524.573 Q63.4029 526.917 65.6123 528.856 Q67.8216 530.795 72.8715 530.795 Q75.5091 530.795 77.4479 530.164 Q79.3642 529.51 80.3561 528.45 Q81.348 527.391 81.8215 526.354 Q82.2724 525.317 82.2724 524.302 Q82.2724 519.771 77.4254 518.238 Q76.9745 518.103 76.9745 517.652 Q76.9745 517.043 77.4254 517.043 Q77.6508 517.043 78.237 517.223 Q78.8231 517.404 79.7474 517.967 Q80.6717 518.531 81.4833 519.342 Q82.2724 520.132 82.8585 521.552 Q83.4447 522.95 83.4447 524.708 Q83.4447 528.766 80.4012 531.697 Z" fill="#000000" fill-rule="evenodd" fill-opacity="1" /><path clip-path="url(#clip810)" d="M78.53 514.7 Q74.6074 514.7 72.5333 510.078 Q71.2032 507.305 70.865 501.579 L69.1742 501.579 Q66.3111 501.579 64.8007 503.09 Q63.2677 504.578 63.2677 506.471 Q63.2677 509.853 65.3868 511.476 Q65.4319 510.101 66.1308 509.605 Q66.8071 509.109 67.506 509.109 Q68.4303 509.109 69.039 509.695 Q69.6251 510.259 69.6251 511.228 Q69.6251 512.152 69.0615 512.761 Q68.4754 513.37 67.4609 513.37 Q65.2065 513.37 63.7186 511.341 Q62.2307 509.289 62.2307 506.381 Q62.2307 502.594 64.7781 500.069 Q65.5672 499.28 66.5817 498.897 Q67.5961 498.491 68.2725 498.446 Q68.9262 498.401 70.2338 498.401 L79.4543 498.401 Q79.7249 498.401 80.1758 498.31 Q80.6266 498.22 81.2128 497.814 Q81.7764 497.386 81.7764 496.687 Q81.7764 495.019 78.8231 495.041 L76.2305 495.041 L76.2305 493.869 L78.8231 493.869 Q81.2804 493.869 82.2498 495.177 Q83.1967 496.462 83.1967 497.657 Q83.1967 499.19 82.0695 500.159 Q80.9423 501.128 79.4093 501.264 Q81.1677 501.963 82.3174 503.563 Q83.4447 505.141 83.4447 507.305 Q83.4447 508.974 83.0163 510.552 Q82.6105 512.107 81.4608 513.415 Q80.2885 514.7 78.53 514.7 M78.4849 511.138 Q80.1983 511.138 81.303 509.921 Q82.4076 508.703 82.4076 506.99 Q82.4076 505.051 80.9197 503.315 Q79.4093 501.579 76.456 501.579 L71.8344 501.579 Q72.0148 506.697 74.0663 508.929 Q76.0953 511.138 78.4849 511.138 Z" fill="#000000" fill-rule="evenodd" fill-opacity="1" /><path clip-path="url(#clip810)" d="M82.9261 492.02 L81.5059 492.02 Q81.5059 489.563 81.2128 488.999 Q80.8972 488.435 79.4093 488.435 L55.3998 488.435 Q53.6864 488.435 53.2581 489.044 Q52.8298 489.63 52.8298 492.02 L51.3869 492.02 L50.891 485.392 L79.4093 485.392 Q80.8972 485.392 81.2128 484.806 Q81.5059 484.22 81.5059 481.785 L82.9261 481.785 Q82.9261 482.348 82.881 483.521 Q82.836 484.693 82.8134 485.55 Q82.7909 486.406 82.7909 486.902 Q82.7909 487.443 82.9261 492.02 Z" fill="#000000" fill-rule="evenodd" fill-opacity="1" /><path clip-path="url(#clip810)" d="M77.6144 472.319 L16.1978 472.319 Q13.7502 472.319 13.7502 470.999 Q13.7502 469.679 15.7147 469.679 L77.1313 469.679 Q79.5789 469.679 79.5789 470.999 Q79.5789 472.319 77.6144 472.319 Z" fill="#000000" fill-rule="evenodd" fill-opacity="1" /><path clip-path="url(#clip810)" d="M77.6144 454.598 L16.1978 454.598 Q13.7502 454.598 13.7502 453.278 Q13.7502 451.957 15.7147 451.957 L77.1313 451.957 Q79.5789 451.957 79.5789 453.278 Q79.5789 454.598 77.6144 454.598 Z" fill="#000000" fill-rule="evenodd" fill-opacity="1" /><path clip-path="url(#clip810)" d="M342.468 13.7457 L380.708 13.7457 L380.708 20.6322 L350.65 20.6322 L350.65 38.5372 L379.452 38.5372 L379.452 45.4238 L350.65 45.4238 L350.65 67.3392 L381.437 67.3392 L381.437 74.2257 L342.468 74.2257 L342.468 13.7457 Z" fill="#000000" fill-rule="evenodd" fill-opacity="1" /><path clip-path="url(#clip810)" d="M420.853 35.8231 Q419.597 35.094 418.098 34.7699 Q416.64 34.4053 414.857 34.4053 Q408.538 34.4053 405.135 38.5372 Q401.773 42.6286 401.773 50.3254 L401.773 74.2257 L394.279 74.2257 L394.279 28.8556 L401.773 28.8556 L401.773 35.9041 Q404.122 31.7722 407.89 29.7873 Q411.657 27.7618 417.045 27.7618 Q417.814 27.7618 418.746 27.8833 Q419.678 27.9644 420.812 28.1669 L420.853 35.8231 Z" fill="#000000" fill-rule="evenodd" fill-opacity="1" /><path clip-path="url(#clip810)" d="M453.503 35.8231 Q452.247 35.094 450.748 34.7699 Q449.29 34.4053 447.508 34.4053 Q441.188 34.4053 437.785 38.5372 Q434.423 42.6286 434.423 50.3254 L434.423 74.2257 L426.929 74.2257 L426.929 28.8556 L434.423 28.8556 L434.423 35.9041 Q436.773 31.7722 440.54 29.7873 Q444.307 27.7618 449.695 27.7618 Q450.465 27.7618 451.396 27.8833 Q452.328 27.9644 453.462 28.1669 L453.503 35.8231 Z" fill="#000000" fill-rule="evenodd" fill-opacity="1" /><path clip-path="url(#clip810)" d="M477.079 34.0812 Q471.084 34.0812 467.6 38.7803 Q464.116 43.4388 464.116 51.5811 Q464.116 59.7235 467.56 64.4225 Q471.043 69.081 477.079 69.081 Q483.034 69.081 486.518 64.382 Q490.002 59.6829 490.002 51.5811 Q490.002 43.5198 486.518 38.8208 Q483.034 34.0812 477.079 34.0812 M477.079 27.7618 Q486.801 27.7618 492.351 34.0812 Q497.901 40.4006 497.901 51.5811 Q497.901 62.7211 492.351 69.081 Q486.801 75.4004 477.079 75.4004 Q467.317 75.4004 461.767 69.081 Q456.258 62.7211 456.258 51.5811 Q456.258 40.4006 461.767 34.0812 Q467.317 27.7618 477.079 27.7618 Z" fill="#000000" fill-rule="evenodd" fill-opacity="1" /><path clip-path="url(#clip810)" d="M536.546 35.8231 Q535.291 35.094 533.792 34.7699 Q532.334 34.4053 530.551 34.4053 Q524.232 34.4053 520.829 38.5372 Q517.467 42.6286 517.467 50.3254 L517.467 74.2257 L509.973 74.2257 L509.973 28.8556 L517.467 28.8556 L517.467 35.9041 Q519.816 31.7722 523.584 29.7873 Q527.351 27.7618 532.739 27.7618 Q533.508 27.7618 534.44 27.8833 Q535.372 27.9644 536.506 28.1669 L536.546 35.8231 Z" fill="#000000" fill-rule="evenodd" fill-opacity="1" /><path clip-path="url(#clip810)" d="M566.402 28.8556 L573.855 28.8556 L583.172 64.2605 L592.449 28.8556 L601.239 28.8556 L610.556 64.2605 L619.833 28.8556 L627.287 28.8556 L615.418 74.2257 L606.627 74.2257 L596.864 37.0384 L587.061 74.2257 L578.271 74.2257 L566.402 28.8556 Z" fill="#000000" fill-rule="evenodd" fill-opacity="1" /><path clip-path="url(#clip810)" d="M664.879 35.8231 Q663.623 35.094 662.125 34.7699 Q660.666 34.4053 658.884 34.4053 Q652.564 34.4053 649.162 38.5372 Q645.799 42.6286 645.799 50.3254 L645.799 74.2257 L638.305 74.2257 L638.305 28.8556 L645.799 28.8556 L645.799 35.9041 Q648.149 31.7722 651.916 29.7873 Q655.684 27.7618 661.071 27.7618 Q661.841 27.7618 662.773 27.8833 Q663.704 27.9644 664.839 28.1669 L664.879 35.8231 Z" fill="#000000" fill-rule="evenodd" fill-opacity="1" /><path clip-path="url(#clip810)" d="M680.07 15.9737 L680.07 28.8556 L695.423 28.8556 L695.423 34.6484 L680.07 34.6484 L680.07 59.2779 Q680.07 64.8276 681.569 66.4074 Q683.108 67.9873 687.767 67.9873 L695.423 67.9873 L695.423 74.2257 L687.767 74.2257 Q679.138 74.2257 675.857 71.0255 Q672.576 67.7847 672.576 59.2779 L672.576 34.6484 L667.107 34.6484 L667.107 28.8556 L672.576 28.8556 L672.576 15.9737 L680.07 15.9737 Z" fill="#000000" fill-rule="evenodd" fill-opacity="1" /><path clip-path="url(#clip810)" d="M706.279 63.9364 L714.827 63.9364 L714.827 74.2257 L706.279 74.2257 L706.279 63.9364 Z" fill="#000000" fill-rule="evenodd" fill-opacity="1" /><path clip-path="url(#clip810)" d="M800.854 53.4851 Q800.854 53.731 800.526 54.6738 L793.886 72.7911 Q793.517 73.8568 793.148 74.0617 Q792.78 74.2257 791.263 74.2257 L752.405 74.2257 Q751.462 74.2257 751.093 74.1847 Q750.725 74.1437 750.438 73.9388 Q750.151 73.7338 750.151 73.2829 Q750.151 72.4631 750.438 72.0942 Q750.765 71.7253 751.134 71.6844 Q751.503 71.6434 752.405 71.6434 Q754.455 71.6434 755.684 71.5204 Q756.914 71.3974 757.693 71.2335 Q758.512 71.0285 758.922 70.4547 Q759.373 69.8808 759.578 69.389 Q759.783 68.8561 760.07 67.6674 L771.301 22.5792 Q771.629 21.2266 771.629 21.0216 Q771.629 20.2428 771.137 20.0379 Q770.686 19.7919 769.375 19.669 L766.177 19.505 Q765.194 19.505 764.784 19.464 Q764.415 19.423 764.128 19.2181 Q763.841 19.0131 763.841 18.5622 Q763.841 17.7835 764.128 17.4145 Q764.456 17.0047 764.702 16.9637 Q764.989 16.8817 765.44 16.8817 L776.589 17.1276 L789.008 16.8817 Q790.361 16.8817 790.361 17.9064 Q790.361 19.0541 789.787 19.3001 Q789.213 19.505 787.164 19.505 Q783.229 19.505 781.425 19.9149 Q779.663 20.3248 779.171 21.0216 Q778.72 21.6774 778.269 23.44 L766.915 68.7741 Q766.505 70.2907 766.505 70.7006 Q766.505 71.1515 766.71 71.3154 Q766.956 71.4384 767.612 71.5204 Q768.35 71.6434 769.457 71.6434 L777.327 71.6434 Q779.704 71.6434 781.794 71.2745 Q783.885 70.9056 785.483 70.3727 Q787.123 69.8398 788.599 68.8561 Q790.074 67.8723 791.099 67.0116 Q792.165 66.1098 793.189 64.7162 Q794.255 63.2816 794.87 62.2978 Q795.526 61.2731 796.264 59.6335 Q797.001 57.9529 797.37 57.0102 Q797.78 56.0264 798.395 54.3459 Q798.764 53.4851 798.887 53.2392 Q799.01 52.9932 799.215 52.7883 Q799.461 52.5833 799.83 52.5833 Q800.322 52.5833 800.567 52.8703 Q800.854 53.1572 800.854 53.4851 Z" fill="#000000" fill-rule="evenodd" fill-opacity="1" /><path clip-path="url(#clip810)" d="M809.314 97.4832 Q809.314 96.4216 809.4 96.1059 Q809.515 95.7903 809.974 95.3026 L821.25 82.7352 Q827.419 75.7917 827.419 69.7375 Q827.419 65.8067 825.353 62.9948 Q823.316 60.1829 819.557 60.1829 Q816.975 60.1829 814.794 61.761 Q812.613 63.3391 811.609 66.151 Q811.781 66.0936 812.384 66.0936 Q813.847 66.0936 814.651 67.0118 Q815.483 67.9299 815.483 69.1637 Q815.483 70.7418 814.45 71.5165 Q813.446 72.2625 812.441 72.2625 Q812.04 72.2625 811.494 72.1764 Q810.978 72.0903 810.146 71.2869 Q809.314 70.4549 809.314 68.9915 Q809.314 64.8885 812.413 61.6176 Q815.54 58.3466 820.303 58.3466 Q825.697 58.3466 829.226 61.5602 Q832.784 64.7451 832.784 69.7375 Q832.784 71.4878 832.239 73.0946 Q831.723 74.6727 831.005 75.9064 Q830.317 77.1402 828.423 79.12 Q826.529 81.0998 825.009 82.5057 Q823.488 83.9116 820.073 86.8957 L813.847 92.9498 L824.435 92.9498 Q829.599 92.9498 830.001 92.4907 Q830.575 91.6586 831.292 87.2687 L832.784 87.2687 L831.12 97.4832 L809.314 97.4832 Z" fill="#000000" fill-rule="evenodd" fill-opacity="1" /><path clip-path="url(#clip810)" d="M841.516 48.1784 L863.35 48.1784 L863.35 54.8219 L841.516 54.8219 L841.516 48.1784 Z" fill="#000000" fill-rule="evenodd" fill-opacity="1" /><path clip-path="url(#clip810)" d="M912.933 46.8416 L912.933 74.2257 L905.48 74.2257 L905.48 47.0846 Q905.48 40.6437 902.968 37.4435 Q900.457 34.2433 895.434 34.2433 Q889.398 34.2433 885.914 38.0916 Q882.43 41.94 882.43 48.5835 L882.43 74.2257 L874.936 74.2257 L874.936 28.8556 L882.43 28.8556 L882.43 35.9041 Q885.104 31.8127 888.709 29.7873 Q892.355 27.7618 897.094 27.7618 Q904.913 27.7618 908.923 32.6229 Q912.933 37.4435 912.933 46.8416 Z" fill="#000000" fill-rule="evenodd" fill-opacity="1" /><path clip-path="url(#clip810)" d="M945.381 34.0812 Q939.386 34.0812 935.902 38.7803 Q932.418 43.4388 932.418 51.5811 Q932.418 59.7235 935.862 64.4225 Q939.345 69.081 945.381 69.081 Q951.336 69.081 954.82 64.382 Q958.304 59.6829 958.304 51.5811 Q958.304 43.5198 954.82 38.8208 Q951.336 34.0812 945.381 34.0812 M945.381 27.7618 Q955.103 27.7618 960.653 34.0812 Q966.203 40.4006 966.203 51.5811 Q966.203 62.7211 960.653 69.081 Q955.103 75.4004 945.381 75.4004 Q935.618 75.4004 930.069 69.081 Q924.56 62.7211 924.56 51.5811 Q924.56 40.4006 930.069 34.0812 Q935.618 27.7618 945.381 27.7618 Z" fill="#000000" fill-rule="evenodd" fill-opacity="1" /><path clip-path="url(#clip810)" d="M1004.85 35.8231 Q1003.59 35.094 1002.09 34.7699 Q1000.64 34.4053 998.853 34.4053 Q992.534 34.4053 989.131 38.5372 Q985.769 42.6286 985.769 50.3254 L985.769 74.2257 L978.274 74.2257 L978.274 28.8556 L985.769 28.8556 L985.769 35.9041 Q988.118 31.7722 991.886 29.7873 Q995.653 27.7618 1001.04 27.7618 Q1001.81 27.7618 1002.74 27.8833 Q1003.67 27.9644 1004.81 28.1669 L1004.85 35.8231 Z" fill="#000000" fill-rule="evenodd" fill-opacity="1" /><path clip-path="url(#clip810)" d="M1046.53 37.565 Q1049.33 32.5419 1053.22 30.1518 Q1057.11 27.7618 1062.37 27.7618 Q1069.46 27.7618 1073.31 32.7444 Q1077.16 37.6865 1077.16 46.8416 L1077.16 74.2257 L1069.66 74.2257 L1069.66 47.0846 Q1069.66 40.5627 1067.35 37.403 Q1065.04 34.2433 1060.31 34.2433 Q1054.51 34.2433 1051.15 38.0916 Q1047.79 41.94 1047.79 48.5835 L1047.79 74.2257 L1040.29 74.2257 L1040.29 47.0846 Q1040.29 40.5222 1037.98 37.403 Q1035.68 34.2433 1030.86 34.2433 Q1025.14 34.2433 1021.78 38.1321 Q1018.42 41.9805 1018.42 48.5835 L1018.42 74.2257 L1010.92 74.2257 L1010.92 28.8556 L1018.42 28.8556 L1018.42 35.9041 Q1020.97 31.7317 1024.54 29.7468 Q1028.1 27.7618 1033 27.7618 Q1037.94 27.7618 1041.39 30.2734 Q1044.87 32.7849 1046.53 37.565 Z" fill="#000000" fill-rule="evenodd" fill-opacity="1" /><path clip-path="url(#clip810)" d="M1114.06 28.8556 L1121.51 28.8556 L1130.83 64.2605 L1140.11 28.8556 L1148.9 28.8556 L1158.22 64.2605 L1167.49 28.8556 L1174.95 28.8556 L1163.08 74.2257 L1154.29 74.2257 L1144.52 37.0384 L1134.72 74.2257 L1125.93 74.2257 L1114.06 28.8556 Z" fill="#000000" fill-rule="evenodd" fill-opacity="1" /><path clip-path="url(#clip810)" d="M1186.25 28.8556 L1193.7 28.8556 L1193.7 74.2257 L1186.25 74.2257 L1186.25 28.8556 M1186.25 11.1936 L1193.7 11.1936 L1193.7 20.6322 L1186.25 20.6322 L1186.25 11.1936 Z" fill="#000000" fill-rule="evenodd" fill-opacity="1" /><path clip-path="url(#clip810)" d="M1216.67 15.9737 L1216.67 28.8556 L1232.02 28.8556 L1232.02 34.6484 L1216.67 34.6484 L1216.67 59.2779 Q1216.67 64.8276 1218.17 66.4074 Q1219.71 67.9873 1224.37 67.9873 L1232.02 67.9873 L1232.02 74.2257 L1224.37 74.2257 Q1215.74 74.2257 1212.46 71.0255 Q1209.18 67.7847 1209.18 59.2779 L1209.18 34.6484 L1203.71 34.6484 L1203.71 28.8556 L1209.18 28.8556 L1209.18 15.9737 L1216.67 15.9737 Z" fill="#000000" fill-rule="evenodd" fill-opacity="1" /><path clip-path="url(#clip810)" d="M1279.54 46.8416 L1279.54 74.2257 L1272.09 74.2257 L1272.09 47.0846 Q1272.09 40.6437 1269.58 37.4435 Q1267.06 34.2433 1262.04 34.2433 Q1256 34.2433 1252.52 38.0916 Q1249.04 41.94 1249.04 48.5835 L1249.04 74.2257 L1241.54 74.2257 L1241.54 11.1936 L1249.04 11.1936 L1249.04 35.9041 Q1251.71 31.8127 1255.32 29.7873 Q1258.96 27.7618 1263.7 27.7618 Q1271.52 27.7618 1275.53 32.6229 Q1279.54 37.4435 1279.54 46.8416 Z" fill="#000000" fill-rule="evenodd" fill-opacity="1" /><path clip-path="url(#clip810)" d="M1323.25 67.3392 L1336.62 67.3392 L1336.62 21.1994 L1322.07 24.116 L1322.07 16.6623 L1336.54 13.7457 L1344.72 13.7457 L1344.72 67.3392 L1358.09 67.3392 L1358.09 74.2257 L1323.25 74.2257 L1323.25 67.3392 Z" fill="#000000" fill-rule="evenodd" fill-opacity="1" /><path clip-path="url(#clip810)" d="M1392.11 19.1334 Q1385.8 19.1334 1382.6 25.3718 Q1379.44 31.5697 1379.44 44.0465 Q1379.44 56.4827 1382.6 62.7211 Q1385.8 68.919 1392.11 68.919 Q1398.47 68.919 1401.63 62.7211 Q1404.83 56.4827 1404.83 44.0465 Q1404.83 31.5697 1401.63 25.3718 Q1398.47 19.1334 1392.11 19.1334 M1392.11 12.6519 Q1402.28 12.6519 1407.63 20.7132 Q1413.02 28.734 1413.02 44.0465 Q1413.02 59.3184 1407.63 67.3797 Q1402.28 75.4004 1392.11 75.4004 Q1381.95 75.4004 1376.56 67.3797 Q1371.21 59.3184 1371.21 44.0465 Q1371.21 28.734 1376.56 20.7132 Q1381.95 12.6519 1392.11 12.6519 Z" fill="#000000" fill-rule="evenodd" fill-opacity="1" /><path clip-path="url(#clip810)" d="M1444.9 19.1334 Q1438.58 19.1334 1435.38 25.3718 Q1432.22 31.5697 1432.22 44.0465 Q1432.22 56.4827 1435.38 62.7211 Q1438.58 68.919 1444.9 68.919 Q1451.26 68.919 1454.42 62.7211 Q1457.62 56.4827 1457.62 44.0465 Q1457.62 31.5697 1454.42 25.3718 Q1451.26 19.1334 1444.9 19.1334 M1444.9 12.6519 Q1455.07 12.6519 1460.41 20.7132 Q1465.8 28.734 1465.8 44.0465 Q1465.8 59.3184 1460.41 67.3797 Q1455.07 75.4004 1444.9 75.4004 Q1434.73 75.4004 1429.34 67.3797 Q1424 59.3184 1424 44.0465 Q1424 28.734 1429.34 20.7132 Q1434.73 12.6519 1444.9 12.6519 Z" fill="#000000" fill-rule="evenodd" fill-opacity="1" /><path clip-path="url(#clip810)" d="M1505.5 28.8556 L1512.95 28.8556 L1512.95 74.2257 L1505.5 74.2257 L1505.5 28.8556 M1505.5 11.1936 L1512.95 11.1936 L1512.95 20.6322 L1505.5 20.6322 L1505.5 11.1936 Z" fill="#000000" fill-rule="evenodd" fill-opacity="1" /><path clip-path="url(#clip810)" d="M1566.26 46.8416 L1566.26 74.2257 L1558.81 74.2257 L1558.81 47.0846 Q1558.81 40.6437 1556.3 37.4435 Q1553.79 34.2433 1548.76 34.2433 Q1542.73 34.2433 1539.24 38.0916 Q1535.76 41.94 1535.76 48.5835 L1535.76 74.2257 L1528.27 74.2257 L1528.27 28.8556 L1535.76 28.8556 L1535.76 35.9041 Q1538.43 31.8127 1542.04 29.7873 Q1545.68 27.7618 1550.42 27.7618 Q1558.24 27.7618 1562.25 32.6229 Q1566.26 37.4435 1566.26 46.8416 Z" fill="#000000" fill-rule="evenodd" fill-opacity="1" /><path clip-path="url(#clip810)" d="M1588.5 15.9737 L1588.5 28.8556 L1603.86 28.8556 L1603.86 34.6484 L1588.5 34.6484 L1588.5 59.2779 Q1588.5 64.8276 1590 66.4074 Q1591.54 67.9873 1596.2 67.9873 L1603.86 67.9873 L1603.86 74.2257 L1596.2 74.2257 Q1587.57 74.2257 1584.29 71.0255 Q1581.01 67.7847 1581.01 59.2779 L1581.01 34.6484 L1575.54 34.6484 L1575.54 28.8556 L1581.01 28.8556 L1581.01 15.9737 L1588.5 15.9737 Z" fill="#000000" fill-rule="evenodd" fill-opacity="1" /><path clip-path="url(#clip810)" d="M1652.47 49.6772 L1652.47 53.323 L1618.2 53.323 Q1618.68 61.0197 1622.81 65.0706 Q1626.99 69.081 1634.4 69.081 Q1638.69 69.081 1642.7 68.0278 Q1646.75 66.9746 1650.72 64.8681 L1650.72 71.9167 Q1646.71 73.6181 1642.5 74.5093 Q1638.29 75.4004 1633.95 75.4004 Q1623.1 75.4004 1616.74 69.081 Q1610.42 62.7616 1610.42 51.9862 Q1610.42 40.8462 1616.41 34.3243 Q1622.45 27.7618 1632.66 27.7618 Q1641.81 27.7618 1647.12 33.6761 Q1652.47 39.5499 1652.47 49.6772 M1645.01 47.4897 Q1644.93 41.3729 1641.57 37.727 Q1638.25 34.0812 1632.74 34.0812 Q1626.5 34.0812 1622.73 37.6055 Q1619.01 41.1298 1618.44 47.5302 L1645.01 47.4897 Z" fill="#000000" fill-rule="evenodd" fill-opacity="1" /><path clip-path="url(#clip810)" d="M1690.99 35.8231 Q1689.73 35.094 1688.24 34.7699 Q1686.78 34.4053 1685 34.4053 Q1678.68 34.4053 1675.27 38.5372 Q1671.91 42.6286 1671.91 50.3254 L1671.91 74.2257 L1664.42 74.2257 L1664.42 28.8556 L1671.91 28.8556 L1671.91 35.9041 Q1674.26 31.7722 1678.03 29.7873 Q1681.8 27.7618 1687.18 27.7618 Q1687.95 27.7618 1688.88 27.8833 Q1689.82 27.9644 1690.95 28.1669 L1690.99 35.8231 Z" fill="#000000" fill-rule="evenodd" fill-opacity="1" /><path clip-path="url(#clip810)" d="M1706.02 67.4202 L1706.02 91.4825 L1698.53 91.4825 L1698.53 28.8556 L1706.02 28.8556 L1706.02 35.7421 Q1708.37 31.6912 1711.93 29.7468 Q1715.54 27.7618 1720.52 27.7618 Q1728.79 27.7618 1733.93 34.3243 Q1739.12 40.8867 1739.12 51.5811 Q1739.12 62.2755 1733.93 68.838 Q1728.79 75.4004 1720.52 75.4004 Q1715.54 75.4004 1711.93 73.456 Q1708.37 71.4711 1706.02 67.4202 M1731.38 51.5811 Q1731.38 43.3578 1727.98 38.6993 Q1724.61 34.0002 1718.7 34.0002 Q1712.78 34.0002 1709.38 38.6993 Q1706.02 43.3578 1706.02 51.5811 Q1706.02 59.8045 1709.38 64.5035 Q1712.78 69.1621 1718.7 69.1621 Q1724.61 69.1621 1727.98 64.5035 Q1731.38 59.8045 1731.38 51.5811 Z" fill="#000000" fill-rule="evenodd" fill-opacity="1" /><path clip-path="url(#clip810)" d="M1769.05 34.0812 Q1763.06 34.0812 1759.57 38.7803 Q1756.09 43.4388 1756.09 51.5811 Q1756.09 59.7235 1759.53 64.4225 Q1763.02 69.081 1769.05 69.081 Q1775.01 69.081 1778.49 64.382 Q1781.97 59.6829 1781.97 51.5811 Q1781.97 43.5198 1778.49 38.8208 Q1775.01 34.0812 1769.05 34.0812 M1769.05 27.7618 Q1778.77 27.7618 1784.32 34.0812 Q1789.87 40.4006 1789.87 51.5811 Q1789.87 62.7211 1784.32 69.081 Q1778.77 75.4004 1769.05 75.4004 Q1759.29 75.4004 1753.74 69.081 Q1748.23 62.7211 1748.23 51.5811 Q1748.23 40.4006 1753.74 34.0812 Q1759.29 27.7618 1769.05 27.7618 Z" fill="#000000" fill-rule="evenodd" fill-opacity="1" /><path clip-path="url(#clip810)" d="M1802.23 11.1936 L1809.68 11.1936 L1809.68 74.2257 L1802.23 74.2257 L1802.23 11.1936 Z" fill="#000000" fill-rule="evenodd" fill-opacity="1" /><path clip-path="url(#clip810)" d="M1845.9 51.4191 Q1836.86 51.4191 1833.38 53.4851 Q1829.9 55.551 1829.9 60.5336 Q1829.9 64.5035 1832.49 66.853 Q1835.12 69.1621 1839.62 69.1621 Q1845.82 69.1621 1849.54 64.7871 Q1853.31 60.3716 1853.31 53.08 L1853.31 51.4191 L1845.9 51.4191 M1860.76 48.3404 L1860.76 74.2257 L1853.31 74.2257 L1853.31 67.3392 Q1850.76 71.4711 1846.95 73.456 Q1843.14 75.4004 1837.63 75.4004 Q1830.67 75.4004 1826.53 71.5116 Q1822.44 67.5822 1822.44 61.0197 Q1822.44 53.3635 1827.55 49.4747 Q1832.69 45.5858 1842.86 45.5858 L1853.31 45.5858 L1853.31 44.8566 Q1853.31 39.712 1849.91 36.9169 Q1846.55 34.0812 1840.43 34.0812 Q1836.54 34.0812 1832.85 35.0129 Q1829.17 35.9446 1825.76 37.8081 L1825.76 30.9215 Q1829.86 29.3417 1833.7 28.572 Q1837.55 27.7618 1841.2 27.7618 Q1851.04 27.7618 1855.9 32.866 Q1860.76 37.9701 1860.76 48.3404 Z" fill="#000000" fill-rule="evenodd" fill-opacity="1" /><path clip-path="url(#clip810)" d="M1883.49 15.9737 L1883.49 28.8556 L1898.84 28.8556 L1898.84 34.6484 L1883.49 34.6484 L1883.49 59.2779 Q1883.49 64.8276 1884.99 66.4074 Q1886.53 67.9873 1891.19 67.9873 L1898.84 67.9873 L1898.84 74.2257 L1891.19 74.2257 Q1882.56 74.2257 1879.28 71.0255 Q1876 67.7847 1876 59.2779 L1876 34.6484 L1870.53 34.6484 L1870.53 28.8556 L1876 28.8556 L1876 15.9737 L1883.49 15.9737 Z" fill="#000000" fill-rule="evenodd" fill-opacity="1" /><path clip-path="url(#clip810)" d="M1908.65 28.8556 L1916.1 28.8556 L1916.1 74.2257 L1908.65 74.2257 L1908.65 28.8556 M1908.65 11.1936 L1916.1 11.1936 L1916.1 20.6322 L1908.65 20.6322 L1908.65 11.1936 Z" fill="#000000" fill-rule="evenodd" fill-opacity="1" /><path clip-path="url(#clip810)" d="M1949.28 34.0812 Q1943.28 34.0812 1939.8 38.7803 Q1936.31 43.4388 1936.31 51.5811 Q1936.31 59.7235 1939.76 64.4225 Q1943.24 69.081 1949.28 69.081 Q1955.23 69.081 1958.71 64.382 Q1962.2 59.6829 1962.2 51.5811 Q1962.2 43.5198 1958.71 38.8208 Q1955.23 34.0812 1949.28 34.0812 M1949.28 27.7618 Q1959 27.7618 1964.55 34.0812 Q1970.1 40.4006 1970.1 51.5811 Q1970.1 62.7211 1964.55 69.081 Q1959 75.4004 1949.28 75.4004 Q1939.51 75.4004 1933.96 69.081 Q1928.45 62.7211 1928.45 51.5811 Q1928.45 40.4006 1933.96 34.0812 Q1939.51 27.7618 1949.28 27.7618 Z" fill="#000000" fill-rule="evenodd" fill-opacity="1" /><path clip-path="url(#clip810)" d="M2020.17 46.8416 L2020.17 74.2257 L2012.71 74.2257 L2012.71 47.0846 Q2012.71 40.6437 2010.2 37.4435 Q2007.69 34.2433 2002.67 34.2433 Q1996.63 34.2433 1993.15 38.0916 Q1989.66 41.94 1989.66 48.5835 L1989.66 74.2257 L1982.17 74.2257 L1982.17 28.8556 L1989.66 28.8556 L1989.66 35.9041 Q1992.34 31.8127 1995.94 29.7873 Q1999.59 27.7618 2004.33 27.7618 Q2012.15 27.7618 2016.16 32.6229 Q2020.17 37.4435 2020.17 46.8416 Z" fill="#000000" fill-rule="evenodd" fill-opacity="1" /><path clip-path="url(#clip810)" d="M2068.62 67.4202 L2068.62 91.4825 L2061.12 91.4825 L2061.12 28.8556 L2068.62 28.8556 L2068.62 35.7421 Q2070.97 31.6912 2074.53 29.7468 Q2078.14 27.7618 2083.12 27.7618 Q2091.38 27.7618 2096.53 34.3243 Q2101.71 40.8867 2101.71 51.5811 Q2101.71 62.2755 2096.53 68.838 Q2091.38 75.4004 2083.12 75.4004 Q2078.14 75.4004 2074.53 73.456 Q2070.97 71.4711 2068.62 67.4202 M2093.97 51.5811 Q2093.97 43.3578 2090.57 38.6993 Q2087.21 34.0002 2081.3 34.0002 Q2075.38 34.0002 2071.98 38.6993 Q2068.62 43.3578 2068.62 51.5811 Q2068.62 59.8045 2071.98 64.5035 Q2075.38 69.1621 2081.3 69.1621 Q2087.21 69.1621 2090.57 64.5035 Q2093.97 59.8045 2093.97 51.5811 Z" fill="#000000" fill-rule="evenodd" fill-opacity="1" /><path clip-path="url(#clip810)" d="M2131.65 34.0812 Q2125.65 34.0812 2122.17 38.7803 Q2118.69 43.4388 2118.69 51.5811 Q2118.69 59.7235 2122.13 64.4225 Q2125.61 69.081 2131.65 69.081 Q2137.6 69.081 2141.09 64.382 Q2144.57 59.6829 2144.57 51.5811 Q2144.57 43.5198 2141.09 38.8208 Q2137.6 34.0812 2131.65 34.0812 M2131.65 27.7618 Q2141.37 27.7618 2146.92 34.0812 Q2152.47 40.4006 2152.47 51.5811 Q2152.47 62.7211 2146.92 69.081 Q2141.37 75.4004 2131.65 75.4004 Q2121.89 75.4004 2116.34 69.081 Q2110.83 62.7211 2110.83 51.5811 Q2110.83 40.4006 2116.34 34.0812 Q2121.89 27.7618 2131.65 27.7618 Z" fill="#000000" fill-rule="evenodd" fill-opacity="1" /><path clip-path="url(#clip810)" d="M2164.82 28.8556 L2172.28 28.8556 L2172.28 74.2257 L2164.82 74.2257 L2164.82 28.8556 M2164.82 11.1936 L2172.28 11.1936 L2172.28 20.6322 L2164.82 20.6322 L2164.82 11.1936 Z" fill="#000000" fill-rule="evenodd" fill-opacity="1" /><path clip-path="url(#clip810)" d="M2225.59 46.8416 L2225.59 74.2257 L2218.13 74.2257 L2218.13 47.0846 Q2218.13 40.6437 2215.62 37.4435 Q2213.11 34.2433 2208.09 34.2433 Q2202.05 34.2433 2198.57 38.0916 Q2195.09 41.94 2195.09 48.5835 L2195.09 74.2257 L2187.59 74.2257 L2187.59 28.8556 L2195.09 28.8556 L2195.09 35.9041 Q2197.76 31.8127 2201.36 29.7873 Q2205.01 27.7618 2209.75 27.7618 Q2217.57 27.7618 2221.58 32.6229 Q2225.59 37.4435 2225.59 46.8416 Z" fill="#000000" fill-rule="evenodd" fill-opacity="1" /><path clip-path="url(#clip810)" d="M2247.83 15.9737 L2247.83 28.8556 L2263.18 28.8556 L2263.18 34.6484 L2247.83 34.6484 L2247.83 59.2779 Q2247.83 64.8276 2249.33 66.4074 Q2250.87 67.9873 2255.52 67.9873 L2263.18 67.9873 L2263.18 74.2257 L2255.52 74.2257 Q2246.9 74.2257 2243.61 71.0255 Q2240.33 67.7847 2240.33 59.2779 L2240.33 34.6484 L2234.86 34.6484 L2234.86 28.8556 L2240.33 28.8556 L2240.33 15.9737 L2247.83 15.9737 Z" fill="#000000" fill-rule="evenodd" fill-opacity="1" /><path clip-path="url(#clip810)" d="M2301.91 30.1924 L2301.91 37.2409 Q2298.75 35.6206 2295.34 34.8104 Q2291.94 34.0002 2288.3 34.0002 Q2282.75 34.0002 2279.95 35.7016 Q2277.2 37.403 2277.2 40.8057 Q2277.2 43.3983 2279.18 44.8971 Q2281.17 46.3555 2287.16 47.6923 L2289.71 48.2594 Q2297.65 49.9608 2300.98 53.08 Q2304.34 56.1587 2304.34 61.7084 Q2304.34 68.0278 2299.31 71.7141 Q2294.33 75.4004 2285.58 75.4004 Q2281.94 75.4004 2277.97 74.6713 Q2274.04 73.9826 2269.66 72.5648 L2269.66 64.8681 Q2273.79 67.0151 2277.8 68.1088 Q2281.81 69.1621 2285.74 69.1621 Q2291.01 69.1621 2293.85 67.3797 Q2296.68 65.5568 2296.68 62.2755 Q2296.68 59.2373 2294.62 57.617 Q2292.59 55.9966 2285.66 54.4978 L2283.07 53.8901 Q2276.14 52.4318 2273.07 49.4342 Q2269.99 46.396 2269.99 41.1298 Q2269.99 34.7294 2274.52 31.2456 Q2279.06 27.7618 2287.41 27.7618 Q2291.54 27.7618 2295.18 28.3695 Q2298.83 28.9771 2301.91 30.1924 Z" fill="#000000" fill-rule="evenodd" fill-opacity="1" /><circle clip-path="url(#clip812)" cx="352.315" cy="159.909" r="14" fill="#0000ff" fill-rule="evenodd" fill-opacity="1" stroke="#000000" stroke-opacity="1" stroke-width="3.2"/>
<circle clip-path="url(#clip812)" cx="352.315" cy="159.909" r="14" fill="#0000ff" fill-rule="evenodd" fill-opacity="1" stroke="#000000" stroke-opacity="1" stroke-width="3.2"/>
<circle clip-path="url(#clip812)" cx="352.315" cy="159.909" r="14" fill="#0000ff" fill-rule="evenodd" fill-opacity="1" stroke="#000000" stroke-opacity="1" stroke-width="3.2"/>
<circle clip-path="url(#clip812)" cx="448.496" cy="226.857" r="14" fill="#0000ff" fill-rule="evenodd" fill-opacity="1" stroke="#000000" stroke-opacity="1" stroke-width="3.2"/>
<circle clip-path="url(#clip812)" cx="448.496" cy="226.857" r="14" fill="#0000ff" fill-rule="evenodd" fill-opacity="1" stroke="#000000" stroke-opacity="1" stroke-width="3.2"/>
<circle clip-path="url(#clip812)" cx="523.1" cy="274.336" r="14" fill="#0000ff" fill-rule="evenodd" fill-opacity="1" stroke="#000000" stroke-opacity="1" stroke-width="3.2"/>
<circle clip-path="url(#clip812)" cx="584.055" cy="312.454" r="14" fill="#0000ff" fill-rule="evenodd" fill-opacity="1" stroke="#000000" stroke-opacity="1" stroke-width="3.2"/>
<circle clip-path="url(#clip812)" cx="584.055" cy="312.454" r="14" fill="#0000ff" fill-rule="evenodd" fill-opacity="1" stroke="#000000" stroke-opacity="1" stroke-width="3.2"/>
<circle clip-path="url(#clip812)" cx="635.593" cy="344.537" r="14" fill="#0000ff" fill-rule="evenodd" fill-opacity="1" stroke="#000000" stroke-opacity="1" stroke-width="3.2"/>
<circle clip-path="url(#clip812)" cx="680.236" cy="372.287" r="14" fill="#0000ff" fill-rule="evenodd" fill-opacity="1" stroke="#000000" stroke-opacity="1" stroke-width="3.2"/>
<circle clip-path="url(#clip812)" cx="719.615" cy="396.752" r="14" fill="#0000ff" fill-rule="evenodd" fill-opacity="1" stroke="#000000" stroke-opacity="1" stroke-width="3.2"/>
<circle clip-path="url(#clip812)" cx="786.705" cy="438.422" r="14" fill="#0000ff" fill-rule="evenodd" fill-opacity="1" stroke="#000000" stroke-opacity="1" stroke-width="3.2"/>
<circle clip-path="url(#clip812)" cx="815.796" cy="456.489" r="14" fill="#0000ff" fill-rule="evenodd" fill-opacity="1" stroke="#000000" stroke-opacity="1" stroke-width="3.2"/>
<circle clip-path="url(#clip812)" cx="867.333" cy="488.495" r="14" fill="#0000ff" fill-rule="evenodd" fill-opacity="1" stroke="#000000" stroke-opacity="1" stroke-width="3.2"/>
<circle clip-path="url(#clip812)" cx="890.4" cy="502.819" r="14" fill="#0000ff" fill-rule="evenodd" fill-opacity="1" stroke="#000000" stroke-opacity="1" stroke-width="3.2"/>
<circle clip-path="url(#clip812)" cx="932.246" cy="528.806" r="14" fill="#0000ff" fill-rule="evenodd" fill-opacity="1" stroke="#000000" stroke-opacity="1" stroke-width="3.2"/>
<circle clip-path="url(#clip812)" cx="969.432" cy="551.899" r="14" fill="#0000ff" fill-rule="evenodd" fill-opacity="1" stroke="#000000" stroke-opacity="1" stroke-width="3.2"/>
<circle clip-path="url(#clip812)" cx="1018.45" cy="582.337" r="14" fill="#0000ff" fill-rule="evenodd" fill-opacity="1" stroke="#000000" stroke-opacity="1" stroke-width="3.2"/>
<circle clip-path="url(#clip812)" cx="1061.18" cy="608.878" r="14" fill="#0000ff" fill-rule="evenodd" fill-opacity="1" stroke="#000000" stroke-opacity="1" stroke-width="3.2"/>
<circle clip-path="url(#clip812)" cx="1099.07" cy="632.408" r="14" fill="#0000ff" fill-rule="evenodd" fill-opacity="1" stroke="#000000" stroke-opacity="1" stroke-width="3.2"/>
<circle clip-path="url(#clip812)" cx="1143.72" cy="660.132" r="14" fill="#0000ff" fill-rule="evenodd" fill-opacity="1" stroke="#000000" stroke-opacity="1" stroke-width="3.2"/>
<circle clip-path="url(#clip812)" cx="1183.1" cy="684.586" r="14" fill="#0000ff" fill-rule="evenodd" fill-opacity="1" stroke="#000000" stroke-opacity="1" stroke-width="3.2"/>
<circle clip-path="url(#clip812)" cx="1218.32" cy="706.461" r="14" fill="#0000ff" fill-rule="evenodd" fill-opacity="1" stroke="#000000" stroke-opacity="1" stroke-width="3.2"/>
<circle clip-path="url(#clip812)" cx="1257.7" cy="730.916" r="14" fill="#0000ff" fill-rule="evenodd" fill-opacity="1" stroke="#000000" stroke-opacity="1" stroke-width="3.2"/>
<circle clip-path="url(#clip812)" cx="1299.55" cy="756.903" r="14" fill="#0000ff" fill-rule="evenodd" fill-opacity="1" stroke="#000000" stroke-opacity="1" stroke-width="3.2"/>
<circle clip-path="url(#clip812)" cx="1342.55" cy="783.606" r="14" fill="#0000ff" fill-rule="evenodd" fill-opacity="1" stroke="#000000" stroke-opacity="1" stroke-width="3.2"/>
<circle clip-path="url(#clip812)" cx="1380.64" cy="807.264" r="14" fill="#0000ff" fill-rule="evenodd" fill-opacity="1" stroke="#000000" stroke-opacity="1" stroke-width="3.2"/>
<circle clip-path="url(#clip812)" cx="1419.45" cy="831.363" r="14" fill="#0000ff" fill-rule="evenodd" fill-opacity="1" stroke="#000000" stroke-opacity="1" stroke-width="3.2"/>
<circle clip-path="url(#clip812)" cx="1458.32" cy="855.501" r="14" fill="#0000ff" fill-rule="evenodd" fill-opacity="1" stroke="#000000" stroke-opacity="1" stroke-width="3.2"/>
<circle clip-path="url(#clip812)" cx="1500.4" cy="881.637" r="14" fill="#0000ff" fill-rule="evenodd" fill-opacity="1" stroke="#000000" stroke-opacity="1" stroke-width="3.2"/>
<circle clip-path="url(#clip812)" cx="1540.98" cy="906.834" r="14" fill="#0000ff" fill-rule="evenodd" fill-opacity="1" stroke="#000000" stroke-opacity="1" stroke-width="3.2"/>
<circle clip-path="url(#clip812)" cx="1580" cy="931.068" r="14" fill="#0000ff" fill-rule="evenodd" fill-opacity="1" stroke="#000000" stroke-opacity="1" stroke-width="3.2"/>
<circle clip-path="url(#clip812)" cx="1620.01" cy="955.913" r="14" fill="#0000ff" fill-rule="evenodd" fill-opacity="1" stroke="#000000" stroke-opacity="1" stroke-width="3.2"/>
<circle clip-path="url(#clip812)" cx="1660.22" cy="980.888" r="14" fill="#0000ff" fill-rule="evenodd" fill-opacity="1" stroke="#000000" stroke-opacity="1" stroke-width="3.2"/>
<circle clip-path="url(#clip812)" cx="1698.11" cy="1004.42" r="14" fill="#0000ff" fill-rule="evenodd" fill-opacity="1" stroke="#000000" stroke-opacity="1" stroke-width="3.2"/>
<circle clip-path="url(#clip812)" cx="1739.26" cy="1029.97" r="14" fill="#0000ff" fill-rule="evenodd" fill-opacity="1" stroke="#000000" stroke-opacity="1" stroke-width="3.2"/>
<circle clip-path="url(#clip812)" cx="1779.03" cy="1054.67" r="14" fill="#0000ff" fill-rule="evenodd" fill-opacity="1" stroke="#000000" stroke-opacity="1" stroke-width="3.2"/>
<circle clip-path="url(#clip812)" cx="1818.75" cy="1079.33" r="14" fill="#0000ff" fill-rule="evenodd" fill-opacity="1" stroke="#000000" stroke-opacity="1" stroke-width="3.2"/>
<circle clip-path="url(#clip812)" cx="1857.98" cy="1103.69" r="14" fill="#0000ff" fill-rule="evenodd" fill-opacity="1" stroke="#000000" stroke-opacity="1" stroke-width="3.2"/>
<circle clip-path="url(#clip812)" cx="1897.49" cy="1128.24" r="14" fill="#0000ff" fill-rule="evenodd" fill-opacity="1" stroke="#000000" stroke-opacity="1" stroke-width="3.2"/>
<circle clip-path="url(#clip812)" cx="1937.72" cy="1153.22" r="14" fill="#0000ff" fill-rule="evenodd" fill-opacity="1" stroke="#000000" stroke-opacity="1" stroke-width="3.2"/>
<circle clip-path="url(#clip812)" cx="1977.1" cy="1177.66" r="14" fill="#0000ff" fill-rule="evenodd" fill-opacity="1" stroke="#000000" stroke-opacity="1" stroke-width="3.2"/>
<circle clip-path="url(#clip812)" cx="2016.96" cy="1202.44" r="14" fill="#0000ff" fill-rule="evenodd" fill-opacity="1" stroke="#000000" stroke-opacity="1" stroke-width="3.2"/>
<circle clip-path="url(#clip812)" cx="2056" cy="1226.69" r="14" fill="#0000ff" fill-rule="evenodd" fill-opacity="1" stroke="#000000" stroke-opacity="1" stroke-width="3.2"/>
<circle clip-path="url(#clip812)" cx="2095.83" cy="1251.41" r="14" fill="#0000ff" fill-rule="evenodd" fill-opacity="1" stroke="#000000" stroke-opacity="1" stroke-width="3.2"/>
<circle clip-path="url(#clip812)" cx="2135.75" cy="1276.12" r="14" fill="#0000ff" fill-rule="evenodd" fill-opacity="1" stroke="#000000" stroke-opacity="1" stroke-width="3.2"/>
<circle clip-path="url(#clip812)" cx="2175.24" cy="1300.64" r="14" fill="#0000ff" fill-rule="evenodd" fill-opacity="1" stroke="#000000" stroke-opacity="1" stroke-width="3.2"/>
<circle clip-path="url(#clip812)" cx="2214.83" cy="1324.86" r="14" fill="#0000ff" fill-rule="evenodd" fill-opacity="1" stroke="#000000" stroke-opacity="1" stroke-width="3.2"/>
<circle clip-path="url(#clip812)" cx="2254.78" cy="1350.06" r="14" fill="#0000ff" fill-rule="evenodd" fill-opacity="1" stroke="#000000" stroke-opacity="1" stroke-width="3.2"/>
<circle clip-path="url(#clip812)" cx="2294.49" cy="1374.46" r="14" fill="#0000ff" fill-rule="evenodd" fill-opacity="1" stroke="#000000" stroke-opacity="1" stroke-width="3.2"/>
</svg>
