<?xml version="1.0" encoding="utf-8"?>
<svg xmlns="http://www.w3.org/2000/svg" xmlns:xlink="http://www.w3.org/1999/xlink" width="600" height="400" viewBox="0 0 2400 1600">
<defs>
  <clipPath id="clip770">
    <rect x="0" y="0" width="2400" height="1600"/>
  </clipPath>
</defs>
<path clip-path="url(#clip770)" d="
M0 1600 L2400 1600 L2400 0 L0 0  Z
  " fill="#ffffff" fill-rule="evenodd" fill-opacity="1"/>
<defs>
  <clipPath id="clip771">
    <rect x="480" y="0" width="1681" height="1600"/>
  </clipPath>
</defs>
<path clip-path="url(#clip770)" d="
M281.411 1410.9 L2352.76 1410.9 L2352.76 123.472 L281.411 123.472  Z
  " fill="#ffffff" fill-rule="evenodd" fill-opacity="1"/>
<defs>
  <clipPath id="clip772">
    <rect x="281" y="123" width="2072" height="1288"/>
  </clipPath>
</defs>
<polyline clip-path="url(#clip772)" style="stroke:#000000; stroke-linecap:butt; stroke-linejoin:round; stroke-width:2; stroke-opacity:0.1; fill:none" points="
  745.03,1410.9 745.03,123.472 
  "/>
<polyline clip-path="url(#clip772)" style="stroke:#000000; stroke-linecap:butt; stroke-linejoin:round; stroke-width:2; stroke-opacity:0.1; fill:none" points="
  1519.58,1410.9 1519.58,123.472 
  "/>
<polyline clip-path="url(#clip772)" style="stroke:#000000; stroke-linecap:butt; stroke-linejoin:round; stroke-width:2; stroke-opacity:0.1; fill:none" points="
  2294.13,1410.9 2294.13,123.472 
  "/>
<polyline clip-path="url(#clip770)" style="stroke:#000000; stroke-linecap:butt; stroke-linejoin:round; stroke-width:4; stroke-opacity:1; fill:none" points="
  281.411,1410.9 2352.76,1410.9 
  "/>
<polyline clip-path="url(#clip770)" style="stroke:#000000; stroke-linecap:butt; stroke-linejoin:round; stroke-width:4; stroke-opacity:1; fill:none" points="
  745.03,1410.9 745.03,1392 
  "/>
<polyline clip-path="url(#clip770)" style="stroke:#000000; stroke-linecap:butt; stroke-linejoin:round; stroke-width:4; stroke-opacity:1; fill:none" points="
  1519.58,1410.9 1519.58,1392 
  "/>
<polyline clip-path="url(#clip770)" style="stroke:#000000; stroke-linecap:butt; stroke-linejoin:round; stroke-width:4; stroke-opacity:1; fill:none" points="
  2294.13,1410.9 2294.13,1392 
  "/>
<path clip-path="url(#clip770)" d="M711.358 1485.02 L718.997 1485.02 L718.997 1458.66 L710.687 1460.32 L710.687 1456.06 L718.95 1454.4 L723.626 1454.4 L723.626 1485.02 L731.265 1485.02 L731.265 1488.96 L711.358 1488.96 L711.358 1485.02 Z" fill="#000000" fill-rule="evenodd" fill-opacity="1" /><path clip-path="url(#clip770)" d="M750.71 1457.48 Q747.098 1457.48 745.27 1461.04 Q743.464 1464.58 743.464 1471.71 Q743.464 1478.82 745.27 1482.38 Q747.098 1485.92 750.71 1485.92 Q754.344 1485.92 756.149 1482.38 Q757.978 1478.82 757.978 1471.71 Q757.978 1464.58 756.149 1461.04 Q754.344 1457.48 750.71 1457.48 M750.71 1453.77 Q756.52 1453.77 759.575 1458.38 Q762.654 1462.96 762.654 1471.71 Q762.654 1480.44 759.575 1485.04 Q756.52 1489.63 750.71 1489.63 Q744.899 1489.63 741.821 1485.04 Q738.765 1480.44 738.765 1471.71 Q738.765 1462.96 741.821 1458.38 Q744.899 1453.77 750.71 1453.77 Z" fill="#000000" fill-rule="evenodd" fill-opacity="1" /><path clip-path="url(#clip770)" d="M763.199 1458.35 L769.406 1458.35 L769.406 1436.93 L762.654 1438.28 L762.654 1434.82 L769.368 1433.47 L773.167 1433.47 L773.167 1458.35 L779.374 1458.35 L779.374 1461.55 L763.199 1461.55 L763.199 1458.35 Z" fill="#000000" fill-rule="evenodd" fill-opacity="1" /><path clip-path="url(#clip770)" d="M1485.35 1485.02 L1492.99 1485.02 L1492.99 1458.66 L1484.68 1460.32 L1484.68 1456.06 L1492.95 1454.4 L1497.62 1454.4 L1497.62 1485.02 L1505.26 1485.02 L1505.26 1488.96 L1485.35 1488.96 L1485.35 1485.02 Z" fill="#000000" fill-rule="evenodd" fill-opacity="1" /><path clip-path="url(#clip770)" d="M1524.71 1457.48 Q1521.09 1457.48 1519.27 1461.04 Q1517.46 1464.58 1517.46 1471.71 Q1517.46 1478.82 1519.27 1482.38 Q1521.09 1485.92 1524.71 1485.92 Q1528.34 1485.92 1530.15 1482.38 Q1531.97 1478.82 1531.97 1471.71 Q1531.97 1464.58 1530.15 1461.04 Q1528.34 1457.48 1524.71 1457.48 M1524.71 1453.77 Q1530.52 1453.77 1533.57 1458.38 Q1536.65 1462.96 1536.65 1471.71 Q1536.65 1480.44 1533.57 1485.04 Q1530.52 1489.63 1524.71 1489.63 Q1518.9 1489.63 1515.82 1485.04 Q1512.76 1480.44 1512.76 1471.71 Q1512.76 1462.96 1515.82 1458.38 Q1518.9 1453.77 1524.71 1453.77 Z" fill="#000000" fill-rule="evenodd" fill-opacity="1" /><path clip-path="url(#clip770)" d="M1541.22 1458.35 L1554.48 1458.35 L1554.48 1461.55 L1536.65 1461.55 L1536.65 1458.35 Q1538.81 1456.11 1542.54 1452.35 Q1546.28 1448.57 1547.24 1447.48 Q1549.06 1445.43 1549.78 1444.02 Q1550.51 1442.59 1550.51 1441.22 Q1550.51 1438.98 1548.93 1437.57 Q1547.37 1436.16 1544.85 1436.16 Q1543.06 1436.16 1541.07 1436.78 Q1539.1 1437.4 1536.84 1438.66 L1536.84 1434.82 Q1539.13 1433.9 1541.13 1433.43 Q1543.12 1432.96 1544.78 1432.96 Q1549.14 1432.96 1551.73 1435.14 Q1554.33 1437.32 1554.33 1440.97 Q1554.33 1442.7 1553.67 1444.26 Q1553.03 1445.8 1551.32 1447.91 Q1550.85 1448.46 1548.33 1451.07 Q1545.81 1453.67 1541.22 1458.35 Z" fill="#000000" fill-rule="evenodd" fill-opacity="1" /><path clip-path="url(#clip770)" d="M2259.58 1485.02 L2267.22 1485.02 L2267.22 1458.66 L2258.91 1460.32 L2258.91 1456.06 L2267.17 1454.4 L2271.85 1454.4 L2271.85 1485.02 L2279.48 1485.02 L2279.48 1488.96 L2259.58 1488.96 L2259.58 1485.02 Z" fill="#000000" fill-rule="evenodd" fill-opacity="1" /><path clip-path="url(#clip770)" d="M2298.93 1457.48 Q2295.32 1457.48 2293.49 1461.04 Q2291.68 1464.58 2291.68 1471.71 Q2291.68 1478.82 2293.49 1482.38 Q2295.32 1485.92 2298.93 1485.92 Q2302.56 1485.92 2304.37 1482.38 Q2306.2 1478.82 2306.2 1471.71 Q2306.2 1464.58 2304.37 1461.04 Q2302.56 1457.48 2298.93 1457.48 M2298.93 1453.77 Q2304.74 1453.77 2307.79 1458.38 Q2310.87 1462.96 2310.87 1471.71 Q2310.87 1480.44 2307.79 1485.04 Q2304.74 1489.63 2298.93 1489.63 Q2293.12 1489.63 2290.04 1485.04 Q2286.98 1480.44 2286.98 1471.71 Q2286.98 1462.96 2290.04 1458.38 Q2293.12 1453.77 2298.93 1453.77 Z" fill="#000000" fill-rule="evenodd" fill-opacity="1" /><path clip-path="url(#clip770)" d="M2323.57 1446.41 Q2326.29 1446.99 2327.82 1448.83 Q2329.36 1450.68 2329.36 1453.38 Q2329.36 1457.54 2326.5 1459.82 Q2323.64 1462.09 2318.38 1462.09 Q2316.61 1462.09 2314.73 1461.73 Q2312.87 1461.4 2310.87 1460.7 L2310.87 1457.03 Q2312.45 1457.95 2314.33 1458.42 Q2316.21 1458.89 2318.26 1458.89 Q2321.84 1458.89 2323.7 1457.48 Q2325.58 1456.07 2325.58 1453.38 Q2325.58 1450.9 2323.83 1449.51 Q2322.1 1448.1 2319 1448.1 L2315.72 1448.1 L2315.72 1444.98 L2319.15 1444.98 Q2321.95 1444.98 2323.44 1443.87 Q2324.92 1442.74 2324.92 1440.63 Q2324.92 1438.47 2323.38 1437.32 Q2321.86 1436.16 2319 1436.16 Q2317.44 1436.16 2315.65 1436.49 Q2313.86 1436.83 2311.72 1437.55 L2311.72 1434.16 Q2313.88 1433.56 2315.76 1433.26 Q2317.66 1432.96 2319.34 1432.96 Q2323.66 1432.96 2326.18 1434.93 Q2328.7 1436.89 2328.7 1440.24 Q2328.7 1442.57 2327.37 1444.19 Q2326.03 1445.79 2323.57 1446.41 Z" fill="#000000" fill-rule="evenodd" fill-opacity="1" /><path clip-path="url(#clip770)" d="M1118.66 1545.51 L1109.4 1545.51 L1106.73 1556.14 L1116.05 1556.14 L1118.66 1545.51 M1113.89 1527.4 L1110.58 1540.61 L1119.87 1540.61 L1123.22 1527.4 L1128.31 1527.4 L1125.03 1540.61 L1134.96 1540.61 L1134.96 1545.51 L1123.79 1545.51 L1121.18 1556.14 L1131.3 1556.14 L1131.3 1561.01 L1119.94 1561.01 L1116.63 1574.19 L1111.53 1574.19 L1114.81 1561.01 L1105.49 1561.01 L1102.21 1574.19 L1097.08 1574.19 L1100.39 1561.01 L1090.37 1561.01 L1090.37 1556.14 L1101.57 1556.14 L1104.25 1545.51 L1094 1545.51 L1094 1540.61 L1105.49 1540.61 L1108.73 1527.4 L1113.89 1527.4 Z" fill="#000000" fill-rule="evenodd" fill-opacity="1" /><path clip-path="url(#clip770)" d="M1180.63 1542.64 Q1175.92 1542.64 1173.19 1546.34 Q1170.45 1550 1170.45 1556.39 Q1170.45 1562.79 1173.15 1566.48 Q1175.89 1570.14 1180.63 1570.14 Q1185.31 1570.14 1188.05 1566.45 Q1190.79 1562.76 1190.79 1556.39 Q1190.79 1550.06 1188.05 1546.37 Q1185.31 1542.64 1180.63 1542.64 M1180.63 1537.68 Q1188.27 1537.68 1192.63 1542.64 Q1196.99 1547.61 1196.99 1556.39 Q1196.99 1565.15 1192.63 1570.14 Q1188.27 1575.11 1180.63 1575.11 Q1172.96 1575.11 1168.6 1570.14 Q1164.27 1565.15 1164.27 1556.39 Q1164.27 1547.61 1168.6 1542.64 Q1172.96 1537.68 1180.63 1537.68 Z" fill="#000000" fill-rule="evenodd" fill-opacity="1" /><path clip-path="url(#clip770)" d="M1224.75 1524.66 L1224.75 1529.53 L1219.15 1529.53 Q1216 1529.53 1214.75 1530.8 Q1213.55 1532.08 1213.55 1535.39 L1213.55 1538.54 L1223.19 1538.54 L1223.19 1543.09 L1213.55 1543.09 L1213.55 1574.19 L1207.66 1574.19 L1207.66 1543.09 L1202.06 1543.09 L1202.06 1538.54 L1207.66 1538.54 L1207.66 1536.05 Q1207.66 1530.1 1210.43 1527.4 Q1213.2 1524.66 1219.21 1524.66 L1224.75 1524.66 Z" fill="#000000" fill-rule="evenodd" fill-opacity="1" /><path clip-path="url(#clip770)" d="M1280.86 1554.9 L1280.86 1557.76 L1253.94 1557.76 Q1254.32 1563.81 1257.56 1566.99 Q1260.84 1570.14 1266.67 1570.14 Q1270.04 1570.14 1273.19 1569.32 Q1276.37 1568.49 1279.49 1566.83 L1279.49 1572.37 Q1276.34 1573.71 1273.03 1574.41 Q1269.72 1575.11 1266.32 1575.11 Q1257.79 1575.11 1252.79 1570.14 Q1247.82 1565.18 1247.82 1556.71 Q1247.82 1547.96 1252.54 1542.83 Q1257.28 1537.68 1265.3 1537.68 Q1272.49 1537.68 1276.66 1542.33 Q1280.86 1546.94 1280.86 1554.9 M1275.01 1553.18 Q1274.94 1548.37 1272.3 1545.51 Q1269.69 1542.64 1265.36 1542.64 Q1260.46 1542.64 1257.5 1545.41 Q1254.57 1548.18 1254.13 1553.21 L1275.01 1553.18 Z" fill="#000000" fill-rule="evenodd" fill-opacity="1" /><path clip-path="url(#clip770)" d="M1290.47 1524.66 L1296.33 1524.66 L1296.33 1574.19 L1290.47 1574.19 L1290.47 1524.66 Z" fill="#000000" fill-rule="evenodd" fill-opacity="1" /><path clip-path="url(#clip770)" d="M1339.08 1554.9 L1339.08 1557.76 L1312.15 1557.76 Q1312.53 1563.81 1315.78 1566.99 Q1319.06 1570.14 1324.88 1570.14 Q1328.26 1570.14 1331.41 1569.32 Q1334.59 1568.49 1337.71 1566.83 L1337.71 1572.37 Q1334.56 1573.71 1331.25 1574.41 Q1327.94 1575.11 1324.53 1575.11 Q1316 1575.11 1311 1570.14 Q1306.04 1565.18 1306.04 1556.71 Q1306.04 1547.96 1310.75 1542.83 Q1315.49 1537.68 1323.51 1537.68 Q1330.71 1537.68 1334.88 1542.33 Q1339.08 1546.94 1339.08 1554.9 M1333.22 1553.18 Q1333.16 1548.37 1330.52 1545.51 Q1327.91 1542.64 1323.58 1542.64 Q1318.67 1542.64 1315.71 1545.41 Q1312.79 1548.18 1312.34 1553.21 L1333.22 1553.18 Z" fill="#000000" fill-rule="evenodd" fill-opacity="1" /><path clip-path="url(#clip770)" d="M1376.44 1545.38 Q1378.64 1541.43 1381.7 1539.56 Q1384.75 1537.68 1388.89 1537.68 Q1394.46 1537.68 1397.48 1541.59 Q1400.51 1545.48 1400.51 1552.67 L1400.51 1574.19 L1394.62 1574.19 L1394.62 1552.86 Q1394.62 1547.74 1392.8 1545.25 Q1390.99 1542.77 1387.27 1542.77 Q1382.71 1542.77 1380.07 1545.79 Q1377.43 1548.82 1377.43 1554.04 L1377.43 1574.19 L1371.54 1574.19 L1371.54 1552.86 Q1371.54 1547.7 1369.73 1545.25 Q1367.91 1542.77 1364.13 1542.77 Q1359.64 1542.77 1357 1545.83 Q1354.35 1548.85 1354.35 1554.04 L1354.35 1574.19 L1348.47 1574.19 L1348.47 1538.54 L1354.35 1538.54 L1354.35 1544.08 Q1356.36 1540.8 1359.16 1539.24 Q1361.96 1537.68 1365.81 1537.68 Q1369.7 1537.68 1372.4 1539.65 Q1375.14 1541.62 1376.44 1545.38 Z" fill="#000000" fill-rule="evenodd" fill-opacity="1" /><path clip-path="url(#clip770)" d="M1442.68 1554.9 L1442.68 1557.76 L1415.75 1557.76 Q1416.13 1563.81 1419.38 1566.99 Q1422.66 1570.14 1428.48 1570.14 Q1431.86 1570.14 1435.01 1569.32 Q1438.19 1568.49 1441.31 1566.83 L1441.31 1572.37 Q1438.16 1573.71 1434.85 1574.41 Q1431.54 1575.11 1428.13 1575.11 Q1419.6 1575.11 1414.61 1570.14 Q1409.64 1565.18 1409.64 1556.71 Q1409.64 1547.96 1414.35 1542.83 Q1419.09 1537.68 1427.11 1537.68 Q1434.31 1537.68 1438.48 1542.33 Q1442.68 1546.94 1442.68 1554.9 M1436.82 1553.18 Q1436.76 1548.37 1434.12 1545.51 Q1431.51 1542.64 1427.18 1542.64 Q1422.28 1542.64 1419.32 1545.41 Q1416.39 1548.18 1415.94 1553.21 L1436.82 1553.18 Z" fill="#000000" fill-rule="evenodd" fill-opacity="1" /><path clip-path="url(#clip770)" d="M1481.92 1552.67 L1481.92 1574.19 L1476.07 1574.19 L1476.07 1552.86 Q1476.07 1547.8 1474.09 1545.29 Q1472.12 1542.77 1468.17 1542.77 Q1463.43 1542.77 1460.69 1545.79 Q1457.96 1548.82 1457.96 1554.04 L1457.96 1574.19 L1452.07 1574.19 L1452.07 1538.54 L1457.96 1538.54 L1457.96 1544.08 Q1460.06 1540.86 1462.89 1539.27 Q1465.75 1537.68 1469.48 1537.68 Q1475.62 1537.68 1478.77 1541.5 Q1481.92 1545.29 1481.92 1552.67 Z" fill="#000000" fill-rule="evenodd" fill-opacity="1" /><path clip-path="url(#clip770)" d="M1499.4 1528.42 L1499.4 1538.54 L1511.46 1538.54 L1511.46 1543.09 L1499.4 1543.09 L1499.4 1562.44 Q1499.4 1566.8 1500.57 1568.04 Q1501.78 1569.28 1505.44 1569.28 L1511.46 1569.28 L1511.46 1574.19 L1505.44 1574.19 Q1498.67 1574.19 1496.09 1571.67 Q1493.51 1569.12 1493.51 1562.44 L1493.51 1543.09 L1489.21 1543.09 L1489.21 1538.54 L1493.51 1538.54 L1493.51 1528.42 L1499.4 1528.42 Z" fill="#000000" fill-rule="evenodd" fill-opacity="1" /><path clip-path="url(#clip770)" d="M1541.89 1539.59 L1541.89 1545.13 Q1539.41 1543.85 1536.73 1543.22 Q1534.06 1542.58 1531.19 1542.58 Q1526.83 1542.58 1524.64 1543.92 Q1522.47 1545.25 1522.47 1547.93 Q1522.47 1549.96 1524.03 1551.14 Q1525.59 1552.29 1530.3 1553.34 L1532.31 1553.78 Q1538.55 1555.12 1541.16 1557.57 Q1543.8 1559.99 1543.8 1564.35 Q1543.8 1569.32 1539.85 1572.21 Q1535.94 1575.11 1529.06 1575.11 Q1526.2 1575.11 1523.08 1574.54 Q1519.99 1573.99 1516.55 1572.88 L1516.55 1566.83 Q1519.8 1568.52 1522.95 1569.38 Q1526.1 1570.21 1529.19 1570.21 Q1533.33 1570.21 1535.55 1568.81 Q1537.78 1567.37 1537.78 1564.8 Q1537.78 1562.41 1536.16 1561.14 Q1534.57 1559.86 1529.13 1558.68 L1527.09 1558.21 Q1521.65 1557.06 1519.23 1554.71 Q1516.81 1552.32 1516.81 1548.18 Q1516.81 1543.15 1520.37 1540.42 Q1523.94 1537.68 1530.49 1537.68 Q1533.74 1537.68 1536.6 1538.16 Q1539.47 1538.63 1541.89 1539.59 Z" fill="#000000" fill-rule="evenodd" fill-opacity="1" /><polyline clip-path="url(#clip772)" style="stroke:#000000; stroke-linecap:butt; stroke-linejoin:round; stroke-width:2; stroke-opacity:0.1; fill:none" points="
  281.411,1139.54 2352.76,1139.54 
  "/>
<polyline clip-path="url(#clip772)" style="stroke:#000000; stroke-linecap:butt; stroke-linejoin:round; stroke-width:2; stroke-opacity:0.1; fill:none" points="
  281.411,595.431 2352.76,595.431 
  "/>
<polyline clip-path="url(#clip770)" style="stroke:#000000; stroke-linecap:butt; stroke-linejoin:round; stroke-width:4; stroke-opacity:1; fill:none" points="
  281.411,1410.9 281.411,123.472 
  "/>
<polyline clip-path="url(#clip770)" style="stroke:#000000; stroke-linecap:butt; stroke-linejoin:round; stroke-width:4; stroke-opacity:1; fill:none" points="
  281.411,1139.54 300.309,1139.54 
  "/>
<polyline clip-path="url(#clip770)" style="stroke:#000000; stroke-linecap:butt; stroke-linejoin:round; stroke-width:4; stroke-opacity:1; fill:none" points="
  281.411,595.431 300.309,595.431 
  "/>
<path clip-path="url(#clip770)" d="M120.276 1159.34 L127.914 1159.34 L127.914 1132.97 L119.604 1134.64 L119.604 1130.38 L127.868 1128.71 L132.544 1128.71 L132.544 1159.34 L140.183 1159.34 L140.183 1163.27 L120.276 1163.27 L120.276 1159.34 Z" fill="#000000" fill-rule="evenodd" fill-opacity="1" /><path clip-path="url(#clip770)" d="M159.627 1131.79 Q156.016 1131.79 154.187 1135.35 Q152.382 1138.9 152.382 1146.03 Q152.382 1153.13 154.187 1156.7 Q156.016 1160.24 159.627 1160.24 Q163.261 1160.24 165.067 1156.7 Q166.896 1153.13 166.896 1146.03 Q166.896 1138.9 165.067 1135.35 Q163.261 1131.79 159.627 1131.79 M159.627 1128.09 Q165.437 1128.09 168.493 1132.69 Q171.572 1137.28 171.572 1146.03 Q171.572 1154.75 168.493 1159.36 Q165.437 1163.94 159.627 1163.94 Q153.817 1163.94 150.738 1159.36 Q147.683 1154.75 147.683 1146.03 Q147.683 1137.28 150.738 1132.69 Q153.817 1128.09 159.627 1128.09 Z" fill="#000000" fill-rule="evenodd" fill-opacity="1" /><path clip-path="url(#clip770)" d="M171.572 1122.19 L195.683 1122.19 L195.683 1125.38 L171.572 1125.38 L171.572 1122.19 Z" fill="#000000" fill-rule="evenodd" fill-opacity="1" /><path clip-path="url(#clip770)" d="M204.542 1132.66 L210.748 1132.66 L210.748 1111.24 L203.996 1112.6 L203.996 1109.14 L210.711 1107.78 L214.51 1107.78 L214.51 1132.66 L220.716 1132.66 L220.716 1135.86 L204.542 1135.86 L204.542 1132.66 Z" fill="#000000" fill-rule="evenodd" fill-opacity="1" /><path clip-path="url(#clip770)" d="M228.428 1107.78 L243.342 1107.78 L243.342 1110.98 L231.907 1110.98 L231.907 1117.86 Q232.734 1117.58 233.562 1117.45 Q234.39 1117.3 235.217 1117.3 Q239.919 1117.3 242.665 1119.87 Q245.411 1122.45 245.411 1126.85 Q245.411 1131.38 242.59 1133.9 Q239.769 1136.41 234.634 1136.41 Q232.866 1136.41 231.023 1136.11 Q229.199 1135.8 227.243 1135.2 L227.243 1131.38 Q228.935 1132.31 230.741 1132.76 Q232.546 1133.21 234.559 1133.21 Q237.813 1133.21 239.712 1131.5 Q241.612 1129.79 241.612 1126.85 Q241.612 1123.92 239.712 1122.21 Q237.813 1120.49 234.559 1120.49 Q233.035 1120.49 231.512 1120.83 Q230.007 1121.17 228.428 1121.89 L228.428 1107.78 Z" fill="#000000" fill-rule="evenodd" fill-opacity="1" /><path clip-path="url(#clip770)" d="M119.467 615.223 L127.106 615.223 L127.106 588.857 L118.796 590.524 L118.796 586.265 L127.059 584.598 L131.735 584.598 L131.735 615.223 L139.374 615.223 L139.374 619.158 L119.467 619.158 L119.467 615.223 Z" fill="#000000" fill-rule="evenodd" fill-opacity="1" /><path clip-path="url(#clip770)" d="M158.819 587.677 Q155.207 587.677 153.379 591.242 Q151.573 594.783 151.573 601.913 Q151.573 609.019 153.379 612.584 Q155.207 616.126 158.819 616.126 Q162.453 616.126 164.258 612.584 Q166.087 609.019 166.087 601.913 Q166.087 594.783 164.258 591.242 Q162.453 587.677 158.819 587.677 M158.819 583.973 Q164.629 583.973 167.684 588.58 Q170.763 593.163 170.763 601.913 Q170.763 610.64 167.684 615.246 Q164.629 619.83 158.819 619.83 Q153.008 619.83 149.93 615.246 Q146.874 610.64 146.874 601.913 Q146.874 593.163 149.93 588.58 Q153.008 583.973 158.819 583.973 Z" fill="#000000" fill-rule="evenodd" fill-opacity="1" /><path clip-path="url(#clip770)" d="M170.763 578.075 L194.874 578.075 L194.874 581.272 L170.763 581.272 L170.763 578.075 Z" fill="#000000" fill-rule="evenodd" fill-opacity="1" /><path clip-path="url(#clip770)" d="M203.733 588.551 L209.939 588.551 L209.939 567.128 L203.187 568.483 L203.187 565.022 L209.902 563.668 L213.701 563.668 L213.701 588.551 L219.908 588.551 L219.908 591.748 L203.733 591.748 L203.733 588.551 Z" fill="#000000" fill-rule="evenodd" fill-opacity="1" /><path clip-path="url(#clip770)" d="M235.706 566.169 Q232.772 566.169 231.286 569.066 Q229.819 571.943 229.819 577.736 Q229.819 583.51 231.286 586.406 Q232.772 589.284 235.706 589.284 Q238.659 589.284 240.126 586.406 Q241.612 583.51 241.612 577.736 Q241.612 571.943 240.126 569.066 Q238.659 566.169 235.706 566.169 M235.706 563.16 Q240.427 563.16 242.909 566.903 Q245.411 570.627 245.411 577.736 Q245.411 584.827 242.909 588.569 Q240.427 592.293 235.706 592.293 Q230.985 592.293 228.484 588.569 Q226.001 584.827 226.001 577.736 Q226.001 570.627 228.484 566.903 Q230.985 563.16 235.706 563.16 Z" fill="#000000" fill-rule="evenodd" fill-opacity="1" /><path clip-path="url(#clip770)" d="M77.6144 1107 L16.1978 1107 Q13.7502 1107 13.7502 1105.68 Q13.7502 1104.36 15.7147 1104.36 L77.1313 1104.36 Q79.5789 1104.36 79.5789 1105.68 Q79.5789 1107 77.6144 1107 Z" fill="#000000" fill-rule="evenodd" fill-opacity="1" /><path clip-path="url(#clip770)" d="M77.6144 1089.27 L16.1978 1089.27 Q13.7502 1089.27 13.7502 1087.95 Q13.7502 1086.63 15.7147 1086.63 L77.1313 1086.63 Q79.5789 1086.63 79.5789 1087.95 Q79.5789 1089.27 77.6144 1089.27 Z" fill="#000000" fill-rule="evenodd" fill-opacity="1" /><path clip-path="url(#clip770)" d="M38.6131 1018.38 Q41.0929 1018.38 46.5679 1019.73 Q52.0429 1021.08 55.7788 1022.73 Q63.8947 1026.24 63.8947 1032.29 Q63.8947 1033.03 63.8303 1033.77 Q63.7659 1034.48 63.476 1035.54 Q63.1862 1036.61 62.7353 1037.48 Q62.2522 1038.35 61.3504 1039.22 Q60.4487 1040.05 59.257 1040.54 Q63.8947 1043.21 63.8947 1047.4 Q63.8947 1051.45 61.8335 1054.13 Q59.7723 1056.77 55.5534 1056.77 Q53.6532 1056.77 50.8513 1055.99 Q48.0494 1055.22 42.2523 1053.06 Q39.2572 1051.87 37.6147 1051.87 Q36.874 1051.87 36.3909 1052.03 Q35.9078 1052.19 35.7468 1052.52 Q35.5535 1052.81 35.5213 1053 Q35.4569 1053.19 35.4569 1053.51 Q35.4569 1055.45 37.4215 1057.19 Q39.3538 1058.93 43.6372 1060.18 Q44.4423 1060.44 44.6356 1060.6 Q44.8288 1060.76 44.8288 1061.24 Q44.7966 1062.05 44.1525 1062.05 Q43.8948 1062.05 42.8965 1061.76 Q41.8659 1061.47 40.3522 1060.79 Q38.8063 1060.08 37.4215 1059.12 Q36.0044 1058.15 35.006 1056.64 Q34.0076 1055.09 34.0076 1053.32 Q34.0076 1050.94 35.5857 1049.42 Q37.1638 1047.91 39.4182 1047.91 Q40.0623 1047.91 40.7709 1048.07 Q41.4472 1048.23 41.8981 1048.39 Q42.3168 1048.52 43.6372 1049.04 Q49.2088 1051.16 51.8819 1051.84 Q54.555 1052.48 56.4229 1052.48 Q57.0348 1052.48 57.5179 1052.45 Q58.001 1052.42 58.9994 1052.16 Q59.9978 1051.87 60.6741 1051.36 Q61.3182 1050.84 61.8657 1049.78 Q62.4132 1048.68 62.4132 1047.2 Q62.4132 1043.5 56.8738 1041.12 Q56.5517 1041.18 55.7144 1041.18 Q53.8465 1041.18 51.3344 1040.6 Q50.7547 1040.44 47.051 1039.51 Q43.3151 1038.57 40.0623 1037.77 Q36.7773 1036.93 36.5841 1036.83 Q35.6823 1036.51 35.1993 1035.8 Q34.7162 1035.09 34.7162 1034.38 Q34.7162 1033.58 35.1993 1033.03 Q35.6823 1032.48 36.5197 1032.48 Q36.6807 1032.48 37.4215 1032.68 Q38.13 1032.84 39.1928 1033.1 Q40.2556 1033.35 40.8031 1033.48 L51.8819 1036.25 Q54.4584 1036.96 56.6806 1036.96 Q59.4825 1036.96 60.964 1035.7 Q62.4132 1034.45 62.4132 1032.1 Q62.4132 1027.69 56.6162 1024.85 Q54.1041 1023.56 50.175 1022.4 Q46.2459 1021.21 44.539 1021.21 Q41.3184 1021.21 38.9351 1023.6 Q38.4843 1024.11 38.13 1024.34 Q37.7435 1024.56 37.1638 1024.56 Q36.0688 1024.56 35.0382 1023.53 Q34.0076 1022.5 34.0076 1021.28 Q34.0076 1020.18 35.1026 1019.28 Q36.1654 1018.38 38.6131 1018.38 Z" fill="#000000" fill-rule="evenodd" fill-opacity="1" /><path clip-path="url(#clip770)" d="M82.9261 1011.76 L81.5059 1011.76 Q81.5059 1009.3 81.2128 1008.74 Q80.8972 1008.17 79.4093 1008.17 L67.0325 1008.17 Q65.3192 1008.17 64.8909 1008.78 Q64.4625 1009.37 64.4625 1011.76 L63.0197 1011.76 L62.5237 1005.27 L67.3707 1005.27 Q62.5237 1003.1 62.5237 998.436 Q62.5237 994.964 64.2371 993.589 Q65.3868 992.574 66.6718 992.371 Q67.9569 992.146 71.2934 992.146 L80.1081 992.146 Q81.0775 992.101 81.303 991.357 Q81.5059 990.613 81.5059 988.539 L82.9261 988.539 Q82.7909 993.251 82.7909 993.724 Q82.7909 994.085 82.9261 998.932 L81.5059 998.932 Q81.5059 996.474 81.2128 995.911 Q80.8972 995.325 79.4093 995.325 L68.6557 995.325 Q66.3111 995.325 64.9359 996.046 Q63.5382 996.768 63.5382 998.751 Q63.5382 1001.14 65.5446 1003.06 Q67.5511 1004.97 70.9327 1004.97 L79.4093 1004.97 Q80.8972 1004.97 81.2128 1004.41 Q81.5059 1003.82 81.5059 1001.39 L82.9261 1001.39 Q82.7909 1006.1 82.7909 1006.55 Q82.7909 1006.91 82.9261 1011.76 Z" fill="#000000" fill-rule="evenodd" fill-opacity="1" /><path clip-path="url(#clip770)" d="M64.4625 986.209 L63.0197 986.209 L62.5237 979.423 L77.8537 979.423 Q78.9584 979.423 79.6122 979.333 Q80.2434 979.243 80.9873 978.882 Q81.7313 978.499 82.0695 977.642 Q82.4076 976.763 82.4076 975.365 Q82.4076 972.863 80.3561 971.33 Q78.3046 969.774 75.2611 969.774 L67.0325 969.774 Q65.3192 969.774 64.8909 970.383 Q64.4625 970.992 64.4625 973.381 L63.0197 973.381 L62.5237 966.596 L78.9133 966.596 Q80.6266 966.596 81.0775 966.009 Q81.5059 965.401 81.5059 962.988 L82.9261 962.988 L83.4447 969.639 L79.274 969.639 Q83.4221 971.578 83.4447 975.591 Q83.4447 977.62 82.9261 979.017 Q82.4076 980.393 81.7764 981.091 Q81.1226 981.79 79.8827 982.173 Q78.6428 982.534 77.8763 982.579 Q77.1098 982.624 75.6218 982.624 L68.7008 982.624 Q65.5672 982.624 65.0261 983.075 Q64.4625 983.526 64.4625 986.209 Z" fill="#000000" fill-rule="evenodd" fill-opacity="1" /><path clip-path="url(#clip770)" d="M82.9261 961.398 L81.5059 961.398 Q81.5059 958.94 81.2128 958.377 Q80.8972 957.813 79.4093 957.813 L67.0325 957.813 Q65.3192 957.813 64.8909 958.422 Q64.4625 959.008 64.4625 961.398 L63.0197 961.398 L62.5237 954.905 L67.3707 954.905 Q62.5237 952.741 62.5237 948.074 Q62.5237 942.663 67.0325 941.919 Q65.2741 941.13 63.8989 939.485 Q62.5237 937.816 62.5237 935.224 Q62.5237 931.752 64.2371 930.377 Q65.3868 929.362 66.6718 929.16 Q67.9569 928.957 71.2934 928.957 L80.1081 928.957 Q81.0775 928.912 81.303 928.168 Q81.5059 927.424 81.5059 925.35 L82.9261 925.35 Q82.7909 930.061 82.7909 930.512 Q82.7909 930.873 82.9261 935.742 L81.5059 935.742 Q81.5059 933.285 81.2128 932.721 Q80.8972 932.135 79.4093 932.135 L68.6557 932.135 Q66.3111 932.135 64.9359 932.857 Q63.5382 933.578 63.5382 935.562 Q63.5382 937.952 65.5446 939.868 Q67.5511 941.784 70.9327 941.784 L79.4093 941.784 Q80.8972 941.784 81.2128 941.221 Q81.5059 940.634 81.5059 938.177 L82.9261 938.177 Q82.7909 942.889 82.7909 943.362 Q82.7909 943.723 82.9261 948.57 L81.5059 948.57 Q81.5059 946.113 81.2128 945.549 Q80.8972 944.963 79.4093 944.963 L68.6557 944.963 Q66.3111 944.963 64.9359 945.684 Q63.5382 946.406 63.5382 948.39 Q63.5382 950.779 65.5446 952.696 Q67.5511 954.612 70.9327 954.612 L79.4093 954.612 Q80.8972 954.612 81.2128 954.048 Q81.5059 953.462 81.5059 951.027 L82.9261 951.027 Q82.7909 955.739 82.7909 956.19 Q82.7909 956.551 82.9261 961.398 Z" fill="#000000" fill-rule="evenodd" fill-opacity="1" /><path clip-path="url(#clip770)" d="M72.7587 922.588 Q68.4077 922.588 65.3192 919.792 Q62.2307 916.997 62.2307 912.984 Q62.2307 908.926 64.8683 906.829 Q67.506 904.71 71.2934 904.71 Q71.9922 904.71 72.1275 904.89 Q72.2628 905.071 72.2628 905.86 L72.2628 918.755 Q76.9745 918.755 79.1838 917.357 Q82.2724 915.419 82.2724 912.15 Q82.2724 911.699 82.1822 911.158 Q82.092 910.617 81.7088 909.512 Q81.303 908.407 80.2434 907.438 Q79.1838 906.469 77.5156 905.905 Q76.8618 905.77 76.8843 905.319 Q76.8843 904.71 77.4254 904.71 Q77.8312 904.71 78.7555 905.161 Q79.6572 905.589 80.7394 906.423 Q81.8215 907.258 82.6331 908.881 Q83.4447 910.481 83.4447 912.42 Q83.4447 916.478 80.3787 919.544 Q77.2901 922.588 72.7587 922.588 M71.2934 918.71 L71.2934 907.754 Q70.324 907.754 69.2419 907.934 Q68.1597 908.092 66.6718 908.588 Q65.1614 909.061 64.2145 910.188 Q63.2677 911.315 63.2677 912.984 Q63.2677 913.728 63.5833 914.539 Q63.8989 915.328 64.6654 916.298 Q65.4319 917.267 67.1678 917.943 Q68.9037 918.62 71.2934 918.71 Z" fill="#000000" fill-rule="evenodd" fill-opacity="1" /><path clip-path="url(#clip770)" d="M82.9261 903.215 L81.5059 903.215 Q81.5059 900.757 81.2128 900.194 Q80.8972 899.607 79.4093 899.607 L67.0325 899.607 Q65.3192 899.607 64.8909 900.216 Q64.4625 900.802 64.4625 903.215 L63.0197 903.215 L62.5237 896.789 L67.5961 896.789 Q65.6123 896.136 64.0793 894.76 Q62.5237 893.363 62.5237 891.108 Q62.5237 889.62 63.3579 888.674 Q64.192 887.704 65.3417 887.704 Q66.3562 887.704 66.8747 888.335 Q67.3707 888.944 67.3707 889.688 Q67.3707 890.522 66.8522 891.108 Q66.3111 891.672 65.3868 891.672 Q64.8232 891.672 64.3949 891.424 Q63.944 891.153 63.7862 890.951 Q63.6284 890.748 63.5833 890.612 Q63.5382 890.703 63.5382 891.108 Q63.5382 893.656 66.0857 895.121 Q68.6106 896.564 72.2177 896.564 L79.3191 896.564 Q80.6492 896.564 81.0775 896.023 Q81.5059 895.459 81.5059 893.047 L81.5059 892.078 L82.9261 892.078 Q82.7909 893.926 82.7909 897.939 Q82.7909 898.503 82.8134 899.382 Q82.836 900.261 82.881 901.411 Q82.9261 902.561 82.9261 903.215 Z" fill="#000000" fill-rule="evenodd" fill-opacity="1" /><path clip-path="url(#clip770)" d="M82.9261 885.934 L81.5059 885.934 Q81.5059 883.477 81.2128 882.914 Q80.8972 882.35 79.4093 882.35 L66.9875 882.35 Q65.2741 882.35 64.8683 882.936 Q64.4625 883.5 64.4625 885.754 L63.0197 885.754 L62.5237 879.307 L79.4543 879.307 Q80.8295 879.307 81.1677 878.811 Q81.5059 878.315 81.5059 876.06 L82.9261 876.06 Q82.7909 880.772 82.7909 880.862 Q82.7909 881.493 82.9261 885.934 M54.4755 883.996 Q53.5512 883.996 52.8072 883.297 Q52.0407 882.575 52.0407 881.561 Q52.0407 880.546 52.7396 879.825 Q53.4159 879.104 54.498 879.104 Q55.5576 879.104 56.2565 879.825 Q56.9328 880.546 56.9328 881.561 Q56.9328 882.62 56.1888 883.319 Q55.4449 883.996 54.4755 883.996 Z" fill="#000000" fill-rule="evenodd" fill-opacity="1" /><path clip-path="url(#clip770)" d="M80.4012 869.05 Q77.3352 871.98 72.9616 871.98 Q68.5655 871.98 65.4094 869.095 Q62.2307 866.209 62.2307 861.971 Q62.2307 859.153 63.5833 857.034 Q64.9134 854.914 67.1904 854.914 Q68.2048 854.914 68.791 855.523 Q69.3546 856.109 69.3546 857.034 Q69.3546 858.003 68.7684 858.589 Q68.1597 859.153 67.2354 859.153 Q66.8296 859.153 66.4239 859.018 Q66.0181 858.882 65.5897 858.386 Q65.1614 857.868 65.0938 856.989 Q63.4029 858.634 63.4029 861.836 Q63.4029 861.881 63.4029 861.926 Q63.4029 864.27 65.6123 866.209 Q67.8216 868.148 72.8715 868.148 Q75.5091 868.148 77.4479 867.517 Q79.3642 866.863 80.3561 865.803 Q81.348 864.744 81.8215 863.707 Q82.2724 862.67 82.2724 861.655 Q82.2724 857.124 77.4254 855.591 Q76.9745 855.456 76.9745 855.005 Q76.9745 854.396 77.4254 854.396 Q77.6508 854.396 78.237 854.576 Q78.8231 854.757 79.7474 855.32 Q80.6717 855.884 81.4833 856.695 Q82.2724 857.485 82.8585 858.905 Q83.4447 860.303 83.4447 862.061 Q83.4447 866.119 80.4012 869.05 Z" fill="#000000" fill-rule="evenodd" fill-opacity="1" /><path clip-path="url(#clip770)" d="M78.53 852.053 Q74.6074 852.053 72.5333 847.431 Q71.2032 844.658 70.865 838.932 L69.1742 838.932 Q66.3111 838.932 64.8007 840.443 Q63.2677 841.931 63.2677 843.824 Q63.2677 847.206 65.3868 848.829 Q65.4319 847.454 66.1308 846.958 Q66.8071 846.462 67.506 846.462 Q68.4303 846.462 69.039 847.048 Q69.6251 847.612 69.6251 848.581 Q69.6251 849.505 69.0615 850.114 Q68.4754 850.723 67.4609 850.723 Q65.2065 850.723 63.7186 848.694 Q62.2307 846.642 62.2307 843.734 Q62.2307 839.947 64.7781 837.422 Q65.5672 836.633 66.5817 836.25 Q67.5961 835.844 68.2725 835.799 Q68.9262 835.754 70.2338 835.754 L79.4543 835.754 Q79.7249 835.754 80.1758 835.663 Q80.6266 835.573 81.2128 835.167 Q81.7764 834.739 81.7764 834.04 Q81.7764 832.372 78.8231 832.394 L76.2305 832.394 L76.2305 831.222 L78.8231 831.222 Q81.2804 831.222 82.2498 832.53 Q83.1967 833.815 83.1967 835.01 Q83.1967 836.543 82.0695 837.512 Q80.9423 838.481 79.4093 838.617 Q81.1677 839.316 82.3174 840.916 Q83.4447 842.494 83.4447 844.658 Q83.4447 846.327 83.0163 847.905 Q82.6105 849.46 81.4608 850.768 Q80.2885 852.053 78.53 852.053 M78.4849 848.491 Q80.1983 848.491 81.303 847.274 Q82.4076 846.056 82.4076 844.343 Q82.4076 842.404 80.9197 840.668 Q79.4093 838.932 76.456 838.932 L71.8344 838.932 Q72.0148 844.05 74.0663 846.282 Q76.0953 848.491 78.4849 848.491 Z" fill="#000000" fill-rule="evenodd" fill-opacity="1" /><path clip-path="url(#clip770)" d="M82.9261 829.373 L81.5059 829.373 Q81.5059 826.916 81.2128 826.352 Q80.8972 825.788 79.4093 825.788 L55.3998 825.788 Q53.6864 825.788 53.2581 826.397 Q52.8298 826.983 52.8298 829.373 L51.3869 829.373 L50.891 822.745 L79.4093 822.745 Q80.8972 822.745 81.2128 822.159 Q81.5059 821.573 81.5059 819.138 L82.9261 819.138 Q82.9261 819.701 82.881 820.874 Q82.836 822.046 82.8134 822.903 Q82.7909 823.759 82.7909 824.255 Q82.7909 824.796 82.9261 829.373 Z" fill="#000000" fill-rule="evenodd" fill-opacity="1" /><path clip-path="url(#clip770)" d="M45.7306 747.827 Q46.117 747.441 46.6645 747.441 Q47.212 747.441 47.5985 747.827 Q47.985 748.214 47.985 748.761 L47.985 790.049 Q47.985 790.597 47.5985 790.983 Q47.212 791.37 46.6645 791.37 Q46.117 791.37 45.7306 790.983 Q45.3441 790.597 45.3441 790.049 L45.3441 748.761 Q45.3441 748.214 45.7306 747.827 Z" fill="#000000" fill-rule="evenodd" fill-opacity="1" /><path clip-path="url(#clip770)" d="M38.6131 678.582 Q41.0929 678.582 46.5679 679.934 Q52.0429 681.287 55.7788 682.93 Q63.8947 686.44 63.8947 692.495 Q63.8947 693.235 63.8303 693.976 Q63.7659 694.685 63.476 695.747 Q63.1862 696.81 62.7353 697.68 Q62.2522 698.549 61.3504 699.419 Q60.4487 700.256 59.257 700.739 Q63.8947 703.412 63.8947 707.599 Q63.8947 711.657 61.8335 714.33 Q59.7723 716.971 55.5534 716.971 Q53.6532 716.971 50.8513 716.198 Q48.0494 715.425 42.2523 713.267 Q39.2572 712.076 37.6147 712.076 Q36.874 712.076 36.3909 712.237 Q35.9078 712.398 35.7468 712.72 Q35.5535 713.01 35.5213 713.203 Q35.4569 713.396 35.4569 713.718 Q35.4569 715.651 37.4215 717.39 Q39.3538 719.129 43.6372 720.385 Q44.4423 720.643 44.6356 720.804 Q44.8288 720.965 44.8288 721.448 Q44.7966 722.253 44.1525 722.253 Q43.8948 722.253 42.8965 721.963 Q41.8659 721.673 40.3522 720.997 Q38.8063 720.288 37.4215 719.322 Q36.0044 718.356 35.006 716.842 Q34.0076 715.296 34.0076 713.525 Q34.0076 711.142 35.5857 709.628 Q37.1638 708.114 39.4182 708.114 Q40.0623 708.114 40.7709 708.276 Q41.4472 708.437 41.8981 708.598 Q42.3168 708.726 43.6372 709.242 Q49.2088 711.367 51.8819 712.044 Q54.555 712.688 56.4229 712.688 Q57.0348 712.688 57.5179 712.656 Q58.001 712.623 58.9994 712.366 Q59.9978 712.076 60.6741 711.561 Q61.3182 711.045 61.8657 709.982 Q62.4132 708.887 62.4132 707.406 Q62.4132 703.702 56.8738 701.319 Q56.5517 701.383 55.7144 701.383 Q53.8465 701.383 51.3344 700.804 Q50.7547 700.643 47.051 699.709 Q43.3151 698.775 40.0623 697.97 Q36.7773 697.132 36.5841 697.036 Q35.6823 696.714 35.1993 696.005 Q34.7162 695.297 34.7162 694.588 Q34.7162 693.783 35.1993 693.235 Q35.6823 692.688 36.5197 692.688 Q36.6807 692.688 37.4215 692.881 Q38.13 693.042 39.1928 693.3 Q40.2556 693.557 40.8031 693.686 L51.8819 696.456 Q54.4584 697.165 56.6806 697.165 Q59.4825 697.165 60.964 695.908 Q62.4132 694.652 62.4132 692.301 Q62.4132 687.889 56.6162 685.055 Q54.1041 683.767 50.175 682.607 Q46.2459 681.416 44.539 681.416 Q41.3184 681.416 38.9351 683.799 Q38.4843 684.314 38.13 684.54 Q37.7435 684.765 37.1638 684.765 Q36.0688 684.765 35.0382 683.735 Q34.0076 682.704 34.0076 681.48 Q34.0076 680.385 35.1026 679.483 Q36.1654 678.582 38.6131 678.582 Z" fill="#000000" fill-rule="evenodd" fill-opacity="1" /><path clip-path="url(#clip770)" d="M78.53 671.963 Q74.6074 671.963 72.5333 667.341 Q71.2032 664.568 70.865 658.842 L69.1742 658.842 Q66.3111 658.842 64.8007 660.353 Q63.2677 661.841 63.2677 663.734 Q63.2677 667.116 65.3868 668.739 Q65.4319 667.364 66.1308 666.868 Q66.8071 666.372 67.506 666.372 Q68.4303 666.372 69.039 666.958 Q69.6251 667.522 69.6251 668.491 Q69.6251 669.415 69.0615 670.024 Q68.4754 670.633 67.4609 670.633 Q65.2065 670.633 63.7186 668.604 Q62.2307 666.552 62.2307 663.644 Q62.2307 659.857 64.7781 657.332 Q65.5672 656.543 66.5817 656.159 Q67.5961 655.754 68.2725 655.709 Q68.9262 655.663 70.2338 655.663 L79.4543 655.663 Q79.7249 655.663 80.1758 655.573 Q80.6266 655.483 81.2128 655.077 Q81.7764 654.649 81.7764 653.95 Q81.7764 652.282 78.8231 652.304 L76.2305 652.304 L76.2305 651.132 L78.8231 651.132 Q81.2804 651.132 82.2498 652.44 Q83.1967 653.725 83.1967 654.92 Q83.1967 656.453 82.0695 657.422 Q80.9423 658.391 79.4093 658.527 Q81.1677 659.225 82.3174 660.826 Q83.4447 662.404 83.4447 664.568 Q83.4447 666.237 83.0163 667.815 Q82.6105 669.37 81.4608 670.678 Q80.2885 671.963 78.53 671.963 M78.4849 668.401 Q80.1983 668.401 81.303 667.184 Q82.4076 665.966 82.4076 664.253 Q82.4076 662.314 80.9197 660.578 Q79.4093 658.842 76.456 658.842 L71.8344 658.842 Q72.0148 663.96 74.0663 666.192 Q76.0953 668.401 78.4849 668.401 Z" fill="#000000" fill-rule="evenodd" fill-opacity="1" /><path clip-path="url(#clip770)" d="M82.9261 650.207 L81.5059 650.207 Q81.5059 647.75 81.2128 647.186 Q80.8972 646.622 79.4093 646.622 L67.0325 646.622 Q65.3192 646.622 64.8909 647.231 Q64.4625 647.817 64.4625 650.207 L63.0197 650.207 L62.5237 643.714 L67.3707 643.714 Q62.5237 641.55 62.5237 636.883 Q62.5237 633.411 64.2371 632.036 Q65.3868 631.022 66.6718 630.819 Q67.9569 630.593 71.2934 630.593 L80.1081 630.593 Q81.0775 630.548 81.303 629.804 Q81.5059 629.06 81.5059 626.986 L82.9261 626.986 Q82.7909 631.698 82.7909 632.172 Q82.7909 632.532 82.9261 637.379 L81.5059 637.379 Q81.5059 634.922 81.2128 634.358 Q80.8972 633.772 79.4093 633.772 L68.6557 633.772 Q66.3111 633.772 64.9359 634.494 Q63.5382 635.215 63.5382 637.199 Q63.5382 639.589 65.5446 641.505 Q67.5511 643.421 70.9327 643.421 L79.4093 643.421 Q80.8972 643.421 81.2128 642.857 Q81.5059 642.271 81.5059 639.837 L82.9261 639.837 Q82.7909 644.548 82.7909 644.999 Q82.7909 645.36 82.9261 650.207 Z" fill="#000000" fill-rule="evenodd" fill-opacity="1" /><path clip-path="url(#clip770)" d="M78.53 623.732 Q74.6074 623.732 72.5333 619.111 Q71.2032 616.338 70.865 610.612 L69.1742 610.612 Q66.3111 610.612 64.8007 612.122 Q63.2677 613.61 63.2677 615.504 Q63.2677 618.885 65.3868 620.509 Q65.4319 619.133 66.1308 618.637 Q66.8071 618.141 67.506 618.141 Q68.4303 618.141 69.039 618.728 Q69.6251 619.291 69.6251 620.261 Q69.6251 621.185 69.0615 621.794 Q68.4754 622.402 67.4609 622.402 Q65.2065 622.402 63.7186 620.373 Q62.2307 618.322 62.2307 615.414 Q62.2307 611.626 64.7781 609.101 Q65.5672 608.312 66.5817 607.929 Q67.5961 607.523 68.2725 607.478 Q68.9262 607.433 70.2338 607.433 L79.4543 607.433 Q79.7249 607.433 80.1758 607.343 Q80.6266 607.253 81.2128 606.847 Q81.7764 606.418 81.7764 605.72 Q81.7764 604.051 78.8231 604.074 L76.2305 604.074 L76.2305 602.902 L78.8231 602.902 Q81.2804 602.902 82.2498 604.209 Q83.1967 605.494 83.1967 606.689 Q83.1967 608.222 82.0695 609.191 Q80.9423 610.161 79.4093 610.296 Q81.1677 610.995 82.3174 612.596 Q83.4447 614.174 83.4447 616.338 Q83.4447 618.006 83.0163 619.584 Q82.6105 621.14 81.4608 622.447 Q80.2885 623.732 78.53 623.732 M78.4849 620.17 Q80.1983 620.17 81.303 618.953 Q82.4076 617.736 82.4076 616.022 Q82.4076 614.083 80.9197 612.348 Q79.4093 610.612 76.456 610.612 L71.8344 610.612 Q72.0148 615.729 74.0663 617.961 Q76.0953 620.17 78.4849 620.17 Z" fill="#000000" fill-rule="evenodd" fill-opacity="1" /><path clip-path="url(#clip770)" d="M82.9261 601.052 L81.5059 601.052 Q81.5059 598.595 81.2128 598.031 Q80.8972 597.468 79.4093 597.468 L55.3998 597.468 Q53.6864 597.468 53.2581 598.076 Q52.8298 598.663 52.8298 601.052 L51.3869 601.052 L50.891 594.424 L79.4093 594.424 Q80.8972 594.424 81.2128 593.838 Q81.5059 593.252 81.5059 590.817 L82.9261 590.817 Q82.9261 591.381 82.881 592.553 Q82.836 593.725 82.8134 594.582 Q82.7909 595.439 82.7909 595.935 Q82.7909 596.476 82.9261 601.052 Z" fill="#000000" fill-rule="evenodd" fill-opacity="1" /><path clip-path="url(#clip770)" d="M88.6523 591.512 Q87.6829 591.512 87.1644 590.949 Q86.6685 590.363 86.6685 589.574 Q86.6685 588.739 87.187 588.198 Q87.728 587.635 88.6073 587.635 Q90.3206 587.635 90.546 589.438 Q91.3802 588.559 91.3802 587.274 Q91.3802 585.899 90.3657 584.794 Q89.3512 583.667 88.3818 583.194 Q87.4124 582.698 85.654 581.999 Q84.2788 581.345 82.9261 580.849 L66.0631 587.77 Q64.9585 588.221 64.7105 588.92 Q64.4625 589.619 64.4625 591.512 L63.0197 591.512 Q63.155 589.438 63.155 587.026 Q63.155 585.606 63.0197 581.999 L64.4625 581.999 Q64.4625 584.591 65.6574 584.591 Q65.7926 584.591 66.4915 584.321 L78.9133 579.181 L67.5511 574.514 Q66.8973 574.244 66.4464 574.244 Q64.5527 574.244 64.4625 576.408 L63.0197 576.408 Q63.155 573.364 63.155 572.395 Q63.155 570.501 63.0197 568.946 L64.4625 568.946 Q64.4625 572.034 67.4158 573.229 L87.1193 581.368 Q92.3721 583.577 92.3947 587.274 Q92.3947 589.033 91.3125 590.272 Q90.2304 591.512 88.6523 591.512 Z" fill="#000000" fill-rule="evenodd" fill-opacity="1" /><path clip-path="url(#clip770)" d="M64.4625 565.756 L63.448 565.756 Q63.3579 563.637 61.8699 562.239 Q60.3595 560.819 58.5109 560.346 Q56.6623 559.85 54.5206 559.805 L54.5206 558.655 L63.0197 558.655 L63.0197 552.049 L64.4625 552.049 L64.4625 558.655 L77.2901 558.655 Q82.2724 558.655 82.2724 555.544 Q82.2724 554.214 80.9197 553.334 Q79.5445 552.455 77.1098 552.455 L74.5623 552.455 L74.5623 551.305 L77.1999 551.305 Q79.7023 551.305 81.5735 552.455 Q83.4447 553.605 83.4447 555.882 Q83.4447 556.716 83.2192 557.55 Q83.0163 558.362 82.4753 559.444 Q81.9117 560.503 80.559 561.18 Q79.1838 561.834 77.1999 561.834 L64.4625 561.834 L64.4625 565.756 Z" fill="#000000" fill-rule="evenodd" fill-opacity="1" /><path clip-path="url(#clip770)" d="M82.9261 548.581 L81.5059 548.581 Q81.5059 546.124 81.2128 545.561 Q80.8972 544.997 79.4093 544.997 L66.9875 544.997 Q65.2741 544.997 64.8683 545.583 Q64.4625 546.147 64.4625 548.401 L63.0197 548.401 L62.5237 541.954 L79.4543 541.954 Q80.8295 541.954 81.1677 541.458 Q81.5059 540.962 81.5059 538.707 L82.9261 538.707 Q82.7909 543.419 82.7909 543.509 Q82.7909 544.14 82.9261 548.581 M54.4755 546.643 Q53.5512 546.643 52.8072 545.944 Q52.0407 545.222 52.0407 544.208 Q52.0407 543.193 52.7396 542.472 Q53.4159 541.751 54.498 541.751 Q55.5576 541.751 56.2565 542.472 Q56.9328 543.193 56.9328 544.208 Q56.9328 545.267 56.1888 545.966 Q55.4449 546.643 54.4755 546.643 Z" fill="#000000" fill-rule="evenodd" fill-opacity="1" /><path clip-path="url(#clip770)" d="M80.4012 531.697 Q77.3352 534.627 72.9616 534.627 Q68.5655 534.627 65.4094 531.742 Q62.2307 528.856 62.2307 524.618 Q62.2307 521.8 63.5833 519.681 Q64.9134 517.561 67.1904 517.561 Q68.2048 517.561 68.791 518.17 Q69.3546 518.756 69.3546 519.681 Q69.3546 520.65 68.7684 521.236 Q68.1597 521.8 67.2354 521.8 Q66.8296 521.8 66.4239 521.665 Q66.0181 521.529 65.5897 521.033 Q65.1614 520.515 65.0938 519.636 Q63.4029 521.281 63.4029 524.483 Q63.4029 524.528 63.4029 524.573 Q63.4029 526.917 65.6123 528.856 Q67.8216 530.795 72.8715 530.795 Q75.5091 530.795 77.4479 530.164 Q79.3642 529.51 80.3561 528.45 Q81.348 527.391 81.8215 526.354 Q82.2724 525.317 82.2724 524.302 Q82.2724 519.771 77.4254 518.238 Q76.9745 518.103 76.9745 517.652 Q76.9745 517.043 77.4254 517.043 Q77.6508 517.043 78.237 517.223 Q78.8231 517.404 79.7474 517.967 Q80.6717 518.531 81.4833 519.342 Q82.2724 520.132 82.8585 521.552 Q83.4447 522.95 83.4447 524.708 Q83.4447 528.766 80.4012 531.697 Z" fill="#000000" fill-rule="evenodd" fill-opacity="1" /><path clip-path="url(#clip770)" d="M78.53 514.7 Q74.6074 514.7 72.5333 510.078 Q71.2032 507.305 70.865 501.579 L69.1742 501.579 Q66.3111 501.579 64.8007 503.09 Q63.2677 504.578 63.2677 506.471 Q63.2677 509.853 65.3868 511.476 Q65.4319 510.101 66.1308 509.605 Q66.8071 509.109 67.506 509.109 Q68.4303 509.109 69.039 509.695 Q69.6251 510.259 69.6251 511.228 Q69.6251 512.152 69.0615 512.761 Q68.4754 513.37 67.4609 513.37 Q65.2065 513.37 63.7186 511.341 Q62.2307 509.289 62.2307 506.381 Q62.2307 502.594 64.7781 500.069 Q65.5672 499.28 66.5817 498.897 Q67.5961 498.491 68.2725 498.446 Q68.9262 498.401 70.2338 498.401 L79.4543 498.401 Q79.7249 498.401 80.1758 498.31 Q80.6266 498.22 81.2128 497.814 Q81.7764 497.386 81.7764 496.687 Q81.7764 495.019 78.8231 495.041 L76.2305 495.041 L76.2305 493.869 L78.8231 493.869 Q81.2804 493.869 82.2498 495.177 Q83.1967 496.462 83.1967 497.657 Q83.1967 499.19 82.0695 500.159 Q80.9423 501.128 79.4093 501.264 Q81.1677 501.963 82.3174 503.563 Q83.4447 505.141 83.4447 507.305 Q83.4447 508.974 83.0163 510.552 Q82.6105 512.107 81.4608 513.415 Q80.2885 514.7 78.53 514.7 M78.4849 511.138 Q80.1983 511.138 81.303 509.921 Q82.4076 508.703 82.4076 506.99 Q82.4076 505.051 80.9197 503.315 Q79.4093 501.579 76.456 501.579 L71.8344 501.579 Q72.0148 506.697 74.0663 508.929 Q76.0953 511.138 78.4849 511.138 Z" fill="#000000" fill-rule="evenodd" fill-opacity="1" /><path clip-path="url(#clip770)" d="M82.9261 492.02 L81.5059 492.02 Q81.5059 489.563 81.2128 488.999 Q80.8972 488.435 79.4093 488.435 L55.3998 488.435 Q53.6864 488.435 53.2581 489.044 Q52.8298 489.63 52.8298 492.02 L51.3869 492.02 L50.891 485.392 L79.4093 485.392 Q80.8972 485.392 81.2128 484.806 Q81.5059 484.22 81.5059 481.785 L82.9261 481.785 Q82.9261 482.348 82.881 483.521 Q82.836 484.693 82.8134 485.55 Q82.7909 486.406 82.7909 486.902 Q82.7909 487.443 82.9261 492.02 Z" fill="#000000" fill-rule="evenodd" fill-opacity="1" /><path clip-path="url(#clip770)" d="M77.6144 472.319 L16.1978 472.319 Q13.7502 472.319 13.7502 470.999 Q13.7502 469.679 15.7147 469.679 L77.1313 469.679 Q79.5789 469.679 79.5789 470.999 Q79.5789 472.319 77.6144 472.319 Z" fill="#000000" fill-rule="evenodd" fill-opacity="1" /><path clip-path="url(#clip770)" d="M77.6144 454.598 L16.1978 454.598 Q13.7502 454.598 13.7502 453.278 Q13.7502 451.957 15.7147 451.957 L77.1313 451.957 Q79.5789 451.957 79.5789 453.278 Q79.5789 454.598 77.6144 454.598 Z" fill="#000000" fill-rule="evenodd" fill-opacity="1" /><path clip-path="url(#clip770)" d="M336.148 13.7457 L374.389 13.7457 L374.389 20.6322 L344.331 20.6322 L344.331 38.5372 L373.133 38.5372 L373.133 45.4238 L344.331 45.4238 L344.331 67.3392 L375.118 67.3392 L375.118 74.2257 L336.148 74.2257 L336.148 13.7457 Z" fill="#000000" fill-rule="evenodd" fill-opacity="1" /><path clip-path="url(#clip770)" d="M414.533 35.8231 Q413.277 35.094 411.779 34.7699 Q410.32 34.4053 408.538 34.4053 Q402.218 34.4053 398.816 38.5372 Q395.453 42.6286 395.453 50.3254 L395.453 74.2257 L387.959 74.2257 L387.959 28.8556 L395.453 28.8556 L395.453 35.9041 Q397.803 31.7722 401.57 29.7873 Q405.338 27.7618 410.725 27.7618 Q411.495 27.7618 412.427 27.8833 Q413.358 27.9644 414.493 28.1669 L414.533 35.8231 Z" fill="#000000" fill-rule="evenodd" fill-opacity="1" /><path clip-path="url(#clip770)" d="M447.184 35.8231 Q445.928 35.094 444.429 34.7699 Q442.971 34.4053 441.188 34.4053 Q434.869 34.4053 431.466 38.5372 Q428.104 42.6286 428.104 50.3254 L428.104 74.2257 L420.61 74.2257 L420.61 28.8556 L428.104 28.8556 L428.104 35.9041 Q430.453 31.7722 434.221 29.7873 Q437.988 27.7618 443.376 27.7618 Q444.145 27.7618 445.077 27.8833 Q446.009 27.9644 447.143 28.1669 L447.184 35.8231 Z" fill="#000000" fill-rule="evenodd" fill-opacity="1" /><path clip-path="url(#clip770)" d="M470.76 34.0812 Q464.764 34.0812 461.281 38.7803 Q457.797 43.4388 457.797 51.5811 Q457.797 59.7235 461.24 64.4225 Q464.724 69.081 470.76 69.081 Q476.715 69.081 480.198 64.382 Q483.682 59.6829 483.682 51.5811 Q483.682 43.5198 480.198 38.8208 Q476.715 34.0812 470.76 34.0812 M470.76 27.7618 Q480.482 27.7618 486.032 34.0812 Q491.581 40.4006 491.581 51.5811 Q491.581 62.7211 486.032 69.081 Q480.482 75.4004 470.76 75.4004 Q460.997 75.4004 455.447 69.081 Q449.938 62.7211 449.938 51.5811 Q449.938 40.4006 455.447 34.0812 Q460.997 27.7618 470.76 27.7618 Z" fill="#000000" fill-rule="evenodd" fill-opacity="1" /><path clip-path="url(#clip770)" d="M530.227 35.8231 Q528.971 35.094 527.472 34.7699 Q526.014 34.4053 524.232 34.4053 Q517.912 34.4053 514.51 38.5372 Q511.147 42.6286 511.147 50.3254 L511.147 74.2257 L503.653 74.2257 L503.653 28.8556 L511.147 28.8556 L511.147 35.9041 Q513.497 31.7722 517.264 29.7873 Q521.032 27.7618 526.419 27.7618 Q527.189 27.7618 528.121 27.8833 Q529.052 27.9644 530.187 28.1669 L530.227 35.8231 Z" fill="#000000" fill-rule="evenodd" fill-opacity="1" /><path clip-path="url(#clip770)" d="M560.082 28.8556 L567.536 28.8556 L576.853 64.2605 L586.13 28.8556 L594.92 28.8556 L604.237 64.2605 L613.514 28.8556 L620.967 28.8556 L609.098 74.2257 L600.308 74.2257 L590.545 37.0384 L580.742 74.2257 L571.951 74.2257 L560.082 28.8556 Z" fill="#000000" fill-rule="evenodd" fill-opacity="1" /><path clip-path="url(#clip770)" d="M658.56 35.8231 Q657.304 35.094 655.805 34.7699 Q654.347 34.4053 652.564 34.4053 Q646.245 34.4053 642.842 38.5372 Q639.48 42.6286 639.48 50.3254 L639.48 74.2257 L631.986 74.2257 L631.986 28.8556 L639.48 28.8556 L639.48 35.9041 Q641.829 31.7722 645.597 29.7873 Q649.364 27.7618 654.752 27.7618 Q655.522 27.7618 656.453 27.8833 Q657.385 27.9644 658.519 28.1669 L658.56 35.8231 Z" fill="#000000" fill-rule="evenodd" fill-opacity="1" /><path clip-path="url(#clip770)" d="M673.751 15.9737 L673.751 28.8556 L689.104 28.8556 L689.104 34.6484 L673.751 34.6484 L673.751 59.2779 Q673.751 64.8276 675.249 66.4074 Q676.789 67.9873 681.447 67.9873 L689.104 67.9873 L689.104 74.2257 L681.447 74.2257 Q672.819 74.2257 669.538 71.0255 Q666.256 67.7847 666.256 59.2779 L666.256 34.6484 L660.788 34.6484 L660.788 28.8556 L666.256 28.8556 L666.256 15.9737 L673.751 15.9737 Z" fill="#000000" fill-rule="evenodd" fill-opacity="1" /><path clip-path="url(#clip770)" d="M699.96 63.9364 L708.507 63.9364 L708.507 74.2257 L699.96 74.2257 L699.96 63.9364 Z" fill="#000000" fill-rule="evenodd" fill-opacity="1" /><path clip-path="url(#clip770)" d="M794.535 53.4851 Q794.535 53.731 794.207 54.6738 L787.567 72.7911 Q787.198 73.8568 786.829 74.0617 Q786.46 74.2257 784.943 74.2257 L746.086 74.2257 Q745.143 74.2257 744.774 74.1847 Q744.405 74.1437 744.118 73.9388 Q743.831 73.7338 743.831 73.2829 Q743.831 72.4631 744.118 72.0942 Q744.446 71.7253 744.815 71.6844 Q745.184 71.6434 746.086 71.6434 Q748.135 71.6434 749.365 71.5204 Q750.594 71.3974 751.373 71.2335 Q752.193 71.0285 752.603 70.4547 Q753.054 69.8808 753.259 69.389 Q753.464 68.8561 753.751 67.6674 L764.982 22.5792 Q765.31 21.2266 765.31 21.0216 Q765.31 20.2428 764.818 20.0379 Q764.367 19.7919 763.055 19.669 L759.858 19.505 Q758.874 19.505 758.464 19.464 Q758.096 19.423 757.809 19.2181 Q757.522 19.0131 757.522 18.5622 Q757.522 17.7835 757.809 17.4145 Q758.137 17.0047 758.382 16.9637 Q758.669 16.8817 759.12 16.8817 L770.269 17.1276 L782.689 16.8817 Q784.042 16.8817 784.042 17.9064 Q784.042 19.0541 783.468 19.3001 Q782.894 19.505 780.845 19.505 Q776.91 19.505 775.106 19.9149 Q773.344 20.3248 772.852 21.0216 Q772.401 21.6774 771.95 23.44 L760.596 68.7741 Q760.186 70.2907 760.186 70.7006 Q760.186 71.1515 760.391 71.3154 Q760.637 71.4384 761.293 71.5204 Q762.03 71.6434 763.137 71.6434 L771.007 71.6434 Q773.385 71.6434 775.475 71.2745 Q777.565 70.9056 779.164 70.3727 Q780.804 69.8398 782.279 68.8561 Q783.755 67.8723 784.78 67.0116 Q785.845 66.1098 786.87 64.7162 Q787.936 63.2816 788.551 62.2978 Q789.206 61.2731 789.944 59.6335 Q790.682 57.9529 791.051 57.0102 Q791.461 56.0264 792.076 54.3459 Q792.445 53.4851 792.567 53.2392 Q792.69 52.9932 792.895 52.7883 Q793.141 52.5833 793.51 52.5833 Q794.002 52.5833 794.248 52.8703 Q794.535 53.1572 794.535 53.4851 Z" fill="#000000" fill-rule="evenodd" fill-opacity="1" /><path clip-path="url(#clip770)" d="M802.994 97.4832 Q802.994 96.4216 803.08 96.1059 Q803.195 95.7903 803.654 95.3026 L814.93 82.7352 Q821.099 75.7917 821.099 69.7375 Q821.099 65.8067 819.033 62.9948 Q816.996 60.1829 813.238 60.1829 Q810.655 60.1829 808.475 61.761 Q806.294 63.3391 805.29 66.151 Q805.462 66.0936 806.064 66.0936 Q807.528 66.0936 808.331 67.0118 Q809.163 67.9299 809.163 69.1637 Q809.163 70.7418 808.13 71.5165 Q807.126 72.2625 806.122 72.2625 Q805.72 72.2625 805.175 72.1764 Q804.659 72.0903 803.826 71.2869 Q802.994 70.4549 802.994 68.9915 Q802.994 64.8885 806.093 61.6176 Q809.221 58.3466 813.984 58.3466 Q819.378 58.3466 822.907 61.5602 Q826.465 64.7451 826.465 69.7375 Q826.465 71.4878 825.92 73.0946 Q825.403 74.6727 824.686 75.9064 Q823.997 77.1402 822.104 79.12 Q820.21 81.0998 818.689 82.5057 Q817.168 83.9116 813.754 86.8957 L807.528 92.9498 L818.115 92.9498 Q823.28 92.9498 823.682 92.4907 Q824.256 91.6586 824.973 87.2687 L826.465 87.2687 L824.801 97.4832 L802.994 97.4832 Z" fill="#000000" fill-rule="evenodd" fill-opacity="1" /><path clip-path="url(#clip770)" d="M835.197 48.1784 L857.031 48.1784 L857.031 54.8219 L835.197 54.8219 L835.197 48.1784 Z" fill="#000000" fill-rule="evenodd" fill-opacity="1" /><path clip-path="url(#clip770)" d="M906.614 46.8416 L906.614 74.2257 L899.16 74.2257 L899.16 47.0846 Q899.16 40.6437 896.649 37.4435 Q894.137 34.2433 889.114 34.2433 Q883.078 34.2433 879.594 38.0916 Q876.111 41.94 876.111 48.5835 L876.111 74.2257 L868.617 74.2257 L868.617 28.8556 L876.111 28.8556 L876.111 35.9041 Q878.784 31.8127 882.39 29.7873 Q886.035 27.7618 890.775 27.7618 Q898.593 27.7618 902.604 32.6229 Q906.614 37.4435 906.614 46.8416 Z" fill="#000000" fill-rule="evenodd" fill-opacity="1" /><path clip-path="url(#clip770)" d="M939.062 34.0812 Q933.066 34.0812 929.583 38.7803 Q926.099 43.4388 926.099 51.5811 Q926.099 59.7235 929.542 64.4225 Q933.026 69.081 939.062 69.081 Q945.017 69.081 948.5 64.382 Q951.984 59.6829 951.984 51.5811 Q951.984 43.5198 948.5 38.8208 Q945.017 34.0812 939.062 34.0812 M939.062 27.7618 Q948.784 27.7618 954.334 34.0812 Q959.883 40.4006 959.883 51.5811 Q959.883 62.7211 954.334 69.081 Q948.784 75.4004 939.062 75.4004 Q929.299 75.4004 923.749 69.081 Q918.24 62.7211 918.24 51.5811 Q918.24 40.4006 923.749 34.0812 Q929.299 27.7618 939.062 27.7618 Z" fill="#000000" fill-rule="evenodd" fill-opacity="1" /><path clip-path="url(#clip770)" d="M998.529 35.8231 Q997.273 35.094 995.774 34.7699 Q994.316 34.4053 992.534 34.4053 Q986.214 34.4053 982.812 38.5372 Q979.449 42.6286 979.449 50.3254 L979.449 74.2257 L971.955 74.2257 L971.955 28.8556 L979.449 28.8556 L979.449 35.9041 Q981.799 31.7722 985.566 29.7873 Q989.333 27.7618 994.721 27.7618 Q995.491 27.7618 996.423 27.8833 Q997.354 27.9644 998.489 28.1669 L998.529 35.8231 Z" fill="#000000" fill-rule="evenodd" fill-opacity="1" /><path clip-path="url(#clip770)" d="M1040.21 37.565 Q1043.01 32.5419 1046.9 30.1518 Q1050.79 27.7618 1056.05 27.7618 Q1063.14 27.7618 1066.99 32.7444 Q1070.84 37.6865 1070.84 46.8416 L1070.84 74.2257 L1063.34 74.2257 L1063.34 47.0846 Q1063.34 40.5627 1061.03 37.403 Q1058.73 34.2433 1053.99 34.2433 Q1048.19 34.2433 1044.83 38.0916 Q1041.47 41.94 1041.47 48.5835 L1041.47 74.2257 L1033.97 74.2257 L1033.97 47.0846 Q1033.97 40.5222 1031.67 37.403 Q1029.36 34.2433 1024.54 34.2433 Q1018.82 34.2433 1015.46 38.1321 Q1012.1 41.9805 1012.1 48.5835 L1012.1 74.2257 L1004.61 74.2257 L1004.61 28.8556 L1012.1 28.8556 L1012.1 35.9041 Q1014.65 31.7317 1018.22 29.7468 Q1021.78 27.7618 1026.68 27.7618 Q1031.62 27.7618 1035.07 30.2734 Q1038.55 32.7849 1040.21 37.565 Z" fill="#000000" fill-rule="evenodd" fill-opacity="1" /><path clip-path="url(#clip770)" d="M1107.74 28.8556 L1115.2 28.8556 L1124.51 64.2605 L1133.79 28.8556 L1142.58 28.8556 L1151.9 64.2605 L1161.17 28.8556 L1168.63 28.8556 L1156.76 74.2257 L1147.97 74.2257 L1138.2 37.0384 L1128.4 74.2257 L1119.61 74.2257 L1107.74 28.8556 Z" fill="#000000" fill-rule="evenodd" fill-opacity="1" /><path clip-path="url(#clip770)" d="M1179.93 28.8556 L1187.38 28.8556 L1187.38 74.2257 L1179.93 74.2257 L1179.93 28.8556 M1179.93 11.1936 L1187.38 11.1936 L1187.38 20.6322 L1179.93 20.6322 L1179.93 11.1936 Z" fill="#000000" fill-rule="evenodd" fill-opacity="1" /><path clip-path="url(#clip770)" d="M1210.35 15.9737 L1210.35 28.8556 L1225.7 28.8556 L1225.7 34.6484 L1210.35 34.6484 L1210.35 59.2779 Q1210.35 64.8276 1211.85 66.4074 Q1213.39 67.9873 1218.05 67.9873 L1225.7 67.9873 L1225.7 74.2257 L1218.05 74.2257 Q1209.42 74.2257 1206.14 71.0255 Q1202.86 67.7847 1202.86 59.2779 L1202.86 34.6484 L1197.39 34.6484 L1197.39 28.8556 L1202.86 28.8556 L1202.86 15.9737 L1210.35 15.9737 Z" fill="#000000" fill-rule="evenodd" fill-opacity="1" /><path clip-path="url(#clip770)" d="M1273.22 46.8416 L1273.22 74.2257 L1265.77 74.2257 L1265.77 47.0846 Q1265.77 40.6437 1263.26 37.4435 Q1260.74 34.2433 1255.72 34.2433 Q1249.69 34.2433 1246.2 38.0916 Q1242.72 41.94 1242.72 48.5835 L1242.72 74.2257 L1235.22 74.2257 L1235.22 11.1936 L1242.72 11.1936 L1242.72 35.9041 Q1245.39 31.8127 1249 29.7873 Q1252.64 27.7618 1257.38 27.7618 Q1265.2 27.7618 1269.21 32.6229 Q1273.22 37.4435 1273.22 46.8416 Z" fill="#000000" fill-rule="evenodd" fill-opacity="1" /><path clip-path="url(#clip770)" d="M1316.93 67.3392 L1330.3 67.3392 L1330.3 21.1994 L1315.76 24.116 L1315.76 16.6623 L1330.22 13.7457 L1338.4 13.7457 L1338.4 67.3392 L1351.77 67.3392 L1351.77 74.2257 L1316.93 74.2257 L1316.93 67.3392 Z" fill="#000000" fill-rule="evenodd" fill-opacity="1" /><path clip-path="url(#clip770)" d="M1385.8 19.1334 Q1379.48 19.1334 1376.28 25.3718 Q1373.12 31.5697 1373.12 44.0465 Q1373.12 56.4827 1376.28 62.7211 Q1379.48 68.919 1385.8 68.919 Q1392.16 68.919 1395.32 62.7211 Q1398.52 56.4827 1398.52 44.0465 Q1398.52 31.5697 1395.32 25.3718 Q1392.16 19.1334 1385.8 19.1334 M1385.8 12.6519 Q1395.96 12.6519 1401.31 20.7132 Q1406.7 28.734 1406.7 44.0465 Q1406.7 59.3184 1401.31 67.3797 Q1395.96 75.4004 1385.8 75.4004 Q1375.63 75.4004 1370.24 67.3797 Q1364.89 59.3184 1364.89 44.0465 Q1364.89 28.734 1370.24 20.7132 Q1375.63 12.6519 1385.8 12.6519 Z" fill="#000000" fill-rule="evenodd" fill-opacity="1" /><path clip-path="url(#clip770)" d="M1438.58 19.1334 Q1432.26 19.1334 1429.06 25.3718 Q1425.9 31.5697 1425.9 44.0465 Q1425.9 56.4827 1429.06 62.7211 Q1432.26 68.919 1438.58 68.919 Q1444.94 68.919 1448.1 62.7211 Q1451.3 56.4827 1451.3 44.0465 Q1451.3 31.5697 1448.1 25.3718 Q1444.94 19.1334 1438.58 19.1334 M1438.58 12.6519 Q1448.75 12.6519 1454.09 20.7132 Q1459.48 28.734 1459.48 44.0465 Q1459.48 59.3184 1454.09 67.3797 Q1448.75 75.4004 1438.58 75.4004 Q1428.41 75.4004 1423.02 67.3797 Q1417.68 59.3184 1417.68 44.0465 Q1417.68 28.734 1423.02 20.7132 Q1428.41 12.6519 1438.58 12.6519 Z" fill="#000000" fill-rule="evenodd" fill-opacity="1" /><path clip-path="url(#clip770)" d="M1499.18 28.8556 L1506.63 28.8556 L1506.63 74.2257 L1499.18 74.2257 L1499.18 28.8556 M1499.18 11.1936 L1506.63 11.1936 L1506.63 20.6322 L1499.18 20.6322 L1499.18 11.1936 Z" fill="#000000" fill-rule="evenodd" fill-opacity="1" /><path clip-path="url(#clip770)" d="M1559.94 46.8416 L1559.94 74.2257 L1552.49 74.2257 L1552.49 47.0846 Q1552.49 40.6437 1549.98 37.4435 Q1547.47 34.2433 1542.44 34.2433 Q1536.41 34.2433 1532.92 38.0916 Q1529.44 41.94 1529.44 48.5835 L1529.44 74.2257 L1521.95 74.2257 L1521.95 28.8556 L1529.44 28.8556 L1529.44 35.9041 Q1532.11 31.8127 1535.72 29.7873 Q1539.37 27.7618 1544.1 27.7618 Q1551.92 27.7618 1555.93 32.6229 Q1559.94 37.4435 1559.94 46.8416 Z" fill="#000000" fill-rule="evenodd" fill-opacity="1" /><path clip-path="url(#clip770)" d="M1582.18 15.9737 L1582.18 28.8556 L1597.54 28.8556 L1597.54 34.6484 L1582.18 34.6484 L1582.18 59.2779 Q1582.18 64.8276 1583.68 66.4074 Q1585.22 67.9873 1589.88 67.9873 L1597.54 67.9873 L1597.54 74.2257 L1589.88 74.2257 Q1581.25 74.2257 1577.97 71.0255 Q1574.69 67.7847 1574.69 59.2779 L1574.69 34.6484 L1569.22 34.6484 L1569.22 28.8556 L1574.69 28.8556 L1574.69 15.9737 L1582.18 15.9737 Z" fill="#000000" fill-rule="evenodd" fill-opacity="1" /><path clip-path="url(#clip770)" d="M1646.15 49.6772 L1646.15 53.323 L1611.88 53.323 Q1612.36 61.0197 1616.49 65.0706 Q1620.67 69.081 1628.08 69.081 Q1632.37 69.081 1636.38 68.0278 Q1640.44 66.9746 1644.41 64.8681 L1644.41 71.9167 Q1640.39 73.6181 1636.18 74.5093 Q1631.97 75.4004 1627.63 75.4004 Q1616.78 75.4004 1610.42 69.081 Q1604.1 62.7616 1604.1 51.9862 Q1604.1 40.8462 1610.09 34.3243 Q1616.13 27.7618 1626.34 27.7618 Q1635.49 27.7618 1640.8 33.6761 Q1646.15 39.5499 1646.15 49.6772 M1638.69 47.4897 Q1638.61 41.3729 1635.25 37.727 Q1631.93 34.0812 1626.42 34.0812 Q1620.18 34.0812 1616.41 37.6055 Q1612.69 41.1298 1612.12 47.5302 L1638.69 47.4897 Z" fill="#000000" fill-rule="evenodd" fill-opacity="1" /><path clip-path="url(#clip770)" d="M1684.67 35.8231 Q1683.42 35.094 1681.92 34.7699 Q1680.46 34.4053 1678.68 34.4053 Q1672.36 34.4053 1668.95 38.5372 Q1665.59 42.6286 1665.59 50.3254 L1665.59 74.2257 L1658.1 74.2257 L1658.1 28.8556 L1665.59 28.8556 L1665.59 35.9041 Q1667.94 31.7722 1671.71 29.7873 Q1675.48 27.7618 1680.86 27.7618 Q1681.63 27.7618 1682.56 27.8833 Q1683.5 27.9644 1684.63 28.1669 L1684.67 35.8231 Z" fill="#000000" fill-rule="evenodd" fill-opacity="1" /><path clip-path="url(#clip770)" d="M1699.7 67.4202 L1699.7 91.4825 L1692.21 91.4825 L1692.21 28.8556 L1699.7 28.8556 L1699.7 35.7421 Q1702.05 31.6912 1705.61 29.7468 Q1709.22 27.7618 1714.2 27.7618 Q1722.47 27.7618 1727.61 34.3243 Q1732.8 40.8867 1732.8 51.5811 Q1732.8 62.2755 1727.61 68.838 Q1722.47 75.4004 1714.2 75.4004 Q1709.22 75.4004 1705.61 73.456 Q1702.05 71.4711 1699.7 67.4202 M1725.06 51.5811 Q1725.06 43.3578 1721.66 38.6993 Q1718.29 34.0002 1712.38 34.0002 Q1706.47 34.0002 1703.06 38.6993 Q1699.7 43.3578 1699.7 51.5811 Q1699.7 59.8045 1703.06 64.5035 Q1706.47 69.1621 1712.38 69.1621 Q1718.29 69.1621 1721.66 64.5035 Q1725.06 59.8045 1725.06 51.5811 Z" fill="#000000" fill-rule="evenodd" fill-opacity="1" /><path clip-path="url(#clip770)" d="M1762.73 34.0812 Q1756.74 34.0812 1753.25 38.7803 Q1749.77 43.4388 1749.77 51.5811 Q1749.77 59.7235 1753.21 64.4225 Q1756.7 69.081 1762.73 69.081 Q1768.69 69.081 1772.17 64.382 Q1775.65 59.6829 1775.65 51.5811 Q1775.65 43.5198 1772.17 38.8208 Q1768.69 34.0812 1762.73 34.0812 M1762.73 27.7618 Q1772.45 27.7618 1778 34.0812 Q1783.55 40.4006 1783.55 51.5811 Q1783.55 62.7211 1778 69.081 Q1772.45 75.4004 1762.73 75.4004 Q1752.97 75.4004 1747.42 69.081 Q1741.91 62.7211 1741.91 51.5811 Q1741.91 40.4006 1747.42 34.0812 Q1752.97 27.7618 1762.73 27.7618 Z" fill="#000000" fill-rule="evenodd" fill-opacity="1" /><path clip-path="url(#clip770)" d="M1795.91 11.1936 L1803.36 11.1936 L1803.36 74.2257 L1795.91 74.2257 L1795.91 11.1936 Z" fill="#000000" fill-rule="evenodd" fill-opacity="1" /><path clip-path="url(#clip770)" d="M1839.58 51.4191 Q1830.54 51.4191 1827.06 53.4851 Q1823.58 55.551 1823.58 60.5336 Q1823.58 64.5035 1826.17 66.853 Q1828.8 69.1621 1833.3 69.1621 Q1839.5 69.1621 1843.22 64.7871 Q1846.99 60.3716 1846.99 53.08 L1846.99 51.4191 L1839.58 51.4191 M1854.44 48.3404 L1854.44 74.2257 L1846.99 74.2257 L1846.99 67.3392 Q1844.44 71.4711 1840.63 73.456 Q1836.82 75.4004 1831.31 75.4004 Q1824.35 75.4004 1820.21 71.5116 Q1816.12 67.5822 1816.12 61.0197 Q1816.12 53.3635 1821.23 49.4747 Q1826.37 45.5858 1836.54 45.5858 L1846.99 45.5858 L1846.99 44.8566 Q1846.99 39.712 1843.59 36.9169 Q1840.23 34.0812 1834.11 34.0812 Q1830.22 34.0812 1826.53 35.0129 Q1822.85 35.9446 1819.44 37.8081 L1819.44 30.9215 Q1823.54 29.3417 1827.38 28.572 Q1831.23 27.7618 1834.88 27.7618 Q1844.72 27.7618 1849.58 32.866 Q1854.44 37.9701 1854.44 48.3404 Z" fill="#000000" fill-rule="evenodd" fill-opacity="1" /><path clip-path="url(#clip770)" d="M1877.17 15.9737 L1877.17 28.8556 L1892.52 28.8556 L1892.52 34.6484 L1877.17 34.6484 L1877.17 59.2779 Q1877.17 64.8276 1878.67 66.4074 Q1880.21 67.9873 1884.87 67.9873 L1892.52 67.9873 L1892.52 74.2257 L1884.87 74.2257 Q1876.24 74.2257 1872.96 71.0255 Q1869.68 67.7847 1869.68 59.2779 L1869.68 34.6484 L1864.21 34.6484 L1864.21 28.8556 L1869.68 28.8556 L1869.68 15.9737 L1877.17 15.9737 Z" fill="#000000" fill-rule="evenodd" fill-opacity="1" /><path clip-path="url(#clip770)" d="M1902.33 28.8556 L1909.78 28.8556 L1909.78 74.2257 L1902.33 74.2257 L1902.33 28.8556 M1902.33 11.1936 L1909.78 11.1936 L1909.78 20.6322 L1902.33 20.6322 L1902.33 11.1936 Z" fill="#000000" fill-rule="evenodd" fill-opacity="1" /><path clip-path="url(#clip770)" d="M1942.96 34.0812 Q1936.96 34.0812 1933.48 38.7803 Q1929.99 43.4388 1929.99 51.5811 Q1929.99 59.7235 1933.44 64.4225 Q1936.92 69.081 1942.96 69.081 Q1948.91 69.081 1952.4 64.382 Q1955.88 59.6829 1955.88 51.5811 Q1955.88 43.5198 1952.4 38.8208 Q1948.91 34.0812 1942.96 34.0812 M1942.96 27.7618 Q1952.68 27.7618 1958.23 34.0812 Q1963.78 40.4006 1963.78 51.5811 Q1963.78 62.7211 1958.23 69.081 Q1952.68 75.4004 1942.96 75.4004 Q1933.19 75.4004 1927.64 69.081 Q1922.14 62.7211 1922.14 51.5811 Q1922.14 40.4006 1927.64 34.0812 Q1933.19 27.7618 1942.96 27.7618 Z" fill="#000000" fill-rule="evenodd" fill-opacity="1" /><path clip-path="url(#clip770)" d="M2013.85 46.8416 L2013.85 74.2257 L2006.39 74.2257 L2006.39 47.0846 Q2006.39 40.6437 2003.88 37.4435 Q2001.37 34.2433 1996.35 34.2433 Q1990.31 34.2433 1986.83 38.0916 Q1983.34 41.94 1983.34 48.5835 L1983.34 74.2257 L1975.85 74.2257 L1975.85 28.8556 L1983.34 28.8556 L1983.34 35.9041 Q1986.02 31.8127 1989.62 29.7873 Q1993.27 27.7618 1998.01 27.7618 Q2005.83 27.7618 2009.84 32.6229 Q2013.85 37.4435 2013.85 46.8416 Z" fill="#000000" fill-rule="evenodd" fill-opacity="1" /><path clip-path="url(#clip770)" d="M2062.3 67.4202 L2062.3 91.4825 L2054.8 91.4825 L2054.8 28.8556 L2062.3 28.8556 L2062.3 35.7421 Q2064.65 31.6912 2068.21 29.7468 Q2071.82 27.7618 2076.8 27.7618 Q2085.06 27.7618 2090.21 34.3243 Q2095.39 40.8867 2095.39 51.5811 Q2095.39 62.2755 2090.21 68.838 Q2085.06 75.4004 2076.8 75.4004 Q2071.82 75.4004 2068.21 73.456 Q2064.65 71.4711 2062.3 67.4202 M2087.66 51.5811 Q2087.66 43.3578 2084.25 38.6993 Q2080.89 34.0002 2074.98 34.0002 Q2069.06 34.0002 2065.66 38.6993 Q2062.3 43.3578 2062.3 51.5811 Q2062.3 59.8045 2065.66 64.5035 Q2069.06 69.1621 2074.98 69.1621 Q2080.89 69.1621 2084.25 64.5035 Q2087.66 59.8045 2087.66 51.5811 Z" fill="#000000" fill-rule="evenodd" fill-opacity="1" /><path clip-path="url(#clip770)" d="M2125.33 34.0812 Q2119.33 34.0812 2115.85 38.7803 Q2112.37 43.4388 2112.37 51.5811 Q2112.37 59.7235 2115.81 64.4225 Q2119.29 69.081 2125.33 69.081 Q2131.28 69.081 2134.77 64.382 Q2138.25 59.6829 2138.25 51.5811 Q2138.25 43.5198 2134.77 38.8208 Q2131.28 34.0812 2125.33 34.0812 M2125.33 27.7618 Q2135.05 27.7618 2140.6 34.0812 Q2146.15 40.4006 2146.15 51.5811 Q2146.15 62.7211 2140.6 69.081 Q2135.05 75.4004 2125.33 75.4004 Q2115.57 75.4004 2110.02 69.081 Q2104.51 62.7211 2104.51 51.5811 Q2104.51 40.4006 2110.02 34.0812 Q2115.57 27.7618 2125.33 27.7618 Z" fill="#000000" fill-rule="evenodd" fill-opacity="1" /><path clip-path="url(#clip770)" d="M2158.51 28.8556 L2165.96 28.8556 L2165.96 74.2257 L2158.51 74.2257 L2158.51 28.8556 M2158.51 11.1936 L2165.96 11.1936 L2165.96 20.6322 L2158.51 20.6322 L2158.51 11.1936 Z" fill="#000000" fill-rule="evenodd" fill-opacity="1" /><path clip-path="url(#clip770)" d="M2219.27 46.8416 L2219.27 74.2257 L2211.82 74.2257 L2211.82 47.0846 Q2211.82 40.6437 2209.3 37.4435 Q2206.79 34.2433 2201.77 34.2433 Q2195.73 34.2433 2192.25 38.0916 Q2188.77 41.94 2188.77 48.5835 L2188.77 74.2257 L2181.27 74.2257 L2181.27 28.8556 L2188.77 28.8556 L2188.77 35.9041 Q2191.44 31.8127 2195.04 29.7873 Q2198.69 27.7618 2203.43 27.7618 Q2211.25 27.7618 2215.26 32.6229 Q2219.27 37.4435 2219.27 46.8416 Z" fill="#000000" fill-rule="evenodd" fill-opacity="1" /><path clip-path="url(#clip770)" d="M2241.51 15.9737 L2241.51 28.8556 L2256.86 28.8556 L2256.86 34.6484 L2241.51 34.6484 L2241.51 59.2779 Q2241.51 64.8276 2243.01 66.4074 Q2244.55 67.9873 2249.21 67.9873 L2256.86 67.9873 L2256.86 74.2257 L2249.21 74.2257 Q2240.58 74.2257 2237.3 71.0255 Q2234.01 67.7847 2234.01 59.2779 L2234.01 34.6484 L2228.55 34.6484 L2228.55 28.8556 L2234.01 28.8556 L2234.01 15.9737 L2241.51 15.9737 Z" fill="#000000" fill-rule="evenodd" fill-opacity="1" /><path clip-path="url(#clip770)" d="M2295.59 30.1924 L2295.59 37.2409 Q2292.43 35.6206 2289.03 34.8104 Q2285.62 34.0002 2281.98 34.0002 Q2276.43 34.0002 2273.63 35.7016 Q2270.88 37.403 2270.88 40.8057 Q2270.88 43.3983 2272.86 44.8971 Q2274.85 46.3555 2280.84 47.6923 L2283.39 48.2594 Q2291.33 49.9608 2294.66 53.08 Q2298.02 56.1587 2298.02 61.7084 Q2298.02 68.0278 2293 71.7141 Q2288.01 75.4004 2279.26 75.4004 Q2275.62 75.4004 2271.65 74.6713 Q2267.72 73.9826 2263.34 72.5648 L2263.34 64.8681 Q2267.47 67.0151 2271.49 68.1088 Q2275.5 69.1621 2279.42 69.1621 Q2284.69 69.1621 2287.53 67.3797 Q2290.36 65.5568 2290.36 62.2755 Q2290.36 59.2373 2288.3 57.617 Q2286.27 55.9966 2279.34 54.4978 L2276.75 53.8901 Q2269.82 52.4318 2266.75 49.4342 Q2263.67 46.396 2263.67 41.1298 Q2263.67 34.7294 2268.2 31.2456 Q2272.74 27.7618 2281.09 27.7618 Q2285.22 27.7618 2288.86 28.3695 Q2292.51 28.9771 2295.59 30.1924 Z" fill="#000000" fill-rule="evenodd" fill-opacity="1" /><circle clip-path="url(#clip772)" cx="340.034" cy="1374.46" r="14" fill="#0000ff" fill-rule="evenodd" fill-opacity="1" stroke="#000000" stroke-opacity="1" stroke-width="3.2"/>
<circle clip-path="url(#clip772)" cx="340.034" cy="1374.46" r="14" fill="#0000ff" fill-rule="evenodd" fill-opacity="1" stroke="#000000" stroke-opacity="1" stroke-width="3.2"/>
<circle clip-path="url(#clip772)" cx="340.034" cy="1374.46" r="14" fill="#0000ff" fill-rule="evenodd" fill-opacity="1" stroke="#000000" stroke-opacity="1" stroke-width="3.2"/>
<circle clip-path="url(#clip772)" cx="436.805" cy="1280.2" r="14" fill="#0000ff" fill-rule="evenodd" fill-opacity="1" stroke="#000000" stroke-opacity="1" stroke-width="3.2"/>
<circle clip-path="url(#clip772)" cx="436.805" cy="1280.2" r="14" fill="#0000ff" fill-rule="evenodd" fill-opacity="1" stroke="#000000" stroke-opacity="1" stroke-width="3.2"/>
<circle clip-path="url(#clip772)" cx="511.867" cy="1254.94" r="14" fill="#0000ff" fill-rule="evenodd" fill-opacity="1" stroke="#000000" stroke-opacity="1" stroke-width="3.2"/>
<circle clip-path="url(#clip772)" cx="573.197" cy="1264.43" r="14" fill="#0000ff" fill-rule="evenodd" fill-opacity="1" stroke="#000000" stroke-opacity="1" stroke-width="3.2"/>
<circle clip-path="url(#clip772)" cx="573.197" cy="1264.43" r="14" fill="#0000ff" fill-rule="evenodd" fill-opacity="1" stroke="#000000" stroke-opacity="1" stroke-width="3.2"/>
<circle clip-path="url(#clip772)" cx="625.051" cy="1246.4" r="14" fill="#0000ff" fill-rule="evenodd" fill-opacity="1" stroke="#000000" stroke-opacity="1" stroke-width="3.2"/>
<circle clip-path="url(#clip772)" cx="669.969" cy="1176.6" r="14" fill="#0000ff" fill-rule="evenodd" fill-opacity="1" stroke="#000000" stroke-opacity="1" stroke-width="3.2"/>
<circle clip-path="url(#clip772)" cx="709.589" cy="1160.04" r="14" fill="#0000ff" fill-rule="evenodd" fill-opacity="1" stroke="#000000" stroke-opacity="1" stroke-width="3.2"/>
<circle clip-path="url(#clip772)" cx="777.091" cy="1128.11" r="14" fill="#0000ff" fill-rule="evenodd" fill-opacity="1" stroke="#000000" stroke-opacity="1" stroke-width="3.2"/>
<circle clip-path="url(#clip772)" cx="806.36" cy="1078.42" r="14" fill="#0000ff" fill-rule="evenodd" fill-opacity="1" stroke="#000000" stroke-opacity="1" stroke-width="3.2"/>
<circle clip-path="url(#clip772)" cx="858.214" cy="999.517" r="14" fill="#0000ff" fill-rule="evenodd" fill-opacity="1" stroke="#000000" stroke-opacity="1" stroke-width="3.2"/>
<circle clip-path="url(#clip772)" cx="881.422" cy="1066.29" r="14" fill="#0000ff" fill-rule="evenodd" fill-opacity="1" stroke="#000000" stroke-opacity="1" stroke-width="3.2"/>
<circle clip-path="url(#clip772)" cx="923.525" cy="1051.24" r="14" fill="#0000ff" fill-rule="evenodd" fill-opacity="1" stroke="#000000" stroke-opacity="1" stroke-width="3.2"/>
<circle clip-path="url(#clip772)" cx="960.939" cy="1016.26" r="14" fill="#0000ff" fill-rule="evenodd" fill-opacity="1" stroke="#000000" stroke-opacity="1" stroke-width="3.2"/>
<circle clip-path="url(#clip772)" cx="1010.25" cy="1053.76" r="14" fill="#0000ff" fill-rule="evenodd" fill-opacity="1" stroke="#000000" stroke-opacity="1" stroke-width="3.2"/>
<circle clip-path="url(#clip772)" cx="1053.26" cy="923.811" r="14" fill="#0000ff" fill-rule="evenodd" fill-opacity="1" stroke="#000000" stroke-opacity="1" stroke-width="3.2"/>
<circle clip-path="url(#clip772)" cx="1091.38" cy="894.121" r="14" fill="#0000ff" fill-rule="evenodd" fill-opacity="1" stroke="#000000" stroke-opacity="1" stroke-width="3.2"/>
<circle clip-path="url(#clip772)" cx="1136.29" cy="970.744" r="14" fill="#0000ff" fill-rule="evenodd" fill-opacity="1" stroke="#000000" stroke-opacity="1" stroke-width="3.2"/>
<circle clip-path="url(#clip772)" cx="1175.92" cy="930.161" r="14" fill="#0000ff" fill-rule="evenodd" fill-opacity="1" stroke="#000000" stroke-opacity="1" stroke-width="3.2"/>
<circle clip-path="url(#clip772)" cx="1211.36" cy="836.77" r="14" fill="#0000ff" fill-rule="evenodd" fill-opacity="1" stroke="#000000" stroke-opacity="1" stroke-width="3.2"/>
<circle clip-path="url(#clip772)" cx="1250.98" cy="854.284" r="14" fill="#0000ff" fill-rule="evenodd" fill-opacity="1" stroke="#000000" stroke-opacity="1" stroke-width="3.2"/>
<circle clip-path="url(#clip772)" cx="1293.08" cy="854.389" r="14" fill="#0000ff" fill-rule="evenodd" fill-opacity="1" stroke="#000000" stroke-opacity="1" stroke-width="3.2"/>
<circle clip-path="url(#clip772)" cx="1336.34" cy="837.433" r="14" fill="#0000ff" fill-rule="evenodd" fill-opacity="1" stroke="#000000" stroke-opacity="1" stroke-width="3.2"/>
<circle clip-path="url(#clip772)" cx="1374.67" cy="721.144" r="14" fill="#0000ff" fill-rule="evenodd" fill-opacity="1" stroke="#000000" stroke-opacity="1" stroke-width="3.2"/>
<circle clip-path="url(#clip772)" cx="1413.72" cy="676.025" r="14" fill="#0000ff" fill-rule="evenodd" fill-opacity="1" stroke="#000000" stroke-opacity="1" stroke-width="3.2"/>
<circle clip-path="url(#clip772)" cx="1452.83" cy="707.985" r="14" fill="#0000ff" fill-rule="evenodd" fill-opacity="1" stroke="#000000" stroke-opacity="1" stroke-width="3.2"/>
<circle clip-path="url(#clip772)" cx="1495.17" cy="659.721" r="14" fill="#0000ff" fill-rule="evenodd" fill-opacity="1" stroke="#000000" stroke-opacity="1" stroke-width="3.2"/>
<circle clip-path="url(#clip772)" cx="1535.99" cy="648.544" r="14" fill="#0000ff" fill-rule="evenodd" fill-opacity="1" stroke="#000000" stroke-opacity="1" stroke-width="3.2"/>
<circle clip-path="url(#clip772)" cx="1575.26" cy="681.582" r="14" fill="#0000ff" fill-rule="evenodd" fill-opacity="1" stroke="#000000" stroke-opacity="1" stroke-width="3.2"/>
<circle clip-path="url(#clip772)" cx="1615.51" cy="619.921" r="14" fill="#0000ff" fill-rule="evenodd" fill-opacity="1" stroke="#000000" stroke-opacity="1" stroke-width="3.2"/>
<circle clip-path="url(#clip772)" cx="1655.97" cy="642.694" r="14" fill="#0000ff" fill-rule="evenodd" fill-opacity="1" stroke="#000000" stroke-opacity="1" stroke-width="3.2"/>
<circle clip-path="url(#clip772)" cx="1694.1" cy="533.208" r="14" fill="#0000ff" fill-rule="evenodd" fill-opacity="1" stroke="#000000" stroke-opacity="1" stroke-width="3.2"/>
<circle clip-path="url(#clip772)" cx="1735.49" cy="495.034" r="14" fill="#0000ff" fill-rule="evenodd" fill-opacity="1" stroke="#000000" stroke-opacity="1" stroke-width="3.2"/>
<circle clip-path="url(#clip772)" cx="1775.5" cy="554.219" r="14" fill="#0000ff" fill-rule="evenodd" fill-opacity="1" stroke="#000000" stroke-opacity="1" stroke-width="3.2"/>
<circle clip-path="url(#clip772)" cx="1815.47" cy="470.983" r="14" fill="#0000ff" fill-rule="evenodd" fill-opacity="1" stroke="#000000" stroke-opacity="1" stroke-width="3.2"/>
<circle clip-path="url(#clip772)" cx="1854.94" cy="511.283" r="14" fill="#0000ff" fill-rule="evenodd" fill-opacity="1" stroke="#000000" stroke-opacity="1" stroke-width="3.2"/>
<circle clip-path="url(#clip772)" cx="1894.7" cy="485.724" r="14" fill="#0000ff" fill-rule="evenodd" fill-opacity="1" stroke="#000000" stroke-opacity="1" stroke-width="3.2"/>
<circle clip-path="url(#clip772)" cx="1935.17" cy="446.701" r="14" fill="#0000ff" fill-rule="evenodd" fill-opacity="1" stroke="#000000" stroke-opacity="1" stroke-width="3.2"/>
<circle clip-path="url(#clip772)" cx="1974.79" cy="366.283" r="14" fill="#0000ff" fill-rule="evenodd" fill-opacity="1" stroke="#000000" stroke-opacity="1" stroke-width="3.2"/>
<circle clip-path="url(#clip772)" cx="2014.9" cy="299.724" r="14" fill="#0000ff" fill-rule="evenodd" fill-opacity="1" stroke="#000000" stroke-opacity="1" stroke-width="3.2"/>
<circle clip-path="url(#clip772)" cx="2054.17" cy="420.392" r="14" fill="#0000ff" fill-rule="evenodd" fill-opacity="1" stroke="#000000" stroke-opacity="1" stroke-width="3.2"/>
<circle clip-path="url(#clip772)" cx="2094.25" cy="310.913" r="14" fill="#0000ff" fill-rule="evenodd" fill-opacity="1" stroke="#000000" stroke-opacity="1" stroke-width="3.2"/>
<circle clip-path="url(#clip772)" cx="2134.41" cy="254.251" r="14" fill="#0000ff" fill-rule="evenodd" fill-opacity="1" stroke="#000000" stroke-opacity="1" stroke-width="3.2"/>
<circle clip-path="url(#clip772)" cx="2174.15" cy="304.951" r="14" fill="#0000ff" fill-rule="evenodd" fill-opacity="1" stroke="#000000" stroke-opacity="1" stroke-width="3.2"/>
<circle clip-path="url(#clip772)" cx="2213.99" cy="184.273" r="14" fill="#0000ff" fill-rule="evenodd" fill-opacity="1" stroke="#000000" stroke-opacity="1" stroke-width="3.2"/>
<circle clip-path="url(#clip772)" cx="2254.18" cy="188.947" r="14" fill="#0000ff" fill-rule="evenodd" fill-opacity="1" stroke="#000000" stroke-opacity="1" stroke-width="3.2"/>
<circle clip-path="url(#clip772)" cx="2294.13" cy="159.909" r="14" fill="#0000ff" fill-rule="evenodd" fill-opacity="1" stroke="#000000" stroke-opacity="1" stroke-width="3.2"/>
</svg>
