<?xml version="1.0" encoding="utf-8"?>
<svg xmlns="http://www.w3.org/2000/svg" xmlns:xlink="http://www.w3.org/1999/xlink" width="600" height="400" viewBox="0 0 2400 1600">
<defs>
  <clipPath id="clip610">
    <rect x="0" y="0" width="2400" height="1600"/>
  </clipPath>
</defs>
<path clip-path="url(#clip610)" d="
M0 1600 L2400 1600 L2400 0 L0 0  Z
  " fill="#ffffff" fill-rule="evenodd" fill-opacity="1"/>
<defs>
  <clipPath id="clip611">
    <rect x="480" y="0" width="1681" height="1600"/>
  </clipPath>
</defs>
<path clip-path="url(#clip610)" d="
M317.528 1423.18 L2352.76 1423.18 L2352.76 47.2441 L317.528 47.2441  Z
  " fill="#ffffff" fill-rule="evenodd" fill-opacity="1"/>
<defs>
  <clipPath id="clip612">
    <rect x="317" y="47" width="2036" height="1377"/>
  </clipPath>
</defs>
<polyline clip-path="url(#clip612)" style="stroke:#000000; stroke-linecap:butt; stroke-linejoin:round; stroke-width:2; stroke-opacity:0.1; fill:none" points="
  375.129,1423.18 375.129,47.2441 
  "/>
<polyline clip-path="url(#clip612)" style="stroke:#000000; stroke-linecap:butt; stroke-linejoin:round; stroke-width:2; stroke-opacity:0.1; fill:none" points="
  855.135,1423.18 855.135,47.2441 
  "/>
<polyline clip-path="url(#clip612)" style="stroke:#000000; stroke-linecap:butt; stroke-linejoin:round; stroke-width:2; stroke-opacity:0.1; fill:none" points="
  1335.14,1423.18 1335.14,47.2441 
  "/>
<polyline clip-path="url(#clip612)" style="stroke:#000000; stroke-linecap:butt; stroke-linejoin:round; stroke-width:2; stroke-opacity:0.1; fill:none" points="
  1815.15,1423.18 1815.15,47.2441 
  "/>
<polyline clip-path="url(#clip612)" style="stroke:#000000; stroke-linecap:butt; stroke-linejoin:round; stroke-width:2; stroke-opacity:0.1; fill:none" points="
  2295.16,1423.18 2295.16,47.2441 
  "/>
<polyline clip-path="url(#clip610)" style="stroke:#000000; stroke-linecap:butt; stroke-linejoin:round; stroke-width:4; stroke-opacity:1; fill:none" points="
  317.528,1423.18 2352.76,1423.18 
  "/>
<polyline clip-path="url(#clip610)" style="stroke:#000000; stroke-linecap:butt; stroke-linejoin:round; stroke-width:4; stroke-opacity:1; fill:none" points="
  375.129,1423.18 375.129,1404.28 
  "/>
<polyline clip-path="url(#clip610)" style="stroke:#000000; stroke-linecap:butt; stroke-linejoin:round; stroke-width:4; stroke-opacity:1; fill:none" points="
  855.135,1423.18 855.135,1404.28 
  "/>
<polyline clip-path="url(#clip610)" style="stroke:#000000; stroke-linecap:butt; stroke-linejoin:round; stroke-width:4; stroke-opacity:1; fill:none" points="
  1335.14,1423.18 1335.14,1404.28 
  "/>
<polyline clip-path="url(#clip610)" style="stroke:#000000; stroke-linecap:butt; stroke-linejoin:round; stroke-width:4; stroke-opacity:1; fill:none" points="
  1815.15,1423.18 1815.15,1404.28 
  "/>
<polyline clip-path="url(#clip610)" style="stroke:#000000; stroke-linecap:butt; stroke-linejoin:round; stroke-width:4; stroke-opacity:1; fill:none" points="
  2295.16,1423.18 2295.16,1404.28 
  "/>
<path clip-path="url(#clip610)" d="M337.432 1454.1 Q333.821 1454.1 331.992 1457.66 Q330.187 1461.2 330.187 1468.33 Q330.187 1475.44 331.992 1479.01 Q333.821 1482.55 337.432 1482.55 Q341.066 1482.55 342.872 1479.01 Q344.7 1475.44 344.7 1468.33 Q344.7 1461.2 342.872 1457.66 Q341.066 1454.1 337.432 1454.1 M337.432 1450.39 Q343.242 1450.39 346.298 1455 Q349.376 1459.58 349.376 1468.33 Q349.376 1477.06 346.298 1481.67 Q343.242 1486.25 337.432 1486.25 Q331.622 1486.25 328.543 1481.67 Q325.488 1477.06 325.488 1468.33 Q325.488 1459.58 328.543 1455 Q331.622 1450.39 337.432 1450.39 Z" fill="#000000" fill-rule="evenodd" fill-opacity="1" /><path clip-path="url(#clip610)" d="M357.594 1479.7 L362.478 1479.7 L362.478 1485.58 L357.594 1485.58 L357.594 1479.7 Z" fill="#000000" fill-rule="evenodd" fill-opacity="1" /><path clip-path="url(#clip610)" d="M382.663 1454.1 Q379.052 1454.1 377.223 1457.66 Q375.418 1461.2 375.418 1468.33 Q375.418 1475.44 377.223 1479.01 Q379.052 1482.55 382.663 1482.55 Q386.297 1482.55 388.103 1479.01 Q389.932 1475.44 389.932 1468.33 Q389.932 1461.2 388.103 1457.66 Q386.297 1454.1 382.663 1454.1 M382.663 1450.39 Q388.473 1450.39 391.529 1455 Q394.608 1459.58 394.608 1468.33 Q394.608 1477.06 391.529 1481.67 Q388.473 1486.25 382.663 1486.25 Q376.853 1486.25 373.774 1481.67 Q370.719 1477.06 370.719 1468.33 Q370.719 1459.58 373.774 1455 Q376.853 1450.39 382.663 1450.39 Z" fill="#000000" fill-rule="evenodd" fill-opacity="1" /><path clip-path="url(#clip610)" d="M412.825 1454.1 Q409.214 1454.1 407.385 1457.66 Q405.58 1461.2 405.58 1468.33 Q405.58 1475.44 407.385 1479.01 Q409.214 1482.55 412.825 1482.55 Q416.459 1482.55 418.265 1479.01 Q420.094 1475.44 420.094 1468.33 Q420.094 1461.2 418.265 1457.66 Q416.459 1454.1 412.825 1454.1 M412.825 1450.39 Q418.635 1450.39 421.691 1455 Q424.77 1459.58 424.77 1468.33 Q424.77 1477.06 421.691 1481.67 Q418.635 1486.25 412.825 1486.25 Q407.015 1486.25 403.936 1481.67 Q400.881 1477.06 400.881 1468.33 Q400.881 1459.58 403.936 1455 Q407.015 1450.39 412.825 1450.39 Z" fill="#000000" fill-rule="evenodd" fill-opacity="1" /><path clip-path="url(#clip610)" d="M817.936 1454.1 Q814.325 1454.1 812.497 1457.66 Q810.691 1461.2 810.691 1468.33 Q810.691 1475.44 812.497 1479.01 Q814.325 1482.55 817.936 1482.55 Q821.571 1482.55 823.376 1479.01 Q825.205 1475.44 825.205 1468.33 Q825.205 1461.2 823.376 1457.66 Q821.571 1454.1 817.936 1454.1 M817.936 1450.39 Q823.746 1450.39 826.802 1455 Q829.881 1459.58 829.881 1468.33 Q829.881 1477.06 826.802 1481.67 Q823.746 1486.25 817.936 1486.25 Q812.126 1486.25 809.047 1481.67 Q805.992 1477.06 805.992 1468.33 Q805.992 1459.58 809.047 1455 Q812.126 1450.39 817.936 1450.39 Z" fill="#000000" fill-rule="evenodd" fill-opacity="1" /><path clip-path="url(#clip610)" d="M838.098 1479.7 L842.982 1479.7 L842.982 1485.58 L838.098 1485.58 L838.098 1479.7 Z" fill="#000000" fill-rule="evenodd" fill-opacity="1" /><path clip-path="url(#clip610)" d="M857.195 1481.64 L873.515 1481.64 L873.515 1485.58 L851.57 1485.58 L851.57 1481.64 Q854.232 1478.89 858.816 1474.26 Q863.422 1469.61 864.603 1468.27 Q866.848 1465.74 867.728 1464.01 Q868.631 1462.25 868.631 1460.56 Q868.631 1457.8 866.686 1456.07 Q864.765 1454.33 861.663 1454.33 Q859.464 1454.33 857.01 1455.09 Q854.58 1455.86 851.802 1457.41 L851.802 1452.69 Q854.626 1451.55 857.08 1450.97 Q859.533 1450.39 861.57 1450.39 Q866.941 1450.39 870.135 1453.08 Q873.33 1455.77 873.33 1460.26 Q873.33 1462.39 872.519 1464.31 Q871.732 1466.2 869.626 1468.8 Q869.047 1469.47 865.945 1472.69 Q862.844 1475.88 857.195 1481.64 Z" fill="#000000" fill-rule="evenodd" fill-opacity="1" /><path clip-path="url(#clip610)" d="M883.376 1451.02 L901.732 1451.02 L901.732 1454.96 L887.658 1454.96 L887.658 1463.43 Q888.677 1463.08 889.695 1462.92 Q890.714 1462.73 891.732 1462.73 Q897.519 1462.73 900.899 1465.9 Q904.278 1469.08 904.278 1474.49 Q904.278 1480.07 900.806 1483.17 Q897.334 1486.25 891.015 1486.25 Q888.839 1486.25 886.57 1485.88 Q884.325 1485.51 881.917 1484.77 L881.917 1480.07 Q884.001 1481.2 886.223 1481.76 Q888.445 1482.32 890.922 1482.32 Q894.927 1482.32 897.265 1480.21 Q899.603 1478.1 899.603 1474.49 Q899.603 1470.88 897.265 1468.77 Q894.927 1466.67 890.922 1466.67 Q889.047 1466.67 887.172 1467.08 Q885.32 1467.5 883.376 1468.38 L883.376 1451.02 Z" fill="#000000" fill-rule="evenodd" fill-opacity="1" /><path clip-path="url(#clip610)" d="M1297.45 1454.1 Q1293.83 1454.1 1292.01 1457.66 Q1290.2 1461.2 1290.2 1468.33 Q1290.2 1475.44 1292.01 1479.01 Q1293.83 1482.55 1297.45 1482.55 Q1301.08 1482.55 1302.89 1479.01 Q1304.71 1475.44 1304.71 1468.33 Q1304.71 1461.2 1302.89 1457.66 Q1301.08 1454.1 1297.45 1454.1 M1297.45 1450.39 Q1303.26 1450.39 1306.31 1455 Q1309.39 1459.58 1309.39 1468.33 Q1309.39 1477.06 1306.31 1481.67 Q1303.26 1486.25 1297.45 1486.25 Q1291.64 1486.25 1288.56 1481.67 Q1285.5 1477.06 1285.5 1468.33 Q1285.5 1459.58 1288.56 1455 Q1291.64 1450.39 1297.45 1450.39 Z" fill="#000000" fill-rule="evenodd" fill-opacity="1" /><path clip-path="url(#clip610)" d="M1317.61 1479.7 L1322.49 1479.7 L1322.49 1485.58 L1317.61 1485.58 L1317.61 1479.7 Z" fill="#000000" fill-rule="evenodd" fill-opacity="1" /><path clip-path="url(#clip610)" d="M1332.72 1451.02 L1351.08 1451.02 L1351.08 1454.96 L1337.01 1454.96 L1337.01 1463.43 Q1338.02 1463.08 1339.04 1462.92 Q1340.06 1462.73 1341.08 1462.73 Q1346.87 1462.73 1350.25 1465.9 Q1353.63 1469.08 1353.63 1474.49 Q1353.63 1480.07 1350.15 1483.17 Q1346.68 1486.25 1340.36 1486.25 Q1338.19 1486.25 1335.92 1485.88 Q1333.67 1485.51 1331.26 1484.77 L1331.26 1480.07 Q1333.35 1481.2 1335.57 1481.76 Q1337.79 1482.32 1340.27 1482.32 Q1344.27 1482.32 1346.61 1480.21 Q1348.95 1478.1 1348.95 1474.49 Q1348.95 1470.88 1346.61 1468.77 Q1344.27 1466.67 1340.27 1466.67 Q1338.39 1466.67 1336.52 1467.08 Q1334.67 1467.5 1332.72 1468.38 L1332.72 1451.02 Z" fill="#000000" fill-rule="evenodd" fill-opacity="1" /><path clip-path="url(#clip610)" d="M1372.84 1454.1 Q1369.23 1454.1 1367.4 1457.66 Q1365.59 1461.2 1365.59 1468.33 Q1365.59 1475.44 1367.4 1479.01 Q1369.23 1482.55 1372.84 1482.55 Q1376.47 1482.55 1378.28 1479.01 Q1380.11 1475.44 1380.11 1468.33 Q1380.11 1461.2 1378.28 1457.66 Q1376.47 1454.1 1372.84 1454.1 M1372.84 1450.39 Q1378.65 1450.39 1381.7 1455 Q1384.78 1459.58 1384.78 1468.33 Q1384.78 1477.06 1381.7 1481.67 Q1378.65 1486.25 1372.84 1486.25 Q1367.03 1486.25 1363.95 1481.67 Q1360.89 1477.06 1360.89 1468.33 Q1360.89 1459.58 1363.95 1455 Q1367.03 1450.39 1372.84 1450.39 Z" fill="#000000" fill-rule="evenodd" fill-opacity="1" /><path clip-path="url(#clip610)" d="M1777.95 1454.1 Q1774.34 1454.1 1772.51 1457.66 Q1770.7 1461.2 1770.7 1468.33 Q1770.7 1475.44 1772.51 1479.01 Q1774.34 1482.55 1777.95 1482.55 Q1781.58 1482.55 1783.39 1479.01 Q1785.22 1475.44 1785.22 1468.33 Q1785.22 1461.2 1783.39 1457.66 Q1781.58 1454.1 1777.95 1454.1 M1777.95 1450.39 Q1783.76 1450.39 1786.82 1455 Q1789.89 1459.58 1789.89 1468.33 Q1789.89 1477.06 1786.82 1481.67 Q1783.76 1486.25 1777.95 1486.25 Q1772.14 1486.25 1769.06 1481.67 Q1766.01 1477.06 1766.01 1468.33 Q1766.01 1459.58 1769.06 1455 Q1772.14 1450.39 1777.95 1450.39 Z" fill="#000000" fill-rule="evenodd" fill-opacity="1" /><path clip-path="url(#clip610)" d="M1798.11 1479.7 L1803 1479.7 L1803 1485.58 L1798.11 1485.58 L1798.11 1479.7 Z" fill="#000000" fill-rule="evenodd" fill-opacity="1" /><path clip-path="url(#clip610)" d="M1812 1451.02 L1834.22 1451.02 L1834.22 1453.01 L1821.68 1485.58 L1816.79 1485.58 L1828.6 1454.96 L1812 1454.96 L1812 1451.02 Z" fill="#000000" fill-rule="evenodd" fill-opacity="1" /><path clip-path="url(#clip610)" d="M1843.39 1451.02 L1861.75 1451.02 L1861.75 1454.96 L1847.67 1454.96 L1847.67 1463.43 Q1848.69 1463.08 1849.71 1462.92 Q1850.73 1462.73 1851.75 1462.73 Q1857.53 1462.73 1860.91 1465.9 Q1864.29 1469.08 1864.29 1474.49 Q1864.29 1480.07 1860.82 1483.17 Q1857.35 1486.25 1851.03 1486.25 Q1848.85 1486.25 1846.58 1485.88 Q1844.34 1485.51 1841.93 1484.77 L1841.93 1480.07 Q1844.01 1481.2 1846.24 1481.76 Q1848.46 1482.32 1850.94 1482.32 Q1854.94 1482.32 1857.28 1480.21 Q1859.62 1478.1 1859.62 1474.49 Q1859.62 1470.88 1857.28 1468.77 Q1854.94 1466.67 1850.94 1466.67 Q1849.06 1466.67 1847.19 1467.08 Q1845.33 1467.5 1843.39 1468.38 L1843.39 1451.02 Z" fill="#000000" fill-rule="evenodd" fill-opacity="1" /><path clip-path="url(#clip610)" d="M2247.23 1481.64 L2254.87 1481.64 L2254.87 1455.28 L2246.56 1456.95 L2246.56 1452.69 L2254.82 1451.02 L2259.5 1451.02 L2259.5 1481.64 L2267.13 1481.64 L2267.13 1485.58 L2247.23 1485.58 L2247.23 1481.64 Z" fill="#000000" fill-rule="evenodd" fill-opacity="1" /><path clip-path="url(#clip610)" d="M2276.58 1479.7 L2281.46 1479.7 L2281.46 1485.58 L2276.58 1485.58 L2276.58 1479.7 Z" fill="#000000" fill-rule="evenodd" fill-opacity="1" /><path clip-path="url(#clip610)" d="M2301.65 1454.1 Q2298.04 1454.1 2296.21 1457.66 Q2294.4 1461.2 2294.4 1468.33 Q2294.4 1475.44 2296.21 1479.01 Q2298.04 1482.55 2301.65 1482.55 Q2305.28 1482.55 2307.09 1479.01 Q2308.92 1475.44 2308.92 1468.33 Q2308.92 1461.2 2307.09 1457.66 Q2305.28 1454.1 2301.65 1454.1 M2301.65 1450.39 Q2307.46 1450.39 2310.51 1455 Q2313.59 1459.58 2313.59 1468.33 Q2313.59 1477.06 2310.51 1481.67 Q2307.46 1486.25 2301.65 1486.25 Q2295.84 1486.25 2292.76 1481.67 Q2289.7 1477.06 2289.7 1468.33 Q2289.7 1459.58 2292.76 1455 Q2295.84 1450.39 2301.65 1450.39 Z" fill="#000000" fill-rule="evenodd" fill-opacity="1" /><path clip-path="url(#clip610)" d="M2331.81 1454.1 Q2328.2 1454.1 2326.37 1457.66 Q2324.56 1461.2 2324.56 1468.33 Q2324.56 1475.44 2326.37 1479.01 Q2328.2 1482.55 2331.81 1482.55 Q2335.44 1482.55 2337.25 1479.01 Q2339.08 1475.44 2339.08 1468.33 Q2339.08 1461.2 2337.25 1457.66 Q2335.44 1454.1 2331.81 1454.1 M2331.81 1450.39 Q2337.62 1450.39 2340.68 1455 Q2343.75 1459.58 2343.75 1468.33 Q2343.75 1477.06 2340.68 1481.67 Q2337.62 1486.25 2331.81 1486.25 Q2326 1486.25 2322.92 1481.67 Q2319.87 1477.06 2319.87 1468.33 Q2319.87 1459.58 2322.92 1455 Q2326 1450.39 2331.81 1450.39 Z" fill="#000000" fill-rule="evenodd" fill-opacity="1" /><path clip-path="url(#clip610)" d="M1351.76 1532.4 L1338.87 1549.74 L1352.42 1568.04 L1345.52 1568.04 L1335.14 1554.04 L1324.77 1568.04 L1317.86 1568.04 L1331.7 1549.39 L1319.04 1532.4 L1325.94 1532.4 L1335.4 1545.1 L1344.85 1532.4 L1351.76 1532.4 Z" fill="#000000" fill-rule="evenodd" fill-opacity="1" /><polyline clip-path="url(#clip612)" style="stroke:#000000; stroke-linecap:butt; stroke-linejoin:round; stroke-width:2; stroke-opacity:0.1; fill:none" points="
  317.528,1384.24 2352.76,1384.24 
  "/>
<polyline clip-path="url(#clip612)" style="stroke:#000000; stroke-linecap:butt; stroke-linejoin:round; stroke-width:2; stroke-opacity:0.1; fill:none" points="
  317.528,1059.73 2352.76,1059.73 
  "/>
<polyline clip-path="url(#clip612)" style="stroke:#000000; stroke-linecap:butt; stroke-linejoin:round; stroke-width:2; stroke-opacity:0.1; fill:none" points="
  317.528,735.212 2352.76,735.212 
  "/>
<polyline clip-path="url(#clip612)" style="stroke:#000000; stroke-linecap:butt; stroke-linejoin:round; stroke-width:2; stroke-opacity:0.1; fill:none" points="
  317.528,410.699 2352.76,410.699 
  "/>
<polyline clip-path="url(#clip612)" style="stroke:#000000; stroke-linecap:butt; stroke-linejoin:round; stroke-width:2; stroke-opacity:0.1; fill:none" points="
  317.528,86.1857 2352.76,86.1857 
  "/>
<polyline clip-path="url(#clip610)" style="stroke:#000000; stroke-linecap:butt; stroke-linejoin:round; stroke-width:4; stroke-opacity:1; fill:none" points="
  317.528,1423.18 317.528,47.2441 
  "/>
<polyline clip-path="url(#clip610)" style="stroke:#000000; stroke-linecap:butt; stroke-linejoin:round; stroke-width:4; stroke-opacity:1; fill:none" points="
  317.528,1384.24 336.425,1384.24 
  "/>
<polyline clip-path="url(#clip610)" style="stroke:#000000; stroke-linecap:butt; stroke-linejoin:round; stroke-width:4; stroke-opacity:1; fill:none" points="
  317.528,1059.73 336.425,1059.73 
  "/>
<polyline clip-path="url(#clip610)" style="stroke:#000000; stroke-linecap:butt; stroke-linejoin:round; stroke-width:4; stroke-opacity:1; fill:none" points="
  317.528,735.212 336.425,735.212 
  "/>
<polyline clip-path="url(#clip610)" style="stroke:#000000; stroke-linecap:butt; stroke-linejoin:round; stroke-width:4; stroke-opacity:1; fill:none" points="
  317.528,410.699 336.425,410.699 
  "/>
<polyline clip-path="url(#clip610)" style="stroke:#000000; stroke-linecap:butt; stroke-linejoin:round; stroke-width:4; stroke-opacity:1; fill:none" points="
  317.528,86.1857 336.425,86.1857 
  "/>
<path clip-path="url(#clip610)" d="M114.26 1384.69 L143.936 1384.69 L143.936 1388.62 L114.26 1388.62 L114.26 1384.69 Z" fill="#000000" fill-rule="evenodd" fill-opacity="1" /><path clip-path="url(#clip610)" d="M164.028 1370.04 Q160.417 1370.04 158.589 1373.6 Q156.783 1377.14 156.783 1384.27 Q156.783 1391.38 158.589 1394.94 Q160.417 1398.49 164.028 1398.49 Q167.663 1398.49 169.468 1394.94 Q171.297 1391.38 171.297 1384.27 Q171.297 1377.14 169.468 1373.6 Q167.663 1370.04 164.028 1370.04 M164.028 1366.33 Q169.839 1366.33 172.894 1370.94 Q175.973 1375.52 175.973 1384.27 Q175.973 1393 172.894 1397.61 Q169.839 1402.19 164.028 1402.19 Q158.218 1402.19 155.14 1397.61 Q152.084 1393 152.084 1384.27 Q152.084 1375.52 155.14 1370.94 Q158.218 1366.33 164.028 1366.33 Z" fill="#000000" fill-rule="evenodd" fill-opacity="1" /><path clip-path="url(#clip610)" d="M184.19 1395.64 L189.075 1395.64 L189.075 1401.52 L184.19 1401.52 L184.19 1395.64 Z" fill="#000000" fill-rule="evenodd" fill-opacity="1" /><path clip-path="url(#clip610)" d="M200.07 1397.58 L207.709 1397.58 L207.709 1371.22 L199.399 1372.88 L199.399 1368.62 L207.662 1366.96 L212.338 1366.96 L212.338 1397.58 L219.977 1397.58 L219.977 1401.52 L200.07 1401.52 L200.07 1397.58 Z" fill="#000000" fill-rule="evenodd" fill-opacity="1" /><path clip-path="url(#clip610)" d="M239.422 1370.04 Q235.81 1370.04 233.982 1373.6 Q232.176 1377.14 232.176 1384.27 Q232.176 1391.38 233.982 1394.94 Q235.81 1398.49 239.422 1398.49 Q243.056 1398.49 244.861 1394.94 Q246.69 1391.38 246.69 1384.27 Q246.69 1377.14 244.861 1373.6 Q243.056 1370.04 239.422 1370.04 M239.422 1366.33 Q245.232 1366.33 248.287 1370.94 Q251.366 1375.52 251.366 1384.27 Q251.366 1393 248.287 1397.61 Q245.232 1402.19 239.422 1402.19 Q233.611 1402.19 230.533 1397.61 Q227.477 1393 227.477 1384.27 Q227.477 1375.52 230.533 1370.94 Q233.611 1366.33 239.422 1366.33 Z" fill="#000000" fill-rule="evenodd" fill-opacity="1" /><path clip-path="url(#clip610)" d="M269.583 1370.04 Q265.972 1370.04 264.144 1373.6 Q262.338 1377.14 262.338 1384.27 Q262.338 1391.38 264.144 1394.94 Q265.972 1398.49 269.583 1398.49 Q273.218 1398.49 275.023 1394.94 Q276.852 1391.38 276.852 1384.27 Q276.852 1377.14 275.023 1373.6 Q273.218 1370.04 269.583 1370.04 M269.583 1366.33 Q275.394 1366.33 278.449 1370.94 Q281.528 1375.52 281.528 1384.27 Q281.528 1393 278.449 1397.61 Q275.394 1402.19 269.583 1402.19 Q263.773 1402.19 260.695 1397.61 Q257.639 1393 257.639 1384.27 Q257.639 1375.52 260.695 1370.94 Q263.773 1366.33 269.583 1366.33 Z" fill="#000000" fill-rule="evenodd" fill-opacity="1" /><path clip-path="url(#clip610)" d="M115.256 1060.18 L144.931 1060.18 L144.931 1064.11 L115.256 1064.11 L115.256 1060.18 Z" fill="#000000" fill-rule="evenodd" fill-opacity="1" /><path clip-path="url(#clip610)" d="M165.024 1045.52 Q161.413 1045.52 159.584 1049.09 Q157.778 1052.63 157.778 1059.76 Q157.778 1066.87 159.584 1070.43 Q161.413 1073.97 165.024 1073.97 Q168.658 1073.97 170.464 1070.43 Q172.292 1066.87 172.292 1059.76 Q172.292 1052.63 170.464 1049.09 Q168.658 1045.52 165.024 1045.52 M165.024 1041.82 Q170.834 1041.82 173.889 1046.43 Q176.968 1051.01 176.968 1059.76 Q176.968 1068.49 173.889 1073.09 Q170.834 1077.68 165.024 1077.68 Q159.214 1077.68 156.135 1073.09 Q153.079 1068.49 153.079 1059.76 Q153.079 1051.01 156.135 1046.43 Q159.214 1041.82 165.024 1041.82 Z" fill="#000000" fill-rule="evenodd" fill-opacity="1" /><path clip-path="url(#clip610)" d="M185.186 1071.13 L190.07 1071.13 L190.07 1077.01 L185.186 1077.01 L185.186 1071.13 Z" fill="#000000" fill-rule="evenodd" fill-opacity="1" /><path clip-path="url(#clip610)" d="M210.255 1045.52 Q206.644 1045.52 204.815 1049.09 Q203.01 1052.63 203.01 1059.76 Q203.01 1066.87 204.815 1070.43 Q206.644 1073.97 210.255 1073.97 Q213.889 1073.97 215.695 1070.43 Q217.523 1066.87 217.523 1059.76 Q217.523 1052.63 215.695 1049.09 Q213.889 1045.52 210.255 1045.52 M210.255 1041.82 Q216.065 1041.82 219.121 1046.43 Q222.199 1051.01 222.199 1059.76 Q222.199 1068.49 219.121 1073.09 Q216.065 1077.68 210.255 1077.68 Q204.445 1077.68 201.366 1073.09 Q198.311 1068.49 198.311 1059.76 Q198.311 1051.01 201.366 1046.43 Q204.445 1041.82 210.255 1041.82 Z" fill="#000000" fill-rule="evenodd" fill-opacity="1" /><path clip-path="url(#clip610)" d="M229.236 1042.45 L251.458 1042.45 L251.458 1044.44 L238.912 1077.01 L234.028 1077.01 L245.834 1046.38 L229.236 1046.38 L229.236 1042.45 Z" fill="#000000" fill-rule="evenodd" fill-opacity="1" /><path clip-path="url(#clip610)" d="M260.625 1042.45 L278.981 1042.45 L278.981 1046.38 L264.907 1046.38 L264.907 1054.85 Q265.926 1054.51 266.945 1054.34 Q267.963 1054.16 268.982 1054.16 Q274.769 1054.16 278.148 1057.33 Q281.528 1060.5 281.528 1065.92 Q281.528 1071.5 278.056 1074.6 Q274.583 1077.68 268.264 1077.68 Q266.088 1077.68 263.82 1077.31 Q261.574 1076.94 259.167 1076.19 L259.167 1071.5 Q261.25 1072.63 263.472 1073.19 Q265.695 1073.74 268.171 1073.74 Q272.176 1073.74 274.514 1071.63 Q276.852 1069.53 276.852 1065.92 Q276.852 1062.31 274.514 1060.2 Q272.176 1058.09 268.171 1058.09 Q266.296 1058.09 264.421 1058.51 Q262.57 1058.93 260.625 1059.81 L260.625 1042.45 Z" fill="#000000" fill-rule="evenodd" fill-opacity="1" /><path clip-path="url(#clip610)" d="M114.26 735.663 L143.936 735.663 L143.936 739.599 L114.26 739.599 L114.26 735.663 Z" fill="#000000" fill-rule="evenodd" fill-opacity="1" /><path clip-path="url(#clip610)" d="M164.028 721.011 Q160.417 721.011 158.589 724.575 Q156.783 728.117 156.783 735.247 Q156.783 742.353 158.589 745.918 Q160.417 749.46 164.028 749.46 Q167.663 749.46 169.468 745.918 Q171.297 742.353 171.297 735.247 Q171.297 728.117 169.468 724.575 Q167.663 721.011 164.028 721.011 M164.028 717.307 Q169.839 717.307 172.894 721.913 Q175.973 726.497 175.973 735.247 Q175.973 743.973 172.894 748.58 Q169.839 753.163 164.028 753.163 Q158.218 753.163 155.14 748.58 Q152.084 743.973 152.084 735.247 Q152.084 726.497 155.14 721.913 Q158.218 717.307 164.028 717.307 Z" fill="#000000" fill-rule="evenodd" fill-opacity="1" /><path clip-path="url(#clip610)" d="M184.19 746.612 L189.075 746.612 L189.075 752.492 L184.19 752.492 L184.19 746.612 Z" fill="#000000" fill-rule="evenodd" fill-opacity="1" /><path clip-path="url(#clip610)" d="M209.26 721.011 Q205.649 721.011 203.82 724.575 Q202.014 728.117 202.014 735.247 Q202.014 742.353 203.82 745.918 Q205.649 749.46 209.26 749.46 Q212.894 749.46 214.699 745.918 Q216.528 742.353 216.528 735.247 Q216.528 728.117 214.699 724.575 Q212.894 721.011 209.26 721.011 M209.26 717.307 Q215.07 717.307 218.125 721.913 Q221.204 726.497 221.204 735.247 Q221.204 743.973 218.125 748.58 Q215.07 753.163 209.26 753.163 Q203.449 753.163 200.371 748.58 Q197.315 743.973 197.315 735.247 Q197.315 726.497 200.371 721.913 Q203.449 717.307 209.26 717.307 Z" fill="#000000" fill-rule="evenodd" fill-opacity="1" /><path clip-path="url(#clip610)" d="M229.468 717.932 L247.824 717.932 L247.824 721.867 L233.75 721.867 L233.75 730.339 Q234.769 729.992 235.787 729.83 Q236.806 729.645 237.824 729.645 Q243.611 729.645 246.991 732.816 Q250.371 735.987 250.371 741.404 Q250.371 746.983 246.898 750.085 Q243.426 753.163 237.107 753.163 Q234.931 753.163 232.662 752.793 Q230.417 752.423 228.01 751.682 L228.01 746.983 Q230.093 748.117 232.315 748.673 Q234.537 749.228 237.014 749.228 Q241.019 749.228 243.357 747.122 Q245.695 745.015 245.695 741.404 Q245.695 737.793 243.357 735.687 Q241.019 733.58 237.014 733.58 Q235.139 733.58 233.264 733.997 Q231.412 734.413 229.468 735.293 L229.468 717.932 Z" fill="#000000" fill-rule="evenodd" fill-opacity="1" /><path clip-path="url(#clip610)" d="M269.583 721.011 Q265.972 721.011 264.144 724.575 Q262.338 728.117 262.338 735.247 Q262.338 742.353 264.144 745.918 Q265.972 749.46 269.583 749.46 Q273.218 749.46 275.023 745.918 Q276.852 742.353 276.852 735.247 Q276.852 728.117 275.023 724.575 Q273.218 721.011 269.583 721.011 M269.583 717.307 Q275.394 717.307 278.449 721.913 Q281.528 726.497 281.528 735.247 Q281.528 743.973 278.449 748.58 Q275.394 753.163 269.583 753.163 Q263.773 753.163 260.695 748.58 Q257.639 743.973 257.639 735.247 Q257.639 726.497 260.695 721.913 Q263.773 717.307 269.583 717.307 Z" fill="#000000" fill-rule="evenodd" fill-opacity="1" /><path clip-path="url(#clip610)" d="M115.256 411.15 L144.931 411.15 L144.931 415.085 L115.256 415.085 L115.256 411.15 Z" fill="#000000" fill-rule="evenodd" fill-opacity="1" /><path clip-path="url(#clip610)" d="M165.024 396.498 Q161.413 396.498 159.584 400.062 Q157.778 403.604 157.778 410.734 Q157.778 417.84 159.584 421.405 Q161.413 424.946 165.024 424.946 Q168.658 424.946 170.464 421.405 Q172.292 417.84 172.292 410.734 Q172.292 403.604 170.464 400.062 Q168.658 396.498 165.024 396.498 M165.024 392.794 Q170.834 392.794 173.889 397.4 Q176.968 401.984 176.968 410.734 Q176.968 419.46 173.889 424.067 Q170.834 428.65 165.024 428.65 Q159.214 428.65 156.135 424.067 Q153.079 419.46 153.079 410.734 Q153.079 401.984 156.135 397.4 Q159.214 392.794 165.024 392.794 Z" fill="#000000" fill-rule="evenodd" fill-opacity="1" /><path clip-path="url(#clip610)" d="M185.186 422.099 L190.07 422.099 L190.07 427.979 L185.186 427.979 L185.186 422.099 Z" fill="#000000" fill-rule="evenodd" fill-opacity="1" /><path clip-path="url(#clip610)" d="M210.255 396.498 Q206.644 396.498 204.815 400.062 Q203.01 403.604 203.01 410.734 Q203.01 417.84 204.815 421.405 Q206.644 424.946 210.255 424.946 Q213.889 424.946 215.695 421.405 Q217.523 417.84 217.523 410.734 Q217.523 403.604 215.695 400.062 Q213.889 396.498 210.255 396.498 M210.255 392.794 Q216.065 392.794 219.121 397.4 Q222.199 401.984 222.199 410.734 Q222.199 419.46 219.121 424.067 Q216.065 428.65 210.255 428.65 Q204.445 428.65 201.366 424.067 Q198.311 419.46 198.311 410.734 Q198.311 401.984 201.366 397.4 Q204.445 392.794 210.255 392.794 Z" fill="#000000" fill-rule="evenodd" fill-opacity="1" /><path clip-path="url(#clip610)" d="M234.445 424.044 L250.764 424.044 L250.764 427.979 L228.82 427.979 L228.82 424.044 Q231.482 421.289 236.065 416.659 Q240.672 412.007 241.852 410.664 Q244.097 408.141 244.977 406.405 Q245.88 404.646 245.88 402.956 Q245.88 400.201 243.935 398.465 Q242.014 396.729 238.912 396.729 Q236.713 396.729 234.26 397.493 Q231.829 398.257 229.051 399.808 L229.051 395.085 Q231.875 393.951 234.329 393.373 Q236.783 392.794 238.82 392.794 Q244.19 392.794 247.384 395.479 Q250.579 398.164 250.579 402.655 Q250.579 404.785 249.769 406.706 Q248.982 408.604 246.875 411.197 Q246.296 411.868 243.195 415.085 Q240.093 418.28 234.445 424.044 Z" fill="#000000" fill-rule="evenodd" fill-opacity="1" /><path clip-path="url(#clip610)" d="M260.625 393.419 L278.981 393.419 L278.981 397.354 L264.907 397.354 L264.907 405.826 Q265.926 405.479 266.945 405.317 Q267.963 405.132 268.982 405.132 Q274.769 405.132 278.148 408.303 Q281.528 411.474 281.528 416.891 Q281.528 422.47 278.056 425.571 Q274.583 428.65 268.264 428.65 Q266.088 428.65 263.82 428.28 Q261.574 427.909 259.167 427.169 L259.167 422.47 Q261.25 423.604 263.472 424.159 Q265.695 424.715 268.171 424.715 Q272.176 424.715 274.514 422.608 Q276.852 420.502 276.852 416.891 Q276.852 413.28 274.514 411.173 Q272.176 409.067 268.171 409.067 Q266.296 409.067 264.421 409.484 Q262.57 409.9 260.625 410.78 L260.625 393.419 Z" fill="#000000" fill-rule="evenodd" fill-opacity="1" /><path clip-path="url(#clip610)" d="M164.028 71.9844 Q160.417 71.9844 158.589 75.5492 Q156.783 79.0908 156.783 86.2204 Q156.783 93.3268 158.589 96.8916 Q160.417 100.433 164.028 100.433 Q167.663 100.433 169.468 96.8916 Q171.297 93.3268 171.297 86.2204 Q171.297 79.0908 169.468 75.5492 Q167.663 71.9844 164.028 71.9844 M164.028 68.2807 Q169.839 68.2807 172.894 72.8871 Q175.973 77.4704 175.973 86.2204 Q175.973 94.9472 172.894 99.5537 Q169.839 104.137 164.028 104.137 Q158.218 104.137 155.14 99.5537 Q152.084 94.9472 152.084 86.2204 Q152.084 77.4704 155.14 72.8871 Q158.218 68.2807 164.028 68.2807 Z" fill="#000000" fill-rule="evenodd" fill-opacity="1" /><path clip-path="url(#clip610)" d="M184.19 97.5861 L189.075 97.5861 L189.075 103.466 L184.19 103.466 L184.19 97.5861 Z" fill="#000000" fill-rule="evenodd" fill-opacity="1" /><path clip-path="url(#clip610)" d="M209.26 71.9844 Q205.649 71.9844 203.82 75.5492 Q202.014 79.0908 202.014 86.2204 Q202.014 93.3268 203.82 96.8916 Q205.649 100.433 209.26 100.433 Q212.894 100.433 214.699 96.8916 Q216.528 93.3268 216.528 86.2204 Q216.528 79.0908 214.699 75.5492 Q212.894 71.9844 209.26 71.9844 M209.26 68.2807 Q215.07 68.2807 218.125 72.8871 Q221.204 77.4704 221.204 86.2204 Q221.204 94.9472 218.125 99.5537 Q215.07 104.137 209.26 104.137 Q203.449 104.137 200.371 99.5537 Q197.315 94.9472 197.315 86.2204 Q197.315 77.4704 200.371 72.8871 Q203.449 68.2807 209.26 68.2807 Z" fill="#000000" fill-rule="evenodd" fill-opacity="1" /><path clip-path="url(#clip610)" d="M239.422 71.9844 Q235.81 71.9844 233.982 75.5492 Q232.176 79.0908 232.176 86.2204 Q232.176 93.3268 233.982 96.8916 Q235.81 100.433 239.422 100.433 Q243.056 100.433 244.861 96.8916 Q246.69 93.3268 246.69 86.2204 Q246.69 79.0908 244.861 75.5492 Q243.056 71.9844 239.422 71.9844 M239.422 68.2807 Q245.232 68.2807 248.287 72.8871 Q251.366 77.4704 251.366 86.2204 Q251.366 94.9472 248.287 99.5537 Q245.232 104.137 239.422 104.137 Q233.611 104.137 230.533 99.5537 Q227.477 94.9472 227.477 86.2204 Q227.477 77.4704 230.533 72.8871 Q233.611 68.2807 239.422 68.2807 Z" fill="#000000" fill-rule="evenodd" fill-opacity="1" /><path clip-path="url(#clip610)" d="M269.583 71.9844 Q265.972 71.9844 264.144 75.5492 Q262.338 79.0908 262.338 86.2204 Q262.338 93.3268 264.144 96.8916 Q265.972 100.433 269.583 100.433 Q273.218 100.433 275.023 96.8916 Q276.852 93.3268 276.852 86.2204 Q276.852 79.0908 275.023 75.5492 Q273.218 71.9844 269.583 71.9844 M269.583 68.2807 Q275.394 68.2807 278.449 72.8871 Q281.528 77.4704 281.528 86.2204 Q281.528 94.9472 278.449 99.5537 Q275.394 104.137 269.583 104.137 Q263.773 104.137 260.695 99.5537 Q257.639 94.9472 257.639 86.2204 Q257.639 77.4704 260.695 72.8871 Q263.773 68.2807 269.583 68.2807 Z" fill="#000000" fill-rule="evenodd" fill-opacity="1" /><path clip-path="url(#clip610)" d="M28.3562 802.418 L28.3562 796.561 L56.1743 789.241 L28.3562 781.952 L28.3562 775.045 L56.1743 767.725 L28.3562 760.436 L28.3562 754.58 L64.0042 763.905 L64.0042 770.812 L34.7856 778.483 L64.0042 786.185 L64.0042 793.092 L28.3562 802.418 Z" fill="#000000" fill-rule="evenodd" fill-opacity="1" /><path clip-path="url(#clip610)" d="M14.5426 731.631 Q21.8632 735.896 29.0246 737.965 Q36.186 740.034 43.5384 740.034 Q50.8908 740.034 58.1159 737.965 Q65.3091 735.864 72.5979 731.631 L72.5979 736.724 Q65.1182 741.498 57.8931 743.885 Q50.668 746.241 43.5384 746.241 Q36.4406 746.241 29.2474 743.885 Q22.0542 741.53 14.5426 736.724 L14.5426 731.631 Z" fill="#000000" fill-rule="evenodd" fill-opacity="1" /><path clip-path="url(#clip610)" d="M28.3562 690.636 L45.7028 703.527 L64.0042 689.968 L64.0042 696.875 L49.9996 707.251 L64.0042 717.627 L64.0042 724.533 L45.3526 710.688 L28.3562 723.356 L28.3562 716.449 L41.0558 706.996 L28.3562 697.543 L28.3562 690.636 Z" fill="#000000" fill-rule="evenodd" fill-opacity="1" /><path clip-path="url(#clip610)" d="M14.5426 682.615 L14.5426 677.523 Q22.0542 672.748 29.2474 670.393 Q36.4406 668.006 43.5384 668.006 Q50.668 668.006 57.8931 670.393 Q65.1182 672.748 72.5979 677.523 L72.5979 682.615 Q65.3091 678.382 58.1159 676.313 Q50.8908 674.213 43.5384 674.213 Q36.186 674.213 29.0246 676.313 Q21.8632 678.382 14.5426 682.615 Z" fill="#000000" fill-rule="evenodd" fill-opacity="1" /><polyline clip-path="url(#clip612)" style="stroke:#0000ff; stroke-linecap:butt; stroke-linejoin:round; stroke-width:4; stroke-opacity:1; fill:none" points="
  375.129,86.1857 476.183,94.7142 577.237,118.553 678.291,155.292 779.345,202.788 880.399,259.15 981.453,322.723 1082.51,392.071 1183.56,465.965 1284.61,543.362 
  1385.67,623.393 1486.72,705.347 1587.78,788.654 1688.83,872.868 1789.88,957.657 1890.94,1042.78 1991.99,1128.08 2093.05,1213.45 2194.1,1298.84 2295.16,1384.24 
  
  "/>
<circle clip-path="url(#clip612)" cx="425.656" cy="88.3739" r="14" fill="#ff0000" fill-rule="evenodd" fill-opacity="1" stroke="#000000" stroke-opacity="1" stroke-width="3.2"/>
<circle clip-path="url(#clip612)" cx="526.71" cy="104.876" r="14" fill="#ff0000" fill-rule="evenodd" fill-opacity="1" stroke="#000000" stroke-opacity="1" stroke-width="3.2"/>
<circle clip-path="url(#clip612)" cx="627.764" cy="135.449" r="14" fill="#ff0000" fill-rule="evenodd" fill-opacity="1" stroke="#000000" stroke-opacity="1" stroke-width="3.2"/>
<circle clip-path="url(#clip612)" cx="728.818" cy="177.818" r="14" fill="#ff0000" fill-rule="evenodd" fill-opacity="1" stroke="#000000" stroke-opacity="1" stroke-width="3.2"/>
<circle clip-path="url(#clip612)" cx="829.872" cy="229.969" r="14" fill="#ff0000" fill-rule="evenodd" fill-opacity="1" stroke="#000000" stroke-opacity="1" stroke-width="3.2"/>
<circle clip-path="url(#clip612)" cx="930.926" cy="290.129" r="14" fill="#ff0000" fill-rule="evenodd" fill-opacity="1" stroke="#000000" stroke-opacity="1" stroke-width="3.2"/>
<circle clip-path="url(#clip612)" cx="1031.98" cy="356.756" r="14" fill="#ff0000" fill-rule="evenodd" fill-opacity="1" stroke="#000000" stroke-opacity="1" stroke-width="3.2"/>
<circle clip-path="url(#clip612)" cx="1133.03" cy="428.519" r="14" fill="#ff0000" fill-rule="evenodd" fill-opacity="1" stroke="#000000" stroke-opacity="1" stroke-width="3.2"/>
<circle clip-path="url(#clip612)" cx="1234.09" cy="504.283" r="14" fill="#ff0000" fill-rule="evenodd" fill-opacity="1" stroke="#000000" stroke-opacity="1" stroke-width="3.2"/>
<circle clip-path="url(#clip612)" cx="1335.14" cy="583.096" r="14" fill="#ff0000" fill-rule="evenodd" fill-opacity="1" stroke="#000000" stroke-opacity="1" stroke-width="3.2"/>
<circle clip-path="url(#clip612)" cx="1436.2" cy="664.168" r="14" fill="#ff0000" fill-rule="evenodd" fill-opacity="1" stroke="#000000" stroke-opacity="1" stroke-width="3.2"/>
<circle clip-path="url(#clip612)" cx="1537.25" cy="746.862" r="14" fill="#ff0000" fill-rule="evenodd" fill-opacity="1" stroke="#000000" stroke-opacity="1" stroke-width="3.2"/>
<circle clip-path="url(#clip612)" cx="1638.3" cy="830.67" r="14" fill="#ff0000" fill-rule="evenodd" fill-opacity="1" stroke="#000000" stroke-opacity="1" stroke-width="3.2"/>
<circle clip-path="url(#clip612)" cx="1739.36" cy="915.208" r="14" fill="#ff0000" fill-rule="evenodd" fill-opacity="1" stroke="#000000" stroke-opacity="1" stroke-width="3.2"/>
<circle clip-path="url(#clip612)" cx="1840.41" cy="1000.19" r="14" fill="#ff0000" fill-rule="evenodd" fill-opacity="1" stroke="#000000" stroke-opacity="1" stroke-width="3.2"/>
<circle clip-path="url(#clip612)" cx="1941.47" cy="1085.41" r="14" fill="#ff0000" fill-rule="evenodd" fill-opacity="1" stroke="#000000" stroke-opacity="1" stroke-width="3.2"/>
<circle clip-path="url(#clip612)" cx="2042.52" cy="1170.76" r="14" fill="#ff0000" fill-rule="evenodd" fill-opacity="1" stroke="#000000" stroke-opacity="1" stroke-width="3.2"/>
<circle clip-path="url(#clip612)" cx="2143.57" cy="1256.14" r="14" fill="#ff0000" fill-rule="evenodd" fill-opacity="1" stroke="#000000" stroke-opacity="1" stroke-width="3.2"/>
<circle clip-path="url(#clip612)" cx="2244.63" cy="1341.54" r="14" fill="#ff0000" fill-rule="evenodd" fill-opacity="1" stroke="#000000" stroke-opacity="1" stroke-width="3.2"/>
<path clip-path="url(#clip610)" d="
M385.369 1377.32 L1052.82 1377.32 L1052.82 1221.8 L385.369 1221.8  Z
  " fill="#ffffff" fill-rule="evenodd" fill-opacity="1"/>
<polyline clip-path="url(#clip610)" style="stroke:#000000; stroke-linecap:butt; stroke-linejoin:round; stroke-width:4; stroke-opacity:1; fill:none" points="
  385.369,1377.32 1052.82,1377.32 1052.82,1221.8 385.369,1221.8 385.369,1377.32 
  "/>
<polyline clip-path="url(#clip610)" style="stroke:#0000ff; stroke-linecap:butt; stroke-linejoin:round; stroke-width:4; stroke-opacity:1; fill:none" points="
  407.982,1273.64 543.664,1273.64 
  "/>
<path clip-path="url(#clip610)" d="M582.111 1260.96 L575.769 1278.16 L588.477 1278.16 L582.111 1260.96 M579.472 1256.36 L584.773 1256.36 L597.944 1290.92 L593.083 1290.92 L589.935 1282.05 L574.357 1282.05 L571.208 1290.92 L566.278 1290.92 L579.472 1256.36 Z" fill="#000000" fill-rule="evenodd" fill-opacity="1" /><path clip-path="url(#clip610)" d="M624.356 1275.27 L624.356 1290.92 L620.097 1290.92 L620.097 1275.41 Q620.097 1271.73 618.662 1269.9 Q617.227 1268.07 614.356 1268.07 Q610.907 1268.07 608.917 1270.27 Q606.926 1272.47 606.926 1276.26 L606.926 1290.92 L602.643 1290.92 L602.643 1264.99 L606.926 1264.99 L606.926 1269.02 Q608.454 1266.68 610.514 1265.52 Q612.597 1264.36 615.305 1264.36 Q619.773 1264.36 622.065 1267.14 Q624.356 1269.9 624.356 1275.27 Z" fill="#000000" fill-rule="evenodd" fill-opacity="1" /><path clip-path="url(#clip610)" d="M644.634 1277.88 Q639.472 1277.88 637.481 1279.06 Q635.49 1280.24 635.49 1283.09 Q635.49 1285.36 636.972 1286.7 Q638.477 1288.02 641.046 1288.02 Q644.588 1288.02 646.717 1285.52 Q648.87 1283 648.87 1278.83 L648.87 1277.88 L644.634 1277.88 M653.129 1276.12 L653.129 1290.92 L648.87 1290.92 L648.87 1286.98 Q647.412 1289.34 645.236 1290.48 Q643.06 1291.59 639.912 1291.59 Q635.93 1291.59 633.569 1289.36 Q631.231 1287.12 631.231 1283.37 Q631.231 1278.99 634.148 1276.77 Q637.088 1274.55 642.898 1274.55 L648.87 1274.55 L648.87 1274.13 Q648.87 1271.19 646.926 1269.6 Q645.004 1267.98 641.509 1267.98 Q639.287 1267.98 637.18 1268.51 Q635.074 1269.04 633.129 1270.11 L633.129 1266.17 Q635.467 1265.27 637.666 1264.83 Q639.865 1264.36 641.949 1264.36 Q647.574 1264.36 650.352 1267.28 Q653.129 1270.2 653.129 1276.12 Z" fill="#000000" fill-rule="evenodd" fill-opacity="1" /><path clip-path="url(#clip610)" d="M661.902 1254.9 L666.162 1254.9 L666.162 1290.92 L661.902 1290.92 L661.902 1254.9 Z" fill="#000000" fill-rule="evenodd" fill-opacity="1" /><path clip-path="url(#clip610)" d="M685.861 1293.32 Q684.055 1297.95 682.342 1299.36 Q680.629 1300.78 677.759 1300.78 L674.356 1300.78 L674.356 1297.21 L676.856 1297.21 Q678.615 1297.21 679.587 1296.38 Q680.56 1295.54 681.74 1292.44 L682.504 1290.5 L672.018 1264.99 L676.532 1264.99 L684.634 1285.27 L692.736 1264.99 L697.249 1264.99 L685.861 1293.32 Z" fill="#000000" fill-rule="evenodd" fill-opacity="1" /><path clip-path="url(#clip610)" d="M707.342 1257.63 L707.342 1264.99 L716.115 1264.99 L716.115 1268.3 L707.342 1268.3 L707.342 1282.37 Q707.342 1285.54 708.198 1286.45 Q709.078 1287.35 711.74 1287.35 L716.115 1287.35 L716.115 1290.92 L711.74 1290.92 Q706.81 1290.92 704.935 1289.09 Q703.06 1287.23 703.06 1282.37 L703.06 1268.3 L699.935 1268.3 L699.935 1264.99 L703.06 1264.99 L703.06 1257.63 L707.342 1257.63 Z" fill="#000000" fill-rule="evenodd" fill-opacity="1" /><path clip-path="url(#clip610)" d="M721.717 1264.99 L725.976 1264.99 L725.976 1290.92 L721.717 1290.92 L721.717 1264.99 M721.717 1254.9 L725.976 1254.9 L725.976 1260.29 L721.717 1260.29 L721.717 1254.9 Z" fill="#000000" fill-rule="evenodd" fill-opacity="1" /><path clip-path="url(#clip610)" d="M753.545 1265.98 L753.545 1269.97 Q751.74 1268.97 749.911 1268.48 Q748.106 1267.98 746.254 1267.98 Q742.11 1267.98 739.819 1270.61 Q737.527 1273.23 737.527 1277.98 Q737.527 1282.72 739.819 1285.36 Q742.11 1287.98 746.254 1287.98 Q748.106 1287.98 749.911 1287.49 Q751.74 1286.98 753.545 1285.98 L753.545 1289.92 Q751.763 1290.75 749.842 1291.17 Q747.944 1291.59 745.791 1291.59 Q739.934 1291.59 736.485 1287.91 Q733.036 1284.23 733.036 1277.98 Q733.036 1271.63 736.508 1268 Q740.004 1264.36 746.069 1264.36 Q748.036 1264.36 749.911 1264.78 Q751.786 1265.17 753.545 1265.98 Z" fill="#000000" fill-rule="evenodd" fill-opacity="1" /><path clip-path="url(#clip610)" d="M772.735 1277.88 Q767.573 1277.88 765.582 1279.06 Q763.592 1280.24 763.592 1283.09 Q763.592 1285.36 765.073 1286.7 Q766.578 1288.02 769.147 1288.02 Q772.689 1288.02 774.818 1285.52 Q776.971 1283 776.971 1278.83 L776.971 1277.88 L772.735 1277.88 M781.23 1276.12 L781.23 1290.92 L776.971 1290.92 L776.971 1286.98 Q775.513 1289.34 773.337 1290.48 Q771.161 1291.59 768.013 1291.59 Q764.031 1291.59 761.67 1289.36 Q759.332 1287.12 759.332 1283.37 Q759.332 1278.99 762.249 1276.77 Q765.189 1274.55 770.999 1274.55 L776.971 1274.55 L776.971 1274.13 Q776.971 1271.19 775.027 1269.6 Q773.105 1267.98 769.61 1267.98 Q767.388 1267.98 765.281 1268.51 Q763.175 1269.04 761.231 1270.11 L761.231 1266.17 Q763.568 1265.27 765.768 1264.83 Q767.967 1264.36 770.05 1264.36 Q775.675 1264.36 778.453 1267.28 Q781.23 1270.2 781.23 1276.12 Z" fill="#000000" fill-rule="evenodd" fill-opacity="1" /><path clip-path="url(#clip610)" d="M790.004 1254.9 L794.263 1254.9 L794.263 1290.92 L790.004 1290.92 L790.004 1254.9 Z" fill="#000000" fill-rule="evenodd" fill-opacity="1" /><path clip-path="url(#clip610)" d="M834.772 1265.75 L834.772 1269.78 Q832.966 1268.86 831.022 1268.39 Q829.077 1267.93 826.994 1267.93 Q823.823 1267.93 822.226 1268.9 Q820.652 1269.87 820.652 1271.82 Q820.652 1273.3 821.786 1274.16 Q822.92 1274.99 826.346 1275.75 L827.804 1276.08 Q832.341 1277.05 834.239 1278.83 Q836.161 1280.59 836.161 1283.76 Q836.161 1287.37 833.29 1289.48 Q830.443 1291.59 825.443 1291.59 Q823.36 1291.59 821.091 1291.17 Q818.846 1290.78 816.346 1289.97 L816.346 1285.57 Q818.707 1286.79 820.999 1287.42 Q823.29 1288.02 825.536 1288.02 Q828.545 1288.02 830.165 1287 Q831.786 1285.96 831.786 1284.09 Q831.786 1282.35 830.605 1281.42 Q829.448 1280.5 825.489 1279.64 L824.008 1279.3 Q820.05 1278.46 818.29 1276.75 Q816.531 1275.01 816.531 1272 Q816.531 1268.35 819.124 1266.36 Q821.716 1264.36 826.485 1264.36 Q828.846 1264.36 830.929 1264.71 Q833.013 1265.06 834.772 1265.75 Z" fill="#000000" fill-rule="evenodd" fill-opacity="1" /><path clip-path="url(#clip610)" d="M852.989 1267.98 Q849.563 1267.98 847.573 1270.66 Q845.582 1273.32 845.582 1277.98 Q845.582 1282.63 847.55 1285.31 Q849.54 1287.98 852.989 1287.98 Q856.392 1287.98 858.383 1285.29 Q860.374 1282.61 860.374 1277.98 Q860.374 1273.37 858.383 1270.68 Q856.392 1267.98 852.989 1267.98 M852.989 1264.36 Q858.545 1264.36 861.716 1267.98 Q864.887 1271.59 864.887 1277.98 Q864.887 1284.34 861.716 1287.98 Q858.545 1291.59 852.989 1291.59 Q847.411 1291.59 844.239 1287.98 Q841.091 1284.34 841.091 1277.98 Q841.091 1271.59 844.239 1267.98 Q847.411 1264.36 852.989 1264.36 Z" fill="#000000" fill-rule="evenodd" fill-opacity="1" /><path clip-path="url(#clip610)" d="M871.948 1254.9 L876.207 1254.9 L876.207 1290.92 L871.948 1290.92 L871.948 1254.9 Z" fill="#000000" fill-rule="evenodd" fill-opacity="1" /><path clip-path="url(#clip610)" d="M884.679 1280.68 L884.679 1264.99 L888.938 1264.99 L888.938 1280.52 Q888.938 1284.2 890.373 1286.05 Q891.809 1287.88 894.679 1287.88 Q898.128 1287.88 900.119 1285.68 Q902.133 1283.48 902.133 1279.69 L902.133 1264.99 L906.392 1264.99 L906.392 1290.92 L902.133 1290.92 L902.133 1286.93 Q900.582 1289.29 898.521 1290.45 Q896.484 1291.59 893.776 1291.59 Q889.309 1291.59 886.994 1288.81 Q884.679 1286.03 884.679 1280.68 M895.396 1264.36 L895.396 1264.36 Z" fill="#000000" fill-rule="evenodd" fill-opacity="1" /><path clip-path="url(#clip610)" d="M919.378 1257.63 L919.378 1264.99 L928.151 1264.99 L928.151 1268.3 L919.378 1268.3 L919.378 1282.37 Q919.378 1285.54 920.234 1286.45 Q921.114 1287.35 923.776 1287.35 L928.151 1287.35 L928.151 1290.92 L923.776 1290.92 Q918.845 1290.92 916.97 1289.09 Q915.095 1287.23 915.095 1282.37 L915.095 1268.3 L911.97 1268.3 L911.97 1264.99 L915.095 1264.99 L915.095 1257.63 L919.378 1257.63 Z" fill="#000000" fill-rule="evenodd" fill-opacity="1" /><path clip-path="url(#clip610)" d="M933.753 1264.99 L938.012 1264.99 L938.012 1290.92 L933.753 1290.92 L933.753 1264.99 M933.753 1254.9 L938.012 1254.9 L938.012 1260.29 L933.753 1260.29 L933.753 1254.9 Z" fill="#000000" fill-rule="evenodd" fill-opacity="1" /><path clip-path="url(#clip610)" d="M956.97 1267.98 Q953.544 1267.98 951.554 1270.66 Q949.563 1273.32 949.563 1277.98 Q949.563 1282.63 951.53 1285.31 Q953.521 1287.98 956.97 1287.98 Q960.373 1287.98 962.364 1285.29 Q964.354 1282.61 964.354 1277.98 Q964.354 1273.37 962.364 1270.68 Q960.373 1267.98 956.97 1267.98 M956.97 1264.36 Q962.526 1264.36 965.697 1267.98 Q968.868 1271.59 968.868 1277.98 Q968.868 1284.34 965.697 1287.98 Q962.526 1291.59 956.97 1291.59 Q951.392 1291.59 948.22 1287.98 Q945.072 1284.34 945.072 1277.98 Q945.072 1271.59 948.22 1267.98 Q951.392 1264.36 956.97 1264.36 Z" fill="#000000" fill-rule="evenodd" fill-opacity="1" /><path clip-path="url(#clip610)" d="M997.479 1275.27 L997.479 1290.92 L993.22 1290.92 L993.22 1275.41 Q993.22 1271.73 991.785 1269.9 Q990.35 1268.07 987.479 1268.07 Q984.03 1268.07 982.04 1270.27 Q980.049 1272.47 980.049 1276.26 L980.049 1290.92 L975.766 1290.92 L975.766 1264.99 L980.049 1264.99 L980.049 1269.02 Q981.577 1266.68 983.637 1265.52 Q985.72 1264.36 988.428 1264.36 Q992.896 1264.36 995.188 1267.14 Q997.479 1269.9 997.479 1275.27 Z" fill="#000000" fill-rule="evenodd" fill-opacity="1" /><circle clip-path="url(#clip610)" cx="475.823" cy="1325.48" r="23" fill="#ff0000" fill-rule="evenodd" fill-opacity="1" stroke="#000000" stroke-opacity="1" stroke-width="5.12"/>
<path clip-path="url(#clip610)" d="M566.278 1308.2 L572.574 1308.2 L587.898 1337.11 L587.898 1308.2 L592.435 1308.2 L592.435 1342.76 L586.139 1342.76 L570.815 1313.84 L570.815 1342.76 L566.278 1342.76 L566.278 1308.2 Z" fill="#000000" fill-rule="evenodd" fill-opacity="1" /><path clip-path="url(#clip610)" d="M601.116 1332.52 L601.116 1316.83 L605.375 1316.83 L605.375 1332.36 Q605.375 1336.04 606.81 1337.89 Q608.245 1339.72 611.116 1339.72 Q614.565 1339.72 616.555 1337.52 Q618.569 1335.32 618.569 1331.53 L618.569 1316.83 L622.829 1316.83 L622.829 1342.76 L618.569 1342.76 L618.569 1338.77 Q617.018 1341.13 614.958 1342.29 Q612.921 1343.43 610.213 1343.43 Q605.745 1343.43 603.43 1340.65 Q601.116 1337.87 601.116 1332.52 M611.833 1316.2 L611.833 1316.2 Z" fill="#000000" fill-rule="evenodd" fill-opacity="1" /><path clip-path="url(#clip610)" d="M651.787 1321.81 Q653.384 1318.94 655.606 1317.57 Q657.828 1316.2 660.838 1316.2 Q664.888 1316.2 667.088 1319.05 Q669.287 1321.88 669.287 1327.11 L669.287 1342.76 L665.004 1342.76 L665.004 1327.25 Q665.004 1323.52 663.685 1321.71 Q662.365 1319.91 659.657 1319.91 Q656.347 1319.91 654.426 1322.11 Q652.504 1324.31 652.504 1328.1 L652.504 1342.76 L648.222 1342.76 L648.222 1327.25 Q648.222 1323.5 646.902 1321.71 Q645.583 1319.91 642.828 1319.91 Q639.565 1319.91 637.643 1322.13 Q635.722 1324.33 635.722 1328.1 L635.722 1342.76 L631.44 1342.76 L631.44 1316.83 L635.722 1316.83 L635.722 1320.86 Q637.18 1318.47 639.217 1317.34 Q641.254 1316.2 644.055 1316.2 Q646.879 1316.2 648.847 1317.64 Q650.838 1319.07 651.787 1321.81 Z" fill="#000000" fill-rule="evenodd" fill-opacity="1" /><path clip-path="url(#clip610)" d="M699.958 1328.73 L699.958 1330.81 L680.374 1330.81 Q680.652 1335.21 683.013 1337.52 Q685.398 1339.82 689.634 1339.82 Q692.087 1339.82 694.379 1339.21 Q696.694 1338.61 698.962 1337.41 L698.962 1341.44 Q696.671 1342.41 694.263 1342.92 Q691.856 1343.43 689.379 1343.43 Q683.175 1343.43 679.541 1339.82 Q675.93 1336.2 675.93 1330.05 Q675.93 1323.68 679.356 1319.95 Q682.805 1316.2 688.638 1316.2 Q693.87 1316.2 696.902 1319.58 Q699.958 1322.94 699.958 1328.73 M695.698 1327.48 Q695.652 1323.98 693.731 1321.9 Q691.833 1319.82 688.685 1319.82 Q685.12 1319.82 682.967 1321.83 Q680.837 1323.84 680.513 1327.5 L695.698 1327.48 Z" fill="#000000" fill-rule="evenodd" fill-opacity="1" /><path clip-path="url(#clip610)" d="M721.971 1320.81 Q721.254 1320.39 720.397 1320.21 Q719.564 1320 718.546 1320 Q714.934 1320 712.99 1322.36 Q711.069 1324.7 711.069 1329.1 L711.069 1342.76 L706.786 1342.76 L706.786 1316.83 L711.069 1316.83 L711.069 1320.86 Q712.411 1318.5 714.564 1317.36 Q716.717 1316.2 719.796 1316.2 Q720.235 1316.2 720.768 1316.27 Q721.3 1316.32 721.948 1316.44 L721.971 1320.81 Z" fill="#000000" fill-rule="evenodd" fill-opacity="1" /><path clip-path="url(#clip610)" d="M726.439 1316.83 L730.698 1316.83 L730.698 1342.76 L726.439 1342.76 L726.439 1316.83 M726.439 1306.74 L730.698 1306.74 L730.698 1312.13 L726.439 1312.13 L726.439 1306.74 Z" fill="#000000" fill-rule="evenodd" fill-opacity="1" /><path clip-path="url(#clip610)" d="M758.268 1317.82 L758.268 1321.81 Q756.462 1320.81 754.633 1320.32 Q752.828 1319.82 750.976 1319.82 Q746.832 1319.82 744.541 1322.45 Q742.249 1325.07 742.249 1329.82 Q742.249 1334.56 744.541 1337.2 Q746.832 1339.82 750.976 1339.82 Q752.828 1339.82 754.633 1339.33 Q756.462 1338.82 758.268 1337.82 L758.268 1341.76 Q756.485 1342.59 754.564 1343.01 Q752.666 1343.43 750.513 1343.43 Q744.657 1343.43 741.208 1339.75 Q737.758 1336.07 737.758 1329.82 Q737.758 1323.47 741.231 1319.84 Q744.726 1316.2 750.791 1316.2 Q752.758 1316.2 754.633 1316.62 Q756.508 1317.01 758.268 1317.82 Z" fill="#000000" fill-rule="evenodd" fill-opacity="1" /><path clip-path="url(#clip610)" d="M777.457 1329.72 Q772.295 1329.72 770.305 1330.9 Q768.314 1332.08 768.314 1334.93 Q768.314 1337.2 769.795 1338.54 Q771.3 1339.86 773.869 1339.86 Q777.411 1339.86 779.541 1337.36 Q781.693 1334.84 781.693 1330.67 L781.693 1329.72 L777.457 1329.72 M785.953 1327.96 L785.953 1342.76 L781.693 1342.76 L781.693 1338.82 Q780.235 1341.18 778.059 1342.32 Q775.883 1343.43 772.735 1343.43 Q768.754 1343.43 766.393 1341.2 Q764.055 1338.96 764.055 1335.21 Q764.055 1330.83 766.971 1328.61 Q769.911 1326.39 775.721 1326.39 L781.693 1326.39 L781.693 1325.97 Q781.693 1323.03 779.749 1321.44 Q777.828 1319.82 774.332 1319.82 Q772.11 1319.82 770.004 1320.35 Q767.897 1320.88 765.953 1321.95 L765.953 1318.01 Q768.291 1317.11 770.49 1316.67 Q772.689 1316.2 774.772 1316.2 Q780.397 1316.2 783.175 1319.12 Q785.953 1322.04 785.953 1327.96 Z" fill="#000000" fill-rule="evenodd" fill-opacity="1" /><path clip-path="url(#clip610)" d="M794.726 1306.74 L798.985 1306.74 L798.985 1342.76 L794.726 1342.76 L794.726 1306.74 Z" fill="#000000" fill-rule="evenodd" fill-opacity="1" /><path clip-path="url(#clip610)" d="M843.869 1309.33 L843.869 1313.89 Q841.207 1312.62 838.846 1311.99 Q836.485 1311.37 834.286 1311.37 Q830.466 1311.37 828.383 1312.85 Q826.323 1314.33 826.323 1317.06 Q826.323 1319.35 827.689 1320.53 Q829.077 1321.69 832.92 1322.41 L835.744 1322.99 Q840.975 1323.98 843.452 1326.51 Q845.952 1329.01 845.952 1333.22 Q845.952 1338.24 842.573 1340.83 Q839.216 1343.43 832.712 1343.43 Q830.258 1343.43 827.48 1342.87 Q824.726 1342.32 821.763 1341.23 L821.763 1336.41 Q824.61 1338.01 827.341 1338.82 Q830.073 1339.63 832.712 1339.63 Q836.716 1339.63 838.892 1338.06 Q841.068 1336.48 841.068 1333.57 Q841.068 1331.02 839.494 1329.58 Q837.943 1328.15 834.378 1327.43 L831.531 1326.88 Q826.3 1325.83 823.962 1323.61 Q821.624 1321.39 821.624 1317.43 Q821.624 1312.85 824.841 1310.21 Q828.082 1307.57 833.753 1307.57 Q836.184 1307.57 838.707 1308.01 Q841.23 1308.45 843.869 1309.33 Z" fill="#000000" fill-rule="evenodd" fill-opacity="1" /><path clip-path="url(#clip610)" d="M863.105 1319.82 Q859.679 1319.82 857.688 1322.5 Q855.698 1325.16 855.698 1329.82 Q855.698 1334.47 857.665 1337.15 Q859.656 1339.82 863.105 1339.82 Q866.508 1339.82 868.498 1337.13 Q870.489 1334.45 870.489 1329.82 Q870.489 1325.21 868.498 1322.52 Q866.508 1319.82 863.105 1319.82 M863.105 1316.2 Q868.661 1316.2 871.832 1319.82 Q875.003 1323.43 875.003 1329.82 Q875.003 1336.18 871.832 1339.82 Q868.661 1343.43 863.105 1343.43 Q857.526 1343.43 854.355 1339.82 Q851.207 1336.18 851.207 1329.82 Q851.207 1323.43 854.355 1319.82 Q857.526 1316.2 863.105 1316.2 Z" fill="#000000" fill-rule="evenodd" fill-opacity="1" /><path clip-path="url(#clip610)" d="M882.063 1306.74 L886.322 1306.74 L886.322 1342.76 L882.063 1342.76 L882.063 1306.74 Z" fill="#000000" fill-rule="evenodd" fill-opacity="1" /><path clip-path="url(#clip610)" d="M894.795 1332.52 L894.795 1316.83 L899.054 1316.83 L899.054 1332.36 Q899.054 1336.04 900.489 1337.89 Q901.924 1339.72 904.795 1339.72 Q908.244 1339.72 910.234 1337.52 Q912.248 1335.32 912.248 1331.53 L912.248 1316.83 L916.507 1316.83 L916.507 1342.76 L912.248 1342.76 L912.248 1338.77 Q910.697 1341.13 908.637 1342.29 Q906.6 1343.43 903.892 1343.43 Q899.424 1343.43 897.109 1340.65 Q894.795 1337.87 894.795 1332.52 M905.512 1316.2 L905.512 1316.2 Z" fill="#000000" fill-rule="evenodd" fill-opacity="1" /><path clip-path="url(#clip610)" d="M929.494 1309.47 L929.494 1316.83 L938.267 1316.83 L938.267 1320.14 L929.494 1320.14 L929.494 1334.21 Q929.494 1337.38 930.35 1338.29 Q931.23 1339.19 933.892 1339.19 L938.267 1339.19 L938.267 1342.76 L933.892 1342.76 Q928.961 1342.76 927.086 1340.93 Q925.211 1339.07 925.211 1334.21 L925.211 1320.14 L922.086 1320.14 L922.086 1316.83 L925.211 1316.83 L925.211 1309.47 L929.494 1309.47 Z" fill="#000000" fill-rule="evenodd" fill-opacity="1" /><path clip-path="url(#clip610)" d="M943.868 1316.83 L948.128 1316.83 L948.128 1342.76 L943.868 1342.76 L943.868 1316.83 M943.868 1306.74 L948.128 1306.74 L948.128 1312.13 L943.868 1312.13 L943.868 1306.74 Z" fill="#000000" fill-rule="evenodd" fill-opacity="1" /><path clip-path="url(#clip610)" d="M967.086 1319.82 Q963.66 1319.82 961.669 1322.5 Q959.679 1325.16 959.679 1329.82 Q959.679 1334.47 961.646 1337.15 Q963.637 1339.82 967.086 1339.82 Q970.489 1339.82 972.479 1337.13 Q974.47 1334.45 974.47 1329.82 Q974.47 1325.21 972.479 1322.52 Q970.489 1319.82 967.086 1319.82 M967.086 1316.2 Q972.641 1316.2 975.813 1319.82 Q978.984 1323.43 978.984 1329.82 Q978.984 1336.18 975.813 1339.82 Q972.641 1343.43 967.086 1343.43 Q961.507 1343.43 958.336 1339.82 Q955.188 1336.18 955.188 1329.82 Q955.188 1323.43 958.336 1319.82 Q961.507 1316.2 967.086 1316.2 Z" fill="#000000" fill-rule="evenodd" fill-opacity="1" /><path clip-path="url(#clip610)" d="M1007.59 1327.11 L1007.59 1342.76 L1003.34 1342.76 L1003.34 1327.25 Q1003.34 1323.57 1001.9 1321.74 Q1000.47 1319.91 997.595 1319.91 Q994.146 1319.91 992.155 1322.11 Q990.165 1324.31 990.165 1328.1 L990.165 1342.76 L985.882 1342.76 L985.882 1316.83 L990.165 1316.83 L990.165 1320.86 Q991.692 1318.52 993.752 1317.36 Q995.836 1316.2 998.544 1316.2 Q1003.01 1316.2 1005.3 1318.98 Q1007.59 1321.74 1007.59 1327.11 Z" fill="#000000" fill-rule="evenodd" fill-opacity="1" /></svg>
