<?xml version="1.0" encoding="utf-8"?>
<svg xmlns="http://www.w3.org/2000/svg" xmlns:xlink="http://www.w3.org/1999/xlink" width="600" height="400" viewBox="0 0 2400 1600">
<defs>
  <clipPath id="clip630">
    <rect x="0" y="0" width="2400" height="1600"/>
  </clipPath>
</defs>
<path clip-path="url(#clip630)" d="
M0 1600 L2400 1600 L2400 0 L0 0  Z
  " fill="#ffffff" fill-rule="evenodd" fill-opacity="1"/>
<defs>
  <clipPath id="clip631">
    <rect x="480" y="0" width="1681" height="1600"/>
  </clipPath>
</defs>
<path clip-path="url(#clip630)" d="
M304.699 1486.45 L2352.76 1486.45 L2352.76 127.244 L304.699 127.244  Z
  " fill="#ffffff" fill-rule="evenodd" fill-opacity="1"/>
<defs>
  <clipPath id="clip632">
    <rect x="304" y="127" width="2049" height="1360"/>
  </clipPath>
</defs>
<polyline clip-path="url(#clip632)" style="stroke:#000000; stroke-linecap:butt; stroke-linejoin:round; stroke-width:2; stroke-opacity:0.1; fill:none" points="
  362.663,1486.45 362.663,127.244 
  "/>
<polyline clip-path="url(#clip632)" style="stroke:#000000; stroke-linecap:butt; stroke-linejoin:round; stroke-width:2; stroke-opacity:0.1; fill:none" points="
  1006.71,1486.45 1006.71,127.244 
  "/>
<polyline clip-path="url(#clip632)" style="stroke:#000000; stroke-linecap:butt; stroke-linejoin:round; stroke-width:2; stroke-opacity:0.1; fill:none" points="
  1650.75,1486.45 1650.75,127.244 
  "/>
<polyline clip-path="url(#clip632)" style="stroke:#000000; stroke-linecap:butt; stroke-linejoin:round; stroke-width:2; stroke-opacity:0.1; fill:none" points="
  2294.79,1486.45 2294.79,127.244 
  "/>
<polyline clip-path="url(#clip630)" style="stroke:#000000; stroke-linecap:butt; stroke-linejoin:round; stroke-width:4; stroke-opacity:1; fill:none" points="
  304.699,1486.45 2352.76,1486.45 
  "/>
<polyline clip-path="url(#clip630)" style="stroke:#000000; stroke-linecap:butt; stroke-linejoin:round; stroke-width:4; stroke-opacity:1; fill:none" points="
  362.663,1486.45 362.663,1467.55 
  "/>
<polyline clip-path="url(#clip630)" style="stroke:#000000; stroke-linecap:butt; stroke-linejoin:round; stroke-width:4; stroke-opacity:1; fill:none" points="
  1006.71,1486.45 1006.71,1467.55 
  "/>
<polyline clip-path="url(#clip630)" style="stroke:#000000; stroke-linecap:butt; stroke-linejoin:round; stroke-width:4; stroke-opacity:1; fill:none" points="
  1650.75,1486.45 1650.75,1467.55 
  "/>
<polyline clip-path="url(#clip630)" style="stroke:#000000; stroke-linecap:butt; stroke-linejoin:round; stroke-width:4; stroke-opacity:1; fill:none" points="
  2294.79,1486.45 2294.79,1467.55 
  "/>
<path clip-path="url(#clip630)" d="M353.045 1544.91 L360.684 1544.91 L360.684 1518.55 L352.374 1520.21 L352.374 1515.95 L360.638 1514.29 L365.314 1514.29 L365.314 1544.91 L372.952 1544.91 L372.952 1548.85 L353.045 1548.85 L353.045 1544.91 Z" fill="#000000" fill-rule="evenodd" fill-opacity="1" /><path clip-path="url(#clip630)" d="M1001.36 1544.91 L1017.68 1544.91 L1017.68 1548.85 L995.734 1548.85 L995.734 1544.91 Q998.396 1542.16 1002.98 1537.53 Q1007.59 1532.88 1008.77 1531.53 Q1011.01 1529.01 1011.89 1527.27 Q1012.79 1525.51 1012.79 1523.82 Q1012.79 1521.07 1010.85 1519.33 Q1008.93 1517.6 1005.83 1517.6 Q1003.63 1517.6 1001.17 1518.36 Q998.743 1519.13 995.965 1520.68 L995.965 1515.95 Q998.789 1514.82 1001.24 1514.24 Q1003.7 1513.66 1005.73 1513.66 Q1011.1 1513.66 1014.3 1516.35 Q1017.49 1519.03 1017.49 1523.52 Q1017.49 1525.65 1016.68 1527.57 Q1015.9 1529.47 1013.79 1532.07 Q1013.21 1532.74 1010.11 1535.95 Q1007.01 1539.15 1001.36 1544.91 Z" fill="#000000" fill-rule="evenodd" fill-opacity="1" /><path clip-path="url(#clip630)" d="M1655 1530.21 Q1658.35 1530.93 1660.23 1533.2 Q1662.13 1535.47 1662.13 1538.8 Q1662.13 1543.92 1658.61 1546.72 Q1655.09 1549.52 1648.61 1549.52 Q1646.43 1549.52 1644.12 1549.08 Q1641.83 1548.66 1639.37 1547.81 L1639.37 1543.29 Q1641.32 1544.43 1643.63 1545.01 Q1645.95 1545.58 1648.47 1545.58 Q1652.87 1545.58 1655.16 1543.85 Q1657.47 1542.11 1657.47 1538.8 Q1657.47 1535.75 1655.32 1534.03 Q1653.19 1532.3 1649.37 1532.3 L1645.34 1532.3 L1645.34 1528.45 L1649.56 1528.45 Q1653.01 1528.45 1654.83 1527.09 Q1656.66 1525.7 1656.66 1523.11 Q1656.66 1520.45 1654.77 1519.03 Q1652.89 1517.6 1649.37 1517.6 Q1647.45 1517.6 1645.25 1518.01 Q1643.05 1518.43 1640.41 1519.31 L1640.41 1515.14 Q1643.08 1514.4 1645.39 1514.03 Q1647.73 1513.66 1649.79 1513.66 Q1655.11 1513.66 1658.21 1516.09 Q1661.32 1518.5 1661.32 1522.62 Q1661.32 1525.49 1659.67 1527.48 Q1658.03 1529.45 1655 1530.21 Z" fill="#000000" fill-rule="evenodd" fill-opacity="1" /><path clip-path="url(#clip630)" d="M2297.8 1518.36 L2286 1536.81 L2297.8 1536.81 L2297.8 1518.36 M2296.57 1514.29 L2302.45 1514.29 L2302.45 1536.81 L2307.38 1536.81 L2307.38 1540.7 L2302.45 1540.7 L2302.45 1548.85 L2297.8 1548.85 L2297.8 1540.7 L2282.2 1540.7 L2282.2 1536.19 L2296.57 1514.29 Z" fill="#000000" fill-rule="evenodd" fill-opacity="1" /><polyline clip-path="url(#clip632)" style="stroke:#000000; stroke-linecap:butt; stroke-linejoin:round; stroke-width:2; stroke-opacity:0.1; fill:none" points="
  304.699,1447.98 2352.76,1447.98 
  "/>
<polyline clip-path="url(#clip632)" style="stroke:#000000; stroke-linecap:butt; stroke-linejoin:round; stroke-width:2; stroke-opacity:0.1; fill:none" points="
  304.699,1009.37 2352.76,1009.37 
  "/>
<polyline clip-path="url(#clip632)" style="stroke:#000000; stroke-linecap:butt; stroke-linejoin:round; stroke-width:2; stroke-opacity:0.1; fill:none" points="
  304.699,570.763 2352.76,570.763 
  "/>
<polyline clip-path="url(#clip632)" style="stroke:#000000; stroke-linecap:butt; stroke-linejoin:round; stroke-width:2; stroke-opacity:0.1; fill:none" points="
  304.699,132.154 2352.76,132.154 
  "/>
<polyline clip-path="url(#clip630)" style="stroke:#000000; stroke-linecap:butt; stroke-linejoin:round; stroke-width:4; stroke-opacity:1; fill:none" points="
  304.699,1486.45 304.699,127.244 
  "/>
<polyline clip-path="url(#clip630)" style="stroke:#000000; stroke-linecap:butt; stroke-linejoin:round; stroke-width:4; stroke-opacity:1; fill:none" points="
  304.699,1447.98 323.597,1447.98 
  "/>
<polyline clip-path="url(#clip630)" style="stroke:#000000; stroke-linecap:butt; stroke-linejoin:round; stroke-width:4; stroke-opacity:1; fill:none" points="
  304.699,1009.37 323.597,1009.37 
  "/>
<polyline clip-path="url(#clip630)" style="stroke:#000000; stroke-linecap:butt; stroke-linejoin:round; stroke-width:4; stroke-opacity:1; fill:none" points="
  304.699,570.763 323.597,570.763 
  "/>
<polyline clip-path="url(#clip630)" style="stroke:#000000; stroke-linecap:butt; stroke-linejoin:round; stroke-width:4; stroke-opacity:1; fill:none" points="
  304.699,132.154 323.597,132.154 
  "/>
<path clip-path="url(#clip630)" d="M256.755 1433.78 Q253.144 1433.78 251.315 1437.34 Q249.51 1440.88 249.51 1448.01 Q249.51 1455.12 251.315 1458.69 Q253.144 1462.23 256.755 1462.23 Q260.389 1462.23 262.195 1458.69 Q264.023 1455.12 264.023 1448.01 Q264.023 1440.88 262.195 1437.34 Q260.389 1433.78 256.755 1433.78 M256.755 1430.07 Q262.565 1430.07 265.621 1434.68 Q268.699 1439.26 268.699 1448.01 Q268.699 1456.74 265.621 1461.35 Q262.565 1465.93 256.755 1465.93 Q250.945 1465.93 247.866 1461.35 Q244.811 1456.74 244.811 1448.01 Q244.811 1439.26 247.866 1434.68 Q250.945 1430.07 256.755 1430.07 Z" fill="#000000" fill-rule="evenodd" fill-opacity="1" /><path clip-path="url(#clip630)" d="M52.8743 998.539 L71.2307 998.539 L71.2307 1002.47 L57.1567 1002.47 L57.1567 1010.95 Q58.1752 1010.6 59.1938 1010.44 Q60.2123 1010.25 61.2308 1010.25 Q67.0178 1010.25 70.3974 1013.42 Q73.777 1016.59 73.777 1022.01 Q73.777 1027.59 70.3048 1030.69 Q66.8326 1033.77 60.5132 1033.77 Q58.3373 1033.77 56.0688 1033.4 Q53.8234 1033.03 51.416 1032.29 L51.416 1027.59 Q53.4993 1028.72 55.7216 1029.28 Q57.9438 1029.84 60.4206 1029.84 Q64.4252 1029.84 66.7632 1027.73 Q69.1011 1025.62 69.1011 1022.01 Q69.1011 1018.4 66.7632 1016.29 Q64.4252 1014.19 60.4206 1014.19 Q58.5456 1014.19 56.6706 1014.6 Q54.8188 1015.02 52.8743 1015.9 L52.8743 998.539 Z" fill="#000000" fill-rule="evenodd" fill-opacity="1" /><path clip-path="url(#clip630)" d="M82.9899 1027.22 L87.8742 1027.22 L87.8742 1033.1 L82.9899 1033.1 L82.9899 1027.22 Z" fill="#000000" fill-rule="evenodd" fill-opacity="1" /><path clip-path="url(#clip630)" d="M108.059 1001.62 Q104.448 1001.62 102.619 1005.18 Q100.814 1008.72 100.814 1015.85 Q100.814 1022.96 102.619 1026.52 Q104.448 1030.07 108.059 1030.07 Q111.693 1030.07 113.499 1026.52 Q115.328 1022.96 115.328 1015.85 Q115.328 1008.72 113.499 1005.18 Q111.693 1001.62 108.059 1001.62 M108.059 997.914 Q113.869 997.914 116.925 1002.52 Q120.004 1007.1 120.004 1015.85 Q120.004 1024.58 116.925 1029.19 Q113.869 1033.77 108.059 1033.77 Q102.249 1033.77 99.1704 1029.19 Q96.1149 1024.58 96.1149 1015.85 Q96.1149 1007.1 99.1704 1002.52 Q102.249 997.914 108.059 997.914 Z" fill="#000000" fill-rule="evenodd" fill-opacity="1" /><path clip-path="url(#clip630)" d="M138.221 1001.62 Q134.61 1001.62 132.781 1005.18 Q130.976 1008.72 130.976 1015.85 Q130.976 1022.96 132.781 1026.52 Q134.61 1030.07 138.221 1030.07 Q141.855 1030.07 143.661 1026.52 Q145.49 1022.96 145.49 1015.85 Q145.49 1008.72 143.661 1005.18 Q141.855 1001.62 138.221 1001.62 M138.221 997.914 Q144.031 997.914 147.087 1002.52 Q150.165 1007.1 150.165 1015.85 Q150.165 1024.58 147.087 1029.19 Q144.031 1033.77 138.221 1033.77 Q132.411 1033.77 129.332 1029.19 Q126.277 1024.58 126.277 1015.85 Q126.277 1007.1 129.332 1002.52 Q132.411 997.914 138.221 997.914 Z" fill="#000000" fill-rule="evenodd" fill-opacity="1" /><path clip-path="url(#clip630)" d="M186.554 1007.64 L175.976 1018.26 L186.554 1028.84 L183.8 1031.64 L173.175 1021.02 L162.55 1031.64 L159.818 1028.84 L170.374 1018.26 L159.818 1007.64 L162.55 1004.84 L173.175 1015.46 L183.8 1004.84 L186.554 1007.64 Z" fill="#000000" fill-rule="evenodd" fill-opacity="1" /><path clip-path="url(#clip630)" d="M198.915 1029.16 L206.554 1029.16 L206.554 1002.8 L198.244 1004.46 L198.244 1000.21 L206.508 998.539 L211.184 998.539 L211.184 1029.16 L218.823 1029.16 L218.823 1033.1 L198.915 1033.1 L198.915 1029.16 Z" fill="#000000" fill-rule="evenodd" fill-opacity="1" /><path clip-path="url(#clip630)" d="M238.267 1001.62 Q234.656 1001.62 232.827 1005.18 Q231.022 1008.72 231.022 1015.85 Q231.022 1022.96 232.827 1026.52 Q234.656 1030.07 238.267 1030.07 Q241.901 1030.07 243.707 1026.52 Q245.535 1022.96 245.535 1015.85 Q245.535 1008.72 243.707 1005.18 Q241.901 1001.62 238.267 1001.62 M238.267 997.914 Q244.077 997.914 247.133 1002.52 Q250.211 1007.1 250.211 1015.85 Q250.211 1024.58 247.133 1029.19 Q244.077 1033.77 238.267 1033.77 Q232.457 1033.77 229.378 1029.19 Q226.322 1024.58 226.322 1015.85 Q226.322 1007.1 229.378 1002.52 Q232.457 997.914 238.267 997.914 Z" fill="#000000" fill-rule="evenodd" fill-opacity="1" /><path clip-path="url(#clip630)" d="M262.906 990.548 Q265.634 991.131 267.157 992.974 Q268.699 994.818 268.699 997.526 Q268.699 1001.68 265.841 1003.96 Q262.982 1006.23 257.716 1006.23 Q255.948 1006.23 254.067 1005.88 Q252.205 1005.54 250.211 1004.84 L250.211 1001.17 Q251.791 1002.1 253.672 1002.57 Q255.553 1003.04 257.603 1003.04 Q261.176 1003.04 263.038 1001.63 Q264.919 1000.22 264.919 997.526 Q264.919 995.043 263.17 993.652 Q261.439 992.241 258.336 992.241 L255.064 992.241 L255.064 989.119 L258.487 989.119 Q261.289 989.119 262.775 988.009 Q264.261 986.881 264.261 984.774 Q264.261 982.611 262.718 981.464 Q261.195 980.298 258.336 980.298 Q256.775 980.298 254.988 980.637 Q253.202 980.975 251.058 981.69 L251.058 978.304 Q253.22 977.703 255.101 977.402 Q257.001 977.101 258.675 977.101 Q263.001 977.101 265.521 979.076 Q268.041 981.032 268.041 984.379 Q268.041 986.712 266.706 988.329 Q265.37 989.928 262.906 990.548 Z" fill="#000000" fill-rule="evenodd" fill-opacity="1" /><path clip-path="url(#clip630)" d="M51.6634 590.555 L59.3023 590.555 L59.3023 564.19 L50.9921 565.856 L50.9921 561.597 L59.256 559.93 L63.9319 559.93 L63.9319 590.555 L71.5707 590.555 L71.5707 594.49 L51.6634 594.49 L51.6634 590.555 Z" fill="#000000" fill-rule="evenodd" fill-opacity="1" /><path clip-path="url(#clip630)" d="M81.0151 588.611 L85.8993 588.611 L85.8993 594.49 L81.0151 594.49 L81.0151 588.611 Z" fill="#000000" fill-rule="evenodd" fill-opacity="1" /><path clip-path="url(#clip630)" d="M106.084 563.009 Q102.473 563.009 100.645 566.574 Q98.8391 570.116 98.8391 577.245 Q98.8391 584.352 100.645 587.916 Q102.473 591.458 106.084 591.458 Q109.719 591.458 111.524 587.916 Q113.353 584.352 113.353 577.245 Q113.353 570.116 111.524 566.574 Q109.719 563.009 106.084 563.009 M106.084 559.305 Q111.895 559.305 114.95 563.912 Q118.029 568.495 118.029 577.245 Q118.029 585.972 114.95 590.578 Q111.895 595.162 106.084 595.162 Q100.274 595.162 97.1956 590.578 Q94.14 585.972 94.14 577.245 Q94.14 568.495 97.1956 563.912 Q100.274 559.305 106.084 559.305 Z" fill="#000000" fill-rule="evenodd" fill-opacity="1" /><path clip-path="url(#clip630)" d="M136.246 563.009 Q132.635 563.009 130.807 566.574 Q129.001 570.116 129.001 577.245 Q129.001 584.352 130.807 587.916 Q132.635 591.458 136.246 591.458 Q139.881 591.458 141.686 587.916 Q143.515 584.352 143.515 577.245 Q143.515 570.116 141.686 566.574 Q139.881 563.009 136.246 563.009 M136.246 559.305 Q142.056 559.305 145.112 563.912 Q148.191 568.495 148.191 577.245 Q148.191 585.972 145.112 590.578 Q142.056 595.162 136.246 595.162 Q130.436 595.162 127.357 590.578 Q124.302 585.972 124.302 577.245 Q124.302 568.495 127.357 563.912 Q130.436 559.305 136.246 559.305 Z" fill="#000000" fill-rule="evenodd" fill-opacity="1" /><path clip-path="url(#clip630)" d="M184.579 569.028 L174.001 579.653 L184.579 590.231 L181.825 593.032 L171.2 582.407 L160.575 593.032 L157.843 590.231 L168.399 579.653 L157.843 569.028 L160.575 566.227 L171.2 576.852 L181.825 566.227 L184.579 569.028 Z" fill="#000000" fill-rule="evenodd" fill-opacity="1" /><path clip-path="url(#clip630)" d="M196.94 590.555 L204.579 590.555 L204.579 564.19 L196.269 565.856 L196.269 561.597 L204.533 559.93 L209.209 559.93 L209.209 590.555 L216.848 590.555 L216.848 594.49 L196.94 594.49 L196.94 590.555 Z" fill="#000000" fill-rule="evenodd" fill-opacity="1" /><path clip-path="url(#clip630)" d="M236.292 563.009 Q232.681 563.009 230.852 566.574 Q229.047 570.116 229.047 577.245 Q229.047 584.352 230.852 587.916 Q232.681 591.458 236.292 591.458 Q239.926 591.458 241.732 587.916 Q243.561 584.352 243.561 577.245 Q243.561 570.116 241.732 566.574 Q239.926 563.009 236.292 563.009 M236.292 559.305 Q242.102 559.305 245.158 563.912 Q248.236 568.495 248.236 577.245 Q248.236 585.972 245.158 590.578 Q242.102 595.162 236.292 595.162 Q230.482 595.162 227.403 590.578 Q224.348 585.972 224.348 577.245 Q224.348 568.495 227.403 563.912 Q230.482 559.305 236.292 559.305 Z" fill="#000000" fill-rule="evenodd" fill-opacity="1" /><path clip-path="url(#clip630)" d="M260.913 542.31 L251.321 557.3 L260.913 557.3 L260.913 542.31 M259.916 539 L264.693 539 L264.693 557.3 L268.699 557.3 L268.699 560.46 L264.693 560.46 L264.693 567.08 L260.913 567.08 L260.913 560.46 L248.236 560.46 L248.236 556.792 L259.916 539 Z" fill="#000000" fill-rule="evenodd" fill-opacity="1" /><path clip-path="url(#clip630)" d="M51.6634 151.947 L59.3023 151.947 L59.3023 125.581 L50.9921 127.248 L50.9921 122.989 L59.256 121.322 L63.9319 121.322 L63.9319 151.947 L71.5707 151.947 L71.5707 155.882 L51.6634 155.882 L51.6634 151.947 Z" fill="#000000" fill-rule="evenodd" fill-opacity="1" /><path clip-path="url(#clip630)" d="M81.0151 150.002 L85.8993 150.002 L85.8993 155.882 L81.0151 155.882 L81.0151 150.002 Z" fill="#000000" fill-rule="evenodd" fill-opacity="1" /><path clip-path="url(#clip630)" d="M96.1308 121.322 L114.487 121.322 L114.487 125.257 L100.413 125.257 L100.413 133.729 Q101.432 133.382 102.45 133.22 Q103.469 133.035 104.487 133.035 Q110.274 133.035 113.654 136.206 Q117.033 139.377 117.033 144.794 Q117.033 150.373 113.561 153.475 Q110.089 156.553 103.77 156.553 Q101.594 156.553 99.3252 156.183 Q97.0798 155.812 94.6724 155.072 L94.6724 150.373 Q96.7558 151.507 98.978 152.063 Q101.2 152.618 103.677 152.618 Q107.682 152.618 110.02 150.512 Q112.358 148.405 112.358 144.794 Q112.358 141.183 110.02 139.076 Q107.682 136.97 103.677 136.97 Q101.802 136.97 99.927 137.387 Q98.0752 137.803 96.1308 138.683 L96.1308 121.322 Z" fill="#000000" fill-rule="evenodd" fill-opacity="1" /><path clip-path="url(#clip630)" d="M136.246 124.401 Q132.635 124.401 130.807 127.965 Q129.001 131.507 129.001 138.637 Q129.001 145.743 130.807 149.308 Q132.635 152.85 136.246 152.85 Q139.881 152.85 141.686 149.308 Q143.515 145.743 143.515 138.637 Q143.515 131.507 141.686 127.965 Q139.881 124.401 136.246 124.401 M136.246 120.697 Q142.056 120.697 145.112 125.303 Q148.191 129.887 148.191 138.637 Q148.191 147.363 145.112 151.97 Q142.056 156.553 136.246 156.553 Q130.436 156.553 127.357 151.97 Q124.302 147.363 124.302 138.637 Q124.302 129.887 127.357 125.303 Q130.436 120.697 136.246 120.697 Z" fill="#000000" fill-rule="evenodd" fill-opacity="1" /><path clip-path="url(#clip630)" d="M184.579 130.419 L174.001 141.044 L184.579 151.623 L181.825 154.424 L171.2 143.799 L160.575 154.424 L157.843 151.623 L168.399 141.044 L157.843 130.419 L160.575 127.618 L171.2 138.243 L181.825 127.618 L184.579 130.419 Z" fill="#000000" fill-rule="evenodd" fill-opacity="1" /><path clip-path="url(#clip630)" d="M196.94 151.947 L204.579 151.947 L204.579 125.581 L196.269 127.248 L196.269 122.989 L204.533 121.322 L209.209 121.322 L209.209 151.947 L216.848 151.947 L216.848 155.882 L196.94 155.882 L196.94 151.947 Z" fill="#000000" fill-rule="evenodd" fill-opacity="1" /><path clip-path="url(#clip630)" d="M236.292 124.401 Q232.681 124.401 230.852 127.965 Q229.047 131.507 229.047 138.637 Q229.047 145.743 230.852 149.308 Q232.681 152.85 236.292 152.85 Q239.926 152.85 241.732 149.308 Q243.561 145.743 243.561 138.637 Q243.561 131.507 241.732 127.965 Q239.926 124.401 236.292 124.401 M236.292 120.697 Q242.102 120.697 245.158 125.303 Q248.236 129.887 248.236 138.637 Q248.236 147.363 245.158 151.97 Q242.102 156.553 236.292 156.553 Q230.482 156.553 227.403 151.97 Q224.348 147.363 224.348 138.637 Q224.348 129.887 227.403 125.303 Q230.482 120.697 236.292 120.697 Z" fill="#000000" fill-rule="evenodd" fill-opacity="1" /><path clip-path="url(#clip630)" d="M260.913 103.702 L251.321 118.692 L260.913 118.692 L260.913 103.702 M259.916 100.392 L264.693 100.392 L264.693 118.692 L268.699 118.692 L268.699 121.851 L264.693 121.851 L264.693 128.472 L260.913 128.472 L260.913 121.851 L248.236 121.851 L248.236 118.184 L259.916 100.392 Z" fill="#000000" fill-rule="evenodd" fill-opacity="1" /><circle clip-path="url(#clip632)" cx="362.663" cy="1447.97" r="14" fill="#009af9" fill-rule="evenodd" fill-opacity="1" stroke="#000000" stroke-opacity="1" stroke-width="3.2"/>
<circle clip-path="url(#clip632)" cx="1006.71" cy="1447.98" r="14" fill="#009af9" fill-rule="evenodd" fill-opacity="1" stroke="#000000" stroke-opacity="1" stroke-width="3.2"/>
<circle clip-path="url(#clip632)" cx="1650.75" cy="1447.98" r="14" fill="#009af9" fill-rule="evenodd" fill-opacity="1" stroke="#000000" stroke-opacity="1" stroke-width="3.2"/>
<circle clip-path="url(#clip632)" cx="2294.79" cy="1447.98" r="14" fill="#009af9" fill-rule="evenodd" fill-opacity="1" stroke="#000000" stroke-opacity="1" stroke-width="3.2"/>
<circle clip-path="url(#clip632)" cx="362.663" cy="1447.45" r="14" fill="#e26f46" fill-rule="evenodd" fill-opacity="1" stroke="#000000" stroke-opacity="1" stroke-width="3.2"/>
<circle clip-path="url(#clip632)" cx="1006.71" cy="1404.72" r="14" fill="#e26f46" fill-rule="evenodd" fill-opacity="1" stroke="#000000" stroke-opacity="1" stroke-width="3.2"/>
<circle clip-path="url(#clip632)" cx="1650.75" cy="1114.2" r="14" fill="#e26f46" fill-rule="evenodd" fill-opacity="1" stroke="#000000" stroke-opacity="1" stroke-width="3.2"/>
<circle clip-path="url(#clip632)" cx="2294.79" cy="165.712" r="14" fill="#e26f46" fill-rule="evenodd" fill-opacity="1" stroke="#000000" stroke-opacity="1" stroke-width="3.2"/>
<path clip-path="url(#clip630)" d="
M372.968 328.071 L828.167 328.071 L828.167 172.551 L372.968 172.551  Z
  " fill="#ffffff" fill-rule="evenodd" fill-opacity="1"/>
<polyline clip-path="url(#clip630)" style="stroke:#000000; stroke-linecap:butt; stroke-linejoin:round; stroke-width:4; stroke-opacity:1; fill:none" points="
  372.968,328.071 828.167,328.071 828.167,172.551 372.968,172.551 372.968,328.071 
  "/>
<circle clip-path="url(#clip630)" cx="463.993" cy="224.391" r="23" fill="#009af9" fill-rule="evenodd" fill-opacity="1" stroke="#000000" stroke-opacity="1" stroke-width="5.12"/>
<path clip-path="url(#clip630)" d="M576.73 226.023 L576.73 241.671 L572.471 241.671 L572.471 226.162 Q572.471 222.481 571.036 220.652 Q569.601 218.824 566.73 218.824 Q563.281 218.824 561.29 221.023 Q559.3 223.222 559.3 227.018 L559.3 241.671 L555.017 241.671 L555.017 215.745 L559.3 215.745 L559.3 219.773 Q560.827 217.435 562.888 216.278 Q564.971 215.12 567.679 215.12 Q572.147 215.12 574.439 217.898 Q576.73 220.652 576.73 226.023 Z" fill="#000000" fill-rule="evenodd" fill-opacity="1" /><path clip-path="url(#clip630)" d="M584.786 231.439 L584.786 215.745 L589.045 215.745 L589.045 231.277 Q589.045 234.958 590.48 236.81 Q591.915 238.638 594.786 238.638 Q598.235 238.638 600.225 236.439 Q602.239 234.24 602.239 230.444 L602.239 215.745 L606.499 215.745 L606.499 241.671 L602.239 241.671 L602.239 237.689 Q600.688 240.051 598.628 241.208 Q596.591 242.342 593.883 242.342 Q589.415 242.342 587.1 239.564 Q584.786 236.787 584.786 231.439 M595.503 215.12 L595.503 215.12 Z" fill="#000000" fill-rule="evenodd" fill-opacity="1" /><path clip-path="url(#clip630)" d="M635.457 220.722 Q637.054 217.852 639.276 216.486 Q641.498 215.12 644.508 215.12 Q648.558 215.12 650.758 217.967 Q652.957 220.791 652.957 226.023 L652.957 241.671 L648.674 241.671 L648.674 226.162 Q648.674 222.435 647.355 220.629 Q646.035 218.824 643.327 218.824 Q640.017 218.824 638.096 221.023 Q636.174 223.222 636.174 227.018 L636.174 241.671 L631.892 241.671 L631.892 226.162 Q631.892 222.412 630.572 220.629 Q629.253 218.824 626.498 218.824 Q623.235 218.824 621.313 221.046 Q619.392 223.245 619.392 227.018 L619.392 241.671 L615.11 241.671 L615.11 215.745 L619.392 215.745 L619.392 219.773 Q620.85 217.389 622.887 216.254 Q624.924 215.12 627.725 215.12 Q630.549 215.12 632.517 216.555 Q634.508 217.99 635.457 220.722 Z" fill="#000000" fill-rule="evenodd" fill-opacity="1" /><path clip-path="url(#clip630)" d="M683.628 227.643 L683.628 229.727 L664.045 229.727 Q664.322 234.125 666.683 236.439 Q669.068 238.731 673.304 238.731 Q675.757 238.731 678.049 238.129 Q680.364 237.527 682.632 236.324 L682.632 240.351 Q680.341 241.324 677.933 241.833 Q675.526 242.342 673.049 242.342 Q666.845 242.342 663.211 238.731 Q659.6 235.12 659.6 228.963 Q659.6 222.597 663.026 218.87 Q666.475 215.12 672.308 215.12 Q677.54 215.12 680.572 218.5 Q683.628 221.856 683.628 227.643 M679.369 226.393 Q679.322 222.898 677.401 220.815 Q675.503 218.731 672.355 218.731 Q668.79 218.731 666.637 220.745 Q664.507 222.759 664.183 226.416 L679.369 226.393 Z" fill="#000000" fill-rule="evenodd" fill-opacity="1" /><path clip-path="url(#clip630)" d="M705.642 219.727 Q704.924 219.31 704.067 219.125 Q703.234 218.916 702.216 218.916 Q698.605 218.916 696.66 221.277 Q694.739 223.615 694.739 228.014 L694.739 241.671 L690.456 241.671 L690.456 215.745 L694.739 215.745 L694.739 219.773 Q696.081 217.412 698.234 216.278 Q700.387 215.12 703.466 215.12 Q703.905 215.12 704.438 215.19 Q704.97 215.236 705.618 215.352 L705.642 219.727 Z" fill="#000000" fill-rule="evenodd" fill-opacity="1" /><path clip-path="url(#clip630)" d="M710.109 215.745 L714.368 215.745 L714.368 241.671 L710.109 241.671 L710.109 215.745 M710.109 205.653 L714.368 205.653 L714.368 211.046 L710.109 211.046 L710.109 205.653 Z" fill="#000000" fill-rule="evenodd" fill-opacity="1" /><path clip-path="url(#clip630)" d="M741.938 216.74 L741.938 220.722 Q740.132 219.727 738.303 219.24 Q736.498 218.731 734.646 218.731 Q730.502 218.731 728.211 221.37 Q725.919 223.986 725.919 228.731 Q725.919 233.476 728.211 236.115 Q730.502 238.731 734.646 238.731 Q736.498 238.731 738.303 238.245 Q740.132 237.736 741.938 236.74 L741.938 240.676 Q740.155 241.509 738.234 241.926 Q736.336 242.342 734.183 242.342 Q728.327 242.342 724.878 238.662 Q721.428 234.981 721.428 228.731 Q721.428 222.389 724.901 218.754 Q728.396 215.12 734.461 215.12 Q736.428 215.12 738.303 215.537 Q740.178 215.93 741.938 216.74 Z" fill="#000000" fill-rule="evenodd" fill-opacity="1" /><path clip-path="url(#clip630)" d="M761.127 228.639 Q755.965 228.639 753.975 229.819 Q751.984 231 751.984 233.847 Q751.984 236.115 753.465 237.458 Q754.97 238.777 757.539 238.777 Q761.081 238.777 763.211 236.277 Q765.363 233.754 765.363 229.588 L765.363 228.639 L761.127 228.639 M769.623 226.879 L769.623 241.671 L765.363 241.671 L765.363 237.736 Q763.905 240.097 761.729 241.231 Q759.553 242.342 756.405 242.342 Q752.424 242.342 750.063 240.12 Q747.725 237.875 747.725 234.125 Q747.725 229.75 750.641 227.527 Q753.581 225.305 759.391 225.305 L765.363 225.305 L765.363 224.889 Q765.363 221.949 763.419 220.352 Q761.498 218.731 758.002 218.731 Q755.78 218.731 753.674 219.264 Q751.567 219.796 749.623 220.861 L749.623 216.926 Q751.961 216.023 754.16 215.583 Q756.359 215.12 758.442 215.12 Q764.067 215.12 766.845 218.037 Q769.623 220.953 769.623 226.879 Z" fill="#000000" fill-rule="evenodd" fill-opacity="1" /><path clip-path="url(#clip630)" d="M778.396 205.653 L782.655 205.653 L782.655 241.671 L778.396 241.671 L778.396 205.653 Z" fill="#000000" fill-rule="evenodd" fill-opacity="1" /><circle clip-path="url(#clip630)" cx="463.993" cy="276.231" r="23" fill="#e26f46" fill-rule="evenodd" fill-opacity="1" stroke="#000000" stroke-opacity="1" stroke-width="5.12"/>
<path clip-path="url(#clip630)" d="M568.42 280.479 Q563.258 280.479 561.267 281.659 Q559.277 282.84 559.277 285.687 Q559.277 287.955 560.758 289.298 Q562.263 290.617 564.832 290.617 Q568.374 290.617 570.503 288.117 Q572.656 285.594 572.656 281.428 L572.656 280.479 L568.42 280.479 M576.915 278.719 L576.915 293.511 L572.656 293.511 L572.656 289.576 Q571.198 291.937 569.022 293.071 Q566.846 294.182 563.698 294.182 Q559.716 294.182 557.355 291.96 Q555.017 289.715 555.017 285.965 Q555.017 281.59 557.934 279.367 Q560.874 277.145 566.684 277.145 L572.656 277.145 L572.656 276.729 Q572.656 273.789 570.712 272.192 Q568.79 270.571 565.295 270.571 Q563.073 270.571 560.966 271.104 Q558.86 271.636 556.915 272.701 L556.915 268.766 Q559.253 267.863 561.452 267.423 Q563.652 266.96 565.735 266.96 Q571.36 266.96 574.138 269.877 Q576.915 272.793 576.915 278.719 Z" fill="#000000" fill-rule="evenodd" fill-opacity="1" /><path clip-path="url(#clip630)" d="M607.239 277.863 L607.239 293.511 L602.98 293.511 L602.98 278.002 Q602.98 274.321 601.545 272.492 Q600.11 270.664 597.239 270.664 Q593.79 270.664 591.8 272.863 Q589.809 275.062 589.809 278.858 L589.809 293.511 L585.526 293.511 L585.526 267.585 L589.809 267.585 L589.809 271.613 Q591.337 269.275 593.397 268.118 Q595.48 266.96 598.188 266.96 Q602.656 266.96 604.948 269.738 Q607.239 272.492 607.239 277.863 Z" fill="#000000" fill-rule="evenodd" fill-opacity="1" /><path clip-path="url(#clip630)" d="M627.517 280.479 Q622.355 280.479 620.364 281.659 Q618.373 282.84 618.373 285.687 Q618.373 287.955 619.855 289.298 Q621.36 290.617 623.929 290.617 Q627.471 290.617 629.6 288.117 Q631.753 285.594 631.753 281.428 L631.753 280.479 L627.517 280.479 M636.012 278.719 L636.012 293.511 L631.753 293.511 L631.753 289.576 Q630.295 291.937 628.119 293.071 Q625.943 294.182 622.795 294.182 Q618.813 294.182 616.452 291.96 Q614.114 289.715 614.114 285.965 Q614.114 281.59 617.031 279.367 Q619.971 277.145 625.781 277.145 L631.753 277.145 L631.753 276.729 Q631.753 273.789 629.809 272.192 Q627.887 270.571 624.392 270.571 Q622.17 270.571 620.063 271.104 Q617.957 271.636 616.012 272.701 L616.012 268.766 Q618.35 267.863 620.549 267.423 Q622.748 266.96 624.832 266.96 Q630.457 266.96 633.234 269.877 Q636.012 272.793 636.012 278.719 Z" fill="#000000" fill-rule="evenodd" fill-opacity="1" /><path clip-path="url(#clip630)" d="M644.785 257.493 L649.045 257.493 L649.045 293.511 L644.785 293.511 L644.785 257.493 Z" fill="#000000" fill-rule="evenodd" fill-opacity="1" /><path clip-path="url(#clip630)" d="M668.744 295.918 Q666.938 300.548 665.225 301.96 Q663.512 303.372 660.642 303.372 L657.239 303.372 L657.239 299.807 L659.739 299.807 Q661.498 299.807 662.47 298.974 Q663.443 298.14 664.623 295.039 L665.387 293.094 L654.901 267.585 L659.415 267.585 L667.517 287.863 L675.619 267.585 L680.132 267.585 L668.744 295.918 Z" fill="#000000" fill-rule="evenodd" fill-opacity="1" /><path clip-path="url(#clip630)" d="M690.225 260.224 L690.225 267.585 L698.998 267.585 L698.998 270.895 L690.225 270.895 L690.225 284.969 Q690.225 288.141 691.081 289.043 Q691.961 289.946 694.623 289.946 L698.998 289.946 L698.998 293.511 L694.623 293.511 Q689.693 293.511 687.818 291.682 Q685.943 289.83 685.943 284.969 L685.943 270.895 L682.818 270.895 L682.818 267.585 L685.943 267.585 L685.943 260.224 L690.225 260.224 Z" fill="#000000" fill-rule="evenodd" fill-opacity="1" /><path clip-path="url(#clip630)" d="M704.6 267.585 L708.859 267.585 L708.859 293.511 L704.6 293.511 L704.6 267.585 M704.6 257.493 L708.859 257.493 L708.859 262.886 L704.6 262.886 L704.6 257.493 Z" fill="#000000" fill-rule="evenodd" fill-opacity="1" /><path clip-path="url(#clip630)" d="M736.428 268.58 L736.428 272.562 Q734.623 271.567 732.794 271.08 Q730.989 270.571 729.137 270.571 Q724.993 270.571 722.702 273.21 Q720.41 275.826 720.41 280.571 Q720.41 285.316 722.702 287.955 Q724.993 290.571 729.137 290.571 Q730.989 290.571 732.794 290.085 Q734.623 289.576 736.428 288.58 L736.428 292.516 Q734.646 293.349 732.725 293.766 Q730.827 294.182 728.674 294.182 Q722.817 294.182 719.368 290.502 Q715.919 286.821 715.919 280.571 Q715.919 274.229 719.391 270.594 Q722.887 266.96 728.952 266.96 Q730.919 266.96 732.794 267.377 Q734.669 267.77 736.428 268.58 Z" fill="#000000" fill-rule="evenodd" fill-opacity="1" /><path clip-path="url(#clip630)" d="M755.618 280.479 Q750.456 280.479 748.465 281.659 Q746.475 282.84 746.475 285.687 Q746.475 287.955 747.956 289.298 Q749.461 290.617 752.03 290.617 Q755.572 290.617 757.701 288.117 Q759.854 285.594 759.854 281.428 L759.854 280.479 L755.618 280.479 M764.113 278.719 L764.113 293.511 L759.854 293.511 L759.854 289.576 Q758.396 291.937 756.22 293.071 Q754.044 294.182 750.896 294.182 Q746.914 294.182 744.553 291.96 Q742.215 289.715 742.215 285.965 Q742.215 281.59 745.132 279.367 Q748.072 277.145 753.882 277.145 L759.854 277.145 L759.854 276.729 Q759.854 273.789 757.91 272.192 Q755.988 270.571 752.493 270.571 Q750.271 270.571 748.164 271.104 Q746.058 271.636 744.114 272.701 L744.114 268.766 Q746.451 267.863 748.651 267.423 Q750.85 266.96 752.933 266.96 Q758.558 266.96 761.336 269.877 Q764.113 272.793 764.113 278.719 Z" fill="#000000" fill-rule="evenodd" fill-opacity="1" /><path clip-path="url(#clip630)" d="M772.887 257.493 L777.146 257.493 L777.146 293.511 L772.887 293.511 L772.887 257.493 Z" fill="#000000" fill-rule="evenodd" fill-opacity="1" /><path clip-path="url(#clip630)" d="
M304.699 80 L2352.76 80 L2352.76 0 L304.699 0  Z
  " fill="#ffffff" fill-rule="evenodd" fill-opacity="1"/>
<defs>
  <clipPath id="clip633">
    <rect x="304" y="0" width="2049" height="81"/>
  </clipPath>
</defs>
<path clip-path="url(#clip630)" d="M926.508 13.824 L970.211 13.824 L970.211 21.6943 L935.859 21.6943 L935.859 42.1572 L968.776 42.1572 L968.776 50.0275 L935.859 50.0275 L935.859 75.0737 L971.044 75.0737 L971.044 82.944 L926.508 82.944 L926.508 13.824 Z" fill="#000000" fill-rule="evenodd" fill-opacity="1" /><path clip-path="url(#clip630)" d="M986.044 31.0924 L994.563 31.0924 L994.563 82.944 L986.044 82.944 L986.044 31.0924 M986.044 10.9073 L994.563 10.9073 L994.563 21.6943 L986.044 21.6943 L986.044 10.9073 Z" fill="#000000" fill-rule="evenodd" fill-opacity="1" /><path clip-path="url(#clip630)" d="M1046.51 56.4164 Q1046.51 47.1572 1042.66 42.0646 Q1038.87 36.972 1031.97 36.972 Q1025.12 36.972 1021.28 42.0646 Q1017.48 47.1572 1017.48 56.4164 Q1017.48 65.6293 1021.28 70.7218 Q1025.12 75.8144 1031.97 75.8144 Q1038.87 75.8144 1042.66 70.7218 Q1046.51 65.6293 1046.51 56.4164 M1055.03 76.5088 Q1055.03 89.7495 1049.15 96.1847 Q1043.27 102.666 1031.14 102.666 Q1026.65 102.666 1022.66 101.972 Q1018.68 101.324 1014.93 99.9346 L1014.93 91.6477 Q1018.68 93.6847 1022.34 94.6569 Q1026 95.6291 1029.79 95.6291 Q1038.17 95.6291 1042.34 91.231 Q1046.51 86.8792 1046.51 78.0366 L1046.51 73.8237 Q1043.87 78.407 1039.75 80.6755 Q1035.63 82.944 1029.89 82.944 Q1020.35 82.944 1014.52 75.6755 Q1008.68 68.407 1008.68 56.4164 Q1008.68 44.3794 1014.52 37.1109 Q1020.35 29.8424 1029.89 29.8424 Q1035.63 29.8424 1039.75 32.1109 Q1043.87 34.3794 1046.51 38.9628 L1046.51 31.0924 L1055.03 31.0924 L1055.03 76.5088 Z" fill="#000000" fill-rule="evenodd" fill-opacity="1" /><path clip-path="url(#clip630)" d="M1116.92 54.8886 L1116.92 59.0552 L1077.76 59.0552 Q1078.31 67.8515 1083.03 72.4811 Q1087.8 77.0644 1096.28 77.0644 Q1101.18 77.0644 1105.77 75.8607 Q1110.4 74.657 1114.93 72.2496 L1114.93 80.3051 Q1110.35 82.2496 1105.53 83.2681 Q1100.72 84.2866 1095.77 84.2866 Q1083.36 84.2866 1076.09 77.0644 Q1068.87 69.8422 1068.87 57.5275 Q1068.87 44.7961 1075.72 37.3424 Q1082.62 29.8424 1094.28 29.8424 Q1104.75 29.8424 1110.81 36.6017 Q1116.92 43.3146 1116.92 54.8886 M1108.4 52.3886 Q1108.31 45.3979 1104.47 41.2313 Q1100.67 37.0646 1094.38 37.0646 Q1087.25 37.0646 1082.94 41.0924 Q1078.68 45.1201 1078.03 52.4349 L1108.4 52.3886 Z" fill="#000000" fill-rule="evenodd" fill-opacity="1" /><path clip-path="url(#clip630)" d="M1174.01 51.6479 L1174.01 82.944 L1165.49 82.944 L1165.49 51.9256 Q1165.49 44.5646 1162.62 40.9072 Q1159.75 37.2498 1154.01 37.2498 Q1147.11 37.2498 1143.13 41.6479 Q1139.15 46.046 1139.15 53.6386 L1139.15 82.944 L1130.58 82.944 L1130.58 31.0924 L1139.15 31.0924 L1139.15 39.1479 Q1142.2 34.472 1146.32 32.1572 Q1150.49 29.8424 1155.9 29.8424 Q1164.84 29.8424 1169.42 35.398 Q1174.01 40.9072 1174.01 51.6479 Z" fill="#000000" fill-rule="evenodd" fill-opacity="1" /><path clip-path="url(#clip630)" d="M1217.25 10.9073 L1217.25 17.9906 L1209.1 17.9906 Q1204.52 17.9906 1202.71 19.8425 Q1200.95 21.6943 1200.95 26.5091 L1200.95 31.0924 L1214.98 31.0924 L1214.98 37.7128 L1200.95 37.7128 L1200.95 82.944 L1192.39 82.944 L1192.39 37.7128 L1184.24 37.7128 L1184.24 31.0924 L1192.39 31.0924 L1192.39 27.4813 Q1192.39 18.824 1196.41 14.8888 Q1200.44 10.9073 1209.19 10.9073 L1217.25 10.9073 Z" fill="#000000" fill-rule="evenodd" fill-opacity="1" /><path clip-path="url(#clip630)" d="M1254.42 39.0553 Q1252.99 38.222 1251.27 37.8516 Q1249.61 37.435 1247.57 37.435 Q1240.35 37.435 1236.46 42.1572 Q1232.62 46.8331 1232.62 55.6293 L1232.62 82.944 L1224.05 82.944 L1224.05 31.0924 L1232.62 31.0924 L1232.62 39.1479 Q1235.3 34.4257 1239.61 32.1572 Q1243.91 29.8424 1250.07 29.8424 Q1250.95 29.8424 1252.02 29.9813 Q1253.08 30.0739 1254.38 30.3054 L1254.42 39.0553 Z" fill="#000000" fill-rule="evenodd" fill-opacity="1" /><path clip-path="url(#clip630)" d="M1305.63 54.8886 L1305.63 59.0552 L1266.46 59.0552 Q1267.01 67.8515 1271.74 72.4811 Q1276.51 77.0644 1284.98 77.0644 Q1289.89 77.0644 1294.47 75.8607 Q1299.1 74.657 1303.64 72.2496 L1303.64 80.3051 Q1299.05 82.2496 1294.24 83.2681 Q1289.42 84.2866 1284.47 84.2866 Q1272.06 84.2866 1264.79 77.0644 Q1257.57 69.8422 1257.57 57.5275 Q1257.57 44.7961 1264.42 37.3424 Q1271.32 29.8424 1282.99 29.8424 Q1293.45 29.8424 1299.51 36.6017 Q1305.63 43.3146 1305.63 54.8886 M1297.11 52.3886 Q1297.01 45.3979 1293.17 41.2313 Q1289.38 37.0646 1283.08 37.0646 Q1275.95 37.0646 1271.64 41.0924 Q1267.39 45.1201 1266.74 52.4349 L1297.11 52.3886 Z" fill="#000000" fill-rule="evenodd" fill-opacity="1" /><path clip-path="url(#clip630)" d="M1324.7 57.0645 Q1324.7 66.4626 1328.54 71.8329 Q1332.43 77.157 1339.19 77.157 Q1345.95 77.157 1349.84 71.8329 Q1353.73 66.4626 1353.73 57.0645 Q1353.73 47.6664 1349.84 42.3424 Q1345.95 36.972 1339.19 36.972 Q1332.43 36.972 1328.54 42.3424 Q1324.7 47.6664 1324.7 57.0645 M1353.73 75.1663 Q1351.04 79.7959 1346.92 82.0644 Q1342.85 84.2866 1337.11 84.2866 Q1327.71 84.2866 1321.78 76.7866 Q1315.9 69.2867 1315.9 57.0645 Q1315.9 44.8424 1321.78 37.3424 Q1327.71 29.8424 1337.11 29.8424 Q1342.85 29.8424 1346.92 32.1109 Q1351.04 34.3331 1353.73 38.9628 L1353.73 31.0924 L1362.25 31.0924 L1362.25 102.666 L1353.73 102.666 L1353.73 75.1663 Z" fill="#000000" fill-rule="evenodd" fill-opacity="1" /><path clip-path="url(#clip630)" d="M1378.91 62.4811 L1378.91 31.0924 L1387.43 31.0924 L1387.43 62.1571 Q1387.43 69.5181 1390.3 73.2218 Q1393.17 76.8792 1398.91 76.8792 Q1405.81 76.8792 1409.79 72.4811 Q1413.82 68.083 1413.82 60.4904 L1413.82 31.0924 L1422.34 31.0924 L1422.34 82.944 L1413.82 82.944 L1413.82 74.9811 Q1410.72 79.7033 1406.6 82.0181 Q1402.52 84.2866 1397.11 84.2866 Q1388.17 84.2866 1383.54 78.7311 Q1378.91 73.1755 1378.91 62.4811 M1400.35 29.8424 L1400.35 29.8424 Z" fill="#000000" fill-rule="evenodd" fill-opacity="1" /><path clip-path="url(#clip630)" d="M1484.24 54.8886 L1484.24 59.0552 L1445.07 59.0552 Q1445.63 67.8515 1450.35 72.4811 Q1455.12 77.0644 1463.59 77.0644 Q1468.5 77.0644 1473.08 75.8607 Q1477.71 74.657 1482.25 72.2496 L1482.25 80.3051 Q1477.66 82.2496 1472.85 83.2681 Q1468.03 84.2866 1463.08 84.2866 Q1450.67 84.2866 1443.4 77.0644 Q1436.18 69.8422 1436.18 57.5275 Q1436.18 44.7961 1443.03 37.3424 Q1449.93 29.8424 1461.6 29.8424 Q1472.06 29.8424 1478.12 36.6017 Q1484.24 43.3146 1484.24 54.8886 M1475.72 52.3886 Q1475.62 45.3979 1471.78 41.2313 Q1467.99 37.0646 1461.69 37.0646 Q1454.56 37.0646 1450.25 41.0924 Q1446 45.1201 1445.35 52.4349 L1475.72 52.3886 Z" fill="#000000" fill-rule="evenodd" fill-opacity="1" /><path clip-path="url(#clip630)" d="M1541.32 51.6479 L1541.32 82.944 L1532.8 82.944 L1532.8 51.9256 Q1532.8 44.5646 1529.93 40.9072 Q1527.06 37.2498 1521.32 37.2498 Q1514.42 37.2498 1510.44 41.6479 Q1506.46 46.046 1506.46 53.6386 L1506.46 82.944 L1497.89 82.944 L1497.89 31.0924 L1506.46 31.0924 L1506.46 39.1479 Q1509.51 34.472 1513.63 32.1572 Q1517.8 29.8424 1523.22 29.8424 Q1532.15 29.8424 1536.74 35.398 Q1541.32 40.9072 1541.32 51.6479 Z" fill="#000000" fill-rule="evenodd" fill-opacity="1" /><path clip-path="url(#clip630)" d="M1595.62 33.0832 L1595.62 41.0461 Q1592.01 39.0553 1588.36 38.0831 Q1584.74 37.0646 1581.04 37.0646 Q1572.75 37.0646 1568.17 42.3424 Q1563.59 47.5738 1563.59 57.0645 Q1563.59 66.5552 1568.17 71.8329 Q1572.75 77.0644 1581.04 77.0644 Q1584.74 77.0644 1588.36 76.0922 Q1592.01 75.0737 1595.62 73.0829 L1595.62 80.9533 Q1592.06 82.6199 1588.22 83.4533 Q1584.42 84.2866 1580.12 84.2866 Q1568.4 84.2866 1561.5 76.9255 Q1554.61 69.5644 1554.61 57.0645 Q1554.61 44.3794 1561.55 37.1109 Q1568.54 29.8424 1580.67 29.8424 Q1584.61 29.8424 1588.36 30.6758 Q1592.11 31.4628 1595.62 33.0832 Z" fill="#000000" fill-rule="evenodd" fill-opacity="1" /><path clip-path="url(#clip630)" d="M1610.44 31.0924 L1618.96 31.0924 L1618.96 82.944 L1610.44 82.944 L1610.44 31.0924 M1610.44 10.9073 L1618.96 10.9073 L1618.96 21.6943 L1610.44 21.6943 L1610.44 10.9073 Z" fill="#000000" fill-rule="evenodd" fill-opacity="1" /><path clip-path="url(#clip630)" d="M1681.13 54.8886 L1681.13 59.0552 L1641.97 59.0552 Q1642.52 67.8515 1647.24 72.4811 Q1652.01 77.0644 1660.49 77.0644 Q1665.39 77.0644 1669.98 75.8607 Q1674.61 74.657 1679.14 72.2496 L1679.14 80.3051 Q1674.56 82.2496 1669.74 83.2681 Q1664.93 84.2866 1659.98 84.2866 Q1647.57 84.2866 1640.3 77.0644 Q1633.08 69.8422 1633.08 57.5275 Q1633.08 44.7961 1639.93 37.3424 Q1646.83 29.8424 1658.49 29.8424 Q1668.96 29.8424 1675.02 36.6017 Q1681.13 43.3146 1681.13 54.8886 M1672.61 52.3886 Q1672.52 45.3979 1668.68 41.2313 Q1664.88 37.0646 1658.59 37.0646 Q1651.46 37.0646 1647.15 41.0924 Q1642.89 45.1201 1642.24 52.4349 L1672.61 52.3886 Z" fill="#000000" fill-rule="evenodd" fill-opacity="1" /><path clip-path="url(#clip630)" d="M1728.17 32.6202 L1728.17 40.6757 Q1724.56 38.8239 1720.67 37.8979 Q1716.78 36.972 1712.61 36.972 Q1706.27 36.972 1703.08 38.9165 Q1699.93 40.8609 1699.93 44.7498 Q1699.93 47.7127 1702.2 49.4257 Q1704.47 51.0923 1711.32 52.6201 L1714.23 53.2682 Q1723.31 55.2127 1727.11 58.7775 Q1730.95 62.296 1730.95 68.6385 Q1730.95 75.8607 1725.21 80.0736 Q1719.51 84.2866 1709.51 84.2866 Q1705.35 84.2866 1700.81 83.4533 Q1696.32 82.6662 1691.32 81.0459 L1691.32 72.2496 Q1696.04 74.7033 1700.62 75.9533 Q1705.21 77.157 1709.7 77.157 Q1715.72 77.157 1718.96 75.12 Q1722.2 73.0366 1722.2 69.2867 Q1722.2 65.8145 1719.84 63.9626 Q1717.52 62.1108 1709.61 60.3978 L1706.64 59.7034 Q1698.73 58.0367 1695.21 54.6108 Q1691.69 51.1386 1691.69 45.1201 Q1691.69 37.8054 1696.87 33.8239 Q1702.06 29.8424 1711.6 29.8424 Q1716.32 29.8424 1720.48 30.5369 Q1724.65 31.2313 1728.17 32.6202 Z" fill="#000000" fill-rule="evenodd" fill-opacity="1" /></svg>
