<?xml version="1.0" encoding="utf-8"?>
<svg xmlns="http://www.w3.org/2000/svg" xmlns:xlink="http://www.w3.org/1999/xlink" width="600" height="400" viewBox="0 0 2400 1600">
<defs>
  <clipPath id="clip160">
    <rect x="0" y="0" width="2400" height="1600"/>
  </clipPath>
</defs>
<path clip-path="url(#clip160)" d="
M0 1600 L2400 1600 L2400 0 L0 0  Z
  " fill="#ffffff" fill-rule="evenodd" fill-opacity="1"/>
<defs>
  <clipPath id="clip161">
    <rect x="480" y="0" width="1681" height="1600"/>
  </clipPath>
</defs>
<defs>
  <clipPath id="clip162">
    <rect x="304" y="0" width="2049" height="81"/>
  </clipPath>
</defs>
<path clip-path="url(#clip160)" d="
M156.112 686.448 L1157.07 686.448 L1157.07 123.472 L156.112 123.472  Z
  " fill="#ffffff" fill-rule="evenodd" fill-opacity="1"/>
<defs>
  <clipPath id="clip163">
    <rect x="156" y="123" width="1002" height="564"/>
  </clipPath>
</defs>
<polyline clip-path="url(#clip163)" style="stroke:#000000; stroke-linecap:butt; stroke-linejoin:round; stroke-width:2; stroke-opacity:0.1; fill:none" points="
  184.441,686.448 184.441,123.472 
  "/>
<polyline clip-path="url(#clip163)" style="stroke:#000000; stroke-linecap:butt; stroke-linejoin:round; stroke-width:2; stroke-opacity:0.1; fill:none" points="
  420.517,686.448 420.517,123.472 
  "/>
<polyline clip-path="url(#clip163)" style="stroke:#000000; stroke-linecap:butt; stroke-linejoin:round; stroke-width:2; stroke-opacity:0.1; fill:none" points="
  656.593,686.448 656.593,123.472 
  "/>
<polyline clip-path="url(#clip163)" style="stroke:#000000; stroke-linecap:butt; stroke-linejoin:round; stroke-width:2; stroke-opacity:0.1; fill:none" points="
  892.668,686.448 892.668,123.472 
  "/>
<polyline clip-path="url(#clip163)" style="stroke:#000000; stroke-linecap:butt; stroke-linejoin:round; stroke-width:2; stroke-opacity:0.1; fill:none" points="
  1128.74,686.448 1128.74,123.472 
  "/>
<polyline clip-path="url(#clip160)" style="stroke:#000000; stroke-linecap:butt; stroke-linejoin:round; stroke-width:4; stroke-opacity:1; fill:none" points="
  156.112,686.448 1157.07,686.448 
  "/>
<polyline clip-path="url(#clip160)" style="stroke:#000000; stroke-linecap:butt; stroke-linejoin:round; stroke-width:4; stroke-opacity:1; fill:none" points="
  184.441,686.448 184.441,667.55 
  "/>
<polyline clip-path="url(#clip160)" style="stroke:#000000; stroke-linecap:butt; stroke-linejoin:round; stroke-width:4; stroke-opacity:1; fill:none" points="
  420.517,686.448 420.517,667.55 
  "/>
<polyline clip-path="url(#clip160)" style="stroke:#000000; stroke-linecap:butt; stroke-linejoin:round; stroke-width:4; stroke-opacity:1; fill:none" points="
  656.593,686.448 656.593,667.55 
  "/>
<polyline clip-path="url(#clip160)" style="stroke:#000000; stroke-linecap:butt; stroke-linejoin:round; stroke-width:4; stroke-opacity:1; fill:none" points="
  892.668,686.448 892.668,667.55 
  "/>
<polyline clip-path="url(#clip160)" style="stroke:#000000; stroke-linecap:butt; stroke-linejoin:round; stroke-width:4; stroke-opacity:1; fill:none" points="
  1128.74,686.448 1128.74,667.55 
  "/>
<path clip-path="url(#clip160)" d="M146.745 717.367 Q143.134 717.367 141.305 720.931 Q139.499 724.473 139.499 731.603 Q139.499 738.709 141.305 742.274 Q143.134 745.815 146.745 745.815 Q150.379 745.815 152.184 742.274 Q154.013 738.709 154.013 731.603 Q154.013 724.473 152.184 720.931 Q150.379 717.367 146.745 717.367 M146.745 713.663 Q152.555 713.663 155.61 718.269 Q158.689 722.853 158.689 731.603 Q158.689 740.329 155.61 744.936 Q152.555 749.519 146.745 749.519 Q140.934 749.519 137.856 744.936 Q134.8 740.329 134.8 731.603 Q134.8 722.853 137.856 718.269 Q140.934 713.663 146.745 713.663 Z" fill="#000000" fill-rule="evenodd" fill-opacity="1" /><path clip-path="url(#clip160)" d="M166.907 742.968 L171.791 742.968 L171.791 748.848 L166.907 748.848 L166.907 742.968 Z" fill="#000000" fill-rule="evenodd" fill-opacity="1" /><path clip-path="url(#clip160)" d="M191.976 717.367 Q188.365 717.367 186.536 720.931 Q184.731 724.473 184.731 731.603 Q184.731 738.709 186.536 742.274 Q188.365 745.815 191.976 745.815 Q195.61 745.815 197.416 742.274 Q199.244 738.709 199.244 731.603 Q199.244 724.473 197.416 720.931 Q195.61 717.367 191.976 717.367 M191.976 713.663 Q197.786 713.663 200.842 718.269 Q203.92 722.853 203.92 731.603 Q203.92 740.329 200.842 744.936 Q197.786 749.519 191.976 749.519 Q186.166 749.519 183.087 744.936 Q180.032 740.329 180.032 731.603 Q180.032 722.853 183.087 718.269 Q186.166 713.663 191.976 713.663 Z" fill="#000000" fill-rule="evenodd" fill-opacity="1" /><path clip-path="url(#clip160)" d="M222.138 717.367 Q218.527 717.367 216.698 720.931 Q214.892 724.473 214.892 731.603 Q214.892 738.709 216.698 742.274 Q218.527 745.815 222.138 745.815 Q225.772 745.815 227.578 742.274 Q229.406 738.709 229.406 731.603 Q229.406 724.473 227.578 720.931 Q225.772 717.367 222.138 717.367 M222.138 713.663 Q227.948 713.663 231.003 718.269 Q234.082 722.853 234.082 731.603 Q234.082 740.329 231.003 744.936 Q227.948 749.519 222.138 749.519 Q216.328 749.519 213.249 744.936 Q210.193 740.329 210.193 731.603 Q210.193 722.853 213.249 718.269 Q216.328 713.663 222.138 713.663 Z" fill="#000000" fill-rule="evenodd" fill-opacity="1" /><path clip-path="url(#clip160)" d="M383.318 717.367 Q379.707 717.367 377.878 720.931 Q376.073 724.473 376.073 731.603 Q376.073 738.709 377.878 742.274 Q379.707 745.815 383.318 745.815 Q386.952 745.815 388.758 742.274 Q390.586 738.709 390.586 731.603 Q390.586 724.473 388.758 720.931 Q386.952 717.367 383.318 717.367 M383.318 713.663 Q389.128 713.663 392.184 718.269 Q395.262 722.853 395.262 731.603 Q395.262 740.329 392.184 744.936 Q389.128 749.519 383.318 749.519 Q377.508 749.519 374.429 744.936 Q371.374 740.329 371.374 731.603 Q371.374 722.853 374.429 718.269 Q377.508 713.663 383.318 713.663 Z" fill="#000000" fill-rule="evenodd" fill-opacity="1" /><path clip-path="url(#clip160)" d="M403.48 742.968 L408.364 742.968 L408.364 748.848 L403.48 748.848 L403.48 742.968 Z" fill="#000000" fill-rule="evenodd" fill-opacity="1" /><path clip-path="url(#clip160)" d="M422.577 744.913 L438.896 744.913 L438.896 748.848 L416.952 748.848 L416.952 744.913 Q419.614 742.158 424.197 737.528 Q428.804 732.876 429.984 731.533 Q432.23 729.01 433.109 727.274 Q434.012 725.515 434.012 723.825 Q434.012 721.07 432.068 719.334 Q430.146 717.598 427.045 717.598 Q424.846 717.598 422.392 718.362 Q419.961 719.126 417.184 720.677 L417.184 715.955 Q420.008 714.82 422.461 714.242 Q424.915 713.663 426.952 713.663 Q432.322 713.663 435.517 716.348 Q438.711 719.033 438.711 723.524 Q438.711 725.654 437.901 727.575 Q437.114 729.473 435.008 732.066 Q434.429 732.737 431.327 735.954 Q428.225 739.149 422.577 744.913 Z" fill="#000000" fill-rule="evenodd" fill-opacity="1" /><path clip-path="url(#clip160)" d="M448.757 714.288 L467.114 714.288 L467.114 718.223 L453.04 718.223 L453.04 726.695 Q454.058 726.348 455.077 726.186 Q456.095 726.001 457.114 726.001 Q462.901 726.001 466.281 729.172 Q469.66 732.343 469.66 737.76 Q469.66 743.339 466.188 746.44 Q462.716 749.519 456.396 749.519 Q454.22 749.519 451.952 749.149 Q449.707 748.778 447.299 748.038 L447.299 743.339 Q449.382 744.473 451.605 745.028 Q453.827 745.584 456.304 745.584 Q460.308 745.584 462.646 743.478 Q464.984 741.371 464.984 737.76 Q464.984 734.149 462.646 732.042 Q460.308 729.936 456.304 729.936 Q454.429 729.936 452.554 730.353 Q450.702 730.769 448.757 731.649 L448.757 714.288 Z" fill="#000000" fill-rule="evenodd" fill-opacity="1" /><path clip-path="url(#clip160)" d="M618.896 717.367 Q615.285 717.367 613.456 720.931 Q611.651 724.473 611.651 731.603 Q611.651 738.709 613.456 742.274 Q615.285 745.815 618.896 745.815 Q622.53 745.815 624.336 742.274 Q626.164 738.709 626.164 731.603 Q626.164 724.473 624.336 720.931 Q622.53 717.367 618.896 717.367 M618.896 713.663 Q624.706 713.663 627.762 718.269 Q630.84 722.853 630.84 731.603 Q630.84 740.329 627.762 744.936 Q624.706 749.519 618.896 749.519 Q613.086 749.519 610.007 744.936 Q606.952 740.329 606.952 731.603 Q606.952 722.853 610.007 718.269 Q613.086 713.663 618.896 713.663 Z" fill="#000000" fill-rule="evenodd" fill-opacity="1" /><path clip-path="url(#clip160)" d="M639.058 742.968 L643.942 742.968 L643.942 748.848 L639.058 748.848 L639.058 742.968 Z" fill="#000000" fill-rule="evenodd" fill-opacity="1" /><path clip-path="url(#clip160)" d="M654.174 714.288 L672.53 714.288 L672.53 718.223 L658.456 718.223 L658.456 726.695 Q659.474 726.348 660.493 726.186 Q661.512 726.001 662.53 726.001 Q668.317 726.001 671.697 729.172 Q675.076 732.343 675.076 737.76 Q675.076 743.339 671.604 746.44 Q668.132 749.519 661.812 749.519 Q659.637 749.519 657.368 749.149 Q655.123 748.778 652.715 748.038 L652.715 743.339 Q654.799 744.473 657.021 745.028 Q659.243 745.584 661.72 745.584 Q665.724 745.584 668.062 743.478 Q670.4 741.371 670.4 737.76 Q670.4 734.149 668.062 732.042 Q665.724 729.936 661.72 729.936 Q659.845 729.936 657.97 730.353 Q656.118 730.769 654.174 731.649 L654.174 714.288 Z" fill="#000000" fill-rule="evenodd" fill-opacity="1" /><path clip-path="url(#clip160)" d="M694.289 717.367 Q690.678 717.367 688.849 720.931 Q687.044 724.473 687.044 731.603 Q687.044 738.709 688.849 742.274 Q690.678 745.815 694.289 745.815 Q697.923 745.815 699.729 742.274 Q701.558 738.709 701.558 731.603 Q701.558 724.473 699.729 720.931 Q697.923 717.367 694.289 717.367 M694.289 713.663 Q700.099 713.663 703.155 718.269 Q706.234 722.853 706.234 731.603 Q706.234 740.329 703.155 744.936 Q700.099 749.519 694.289 749.519 Q688.479 749.519 685.4 744.936 Q682.345 740.329 682.345 731.603 Q682.345 722.853 685.4 718.269 Q688.479 713.663 694.289 713.663 Z" fill="#000000" fill-rule="evenodd" fill-opacity="1" /><path clip-path="url(#clip160)" d="M855.469 717.367 Q851.858 717.367 850.03 720.931 Q848.224 724.473 848.224 731.603 Q848.224 738.709 850.03 742.274 Q851.858 745.815 855.469 745.815 Q859.104 745.815 860.909 742.274 Q862.738 738.709 862.738 731.603 Q862.738 724.473 860.909 720.931 Q859.104 717.367 855.469 717.367 M855.469 713.663 Q861.28 713.663 864.335 718.269 Q867.414 722.853 867.414 731.603 Q867.414 740.329 864.335 744.936 Q861.28 749.519 855.469 749.519 Q849.659 749.519 846.581 744.936 Q843.525 740.329 843.525 731.603 Q843.525 722.853 846.581 718.269 Q849.659 713.663 855.469 713.663 Z" fill="#000000" fill-rule="evenodd" fill-opacity="1" /><path clip-path="url(#clip160)" d="M875.631 742.968 L880.516 742.968 L880.516 748.848 L875.631 748.848 L875.631 742.968 Z" fill="#000000" fill-rule="evenodd" fill-opacity="1" /><path clip-path="url(#clip160)" d="M889.52 714.288 L911.742 714.288 L911.742 716.279 L899.196 748.848 L894.312 748.848 L906.117 718.223 L889.52 718.223 L889.52 714.288 Z" fill="#000000" fill-rule="evenodd" fill-opacity="1" /><path clip-path="url(#clip160)" d="M920.909 714.288 L939.265 714.288 L939.265 718.223 L925.191 718.223 L925.191 726.695 Q926.21 726.348 927.228 726.186 Q928.247 726.001 929.265 726.001 Q935.052 726.001 938.432 729.172 Q941.812 732.343 941.812 737.76 Q941.812 743.339 938.339 746.44 Q934.867 749.519 928.548 749.519 Q926.372 749.519 924.103 749.149 Q921.858 748.778 919.451 748.038 L919.451 743.339 Q921.534 744.473 923.756 745.028 Q925.978 745.584 928.455 745.584 Q932.46 745.584 934.798 743.478 Q937.136 741.371 937.136 737.76 Q937.136 734.149 934.798 732.042 Q932.46 729.936 928.455 729.936 Q926.58 729.936 924.705 730.353 Q922.853 730.769 920.909 731.649 L920.909 714.288 Z" fill="#000000" fill-rule="evenodd" fill-opacity="1" /><path clip-path="url(#clip160)" d="M1080.82 744.913 L1088.45 744.913 L1088.45 718.547 L1080.14 720.214 L1080.14 715.955 L1088.41 714.288 L1093.08 714.288 L1093.08 744.913 L1100.72 744.913 L1100.72 748.848 L1080.82 748.848 L1080.82 744.913 Z" fill="#000000" fill-rule="evenodd" fill-opacity="1" /><path clip-path="url(#clip160)" d="M1110.17 742.968 L1115.05 742.968 L1115.05 748.848 L1110.17 748.848 L1110.17 742.968 Z" fill="#000000" fill-rule="evenodd" fill-opacity="1" /><path clip-path="url(#clip160)" d="M1135.24 717.367 Q1131.63 717.367 1129.8 720.931 Q1127.99 724.473 1127.99 731.603 Q1127.99 738.709 1129.8 742.274 Q1131.63 745.815 1135.24 745.815 Q1138.87 745.815 1140.68 742.274 Q1142.51 738.709 1142.51 731.603 Q1142.51 724.473 1140.68 720.931 Q1138.87 717.367 1135.24 717.367 M1135.24 713.663 Q1141.05 713.663 1144.1 718.269 Q1147.18 722.853 1147.18 731.603 Q1147.18 740.329 1144.1 744.936 Q1141.05 749.519 1135.24 749.519 Q1129.43 749.519 1126.35 744.936 Q1123.29 740.329 1123.29 731.603 Q1123.29 722.853 1126.35 718.269 Q1129.43 713.663 1135.24 713.663 Z" fill="#000000" fill-rule="evenodd" fill-opacity="1" /><path clip-path="url(#clip160)" d="M1165.4 717.367 Q1161.79 717.367 1159.96 720.931 Q1158.15 724.473 1158.15 731.603 Q1158.15 738.709 1159.96 742.274 Q1161.79 745.815 1165.4 745.815 Q1169.03 745.815 1170.84 742.274 Q1172.67 738.709 1172.67 731.603 Q1172.67 724.473 1170.84 720.931 Q1169.03 717.367 1165.4 717.367 M1165.4 713.663 Q1171.21 713.663 1174.26 718.269 Q1177.34 722.853 1177.34 731.603 Q1177.34 740.329 1174.26 744.936 Q1171.21 749.519 1165.4 749.519 Q1159.59 749.519 1156.51 744.936 Q1153.45 740.329 1153.45 731.603 Q1153.45 722.853 1156.51 718.269 Q1159.59 713.663 1165.4 713.663 Z" fill="#000000" fill-rule="evenodd" fill-opacity="1" /><polyline clip-path="url(#clip163)" style="stroke:#000000; stroke-linecap:butt; stroke-linejoin:round; stroke-width:2; stroke-opacity:0.1; fill:none" points="
  156.112,670.515 1157.07,670.515 
  "/>
<polyline clip-path="url(#clip163)" style="stroke:#000000; stroke-linecap:butt; stroke-linejoin:round; stroke-width:2; stroke-opacity:0.1; fill:none" points="
  156.112,495.821 1157.07,495.821 
  "/>
<polyline clip-path="url(#clip163)" style="stroke:#000000; stroke-linecap:butt; stroke-linejoin:round; stroke-width:2; stroke-opacity:0.1; fill:none" points="
  156.112,321.127 1157.07,321.127 
  "/>
<polyline clip-path="url(#clip163)" style="stroke:#000000; stroke-linecap:butt; stroke-linejoin:round; stroke-width:2; stroke-opacity:0.1; fill:none" points="
  156.112,146.434 1157.07,146.434 
  "/>
<polyline clip-path="url(#clip160)" style="stroke:#000000; stroke-linecap:butt; stroke-linejoin:round; stroke-width:4; stroke-opacity:1; fill:none" points="
  156.112,686.448 156.112,123.472 
  "/>
<polyline clip-path="url(#clip160)" style="stroke:#000000; stroke-linecap:butt; stroke-linejoin:round; stroke-width:4; stroke-opacity:1; fill:none" points="
  156.112,670.515 175.01,670.515 
  "/>
<polyline clip-path="url(#clip160)" style="stroke:#000000; stroke-linecap:butt; stroke-linejoin:round; stroke-width:4; stroke-opacity:1; fill:none" points="
  156.112,495.821 175.01,495.821 
  "/>
<polyline clip-path="url(#clip160)" style="stroke:#000000; stroke-linecap:butt; stroke-linejoin:round; stroke-width:4; stroke-opacity:1; fill:none" points="
  156.112,321.127 175.01,321.127 
  "/>
<polyline clip-path="url(#clip160)" style="stroke:#000000; stroke-linecap:butt; stroke-linejoin:round; stroke-width:4; stroke-opacity:1; fill:none" points="
  156.112,146.434 175.01,146.434 
  "/>
<path clip-path="url(#clip160)" d="M62.9365 656.313 Q59.3254 656.313 57.4967 659.878 Q55.6912 663.42 55.6912 670.549 Q55.6912 677.656 57.4967 681.221 Q59.3254 684.762 62.9365 684.762 Q66.5707 684.762 68.3763 681.221 Q70.205 677.656 70.205 670.549 Q70.205 663.42 68.3763 659.878 Q66.5707 656.313 62.9365 656.313 M62.9365 652.61 Q68.7467 652.61 71.8022 657.216 Q74.8809 661.799 74.8809 670.549 Q74.8809 679.276 71.8022 683.883 Q68.7467 688.466 62.9365 688.466 Q57.1264 688.466 54.0477 683.883 Q50.9921 679.276 50.9921 670.549 Q50.9921 661.799 54.0477 657.216 Q57.1264 652.61 62.9365 652.61 Z" fill="#000000" fill-rule="evenodd" fill-opacity="1" /><path clip-path="url(#clip160)" d="M83.0984 681.915 L87.9827 681.915 L87.9827 687.795 L83.0984 687.795 L83.0984 681.915 Z" fill="#000000" fill-rule="evenodd" fill-opacity="1" /><path clip-path="url(#clip160)" d="M108.168 656.313 Q104.557 656.313 102.728 659.878 Q100.922 663.42 100.922 670.549 Q100.922 677.656 102.728 681.221 Q104.557 684.762 108.168 684.762 Q111.802 684.762 113.608 681.221 Q115.436 677.656 115.436 670.549 Q115.436 663.42 113.608 659.878 Q111.802 656.313 108.168 656.313 M108.168 652.61 Q113.978 652.61 117.033 657.216 Q120.112 661.799 120.112 670.549 Q120.112 679.276 117.033 683.883 Q113.978 688.466 108.168 688.466 Q102.358 688.466 99.2789 683.883 Q96.2234 679.276 96.2234 670.549 Q96.2234 661.799 99.2789 657.216 Q102.358 652.61 108.168 652.61 Z" fill="#000000" fill-rule="evenodd" fill-opacity="1" /><path clip-path="url(#clip160)" d="M63.9319 481.62 Q60.3208 481.62 58.4921 485.184 Q56.6865 488.726 56.6865 495.856 Q56.6865 502.962 58.4921 506.527 Q60.3208 510.069 63.9319 510.069 Q67.5661 510.069 69.3717 506.527 Q71.2004 502.962 71.2004 495.856 Q71.2004 488.726 69.3717 485.184 Q67.5661 481.62 63.9319 481.62 M63.9319 477.916 Q69.742 477.916 72.7976 482.522 Q75.8763 487.106 75.8763 495.856 Q75.8763 504.582 72.7976 509.189 Q69.742 513.772 63.9319 513.772 Q58.1217 513.772 55.043 509.189 Q51.9875 504.582 51.9875 495.856 Q51.9875 487.106 55.043 482.522 Q58.1217 477.916 63.9319 477.916 Z" fill="#000000" fill-rule="evenodd" fill-opacity="1" /><path clip-path="url(#clip160)" d="M84.0938 507.221 L88.978 507.221 L88.978 513.101 L84.0938 513.101 L84.0938 507.221 Z" fill="#000000" fill-rule="evenodd" fill-opacity="1" /><path clip-path="url(#clip160)" d="M99.2095 478.541 L117.566 478.541 L117.566 482.476 L103.492 482.476 L103.492 490.948 Q104.51 490.601 105.529 490.439 Q106.547 490.254 107.566 490.254 Q113.353 490.254 116.733 493.425 Q120.112 496.596 120.112 502.013 Q120.112 507.592 116.64 510.694 Q113.168 513.772 106.848 513.772 Q104.672 513.772 102.404 513.402 Q100.159 513.032 97.7511 512.291 L97.7511 507.592 Q99.8345 508.726 102.057 509.282 Q104.279 509.837 106.756 509.837 Q110.76 509.837 113.098 507.731 Q115.436 505.624 115.436 502.013 Q115.436 498.402 113.098 496.295 Q110.76 494.189 106.756 494.189 Q104.881 494.189 103.006 494.606 Q101.154 495.022 99.2095 495.902 L99.2095 478.541 Z" fill="#000000" fill-rule="evenodd" fill-opacity="1" /><path clip-path="url(#clip160)" d="M53.7467 334.472 L61.3856 334.472 L61.3856 308.107 L53.0754 309.773 L53.0754 305.514 L61.3393 303.847 L66.0152 303.847 L66.0152 334.472 L73.654 334.472 L73.654 338.407 L53.7467 338.407 L53.7467 334.472 Z" fill="#000000" fill-rule="evenodd" fill-opacity="1" /><path clip-path="url(#clip160)" d="M83.0984 332.528 L87.9827 332.528 L87.9827 338.407 L83.0984 338.407 L83.0984 332.528 Z" fill="#000000" fill-rule="evenodd" fill-opacity="1" /><path clip-path="url(#clip160)" d="M108.168 306.926 Q104.557 306.926 102.728 310.491 Q100.922 314.032 100.922 321.162 Q100.922 328.268 102.728 331.833 Q104.557 335.375 108.168 335.375 Q111.802 335.375 113.608 331.833 Q115.436 328.268 115.436 321.162 Q115.436 314.032 113.608 310.491 Q111.802 306.926 108.168 306.926 M108.168 303.222 Q113.978 303.222 117.033 307.829 Q120.112 312.412 120.112 321.162 Q120.112 329.889 117.033 334.495 Q113.978 339.079 108.168 339.079 Q102.358 339.079 99.2789 334.495 Q96.2234 329.889 96.2234 321.162 Q96.2234 312.412 99.2789 307.829 Q102.358 303.222 108.168 303.222 Z" fill="#000000" fill-rule="evenodd" fill-opacity="1" /><path clip-path="url(#clip160)" d="M54.7421 159.778 L62.381 159.778 L62.381 133.413 L54.0708 135.08 L54.0708 130.82 L62.3347 129.154 L67.0106 129.154 L67.0106 159.778 L74.6494 159.778 L74.6494 163.714 L54.7421 163.714 L54.7421 159.778 Z" fill="#000000" fill-rule="evenodd" fill-opacity="1" /><path clip-path="url(#clip160)" d="M84.0938 157.834 L88.978 157.834 L88.978 163.714 L84.0938 163.714 L84.0938 157.834 Z" fill="#000000" fill-rule="evenodd" fill-opacity="1" /><path clip-path="url(#clip160)" d="M99.2095 129.154 L117.566 129.154 L117.566 133.089 L103.492 133.089 L103.492 141.561 Q104.51 141.214 105.529 141.052 Q106.547 140.867 107.566 140.867 Q113.353 140.867 116.733 144.038 Q120.112 147.209 120.112 152.626 Q120.112 158.204 116.64 161.306 Q113.168 164.385 106.848 164.385 Q104.672 164.385 102.404 164.015 Q100.159 163.644 97.7511 162.903 L97.7511 158.204 Q99.8345 159.339 102.057 159.894 Q104.279 160.45 106.756 160.45 Q110.76 160.45 113.098 158.343 Q115.436 156.237 115.436 152.626 Q115.436 149.015 113.098 146.908 Q110.76 144.802 106.756 144.802 Q104.881 144.802 103.006 145.218 Q101.154 145.635 99.2095 146.515 L99.2095 129.154 Z" fill="#000000" fill-rule="evenodd" fill-opacity="1" /><path clip-path="url(#clip160)" d="M666.087 32.4919 Q666.087 35.648 664.366 42.6162 Q662.644 49.5844 660.554 54.3391 Q656.086 64.6684 648.38 64.6684 Q647.437 64.6684 646.495 64.5865 Q645.593 64.5045 644.24 64.1356 Q642.888 63.7667 641.781 63.1928 Q640.674 62.578 639.567 61.4303 Q638.502 60.2826 637.887 58.766 Q634.485 64.6684 629.156 64.6684 Q623.991 64.6684 620.589 62.0451 Q617.228 59.4218 617.228 54.0522 Q617.228 51.6339 618.212 48.0678 Q619.196 44.5017 621.942 37.1236 Q623.459 33.3116 623.459 31.2212 Q623.459 30.2784 623.254 29.6636 Q623.049 29.0488 622.639 28.8438 Q622.27 28.5979 622.024 28.5569 Q621.778 28.4749 621.368 28.4749 Q618.909 28.4749 616.695 30.9753 Q614.482 33.4346 612.883 38.8862 Q612.555 39.9109 612.351 40.1569 Q612.146 40.4028 611.531 40.4028 Q610.506 40.3618 610.506 39.542 Q610.506 39.2141 610.875 37.9434 Q611.244 36.6318 612.105 34.7053 Q613.006 32.7378 614.236 30.9753 Q615.466 29.1717 617.392 27.9011 Q619.36 26.6304 621.614 26.6304 Q624.647 26.6304 626.574 28.6389 Q628.5 30.6473 628.5 33.5166 Q628.5 34.3364 628.295 35.2381 Q628.09 36.0989 627.885 36.6728 Q627.722 37.2056 627.066 38.8862 Q624.36 45.9773 623.5 49.3794 Q622.68 52.7816 622.68 55.1589 Q622.68 55.9377 622.721 56.5526 Q622.762 57.1674 623.09 58.4381 Q623.459 59.7087 624.114 60.5695 Q624.77 61.3893 626.123 62.0861 Q627.517 62.7829 629.402 62.7829 Q634.116 62.7829 637.149 55.7328 Q637.067 55.3229 637.067 54.2572 Q637.067 51.8798 637.805 48.6826 Q638.01 47.9448 639.199 43.231 Q640.387 38.4763 641.412 34.3364 Q642.478 30.1555 642.601 29.9095 Q643.011 28.7618 643.912 28.147 Q644.814 27.5322 645.716 27.5322 Q646.741 27.5322 647.437 28.147 Q648.134 28.7618 648.134 29.8276 Q648.134 30.0325 647.888 30.9753 Q647.683 31.877 647.355 33.2297 Q647.027 34.5823 646.863 35.2791 L643.338 49.3794 Q642.437 52.6586 642.437 55.4868 Q642.437 59.0529 644.035 60.9384 Q645.634 62.7829 648.626 62.7829 Q654.242 62.7829 657.849 55.4049 Q659.488 52.2077 660.964 47.207 Q662.48 42.2063 662.48 40.0339 Q662.48 35.935 659.447 32.9018 Q658.791 32.3279 658.504 31.877 Q658.218 31.3851 658.218 30.6473 Q658.218 29.2537 659.529 27.942 Q660.841 26.6304 662.398 26.6304 Q663.792 26.6304 664.94 28.024 Q666.087 29.3767 666.087 32.4919 Z" fill="#000000" fill-rule="evenodd" fill-opacity="1" /><path clip-path="url(#clip160)" d="M674.513 54.3792 L674.513 52.5428 Q681.571 52.5428 685.215 48.7841 Q686.219 48.7841 686.392 49.0137 Q686.564 49.2432 686.564 50.3048 L686.564 83.2725 Q686.564 85.0227 687.425 85.5679 Q688.285 86.1131 692.044 86.1131 L693.909 86.1131 L693.909 87.9207 Q691.843 87.7485 684.383 87.7485 Q676.923 87.7485 674.886 87.9207 L674.886 86.1131 L676.751 86.1131 Q680.452 86.1131 681.342 85.5966 Q682.231 85.0514 682.231 83.2725 L682.231 52.8298 Q679.161 54.3792 674.513 54.3792 Z" fill="#000000" fill-rule="evenodd" fill-opacity="1" /><polyline clip-path="url(#clip163)" style="stroke:#0000ff; stroke-linecap:butt; stroke-linejoin:round; stroke-width:8; stroke-opacity:1; fill:none" points="
  184.441,670.515 187.515,670.505 190.589,670.478 219.012,669.376 247.436,666.78 264.517,664.525 281.598,661.762 296.04,659.04 310.482,655.972 326.17,652.255 
  341.858,648.147 356.321,644.022 370.784,639.58 386.289,634.475 401.795,629.023 419.76,622.285 437.725,615.109 469.655,601.313 497.655,588.172 528.183,572.799 
  558.892,556.299 592.844,536.929 625.149,517.481 658.739,496.289 687.015,477.746 721.536,454.31 753.159,432.143 782.366,411.137 811.952,389.391 845.109,364.522 
  875.154,341.589 909.555,314.935 941.406,289.937 972.808,265.046 1003.3,240.691 1034.55,215.579 1068.79,187.944 1118.54,147.674 1128.74,139.405 
  "/>
<path clip-path="url(#clip160)" d="
M1351.8 686.448 L2352.76 686.448 L2352.76 123.472 L1351.8 123.472  Z
  " fill="#ffffff" fill-rule="evenodd" fill-opacity="1"/>
<defs>
  <clipPath id="clip164">
    <rect x="1351" y="123" width="1002" height="564"/>
  </clipPath>
</defs>
<polyline clip-path="url(#clip164)" style="stroke:#000000; stroke-linecap:butt; stroke-linejoin:round; stroke-width:2; stroke-opacity:0.1; fill:none" points="
  1380.12,686.448 1380.12,123.472 
  "/>
<polyline clip-path="url(#clip164)" style="stroke:#000000; stroke-linecap:butt; stroke-linejoin:round; stroke-width:2; stroke-opacity:0.1; fill:none" points="
  1616.2,686.448 1616.2,123.472 
  "/>
<polyline clip-path="url(#clip164)" style="stroke:#000000; stroke-linecap:butt; stroke-linejoin:round; stroke-width:2; stroke-opacity:0.1; fill:none" points="
  1852.28,686.448 1852.28,123.472 
  "/>
<polyline clip-path="url(#clip164)" style="stroke:#000000; stroke-linecap:butt; stroke-linejoin:round; stroke-width:2; stroke-opacity:0.1; fill:none" points="
  2088.35,686.448 2088.35,123.472 
  "/>
<polyline clip-path="url(#clip164)" style="stroke:#000000; stroke-linecap:butt; stroke-linejoin:round; stroke-width:2; stroke-opacity:0.1; fill:none" points="
  2324.43,686.448 2324.43,123.472 
  "/>
<polyline clip-path="url(#clip160)" style="stroke:#000000; stroke-linecap:butt; stroke-linejoin:round; stroke-width:4; stroke-opacity:1; fill:none" points="
  1351.8,686.448 2352.76,686.448 
  "/>
<polyline clip-path="url(#clip160)" style="stroke:#000000; stroke-linecap:butt; stroke-linejoin:round; stroke-width:4; stroke-opacity:1; fill:none" points="
  1380.12,686.448 1380.12,667.55 
  "/>
<polyline clip-path="url(#clip160)" style="stroke:#000000; stroke-linecap:butt; stroke-linejoin:round; stroke-width:4; stroke-opacity:1; fill:none" points="
  1616.2,686.448 1616.2,667.55 
  "/>
<polyline clip-path="url(#clip160)" style="stroke:#000000; stroke-linecap:butt; stroke-linejoin:round; stroke-width:4; stroke-opacity:1; fill:none" points="
  1852.28,686.448 1852.28,667.55 
  "/>
<polyline clip-path="url(#clip160)" style="stroke:#000000; stroke-linecap:butt; stroke-linejoin:round; stroke-width:4; stroke-opacity:1; fill:none" points="
  2088.35,686.448 2088.35,667.55 
  "/>
<polyline clip-path="url(#clip160)" style="stroke:#000000; stroke-linecap:butt; stroke-linejoin:round; stroke-width:4; stroke-opacity:1; fill:none" points="
  2324.43,686.448 2324.43,667.55 
  "/>
<path clip-path="url(#clip160)" d="M1342.43 717.367 Q1338.82 717.367 1336.99 720.931 Q1335.18 724.473 1335.18 731.603 Q1335.18 738.709 1336.99 742.274 Q1338.82 745.815 1342.43 745.815 Q1346.06 745.815 1347.87 742.274 Q1349.7 738.709 1349.7 731.603 Q1349.7 724.473 1347.87 720.931 Q1346.06 717.367 1342.43 717.367 M1342.43 713.663 Q1348.24 713.663 1351.29 718.269 Q1354.37 722.853 1354.37 731.603 Q1354.37 740.329 1351.29 744.936 Q1348.24 749.519 1342.43 749.519 Q1336.62 749.519 1333.54 744.936 Q1330.48 740.329 1330.48 731.603 Q1330.48 722.853 1333.54 718.269 Q1336.62 713.663 1342.43 713.663 Z" fill="#000000" fill-rule="evenodd" fill-opacity="1" /><path clip-path="url(#clip160)" d="M1362.59 742.968 L1367.47 742.968 L1367.47 748.848 L1362.59 748.848 L1362.59 742.968 Z" fill="#000000" fill-rule="evenodd" fill-opacity="1" /><path clip-path="url(#clip160)" d="M1387.66 717.367 Q1384.05 717.367 1382.22 720.931 Q1380.41 724.473 1380.41 731.603 Q1380.41 738.709 1382.22 742.274 Q1384.05 745.815 1387.66 745.815 Q1391.29 745.815 1393.1 742.274 Q1394.93 738.709 1394.93 731.603 Q1394.93 724.473 1393.1 720.931 Q1391.29 717.367 1387.66 717.367 M1387.66 713.663 Q1393.47 713.663 1396.52 718.269 Q1399.6 722.853 1399.6 731.603 Q1399.6 740.329 1396.52 744.936 Q1393.47 749.519 1387.66 749.519 Q1381.85 749.519 1378.77 744.936 Q1375.71 740.329 1375.71 731.603 Q1375.71 722.853 1378.77 718.269 Q1381.85 713.663 1387.66 713.663 Z" fill="#000000" fill-rule="evenodd" fill-opacity="1" /><path clip-path="url(#clip160)" d="M1417.82 717.367 Q1414.21 717.367 1412.38 720.931 Q1410.58 724.473 1410.58 731.603 Q1410.58 738.709 1412.38 742.274 Q1414.21 745.815 1417.82 745.815 Q1421.45 745.815 1423.26 742.274 Q1425.09 738.709 1425.09 731.603 Q1425.09 724.473 1423.26 720.931 Q1421.45 717.367 1417.82 717.367 M1417.82 713.663 Q1423.63 713.663 1426.69 718.269 Q1429.77 722.853 1429.77 731.603 Q1429.77 740.329 1426.69 744.936 Q1423.63 749.519 1417.82 749.519 Q1412.01 749.519 1408.93 744.936 Q1405.88 740.329 1405.88 731.603 Q1405.88 722.853 1408.93 718.269 Q1412.01 713.663 1417.82 713.663 Z" fill="#000000" fill-rule="evenodd" fill-opacity="1" /><path clip-path="url(#clip160)" d="M1579 717.367 Q1575.39 717.367 1573.56 720.931 Q1571.76 724.473 1571.76 731.603 Q1571.76 738.709 1573.56 742.274 Q1575.39 745.815 1579 745.815 Q1582.64 745.815 1584.44 742.274 Q1586.27 738.709 1586.27 731.603 Q1586.27 724.473 1584.44 720.931 Q1582.64 717.367 1579 717.367 M1579 713.663 Q1584.81 713.663 1587.87 718.269 Q1590.95 722.853 1590.95 731.603 Q1590.95 740.329 1587.87 744.936 Q1584.81 749.519 1579 749.519 Q1573.19 749.519 1570.11 744.936 Q1567.06 740.329 1567.06 731.603 Q1567.06 722.853 1570.11 718.269 Q1573.19 713.663 1579 713.663 Z" fill="#000000" fill-rule="evenodd" fill-opacity="1" /><path clip-path="url(#clip160)" d="M1599.16 742.968 L1604.05 742.968 L1604.05 748.848 L1599.16 748.848 L1599.16 742.968 Z" fill="#000000" fill-rule="evenodd" fill-opacity="1" /><path clip-path="url(#clip160)" d="M1618.26 744.913 L1634.58 744.913 L1634.58 748.848 L1612.63 748.848 L1612.63 744.913 Q1615.3 742.158 1619.88 737.528 Q1624.49 732.876 1625.67 731.533 Q1627.91 729.01 1628.79 727.274 Q1629.7 725.515 1629.7 723.825 Q1629.7 721.07 1627.75 719.334 Q1625.83 717.598 1622.73 717.598 Q1620.53 717.598 1618.07 718.362 Q1615.64 719.126 1612.87 720.677 L1612.87 715.955 Q1615.69 714.82 1618.14 714.242 Q1620.6 713.663 1622.63 713.663 Q1628.01 713.663 1631.2 716.348 Q1634.39 719.033 1634.39 723.524 Q1634.39 725.654 1633.58 727.575 Q1632.8 729.473 1630.69 732.066 Q1630.11 732.737 1627.01 735.954 Q1623.91 739.149 1618.26 744.913 Z" fill="#000000" fill-rule="evenodd" fill-opacity="1" /><path clip-path="url(#clip160)" d="M1644.44 714.288 L1662.8 714.288 L1662.8 718.223 L1648.72 718.223 L1648.72 726.695 Q1649.74 726.348 1650.76 726.186 Q1651.78 726.001 1652.8 726.001 Q1658.58 726.001 1661.96 729.172 Q1665.34 732.343 1665.34 737.76 Q1665.34 743.339 1661.87 746.44 Q1658.4 749.519 1652.08 749.519 Q1649.9 749.519 1647.63 749.149 Q1645.39 748.778 1642.98 748.038 L1642.98 743.339 Q1645.07 744.473 1647.29 745.028 Q1649.51 745.584 1651.99 745.584 Q1655.99 745.584 1658.33 743.478 Q1660.67 741.371 1660.67 737.76 Q1660.67 734.149 1658.33 732.042 Q1655.99 729.936 1651.99 729.936 Q1650.11 729.936 1648.24 730.353 Q1646.38 730.769 1644.44 731.649 L1644.44 714.288 Z" fill="#000000" fill-rule="evenodd" fill-opacity="1" /><path clip-path="url(#clip160)" d="M1814.58 717.367 Q1810.97 717.367 1809.14 720.931 Q1807.33 724.473 1807.33 731.603 Q1807.33 738.709 1809.14 742.274 Q1810.97 745.815 1814.58 745.815 Q1818.21 745.815 1820.02 742.274 Q1821.85 738.709 1821.85 731.603 Q1821.85 724.473 1820.02 720.931 Q1818.21 717.367 1814.58 717.367 M1814.58 713.663 Q1820.39 713.663 1823.44 718.269 Q1826.52 722.853 1826.52 731.603 Q1826.52 740.329 1823.44 744.936 Q1820.39 749.519 1814.58 749.519 Q1808.77 749.519 1805.69 744.936 Q1802.63 740.329 1802.63 731.603 Q1802.63 722.853 1805.69 718.269 Q1808.77 713.663 1814.58 713.663 Z" fill="#000000" fill-rule="evenodd" fill-opacity="1" /><path clip-path="url(#clip160)" d="M1834.74 742.968 L1839.63 742.968 L1839.63 748.848 L1834.74 748.848 L1834.74 742.968 Z" fill="#000000" fill-rule="evenodd" fill-opacity="1" /><path clip-path="url(#clip160)" d="M1849.86 714.288 L1868.21 714.288 L1868.21 718.223 L1854.14 718.223 L1854.14 726.695 Q1855.16 726.348 1856.18 726.186 Q1857.19 726.001 1858.21 726.001 Q1864 726.001 1867.38 729.172 Q1870.76 732.343 1870.76 737.76 Q1870.76 743.339 1867.29 746.44 Q1863.81 749.519 1857.5 749.519 Q1855.32 749.519 1853.05 749.149 Q1850.81 748.778 1848.4 748.038 L1848.4 743.339 Q1850.48 744.473 1852.7 745.028 Q1854.93 745.584 1857.4 745.584 Q1861.41 745.584 1863.75 743.478 Q1866.08 741.371 1866.08 737.76 Q1866.08 734.149 1863.75 732.042 Q1861.41 729.936 1857.4 729.936 Q1855.53 729.936 1853.65 730.353 Q1851.8 730.769 1849.86 731.649 L1849.86 714.288 Z" fill="#000000" fill-rule="evenodd" fill-opacity="1" /><path clip-path="url(#clip160)" d="M1889.97 717.367 Q1886.36 717.367 1884.53 720.931 Q1882.73 724.473 1882.73 731.603 Q1882.73 738.709 1884.53 742.274 Q1886.36 745.815 1889.97 745.815 Q1893.61 745.815 1895.41 742.274 Q1897.24 738.709 1897.24 731.603 Q1897.24 724.473 1895.41 720.931 Q1893.61 717.367 1889.97 717.367 M1889.97 713.663 Q1895.78 713.663 1898.84 718.269 Q1901.92 722.853 1901.92 731.603 Q1901.92 740.329 1898.84 744.936 Q1895.78 749.519 1889.97 749.519 Q1884.16 749.519 1881.08 744.936 Q1878.03 740.329 1878.03 731.603 Q1878.03 722.853 1881.08 718.269 Q1884.16 713.663 1889.97 713.663 Z" fill="#000000" fill-rule="evenodd" fill-opacity="1" /><path clip-path="url(#clip160)" d="M2051.15 717.367 Q2047.54 717.367 2045.71 720.931 Q2043.91 724.473 2043.91 731.603 Q2043.91 738.709 2045.71 742.274 Q2047.54 745.815 2051.15 745.815 Q2054.79 745.815 2056.59 742.274 Q2058.42 738.709 2058.42 731.603 Q2058.42 724.473 2056.59 720.931 Q2054.79 717.367 2051.15 717.367 M2051.15 713.663 Q2056.96 713.663 2060.02 718.269 Q2063.1 722.853 2063.1 731.603 Q2063.1 740.329 2060.02 744.936 Q2056.96 749.519 2051.15 749.519 Q2045.34 749.519 2042.26 744.936 Q2039.21 740.329 2039.21 731.603 Q2039.21 722.853 2042.26 718.269 Q2045.34 713.663 2051.15 713.663 Z" fill="#000000" fill-rule="evenodd" fill-opacity="1" /><path clip-path="url(#clip160)" d="M2071.31 742.968 L2076.2 742.968 L2076.2 748.848 L2071.31 748.848 L2071.31 742.968 Z" fill="#000000" fill-rule="evenodd" fill-opacity="1" /><path clip-path="url(#clip160)" d="M2085.2 714.288 L2107.43 714.288 L2107.43 716.279 L2094.88 748.848 L2089.99 748.848 L2101.8 718.223 L2085.2 718.223 L2085.2 714.288 Z" fill="#000000" fill-rule="evenodd" fill-opacity="1" /><path clip-path="url(#clip160)" d="M2116.59 714.288 L2134.95 714.288 L2134.95 718.223 L2120.87 718.223 L2120.87 726.695 Q2121.89 726.348 2122.91 726.186 Q2123.93 726.001 2124.95 726.001 Q2130.74 726.001 2134.11 729.172 Q2137.49 732.343 2137.49 737.76 Q2137.49 743.339 2134.02 746.44 Q2130.55 749.519 2124.23 749.519 Q2122.05 749.519 2119.79 749.149 Q2117.54 748.778 2115.13 748.038 L2115.13 743.339 Q2117.22 744.473 2119.44 745.028 Q2121.66 745.584 2124.14 745.584 Q2128.14 745.584 2130.48 743.478 Q2132.82 741.371 2132.82 737.76 Q2132.82 734.149 2130.48 732.042 Q2128.14 729.936 2124.14 729.936 Q2122.26 729.936 2120.39 730.353 Q2118.54 730.769 2116.59 731.649 L2116.59 714.288 Z" fill="#000000" fill-rule="evenodd" fill-opacity="1" /><path clip-path="url(#clip160)" d="M2276.5 744.913 L2284.14 744.913 L2284.14 718.547 L2275.83 720.214 L2275.83 715.955 L2284.09 714.288 L2288.77 714.288 L2288.77 744.913 L2296.41 744.913 L2296.41 748.848 L2276.5 748.848 L2276.5 744.913 Z" fill="#000000" fill-rule="evenodd" fill-opacity="1" /><path clip-path="url(#clip160)" d="M2305.85 742.968 L2310.73 742.968 L2310.73 748.848 L2305.85 748.848 L2305.85 742.968 Z" fill="#000000" fill-rule="evenodd" fill-opacity="1" /><path clip-path="url(#clip160)" d="M2330.92 717.367 Q2327.31 717.367 2325.48 720.931 Q2323.67 724.473 2323.67 731.603 Q2323.67 738.709 2325.48 742.274 Q2327.31 745.815 2330.92 745.815 Q2334.55 745.815 2336.36 742.274 Q2338.19 738.709 2338.19 731.603 Q2338.19 724.473 2336.36 720.931 Q2334.55 717.367 2330.92 717.367 M2330.92 713.663 Q2336.73 713.663 2339.79 718.269 Q2342.86 722.853 2342.86 731.603 Q2342.86 740.329 2339.79 744.936 Q2336.73 749.519 2330.92 749.519 Q2325.11 749.519 2322.03 744.936 Q2318.98 740.329 2318.98 731.603 Q2318.98 722.853 2322.03 718.269 Q2325.11 713.663 2330.92 713.663 Z" fill="#000000" fill-rule="evenodd" fill-opacity="1" /><path clip-path="url(#clip160)" d="M2361.08 717.367 Q2357.47 717.367 2355.64 720.931 Q2353.84 724.473 2353.84 731.603 Q2353.84 738.709 2355.64 742.274 Q2357.47 745.815 2361.08 745.815 Q2364.72 745.815 2366.52 742.274 Q2368.35 738.709 2368.35 731.603 Q2368.35 724.473 2366.52 720.931 Q2364.72 717.367 2361.08 717.367 M2361.08 713.663 Q2366.89 713.663 2369.95 718.269 Q2373.03 722.853 2373.03 731.603 Q2373.03 740.329 2369.95 744.936 Q2366.89 749.519 2361.08 749.519 Q2355.27 749.519 2352.19 744.936 Q2349.14 740.329 2349.14 731.603 Q2349.14 722.853 2352.19 718.269 Q2355.27 713.663 2361.08 713.663 Z" fill="#000000" fill-rule="evenodd" fill-opacity="1" /><polyline clip-path="url(#clip164)" style="stroke:#000000; stroke-linecap:butt; stroke-linejoin:round; stroke-width:2; stroke-opacity:0.1; fill:none" points="
  1351.8,664.875 2352.76,664.875 
  "/>
<polyline clip-path="url(#clip164)" style="stroke:#000000; stroke-linecap:butt; stroke-linejoin:round; stroke-width:2; stroke-opacity:0.1; fill:none" points="
  1351.8,512.142 2352.76,512.142 
  "/>
<polyline clip-path="url(#clip164)" style="stroke:#000000; stroke-linecap:butt; stroke-linejoin:round; stroke-width:2; stroke-opacity:0.1; fill:none" points="
  1351.8,359.408 2352.76,359.408 
  "/>
<polyline clip-path="url(#clip164)" style="stroke:#000000; stroke-linecap:butt; stroke-linejoin:round; stroke-width:2; stroke-opacity:0.1; fill:none" points="
  1351.8,206.674 2352.76,206.674 
  "/>
<polyline clip-path="url(#clip160)" style="stroke:#000000; stroke-linecap:butt; stroke-linejoin:round; stroke-width:4; stroke-opacity:1; fill:none" points="
  1351.8,686.448 1351.8,123.472 
  "/>
<polyline clip-path="url(#clip160)" style="stroke:#000000; stroke-linecap:butt; stroke-linejoin:round; stroke-width:4; stroke-opacity:1; fill:none" points="
  1351.8,664.875 1370.69,664.875 
  "/>
<polyline clip-path="url(#clip160)" style="stroke:#000000; stroke-linecap:butt; stroke-linejoin:round; stroke-width:4; stroke-opacity:1; fill:none" points="
  1351.8,512.142 1370.69,512.142 
  "/>
<polyline clip-path="url(#clip160)" style="stroke:#000000; stroke-linecap:butt; stroke-linejoin:round; stroke-width:4; stroke-opacity:1; fill:none" points="
  1351.8,359.408 1370.69,359.408 
  "/>
<polyline clip-path="url(#clip160)" style="stroke:#000000; stroke-linecap:butt; stroke-linejoin:round; stroke-width:4; stroke-opacity:1; fill:none" points="
  1351.8,206.674 1370.69,206.674 
  "/>
<path clip-path="url(#clip160)" d="M1255.68 665.327 L1285.36 665.327 L1285.36 669.262 L1255.68 669.262 L1255.68 665.327 Z" fill="#000000" fill-rule="evenodd" fill-opacity="1" /><path clip-path="url(#clip160)" d="M1299.48 678.22 L1315.8 678.22 L1315.8 682.155 L1293.85 682.155 L1293.85 678.22 Q1296.51 675.466 1301.1 670.836 Q1305.7 666.183 1306.88 664.841 Q1309.13 662.317 1310.01 660.581 Q1310.91 658.822 1310.91 657.132 Q1310.91 654.378 1308.97 652.642 Q1307.05 650.905 1303.94 650.905 Q1301.74 650.905 1299.29 651.669 Q1296.86 652.433 1294.08 653.984 L1294.08 649.262 Q1296.91 648.128 1299.36 647.549 Q1301.81 646.97 1303.85 646.97 Q1309.22 646.97 1312.42 649.655 Q1315.61 652.341 1315.61 656.831 Q1315.61 658.961 1314.8 660.882 Q1314.01 662.78 1311.91 665.373 Q1311.33 666.044 1308.23 669.262 Q1305.12 672.456 1299.48 678.22 Z" fill="#000000" fill-rule="evenodd" fill-opacity="1" /><path clip-path="url(#clip160)" d="M1255.31 512.593 L1284.98 512.593 L1284.98 516.528 L1255.31 516.528 L1255.31 512.593 Z" fill="#000000" fill-rule="evenodd" fill-opacity="1" /><path clip-path="url(#clip160)" d="M1295.89 525.486 L1303.53 525.486 L1303.53 499.121 L1295.22 500.788 L1295.22 496.528 L1303.48 494.862 L1308.16 494.862 L1308.16 525.486 L1315.8 525.486 L1315.8 529.422 L1295.89 529.422 L1295.89 525.486 Z" fill="#000000" fill-rule="evenodd" fill-opacity="1" /><path clip-path="url(#clip160)" d="M1303.85 345.207 Q1300.24 345.207 1298.41 348.771 Q1296.61 352.313 1296.61 359.443 Q1296.61 366.549 1298.41 370.114 Q1300.24 373.656 1303.85 373.656 Q1307.48 373.656 1309.29 370.114 Q1311.12 366.549 1311.12 359.443 Q1311.12 352.313 1309.29 348.771 Q1307.48 345.207 1303.85 345.207 M1303.85 341.503 Q1309.66 341.503 1312.72 346.109 Q1315.8 350.693 1315.8 359.443 Q1315.8 368.17 1312.72 372.776 Q1309.66 377.359 1303.85 377.359 Q1298.04 377.359 1294.96 372.776 Q1291.91 368.17 1291.91 359.443 Q1291.91 350.693 1294.96 346.109 Q1298.04 341.503 1303.85 341.503 Z" fill="#000000" fill-rule="evenodd" fill-opacity="1" /><path clip-path="url(#clip160)" d="M1295.89 220.019 L1303.53 220.019 L1303.53 193.654 L1295.22 195.32 L1295.22 191.061 L1303.48 189.394 L1308.16 189.394 L1308.16 220.019 L1315.8 220.019 L1315.8 223.954 L1295.89 223.954 L1295.89 220.019 Z" fill="#000000" fill-rule="evenodd" fill-opacity="1" /><path clip-path="url(#clip160)" d="M1859.75 32.4919 Q1859.75 35.648 1858.03 42.6162 Q1856.31 49.5844 1854.22 54.3391 Q1849.75 64.6684 1842.05 64.6684 Q1841.1 64.6684 1840.16 64.5865 Q1839.26 64.5045 1837.91 64.1356 Q1836.55 63.7667 1835.45 63.1928 Q1834.34 62.578 1833.23 61.4303 Q1832.17 60.2826 1831.55 58.766 Q1828.15 64.6684 1822.82 64.6684 Q1817.66 64.6684 1814.25 62.0451 Q1810.89 59.4218 1810.89 54.0522 Q1810.89 51.6339 1811.88 48.0678 Q1812.86 44.5017 1815.61 37.1236 Q1817.12 33.3116 1817.12 31.2212 Q1817.12 30.2784 1816.92 29.6636 Q1816.71 29.0488 1816.3 28.8438 Q1815.93 28.5979 1815.69 28.5569 Q1815.44 28.4749 1815.03 28.4749 Q1812.57 28.4749 1810.36 30.9753 Q1808.15 33.4346 1806.55 38.8862 Q1806.22 39.9109 1806.02 40.1569 Q1805.81 40.4028 1805.2 40.4028 Q1804.17 40.3618 1804.17 39.542 Q1804.17 39.2141 1804.54 37.9434 Q1804.91 36.6318 1805.77 34.7053 Q1806.67 32.7378 1807.9 30.9753 Q1809.13 29.1717 1811.06 27.9011 Q1813.02 26.6304 1815.28 26.6304 Q1818.31 26.6304 1820.24 28.6389 Q1822.17 30.6473 1822.17 33.5166 Q1822.17 34.3364 1821.96 35.2381 Q1821.76 36.0989 1821.55 36.6728 Q1821.39 37.2056 1820.73 38.8862 Q1818.03 45.9773 1817.16 49.3794 Q1816.34 52.7816 1816.34 55.1589 Q1816.34 55.9377 1816.39 56.5526 Q1816.43 57.1674 1816.75 58.4381 Q1817.12 59.7087 1817.78 60.5695 Q1818.44 61.3893 1819.79 62.0861 Q1821.18 62.7829 1823.07 62.7829 Q1827.78 62.7829 1830.81 55.7328 Q1830.73 55.3229 1830.73 54.2572 Q1830.73 51.8798 1831.47 48.6826 Q1831.67 47.9448 1832.86 43.231 Q1834.05 38.4763 1835.08 34.3364 Q1836.14 30.1555 1836.27 29.9095 Q1836.68 28.7618 1837.58 28.147 Q1838.48 27.5322 1839.38 27.5322 Q1840.41 27.5322 1841.1 28.147 Q1841.8 28.7618 1841.8 29.8276 Q1841.8 30.0325 1841.55 30.9753 Q1841.35 31.877 1841.02 33.2297 Q1840.69 34.5823 1840.53 35.2791 L1837 49.3794 Q1836.1 52.6586 1836.1 55.4868 Q1836.1 59.0529 1837.7 60.9384 Q1839.3 62.7829 1842.29 62.7829 Q1847.91 62.7829 1851.51 55.4049 Q1853.15 52.2077 1854.63 47.207 Q1856.15 42.2063 1856.15 40.0339 Q1856.15 35.935 1853.11 32.9018 Q1852.46 32.3279 1852.17 31.877 Q1851.88 31.3851 1851.88 30.6473 Q1851.88 29.2537 1853.19 27.942 Q1854.51 26.6304 1856.06 26.6304 Q1857.46 26.6304 1858.6 28.024 Q1859.75 29.3767 1859.75 32.4919 Z" fill="#000000" fill-rule="evenodd" fill-opacity="1" /><path clip-path="url(#clip160)" d="M1868.18 87.9207 Q1868.18 86.8591 1868.26 86.5434 Q1868.38 86.2278 1868.84 85.7401 L1880.11 73.1727 Q1886.28 66.2292 1886.28 60.175 Q1886.28 56.2442 1884.22 53.4323 Q1882.18 50.6204 1878.42 50.6204 Q1875.84 50.6204 1873.66 52.1985 Q1871.48 53.7766 1870.47 56.5885 Q1870.65 56.5311 1871.25 56.5311 Q1872.71 56.5311 1873.51 57.4493 Q1874.35 58.3674 1874.35 59.6012 Q1874.35 61.1793 1873.31 61.954 Q1872.31 62.7 1871.31 62.7 Q1870.9 62.7 1870.36 62.6139 Q1869.84 62.5278 1869.01 61.7244 Q1868.18 60.8924 1868.18 59.429 Q1868.18 55.326 1871.28 52.0551 Q1874.4 48.7841 1879.17 48.7841 Q1884.56 48.7841 1888.09 51.9977 Q1891.65 55.1826 1891.65 60.175 Q1891.65 61.9253 1891.1 63.5321 Q1890.59 65.1102 1889.87 66.3439 Q1889.18 67.5777 1887.29 69.5575 Q1885.39 71.5373 1883.87 72.9432 Q1882.35 74.3491 1878.94 77.3332 L1872.71 83.3873 L1883.3 83.3873 Q1888.46 83.3873 1888.87 82.9282 Q1889.44 82.0961 1890.16 77.7062 L1891.65 77.7062 L1889.98 87.9207 L1868.18 87.9207 Z" fill="#000000" fill-rule="evenodd" fill-opacity="1" /><polyline clip-path="url(#clip164)" style="stroke:#0000ff; stroke-linecap:butt; stroke-linejoin:round; stroke-width:8; stroke-opacity:1; fill:none" points="
  1380.12,359.408 1381.66,359.399 1383.2,359.372 1384.74,359.328 1386.27,359.266 1400.48,357.886 1414.7,355.128 1428.91,351.104 1443.12,345.925 1451.66,342.302 
  1460.2,338.326 1468.74,334.02 1477.28,329.409 1491.72,320.982 1506.16,311.862 1537.54,290.203 1566.47,268.791 1597.48,245.302 1633.41,218.69 1649.37,207.436 
  1665.34,196.704 1679.34,187.812 1693.34,179.48 1708.6,171.115 1723.87,163.578 1739.22,156.91 1754.57,151.228 1763.06,148.534 1771.55,146.17 1780.04,144.146 
  1788.53,142.47 1796.6,141.206 1804.68,140.27 1812.76,139.669 1820.83,139.405 1829.23,139.496 1837.63,139.961 1846.02,140.805 1854.42,142.031 1868.56,144.962 
  1882.7,148.986 1891.33,151.981 1899.96,155.383 1908.59,159.191 1917.22,163.402 1933.03,172.154 1948.84,182.227 1963.45,192.677 1978.05,204.198 1992.84,216.926 
  2007.63,230.678 2024.21,247.252 2040.79,264.989 2055.81,282.004 2070.84,299.857 2088.04,321.247 2105.24,343.563 2121.16,364.967 2137.09,387.008 2152.79,409.285 
  2168.49,432.035 2183.74,454.508 2198.98,477.299 2230.23,524.779 2264.48,577.53 2314.22,654.673 2324.43,670.515 
  "/>
<path clip-path="url(#clip160)" d="
M156.112 1486.45 L1157.07 1486.45 L1157.07 923.472 L156.112 923.472  Z
  " fill="#ffffff" fill-rule="evenodd" fill-opacity="1"/>
<defs>
  <clipPath id="clip165">
    <rect x="156" y="923" width="1002" height="564"/>
  </clipPath>
</defs>
<polyline clip-path="url(#clip165)" style="stroke:#000000; stroke-linecap:butt; stroke-linejoin:round; stroke-width:2; stroke-opacity:0.1; fill:none" points="
  184.441,1486.45 184.441,923.472 
  "/>
<polyline clip-path="url(#clip165)" style="stroke:#000000; stroke-linecap:butt; stroke-linejoin:round; stroke-width:2; stroke-opacity:0.1; fill:none" points="
  420.517,1486.45 420.517,923.472 
  "/>
<polyline clip-path="url(#clip165)" style="stroke:#000000; stroke-linecap:butt; stroke-linejoin:round; stroke-width:2; stroke-opacity:0.1; fill:none" points="
  656.593,1486.45 656.593,923.472 
  "/>
<polyline clip-path="url(#clip165)" style="stroke:#000000; stroke-linecap:butt; stroke-linejoin:round; stroke-width:2; stroke-opacity:0.1; fill:none" points="
  892.668,1486.45 892.668,923.472 
  "/>
<polyline clip-path="url(#clip165)" style="stroke:#000000; stroke-linecap:butt; stroke-linejoin:round; stroke-width:2; stroke-opacity:0.1; fill:none" points="
  1128.74,1486.45 1128.74,923.472 
  "/>
<polyline clip-path="url(#clip160)" style="stroke:#000000; stroke-linecap:butt; stroke-linejoin:round; stroke-width:4; stroke-opacity:1; fill:none" points="
  156.112,1486.45 1157.07,1486.45 
  "/>
<polyline clip-path="url(#clip160)" style="stroke:#000000; stroke-linecap:butt; stroke-linejoin:round; stroke-width:4; stroke-opacity:1; fill:none" points="
  184.441,1486.45 184.441,1467.55 
  "/>
<polyline clip-path="url(#clip160)" style="stroke:#000000; stroke-linecap:butt; stroke-linejoin:round; stroke-width:4; stroke-opacity:1; fill:none" points="
  420.517,1486.45 420.517,1467.55 
  "/>
<polyline clip-path="url(#clip160)" style="stroke:#000000; stroke-linecap:butt; stroke-linejoin:round; stroke-width:4; stroke-opacity:1; fill:none" points="
  656.593,1486.45 656.593,1467.55 
  "/>
<polyline clip-path="url(#clip160)" style="stroke:#000000; stroke-linecap:butt; stroke-linejoin:round; stroke-width:4; stroke-opacity:1; fill:none" points="
  892.668,1486.45 892.668,1467.55 
  "/>
<polyline clip-path="url(#clip160)" style="stroke:#000000; stroke-linecap:butt; stroke-linejoin:round; stroke-width:4; stroke-opacity:1; fill:none" points="
  1128.74,1486.45 1128.74,1467.55 
  "/>
<path clip-path="url(#clip160)" d="M146.745 1517.37 Q143.134 1517.37 141.305 1520.93 Q139.499 1524.47 139.499 1531.6 Q139.499 1538.71 141.305 1542.27 Q143.134 1545.82 146.745 1545.82 Q150.379 1545.82 152.184 1542.27 Q154.013 1538.71 154.013 1531.6 Q154.013 1524.47 152.184 1520.93 Q150.379 1517.37 146.745 1517.37 M146.745 1513.66 Q152.555 1513.66 155.61 1518.27 Q158.689 1522.85 158.689 1531.6 Q158.689 1540.33 155.61 1544.94 Q152.555 1549.52 146.745 1549.52 Q140.934 1549.52 137.856 1544.94 Q134.8 1540.33 134.8 1531.6 Q134.8 1522.85 137.856 1518.27 Q140.934 1513.66 146.745 1513.66 Z" fill="#000000" fill-rule="evenodd" fill-opacity="1" /><path clip-path="url(#clip160)" d="M166.907 1542.97 L171.791 1542.97 L171.791 1548.85 L166.907 1548.85 L166.907 1542.97 Z" fill="#000000" fill-rule="evenodd" fill-opacity="1" /><path clip-path="url(#clip160)" d="M191.976 1517.37 Q188.365 1517.37 186.536 1520.93 Q184.731 1524.47 184.731 1531.6 Q184.731 1538.71 186.536 1542.27 Q188.365 1545.82 191.976 1545.82 Q195.61 1545.82 197.416 1542.27 Q199.244 1538.71 199.244 1531.6 Q199.244 1524.47 197.416 1520.93 Q195.61 1517.37 191.976 1517.37 M191.976 1513.66 Q197.786 1513.66 200.842 1518.27 Q203.92 1522.85 203.92 1531.6 Q203.92 1540.33 200.842 1544.94 Q197.786 1549.52 191.976 1549.52 Q186.166 1549.52 183.087 1544.94 Q180.032 1540.33 180.032 1531.6 Q180.032 1522.85 183.087 1518.27 Q186.166 1513.66 191.976 1513.66 Z" fill="#000000" fill-rule="evenodd" fill-opacity="1" /><path clip-path="url(#clip160)" d="M222.138 1517.37 Q218.527 1517.37 216.698 1520.93 Q214.892 1524.47 214.892 1531.6 Q214.892 1538.71 216.698 1542.27 Q218.527 1545.82 222.138 1545.82 Q225.772 1545.82 227.578 1542.27 Q229.406 1538.71 229.406 1531.6 Q229.406 1524.47 227.578 1520.93 Q225.772 1517.37 222.138 1517.37 M222.138 1513.66 Q227.948 1513.66 231.003 1518.27 Q234.082 1522.85 234.082 1531.6 Q234.082 1540.33 231.003 1544.94 Q227.948 1549.52 222.138 1549.52 Q216.328 1549.52 213.249 1544.94 Q210.193 1540.33 210.193 1531.6 Q210.193 1522.85 213.249 1518.27 Q216.328 1513.66 222.138 1513.66 Z" fill="#000000" fill-rule="evenodd" fill-opacity="1" /><path clip-path="url(#clip160)" d="M383.318 1517.37 Q379.707 1517.37 377.878 1520.93 Q376.073 1524.47 376.073 1531.6 Q376.073 1538.71 377.878 1542.27 Q379.707 1545.82 383.318 1545.82 Q386.952 1545.82 388.758 1542.27 Q390.586 1538.71 390.586 1531.6 Q390.586 1524.47 388.758 1520.93 Q386.952 1517.37 383.318 1517.37 M383.318 1513.66 Q389.128 1513.66 392.184 1518.27 Q395.262 1522.85 395.262 1531.6 Q395.262 1540.33 392.184 1544.94 Q389.128 1549.52 383.318 1549.52 Q377.508 1549.52 374.429 1544.94 Q371.374 1540.33 371.374 1531.6 Q371.374 1522.85 374.429 1518.27 Q377.508 1513.66 383.318 1513.66 Z" fill="#000000" fill-rule="evenodd" fill-opacity="1" /><path clip-path="url(#clip160)" d="M403.48 1542.97 L408.364 1542.97 L408.364 1548.85 L403.48 1548.85 L403.48 1542.97 Z" fill="#000000" fill-rule="evenodd" fill-opacity="1" /><path clip-path="url(#clip160)" d="M422.577 1544.91 L438.896 1544.91 L438.896 1548.85 L416.952 1548.85 L416.952 1544.91 Q419.614 1542.16 424.197 1537.53 Q428.804 1532.88 429.984 1531.53 Q432.23 1529.01 433.109 1527.27 Q434.012 1525.51 434.012 1523.82 Q434.012 1521.07 432.068 1519.33 Q430.146 1517.6 427.045 1517.6 Q424.846 1517.6 422.392 1518.36 Q419.961 1519.13 417.184 1520.68 L417.184 1515.95 Q420.008 1514.82 422.461 1514.24 Q424.915 1513.66 426.952 1513.66 Q432.322 1513.66 435.517 1516.35 Q438.711 1519.03 438.711 1523.52 Q438.711 1525.65 437.901 1527.57 Q437.114 1529.47 435.008 1532.07 Q434.429 1532.74 431.327 1535.95 Q428.225 1539.15 422.577 1544.91 Z" fill="#000000" fill-rule="evenodd" fill-opacity="1" /><path clip-path="url(#clip160)" d="M448.757 1514.29 L467.114 1514.29 L467.114 1518.22 L453.04 1518.22 L453.04 1526.7 Q454.058 1526.35 455.077 1526.19 Q456.095 1526 457.114 1526 Q462.901 1526 466.281 1529.17 Q469.66 1532.34 469.66 1537.76 Q469.66 1543.34 466.188 1546.44 Q462.716 1549.52 456.396 1549.52 Q454.22 1549.52 451.952 1549.15 Q449.707 1548.78 447.299 1548.04 L447.299 1543.34 Q449.382 1544.47 451.605 1545.03 Q453.827 1545.58 456.304 1545.58 Q460.308 1545.58 462.646 1543.48 Q464.984 1541.37 464.984 1537.76 Q464.984 1534.15 462.646 1532.04 Q460.308 1529.94 456.304 1529.94 Q454.429 1529.94 452.554 1530.35 Q450.702 1530.77 448.757 1531.65 L448.757 1514.29 Z" fill="#000000" fill-rule="evenodd" fill-opacity="1" /><path clip-path="url(#clip160)" d="M618.896 1517.37 Q615.285 1517.37 613.456 1520.93 Q611.651 1524.47 611.651 1531.6 Q611.651 1538.71 613.456 1542.27 Q615.285 1545.82 618.896 1545.82 Q622.53 1545.82 624.336 1542.27 Q626.164 1538.71 626.164 1531.6 Q626.164 1524.47 624.336 1520.93 Q622.53 1517.37 618.896 1517.37 M618.896 1513.66 Q624.706 1513.66 627.762 1518.27 Q630.84 1522.85 630.84 1531.6 Q630.84 1540.33 627.762 1544.94 Q624.706 1549.52 618.896 1549.52 Q613.086 1549.52 610.007 1544.94 Q606.952 1540.33 606.952 1531.6 Q606.952 1522.85 610.007 1518.27 Q613.086 1513.66 618.896 1513.66 Z" fill="#000000" fill-rule="evenodd" fill-opacity="1" /><path clip-path="url(#clip160)" d="M639.058 1542.97 L643.942 1542.97 L643.942 1548.85 L639.058 1548.85 L639.058 1542.97 Z" fill="#000000" fill-rule="evenodd" fill-opacity="1" /><path clip-path="url(#clip160)" d="M654.174 1514.29 L672.53 1514.29 L672.53 1518.22 L658.456 1518.22 L658.456 1526.7 Q659.474 1526.35 660.493 1526.19 Q661.512 1526 662.53 1526 Q668.317 1526 671.697 1529.17 Q675.076 1532.34 675.076 1537.76 Q675.076 1543.34 671.604 1546.44 Q668.132 1549.52 661.812 1549.52 Q659.637 1549.52 657.368 1549.15 Q655.123 1548.78 652.715 1548.04 L652.715 1543.34 Q654.799 1544.47 657.021 1545.03 Q659.243 1545.58 661.72 1545.58 Q665.724 1545.58 668.062 1543.48 Q670.4 1541.37 670.4 1537.76 Q670.4 1534.15 668.062 1532.04 Q665.724 1529.94 661.72 1529.94 Q659.845 1529.94 657.97 1530.35 Q656.118 1530.77 654.174 1531.65 L654.174 1514.29 Z" fill="#000000" fill-rule="evenodd" fill-opacity="1" /><path clip-path="url(#clip160)" d="M694.289 1517.37 Q690.678 1517.37 688.849 1520.93 Q687.044 1524.47 687.044 1531.6 Q687.044 1538.71 688.849 1542.27 Q690.678 1545.82 694.289 1545.82 Q697.923 1545.82 699.729 1542.27 Q701.558 1538.71 701.558 1531.6 Q701.558 1524.47 699.729 1520.93 Q697.923 1517.37 694.289 1517.37 M694.289 1513.66 Q700.099 1513.66 703.155 1518.27 Q706.234 1522.85 706.234 1531.6 Q706.234 1540.33 703.155 1544.94 Q700.099 1549.52 694.289 1549.52 Q688.479 1549.52 685.4 1544.94 Q682.345 1540.33 682.345 1531.6 Q682.345 1522.85 685.4 1518.27 Q688.479 1513.66 694.289 1513.66 Z" fill="#000000" fill-rule="evenodd" fill-opacity="1" /><path clip-path="url(#clip160)" d="M855.469 1517.37 Q851.858 1517.37 850.03 1520.93 Q848.224 1524.47 848.224 1531.6 Q848.224 1538.71 850.03 1542.27 Q851.858 1545.82 855.469 1545.82 Q859.104 1545.82 860.909 1542.27 Q862.738 1538.71 862.738 1531.6 Q862.738 1524.47 860.909 1520.93 Q859.104 1517.37 855.469 1517.37 M855.469 1513.66 Q861.28 1513.66 864.335 1518.27 Q867.414 1522.85 867.414 1531.6 Q867.414 1540.33 864.335 1544.94 Q861.28 1549.52 855.469 1549.52 Q849.659 1549.52 846.581 1544.94 Q843.525 1540.33 843.525 1531.6 Q843.525 1522.85 846.581 1518.27 Q849.659 1513.66 855.469 1513.66 Z" fill="#000000" fill-rule="evenodd" fill-opacity="1" /><path clip-path="url(#clip160)" d="M875.631 1542.97 L880.516 1542.97 L880.516 1548.85 L875.631 1548.85 L875.631 1542.97 Z" fill="#000000" fill-rule="evenodd" fill-opacity="1" /><path clip-path="url(#clip160)" d="M889.52 1514.29 L911.742 1514.29 L911.742 1516.28 L899.196 1548.85 L894.312 1548.85 L906.117 1518.22 L889.52 1518.22 L889.52 1514.29 Z" fill="#000000" fill-rule="evenodd" fill-opacity="1" /><path clip-path="url(#clip160)" d="M920.909 1514.29 L939.265 1514.29 L939.265 1518.22 L925.191 1518.22 L925.191 1526.7 Q926.21 1526.35 927.228 1526.19 Q928.247 1526 929.265 1526 Q935.052 1526 938.432 1529.17 Q941.812 1532.34 941.812 1537.76 Q941.812 1543.34 938.339 1546.44 Q934.867 1549.52 928.548 1549.52 Q926.372 1549.52 924.103 1549.15 Q921.858 1548.78 919.451 1548.04 L919.451 1543.34 Q921.534 1544.47 923.756 1545.03 Q925.978 1545.58 928.455 1545.58 Q932.46 1545.58 934.798 1543.48 Q937.136 1541.37 937.136 1537.76 Q937.136 1534.15 934.798 1532.04 Q932.46 1529.94 928.455 1529.94 Q926.58 1529.94 924.705 1530.35 Q922.853 1530.77 920.909 1531.65 L920.909 1514.29 Z" fill="#000000" fill-rule="evenodd" fill-opacity="1" /><path clip-path="url(#clip160)" d="M1080.82 1544.91 L1088.45 1544.91 L1088.45 1518.55 L1080.14 1520.21 L1080.14 1515.95 L1088.41 1514.29 L1093.08 1514.29 L1093.08 1544.91 L1100.72 1544.91 L1100.72 1548.85 L1080.82 1548.85 L1080.82 1544.91 Z" fill="#000000" fill-rule="evenodd" fill-opacity="1" /><path clip-path="url(#clip160)" d="M1110.17 1542.97 L1115.05 1542.97 L1115.05 1548.85 L1110.17 1548.85 L1110.17 1542.97 Z" fill="#000000" fill-rule="evenodd" fill-opacity="1" /><path clip-path="url(#clip160)" d="M1135.24 1517.37 Q1131.63 1517.37 1129.8 1520.93 Q1127.99 1524.47 1127.99 1531.6 Q1127.99 1538.71 1129.8 1542.27 Q1131.63 1545.82 1135.24 1545.82 Q1138.87 1545.82 1140.68 1542.27 Q1142.51 1538.71 1142.51 1531.6 Q1142.51 1524.47 1140.68 1520.93 Q1138.87 1517.37 1135.24 1517.37 M1135.24 1513.66 Q1141.05 1513.66 1144.1 1518.27 Q1147.18 1522.85 1147.18 1531.6 Q1147.18 1540.33 1144.1 1544.94 Q1141.05 1549.52 1135.24 1549.52 Q1129.43 1549.52 1126.35 1544.94 Q1123.29 1540.33 1123.29 1531.6 Q1123.29 1522.85 1126.35 1518.27 Q1129.43 1513.66 1135.24 1513.66 Z" fill="#000000" fill-rule="evenodd" fill-opacity="1" /><path clip-path="url(#clip160)" d="M1165.4 1517.37 Q1161.79 1517.37 1159.96 1520.93 Q1158.15 1524.47 1158.15 1531.6 Q1158.15 1538.71 1159.96 1542.27 Q1161.79 1545.82 1165.4 1545.82 Q1169.03 1545.82 1170.84 1542.27 Q1172.67 1538.71 1172.67 1531.6 Q1172.67 1524.47 1170.84 1520.93 Q1169.03 1517.37 1165.4 1517.37 M1165.4 1513.66 Q1171.21 1513.66 1174.26 1518.27 Q1177.34 1522.85 1177.34 1531.6 Q1177.34 1540.33 1174.26 1544.94 Q1171.21 1549.52 1165.4 1549.52 Q1159.59 1549.52 1156.51 1544.94 Q1153.45 1540.33 1153.45 1531.6 Q1153.45 1522.85 1156.51 1518.27 Q1159.59 1513.66 1165.4 1513.66 Z" fill="#000000" fill-rule="evenodd" fill-opacity="1" /><polyline clip-path="url(#clip165)" style="stroke:#000000; stroke-linecap:butt; stroke-linejoin:round; stroke-width:2; stroke-opacity:0.1; fill:none" points="
  156.112,1419.67 1157.07,1419.67 
  "/>
<polyline clip-path="url(#clip165)" style="stroke:#000000; stroke-linecap:butt; stroke-linejoin:round; stroke-width:2; stroke-opacity:0.1; fill:none" points="
  156.112,1259.5 1157.07,1259.5 
  "/>
<polyline clip-path="url(#clip165)" style="stroke:#000000; stroke-linecap:butt; stroke-linejoin:round; stroke-width:2; stroke-opacity:0.1; fill:none" points="
  156.112,1099.33 1157.07,1099.33 
  "/>
<polyline clip-path="url(#clip165)" style="stroke:#000000; stroke-linecap:butt; stroke-linejoin:round; stroke-width:2; stroke-opacity:0.1; fill:none" points="
  156.112,939.157 1157.07,939.157 
  "/>
<polyline clip-path="url(#clip160)" style="stroke:#000000; stroke-linecap:butt; stroke-linejoin:round; stroke-width:4; stroke-opacity:1; fill:none" points="
  156.112,1486.45 156.112,923.472 
  "/>
<polyline clip-path="url(#clip160)" style="stroke:#000000; stroke-linecap:butt; stroke-linejoin:round; stroke-width:4; stroke-opacity:1; fill:none" points="
  156.112,1419.67 175.01,1419.67 
  "/>
<polyline clip-path="url(#clip160)" style="stroke:#000000; stroke-linecap:butt; stroke-linejoin:round; stroke-width:4; stroke-opacity:1; fill:none" points="
  156.112,1259.5 175.01,1259.5 
  "/>
<polyline clip-path="url(#clip160)" style="stroke:#000000; stroke-linecap:butt; stroke-linejoin:round; stroke-width:4; stroke-opacity:1; fill:none" points="
  156.112,1099.33 175.01,1099.33 
  "/>
<polyline clip-path="url(#clip160)" style="stroke:#000000; stroke-linecap:butt; stroke-linejoin:round; stroke-width:4; stroke-opacity:1; fill:none" points="
  156.112,939.157 175.01,939.157 
  "/>
<path clip-path="url(#clip160)" d="M59.6263 1420.12 L89.3021 1420.12 L89.3021 1424.05 L59.6263 1424.05 L59.6263 1420.12 Z" fill="#000000" fill-rule="evenodd" fill-opacity="1" /><path clip-path="url(#clip160)" d="M100.205 1433.01 L107.844 1433.01 L107.844 1406.64 L99.5335 1408.31 L99.5335 1404.05 L107.797 1402.39 L112.473 1402.39 L112.473 1433.01 L120.112 1433.01 L120.112 1436.95 L100.205 1436.95 L100.205 1433.01 Z" fill="#000000" fill-rule="evenodd" fill-opacity="1" /><path clip-path="url(#clip160)" d="M108.168 1245.29 Q104.557 1245.29 102.728 1248.86 Q100.922 1252.4 100.922 1259.53 Q100.922 1266.64 102.728 1270.2 Q104.557 1273.74 108.168 1273.74 Q111.802 1273.74 113.608 1270.2 Q115.436 1266.64 115.436 1259.53 Q115.436 1252.4 113.608 1248.86 Q111.802 1245.29 108.168 1245.29 M108.168 1241.59 Q113.978 1241.59 117.033 1246.2 Q120.112 1250.78 120.112 1259.53 Q120.112 1268.26 117.033 1272.86 Q113.978 1277.45 108.168 1277.45 Q102.358 1277.45 99.2789 1272.86 Q96.2234 1268.26 96.2234 1259.53 Q96.2234 1250.78 99.2789 1246.2 Q102.358 1241.59 108.168 1241.59 Z" fill="#000000" fill-rule="evenodd" fill-opacity="1" /><path clip-path="url(#clip160)" d="M100.205 1112.67 L107.844 1112.67 L107.844 1086.31 L99.5335 1087.97 L99.5335 1083.71 L107.797 1082.05 L112.473 1082.05 L112.473 1112.67 L120.112 1112.67 L120.112 1116.61 L100.205 1116.61 L100.205 1112.67 Z" fill="#000000" fill-rule="evenodd" fill-opacity="1" /><path clip-path="url(#clip160)" d="M103.793 952.502 L120.112 952.502 L120.112 956.437 L98.1678 956.437 L98.1678 952.502 Q100.83 949.747 105.413 945.118 Q110.02 940.465 111.2 939.122 Q113.445 936.599 114.325 934.863 Q115.228 933.104 115.228 931.414 Q115.228 928.659 113.283 926.923 Q111.362 925.187 108.26 925.187 Q106.061 925.187 103.608 925.951 Q101.177 926.715 98.3993 928.266 L98.3993 923.544 Q101.223 922.409 103.677 921.831 Q106.131 921.252 108.168 921.252 Q113.538 921.252 116.733 923.937 Q119.927 926.622 119.927 931.113 Q119.927 933.243 119.117 935.164 Q118.33 937.062 116.223 939.655 Q115.645 940.326 112.543 943.544 Q109.441 946.738 103.793 952.502 Z" fill="#000000" fill-rule="evenodd" fill-opacity="1" /><path clip-path="url(#clip160)" d="M663.616 831.852 Q663.616 835.008 661.894 841.976 Q660.172 848.945 658.082 853.699 Q653.614 864.029 645.908 864.029 Q644.965 864.029 644.023 863.947 Q643.121 863.865 641.768 863.496 Q640.416 863.127 639.309 862.553 Q638.202 861.938 637.096 860.79 Q636.03 859.643 635.415 858.126 Q632.013 864.029 626.684 864.029 Q621.52 864.029 618.117 861.405 Q614.756 858.782 614.756 853.412 Q614.756 850.994 615.74 847.428 Q616.724 843.862 619.47 836.484 Q620.987 832.672 620.987 830.581 Q620.987 829.639 620.782 829.024 Q620.577 828.409 620.167 828.204 Q619.798 827.958 619.552 827.917 Q619.306 827.835 618.896 827.835 Q616.437 827.835 614.224 830.335 Q612.01 832.795 610.412 838.246 Q610.084 839.271 609.879 839.517 Q609.674 839.763 609.059 839.763 Q608.034 839.722 608.034 838.902 Q608.034 838.574 608.403 837.304 Q608.772 835.992 609.633 834.065 Q610.534 832.098 611.764 830.335 Q612.994 828.532 614.92 827.261 Q616.888 825.991 619.142 825.991 Q622.175 825.991 624.102 827.999 Q626.028 830.007 626.028 832.877 Q626.028 833.697 625.823 834.598 Q625.619 835.459 625.414 836.033 Q625.25 836.566 624.594 838.246 Q621.889 845.337 621.028 848.74 Q620.208 852.142 620.208 854.519 Q620.208 855.298 620.249 855.913 Q620.29 856.528 620.618 857.798 Q620.987 859.069 621.643 859.93 Q622.298 860.749 623.651 861.446 Q625.045 862.143 626.93 862.143 Q631.644 862.143 634.677 855.093 Q634.595 854.683 634.595 853.617 Q634.595 851.24 635.333 848.043 Q635.538 847.305 636.727 842.591 Q637.915 837.836 638.94 833.697 Q640.006 829.516 640.129 829.27 Q640.539 828.122 641.44 827.507 Q642.342 826.892 643.244 826.892 Q644.269 826.892 644.965 827.507 Q645.662 828.122 645.662 829.188 Q645.662 829.393 645.416 830.335 Q645.211 831.237 644.883 832.59 Q644.556 833.942 644.392 834.639 L640.867 848.74 Q639.965 852.019 639.965 854.847 Q639.965 858.413 641.563 860.299 Q643.162 862.143 646.154 862.143 Q651.77 862.143 655.377 854.765 Q657.016 851.568 658.492 846.567 Q660.009 841.566 660.009 839.394 Q660.009 835.295 656.975 832.262 Q656.32 831.688 656.033 831.237 Q655.746 830.745 655.746 830.007 Q655.746 828.614 657.057 827.302 Q658.369 825.991 659.927 825.991 Q661.32 825.991 662.468 827.384 Q663.616 828.737 663.616 831.852 Z" fill="#000000" fill-rule="evenodd" fill-opacity="1" /><path clip-path="url(#clip160)" d="M672.041 879.362 Q672.041 877.611 673.045 876.779 Q674.049 875.947 675.341 875.947 Q676.689 875.947 677.636 876.837 Q678.612 877.698 678.612 879.218 Q678.612 880.854 677.464 881.772 Q676.345 882.69 674.738 882.461 Q676.144 884.813 678.726 885.875 Q681.337 886.937 683.748 886.937 Q686.272 886.937 688.31 884.756 Q690.376 882.575 690.376 877.238 Q690.376 872.705 688.597 870.094 Q686.846 867.483 683.375 867.483 L680.792 867.483 Q679.903 867.483 679.645 867.397 Q679.386 867.311 679.386 866.823 Q679.386 866.249 680.276 866.134 Q681.165 866.134 682.571 865.962 Q685.986 865.848 687.793 862.892 Q689.429 860.138 689.429 856.207 Q689.429 852.62 687.707 851.128 Q686.014 849.608 683.805 849.608 Q681.739 849.608 679.472 850.468 Q677.206 851.329 675.972 853.252 Q679.616 853.252 679.616 856.207 Q679.616 857.498 678.784 858.359 Q677.98 859.191 676.632 859.191 Q675.341 859.191 674.48 858.388 Q673.619 857.555 673.619 856.149 Q673.619 852.792 676.603 850.468 Q679.616 848.144 684.034 848.144 Q688.396 848.144 691.609 850.44 Q694.852 852.735 694.852 856.264 Q694.852 859.736 692.556 862.577 Q690.261 865.417 686.617 866.594 Q691.093 867.483 693.761 870.524 Q696.43 873.537 696.43 877.238 Q696.43 881.829 692.814 885.215 Q689.199 888.572 683.92 888.572 Q679.042 888.572 675.541 885.932 Q672.041 883.293 672.041 879.362 Z" fill="#000000" fill-rule="evenodd" fill-opacity="1" /><polyline clip-path="url(#clip165)" style="stroke:#0000ff; stroke-linecap:butt; stroke-linejoin:round; stroke-width:8; stroke-opacity:1; fill:none" points="
  184.441,1259.5 185.978,1259.47 187.515,1259.39 189.052,1259.26 190.589,1259.08 197.695,1257.62 204.801,1255.16 211.907,1251.77 219.012,1247.52 226.118,1242.47 
  233.224,1236.69 240.33,1230.24 247.436,1223.19 255.976,1214.01 264.517,1204.18 273.057,1193.78 281.598,1182.95 296.04,1163.92 310.482,1144.43 326.17,1123.32 
  341.858,1102.84 356.321,1085 370.784,1068.56 378.536,1060.45 386.289,1052.91 394.042,1045.97 401.795,1039.68 410.778,1033.26 419.76,1027.83 428.743,1023.44 
  437.725,1020.12 445.708,1018.1 453.69,1016.98 461.673,1016.78 469.655,1017.5 476.655,1018.89 483.655,1021 490.655,1023.82 497.655,1027.35 505.287,1032 
  512.919,1037.47 520.551,1043.74 528.183,1050.79 535.86,1058.64 543.537,1067.24 551.214,1076.55 558.892,1086.52 567.38,1098.29 575.868,1110.79 584.356,1123.94 
  592.844,1137.7 600.921,1151.28 608.997,1165.3 617.073,1179.67 625.149,1194.34 658.739,1257.14 687.015,1309.58 695.645,1325.03 704.275,1340.07 712.906,1354.62 
  721.536,1368.61 729.442,1380.88 737.348,1392.55 745.253,1403.58 753.159,1413.91 760.461,1422.8 767.763,1431.02 775.064,1438.54 782.366,1445.34 789.763,1451.44 
  797.159,1456.74 804.555,1461.21 811.952,1464.82 820.241,1467.84 828.53,1469.74 836.82,1470.51 845.109,1470.14 852.62,1468.81 860.132,1466.53 867.643,1463.31 
  875.154,1459.14 883.755,1453.23 892.355,1446.1 900.955,1437.79 909.555,1428.31 917.518,1418.53 925.481,1407.8 933.443,1396.17 941.406,1383.65 949.257,1370.48 
  957.107,1356.54 964.958,1341.85 972.808,1326.45 980.43,1310.88 988.053,1294.72 995.675,1278.02 1003.3,1260.81 1011.11,1242.7 1018.92,1224.15 1026.74,1205.21 
  1034.55,1185.91 1051.67,1142.61 1068.79,1098.26 1093.67,1032.7 1118.54,966.573 1123.64,952.99 1128.74,939.405 
  "/>
<path clip-path="url(#clip160)" d="
M1351.8 1486.45 L2352.76 1486.45 L2352.76 923.472 L1351.8 923.472  Z
  " fill="#ffffff" fill-rule="evenodd" fill-opacity="1"/>
<defs>
  <clipPath id="clip166">
    <rect x="1351" y="923" width="1002" height="564"/>
  </clipPath>
</defs>
<polyline clip-path="url(#clip166)" style="stroke:#000000; stroke-linecap:butt; stroke-linejoin:round; stroke-width:2; stroke-opacity:0.1; fill:none" points="
  1380.12,1486.45 1380.12,923.472 
  "/>
<polyline clip-path="url(#clip166)" style="stroke:#000000; stroke-linecap:butt; stroke-linejoin:round; stroke-width:2; stroke-opacity:0.1; fill:none" points="
  1616.2,1486.45 1616.2,923.472 
  "/>
<polyline clip-path="url(#clip166)" style="stroke:#000000; stroke-linecap:butt; stroke-linejoin:round; stroke-width:2; stroke-opacity:0.1; fill:none" points="
  1852.28,1486.45 1852.28,923.472 
  "/>
<polyline clip-path="url(#clip166)" style="stroke:#000000; stroke-linecap:butt; stroke-linejoin:round; stroke-width:2; stroke-opacity:0.1; fill:none" points="
  2088.35,1486.45 2088.35,923.472 
  "/>
<polyline clip-path="url(#clip166)" style="stroke:#000000; stroke-linecap:butt; stroke-linejoin:round; stroke-width:2; stroke-opacity:0.1; fill:none" points="
  2324.43,1486.45 2324.43,923.472 
  "/>
<polyline clip-path="url(#clip160)" style="stroke:#000000; stroke-linecap:butt; stroke-linejoin:round; stroke-width:4; stroke-opacity:1; fill:none" points="
  1351.8,1486.45 2352.76,1486.45 
  "/>
<polyline clip-path="url(#clip160)" style="stroke:#000000; stroke-linecap:butt; stroke-linejoin:round; stroke-width:4; stroke-opacity:1; fill:none" points="
  1380.12,1486.45 1380.12,1467.55 
  "/>
<polyline clip-path="url(#clip160)" style="stroke:#000000; stroke-linecap:butt; stroke-linejoin:round; stroke-width:4; stroke-opacity:1; fill:none" points="
  1616.2,1486.45 1616.2,1467.55 
  "/>
<polyline clip-path="url(#clip160)" style="stroke:#000000; stroke-linecap:butt; stroke-linejoin:round; stroke-width:4; stroke-opacity:1; fill:none" points="
  1852.28,1486.45 1852.28,1467.55 
  "/>
<polyline clip-path="url(#clip160)" style="stroke:#000000; stroke-linecap:butt; stroke-linejoin:round; stroke-width:4; stroke-opacity:1; fill:none" points="
  2088.35,1486.45 2088.35,1467.55 
  "/>
<polyline clip-path="url(#clip160)" style="stroke:#000000; stroke-linecap:butt; stroke-linejoin:round; stroke-width:4; stroke-opacity:1; fill:none" points="
  2324.43,1486.45 2324.43,1467.55 
  "/>
<path clip-path="url(#clip160)" d="M1342.43 1517.37 Q1338.82 1517.37 1336.99 1520.93 Q1335.18 1524.47 1335.18 1531.6 Q1335.18 1538.71 1336.99 1542.27 Q1338.82 1545.82 1342.43 1545.82 Q1346.06 1545.82 1347.87 1542.27 Q1349.7 1538.71 1349.7 1531.6 Q1349.7 1524.47 1347.87 1520.93 Q1346.06 1517.37 1342.43 1517.37 M1342.43 1513.66 Q1348.24 1513.66 1351.29 1518.27 Q1354.37 1522.85 1354.37 1531.6 Q1354.37 1540.33 1351.29 1544.94 Q1348.24 1549.52 1342.43 1549.52 Q1336.62 1549.52 1333.54 1544.94 Q1330.48 1540.33 1330.48 1531.6 Q1330.48 1522.85 1333.54 1518.27 Q1336.62 1513.66 1342.43 1513.66 Z" fill="#000000" fill-rule="evenodd" fill-opacity="1" /><path clip-path="url(#clip160)" d="M1362.59 1542.97 L1367.47 1542.97 L1367.47 1548.85 L1362.59 1548.85 L1362.59 1542.97 Z" fill="#000000" fill-rule="evenodd" fill-opacity="1" /><path clip-path="url(#clip160)" d="M1387.66 1517.37 Q1384.05 1517.37 1382.22 1520.93 Q1380.41 1524.47 1380.41 1531.6 Q1380.41 1538.71 1382.22 1542.27 Q1384.05 1545.82 1387.66 1545.82 Q1391.29 1545.82 1393.1 1542.27 Q1394.93 1538.71 1394.93 1531.6 Q1394.93 1524.47 1393.1 1520.93 Q1391.29 1517.37 1387.66 1517.37 M1387.66 1513.66 Q1393.47 1513.66 1396.52 1518.27 Q1399.6 1522.85 1399.6 1531.6 Q1399.6 1540.33 1396.52 1544.94 Q1393.47 1549.52 1387.66 1549.52 Q1381.85 1549.52 1378.77 1544.94 Q1375.71 1540.33 1375.71 1531.6 Q1375.71 1522.85 1378.77 1518.27 Q1381.85 1513.66 1387.66 1513.66 Z" fill="#000000" fill-rule="evenodd" fill-opacity="1" /><path clip-path="url(#clip160)" d="M1417.82 1517.37 Q1414.21 1517.37 1412.38 1520.93 Q1410.58 1524.47 1410.58 1531.6 Q1410.58 1538.71 1412.38 1542.27 Q1414.21 1545.82 1417.82 1545.82 Q1421.45 1545.82 1423.26 1542.27 Q1425.09 1538.71 1425.09 1531.6 Q1425.09 1524.47 1423.26 1520.93 Q1421.45 1517.37 1417.82 1517.37 M1417.82 1513.66 Q1423.63 1513.66 1426.69 1518.27 Q1429.77 1522.85 1429.77 1531.6 Q1429.77 1540.33 1426.69 1544.94 Q1423.63 1549.52 1417.82 1549.52 Q1412.01 1549.52 1408.93 1544.94 Q1405.88 1540.33 1405.88 1531.6 Q1405.88 1522.85 1408.93 1518.27 Q1412.01 1513.66 1417.82 1513.66 Z" fill="#000000" fill-rule="evenodd" fill-opacity="1" /><path clip-path="url(#clip160)" d="M1579 1517.37 Q1575.39 1517.37 1573.56 1520.93 Q1571.76 1524.47 1571.76 1531.6 Q1571.76 1538.71 1573.56 1542.27 Q1575.39 1545.82 1579 1545.82 Q1582.64 1545.82 1584.44 1542.27 Q1586.27 1538.71 1586.27 1531.6 Q1586.27 1524.47 1584.44 1520.93 Q1582.64 1517.37 1579 1517.37 M1579 1513.66 Q1584.81 1513.66 1587.87 1518.27 Q1590.95 1522.85 1590.95 1531.6 Q1590.95 1540.33 1587.87 1544.94 Q1584.81 1549.52 1579 1549.52 Q1573.19 1549.52 1570.11 1544.94 Q1567.06 1540.33 1567.06 1531.6 Q1567.06 1522.85 1570.11 1518.27 Q1573.19 1513.66 1579 1513.66 Z" fill="#000000" fill-rule="evenodd" fill-opacity="1" /><path clip-path="url(#clip160)" d="M1599.16 1542.97 L1604.05 1542.97 L1604.05 1548.85 L1599.16 1548.85 L1599.16 1542.97 Z" fill="#000000" fill-rule="evenodd" fill-opacity="1" /><path clip-path="url(#clip160)" d="M1618.26 1544.91 L1634.58 1544.91 L1634.58 1548.85 L1612.63 1548.85 L1612.63 1544.91 Q1615.3 1542.16 1619.88 1537.53 Q1624.49 1532.88 1625.67 1531.53 Q1627.91 1529.01 1628.79 1527.27 Q1629.7 1525.51 1629.7 1523.82 Q1629.7 1521.07 1627.75 1519.33 Q1625.83 1517.6 1622.73 1517.6 Q1620.53 1517.6 1618.07 1518.36 Q1615.64 1519.13 1612.87 1520.68 L1612.87 1515.95 Q1615.69 1514.82 1618.14 1514.24 Q1620.6 1513.66 1622.63 1513.66 Q1628.01 1513.66 1631.2 1516.35 Q1634.39 1519.03 1634.39 1523.52 Q1634.39 1525.65 1633.58 1527.57 Q1632.8 1529.47 1630.69 1532.07 Q1630.11 1532.74 1627.01 1535.95 Q1623.91 1539.15 1618.26 1544.91 Z" fill="#000000" fill-rule="evenodd" fill-opacity="1" /><path clip-path="url(#clip160)" d="M1644.44 1514.29 L1662.8 1514.29 L1662.8 1518.22 L1648.72 1518.22 L1648.72 1526.7 Q1649.74 1526.35 1650.76 1526.19 Q1651.78 1526 1652.8 1526 Q1658.58 1526 1661.96 1529.17 Q1665.34 1532.34 1665.34 1537.76 Q1665.34 1543.34 1661.87 1546.44 Q1658.4 1549.52 1652.08 1549.52 Q1649.9 1549.52 1647.63 1549.15 Q1645.39 1548.78 1642.98 1548.04 L1642.98 1543.34 Q1645.07 1544.47 1647.29 1545.03 Q1649.51 1545.58 1651.99 1545.58 Q1655.99 1545.58 1658.33 1543.48 Q1660.67 1541.37 1660.67 1537.76 Q1660.67 1534.15 1658.33 1532.04 Q1655.99 1529.94 1651.99 1529.94 Q1650.11 1529.94 1648.24 1530.35 Q1646.38 1530.77 1644.44 1531.65 L1644.44 1514.29 Z" fill="#000000" fill-rule="evenodd" fill-opacity="1" /><path clip-path="url(#clip160)" d="M1814.58 1517.37 Q1810.97 1517.37 1809.14 1520.93 Q1807.33 1524.47 1807.33 1531.6 Q1807.33 1538.71 1809.14 1542.27 Q1810.97 1545.82 1814.58 1545.82 Q1818.21 1545.82 1820.02 1542.27 Q1821.85 1538.71 1821.85 1531.6 Q1821.85 1524.47 1820.02 1520.93 Q1818.21 1517.37 1814.58 1517.37 M1814.58 1513.66 Q1820.39 1513.66 1823.44 1518.27 Q1826.52 1522.85 1826.52 1531.6 Q1826.52 1540.33 1823.44 1544.94 Q1820.39 1549.52 1814.58 1549.52 Q1808.77 1549.52 1805.69 1544.94 Q1802.63 1540.33 1802.63 1531.6 Q1802.63 1522.85 1805.69 1518.27 Q1808.77 1513.66 1814.58 1513.66 Z" fill="#000000" fill-rule="evenodd" fill-opacity="1" /><path clip-path="url(#clip160)" d="M1834.74 1542.97 L1839.63 1542.97 L1839.63 1548.85 L1834.74 1548.85 L1834.74 1542.97 Z" fill="#000000" fill-rule="evenodd" fill-opacity="1" /><path clip-path="url(#clip160)" d="M1849.86 1514.29 L1868.21 1514.29 L1868.21 1518.22 L1854.14 1518.22 L1854.14 1526.7 Q1855.16 1526.35 1856.18 1526.19 Q1857.19 1526 1858.21 1526 Q1864 1526 1867.38 1529.17 Q1870.76 1532.34 1870.76 1537.76 Q1870.76 1543.34 1867.29 1546.44 Q1863.81 1549.52 1857.5 1549.52 Q1855.32 1549.52 1853.05 1549.15 Q1850.81 1548.78 1848.4 1548.04 L1848.4 1543.34 Q1850.48 1544.47 1852.7 1545.03 Q1854.93 1545.58 1857.4 1545.58 Q1861.41 1545.58 1863.75 1543.48 Q1866.08 1541.37 1866.08 1537.76 Q1866.08 1534.15 1863.75 1532.04 Q1861.41 1529.94 1857.4 1529.94 Q1855.53 1529.94 1853.65 1530.35 Q1851.8 1530.77 1849.86 1531.65 L1849.86 1514.29 Z" fill="#000000" fill-rule="evenodd" fill-opacity="1" /><path clip-path="url(#clip160)" d="M1889.97 1517.37 Q1886.36 1517.37 1884.53 1520.93 Q1882.73 1524.47 1882.73 1531.6 Q1882.73 1538.71 1884.53 1542.27 Q1886.36 1545.82 1889.97 1545.82 Q1893.61 1545.82 1895.41 1542.27 Q1897.24 1538.71 1897.24 1531.6 Q1897.24 1524.47 1895.41 1520.93 Q1893.61 1517.37 1889.97 1517.37 M1889.97 1513.66 Q1895.78 1513.66 1898.84 1518.27 Q1901.92 1522.85 1901.92 1531.6 Q1901.92 1540.33 1898.84 1544.94 Q1895.78 1549.52 1889.97 1549.52 Q1884.16 1549.52 1881.08 1544.94 Q1878.03 1540.33 1878.03 1531.6 Q1878.03 1522.85 1881.08 1518.27 Q1884.16 1513.66 1889.97 1513.66 Z" fill="#000000" fill-rule="evenodd" fill-opacity="1" /><path clip-path="url(#clip160)" d="M2051.15 1517.37 Q2047.54 1517.37 2045.71 1520.93 Q2043.91 1524.47 2043.91 1531.6 Q2043.91 1538.71 2045.71 1542.27 Q2047.54 1545.82 2051.15 1545.82 Q2054.79 1545.82 2056.59 1542.27 Q2058.42 1538.71 2058.42 1531.6 Q2058.42 1524.47 2056.59 1520.93 Q2054.79 1517.37 2051.15 1517.37 M2051.15 1513.66 Q2056.96 1513.66 2060.02 1518.27 Q2063.1 1522.85 2063.1 1531.6 Q2063.1 1540.33 2060.02 1544.94 Q2056.96 1549.52 2051.15 1549.52 Q2045.34 1549.52 2042.26 1544.94 Q2039.21 1540.33 2039.21 1531.6 Q2039.21 1522.85 2042.26 1518.27 Q2045.34 1513.66 2051.15 1513.66 Z" fill="#000000" fill-rule="evenodd" fill-opacity="1" /><path clip-path="url(#clip160)" d="M2071.31 1542.97 L2076.2 1542.97 L2076.2 1548.85 L2071.31 1548.85 L2071.31 1542.97 Z" fill="#000000" fill-rule="evenodd" fill-opacity="1" /><path clip-path="url(#clip160)" d="M2085.2 1514.29 L2107.43 1514.29 L2107.43 1516.28 L2094.88 1548.85 L2089.99 1548.85 L2101.8 1518.22 L2085.2 1518.22 L2085.2 1514.29 Z" fill="#000000" fill-rule="evenodd" fill-opacity="1" /><path clip-path="url(#clip160)" d="M2116.59 1514.29 L2134.95 1514.29 L2134.95 1518.22 L2120.87 1518.22 L2120.87 1526.7 Q2121.89 1526.35 2122.91 1526.19 Q2123.93 1526 2124.95 1526 Q2130.74 1526 2134.11 1529.17 Q2137.49 1532.34 2137.49 1537.76 Q2137.49 1543.34 2134.02 1546.44 Q2130.55 1549.52 2124.23 1549.52 Q2122.05 1549.52 2119.79 1549.15 Q2117.54 1548.78 2115.13 1548.04 L2115.13 1543.34 Q2117.22 1544.47 2119.44 1545.03 Q2121.66 1545.58 2124.14 1545.58 Q2128.14 1545.58 2130.48 1543.48 Q2132.82 1541.37 2132.82 1537.76 Q2132.82 1534.15 2130.48 1532.04 Q2128.14 1529.94 2124.14 1529.94 Q2122.26 1529.94 2120.39 1530.35 Q2118.54 1530.77 2116.59 1531.65 L2116.59 1514.29 Z" fill="#000000" fill-rule="evenodd" fill-opacity="1" /><path clip-path="url(#clip160)" d="M2276.5 1544.91 L2284.14 1544.91 L2284.14 1518.55 L2275.83 1520.21 L2275.83 1515.95 L2284.09 1514.29 L2288.77 1514.29 L2288.77 1544.91 L2296.41 1544.91 L2296.41 1548.85 L2276.5 1548.85 L2276.5 1544.91 Z" fill="#000000" fill-rule="evenodd" fill-opacity="1" /><path clip-path="url(#clip160)" d="M2305.85 1542.97 L2310.73 1542.97 L2310.73 1548.85 L2305.85 1548.85 L2305.85 1542.97 Z" fill="#000000" fill-rule="evenodd" fill-opacity="1" /><path clip-path="url(#clip160)" d="M2330.92 1517.37 Q2327.31 1517.37 2325.48 1520.93 Q2323.67 1524.47 2323.67 1531.6 Q2323.67 1538.71 2325.48 1542.27 Q2327.31 1545.82 2330.92 1545.82 Q2334.55 1545.82 2336.36 1542.27 Q2338.19 1538.71 2338.19 1531.6 Q2338.19 1524.47 2336.36 1520.93 Q2334.55 1517.37 2330.92 1517.37 M2330.92 1513.66 Q2336.73 1513.66 2339.79 1518.27 Q2342.86 1522.85 2342.86 1531.6 Q2342.86 1540.33 2339.79 1544.94 Q2336.73 1549.52 2330.92 1549.52 Q2325.11 1549.52 2322.03 1544.94 Q2318.98 1540.33 2318.98 1531.6 Q2318.98 1522.85 2322.03 1518.27 Q2325.11 1513.66 2330.92 1513.66 Z" fill="#000000" fill-rule="evenodd" fill-opacity="1" /><path clip-path="url(#clip160)" d="M2361.08 1517.37 Q2357.47 1517.37 2355.64 1520.93 Q2353.84 1524.47 2353.84 1531.6 Q2353.84 1538.71 2355.64 1542.27 Q2357.47 1545.82 2361.08 1545.82 Q2364.72 1545.82 2366.52 1542.27 Q2368.35 1538.71 2368.35 1531.6 Q2368.35 1524.47 2366.52 1520.93 Q2364.72 1517.37 2361.08 1517.37 M2361.08 1513.66 Q2366.89 1513.66 2369.95 1518.27 Q2373.03 1522.85 2373.03 1531.6 Q2373.03 1540.33 2369.95 1544.94 Q2366.89 1549.52 2361.08 1549.52 Q2355.27 1549.52 2352.19 1544.94 Q2349.14 1540.33 2349.14 1531.6 Q2349.14 1522.85 2352.19 1518.27 Q2355.27 1513.66 2361.08 1513.66 Z" fill="#000000" fill-rule="evenodd" fill-opacity="1" /><polyline clip-path="url(#clip166)" style="stroke:#000000; stroke-linecap:butt; stroke-linejoin:round; stroke-width:2; stroke-opacity:0.1; fill:none" points="
  1351.8,1470.5 2352.76,1470.5 
  "/>
<polyline clip-path="url(#clip166)" style="stroke:#000000; stroke-linecap:butt; stroke-linejoin:round; stroke-width:2; stroke-opacity:0.1; fill:none" points="
  1351.8,1319.28 2352.76,1319.28 
  "/>
<polyline clip-path="url(#clip166)" style="stroke:#000000; stroke-linecap:butt; stroke-linejoin:round; stroke-width:2; stroke-opacity:0.1; fill:none" points="
  1351.8,1168.05 2352.76,1168.05 
  "/>
<polyline clip-path="url(#clip166)" style="stroke:#000000; stroke-linecap:butt; stroke-linejoin:round; stroke-width:2; stroke-opacity:0.1; fill:none" points="
  1351.8,1016.83 2352.76,1016.83 
  "/>
<polyline clip-path="url(#clip160)" style="stroke:#000000; stroke-linecap:butt; stroke-linejoin:round; stroke-width:4; stroke-opacity:1; fill:none" points="
  1351.8,1486.45 1351.8,923.472 
  "/>
<polyline clip-path="url(#clip160)" style="stroke:#000000; stroke-linecap:butt; stroke-linejoin:round; stroke-width:4; stroke-opacity:1; fill:none" points="
  1351.8,1470.5 1370.69,1470.5 
  "/>
<polyline clip-path="url(#clip160)" style="stroke:#000000; stroke-linecap:butt; stroke-linejoin:round; stroke-width:4; stroke-opacity:1; fill:none" points="
  1351.8,1319.28 1370.69,1319.28 
  "/>
<polyline clip-path="url(#clip160)" style="stroke:#000000; stroke-linecap:butt; stroke-linejoin:round; stroke-width:4; stroke-opacity:1; fill:none" points="
  1351.8,1168.05 1370.69,1168.05 
  "/>
<polyline clip-path="url(#clip160)" style="stroke:#000000; stroke-linecap:butt; stroke-linejoin:round; stroke-width:4; stroke-opacity:1; fill:none" points="
  1351.8,1016.83 1370.69,1016.83 
  "/>
<path clip-path="url(#clip160)" d="M1255.68 1470.96 L1285.36 1470.96 L1285.36 1474.89 L1255.68 1474.89 L1255.68 1470.96 Z" fill="#000000" fill-rule="evenodd" fill-opacity="1" /><path clip-path="url(#clip160)" d="M1299.48 1483.85 L1315.8 1483.85 L1315.8 1487.78 L1293.85 1487.78 L1293.85 1483.85 Q1296.51 1481.09 1301.1 1476.47 Q1305.7 1471.81 1306.88 1470.47 Q1309.13 1467.95 1310.01 1466.21 Q1310.91 1464.45 1310.91 1462.76 Q1310.91 1460.01 1308.97 1458.27 Q1307.05 1456.53 1303.94 1456.53 Q1301.74 1456.53 1299.29 1457.3 Q1296.86 1458.06 1294.08 1459.61 L1294.08 1454.89 Q1296.91 1453.76 1299.36 1453.18 Q1301.81 1452.6 1303.85 1452.6 Q1309.22 1452.6 1312.42 1455.28 Q1315.61 1457.97 1315.61 1462.46 Q1315.61 1464.59 1314.8 1466.51 Q1314.01 1468.41 1311.91 1471 Q1311.33 1471.67 1308.23 1474.89 Q1305.12 1478.09 1299.48 1483.85 Z" fill="#000000" fill-rule="evenodd" fill-opacity="1" /><path clip-path="url(#clip160)" d="M1255.31 1319.73 L1284.98 1319.73 L1284.98 1323.67 L1255.31 1323.67 L1255.31 1319.73 Z" fill="#000000" fill-rule="evenodd" fill-opacity="1" /><path clip-path="url(#clip160)" d="M1295.89 1332.62 L1303.53 1332.62 L1303.53 1306.26 L1295.22 1307.93 L1295.22 1303.67 L1303.48 1302 L1308.16 1302 L1308.16 1332.62 L1315.8 1332.62 L1315.8 1336.56 L1295.89 1336.56 L1295.89 1332.62 Z" fill="#000000" fill-rule="evenodd" fill-opacity="1" /><path clip-path="url(#clip160)" d="M1303.85 1153.85 Q1300.24 1153.85 1298.41 1157.42 Q1296.61 1160.96 1296.61 1168.09 Q1296.61 1175.2 1298.41 1178.76 Q1300.24 1182.3 1303.85 1182.3 Q1307.48 1182.3 1309.29 1178.76 Q1311.12 1175.2 1311.12 1168.09 Q1311.12 1160.96 1309.29 1157.42 Q1307.48 1153.85 1303.85 1153.85 M1303.85 1150.15 Q1309.66 1150.15 1312.72 1154.76 Q1315.8 1159.34 1315.8 1168.09 Q1315.8 1176.82 1312.72 1181.42 Q1309.66 1186.01 1303.85 1186.01 Q1298.04 1186.01 1294.96 1181.42 Q1291.91 1176.82 1291.91 1168.09 Q1291.91 1159.34 1294.96 1154.76 Q1298.04 1150.15 1303.85 1150.15 Z" fill="#000000" fill-rule="evenodd" fill-opacity="1" /><path clip-path="url(#clip160)" d="M1295.89 1030.17 L1303.53 1030.17 L1303.53 1003.81 L1295.22 1005.47 L1295.22 1001.22 L1303.48 999.549 L1308.16 999.549 L1308.16 1030.17 L1315.8 1030.17 L1315.8 1034.11 L1295.89 1034.11 L1295.89 1030.17 Z" fill="#000000" fill-rule="evenodd" fill-opacity="1" /><path clip-path="url(#clip160)" d="M1858.47 832.295 Q1858.47 835.451 1856.75 842.419 Q1855.03 849.388 1852.94 854.142 Q1848.47 864.472 1840.77 864.472 Q1839.82 864.472 1838.88 864.39 Q1837.98 864.308 1836.63 863.939 Q1835.27 863.57 1834.17 862.996 Q1833.06 862.381 1831.95 861.233 Q1830.89 860.086 1830.27 858.569 Q1826.87 864.472 1821.54 864.472 Q1816.38 864.472 1812.97 861.848 Q1809.61 859.225 1809.61 853.855 Q1809.61 851.437 1810.6 847.871 Q1811.58 844.305 1814.33 836.927 Q1815.84 833.115 1815.84 831.024 Q1815.84 830.082 1815.64 829.467 Q1815.43 828.852 1815.02 828.647 Q1814.66 828.401 1814.41 828.36 Q1814.16 828.278 1813.75 828.278 Q1811.29 828.278 1809.08 830.778 Q1806.87 833.238 1805.27 838.689 Q1804.94 839.714 1804.74 839.96 Q1804.53 840.206 1803.92 840.206 Q1802.89 840.165 1802.89 839.345 Q1802.89 839.017 1803.26 837.747 Q1803.63 836.435 1804.49 834.508 Q1805.39 832.541 1806.62 830.778 Q1807.85 828.975 1809.78 827.704 Q1811.74 826.434 1814 826.434 Q1817.03 826.434 1818.96 828.442 Q1820.89 830.45 1820.89 833.32 Q1820.89 834.14 1820.68 835.041 Q1820.48 835.902 1820.27 836.476 Q1820.11 837.009 1819.45 838.689 Q1816.75 845.78 1815.88 849.183 Q1815.07 852.585 1815.07 854.962 Q1815.07 855.741 1815.11 856.356 Q1815.15 856.971 1815.47 858.241 Q1815.84 859.512 1816.5 860.373 Q1817.16 861.192 1818.51 861.889 Q1819.9 862.586 1821.79 862.586 Q1826.5 862.586 1829.53 855.536 Q1829.45 855.126 1829.45 854.06 Q1829.45 851.683 1830.19 848.486 Q1830.4 847.748 1831.58 843.034 Q1832.77 838.279 1833.8 834.14 Q1834.86 829.959 1834.99 829.713 Q1835.4 828.565 1836.3 827.95 Q1837.2 827.335 1838.1 827.335 Q1839.13 827.335 1839.82 827.95 Q1840.52 828.565 1840.52 829.631 Q1840.52 829.836 1840.27 830.778 Q1840.07 831.68 1839.74 833.033 Q1839.41 834.385 1839.25 835.082 L1835.72 849.183 Q1834.82 852.462 1834.82 855.29 Q1834.82 858.856 1836.42 860.742 Q1838.02 862.586 1841.01 862.586 Q1846.63 862.586 1850.23 855.208 Q1851.87 852.011 1853.35 847.01 Q1854.87 842.009 1854.87 839.837 Q1854.87 835.738 1851.83 832.705 Q1851.18 832.131 1850.89 831.68 Q1850.6 831.188 1850.6 830.45 Q1850.6 829.057 1851.91 827.745 Q1853.23 826.434 1854.78 826.434 Q1856.18 826.434 1857.33 827.827 Q1858.47 829.18 1858.47 832.295 Z" fill="#000000" fill-rule="evenodd" fill-opacity="1" /><path clip-path="url(#clip160)" d="M1866.9 878.419 L1866.9 876.612 L1884.95 849.038 Q1885.4 848.321 1886.12 848.35 Q1886.78 848.35 1886.93 848.608 Q1887.07 848.866 1887.07 849.87 L1887.07 876.612 L1892.95 876.612 L1892.95 878.419 L1887.07 878.419 L1887.07 883.527 Q1887.07 885.22 1887.76 885.765 Q1888.47 886.31 1891.52 886.31 L1892.75 886.31 L1892.75 888.118 Q1890.34 887.945 1884.77 887.945 Q1879.24 887.945 1876.83 888.118 L1876.83 886.31 L1878.06 886.31 Q1881.1 886.31 1881.82 885.793 Q1882.54 885.248 1882.54 883.527 L1882.54 878.419 L1866.9 878.419 M1868.56 876.612 L1882.88 876.612 L1882.88 854.691 L1868.56 876.612 Z" fill="#000000" fill-rule="evenodd" fill-opacity="1" /><polyline clip-path="url(#clip166)" style="stroke:#0000ff; stroke-linecap:butt; stroke-linejoin:round; stroke-width:8; stroke-opacity:1; fill:none" points="
  1380.12,1168.05 1381.66,1168.01 1383.2,1167.86 1384.74,1167.63 1386.27,1167.3 1389.82,1166.2 1393.38,1164.64 1396.93,1162.64 1400.48,1160.23 1404.04,1157.42 
  1407.59,1154.24 1411.14,1150.7 1414.7,1146.83 1421.8,1138.2 1428.91,1128.49 1436.01,1117.87 1443.12,1106.52 1460.2,1077.2 1477.28,1046.76 1484.5,1034.05 
  1491.72,1021.66 1498.94,1009.72 1506.16,998.358 1514.01,986.824 1521.85,976.269 1529.7,966.829 1537.54,958.625 1544.77,952.248 1552,947.086 1559.23,943.2 
  1566.47,940.641 1570.34,939.83 1574.22,939.417 1578.1,939.405 1581.97,939.798 1585.85,940.597 1589.73,941.804 1593.6,943.417 1597.48,945.437 1601.97,948.284 
  1606.46,951.668 1610.95,955.586 1615.44,960.028 1619.93,964.986 1624.43,970.449 1628.92,976.404 1633.41,982.838 1641.39,995.406 1649.37,1009.34 1657.36,1024.53 
  1665.34,1040.86 1672.34,1056.01 1679.34,1071.84 1686.34,1088.25 1693.34,1105.13 1708.6,1143.06 1723.87,1181.58 1739.22,1219.73 1754.57,1256.09 1758.82,1265.67 
  1763.06,1275.01 1767.31,1284.08 1771.55,1292.86 1780.04,1309.46 1788.53,1324.65 1792.57,1331.35 1796.6,1337.68 1800.64,1343.63 1804.68,1349.19 1808.72,1354.35 
  1812.76,1359.09 1816.79,1363.4 1820.83,1367.28 1825.03,1370.85 1829.23,1373.93 1833.43,1376.52 1837.63,1378.61 1841.83,1380.19 1846.02,1381.27 1850.22,1381.83 
  1854.42,1381.89 1861.49,1380.82 1868.56,1378.32 1875.63,1374.4 1882.7,1369.09 1887.01,1365.18 1891.33,1360.77 1895.64,1355.88 1899.96,1350.52 1904.27,1344.7 
  1908.59,1338.44 1912.9,1331.75 1917.22,1324.66 1925.12,1310.66 1933.03,1295.48 1936.98,1287.48 1940.94,1279.24 1944.89,1270.76 1948.84,1262.08 1963.45,1228.49 
  1978.05,1193.27 1992.84,1157.01 2007.63,1121.26 2015.92,1101.86 2024.21,1083.15 2032.5,1065.32 2040.79,1048.53 2048.3,1034.37 2055.81,1021.31 2063.33,1009.48 
  2070.84,998.977 2075.14,993.593 2079.44,988.687 2083.74,984.274 2088.04,980.368 2092.34,976.98 2096.64,974.122 2100.94,971.803 2105.24,970.032 2109.22,968.887 
  2113.2,968.223 2117.18,968.044 2121.16,968.353 2125.14,969.152 2129.13,970.442 2133.11,972.223 2137.09,974.495 2141.01,977.214 2144.94,980.406 2148.86,984.069 
  2152.79,988.197 2156.72,992.786 2160.64,997.831 2164.57,1003.33 2168.49,1009.26 2172.3,1015.44 2176.11,1022.02 2179.92,1029 2183.74,1036.36 2191.36,1052.19 
  2198.98,1069.44 2206.79,1088.51 2214.61,1108.86 2222.42,1130.41 2230.23,1153.03 2238.8,1178.91 2247.36,1205.79 2255.92,1233.52 2264.48,1261.96 2276.91,1304.23 
  2289.35,1347.3 2301.79,1390.83 2314.22,1434.58 2316.77,1443.56 2319.32,1452.54 2321.88,1461.53 2324.43,1470.51 
  "/>
</svg>
