<?xml version="1.0" encoding="utf-8"?>
<svg xmlns="http://www.w3.org/2000/svg" xmlns:xlink="http://www.w3.org/1999/xlink" width="600" height="400" viewBox="0 0 2400 1600">
<defs>
  <clipPath id="clip780">
    <rect x="0" y="0" width="2400" height="1600"/>
  </clipPath>
</defs>
<path clip-path="url(#clip780)" d="
M0 1600 L2400 1600 L2400 0 L0 0  Z
  " fill="#ffffff" fill-rule="evenodd" fill-opacity="1"/>
<defs>
  <clipPath id="clip781">
    <rect x="480" y="0" width="1681" height="1600"/>
  </clipPath>
</defs>
<path clip-path="url(#clip780)" d="
M156.112 726.448 L1157.07 726.448 L1157.07 203.472 L156.112 203.472  Z
  " fill="#ffffff" fill-rule="evenodd" fill-opacity="1"/>
<defs>
  <clipPath id="clip782">
    <rect x="156" y="203" width="1002" height="524"/>
  </clipPath>
</defs>
<polyline clip-path="url(#clip782)" style="stroke:#000000; stroke-linecap:butt; stroke-linejoin:round; stroke-width:2; stroke-opacity:0.1; fill:none" points="
  184.441,726.448 184.441,203.472 
  "/>
<polyline clip-path="url(#clip782)" style="stroke:#000000; stroke-linecap:butt; stroke-linejoin:round; stroke-width:2; stroke-opacity:0.1; fill:none" points="
  420.517,726.448 420.517,203.472 
  "/>
<polyline clip-path="url(#clip782)" style="stroke:#000000; stroke-linecap:butt; stroke-linejoin:round; stroke-width:2; stroke-opacity:0.1; fill:none" points="
  656.593,726.448 656.593,203.472 
  "/>
<polyline clip-path="url(#clip782)" style="stroke:#000000; stroke-linecap:butt; stroke-linejoin:round; stroke-width:2; stroke-opacity:0.1; fill:none" points="
  892.668,726.448 892.668,203.472 
  "/>
<polyline clip-path="url(#clip782)" style="stroke:#000000; stroke-linecap:butt; stroke-linejoin:round; stroke-width:2; stroke-opacity:0.1; fill:none" points="
  1128.74,726.448 1128.74,203.472 
  "/>
<polyline clip-path="url(#clip780)" style="stroke:#000000; stroke-linecap:butt; stroke-linejoin:round; stroke-width:4; stroke-opacity:1; fill:none" points="
  156.112,726.448 1157.07,726.448 
  "/>
<polyline clip-path="url(#clip780)" style="stroke:#000000; stroke-linecap:butt; stroke-linejoin:round; stroke-width:4; stroke-opacity:1; fill:none" points="
  184.441,726.448 184.441,707.55 
  "/>
<polyline clip-path="url(#clip780)" style="stroke:#000000; stroke-linecap:butt; stroke-linejoin:round; stroke-width:4; stroke-opacity:1; fill:none" points="
  420.517,726.448 420.517,707.55 
  "/>
<polyline clip-path="url(#clip780)" style="stroke:#000000; stroke-linecap:butt; stroke-linejoin:round; stroke-width:4; stroke-opacity:1; fill:none" points="
  656.593,726.448 656.593,707.55 
  "/>
<polyline clip-path="url(#clip780)" style="stroke:#000000; stroke-linecap:butt; stroke-linejoin:round; stroke-width:4; stroke-opacity:1; fill:none" points="
  892.668,726.448 892.668,707.55 
  "/>
<polyline clip-path="url(#clip780)" style="stroke:#000000; stroke-linecap:butt; stroke-linejoin:round; stroke-width:4; stroke-opacity:1; fill:none" points="
  1128.74,726.448 1128.74,707.55 
  "/>
<path clip-path="url(#clip780)" d="M146.745 757.367 Q143.134 757.367 141.305 760.931 Q139.499 764.473 139.499 771.603 Q139.499 778.709 141.305 782.274 Q143.134 785.815 146.745 785.815 Q150.379 785.815 152.184 782.274 Q154.013 778.709 154.013 771.603 Q154.013 764.473 152.184 760.931 Q150.379 757.367 146.745 757.367 M146.745 753.663 Q152.555 753.663 155.61 758.269 Q158.689 762.853 158.689 771.603 Q158.689 780.329 155.61 784.936 Q152.555 789.519 146.745 789.519 Q140.934 789.519 137.856 784.936 Q134.8 780.329 134.8 771.603 Q134.8 762.853 137.856 758.269 Q140.934 753.663 146.745 753.663 Z" fill="#000000" fill-rule="evenodd" fill-opacity="1" /><path clip-path="url(#clip780)" d="M166.907 782.968 L171.791 782.968 L171.791 788.848 L166.907 788.848 L166.907 782.968 Z" fill="#000000" fill-rule="evenodd" fill-opacity="1" /><path clip-path="url(#clip780)" d="M191.976 757.367 Q188.365 757.367 186.536 760.931 Q184.731 764.473 184.731 771.603 Q184.731 778.709 186.536 782.274 Q188.365 785.815 191.976 785.815 Q195.61 785.815 197.416 782.274 Q199.244 778.709 199.244 771.603 Q199.244 764.473 197.416 760.931 Q195.61 757.367 191.976 757.367 M191.976 753.663 Q197.786 753.663 200.842 758.269 Q203.92 762.853 203.92 771.603 Q203.92 780.329 200.842 784.936 Q197.786 789.519 191.976 789.519 Q186.166 789.519 183.087 784.936 Q180.032 780.329 180.032 771.603 Q180.032 762.853 183.087 758.269 Q186.166 753.663 191.976 753.663 Z" fill="#000000" fill-rule="evenodd" fill-opacity="1" /><path clip-path="url(#clip780)" d="M222.138 757.367 Q218.527 757.367 216.698 760.931 Q214.892 764.473 214.892 771.603 Q214.892 778.709 216.698 782.274 Q218.527 785.815 222.138 785.815 Q225.772 785.815 227.578 782.274 Q229.406 778.709 229.406 771.603 Q229.406 764.473 227.578 760.931 Q225.772 757.367 222.138 757.367 M222.138 753.663 Q227.948 753.663 231.003 758.269 Q234.082 762.853 234.082 771.603 Q234.082 780.329 231.003 784.936 Q227.948 789.519 222.138 789.519 Q216.328 789.519 213.249 784.936 Q210.193 780.329 210.193 771.603 Q210.193 762.853 213.249 758.269 Q216.328 753.663 222.138 753.663 Z" fill="#000000" fill-rule="evenodd" fill-opacity="1" /><path clip-path="url(#clip780)" d="M383.318 757.367 Q379.707 757.367 377.878 760.931 Q376.073 764.473 376.073 771.603 Q376.073 778.709 377.878 782.274 Q379.707 785.815 383.318 785.815 Q386.952 785.815 388.758 782.274 Q390.586 778.709 390.586 771.603 Q390.586 764.473 388.758 760.931 Q386.952 757.367 383.318 757.367 M383.318 753.663 Q389.128 753.663 392.184 758.269 Q395.262 762.853 395.262 771.603 Q395.262 780.329 392.184 784.936 Q389.128 789.519 383.318 789.519 Q377.508 789.519 374.429 784.936 Q371.374 780.329 371.374 771.603 Q371.374 762.853 374.429 758.269 Q377.508 753.663 383.318 753.663 Z" fill="#000000" fill-rule="evenodd" fill-opacity="1" /><path clip-path="url(#clip780)" d="M403.48 782.968 L408.364 782.968 L408.364 788.848 L403.48 788.848 L403.48 782.968 Z" fill="#000000" fill-rule="evenodd" fill-opacity="1" /><path clip-path="url(#clip780)" d="M422.577 784.913 L438.896 784.913 L438.896 788.848 L416.952 788.848 L416.952 784.913 Q419.614 782.158 424.197 777.528 Q428.804 772.876 429.984 771.533 Q432.23 769.01 433.109 767.274 Q434.012 765.515 434.012 763.825 Q434.012 761.07 432.068 759.334 Q430.146 757.598 427.045 757.598 Q424.846 757.598 422.392 758.362 Q419.961 759.126 417.184 760.677 L417.184 755.955 Q420.008 754.82 422.461 754.242 Q424.915 753.663 426.952 753.663 Q432.322 753.663 435.517 756.348 Q438.711 759.033 438.711 763.524 Q438.711 765.654 437.901 767.575 Q437.114 769.473 435.008 772.066 Q434.429 772.737 431.327 775.954 Q428.225 779.149 422.577 784.913 Z" fill="#000000" fill-rule="evenodd" fill-opacity="1" /><path clip-path="url(#clip780)" d="M448.757 754.288 L467.114 754.288 L467.114 758.223 L453.04 758.223 L453.04 766.695 Q454.058 766.348 455.077 766.186 Q456.095 766.001 457.114 766.001 Q462.901 766.001 466.281 769.172 Q469.66 772.343 469.66 777.76 Q469.66 783.339 466.188 786.44 Q462.716 789.519 456.396 789.519 Q454.22 789.519 451.952 789.149 Q449.707 788.778 447.299 788.038 L447.299 783.339 Q449.382 784.473 451.605 785.028 Q453.827 785.584 456.304 785.584 Q460.308 785.584 462.646 783.478 Q464.984 781.371 464.984 777.76 Q464.984 774.149 462.646 772.042 Q460.308 769.936 456.304 769.936 Q454.429 769.936 452.554 770.353 Q450.702 770.769 448.757 771.649 L448.757 754.288 Z" fill="#000000" fill-rule="evenodd" fill-opacity="1" /><path clip-path="url(#clip780)" d="M618.896 757.367 Q615.285 757.367 613.456 760.931 Q611.651 764.473 611.651 771.603 Q611.651 778.709 613.456 782.274 Q615.285 785.815 618.896 785.815 Q622.53 785.815 624.336 782.274 Q626.164 778.709 626.164 771.603 Q626.164 764.473 624.336 760.931 Q622.53 757.367 618.896 757.367 M618.896 753.663 Q624.706 753.663 627.762 758.269 Q630.84 762.853 630.84 771.603 Q630.84 780.329 627.762 784.936 Q624.706 789.519 618.896 789.519 Q613.086 789.519 610.007 784.936 Q606.952 780.329 606.952 771.603 Q606.952 762.853 610.007 758.269 Q613.086 753.663 618.896 753.663 Z" fill="#000000" fill-rule="evenodd" fill-opacity="1" /><path clip-path="url(#clip780)" d="M639.058 782.968 L643.942 782.968 L643.942 788.848 L639.058 788.848 L639.058 782.968 Z" fill="#000000" fill-rule="evenodd" fill-opacity="1" /><path clip-path="url(#clip780)" d="M654.174 754.288 L672.53 754.288 L672.53 758.223 L658.456 758.223 L658.456 766.695 Q659.474 766.348 660.493 766.186 Q661.512 766.001 662.53 766.001 Q668.317 766.001 671.697 769.172 Q675.076 772.343 675.076 777.76 Q675.076 783.339 671.604 786.44 Q668.132 789.519 661.812 789.519 Q659.637 789.519 657.368 789.149 Q655.123 788.778 652.715 788.038 L652.715 783.339 Q654.799 784.473 657.021 785.028 Q659.243 785.584 661.72 785.584 Q665.724 785.584 668.062 783.478 Q670.4 781.371 670.4 777.76 Q670.4 774.149 668.062 772.042 Q665.724 769.936 661.72 769.936 Q659.845 769.936 657.97 770.353 Q656.118 770.769 654.174 771.649 L654.174 754.288 Z" fill="#000000" fill-rule="evenodd" fill-opacity="1" /><path clip-path="url(#clip780)" d="M694.289 757.367 Q690.678 757.367 688.849 760.931 Q687.044 764.473 687.044 771.603 Q687.044 778.709 688.849 782.274 Q690.678 785.815 694.289 785.815 Q697.923 785.815 699.729 782.274 Q701.558 778.709 701.558 771.603 Q701.558 764.473 699.729 760.931 Q697.923 757.367 694.289 757.367 M694.289 753.663 Q700.099 753.663 703.155 758.269 Q706.234 762.853 706.234 771.603 Q706.234 780.329 703.155 784.936 Q700.099 789.519 694.289 789.519 Q688.479 789.519 685.4 784.936 Q682.345 780.329 682.345 771.603 Q682.345 762.853 685.4 758.269 Q688.479 753.663 694.289 753.663 Z" fill="#000000" fill-rule="evenodd" fill-opacity="1" /><path clip-path="url(#clip780)" d="M855.469 757.367 Q851.858 757.367 850.03 760.931 Q848.224 764.473 848.224 771.603 Q848.224 778.709 850.03 782.274 Q851.858 785.815 855.469 785.815 Q859.104 785.815 860.909 782.274 Q862.738 778.709 862.738 771.603 Q862.738 764.473 860.909 760.931 Q859.104 757.367 855.469 757.367 M855.469 753.663 Q861.28 753.663 864.335 758.269 Q867.414 762.853 867.414 771.603 Q867.414 780.329 864.335 784.936 Q861.28 789.519 855.469 789.519 Q849.659 789.519 846.581 784.936 Q843.525 780.329 843.525 771.603 Q843.525 762.853 846.581 758.269 Q849.659 753.663 855.469 753.663 Z" fill="#000000" fill-rule="evenodd" fill-opacity="1" /><path clip-path="url(#clip780)" d="M875.631 782.968 L880.516 782.968 L880.516 788.848 L875.631 788.848 L875.631 782.968 Z" fill="#000000" fill-rule="evenodd" fill-opacity="1" /><path clip-path="url(#clip780)" d="M889.52 754.288 L911.742 754.288 L911.742 756.279 L899.196 788.848 L894.312 788.848 L906.117 758.223 L889.52 758.223 L889.52 754.288 Z" fill="#000000" fill-rule="evenodd" fill-opacity="1" /><path clip-path="url(#clip780)" d="M920.909 754.288 L939.265 754.288 L939.265 758.223 L925.191 758.223 L925.191 766.695 Q926.21 766.348 927.228 766.186 Q928.247 766.001 929.265 766.001 Q935.052 766.001 938.432 769.172 Q941.812 772.343 941.812 777.76 Q941.812 783.339 938.339 786.44 Q934.867 789.519 928.548 789.519 Q926.372 789.519 924.103 789.149 Q921.858 788.778 919.451 788.038 L919.451 783.339 Q921.534 784.473 923.756 785.028 Q925.978 785.584 928.455 785.584 Q932.46 785.584 934.798 783.478 Q937.136 781.371 937.136 777.76 Q937.136 774.149 934.798 772.042 Q932.46 769.936 928.455 769.936 Q926.58 769.936 924.705 770.353 Q922.853 770.769 920.909 771.649 L920.909 754.288 Z" fill="#000000" fill-rule="evenodd" fill-opacity="1" /><path clip-path="url(#clip780)" d="M1080.82 784.913 L1088.45 784.913 L1088.45 758.547 L1080.14 760.214 L1080.14 755.955 L1088.41 754.288 L1093.08 754.288 L1093.08 784.913 L1100.72 784.913 L1100.72 788.848 L1080.82 788.848 L1080.82 784.913 Z" fill="#000000" fill-rule="evenodd" fill-opacity="1" /><path clip-path="url(#clip780)" d="M1110.17 782.968 L1115.05 782.968 L1115.05 788.848 L1110.17 788.848 L1110.17 782.968 Z" fill="#000000" fill-rule="evenodd" fill-opacity="1" /><path clip-path="url(#clip780)" d="M1135.24 757.367 Q1131.63 757.367 1129.8 760.931 Q1127.99 764.473 1127.99 771.603 Q1127.99 778.709 1129.8 782.274 Q1131.63 785.815 1135.24 785.815 Q1138.87 785.815 1140.68 782.274 Q1142.51 778.709 1142.51 771.603 Q1142.51 764.473 1140.68 760.931 Q1138.87 757.367 1135.24 757.367 M1135.24 753.663 Q1141.05 753.663 1144.1 758.269 Q1147.18 762.853 1147.18 771.603 Q1147.18 780.329 1144.1 784.936 Q1141.05 789.519 1135.24 789.519 Q1129.43 789.519 1126.35 784.936 Q1123.29 780.329 1123.29 771.603 Q1123.29 762.853 1126.35 758.269 Q1129.43 753.663 1135.24 753.663 Z" fill="#000000" fill-rule="evenodd" fill-opacity="1" /><path clip-path="url(#clip780)" d="M1165.4 757.367 Q1161.79 757.367 1159.96 760.931 Q1158.15 764.473 1158.15 771.603 Q1158.15 778.709 1159.96 782.274 Q1161.79 785.815 1165.4 785.815 Q1169.03 785.815 1170.84 782.274 Q1172.67 778.709 1172.67 771.603 Q1172.67 764.473 1170.84 760.931 Q1169.03 757.367 1165.4 757.367 M1165.4 753.663 Q1171.21 753.663 1174.26 758.269 Q1177.34 762.853 1177.34 771.603 Q1177.34 780.329 1174.26 784.936 Q1171.21 789.519 1165.4 789.519 Q1159.59 789.519 1156.51 784.936 Q1153.45 780.329 1153.45 771.603 Q1153.45 762.853 1156.51 758.269 Q1159.59 753.663 1165.4 753.663 Z" fill="#000000" fill-rule="evenodd" fill-opacity="1" /><polyline clip-path="url(#clip782)" style="stroke:#000000; stroke-linecap:butt; stroke-linejoin:round; stroke-width:2; stroke-opacity:0.1; fill:none" points="
  156.112,711.647 1157.07,711.647 
  "/>
<polyline clip-path="url(#clip782)" style="stroke:#000000; stroke-linecap:butt; stroke-linejoin:round; stroke-width:2; stroke-opacity:0.1; fill:none" points="
  156.112,549.365 1157.07,549.365 
  "/>
<polyline clip-path="url(#clip782)" style="stroke:#000000; stroke-linecap:butt; stroke-linejoin:round; stroke-width:2; stroke-opacity:0.1; fill:none" points="
  156.112,387.084 1157.07,387.084 
  "/>
<polyline clip-path="url(#clip782)" style="stroke:#000000; stroke-linecap:butt; stroke-linejoin:round; stroke-width:2; stroke-opacity:0.1; fill:none" points="
  156.112,224.802 1157.07,224.802 
  "/>
<polyline clip-path="url(#clip780)" style="stroke:#000000; stroke-linecap:butt; stroke-linejoin:round; stroke-width:4; stroke-opacity:1; fill:none" points="
  156.112,726.448 156.112,203.472 
  "/>
<polyline clip-path="url(#clip780)" style="stroke:#000000; stroke-linecap:butt; stroke-linejoin:round; stroke-width:4; stroke-opacity:1; fill:none" points="
  156.112,711.647 175.01,711.647 
  "/>
<polyline clip-path="url(#clip780)" style="stroke:#000000; stroke-linecap:butt; stroke-linejoin:round; stroke-width:4; stroke-opacity:1; fill:none" points="
  156.112,549.365 175.01,549.365 
  "/>
<polyline clip-path="url(#clip780)" style="stroke:#000000; stroke-linecap:butt; stroke-linejoin:round; stroke-width:4; stroke-opacity:1; fill:none" points="
  156.112,387.084 175.01,387.084 
  "/>
<polyline clip-path="url(#clip780)" style="stroke:#000000; stroke-linecap:butt; stroke-linejoin:round; stroke-width:4; stroke-opacity:1; fill:none" points="
  156.112,224.802 175.01,224.802 
  "/>
<path clip-path="url(#clip780)" d="M62.9365 697.445 Q59.3254 697.445 57.4967 701.01 Q55.6912 704.552 55.6912 711.681 Q55.6912 718.788 57.4967 722.353 Q59.3254 725.894 62.9365 725.894 Q66.5707 725.894 68.3763 722.353 Q70.205 718.788 70.205 711.681 Q70.205 704.552 68.3763 701.01 Q66.5707 697.445 62.9365 697.445 M62.9365 693.742 Q68.7467 693.742 71.8022 698.348 Q74.8809 702.931 74.8809 711.681 Q74.8809 720.408 71.8022 725.015 Q68.7467 729.598 62.9365 729.598 Q57.1264 729.598 54.0477 725.015 Q50.9921 720.408 50.9921 711.681 Q50.9921 702.931 54.0477 698.348 Q57.1264 693.742 62.9365 693.742 Z" fill="#000000" fill-rule="evenodd" fill-opacity="1" /><path clip-path="url(#clip780)" d="M83.0984 723.047 L87.9827 723.047 L87.9827 728.927 L83.0984 728.927 L83.0984 723.047 Z" fill="#000000" fill-rule="evenodd" fill-opacity="1" /><path clip-path="url(#clip780)" d="M108.168 697.445 Q104.557 697.445 102.728 701.01 Q100.922 704.552 100.922 711.681 Q100.922 718.788 102.728 722.353 Q104.557 725.894 108.168 725.894 Q111.802 725.894 113.608 722.353 Q115.436 718.788 115.436 711.681 Q115.436 704.552 113.608 701.01 Q111.802 697.445 108.168 697.445 M108.168 693.742 Q113.978 693.742 117.033 698.348 Q120.112 702.931 120.112 711.681 Q120.112 720.408 117.033 725.015 Q113.978 729.598 108.168 729.598 Q102.358 729.598 99.2789 725.015 Q96.2234 720.408 96.2234 711.681 Q96.2234 702.931 99.2789 698.348 Q102.358 693.742 108.168 693.742 Z" fill="#000000" fill-rule="evenodd" fill-opacity="1" /><path clip-path="url(#clip780)" d="M63.9319 535.164 Q60.3208 535.164 58.4921 538.729 Q56.6865 542.27 56.6865 549.4 Q56.6865 556.506 58.4921 560.071 Q60.3208 563.613 63.9319 563.613 Q67.5661 563.613 69.3717 560.071 Q71.2004 556.506 71.2004 549.4 Q71.2004 542.27 69.3717 538.729 Q67.5661 535.164 63.9319 535.164 M63.9319 531.46 Q69.742 531.46 72.7976 536.067 Q75.8763 540.65 75.8763 549.4 Q75.8763 558.127 72.7976 562.733 Q69.742 567.316 63.9319 567.316 Q58.1217 567.316 55.043 562.733 Q51.9875 558.127 51.9875 549.4 Q51.9875 540.65 55.043 536.067 Q58.1217 531.46 63.9319 531.46 Z" fill="#000000" fill-rule="evenodd" fill-opacity="1" /><path clip-path="url(#clip780)" d="M84.0938 560.766 L88.978 560.766 L88.978 566.645 L84.0938 566.645 L84.0938 560.766 Z" fill="#000000" fill-rule="evenodd" fill-opacity="1" /><path clip-path="url(#clip780)" d="M99.2095 532.085 L117.566 532.085 L117.566 536.02 L103.492 536.02 L103.492 544.493 Q104.51 544.145 105.529 543.983 Q106.547 543.798 107.566 543.798 Q113.353 543.798 116.733 546.969 Q120.112 550.141 120.112 555.557 Q120.112 561.136 116.64 564.238 Q113.168 567.316 106.848 567.316 Q104.672 567.316 102.404 566.946 Q100.159 566.576 97.7511 565.835 L97.7511 561.136 Q99.8345 562.27 102.057 562.826 Q104.279 563.381 106.756 563.381 Q110.76 563.381 113.098 561.275 Q115.436 559.168 115.436 555.557 Q115.436 551.946 113.098 549.84 Q110.76 547.733 106.756 547.733 Q104.881 547.733 103.006 548.15 Q101.154 548.567 99.2095 549.446 L99.2095 532.085 Z" fill="#000000" fill-rule="evenodd" fill-opacity="1" /><path clip-path="url(#clip780)" d="M53.7467 400.429 L61.3856 400.429 L61.3856 374.063 L53.0754 375.73 L53.0754 371.47 L61.3393 369.804 L66.0152 369.804 L66.0152 400.429 L73.654 400.429 L73.654 404.364 L53.7467 404.364 L53.7467 400.429 Z" fill="#000000" fill-rule="evenodd" fill-opacity="1" /><path clip-path="url(#clip780)" d="M83.0984 398.484 L87.9827 398.484 L87.9827 404.364 L83.0984 404.364 L83.0984 398.484 Z" fill="#000000" fill-rule="evenodd" fill-opacity="1" /><path clip-path="url(#clip780)" d="M108.168 372.882 Q104.557 372.882 102.728 376.447 Q100.922 379.989 100.922 387.118 Q100.922 394.225 102.728 397.79 Q104.557 401.331 108.168 401.331 Q111.802 401.331 113.608 397.79 Q115.436 394.225 115.436 387.118 Q115.436 379.989 113.608 376.447 Q111.802 372.882 108.168 372.882 M108.168 369.179 Q113.978 369.179 117.033 373.785 Q120.112 378.368 120.112 387.118 Q120.112 395.845 117.033 400.452 Q113.978 405.035 108.168 405.035 Q102.358 405.035 99.2789 400.452 Q96.2234 395.845 96.2234 387.118 Q96.2234 378.368 99.2789 373.785 Q102.358 369.179 108.168 369.179 Z" fill="#000000" fill-rule="evenodd" fill-opacity="1" /><path clip-path="url(#clip780)" d="M54.7421 238.147 L62.381 238.147 L62.381 211.781 L54.0708 213.448 L54.0708 209.189 L62.3347 207.522 L67.0106 207.522 L67.0106 238.147 L74.6494 238.147 L74.6494 242.082 L54.7421 242.082 L54.7421 238.147 Z" fill="#000000" fill-rule="evenodd" fill-opacity="1" /><path clip-path="url(#clip780)" d="M84.0938 236.203 L88.978 236.203 L88.978 242.082 L84.0938 242.082 L84.0938 236.203 Z" fill="#000000" fill-rule="evenodd" fill-opacity="1" /><path clip-path="url(#clip780)" d="M99.2095 207.522 L117.566 207.522 L117.566 211.457 L103.492 211.457 L103.492 219.93 Q104.51 219.582 105.529 219.42 Q106.547 219.235 107.566 219.235 Q113.353 219.235 116.733 222.406 Q120.112 225.578 120.112 230.994 Q120.112 236.573 116.64 239.675 Q113.168 242.753 106.848 242.753 Q104.672 242.753 102.404 242.383 Q100.159 242.013 97.7511 241.272 L97.7511 236.573 Q99.8345 237.707 102.057 238.263 Q104.279 238.818 106.756 238.818 Q110.76 238.818 113.098 236.712 Q115.436 234.605 115.436 230.994 Q115.436 227.383 113.098 225.277 Q110.76 223.17 106.756 223.17 Q104.881 223.17 103.006 223.587 Q101.154 224.004 99.2095 224.883 L99.2095 207.522 Z" fill="#000000" fill-rule="evenodd" fill-opacity="1" /><path clip-path="url(#clip780)" d="M601.845 107.206 L609.298 107.206 L618.615 142.611 L627.892 107.206 L636.682 107.206 L645.999 142.611 L655.276 107.206 L662.73 107.206 L650.861 152.576 L642.07 152.576 L632.307 115.389 L622.504 152.576 L613.714 152.576 L601.845 107.206 Z" fill="#000000" fill-rule="evenodd" fill-opacity="1" /><path clip-path="url(#clip780)" d="M676.503 145.689 L689.871 145.689 L689.871 99.5497 L675.328 102.466 L675.328 95.0127 L689.79 92.096 L697.973 92.096 L697.973 145.689 L711.341 145.689 L711.341 152.576 L676.503 152.576 L676.503 145.689 Z" fill="#000000" fill-rule="evenodd" fill-opacity="1" /><polyline clip-path="url(#clip782)" style="stroke:#0000ff; stroke-linecap:butt; stroke-linejoin:round; stroke-width:8; stroke-opacity:1; fill:none" points="
  184.441,711.647 187.515,711.638 190.589,711.613 219.012,710.589 247.436,708.177 264.517,706.082 281.598,703.516 296.04,700.988 310.482,698.137 326.17,694.684 
  341.858,690.868 356.321,687.036 370.784,682.91 386.289,678.168 401.795,673.103 419.76,666.844 437.725,660.177 469.655,647.362 497.655,635.155 528.183,620.874 
  558.892,605.546 592.844,587.553 625.149,569.486 658.739,549.8 687.015,532.574 721.536,510.803 753.159,490.212 782.366,470.698 811.952,450.497 845.109,427.395 
  875.154,406.091 909.555,381.331 941.406,358.109 972.808,334.987 1003.3,312.363 1034.55,289.034 1068.79,263.363 1118.54,225.955 1128.74,218.273 
  "/>
<path clip-path="url(#clip780)" d="
M1351.8 726.448 L2352.76 726.448 L2352.76 203.472 L1351.8 203.472  Z
  " fill="#ffffff" fill-rule="evenodd" fill-opacity="1"/>
<defs>
  <clipPath id="clip783">
    <rect x="1351" y="203" width="1002" height="524"/>
  </clipPath>
</defs>
<polyline clip-path="url(#clip783)" style="stroke:#000000; stroke-linecap:butt; stroke-linejoin:round; stroke-width:2; stroke-opacity:0.1; fill:none" points="
  1380.12,726.448 1380.12,203.472 
  "/>
<polyline clip-path="url(#clip783)" style="stroke:#000000; stroke-linecap:butt; stroke-linejoin:round; stroke-width:2; stroke-opacity:0.1; fill:none" points="
  1616.2,726.448 1616.2,203.472 
  "/>
<polyline clip-path="url(#clip783)" style="stroke:#000000; stroke-linecap:butt; stroke-linejoin:round; stroke-width:2; stroke-opacity:0.1; fill:none" points="
  1852.28,726.448 1852.28,203.472 
  "/>
<polyline clip-path="url(#clip783)" style="stroke:#000000; stroke-linecap:butt; stroke-linejoin:round; stroke-width:2; stroke-opacity:0.1; fill:none" points="
  2088.35,726.448 2088.35,203.472 
  "/>
<polyline clip-path="url(#clip783)" style="stroke:#000000; stroke-linecap:butt; stroke-linejoin:round; stroke-width:2; stroke-opacity:0.1; fill:none" points="
  2324.43,726.448 2324.43,203.472 
  "/>
<polyline clip-path="url(#clip780)" style="stroke:#000000; stroke-linecap:butt; stroke-linejoin:round; stroke-width:4; stroke-opacity:1; fill:none" points="
  1351.8,726.448 2352.76,726.448 
  "/>
<polyline clip-path="url(#clip780)" style="stroke:#000000; stroke-linecap:butt; stroke-linejoin:round; stroke-width:4; stroke-opacity:1; fill:none" points="
  1380.12,726.448 1380.12,707.55 
  "/>
<polyline clip-path="url(#clip780)" style="stroke:#000000; stroke-linecap:butt; stroke-linejoin:round; stroke-width:4; stroke-opacity:1; fill:none" points="
  1616.2,726.448 1616.2,707.55 
  "/>
<polyline clip-path="url(#clip780)" style="stroke:#000000; stroke-linecap:butt; stroke-linejoin:round; stroke-width:4; stroke-opacity:1; fill:none" points="
  1852.28,726.448 1852.28,707.55 
  "/>
<polyline clip-path="url(#clip780)" style="stroke:#000000; stroke-linecap:butt; stroke-linejoin:round; stroke-width:4; stroke-opacity:1; fill:none" points="
  2088.35,726.448 2088.35,707.55 
  "/>
<polyline clip-path="url(#clip780)" style="stroke:#000000; stroke-linecap:butt; stroke-linejoin:round; stroke-width:4; stroke-opacity:1; fill:none" points="
  2324.43,726.448 2324.43,707.55 
  "/>
<path clip-path="url(#clip780)" d="M1342.43 757.367 Q1338.82 757.367 1336.99 760.931 Q1335.18 764.473 1335.18 771.603 Q1335.18 778.709 1336.99 782.274 Q1338.82 785.815 1342.43 785.815 Q1346.06 785.815 1347.87 782.274 Q1349.7 778.709 1349.7 771.603 Q1349.7 764.473 1347.87 760.931 Q1346.06 757.367 1342.43 757.367 M1342.43 753.663 Q1348.24 753.663 1351.29 758.269 Q1354.37 762.853 1354.37 771.603 Q1354.37 780.329 1351.29 784.936 Q1348.24 789.519 1342.43 789.519 Q1336.62 789.519 1333.54 784.936 Q1330.48 780.329 1330.48 771.603 Q1330.48 762.853 1333.54 758.269 Q1336.62 753.663 1342.43 753.663 Z" fill="#000000" fill-rule="evenodd" fill-opacity="1" /><path clip-path="url(#clip780)" d="M1362.59 782.968 L1367.47 782.968 L1367.47 788.848 L1362.59 788.848 L1362.59 782.968 Z" fill="#000000" fill-rule="evenodd" fill-opacity="1" /><path clip-path="url(#clip780)" d="M1387.66 757.367 Q1384.05 757.367 1382.22 760.931 Q1380.41 764.473 1380.41 771.603 Q1380.41 778.709 1382.22 782.274 Q1384.05 785.815 1387.66 785.815 Q1391.29 785.815 1393.1 782.274 Q1394.93 778.709 1394.93 771.603 Q1394.93 764.473 1393.1 760.931 Q1391.29 757.367 1387.66 757.367 M1387.66 753.663 Q1393.47 753.663 1396.52 758.269 Q1399.6 762.853 1399.6 771.603 Q1399.6 780.329 1396.52 784.936 Q1393.47 789.519 1387.66 789.519 Q1381.85 789.519 1378.77 784.936 Q1375.71 780.329 1375.71 771.603 Q1375.71 762.853 1378.77 758.269 Q1381.85 753.663 1387.66 753.663 Z" fill="#000000" fill-rule="evenodd" fill-opacity="1" /><path clip-path="url(#clip780)" d="M1417.82 757.367 Q1414.21 757.367 1412.38 760.931 Q1410.58 764.473 1410.58 771.603 Q1410.58 778.709 1412.38 782.274 Q1414.21 785.815 1417.82 785.815 Q1421.45 785.815 1423.26 782.274 Q1425.09 778.709 1425.09 771.603 Q1425.09 764.473 1423.26 760.931 Q1421.45 757.367 1417.82 757.367 M1417.82 753.663 Q1423.63 753.663 1426.69 758.269 Q1429.77 762.853 1429.77 771.603 Q1429.77 780.329 1426.69 784.936 Q1423.63 789.519 1417.82 789.519 Q1412.01 789.519 1408.93 784.936 Q1405.88 780.329 1405.88 771.603 Q1405.88 762.853 1408.93 758.269 Q1412.01 753.663 1417.82 753.663 Z" fill="#000000" fill-rule="evenodd" fill-opacity="1" /><path clip-path="url(#clip780)" d="M1579 757.367 Q1575.39 757.367 1573.56 760.931 Q1571.76 764.473 1571.76 771.603 Q1571.76 778.709 1573.56 782.274 Q1575.39 785.815 1579 785.815 Q1582.64 785.815 1584.44 782.274 Q1586.27 778.709 1586.27 771.603 Q1586.27 764.473 1584.44 760.931 Q1582.64 757.367 1579 757.367 M1579 753.663 Q1584.81 753.663 1587.87 758.269 Q1590.95 762.853 1590.95 771.603 Q1590.95 780.329 1587.87 784.936 Q1584.81 789.519 1579 789.519 Q1573.19 789.519 1570.11 784.936 Q1567.06 780.329 1567.06 771.603 Q1567.06 762.853 1570.11 758.269 Q1573.19 753.663 1579 753.663 Z" fill="#000000" fill-rule="evenodd" fill-opacity="1" /><path clip-path="url(#clip780)" d="M1599.16 782.968 L1604.05 782.968 L1604.05 788.848 L1599.16 788.848 L1599.16 782.968 Z" fill="#000000" fill-rule="evenodd" fill-opacity="1" /><path clip-path="url(#clip780)" d="M1618.26 784.913 L1634.58 784.913 L1634.58 788.848 L1612.63 788.848 L1612.63 784.913 Q1615.3 782.158 1619.88 777.528 Q1624.49 772.876 1625.67 771.533 Q1627.91 769.01 1628.79 767.274 Q1629.7 765.515 1629.7 763.825 Q1629.7 761.07 1627.75 759.334 Q1625.83 757.598 1622.73 757.598 Q1620.53 757.598 1618.07 758.362 Q1615.64 759.126 1612.87 760.677 L1612.87 755.955 Q1615.69 754.82 1618.14 754.242 Q1620.6 753.663 1622.63 753.663 Q1628.01 753.663 1631.2 756.348 Q1634.39 759.033 1634.39 763.524 Q1634.39 765.654 1633.58 767.575 Q1632.8 769.473 1630.69 772.066 Q1630.11 772.737 1627.01 775.954 Q1623.91 779.149 1618.26 784.913 Z" fill="#000000" fill-rule="evenodd" fill-opacity="1" /><path clip-path="url(#clip780)" d="M1644.44 754.288 L1662.8 754.288 L1662.8 758.223 L1648.72 758.223 L1648.72 766.695 Q1649.74 766.348 1650.76 766.186 Q1651.78 766.001 1652.8 766.001 Q1658.58 766.001 1661.96 769.172 Q1665.34 772.343 1665.34 777.76 Q1665.34 783.339 1661.87 786.44 Q1658.4 789.519 1652.08 789.519 Q1649.9 789.519 1647.63 789.149 Q1645.39 788.778 1642.98 788.038 L1642.98 783.339 Q1645.07 784.473 1647.29 785.028 Q1649.51 785.584 1651.99 785.584 Q1655.99 785.584 1658.33 783.478 Q1660.67 781.371 1660.67 777.76 Q1660.67 774.149 1658.33 772.042 Q1655.99 769.936 1651.99 769.936 Q1650.11 769.936 1648.24 770.353 Q1646.38 770.769 1644.44 771.649 L1644.44 754.288 Z" fill="#000000" fill-rule="evenodd" fill-opacity="1" /><path clip-path="url(#clip780)" d="M1814.58 757.367 Q1810.97 757.367 1809.14 760.931 Q1807.33 764.473 1807.33 771.603 Q1807.33 778.709 1809.14 782.274 Q1810.97 785.815 1814.58 785.815 Q1818.21 785.815 1820.02 782.274 Q1821.85 778.709 1821.85 771.603 Q1821.85 764.473 1820.02 760.931 Q1818.21 757.367 1814.58 757.367 M1814.58 753.663 Q1820.39 753.663 1823.44 758.269 Q1826.52 762.853 1826.52 771.603 Q1826.52 780.329 1823.44 784.936 Q1820.39 789.519 1814.58 789.519 Q1808.77 789.519 1805.69 784.936 Q1802.63 780.329 1802.63 771.603 Q1802.63 762.853 1805.69 758.269 Q1808.77 753.663 1814.58 753.663 Z" fill="#000000" fill-rule="evenodd" fill-opacity="1" /><path clip-path="url(#clip780)" d="M1834.74 782.968 L1839.63 782.968 L1839.63 788.848 L1834.74 788.848 L1834.74 782.968 Z" fill="#000000" fill-rule="evenodd" fill-opacity="1" /><path clip-path="url(#clip780)" d="M1849.86 754.288 L1868.21 754.288 L1868.21 758.223 L1854.14 758.223 L1854.14 766.695 Q1855.16 766.348 1856.18 766.186 Q1857.19 766.001 1858.21 766.001 Q1864 766.001 1867.38 769.172 Q1870.76 772.343 1870.76 777.76 Q1870.76 783.339 1867.29 786.44 Q1863.81 789.519 1857.5 789.519 Q1855.32 789.519 1853.05 789.149 Q1850.81 788.778 1848.4 788.038 L1848.4 783.339 Q1850.48 784.473 1852.7 785.028 Q1854.93 785.584 1857.4 785.584 Q1861.41 785.584 1863.75 783.478 Q1866.08 781.371 1866.08 777.76 Q1866.08 774.149 1863.75 772.042 Q1861.41 769.936 1857.4 769.936 Q1855.53 769.936 1853.65 770.353 Q1851.8 770.769 1849.86 771.649 L1849.86 754.288 Z" fill="#000000" fill-rule="evenodd" fill-opacity="1" /><path clip-path="url(#clip780)" d="M1889.97 757.367 Q1886.36 757.367 1884.53 760.931 Q1882.73 764.473 1882.73 771.603 Q1882.73 778.709 1884.53 782.274 Q1886.36 785.815 1889.97 785.815 Q1893.61 785.815 1895.41 782.274 Q1897.24 778.709 1897.24 771.603 Q1897.24 764.473 1895.41 760.931 Q1893.61 757.367 1889.97 757.367 M1889.97 753.663 Q1895.78 753.663 1898.84 758.269 Q1901.92 762.853 1901.92 771.603 Q1901.92 780.329 1898.84 784.936 Q1895.78 789.519 1889.97 789.519 Q1884.16 789.519 1881.08 784.936 Q1878.03 780.329 1878.03 771.603 Q1878.03 762.853 1881.08 758.269 Q1884.16 753.663 1889.97 753.663 Z" fill="#000000" fill-rule="evenodd" fill-opacity="1" /><path clip-path="url(#clip780)" d="M2051.15 757.367 Q2047.54 757.367 2045.71 760.931 Q2043.91 764.473 2043.91 771.603 Q2043.91 778.709 2045.71 782.274 Q2047.54 785.815 2051.15 785.815 Q2054.79 785.815 2056.59 782.274 Q2058.42 778.709 2058.42 771.603 Q2058.42 764.473 2056.59 760.931 Q2054.79 757.367 2051.15 757.367 M2051.15 753.663 Q2056.96 753.663 2060.02 758.269 Q2063.1 762.853 2063.1 771.603 Q2063.1 780.329 2060.02 784.936 Q2056.96 789.519 2051.15 789.519 Q2045.34 789.519 2042.26 784.936 Q2039.21 780.329 2039.21 771.603 Q2039.21 762.853 2042.26 758.269 Q2045.34 753.663 2051.15 753.663 Z" fill="#000000" fill-rule="evenodd" fill-opacity="1" /><path clip-path="url(#clip780)" d="M2071.31 782.968 L2076.2 782.968 L2076.2 788.848 L2071.31 788.848 L2071.31 782.968 Z" fill="#000000" fill-rule="evenodd" fill-opacity="1" /><path clip-path="url(#clip780)" d="M2085.2 754.288 L2107.43 754.288 L2107.43 756.279 L2094.88 788.848 L2089.99 788.848 L2101.8 758.223 L2085.2 758.223 L2085.2 754.288 Z" fill="#000000" fill-rule="evenodd" fill-opacity="1" /><path clip-path="url(#clip780)" d="M2116.59 754.288 L2134.95 754.288 L2134.95 758.223 L2120.87 758.223 L2120.87 766.695 Q2121.89 766.348 2122.91 766.186 Q2123.93 766.001 2124.95 766.001 Q2130.74 766.001 2134.11 769.172 Q2137.49 772.343 2137.49 777.76 Q2137.49 783.339 2134.02 786.44 Q2130.55 789.519 2124.23 789.519 Q2122.05 789.519 2119.79 789.149 Q2117.54 788.778 2115.13 788.038 L2115.13 783.339 Q2117.22 784.473 2119.44 785.028 Q2121.66 785.584 2124.14 785.584 Q2128.14 785.584 2130.48 783.478 Q2132.82 781.371 2132.82 777.76 Q2132.82 774.149 2130.48 772.042 Q2128.14 769.936 2124.14 769.936 Q2122.26 769.936 2120.39 770.353 Q2118.54 770.769 2116.59 771.649 L2116.59 754.288 Z" fill="#000000" fill-rule="evenodd" fill-opacity="1" /><path clip-path="url(#clip780)" d="M2276.5 784.913 L2284.14 784.913 L2284.14 758.547 L2275.83 760.214 L2275.83 755.955 L2284.09 754.288 L2288.77 754.288 L2288.77 784.913 L2296.41 784.913 L2296.41 788.848 L2276.5 788.848 L2276.5 784.913 Z" fill="#000000" fill-rule="evenodd" fill-opacity="1" /><path clip-path="url(#clip780)" d="M2305.85 782.968 L2310.73 782.968 L2310.73 788.848 L2305.85 788.848 L2305.85 782.968 Z" fill="#000000" fill-rule="evenodd" fill-opacity="1" /><path clip-path="url(#clip780)" d="M2330.92 757.367 Q2327.31 757.367 2325.48 760.931 Q2323.67 764.473 2323.67 771.603 Q2323.67 778.709 2325.48 782.274 Q2327.31 785.815 2330.92 785.815 Q2334.55 785.815 2336.36 782.274 Q2338.19 778.709 2338.19 771.603 Q2338.19 764.473 2336.36 760.931 Q2334.55 757.367 2330.92 757.367 M2330.92 753.663 Q2336.73 753.663 2339.79 758.269 Q2342.86 762.853 2342.86 771.603 Q2342.86 780.329 2339.79 784.936 Q2336.73 789.519 2330.92 789.519 Q2325.11 789.519 2322.03 784.936 Q2318.98 780.329 2318.98 771.603 Q2318.98 762.853 2322.03 758.269 Q2325.11 753.663 2330.92 753.663 Z" fill="#000000" fill-rule="evenodd" fill-opacity="1" /><path clip-path="url(#clip780)" d="M2361.08 757.367 Q2357.47 757.367 2355.64 760.931 Q2353.84 764.473 2353.84 771.603 Q2353.84 778.709 2355.64 782.274 Q2357.47 785.815 2361.08 785.815 Q2364.72 785.815 2366.52 782.274 Q2368.35 778.709 2368.35 771.603 Q2368.35 764.473 2366.52 760.931 Q2364.72 757.367 2361.08 757.367 M2361.08 753.663 Q2366.89 753.663 2369.95 758.269 Q2373.03 762.853 2373.03 771.603 Q2373.03 780.329 2369.95 784.936 Q2366.89 789.519 2361.08 789.519 Q2355.27 789.519 2352.19 784.936 Q2349.14 780.329 2349.14 771.603 Q2349.14 762.853 2352.19 758.269 Q2355.27 753.663 2361.08 753.663 Z" fill="#000000" fill-rule="evenodd" fill-opacity="1" /><polyline clip-path="url(#clip783)" style="stroke:#000000; stroke-linecap:butt; stroke-linejoin:round; stroke-width:2; stroke-opacity:0.1; fill:none" points="
  1351.8,706.408 2352.76,706.408 
  "/>
<polyline clip-path="url(#clip783)" style="stroke:#000000; stroke-linecap:butt; stroke-linejoin:round; stroke-width:2; stroke-opacity:0.1; fill:none" points="
  1351.8,564.526 2352.76,564.526 
  "/>
<polyline clip-path="url(#clip783)" style="stroke:#000000; stroke-linecap:butt; stroke-linejoin:round; stroke-width:2; stroke-opacity:0.1; fill:none" points="
  1351.8,422.644 2352.76,422.644 
  "/>
<polyline clip-path="url(#clip783)" style="stroke:#000000; stroke-linecap:butt; stroke-linejoin:round; stroke-width:2; stroke-opacity:0.1; fill:none" points="
  1351.8,280.763 2352.76,280.763 
  "/>
<polyline clip-path="url(#clip780)" style="stroke:#000000; stroke-linecap:butt; stroke-linejoin:round; stroke-width:4; stroke-opacity:1; fill:none" points="
  1351.8,726.448 1351.8,203.472 
  "/>
<polyline clip-path="url(#clip780)" style="stroke:#000000; stroke-linecap:butt; stroke-linejoin:round; stroke-width:4; stroke-opacity:1; fill:none" points="
  1351.8,706.408 1370.69,706.408 
  "/>
<polyline clip-path="url(#clip780)" style="stroke:#000000; stroke-linecap:butt; stroke-linejoin:round; stroke-width:4; stroke-opacity:1; fill:none" points="
  1351.8,564.526 1370.69,564.526 
  "/>
<polyline clip-path="url(#clip780)" style="stroke:#000000; stroke-linecap:butt; stroke-linejoin:round; stroke-width:4; stroke-opacity:1; fill:none" points="
  1351.8,422.644 1370.69,422.644 
  "/>
<polyline clip-path="url(#clip780)" style="stroke:#000000; stroke-linecap:butt; stroke-linejoin:round; stroke-width:4; stroke-opacity:1; fill:none" points="
  1351.8,280.763 1370.69,280.763 
  "/>
<path clip-path="url(#clip780)" d="M1255.68 706.859 L1285.36 706.859 L1285.36 710.795 L1255.68 710.795 L1255.68 706.859 Z" fill="#000000" fill-rule="evenodd" fill-opacity="1" /><path clip-path="url(#clip780)" d="M1299.48 719.753 L1315.8 719.753 L1315.8 723.688 L1293.85 723.688 L1293.85 719.753 Q1296.51 716.998 1301.1 712.369 Q1305.7 707.716 1306.88 706.373 Q1309.13 703.85 1310.01 702.114 Q1310.91 700.355 1310.91 698.665 Q1310.91 695.91 1308.97 694.174 Q1307.05 692.438 1303.94 692.438 Q1301.74 692.438 1299.29 693.202 Q1296.86 693.966 1294.08 695.517 L1294.08 690.795 Q1296.91 689.66 1299.36 689.082 Q1301.81 688.503 1303.85 688.503 Q1309.22 688.503 1312.42 691.188 Q1315.61 693.873 1315.61 698.364 Q1315.61 700.494 1314.8 702.415 Q1314.01 704.313 1311.91 706.906 Q1311.33 707.577 1308.23 710.795 Q1305.12 713.989 1299.48 719.753 Z" fill="#000000" fill-rule="evenodd" fill-opacity="1" /><path clip-path="url(#clip780)" d="M1255.31 564.978 L1284.98 564.978 L1284.98 568.913 L1255.31 568.913 L1255.31 564.978 Z" fill="#000000" fill-rule="evenodd" fill-opacity="1" /><path clip-path="url(#clip780)" d="M1295.89 577.871 L1303.53 577.871 L1303.53 551.506 L1295.22 553.172 L1295.22 548.913 L1303.48 547.246 L1308.16 547.246 L1308.16 577.871 L1315.8 577.871 L1315.8 581.806 L1295.89 581.806 L1295.89 577.871 Z" fill="#000000" fill-rule="evenodd" fill-opacity="1" /><path clip-path="url(#clip780)" d="M1303.85 408.443 Q1300.24 408.443 1298.41 412.008 Q1296.61 415.55 1296.61 422.679 Q1296.61 429.786 1298.41 433.35 Q1300.24 436.892 1303.85 436.892 Q1307.48 436.892 1309.29 433.35 Q1311.12 429.786 1311.12 422.679 Q1311.12 415.55 1309.29 412.008 Q1307.48 408.443 1303.85 408.443 M1303.85 404.74 Q1309.66 404.74 1312.72 409.346 Q1315.8 413.929 1315.8 422.679 Q1315.8 431.406 1312.72 436.012 Q1309.66 440.596 1303.85 440.596 Q1298.04 440.596 1294.96 436.012 Q1291.91 431.406 1291.91 422.679 Q1291.91 413.929 1294.96 409.346 Q1298.04 404.74 1303.85 404.74 Z" fill="#000000" fill-rule="evenodd" fill-opacity="1" /><path clip-path="url(#clip780)" d="M1295.89 294.108 L1303.53 294.108 L1303.53 267.742 L1295.22 269.409 L1295.22 265.149 L1303.48 263.483 L1308.16 263.483 L1308.16 294.108 L1315.8 294.108 L1315.8 298.043 L1295.89 298.043 L1295.89 294.108 Z" fill="#000000" fill-rule="evenodd" fill-opacity="1" /><path clip-path="url(#clip780)" d="M1797.85 107.206 L1805.31 107.206 L1814.62 142.611 L1823.9 107.206 L1832.69 107.206 L1842.01 142.611 L1851.28 107.206 L1858.74 107.206 L1846.87 152.576 L1838.08 152.576 L1828.31 115.389 L1818.51 152.576 L1809.72 152.576 L1797.85 107.206 Z" fill="#000000" fill-rule="evenodd" fill-opacity="1" /><path clip-path="url(#clip780)" d="M1878.14 145.689 L1906.7 145.689 L1906.7 152.576 L1868.3 152.576 L1868.3 145.689 Q1872.96 140.869 1880.98 132.767 Q1889.04 124.625 1891.1 122.275 Q1895.03 117.86 1896.57 114.822 Q1898.15 111.743 1898.15 108.786 Q1898.15 103.965 1894.75 100.927 Q1891.39 97.8888 1885.96 97.8888 Q1882.11 97.8888 1877.82 99.2256 Q1873.56 100.562 1868.7 103.276 L1868.7 95.0127 Q1873.64 93.0277 1877.94 92.015 Q1882.23 91.0023 1885.8 91.0023 Q1895.19 91.0023 1900.79 95.7013 Q1906.38 100.4 1906.38 108.259 Q1906.38 111.986 1904.96 115.348 Q1903.58 118.67 1899.89 123.207 Q1898.88 124.382 1893.45 130.012 Q1888.02 135.603 1878.14 145.689 Z" fill="#000000" fill-rule="evenodd" fill-opacity="1" /><polyline clip-path="url(#clip783)" style="stroke:#0000ff; stroke-linecap:butt; stroke-linejoin:round; stroke-width:8; stroke-opacity:1; fill:none" points="
  1380.12,422.644 1381.66,422.636 1383.2,422.611 1384.74,422.57 1386.27,422.512 1400.48,421.23 1414.7,418.669 1428.91,414.931 1443.12,410.119 1451.66,406.754 
  1460.2,403.06 1468.74,399.061 1477.28,394.777 1491.72,386.948 1506.16,378.477 1537.54,358.356 1566.47,338.466 1597.48,316.646 1633.41,291.925 1649.37,281.47 
  1665.34,271.501 1679.34,263.24 1693.34,255.501 1708.6,247.73 1723.87,240.729 1739.22,234.534 1754.57,229.256 1763.06,226.753 1771.55,224.557 1780.04,222.677 
  1788.53,221.12 1796.6,219.946 1804.68,219.077 1812.76,218.518 1820.83,218.273 1829.23,218.357 1837.63,218.79 1846.02,219.574 1854.42,220.712 1868.56,223.435 
  1882.7,227.174 1891.33,229.956 1899.96,233.116 1908.59,236.653 1917.22,240.565 1933.03,248.695 1948.84,258.053 1963.45,267.76 1978.05,278.463 1992.84,290.286 
  2007.63,303.061 2024.21,318.457 2040.79,334.934 2055.81,350.74 2070.84,367.324 2088.04,387.195 2105.24,407.925 2121.16,427.809 2137.09,448.283 2152.79,468.978 
  2168.49,490.111 2183.74,510.988 2198.98,532.16 2230.23,576.266 2264.48,625.269 2314.22,696.931 2324.43,711.647 
  "/>
<path clip-path="url(#clip780)" d="
M156.112 1486.45 L1157.07 1486.45 L1157.07 963.472 L156.112 963.472  Z
  " fill="#ffffff" fill-rule="evenodd" fill-opacity="1"/>
<defs>
  <clipPath id="clip784">
    <rect x="156" y="963" width="1002" height="524"/>
  </clipPath>
</defs>
<polyline clip-path="url(#clip784)" style="stroke:#000000; stroke-linecap:butt; stroke-linejoin:round; stroke-width:2; stroke-opacity:0.1; fill:none" points="
  184.441,1486.45 184.441,963.472 
  "/>
<polyline clip-path="url(#clip784)" style="stroke:#000000; stroke-linecap:butt; stroke-linejoin:round; stroke-width:2; stroke-opacity:0.1; fill:none" points="
  420.517,1486.45 420.517,963.472 
  "/>
<polyline clip-path="url(#clip784)" style="stroke:#000000; stroke-linecap:butt; stroke-linejoin:round; stroke-width:2; stroke-opacity:0.1; fill:none" points="
  656.593,1486.45 656.593,963.472 
  "/>
<polyline clip-path="url(#clip784)" style="stroke:#000000; stroke-linecap:butt; stroke-linejoin:round; stroke-width:2; stroke-opacity:0.1; fill:none" points="
  892.668,1486.45 892.668,963.472 
  "/>
<polyline clip-path="url(#clip784)" style="stroke:#000000; stroke-linecap:butt; stroke-linejoin:round; stroke-width:2; stroke-opacity:0.1; fill:none" points="
  1128.74,1486.45 1128.74,963.472 
  "/>
<polyline clip-path="url(#clip780)" style="stroke:#000000; stroke-linecap:butt; stroke-linejoin:round; stroke-width:4; stroke-opacity:1; fill:none" points="
  156.112,1486.45 1157.07,1486.45 
  "/>
<polyline clip-path="url(#clip780)" style="stroke:#000000; stroke-linecap:butt; stroke-linejoin:round; stroke-width:4; stroke-opacity:1; fill:none" points="
  184.441,1486.45 184.441,1467.55 
  "/>
<polyline clip-path="url(#clip780)" style="stroke:#000000; stroke-linecap:butt; stroke-linejoin:round; stroke-width:4; stroke-opacity:1; fill:none" points="
  420.517,1486.45 420.517,1467.55 
  "/>
<polyline clip-path="url(#clip780)" style="stroke:#000000; stroke-linecap:butt; stroke-linejoin:round; stroke-width:4; stroke-opacity:1; fill:none" points="
  656.593,1486.45 656.593,1467.55 
  "/>
<polyline clip-path="url(#clip780)" style="stroke:#000000; stroke-linecap:butt; stroke-linejoin:round; stroke-width:4; stroke-opacity:1; fill:none" points="
  892.668,1486.45 892.668,1467.55 
  "/>
<polyline clip-path="url(#clip780)" style="stroke:#000000; stroke-linecap:butt; stroke-linejoin:round; stroke-width:4; stroke-opacity:1; fill:none" points="
  1128.74,1486.45 1128.74,1467.55 
  "/>
<path clip-path="url(#clip780)" d="M146.745 1517.37 Q143.134 1517.37 141.305 1520.93 Q139.499 1524.47 139.499 1531.6 Q139.499 1538.71 141.305 1542.27 Q143.134 1545.82 146.745 1545.82 Q150.379 1545.82 152.184 1542.27 Q154.013 1538.71 154.013 1531.6 Q154.013 1524.47 152.184 1520.93 Q150.379 1517.37 146.745 1517.37 M146.745 1513.66 Q152.555 1513.66 155.61 1518.27 Q158.689 1522.85 158.689 1531.6 Q158.689 1540.33 155.61 1544.94 Q152.555 1549.52 146.745 1549.52 Q140.934 1549.52 137.856 1544.94 Q134.8 1540.33 134.8 1531.6 Q134.8 1522.85 137.856 1518.27 Q140.934 1513.66 146.745 1513.66 Z" fill="#000000" fill-rule="evenodd" fill-opacity="1" /><path clip-path="url(#clip780)" d="M166.907 1542.97 L171.791 1542.97 L171.791 1548.85 L166.907 1548.85 L166.907 1542.97 Z" fill="#000000" fill-rule="evenodd" fill-opacity="1" /><path clip-path="url(#clip780)" d="M191.976 1517.37 Q188.365 1517.37 186.536 1520.93 Q184.731 1524.47 184.731 1531.6 Q184.731 1538.71 186.536 1542.27 Q188.365 1545.82 191.976 1545.82 Q195.61 1545.82 197.416 1542.27 Q199.244 1538.71 199.244 1531.6 Q199.244 1524.47 197.416 1520.93 Q195.61 1517.37 191.976 1517.37 M191.976 1513.66 Q197.786 1513.66 200.842 1518.27 Q203.92 1522.85 203.92 1531.6 Q203.92 1540.33 200.842 1544.94 Q197.786 1549.52 191.976 1549.52 Q186.166 1549.52 183.087 1544.94 Q180.032 1540.33 180.032 1531.6 Q180.032 1522.85 183.087 1518.27 Q186.166 1513.66 191.976 1513.66 Z" fill="#000000" fill-rule="evenodd" fill-opacity="1" /><path clip-path="url(#clip780)" d="M222.138 1517.37 Q218.527 1517.37 216.698 1520.93 Q214.892 1524.47 214.892 1531.6 Q214.892 1538.71 216.698 1542.27 Q218.527 1545.82 222.138 1545.82 Q225.772 1545.82 227.578 1542.27 Q229.406 1538.71 229.406 1531.6 Q229.406 1524.47 227.578 1520.93 Q225.772 1517.37 222.138 1517.37 M222.138 1513.66 Q227.948 1513.66 231.003 1518.27 Q234.082 1522.85 234.082 1531.6 Q234.082 1540.33 231.003 1544.94 Q227.948 1549.52 222.138 1549.52 Q216.328 1549.52 213.249 1544.94 Q210.193 1540.33 210.193 1531.6 Q210.193 1522.85 213.249 1518.27 Q216.328 1513.66 222.138 1513.66 Z" fill="#000000" fill-rule="evenodd" fill-opacity="1" /><path clip-path="url(#clip780)" d="M383.318 1517.37 Q379.707 1517.37 377.878 1520.93 Q376.073 1524.47 376.073 1531.6 Q376.073 1538.71 377.878 1542.27 Q379.707 1545.82 383.318 1545.82 Q386.952 1545.82 388.758 1542.27 Q390.586 1538.71 390.586 1531.6 Q390.586 1524.47 388.758 1520.93 Q386.952 1517.37 383.318 1517.37 M383.318 1513.66 Q389.128 1513.66 392.184 1518.27 Q395.262 1522.85 395.262 1531.6 Q395.262 1540.33 392.184 1544.94 Q389.128 1549.52 383.318 1549.52 Q377.508 1549.52 374.429 1544.94 Q371.374 1540.33 371.374 1531.6 Q371.374 1522.85 374.429 1518.27 Q377.508 1513.66 383.318 1513.66 Z" fill="#000000" fill-rule="evenodd" fill-opacity="1" /><path clip-path="url(#clip780)" d="M403.48 1542.97 L408.364 1542.97 L408.364 1548.85 L403.48 1548.85 L403.48 1542.97 Z" fill="#000000" fill-rule="evenodd" fill-opacity="1" /><path clip-path="url(#clip780)" d="M422.577 1544.91 L438.896 1544.91 L438.896 1548.85 L416.952 1548.85 L416.952 1544.91 Q419.614 1542.16 424.197 1537.53 Q428.804 1532.88 429.984 1531.53 Q432.23 1529.01 433.109 1527.27 Q434.012 1525.51 434.012 1523.82 Q434.012 1521.07 432.068 1519.33 Q430.146 1517.6 427.045 1517.6 Q424.846 1517.6 422.392 1518.36 Q419.961 1519.13 417.184 1520.68 L417.184 1515.95 Q420.008 1514.82 422.461 1514.24 Q424.915 1513.66 426.952 1513.66 Q432.322 1513.66 435.517 1516.35 Q438.711 1519.03 438.711 1523.52 Q438.711 1525.65 437.901 1527.57 Q437.114 1529.47 435.008 1532.07 Q434.429 1532.74 431.327 1535.95 Q428.225 1539.15 422.577 1544.91 Z" fill="#000000" fill-rule="evenodd" fill-opacity="1" /><path clip-path="url(#clip780)" d="M448.757 1514.29 L467.114 1514.29 L467.114 1518.22 L453.04 1518.22 L453.04 1526.7 Q454.058 1526.35 455.077 1526.19 Q456.095 1526 457.114 1526 Q462.901 1526 466.281 1529.17 Q469.66 1532.34 469.66 1537.76 Q469.66 1543.34 466.188 1546.44 Q462.716 1549.52 456.396 1549.52 Q454.22 1549.52 451.952 1549.15 Q449.707 1548.78 447.299 1548.04 L447.299 1543.34 Q449.382 1544.47 451.605 1545.03 Q453.827 1545.58 456.304 1545.58 Q460.308 1545.58 462.646 1543.48 Q464.984 1541.37 464.984 1537.76 Q464.984 1534.15 462.646 1532.04 Q460.308 1529.94 456.304 1529.94 Q454.429 1529.94 452.554 1530.35 Q450.702 1530.77 448.757 1531.65 L448.757 1514.29 Z" fill="#000000" fill-rule="evenodd" fill-opacity="1" /><path clip-path="url(#clip780)" d="M618.896 1517.37 Q615.285 1517.37 613.456 1520.93 Q611.651 1524.47 611.651 1531.6 Q611.651 1538.71 613.456 1542.27 Q615.285 1545.82 618.896 1545.82 Q622.53 1545.82 624.336 1542.27 Q626.164 1538.71 626.164 1531.6 Q626.164 1524.47 624.336 1520.93 Q622.53 1517.37 618.896 1517.37 M618.896 1513.66 Q624.706 1513.66 627.762 1518.27 Q630.84 1522.85 630.84 1531.6 Q630.84 1540.33 627.762 1544.94 Q624.706 1549.52 618.896 1549.52 Q613.086 1549.52 610.007 1544.94 Q606.952 1540.33 606.952 1531.6 Q606.952 1522.85 610.007 1518.27 Q613.086 1513.66 618.896 1513.66 Z" fill="#000000" fill-rule="evenodd" fill-opacity="1" /><path clip-path="url(#clip780)" d="M639.058 1542.97 L643.942 1542.97 L643.942 1548.85 L639.058 1548.85 L639.058 1542.97 Z" fill="#000000" fill-rule="evenodd" fill-opacity="1" /><path clip-path="url(#clip780)" d="M654.174 1514.29 L672.53 1514.29 L672.53 1518.22 L658.456 1518.22 L658.456 1526.7 Q659.474 1526.35 660.493 1526.19 Q661.512 1526 662.53 1526 Q668.317 1526 671.697 1529.17 Q675.076 1532.34 675.076 1537.76 Q675.076 1543.34 671.604 1546.44 Q668.132 1549.52 661.812 1549.52 Q659.637 1549.52 657.368 1549.15 Q655.123 1548.78 652.715 1548.04 L652.715 1543.34 Q654.799 1544.47 657.021 1545.03 Q659.243 1545.58 661.72 1545.58 Q665.724 1545.58 668.062 1543.48 Q670.4 1541.37 670.4 1537.76 Q670.4 1534.15 668.062 1532.04 Q665.724 1529.94 661.72 1529.94 Q659.845 1529.94 657.97 1530.35 Q656.118 1530.77 654.174 1531.65 L654.174 1514.29 Z" fill="#000000" fill-rule="evenodd" fill-opacity="1" /><path clip-path="url(#clip780)" d="M694.289 1517.37 Q690.678 1517.37 688.849 1520.93 Q687.044 1524.47 687.044 1531.6 Q687.044 1538.71 688.849 1542.27 Q690.678 1545.82 694.289 1545.82 Q697.923 1545.82 699.729 1542.27 Q701.558 1538.71 701.558 1531.6 Q701.558 1524.47 699.729 1520.93 Q697.923 1517.37 694.289 1517.37 M694.289 1513.66 Q700.099 1513.66 703.155 1518.27 Q706.234 1522.85 706.234 1531.6 Q706.234 1540.33 703.155 1544.94 Q700.099 1549.52 694.289 1549.52 Q688.479 1549.52 685.4 1544.94 Q682.345 1540.33 682.345 1531.6 Q682.345 1522.85 685.4 1518.27 Q688.479 1513.66 694.289 1513.66 Z" fill="#000000" fill-rule="evenodd" fill-opacity="1" /><path clip-path="url(#clip780)" d="M855.469 1517.37 Q851.858 1517.37 850.03 1520.93 Q848.224 1524.47 848.224 1531.6 Q848.224 1538.71 850.03 1542.27 Q851.858 1545.82 855.469 1545.82 Q859.104 1545.82 860.909 1542.27 Q862.738 1538.71 862.738 1531.6 Q862.738 1524.47 860.909 1520.93 Q859.104 1517.37 855.469 1517.37 M855.469 1513.66 Q861.28 1513.66 864.335 1518.27 Q867.414 1522.85 867.414 1531.6 Q867.414 1540.33 864.335 1544.94 Q861.28 1549.52 855.469 1549.52 Q849.659 1549.52 846.581 1544.94 Q843.525 1540.33 843.525 1531.6 Q843.525 1522.85 846.581 1518.27 Q849.659 1513.66 855.469 1513.66 Z" fill="#000000" fill-rule="evenodd" fill-opacity="1" /><path clip-path="url(#clip780)" d="M875.631 1542.97 L880.516 1542.97 L880.516 1548.85 L875.631 1548.85 L875.631 1542.97 Z" fill="#000000" fill-rule="evenodd" fill-opacity="1" /><path clip-path="url(#clip780)" d="M889.52 1514.29 L911.742 1514.29 L911.742 1516.28 L899.196 1548.85 L894.312 1548.85 L906.117 1518.22 L889.52 1518.22 L889.52 1514.29 Z" fill="#000000" fill-rule="evenodd" fill-opacity="1" /><path clip-path="url(#clip780)" d="M920.909 1514.29 L939.265 1514.29 L939.265 1518.22 L925.191 1518.22 L925.191 1526.7 Q926.21 1526.35 927.228 1526.19 Q928.247 1526 929.265 1526 Q935.052 1526 938.432 1529.17 Q941.812 1532.34 941.812 1537.76 Q941.812 1543.34 938.339 1546.44 Q934.867 1549.52 928.548 1549.52 Q926.372 1549.52 924.103 1549.15 Q921.858 1548.78 919.451 1548.04 L919.451 1543.34 Q921.534 1544.47 923.756 1545.03 Q925.978 1545.58 928.455 1545.58 Q932.46 1545.58 934.798 1543.48 Q937.136 1541.37 937.136 1537.76 Q937.136 1534.15 934.798 1532.04 Q932.46 1529.94 928.455 1529.94 Q926.58 1529.94 924.705 1530.35 Q922.853 1530.77 920.909 1531.65 L920.909 1514.29 Z" fill="#000000" fill-rule="evenodd" fill-opacity="1" /><path clip-path="url(#clip780)" d="M1080.82 1544.91 L1088.45 1544.91 L1088.45 1518.55 L1080.14 1520.21 L1080.14 1515.95 L1088.41 1514.29 L1093.08 1514.29 L1093.08 1544.91 L1100.72 1544.91 L1100.72 1548.85 L1080.82 1548.85 L1080.82 1544.91 Z" fill="#000000" fill-rule="evenodd" fill-opacity="1" /><path clip-path="url(#clip780)" d="M1110.17 1542.97 L1115.05 1542.97 L1115.05 1548.85 L1110.17 1548.85 L1110.17 1542.97 Z" fill="#000000" fill-rule="evenodd" fill-opacity="1" /><path clip-path="url(#clip780)" d="M1135.24 1517.37 Q1131.63 1517.37 1129.8 1520.93 Q1127.99 1524.47 1127.99 1531.6 Q1127.99 1538.71 1129.8 1542.27 Q1131.63 1545.82 1135.24 1545.82 Q1138.87 1545.82 1140.68 1542.27 Q1142.51 1538.71 1142.51 1531.6 Q1142.51 1524.47 1140.68 1520.93 Q1138.87 1517.37 1135.24 1517.37 M1135.24 1513.66 Q1141.05 1513.66 1144.1 1518.27 Q1147.18 1522.85 1147.18 1531.6 Q1147.18 1540.33 1144.1 1544.94 Q1141.05 1549.52 1135.24 1549.52 Q1129.43 1549.52 1126.35 1544.94 Q1123.29 1540.33 1123.29 1531.6 Q1123.29 1522.85 1126.35 1518.27 Q1129.43 1513.66 1135.24 1513.66 Z" fill="#000000" fill-rule="evenodd" fill-opacity="1" /><path clip-path="url(#clip780)" d="M1165.4 1517.37 Q1161.79 1517.37 1159.96 1520.93 Q1158.15 1524.47 1158.15 1531.6 Q1158.15 1538.71 1159.96 1542.27 Q1161.79 1545.82 1165.4 1545.82 Q1169.03 1545.82 1170.84 1542.27 Q1172.67 1538.71 1172.67 1531.6 Q1172.67 1524.47 1170.84 1520.93 Q1169.03 1517.37 1165.4 1517.37 M1165.4 1513.66 Q1171.21 1513.66 1174.26 1518.27 Q1177.34 1522.85 1177.34 1531.6 Q1177.34 1540.33 1174.26 1544.94 Q1171.21 1549.52 1165.4 1549.52 Q1159.59 1549.52 1156.51 1544.94 Q1153.45 1540.33 1153.45 1531.6 Q1153.45 1522.85 1156.51 1518.27 Q1159.59 1513.66 1165.4 1513.66 Z" fill="#000000" fill-rule="evenodd" fill-opacity="1" /><polyline clip-path="url(#clip784)" style="stroke:#000000; stroke-linecap:butt; stroke-linejoin:round; stroke-width:2; stroke-opacity:0.1; fill:none" points="
  156.112,1424.41 1157.07,1424.41 
  "/>
<polyline clip-path="url(#clip784)" style="stroke:#000000; stroke-linecap:butt; stroke-linejoin:round; stroke-width:2; stroke-opacity:0.1; fill:none" points="
  156.112,1275.62 1157.07,1275.62 
  "/>
<polyline clip-path="url(#clip784)" style="stroke:#000000; stroke-linecap:butt; stroke-linejoin:round; stroke-width:2; stroke-opacity:0.1; fill:none" points="
  156.112,1126.83 1157.07,1126.83 
  "/>
<polyline clip-path="url(#clip784)" style="stroke:#000000; stroke-linecap:butt; stroke-linejoin:round; stroke-width:2; stroke-opacity:0.1; fill:none" points="
  156.112,978.043 1157.07,978.043 
  "/>
<polyline clip-path="url(#clip780)" style="stroke:#000000; stroke-linecap:butt; stroke-linejoin:round; stroke-width:4; stroke-opacity:1; fill:none" points="
  156.112,1486.45 156.112,963.472 
  "/>
<polyline clip-path="url(#clip780)" style="stroke:#000000; stroke-linecap:butt; stroke-linejoin:round; stroke-width:4; stroke-opacity:1; fill:none" points="
  156.112,1424.41 175.01,1424.41 
  "/>
<polyline clip-path="url(#clip780)" style="stroke:#000000; stroke-linecap:butt; stroke-linejoin:round; stroke-width:4; stroke-opacity:1; fill:none" points="
  156.112,1275.62 175.01,1275.62 
  "/>
<polyline clip-path="url(#clip780)" style="stroke:#000000; stroke-linecap:butt; stroke-linejoin:round; stroke-width:4; stroke-opacity:1; fill:none" points="
  156.112,1126.83 175.01,1126.83 
  "/>
<polyline clip-path="url(#clip780)" style="stroke:#000000; stroke-linecap:butt; stroke-linejoin:round; stroke-width:4; stroke-opacity:1; fill:none" points="
  156.112,978.043 175.01,978.043 
  "/>
<path clip-path="url(#clip780)" d="M59.6263 1424.86 L89.3021 1424.86 L89.3021 1428.8 L59.6263 1428.8 L59.6263 1424.86 Z" fill="#000000" fill-rule="evenodd" fill-opacity="1" /><path clip-path="url(#clip780)" d="M100.205 1437.75 L107.844 1437.75 L107.844 1411.39 L99.5335 1413.06 L99.5335 1408.8 L107.797 1407.13 L112.473 1407.13 L112.473 1437.75 L120.112 1437.75 L120.112 1441.69 L100.205 1441.69 L100.205 1437.75 Z" fill="#000000" fill-rule="evenodd" fill-opacity="1" /><path clip-path="url(#clip780)" d="M108.168 1261.42 Q104.557 1261.42 102.728 1264.98 Q100.922 1268.53 100.922 1275.66 Q100.922 1282.76 102.728 1286.33 Q104.557 1289.87 108.168 1289.87 Q111.802 1289.87 113.608 1286.33 Q115.436 1282.76 115.436 1275.66 Q115.436 1268.53 113.608 1264.98 Q111.802 1261.42 108.168 1261.42 M108.168 1257.72 Q113.978 1257.72 117.033 1262.32 Q120.112 1266.91 120.112 1275.66 Q120.112 1284.38 117.033 1288.99 Q113.978 1293.57 108.168 1293.57 Q102.358 1293.57 99.2789 1288.99 Q96.2234 1284.38 96.2234 1275.66 Q96.2234 1266.91 99.2789 1262.32 Q102.358 1257.72 108.168 1257.72 Z" fill="#000000" fill-rule="evenodd" fill-opacity="1" /><path clip-path="url(#clip780)" d="M100.205 1140.18 L107.844 1140.18 L107.844 1113.81 L99.5335 1115.48 L99.5335 1111.22 L107.797 1109.55 L112.473 1109.55 L112.473 1140.18 L120.112 1140.18 L120.112 1144.11 L100.205 1144.11 L100.205 1140.18 Z" fill="#000000" fill-rule="evenodd" fill-opacity="1" /><path clip-path="url(#clip780)" d="M103.793 991.387 L120.112 991.387 L120.112 995.323 L98.1678 995.323 L98.1678 991.387 Q100.83 988.633 105.413 984.003 Q110.02 979.35 111.2 978.008 Q113.445 975.485 114.325 973.749 Q115.228 971.989 115.228 970.3 Q115.228 967.545 113.283 965.809 Q111.362 964.073 108.26 964.073 Q106.061 964.073 103.608 964.837 Q101.177 965.6 98.3993 967.151 L98.3993 962.429 Q101.223 961.295 103.677 960.716 Q106.131 960.138 108.168 960.138 Q113.538 960.138 116.733 962.823 Q119.927 965.508 119.927 969.999 Q119.927 972.128 119.117 974.05 Q118.33 975.948 116.223 978.54 Q115.645 979.212 112.543 982.429 Q109.441 985.624 103.793 991.387 Z" fill="#000000" fill-rule="evenodd" fill-opacity="1" /><path clip-path="url(#clip780)" d="M601.338 867.206 L608.792 867.206 L618.109 902.611 L627.386 867.206 L636.176 867.206 L645.493 902.611 L654.77 867.206 L662.223 867.206 L650.354 912.576 L641.564 912.576 L631.801 875.389 L621.998 912.576 L613.207 912.576 L601.338 867.206 Z" fill="#000000" fill-rule="evenodd" fill-opacity="1" /><path clip-path="url(#clip780)" d="M699.37 879.966 Q705.244 881.222 708.525 885.192 Q711.847 889.162 711.847 894.995 Q711.847 903.948 705.69 908.849 Q699.532 913.751 688.19 913.751 Q684.382 913.751 680.331 912.981 Q676.32 912.252 672.027 910.753 L672.027 902.854 Q675.429 904.839 679.48 905.851 Q683.531 906.864 687.947 906.864 Q695.643 906.864 699.654 903.826 Q703.705 900.788 703.705 894.995 Q703.705 889.648 699.937 886.65 Q696.21 883.612 689.526 883.612 L682.478 883.612 L682.478 876.888 L689.85 876.888 Q695.886 876.888 699.087 874.498 Q702.287 872.067 702.287 867.53 Q702.287 862.871 698.965 860.4 Q695.684 857.889 689.526 857.889 Q686.164 857.889 682.316 858.618 Q678.467 859.347 673.849 860.886 L673.849 853.595 Q678.508 852.299 682.559 851.65 Q686.65 851.002 690.256 851.002 Q699.573 851.002 705.001 855.256 Q710.429 859.469 710.429 866.679 Q710.429 871.702 707.553 875.186 Q704.677 878.629 699.37 879.966 Z" fill="#000000" fill-rule="evenodd" fill-opacity="1" /><polyline clip-path="url(#clip784)" style="stroke:#0000ff; stroke-linecap:butt; stroke-linejoin:round; stroke-width:8; stroke-opacity:1; fill:none" points="
  184.441,1275.62 185.978,1275.6 187.515,1275.52 189.052,1275.4 190.589,1275.24 197.695,1273.88 204.801,1271.6 211.907,1268.45 219.012,1264.5 226.118,1259.81 
  233.224,1254.44 240.33,1248.45 247.436,1241.9 255.976,1233.37 264.517,1224.23 273.057,1214.58 281.598,1204.51 296.04,1186.83 310.482,1168.74 326.17,1149.12 
  341.858,1130.1 356.321,1113.52 370.784,1098.25 378.536,1090.72 386.289,1083.71 394.042,1077.26 401.795,1071.42 410.778,1065.46 419.76,1060.42 428.743,1056.34 
  437.725,1053.25 445.708,1051.38 453.69,1050.34 461.673,1050.15 469.655,1050.82 476.655,1052.11 483.655,1054.07 490.655,1056.69 497.655,1059.97 505.287,1064.29 
  512.919,1069.37 520.551,1075.19 528.183,1081.74 535.86,1089.04 543.537,1097.03 551.214,1105.67 558.892,1114.94 567.38,1125.87 575.868,1137.48 584.356,1149.7 
  592.844,1162.48 600.921,1175.1 608.997,1188.11 617.073,1201.47 625.149,1215.1 658.739,1273.44 687.015,1322.15 695.645,1336.5 704.275,1350.47 712.906,1363.99 
  721.536,1376.99 729.442,1388.38 737.348,1399.22 745.253,1409.46 753.159,1419.07 760.461,1427.32 767.763,1434.96 775.064,1441.95 782.366,1448.26 789.763,1453.93 
  797.159,1458.85 804.555,1463 811.952,1466.36 820.241,1469.16 828.53,1470.93 836.82,1471.65 845.109,1471.3 852.62,1470.07 860.132,1467.95 867.643,1464.95 
  875.154,1461.08 883.755,1455.59 892.355,1448.97 900.955,1441.25 909.555,1432.44 917.518,1423.36 925.481,1413.39 933.443,1402.58 941.406,1390.95 949.257,1378.72 
  957.107,1365.77 964.958,1352.12 972.808,1337.82 980.43,1323.35 988.053,1308.34 995.675,1292.83 1003.3,1276.85 1011.11,1260.02 1018.92,1242.79 1026.74,1225.19 
  1034.55,1207.27 1051.67,1167.04 1068.79,1125.84 1093.67,1064.94 1118.54,1003.51 1123.64,990.892 1128.74,978.273 
  "/>
<path clip-path="url(#clip780)" d="
M1351.8 1486.45 L2352.76 1486.45 L2352.76 963.472 L1351.8 963.472  Z
  " fill="#ffffff" fill-rule="evenodd" fill-opacity="1"/>
<defs>
  <clipPath id="clip785">
    <rect x="1351" y="963" width="1002" height="524"/>
  </clipPath>
</defs>
<polyline clip-path="url(#clip785)" style="stroke:#000000; stroke-linecap:butt; stroke-linejoin:round; stroke-width:2; stroke-opacity:0.1; fill:none" points="
  1380.12,1486.45 1380.12,963.472 
  "/>
<polyline clip-path="url(#clip785)" style="stroke:#000000; stroke-linecap:butt; stroke-linejoin:round; stroke-width:2; stroke-opacity:0.1; fill:none" points="
  1616.2,1486.45 1616.2,963.472 
  "/>
<polyline clip-path="url(#clip785)" style="stroke:#000000; stroke-linecap:butt; stroke-linejoin:round; stroke-width:2; stroke-opacity:0.1; fill:none" points="
  1852.28,1486.45 1852.28,963.472 
  "/>
<polyline clip-path="url(#clip785)" style="stroke:#000000; stroke-linecap:butt; stroke-linejoin:round; stroke-width:2; stroke-opacity:0.1; fill:none" points="
  2088.35,1486.45 2088.35,963.472 
  "/>
<polyline clip-path="url(#clip785)" style="stroke:#000000; stroke-linecap:butt; stroke-linejoin:round; stroke-width:2; stroke-opacity:0.1; fill:none" points="
  2324.43,1486.45 2324.43,963.472 
  "/>
<polyline clip-path="url(#clip780)" style="stroke:#000000; stroke-linecap:butt; stroke-linejoin:round; stroke-width:4; stroke-opacity:1; fill:none" points="
  1351.8,1486.45 2352.76,1486.45 
  "/>
<polyline clip-path="url(#clip780)" style="stroke:#000000; stroke-linecap:butt; stroke-linejoin:round; stroke-width:4; stroke-opacity:1; fill:none" points="
  1380.12,1486.45 1380.12,1467.55 
  "/>
<polyline clip-path="url(#clip780)" style="stroke:#000000; stroke-linecap:butt; stroke-linejoin:round; stroke-width:4; stroke-opacity:1; fill:none" points="
  1616.2,1486.45 1616.2,1467.55 
  "/>
<polyline clip-path="url(#clip780)" style="stroke:#000000; stroke-linecap:butt; stroke-linejoin:round; stroke-width:4; stroke-opacity:1; fill:none" points="
  1852.28,1486.45 1852.28,1467.55 
  "/>
<polyline clip-path="url(#clip780)" style="stroke:#000000; stroke-linecap:butt; stroke-linejoin:round; stroke-width:4; stroke-opacity:1; fill:none" points="
  2088.35,1486.45 2088.35,1467.55 
  "/>
<polyline clip-path="url(#clip780)" style="stroke:#000000; stroke-linecap:butt; stroke-linejoin:round; stroke-width:4; stroke-opacity:1; fill:none" points="
  2324.43,1486.45 2324.43,1467.55 
  "/>
<path clip-path="url(#clip780)" d="M1342.43 1517.37 Q1338.82 1517.37 1336.99 1520.93 Q1335.18 1524.47 1335.18 1531.6 Q1335.18 1538.71 1336.99 1542.27 Q1338.82 1545.82 1342.43 1545.82 Q1346.06 1545.82 1347.87 1542.27 Q1349.7 1538.71 1349.7 1531.6 Q1349.7 1524.47 1347.87 1520.93 Q1346.06 1517.37 1342.43 1517.37 M1342.43 1513.66 Q1348.24 1513.66 1351.29 1518.27 Q1354.37 1522.85 1354.37 1531.6 Q1354.37 1540.33 1351.29 1544.94 Q1348.24 1549.52 1342.43 1549.52 Q1336.62 1549.52 1333.54 1544.94 Q1330.48 1540.33 1330.48 1531.6 Q1330.48 1522.85 1333.54 1518.27 Q1336.62 1513.66 1342.43 1513.66 Z" fill="#000000" fill-rule="evenodd" fill-opacity="1" /><path clip-path="url(#clip780)" d="M1362.59 1542.97 L1367.47 1542.97 L1367.47 1548.85 L1362.59 1548.85 L1362.59 1542.97 Z" fill="#000000" fill-rule="evenodd" fill-opacity="1" /><path clip-path="url(#clip780)" d="M1387.66 1517.37 Q1384.05 1517.37 1382.22 1520.93 Q1380.41 1524.47 1380.41 1531.6 Q1380.41 1538.71 1382.22 1542.27 Q1384.05 1545.82 1387.66 1545.82 Q1391.29 1545.82 1393.1 1542.27 Q1394.93 1538.71 1394.93 1531.6 Q1394.93 1524.47 1393.1 1520.93 Q1391.29 1517.37 1387.66 1517.37 M1387.66 1513.66 Q1393.47 1513.66 1396.52 1518.27 Q1399.6 1522.85 1399.6 1531.6 Q1399.6 1540.33 1396.52 1544.94 Q1393.47 1549.52 1387.66 1549.52 Q1381.85 1549.52 1378.77 1544.94 Q1375.71 1540.33 1375.71 1531.6 Q1375.71 1522.85 1378.77 1518.27 Q1381.85 1513.66 1387.66 1513.66 Z" fill="#000000" fill-rule="evenodd" fill-opacity="1" /><path clip-path="url(#clip780)" d="M1417.82 1517.37 Q1414.21 1517.37 1412.38 1520.93 Q1410.58 1524.47 1410.58 1531.6 Q1410.58 1538.71 1412.38 1542.27 Q1414.21 1545.82 1417.82 1545.82 Q1421.45 1545.82 1423.26 1542.27 Q1425.09 1538.71 1425.09 1531.6 Q1425.09 1524.47 1423.26 1520.93 Q1421.45 1517.37 1417.82 1517.37 M1417.82 1513.66 Q1423.63 1513.66 1426.69 1518.27 Q1429.77 1522.85 1429.77 1531.6 Q1429.77 1540.33 1426.69 1544.94 Q1423.63 1549.52 1417.82 1549.52 Q1412.01 1549.52 1408.93 1544.94 Q1405.88 1540.33 1405.88 1531.6 Q1405.88 1522.85 1408.93 1518.27 Q1412.01 1513.66 1417.82 1513.66 Z" fill="#000000" fill-rule="evenodd" fill-opacity="1" /><path clip-path="url(#clip780)" d="M1579 1517.37 Q1575.39 1517.37 1573.56 1520.93 Q1571.76 1524.47 1571.76 1531.6 Q1571.76 1538.71 1573.56 1542.27 Q1575.39 1545.82 1579 1545.82 Q1582.64 1545.82 1584.44 1542.27 Q1586.27 1538.71 1586.27 1531.6 Q1586.27 1524.47 1584.44 1520.93 Q1582.64 1517.37 1579 1517.37 M1579 1513.66 Q1584.81 1513.66 1587.87 1518.27 Q1590.95 1522.85 1590.95 1531.6 Q1590.95 1540.33 1587.87 1544.94 Q1584.81 1549.52 1579 1549.52 Q1573.19 1549.52 1570.11 1544.94 Q1567.06 1540.33 1567.06 1531.6 Q1567.06 1522.85 1570.11 1518.27 Q1573.19 1513.66 1579 1513.66 Z" fill="#000000" fill-rule="evenodd" fill-opacity="1" /><path clip-path="url(#clip780)" d="M1599.16 1542.97 L1604.05 1542.97 L1604.05 1548.85 L1599.16 1548.85 L1599.16 1542.97 Z" fill="#000000" fill-rule="evenodd" fill-opacity="1" /><path clip-path="url(#clip780)" d="M1618.26 1544.91 L1634.58 1544.91 L1634.58 1548.85 L1612.63 1548.85 L1612.63 1544.91 Q1615.3 1542.16 1619.88 1537.53 Q1624.49 1532.88 1625.67 1531.53 Q1627.91 1529.01 1628.79 1527.27 Q1629.7 1525.51 1629.7 1523.82 Q1629.7 1521.07 1627.75 1519.33 Q1625.83 1517.6 1622.73 1517.6 Q1620.53 1517.6 1618.07 1518.36 Q1615.64 1519.13 1612.87 1520.68 L1612.87 1515.95 Q1615.69 1514.82 1618.14 1514.24 Q1620.6 1513.66 1622.63 1513.66 Q1628.01 1513.66 1631.2 1516.35 Q1634.39 1519.03 1634.39 1523.52 Q1634.39 1525.65 1633.58 1527.57 Q1632.8 1529.47 1630.69 1532.07 Q1630.11 1532.74 1627.01 1535.95 Q1623.91 1539.15 1618.26 1544.91 Z" fill="#000000" fill-rule="evenodd" fill-opacity="1" /><path clip-path="url(#clip780)" d="M1644.44 1514.29 L1662.8 1514.29 L1662.8 1518.22 L1648.72 1518.22 L1648.72 1526.7 Q1649.74 1526.35 1650.76 1526.19 Q1651.78 1526 1652.8 1526 Q1658.58 1526 1661.96 1529.17 Q1665.34 1532.34 1665.34 1537.76 Q1665.34 1543.34 1661.87 1546.44 Q1658.4 1549.52 1652.08 1549.52 Q1649.9 1549.52 1647.63 1549.15 Q1645.39 1548.78 1642.98 1548.04 L1642.98 1543.34 Q1645.07 1544.47 1647.29 1545.03 Q1649.51 1545.58 1651.99 1545.58 Q1655.99 1545.58 1658.33 1543.48 Q1660.67 1541.37 1660.67 1537.76 Q1660.67 1534.15 1658.33 1532.04 Q1655.99 1529.94 1651.99 1529.94 Q1650.11 1529.94 1648.24 1530.35 Q1646.38 1530.77 1644.44 1531.65 L1644.44 1514.29 Z" fill="#000000" fill-rule="evenodd" fill-opacity="1" /><path clip-path="url(#clip780)" d="M1814.58 1517.37 Q1810.97 1517.37 1809.14 1520.93 Q1807.33 1524.47 1807.33 1531.6 Q1807.33 1538.71 1809.14 1542.27 Q1810.97 1545.82 1814.58 1545.82 Q1818.21 1545.82 1820.02 1542.27 Q1821.85 1538.71 1821.85 1531.6 Q1821.85 1524.47 1820.02 1520.93 Q1818.21 1517.37 1814.58 1517.37 M1814.58 1513.66 Q1820.39 1513.66 1823.44 1518.27 Q1826.52 1522.85 1826.52 1531.6 Q1826.52 1540.33 1823.44 1544.94 Q1820.39 1549.52 1814.58 1549.52 Q1808.77 1549.52 1805.69 1544.94 Q1802.63 1540.33 1802.63 1531.6 Q1802.63 1522.85 1805.69 1518.27 Q1808.77 1513.66 1814.58 1513.66 Z" fill="#000000" fill-rule="evenodd" fill-opacity="1" /><path clip-path="url(#clip780)" d="M1834.74 1542.97 L1839.63 1542.97 L1839.63 1548.85 L1834.74 1548.85 L1834.74 1542.97 Z" fill="#000000" fill-rule="evenodd" fill-opacity="1" /><path clip-path="url(#clip780)" d="M1849.86 1514.29 L1868.21 1514.29 L1868.21 1518.22 L1854.14 1518.22 L1854.14 1526.7 Q1855.16 1526.35 1856.18 1526.19 Q1857.19 1526 1858.21 1526 Q1864 1526 1867.38 1529.17 Q1870.76 1532.34 1870.76 1537.76 Q1870.76 1543.34 1867.29 1546.44 Q1863.81 1549.52 1857.5 1549.52 Q1855.32 1549.52 1853.05 1549.15 Q1850.81 1548.78 1848.4 1548.04 L1848.4 1543.34 Q1850.48 1544.47 1852.7 1545.03 Q1854.93 1545.58 1857.4 1545.58 Q1861.41 1545.58 1863.75 1543.48 Q1866.08 1541.37 1866.08 1537.76 Q1866.08 1534.15 1863.75 1532.04 Q1861.41 1529.94 1857.4 1529.94 Q1855.53 1529.94 1853.65 1530.35 Q1851.8 1530.77 1849.86 1531.65 L1849.86 1514.29 Z" fill="#000000" fill-rule="evenodd" fill-opacity="1" /><path clip-path="url(#clip780)" d="M1889.97 1517.37 Q1886.36 1517.37 1884.53 1520.93 Q1882.73 1524.47 1882.73 1531.6 Q1882.73 1538.71 1884.53 1542.27 Q1886.36 1545.82 1889.97 1545.82 Q1893.61 1545.82 1895.41 1542.27 Q1897.24 1538.71 1897.24 1531.6 Q1897.24 1524.47 1895.41 1520.93 Q1893.61 1517.37 1889.97 1517.37 M1889.97 1513.66 Q1895.78 1513.66 1898.84 1518.27 Q1901.92 1522.85 1901.92 1531.6 Q1901.92 1540.33 1898.84 1544.94 Q1895.78 1549.52 1889.97 1549.52 Q1884.16 1549.52 1881.08 1544.94 Q1878.03 1540.33 1878.03 1531.6 Q1878.03 1522.85 1881.08 1518.27 Q1884.16 1513.66 1889.97 1513.66 Z" fill="#000000" fill-rule="evenodd" fill-opacity="1" /><path clip-path="url(#clip780)" d="M2051.15 1517.37 Q2047.54 1517.37 2045.71 1520.93 Q2043.91 1524.47 2043.91 1531.6 Q2043.91 1538.71 2045.71 1542.27 Q2047.54 1545.82 2051.15 1545.82 Q2054.79 1545.82 2056.59 1542.27 Q2058.42 1538.71 2058.42 1531.6 Q2058.42 1524.47 2056.59 1520.93 Q2054.79 1517.37 2051.15 1517.37 M2051.15 1513.66 Q2056.96 1513.66 2060.02 1518.27 Q2063.1 1522.85 2063.1 1531.6 Q2063.1 1540.33 2060.02 1544.94 Q2056.96 1549.52 2051.15 1549.52 Q2045.34 1549.52 2042.26 1544.94 Q2039.21 1540.33 2039.21 1531.6 Q2039.21 1522.85 2042.26 1518.27 Q2045.34 1513.66 2051.15 1513.66 Z" fill="#000000" fill-rule="evenodd" fill-opacity="1" /><path clip-path="url(#clip780)" d="M2071.31 1542.97 L2076.2 1542.97 L2076.2 1548.85 L2071.31 1548.85 L2071.31 1542.97 Z" fill="#000000" fill-rule="evenodd" fill-opacity="1" /><path clip-path="url(#clip780)" d="M2085.2 1514.29 L2107.43 1514.29 L2107.43 1516.28 L2094.88 1548.85 L2089.99 1548.85 L2101.8 1518.22 L2085.2 1518.22 L2085.2 1514.29 Z" fill="#000000" fill-rule="evenodd" fill-opacity="1" /><path clip-path="url(#clip780)" d="M2116.59 1514.29 L2134.95 1514.29 L2134.95 1518.22 L2120.87 1518.22 L2120.87 1526.7 Q2121.89 1526.35 2122.91 1526.19 Q2123.93 1526 2124.95 1526 Q2130.74 1526 2134.11 1529.17 Q2137.49 1532.34 2137.49 1537.76 Q2137.49 1543.34 2134.02 1546.44 Q2130.55 1549.52 2124.23 1549.52 Q2122.05 1549.52 2119.79 1549.15 Q2117.54 1548.78 2115.13 1548.04 L2115.13 1543.34 Q2117.22 1544.47 2119.44 1545.03 Q2121.66 1545.58 2124.14 1545.58 Q2128.14 1545.58 2130.48 1543.48 Q2132.82 1541.37 2132.82 1537.76 Q2132.82 1534.15 2130.48 1532.04 Q2128.14 1529.94 2124.14 1529.94 Q2122.26 1529.94 2120.39 1530.35 Q2118.54 1530.77 2116.59 1531.65 L2116.59 1514.29 Z" fill="#000000" fill-rule="evenodd" fill-opacity="1" /><path clip-path="url(#clip780)" d="M2276.5 1544.91 L2284.14 1544.91 L2284.14 1518.55 L2275.83 1520.21 L2275.83 1515.95 L2284.09 1514.29 L2288.77 1514.29 L2288.77 1544.91 L2296.41 1544.91 L2296.41 1548.85 L2276.5 1548.85 L2276.5 1544.91 Z" fill="#000000" fill-rule="evenodd" fill-opacity="1" /><path clip-path="url(#clip780)" d="M2305.85 1542.97 L2310.73 1542.97 L2310.73 1548.85 L2305.85 1548.85 L2305.85 1542.97 Z" fill="#000000" fill-rule="evenodd" fill-opacity="1" /><path clip-path="url(#clip780)" d="M2330.92 1517.37 Q2327.31 1517.37 2325.48 1520.93 Q2323.67 1524.47 2323.67 1531.6 Q2323.67 1538.71 2325.48 1542.27 Q2327.31 1545.82 2330.92 1545.82 Q2334.55 1545.82 2336.36 1542.27 Q2338.19 1538.71 2338.19 1531.6 Q2338.19 1524.47 2336.36 1520.93 Q2334.55 1517.37 2330.92 1517.37 M2330.92 1513.66 Q2336.73 1513.66 2339.79 1518.27 Q2342.86 1522.85 2342.86 1531.6 Q2342.86 1540.33 2339.79 1544.94 Q2336.73 1549.52 2330.92 1549.52 Q2325.11 1549.52 2322.03 1544.94 Q2318.98 1540.33 2318.98 1531.6 Q2318.98 1522.85 2322.03 1518.27 Q2325.11 1513.66 2330.92 1513.66 Z" fill="#000000" fill-rule="evenodd" fill-opacity="1" /><path clip-path="url(#clip780)" d="M2361.08 1517.37 Q2357.47 1517.37 2355.64 1520.93 Q2353.84 1524.47 2353.84 1531.6 Q2353.84 1538.71 2355.64 1542.27 Q2357.47 1545.82 2361.08 1545.82 Q2364.72 1545.82 2366.52 1542.27 Q2368.35 1538.71 2368.35 1531.6 Q2368.35 1524.47 2366.52 1520.93 Q2364.72 1517.37 2361.08 1517.37 M2361.08 1513.66 Q2366.89 1513.66 2369.95 1518.27 Q2373.03 1522.85 2373.03 1531.6 Q2373.03 1540.33 2369.95 1544.94 Q2366.89 1549.52 2361.08 1549.52 Q2355.27 1549.52 2352.19 1544.94 Q2349.14 1540.33 2349.14 1531.6 Q2349.14 1522.85 2352.19 1518.27 Q2355.27 1513.66 2361.08 1513.66 Z" fill="#000000" fill-rule="evenodd" fill-opacity="1" /><polyline clip-path="url(#clip785)" style="stroke:#000000; stroke-linecap:butt; stroke-linejoin:round; stroke-width:2; stroke-opacity:0.1; fill:none" points="
  1351.8,1471.64 2352.76,1471.64 
  "/>
<polyline clip-path="url(#clip785)" style="stroke:#000000; stroke-linecap:butt; stroke-linejoin:round; stroke-width:2; stroke-opacity:0.1; fill:none" points="
  1351.8,1331.16 2352.76,1331.16 
  "/>
<polyline clip-path="url(#clip785)" style="stroke:#000000; stroke-linecap:butt; stroke-linejoin:round; stroke-width:2; stroke-opacity:0.1; fill:none" points="
  1351.8,1190.68 2352.76,1190.68 
  "/>
<polyline clip-path="url(#clip785)" style="stroke:#000000; stroke-linecap:butt; stroke-linejoin:round; stroke-width:2; stroke-opacity:0.1; fill:none" points="
  1351.8,1050.2 2352.76,1050.2 
  "/>
<polyline clip-path="url(#clip780)" style="stroke:#000000; stroke-linecap:butt; stroke-linejoin:round; stroke-width:4; stroke-opacity:1; fill:none" points="
  1351.8,1486.45 1351.8,963.472 
  "/>
<polyline clip-path="url(#clip780)" style="stroke:#000000; stroke-linecap:butt; stroke-linejoin:round; stroke-width:4; stroke-opacity:1; fill:none" points="
  1351.8,1471.64 1370.69,1471.64 
  "/>
<polyline clip-path="url(#clip780)" style="stroke:#000000; stroke-linecap:butt; stroke-linejoin:round; stroke-width:4; stroke-opacity:1; fill:none" points="
  1351.8,1331.16 1370.69,1331.16 
  "/>
<polyline clip-path="url(#clip780)" style="stroke:#000000; stroke-linecap:butt; stroke-linejoin:round; stroke-width:4; stroke-opacity:1; fill:none" points="
  1351.8,1190.68 1370.69,1190.68 
  "/>
<polyline clip-path="url(#clip780)" style="stroke:#000000; stroke-linecap:butt; stroke-linejoin:round; stroke-width:4; stroke-opacity:1; fill:none" points="
  1351.8,1050.2 1370.69,1050.2 
  "/>
<path clip-path="url(#clip780)" d="M1255.68 1472.09 L1285.36 1472.09 L1285.36 1476.02 L1255.68 1476.02 L1255.68 1472.09 Z" fill="#000000" fill-rule="evenodd" fill-opacity="1" /><path clip-path="url(#clip780)" d="M1299.48 1484.98 L1315.8 1484.98 L1315.8 1488.92 L1293.85 1488.92 L1293.85 1484.98 Q1296.51 1482.23 1301.1 1477.6 Q1305.7 1472.95 1306.88 1471.6 Q1309.13 1469.08 1310.01 1467.34 Q1310.91 1465.58 1310.91 1463.89 Q1310.91 1461.14 1308.97 1459.4 Q1307.05 1457.67 1303.94 1457.67 Q1301.74 1457.67 1299.29 1458.43 Q1296.86 1459.2 1294.08 1460.75 L1294.08 1456.02 Q1296.91 1454.89 1299.36 1454.31 Q1301.81 1453.73 1303.85 1453.73 Q1309.22 1453.73 1312.42 1456.42 Q1315.61 1459.1 1315.61 1463.59 Q1315.61 1465.72 1314.8 1467.64 Q1314.01 1469.54 1311.91 1472.13 Q1311.33 1472.81 1308.23 1476.02 Q1305.12 1479.22 1299.48 1484.98 Z" fill="#000000" fill-rule="evenodd" fill-opacity="1" /><path clip-path="url(#clip780)" d="M1255.31 1331.61 L1284.98 1331.61 L1284.98 1335.54 L1255.31 1335.54 L1255.31 1331.61 Z" fill="#000000" fill-rule="evenodd" fill-opacity="1" /><path clip-path="url(#clip780)" d="M1295.89 1344.5 L1303.53 1344.5 L1303.53 1318.14 L1295.22 1319.8 L1295.22 1315.54 L1303.48 1313.88 L1308.16 1313.88 L1308.16 1344.5 L1315.8 1344.5 L1315.8 1348.44 L1295.89 1348.44 L1295.89 1344.5 Z" fill="#000000" fill-rule="evenodd" fill-opacity="1" /><path clip-path="url(#clip780)" d="M1303.85 1176.47 Q1300.24 1176.47 1298.41 1180.04 Q1296.61 1183.58 1296.61 1190.71 Q1296.61 1197.82 1298.41 1201.38 Q1300.24 1204.92 1303.85 1204.92 Q1307.48 1204.92 1309.29 1201.38 Q1311.12 1197.82 1311.12 1190.71 Q1311.12 1183.58 1309.29 1180.04 Q1307.48 1176.47 1303.85 1176.47 M1303.85 1172.77 Q1309.66 1172.77 1312.72 1177.38 Q1315.8 1181.96 1315.8 1190.71 Q1315.8 1199.44 1312.72 1204.04 Q1309.66 1208.63 1303.85 1208.63 Q1298.04 1208.63 1294.96 1204.04 Q1291.91 1199.44 1291.91 1190.71 Q1291.91 1181.96 1294.96 1177.38 Q1298.04 1172.77 1303.85 1172.77 Z" fill="#000000" fill-rule="evenodd" fill-opacity="1" /><path clip-path="url(#clip780)" d="M1295.89 1063.54 L1303.53 1063.54 L1303.53 1037.17 L1295.22 1038.84 L1295.22 1034.58 L1303.48 1032.92 L1308.16 1032.92 L1308.16 1063.54 L1315.8 1063.54 L1315.8 1067.48 L1295.89 1067.48 L1295.89 1063.54 Z" fill="#000000" fill-rule="evenodd" fill-opacity="1" /><path clip-path="url(#clip780)" d="M1796.03 867.206 L1803.48 867.206 L1812.8 902.611 L1822.08 867.206 L1830.87 867.206 L1840.18 902.611 L1849.46 867.206 L1856.91 867.206 L1845.04 912.576 L1836.25 912.576 L1826.49 875.389 L1816.69 912.576 L1807.9 912.576 L1796.03 867.206 Z" fill="#000000" fill-rule="evenodd" fill-opacity="1" /><path clip-path="url(#clip780)" d="M1891.75 859.226 L1871.09 891.511 L1891.75 891.511 L1891.75 859.226 M1889.6 852.096 L1899.89 852.096 L1899.89 891.511 L1908.52 891.511 L1908.52 898.317 L1899.89 898.317 L1899.89 912.576 L1891.75 912.576 L1891.75 898.317 L1864.45 898.317 L1864.45 890.418 L1889.6 852.096 Z" fill="#000000" fill-rule="evenodd" fill-opacity="1" /><polyline clip-path="url(#clip785)" style="stroke:#0000ff; stroke-linecap:butt; stroke-linejoin:round; stroke-width:8; stroke-opacity:1; fill:none" points="
  1380.12,1190.68 1381.66,1190.63 1383.2,1190.5 1384.74,1190.28 1386.27,1189.97 1389.82,1188.95 1393.38,1187.5 1396.93,1185.65 1400.48,1183.4 1404.04,1180.8 
  1407.59,1177.84 1411.14,1174.56 1414.7,1170.96 1421.8,1162.94 1428.91,1153.92 1436.01,1144.06 1443.12,1133.52 1460.2,1106.28 1477.28,1078 1484.5,1066.2 
  1491.72,1054.68 1498.94,1043.59 1506.16,1033.04 1514.01,1022.32 1521.85,1012.52 1529.7,1003.75 1537.54,996.127 1544.77,990.204 1552,985.408 1559.23,981.798 
  1566.47,979.421 1570.34,978.668 1574.22,978.284 1578.1,978.273 1581.97,978.638 1585.85,979.38 1589.73,980.501 1593.6,982 1597.48,983.877 1601.97,986.521 
  1606.46,989.665 1610.95,993.304 1615.44,997.431 1619.93,1002.04 1624.43,1007.11 1628.92,1012.64 1633.41,1018.62 1641.39,1030.3 1649.37,1043.24 1657.36,1057.35 
  1665.34,1072.52 1672.34,1086.6 1679.34,1101.3 1686.34,1116.54 1693.34,1132.22 1708.6,1167.46 1723.87,1203.24 1739.22,1238.68 1754.57,1272.46 1758.82,1281.36 
  1763.06,1290.03 1767.31,1298.46 1771.55,1306.61 1780.04,1322.03 1788.53,1336.15 1792.57,1342.37 1796.6,1348.25 1800.64,1353.78 1804.68,1358.94 1808.72,1363.73 
  1812.76,1368.14 1816.79,1372.15 1820.83,1375.75 1825.03,1379.07 1829.23,1381.93 1833.43,1384.33 1837.63,1386.27 1841.83,1387.74 1846.02,1388.74 1850.22,1389.26 
  1854.42,1389.32 1861.49,1388.33 1868.56,1386.01 1875.63,1382.36 1882.7,1377.43 1887.01,1373.79 1891.33,1369.7 1895.64,1365.16 1899.96,1360.18 1904.27,1354.77 
  1908.59,1348.95 1912.9,1342.74 1917.22,1336.15 1925.12,1323.15 1933.03,1309.05 1936.98,1301.62 1940.94,1293.96 1944.89,1286.09 1948.84,1278.02 1963.45,1246.82 
  1978.05,1214.1 1992.84,1180.42 2007.63,1147.21 2015.92,1129.19 2024.21,1111.81 2032.5,1095.24 2040.79,1079.65 2048.3,1066.49 2055.81,1054.36 2063.33,1043.37 
  2070.84,1033.61 2075.14,1028.61 2079.44,1024.05 2083.74,1019.95 2088.04,1016.33 2092.34,1013.18 2096.64,1010.52 2100.94,1008.37 2105.24,1006.72 2109.22,1005.66 
  2113.2,1005.04 2117.18,1004.88 2121.16,1005.16 2125.14,1005.91 2129.13,1007.1 2133.11,1008.76 2137.09,1010.87 2141.01,1013.4 2144.94,1016.36 2148.86,1019.76 
  2152.79,1023.6 2156.72,1027.86 2160.64,1032.55 2164.57,1037.65 2168.49,1043.17 2172.3,1048.91 2176.11,1055.02 2179.92,1061.5 2183.74,1068.34 2191.36,1083.05 
  2198.98,1099.07 2206.79,1116.78 2214.61,1135.69 2222.42,1155.71 2230.23,1176.72 2238.8,1200.76 2247.36,1225.73 2255.92,1251.49 2264.48,1277.91 2276.91,1317.18 
  2289.35,1357.19 2301.79,1397.63 2314.22,1438.26 2316.77,1446.61 2319.32,1454.95 2321.88,1463.3 2324.43,1471.65 
  "/>
<path clip-path="url(#clip780)" d="
M156.112 80 L2352.76 80 L2352.76 0 L156.112 0  Z
  " fill="#ffffff" fill-rule="evenodd" fill-opacity="1"/>
<defs>
  <clipPath id="clip786">
    <rect x="156" y="0" width="2198" height="81"/>
  </clipPath>
</defs>
<path clip-path="url(#clip780)" d="M690.919 23.0369 L678.233 57.4349 L703.65 57.4349 L690.919 23.0369 M685.641 13.824 L696.243 13.824 L722.585 82.944 L712.863 82.944 L706.567 65.2126 L675.409 65.2126 L669.113 82.944 L659.252 82.944 L685.641 13.824 Z" fill="#000000" fill-rule="evenodd" fill-opacity="1" /><path clip-path="url(#clip780)" d="M775.409 51.6479 L775.409 82.944 L766.89 82.944 L766.89 51.9256 Q766.89 44.5646 764.02 40.9072 Q761.15 37.2498 755.409 37.2498 Q748.511 37.2498 744.529 41.6479 Q740.548 46.046 740.548 53.6386 L740.548 82.944 L731.983 82.944 L731.983 31.0924 L740.548 31.0924 L740.548 39.1479 Q743.603 34.472 747.724 32.1572 Q751.89 29.8424 757.307 29.8424 Q766.242 29.8424 770.825 35.398 Q775.409 40.9072 775.409 51.6479 Z" fill="#000000" fill-rule="evenodd" fill-opacity="1" /><path clip-path="url(#clip780)" d="M815.964 56.8793 Q805.64 56.8793 801.659 59.2404 Q797.677 61.6015 797.677 67.2959 Q797.677 71.8329 800.64 74.5181 Q803.649 77.157 808.788 77.157 Q815.872 77.157 820.131 72.157 Q824.436 67.1108 824.436 58.7775 L824.436 56.8793 L815.964 56.8793 M832.955 53.3608 L832.955 82.944 L824.436 82.944 L824.436 75.0737 Q821.52 79.7959 817.168 82.0644 Q812.816 84.2866 806.52 84.2866 Q798.557 84.2866 793.835 79.8422 Q789.159 75.3514 789.159 67.8515 Q789.159 59.1015 794.992 54.6571 Q800.872 50.2127 812.492 50.2127 L824.436 50.2127 L824.436 49.3794 Q824.436 43.4998 820.547 40.3053 Q816.705 37.0646 809.714 37.0646 Q805.27 37.0646 801.057 38.1294 Q796.844 39.1942 792.955 41.3239 L792.955 33.4535 Q797.631 31.648 802.029 30.7684 Q806.427 29.8424 810.594 29.8424 Q821.844 29.8424 827.399 35.6757 Q832.955 41.509 832.955 53.3608 Z" fill="#000000" fill-rule="evenodd" fill-opacity="1" /><path clip-path="url(#clip780)" d="M850.501 10.9073 L859.019 10.9073 L859.019 82.944 L850.501 82.944 L850.501 10.9073 Z" fill="#000000" fill-rule="evenodd" fill-opacity="1" /><path clip-path="url(#clip780)" d="M898.417 87.7588 Q894.806 97.018 891.38 99.8421 Q887.954 102.666 882.214 102.666 L875.408 102.666 L875.408 95.5365 L880.408 95.5365 Q883.927 95.5365 885.871 93.8699 Q887.816 92.2032 890.177 85.9995 L891.704 82.1107 L870.732 31.0924 L879.76 31.0924 L895.964 71.6478 L912.167 31.0924 L921.195 31.0924 L898.417 87.7588 Z" fill="#000000" fill-rule="evenodd" fill-opacity="1" /><path clip-path="url(#clip780)" d="M941.38 16.3703 L941.38 31.0924 L958.926 31.0924 L958.926 37.7128 L941.38 37.7128 L941.38 65.8608 Q941.38 72.2033 943.093 74.0089 Q944.852 75.8144 950.176 75.8144 L958.926 75.8144 L958.926 82.944 L950.176 82.944 Q940.315 82.944 936.565 79.2866 Q932.815 75.5829 932.815 65.8608 L932.815 37.7128 L926.565 37.7128 L926.565 31.0924 L932.815 31.0924 L932.815 16.3703 L941.38 16.3703 Z" fill="#000000" fill-rule="evenodd" fill-opacity="1" /><path clip-path="url(#clip780)" d="M970.13 31.0924 L978.648 31.0924 L978.648 82.944 L970.13 82.944 L970.13 31.0924 M970.13 10.9073 L978.648 10.9073 L978.648 21.6943 L970.13 21.6943 L970.13 10.9073 Z" fill="#000000" fill-rule="evenodd" fill-opacity="1" /><path clip-path="url(#clip780)" d="M1033.79 33.0832 L1033.79 41.0461 Q1030.18 39.0553 1026.52 38.0831 Q1022.91 37.0646 1019.2 37.0646 Q1010.92 37.0646 1006.33 42.3424 Q1001.75 47.5738 1001.75 57.0645 Q1001.75 66.5552 1006.33 71.8329 Q1010.92 77.0644 1019.2 77.0644 Q1022.91 77.0644 1026.52 76.0922 Q1030.18 75.0737 1033.79 73.0829 L1033.79 80.9533 Q1030.22 82.6199 1026.38 83.4533 Q1022.58 84.2866 1018.28 84.2866 Q1006.56 84.2866 999.667 76.9255 Q992.769 69.5644 992.769 57.0645 Q992.769 44.3794 999.713 37.1109 Q1006.7 29.8424 1018.83 29.8424 Q1022.77 29.8424 1026.52 30.6758 Q1030.27 31.4628 1033.79 33.0832 Z" fill="#000000" fill-rule="evenodd" fill-opacity="1" /><path clip-path="url(#clip780)" d="M1072.17 56.8793 Q1061.84 56.8793 1057.86 59.2404 Q1053.88 61.6015 1053.88 67.2959 Q1053.88 71.8329 1056.84 74.5181 Q1059.85 77.157 1064.99 77.157 Q1072.07 77.157 1076.33 72.157 Q1080.64 67.1108 1080.64 58.7775 L1080.64 56.8793 L1072.17 56.8793 M1089.16 53.3608 L1089.16 82.944 L1080.64 82.944 L1080.64 75.0737 Q1077.72 79.7959 1073.37 82.0644 Q1069.02 84.2866 1062.72 84.2866 Q1054.76 84.2866 1050.04 79.8422 Q1045.36 75.3514 1045.36 67.8515 Q1045.36 59.1015 1051.19 54.6571 Q1057.07 50.2127 1068.69 50.2127 L1080.64 50.2127 L1080.64 49.3794 Q1080.64 43.4998 1076.75 40.3053 Q1072.91 37.0646 1065.92 37.0646 Q1061.47 37.0646 1057.26 38.1294 Q1053.05 39.1942 1049.16 41.3239 L1049.16 33.4535 Q1053.83 31.648 1058.23 30.7684 Q1062.63 29.8424 1066.8 29.8424 Q1078.05 29.8424 1083.6 35.6757 Q1089.16 41.509 1089.16 53.3608 Z" fill="#000000" fill-rule="evenodd" fill-opacity="1" /><path clip-path="url(#clip780)" d="M1106.7 10.9073 L1115.22 10.9073 L1115.22 82.944 L1106.7 82.944 L1106.7 10.9073 Z" fill="#000000" fill-rule="evenodd" fill-opacity="1" /><path clip-path="url(#clip780)" d="M1207.54 54.8886 L1207.54 59.0552 L1168.37 59.0552 Q1168.93 67.8515 1173.65 72.4811 Q1178.42 77.0644 1186.89 77.0644 Q1191.8 77.0644 1196.38 75.8607 Q1201.01 74.657 1205.55 72.2496 L1205.55 80.3051 Q1200.96 82.2496 1196.15 83.2681 Q1191.33 84.2866 1186.38 84.2866 Q1173.97 84.2866 1166.7 77.0644 Q1159.48 69.8422 1159.48 57.5275 Q1159.48 44.7961 1166.33 37.3424 Q1173.23 29.8424 1184.9 29.8424 Q1195.36 29.8424 1201.43 36.6017 Q1207.54 43.3146 1207.54 54.8886 M1199.02 52.3886 Q1198.93 45.3979 1195.08 41.2313 Q1191.29 37.0646 1184.99 37.0646 Q1177.86 37.0646 1173.55 41.0924 Q1169.3 45.1201 1168.65 52.4349 L1199.02 52.3886 Z" fill="#000000" fill-rule="evenodd" fill-opacity="1" /><path clip-path="url(#clip780)" d="M1221.52 31.0924 L1230.04 31.0924 L1230.04 82.944 L1221.52 82.944 L1221.52 31.0924 M1221.52 10.9073 L1230.04 10.9073 L1230.04 21.6943 L1221.52 21.6943 L1221.52 10.9073 Z" fill="#000000" fill-rule="evenodd" fill-opacity="1" /><path clip-path="url(#clip780)" d="M1281.98 56.4164 Q1281.98 47.1572 1278.14 42.0646 Q1274.34 36.972 1267.44 36.972 Q1260.59 36.972 1256.75 42.0646 Q1252.95 47.1572 1252.95 56.4164 Q1252.95 65.6293 1256.75 70.7218 Q1260.59 75.8144 1267.44 75.8144 Q1274.34 75.8144 1278.14 70.7218 Q1281.98 65.6293 1281.98 56.4164 M1290.5 76.5088 Q1290.5 89.7495 1284.62 96.1847 Q1278.74 102.666 1266.61 102.666 Q1262.12 102.666 1258.14 101.972 Q1254.16 101.324 1250.41 99.9346 L1250.41 91.6477 Q1254.16 93.6847 1257.81 94.6569 Q1261.47 95.6291 1265.27 95.6291 Q1273.65 95.6291 1277.81 91.231 Q1281.98 86.8792 1281.98 78.0366 L1281.98 73.8237 Q1279.34 78.407 1275.22 80.6755 Q1271.1 82.944 1265.36 82.944 Q1255.82 82.944 1249.99 75.6755 Q1244.16 68.407 1244.16 56.4164 Q1244.16 44.3794 1249.99 37.1109 Q1255.82 29.8424 1265.36 29.8424 Q1271.1 29.8424 1275.22 32.1109 Q1279.34 34.3794 1281.98 38.9628 L1281.98 31.0924 L1290.5 31.0924 L1290.5 76.5088 Z" fill="#000000" fill-rule="evenodd" fill-opacity="1" /><path clip-path="url(#clip780)" d="M1352.4 54.8886 L1352.4 59.0552 L1313.23 59.0552 Q1313.79 67.8515 1318.51 72.4811 Q1323.28 77.0644 1331.75 77.0644 Q1336.66 77.0644 1341.24 75.8607 Q1345.87 74.657 1350.41 72.2496 L1350.41 80.3051 Q1345.82 82.2496 1341.01 83.2681 Q1336.19 84.2866 1331.24 84.2866 Q1318.83 84.2866 1311.56 77.0644 Q1304.34 69.8422 1304.34 57.5275 Q1304.34 44.7961 1311.19 37.3424 Q1318.09 29.8424 1329.76 29.8424 Q1340.22 29.8424 1346.29 36.6017 Q1352.4 43.3146 1352.4 54.8886 M1343.88 52.3886 Q1343.79 45.3979 1339.94 41.2313 Q1336.15 37.0646 1329.85 37.0646 Q1322.72 37.0646 1318.42 41.0924 Q1314.16 45.1201 1313.51 52.4349 L1343.88 52.3886 Z" fill="#000000" fill-rule="evenodd" fill-opacity="1" /><path clip-path="url(#clip780)" d="M1409.48 51.6479 L1409.48 82.944 L1400.96 82.944 L1400.96 51.9256 Q1400.96 44.5646 1398.09 40.9072 Q1395.22 37.2498 1389.48 37.2498 Q1382.58 37.2498 1378.6 41.6479 Q1374.62 46.046 1374.62 53.6386 L1374.62 82.944 L1366.05 82.944 L1366.05 31.0924 L1374.62 31.0924 L1374.62 39.1479 Q1377.67 34.472 1381.79 32.1572 Q1385.96 29.8424 1391.38 29.8424 Q1400.31 29.8424 1404.9 35.398 Q1409.48 40.9072 1409.48 51.6479 Z" fill="#000000" fill-rule="evenodd" fill-opacity="1" /><path clip-path="url(#clip780)" d="M1452.72 10.9073 L1452.72 17.9906 L1444.57 17.9906 Q1439.99 17.9906 1438.18 19.8425 Q1436.42 21.6943 1436.42 26.5091 L1436.42 31.0924 L1450.45 31.0924 L1450.45 37.7128 L1436.42 37.7128 L1436.42 82.944 L1427.86 82.944 L1427.86 37.7128 L1419.71 37.7128 L1419.71 31.0924 L1427.86 31.0924 L1427.86 27.4813 Q1427.86 18.824 1431.89 14.8888 Q1435.91 10.9073 1444.66 10.9073 L1452.72 10.9073 Z" fill="#000000" fill-rule="evenodd" fill-opacity="1" /><path clip-path="url(#clip780)" d="M1458.97 62.4811 L1458.97 31.0924 L1467.49 31.0924 L1467.49 62.1571 Q1467.49 69.5181 1470.36 73.2218 Q1473.23 76.8792 1478.97 76.8792 Q1485.87 76.8792 1489.85 72.4811 Q1493.88 68.083 1493.88 60.4904 L1493.88 31.0924 L1502.4 31.0924 L1502.4 82.944 L1493.88 82.944 L1493.88 74.9811 Q1490.78 79.7033 1486.65 82.0181 Q1482.58 84.2866 1477.16 84.2866 Q1468.23 84.2866 1463.6 78.7311 Q1458.97 73.1755 1458.97 62.4811 M1480.41 29.8424 L1480.41 29.8424 Z" fill="#000000" fill-rule="evenodd" fill-opacity="1" /><path clip-path="url(#clip780)" d="M1563.04 51.6479 L1563.04 82.944 L1554.53 82.944 L1554.53 51.9256 Q1554.53 44.5646 1551.65 40.9072 Q1548.78 37.2498 1543.04 37.2498 Q1536.15 37.2498 1532.16 41.6479 Q1528.18 46.046 1528.18 53.6386 L1528.18 82.944 L1519.62 82.944 L1519.62 31.0924 L1528.18 31.0924 L1528.18 39.1479 Q1531.24 34.472 1535.36 32.1572 Q1539.53 29.8424 1544.94 29.8424 Q1553.88 29.8424 1558.46 35.398 Q1563.04 40.9072 1563.04 51.6479 Z" fill="#000000" fill-rule="evenodd" fill-opacity="1" /><path clip-path="url(#clip780)" d="M1617.35 33.0832 L1617.35 41.0461 Q1613.74 39.0553 1610.08 38.0831 Q1606.47 37.0646 1602.77 37.0646 Q1594.48 37.0646 1589.9 42.3424 Q1585.31 47.5738 1585.31 57.0645 Q1585.31 66.5552 1589.9 71.8329 Q1594.48 77.0644 1602.77 77.0644 Q1606.47 77.0644 1610.08 76.0922 Q1613.74 75.0737 1617.35 73.0829 L1617.35 80.9533 Q1613.78 82.6199 1609.94 83.4533 Q1606.15 84.2866 1601.84 84.2866 Q1590.13 84.2866 1583.23 76.9255 Q1576.33 69.5644 1576.33 57.0645 Q1576.33 44.3794 1583.27 37.1109 Q1590.27 29.8424 1602.4 29.8424 Q1606.33 29.8424 1610.08 30.6758 Q1613.83 31.4628 1617.35 33.0832 Z" fill="#000000" fill-rule="evenodd" fill-opacity="1" /><path clip-path="url(#clip780)" d="M1640.59 16.3703 L1640.59 31.0924 L1658.14 31.0924 L1658.14 37.7128 L1640.59 37.7128 L1640.59 65.8608 Q1640.59 72.2033 1642.3 74.0089 Q1644.06 75.8144 1649.39 75.8144 L1658.14 75.8144 L1658.14 82.944 L1649.39 82.944 Q1639.52 82.944 1635.77 79.2866 Q1632.02 75.5829 1632.02 65.8608 L1632.02 37.7128 L1625.77 37.7128 L1625.77 31.0924 L1632.02 31.0924 L1632.02 16.3703 L1640.59 16.3703 Z" fill="#000000" fill-rule="evenodd" fill-opacity="1" /><path clip-path="url(#clip780)" d="M1669.34 31.0924 L1677.86 31.0924 L1677.86 82.944 L1669.34 82.944 L1669.34 31.0924 M1669.34 10.9073 L1677.86 10.9073 L1677.86 21.6943 L1669.34 21.6943 L1669.34 10.9073 Z" fill="#000000" fill-rule="evenodd" fill-opacity="1" /><path clip-path="url(#clip780)" d="M1715.77 37.0646 Q1708.92 37.0646 1704.94 42.435 Q1700.96 47.759 1700.96 57.0645 Q1700.96 66.37 1704.89 71.7404 Q1708.88 77.0644 1715.77 77.0644 Q1722.58 77.0644 1726.56 71.6941 Q1730.54 66.3237 1730.54 57.0645 Q1730.54 47.8516 1726.56 42.4813 Q1722.58 37.0646 1715.77 37.0646 M1715.77 29.8424 Q1726.89 29.8424 1733.23 37.0646 Q1739.57 44.2868 1739.57 57.0645 Q1739.57 69.7959 1733.23 77.0644 Q1726.89 84.2866 1715.77 84.2866 Q1704.62 84.2866 1698.27 77.0644 Q1691.98 69.7959 1691.98 57.0645 Q1691.98 44.2868 1698.27 37.0646 Q1704.62 29.8424 1715.77 29.8424 Z" fill="#000000" fill-rule="evenodd" fill-opacity="1" /><path clip-path="url(#clip780)" d="M1796.79 51.6479 L1796.79 82.944 L1788.27 82.944 L1788.27 51.9256 Q1788.27 44.5646 1785.4 40.9072 Q1782.53 37.2498 1776.79 37.2498 Q1769.89 37.2498 1765.91 41.6479 Q1761.93 46.046 1761.93 53.6386 L1761.93 82.944 L1753.37 82.944 L1753.37 31.0924 L1761.93 31.0924 L1761.93 39.1479 Q1764.99 34.472 1769.11 32.1572 Q1773.27 29.8424 1778.69 29.8424 Q1787.63 29.8424 1792.21 35.398 Q1796.79 40.9072 1796.79 51.6479 Z" fill="#000000" fill-rule="evenodd" fill-opacity="1" /><path clip-path="url(#clip780)" d="M1846.84 32.6202 L1846.84 40.6757 Q1843.23 38.8239 1839.34 37.8979 Q1835.45 36.972 1831.28 36.972 Q1824.94 36.972 1821.75 38.9165 Q1818.6 40.8609 1818.6 44.7498 Q1818.6 47.7127 1820.87 49.4257 Q1823.13 51.0923 1829.99 52.6201 L1832.9 53.2682 Q1841.98 55.2127 1845.77 58.7775 Q1849.62 62.296 1849.62 68.6385 Q1849.62 75.8607 1843.88 80.0736 Q1838.18 84.2866 1828.18 84.2866 Q1824.01 84.2866 1819.48 83.4533 Q1814.99 82.6662 1809.99 81.0459 L1809.99 72.2496 Q1814.71 74.7033 1819.29 75.9533 Q1823.88 77.157 1828.37 77.157 Q1834.38 77.157 1837.63 75.12 Q1840.87 73.0366 1840.87 69.2867 Q1840.87 65.8145 1838.5 63.9626 Q1836.19 62.1108 1828.27 60.3978 L1825.31 59.7034 Q1817.39 58.0367 1813.88 54.6108 Q1810.36 51.1386 1810.36 45.1201 Q1810.36 37.8054 1815.54 33.8239 Q1820.73 29.8424 1830.26 29.8424 Q1834.99 29.8424 1839.15 30.5369 Q1843.32 31.2313 1846.84 32.6202 Z" fill="#000000" fill-rule="evenodd" fill-opacity="1" /></svg>
