<?xml version="1.0" encoding="utf-8"?>
<svg xmlns="http://www.w3.org/2000/svg" xmlns:xlink="http://www.w3.org/1999/xlink" width="600" height="400" viewBox="0 0 2400 1600">
<defs>
  <clipPath id="clip540">
    <rect x="0" y="0" width="2400" height="1600"/>
  </clipPath>
</defs>
<path clip-path="url(#clip540)" d="
M0 1600 L2400 1600 L2400 0 L0 0  Z
  " fill="#ffffff" fill-rule="evenodd" fill-opacity="1"/>
<defs>
  <clipPath id="clip541">
    <rect x="480" y="0" width="1681" height="1600"/>
  </clipPath>
</defs>
<defs>
  <clipPath id="clip542">
    <rect x="186" y="123" width="2167" height="1364"/>
  </clipPath>
</defs>
<path clip-path="url(#clip540)" d="
M186.274 1486.45 L2352.76 1486.45 L2352.76 123.472 L186.274 123.472  Z
  " fill="#ffffff" fill-rule="evenodd" fill-opacity="1"/>
<polyline clip-path="url(#clip542)" style="stroke:#000000; stroke-linecap:butt; stroke-linejoin:round; stroke-width:2; stroke-opacity:0.1; fill:none" points="
  247.59,1486.45 247.59,123.472 
  "/>
<polyline clip-path="url(#clip542)" style="stroke:#000000; stroke-linecap:butt; stroke-linejoin:round; stroke-width:2; stroke-opacity:0.1; fill:none" points="
  758.552,1486.45 758.552,123.472 
  "/>
<polyline clip-path="url(#clip542)" style="stroke:#000000; stroke-linecap:butt; stroke-linejoin:round; stroke-width:2; stroke-opacity:0.1; fill:none" points="
  1269.51,1486.45 1269.51,123.472 
  "/>
<polyline clip-path="url(#clip542)" style="stroke:#000000; stroke-linecap:butt; stroke-linejoin:round; stroke-width:2; stroke-opacity:0.1; fill:none" points="
  1780.48,1486.45 1780.48,123.472 
  "/>
<polyline clip-path="url(#clip542)" style="stroke:#000000; stroke-linecap:butt; stroke-linejoin:round; stroke-width:2; stroke-opacity:0.1; fill:none" points="
  2291.44,1486.45 2291.44,123.472 
  "/>
<polyline clip-path="url(#clip540)" style="stroke:#000000; stroke-linecap:butt; stroke-linejoin:round; stroke-width:4; stroke-opacity:1; fill:none" points="
  186.274,1486.45 2352.76,1486.45 
  "/>
<polyline clip-path="url(#clip540)" style="stroke:#000000; stroke-linecap:butt; stroke-linejoin:round; stroke-width:4; stroke-opacity:1; fill:none" points="
  247.59,1486.45 247.59,1467.55 
  "/>
<polyline clip-path="url(#clip540)" style="stroke:#000000; stroke-linecap:butt; stroke-linejoin:round; stroke-width:4; stroke-opacity:1; fill:none" points="
  758.552,1486.45 758.552,1467.55 
  "/>
<polyline clip-path="url(#clip540)" style="stroke:#000000; stroke-linecap:butt; stroke-linejoin:round; stroke-width:4; stroke-opacity:1; fill:none" points="
  1269.51,1486.45 1269.51,1467.55 
  "/>
<polyline clip-path="url(#clip540)" style="stroke:#000000; stroke-linecap:butt; stroke-linejoin:round; stroke-width:4; stroke-opacity:1; fill:none" points="
  1780.48,1486.45 1780.48,1467.55 
  "/>
<polyline clip-path="url(#clip540)" style="stroke:#000000; stroke-linecap:butt; stroke-linejoin:round; stroke-width:4; stroke-opacity:1; fill:none" points="
  2291.44,1486.45 2291.44,1467.55 
  "/>
<path clip-path="url(#clip540)" d="M209.893 1517.37 Q206.282 1517.37 204.453 1520.93 Q202.648 1524.47 202.648 1531.6 Q202.648 1538.71 204.453 1542.27 Q206.282 1545.82 209.893 1545.82 Q213.527 1545.82 215.333 1542.27 Q217.161 1538.71 217.161 1531.6 Q217.161 1524.47 215.333 1520.93 Q213.527 1517.37 209.893 1517.37 M209.893 1513.66 Q215.703 1513.66 218.759 1518.27 Q221.837 1522.85 221.837 1531.6 Q221.837 1540.33 218.759 1544.94 Q215.703 1549.52 209.893 1549.52 Q204.083 1549.52 201.004 1544.94 Q197.949 1540.33 197.949 1531.6 Q197.949 1522.85 201.004 1518.27 Q204.083 1513.66 209.893 1513.66 Z" fill="#000000" fill-rule="evenodd" fill-opacity="1" /><path clip-path="url(#clip540)" d="M230.055 1542.97 L234.939 1542.97 L234.939 1548.85 L230.055 1548.85 L230.055 1542.97 Z" fill="#000000" fill-rule="evenodd" fill-opacity="1" /><path clip-path="url(#clip540)" d="M255.124 1517.37 Q251.513 1517.37 249.684 1520.93 Q247.879 1524.47 247.879 1531.6 Q247.879 1538.71 249.684 1542.27 Q251.513 1545.82 255.124 1545.82 Q258.758 1545.82 260.564 1542.27 Q262.393 1538.71 262.393 1531.6 Q262.393 1524.47 260.564 1520.93 Q258.758 1517.37 255.124 1517.37 M255.124 1513.66 Q260.934 1513.66 263.99 1518.27 Q267.069 1522.85 267.069 1531.6 Q267.069 1540.33 263.99 1544.94 Q260.934 1549.52 255.124 1549.52 Q249.314 1549.52 246.235 1544.94 Q243.18 1540.33 243.18 1531.6 Q243.18 1522.85 246.235 1518.27 Q249.314 1513.66 255.124 1513.66 Z" fill="#000000" fill-rule="evenodd" fill-opacity="1" /><path clip-path="url(#clip540)" d="M285.286 1517.37 Q281.675 1517.37 279.846 1520.93 Q278.041 1524.47 278.041 1531.6 Q278.041 1538.71 279.846 1542.27 Q281.675 1545.82 285.286 1545.82 Q288.92 1545.82 290.726 1542.27 Q292.555 1538.71 292.555 1531.6 Q292.555 1524.47 290.726 1520.93 Q288.92 1517.37 285.286 1517.37 M285.286 1513.66 Q291.096 1513.66 294.152 1518.27 Q297.23 1522.85 297.23 1531.6 Q297.23 1540.33 294.152 1544.94 Q291.096 1549.52 285.286 1549.52 Q279.476 1549.52 276.397 1544.94 Q273.342 1540.33 273.342 1531.6 Q273.342 1522.85 276.397 1518.27 Q279.476 1513.66 285.286 1513.66 Z" fill="#000000" fill-rule="evenodd" fill-opacity="1" /><path clip-path="url(#clip540)" d="M721.353 1517.37 Q717.742 1517.37 715.914 1520.93 Q714.108 1524.47 714.108 1531.6 Q714.108 1538.71 715.914 1542.27 Q717.742 1545.82 721.353 1545.82 Q724.988 1545.82 726.793 1542.27 Q728.622 1538.71 728.622 1531.6 Q728.622 1524.47 726.793 1520.93 Q724.988 1517.37 721.353 1517.37 M721.353 1513.66 Q727.164 1513.66 730.219 1518.27 Q733.298 1522.85 733.298 1531.6 Q733.298 1540.33 730.219 1544.94 Q727.164 1549.52 721.353 1549.52 Q715.543 1549.52 712.465 1544.94 Q709.409 1540.33 709.409 1531.6 Q709.409 1522.85 712.465 1518.27 Q715.543 1513.66 721.353 1513.66 Z" fill="#000000" fill-rule="evenodd" fill-opacity="1" /><path clip-path="url(#clip540)" d="M741.515 1542.97 L746.4 1542.97 L746.4 1548.85 L741.515 1548.85 L741.515 1542.97 Z" fill="#000000" fill-rule="evenodd" fill-opacity="1" /><path clip-path="url(#clip540)" d="M760.612 1544.91 L776.932 1544.91 L776.932 1548.85 L754.987 1548.85 L754.987 1544.91 Q757.649 1542.16 762.233 1537.53 Q766.839 1532.88 768.02 1531.53 Q770.265 1529.01 771.145 1527.27 Q772.048 1525.51 772.048 1523.82 Q772.048 1521.07 770.103 1519.33 Q768.182 1517.6 765.08 1517.6 Q762.881 1517.6 760.427 1518.36 Q757.997 1519.13 755.219 1520.68 L755.219 1515.95 Q758.043 1514.82 760.497 1514.24 Q762.95 1513.66 764.987 1513.66 Q770.358 1513.66 773.552 1516.35 Q776.747 1519.03 776.747 1523.52 Q776.747 1525.65 775.936 1527.57 Q775.149 1529.47 773.043 1532.07 Q772.464 1532.74 769.362 1535.95 Q766.261 1539.15 760.612 1544.91 Z" fill="#000000" fill-rule="evenodd" fill-opacity="1" /><path clip-path="url(#clip540)" d="M786.793 1514.29 L805.149 1514.29 L805.149 1518.22 L791.075 1518.22 L791.075 1526.7 Q792.094 1526.35 793.112 1526.19 Q794.131 1526 795.149 1526 Q800.936 1526 804.316 1529.17 Q807.695 1532.34 807.695 1537.76 Q807.695 1543.34 804.223 1546.44 Q800.751 1549.52 794.432 1549.52 Q792.256 1549.52 789.987 1549.15 Q787.742 1548.78 785.335 1548.04 L785.335 1543.34 Q787.418 1544.47 789.64 1545.03 Q791.862 1545.58 794.339 1545.58 Q798.344 1545.58 800.682 1543.48 Q803.02 1541.37 803.02 1537.76 Q803.02 1534.15 800.682 1532.04 Q798.344 1529.94 794.339 1529.94 Q792.464 1529.94 790.589 1530.35 Q788.737 1530.77 786.793 1531.65 L786.793 1514.29 Z" fill="#000000" fill-rule="evenodd" fill-opacity="1" /><path clip-path="url(#clip540)" d="M1231.82 1517.37 Q1228.21 1517.37 1226.38 1520.93 Q1224.57 1524.47 1224.57 1531.6 Q1224.57 1538.71 1226.38 1542.27 Q1228.21 1545.82 1231.82 1545.82 Q1235.45 1545.82 1237.26 1542.27 Q1239.09 1538.71 1239.09 1531.6 Q1239.09 1524.47 1237.26 1520.93 Q1235.45 1517.37 1231.82 1517.37 M1231.82 1513.66 Q1237.63 1513.66 1240.68 1518.27 Q1243.76 1522.85 1243.76 1531.6 Q1243.76 1540.33 1240.68 1544.94 Q1237.63 1549.52 1231.82 1549.52 Q1226.01 1549.52 1222.93 1544.94 Q1219.87 1540.33 1219.87 1531.6 Q1219.87 1522.85 1222.93 1518.27 Q1226.01 1513.66 1231.82 1513.66 Z" fill="#000000" fill-rule="evenodd" fill-opacity="1" /><path clip-path="url(#clip540)" d="M1251.98 1542.97 L1256.86 1542.97 L1256.86 1548.85 L1251.98 1548.85 L1251.98 1542.97 Z" fill="#000000" fill-rule="evenodd" fill-opacity="1" /><path clip-path="url(#clip540)" d="M1267.1 1514.29 L1285.45 1514.29 L1285.45 1518.22 L1271.38 1518.22 L1271.38 1526.7 Q1272.4 1526.35 1273.42 1526.19 Q1274.43 1526 1275.45 1526 Q1281.24 1526 1284.62 1529.17 Q1288 1532.34 1288 1537.76 Q1288 1543.34 1284.53 1546.44 Q1281.05 1549.52 1274.73 1549.52 Q1272.56 1549.52 1270.29 1549.15 Q1268.05 1548.78 1265.64 1548.04 L1265.64 1543.34 Q1267.72 1544.47 1269.94 1545.03 Q1272.17 1545.58 1274.64 1545.58 Q1278.65 1545.58 1280.98 1543.48 Q1283.32 1541.37 1283.32 1537.76 Q1283.32 1534.15 1280.98 1532.04 Q1278.65 1529.94 1274.64 1529.94 Q1272.77 1529.94 1270.89 1530.35 Q1269.04 1530.77 1267.1 1531.65 L1267.1 1514.29 Z" fill="#000000" fill-rule="evenodd" fill-opacity="1" /><path clip-path="url(#clip540)" d="M1307.21 1517.37 Q1303.6 1517.37 1301.77 1520.93 Q1299.97 1524.47 1299.97 1531.6 Q1299.97 1538.71 1301.77 1542.27 Q1303.6 1545.82 1307.21 1545.82 Q1310.85 1545.82 1312.65 1542.27 Q1314.48 1538.71 1314.48 1531.6 Q1314.48 1524.47 1312.65 1520.93 Q1310.85 1517.37 1307.21 1517.37 M1307.21 1513.66 Q1313.02 1513.66 1316.08 1518.27 Q1319.16 1522.85 1319.16 1531.6 Q1319.16 1540.33 1316.08 1544.94 Q1313.02 1549.52 1307.21 1549.52 Q1301.4 1549.52 1298.32 1544.94 Q1295.27 1540.33 1295.27 1531.6 Q1295.27 1522.85 1298.32 1518.27 Q1301.4 1513.66 1307.21 1513.66 Z" fill="#000000" fill-rule="evenodd" fill-opacity="1" /><path clip-path="url(#clip540)" d="M1743.28 1517.37 Q1739.67 1517.37 1737.84 1520.93 Q1736.03 1524.47 1736.03 1531.6 Q1736.03 1538.71 1737.84 1542.27 Q1739.67 1545.82 1743.28 1545.82 Q1746.91 1545.82 1748.72 1542.27 Q1750.55 1538.71 1750.55 1531.6 Q1750.55 1524.47 1748.72 1520.93 Q1746.91 1517.37 1743.28 1517.37 M1743.28 1513.66 Q1749.09 1513.66 1752.14 1518.27 Q1755.22 1522.85 1755.22 1531.6 Q1755.22 1540.33 1752.14 1544.94 Q1749.09 1549.52 1743.28 1549.52 Q1737.47 1549.52 1734.39 1544.94 Q1731.33 1540.33 1731.33 1531.6 Q1731.33 1522.85 1734.39 1518.27 Q1737.47 1513.66 1743.28 1513.66 Z" fill="#000000" fill-rule="evenodd" fill-opacity="1" /><path clip-path="url(#clip540)" d="M1763.44 1542.97 L1768.32 1542.97 L1768.32 1548.85 L1763.44 1548.85 L1763.44 1542.97 Z" fill="#000000" fill-rule="evenodd" fill-opacity="1" /><path clip-path="url(#clip540)" d="M1777.33 1514.29 L1799.55 1514.29 L1799.55 1516.28 L1787.01 1548.85 L1782.12 1548.85 L1793.93 1518.22 L1777.33 1518.22 L1777.33 1514.29 Z" fill="#000000" fill-rule="evenodd" fill-opacity="1" /><path clip-path="url(#clip540)" d="M1808.72 1514.29 L1827.07 1514.29 L1827.07 1518.22 L1813 1518.22 L1813 1526.7 Q1814.02 1526.35 1815.04 1526.19 Q1816.06 1526 1817.07 1526 Q1822.86 1526 1826.24 1529.17 Q1829.62 1532.34 1829.62 1537.76 Q1829.62 1543.34 1826.15 1546.44 Q1822.68 1549.52 1816.36 1549.52 Q1814.18 1549.52 1811.91 1549.15 Q1809.67 1548.78 1807.26 1548.04 L1807.26 1543.34 Q1809.34 1544.47 1811.57 1545.03 Q1813.79 1545.58 1816.26 1545.58 Q1820.27 1545.58 1822.61 1543.48 Q1824.95 1541.37 1824.95 1537.76 Q1824.95 1534.15 1822.61 1532.04 Q1820.27 1529.94 1816.26 1529.94 Q1814.39 1529.94 1812.51 1530.35 Q1810.66 1530.77 1808.72 1531.65 L1808.72 1514.29 Z" fill="#000000" fill-rule="evenodd" fill-opacity="1" /><path clip-path="url(#clip540)" d="M2243.51 1544.91 L2251.15 1544.91 L2251.15 1518.55 L2242.84 1520.21 L2242.84 1515.95 L2251.1 1514.29 L2255.78 1514.29 L2255.78 1544.91 L2263.42 1544.91 L2263.42 1548.85 L2243.51 1548.85 L2243.51 1544.91 Z" fill="#000000" fill-rule="evenodd" fill-opacity="1" /><path clip-path="url(#clip540)" d="M2272.86 1542.97 L2277.75 1542.97 L2277.75 1548.85 L2272.86 1548.85 L2272.86 1542.97 Z" fill="#000000" fill-rule="evenodd" fill-opacity="1" /><path clip-path="url(#clip540)" d="M2297.93 1517.37 Q2294.32 1517.37 2292.49 1520.93 Q2290.69 1524.47 2290.69 1531.6 Q2290.69 1538.71 2292.49 1542.27 Q2294.32 1545.82 2297.93 1545.82 Q2301.57 1545.82 2303.37 1542.27 Q2305.2 1538.71 2305.2 1531.6 Q2305.2 1524.47 2303.37 1520.93 Q2301.57 1517.37 2297.93 1517.37 M2297.93 1513.66 Q2303.74 1513.66 2306.8 1518.27 Q2309.88 1522.85 2309.88 1531.6 Q2309.88 1540.33 2306.8 1544.94 Q2303.74 1549.52 2297.93 1549.52 Q2292.12 1549.52 2289.04 1544.94 Q2285.99 1540.33 2285.99 1531.6 Q2285.99 1522.85 2289.04 1518.27 Q2292.12 1513.66 2297.93 1513.66 Z" fill="#000000" fill-rule="evenodd" fill-opacity="1" /><path clip-path="url(#clip540)" d="M2328.1 1517.37 Q2324.48 1517.37 2322.66 1520.93 Q2320.85 1524.47 2320.85 1531.6 Q2320.85 1538.71 2322.66 1542.27 Q2324.48 1545.82 2328.1 1545.82 Q2331.73 1545.82 2333.54 1542.27 Q2335.36 1538.71 2335.36 1531.6 Q2335.36 1524.47 2333.54 1520.93 Q2331.73 1517.37 2328.1 1517.37 M2328.1 1513.66 Q2333.91 1513.66 2336.96 1518.27 Q2340.04 1522.85 2340.04 1531.6 Q2340.04 1540.33 2336.96 1544.94 Q2333.91 1549.52 2328.1 1549.52 Q2322.29 1549.52 2319.21 1544.94 Q2316.15 1540.33 2316.15 1531.6 Q2316.15 1522.85 2319.21 1518.27 Q2322.29 1513.66 2328.1 1513.66 Z" fill="#000000" fill-rule="evenodd" fill-opacity="1" /><polyline clip-path="url(#clip542)" style="stroke:#000000; stroke-linecap:butt; stroke-linejoin:round; stroke-width:2; stroke-opacity:0.1; fill:none" points="
  186.274,1281.97 2352.76,1281.97 
  "/>
<polyline clip-path="url(#clip542)" style="stroke:#000000; stroke-linecap:butt; stroke-linejoin:round; stroke-width:2; stroke-opacity:0.1; fill:none" points="
  186.274,1001.99 2352.76,1001.99 
  "/>
<polyline clip-path="url(#clip542)" style="stroke:#000000; stroke-linecap:butt; stroke-linejoin:round; stroke-width:2; stroke-opacity:0.1; fill:none" points="
  186.274,722.009 2352.76,722.009 
  "/>
<polyline clip-path="url(#clip542)" style="stroke:#000000; stroke-linecap:butt; stroke-linejoin:round; stroke-width:2; stroke-opacity:0.1; fill:none" points="
  186.274,442.028 2352.76,442.028 
  "/>
<polyline clip-path="url(#clip542)" style="stroke:#000000; stroke-linecap:butt; stroke-linejoin:round; stroke-width:2; stroke-opacity:0.1; fill:none" points="
  186.274,162.047 2352.76,162.047 
  "/>
<polyline clip-path="url(#clip540)" style="stroke:#000000; stroke-linecap:butt; stroke-linejoin:round; stroke-width:4; stroke-opacity:1; fill:none" points="
  186.274,1486.45 186.274,123.472 
  "/>
<polyline clip-path="url(#clip540)" style="stroke:#000000; stroke-linecap:butt; stroke-linejoin:round; stroke-width:4; stroke-opacity:1; fill:none" points="
  186.274,1281.97 205.172,1281.97 
  "/>
<polyline clip-path="url(#clip540)" style="stroke:#000000; stroke-linecap:butt; stroke-linejoin:round; stroke-width:4; stroke-opacity:1; fill:none" points="
  186.274,1001.99 205.172,1001.99 
  "/>
<polyline clip-path="url(#clip540)" style="stroke:#000000; stroke-linecap:butt; stroke-linejoin:round; stroke-width:4; stroke-opacity:1; fill:none" points="
  186.274,722.009 205.172,722.009 
  "/>
<polyline clip-path="url(#clip540)" style="stroke:#000000; stroke-linecap:butt; stroke-linejoin:round; stroke-width:4; stroke-opacity:1; fill:none" points="
  186.274,442.028 205.172,442.028 
  "/>
<polyline clip-path="url(#clip540)" style="stroke:#000000; stroke-linecap:butt; stroke-linejoin:round; stroke-width:4; stroke-opacity:1; fill:none" points="
  186.274,162.047 205.172,162.047 
  "/>
<path clip-path="url(#clip540)" d="M62.9365 1267.77 Q59.3254 1267.77 57.4967 1271.33 Q55.6912 1274.88 55.6912 1282.01 Q55.6912 1289.11 57.4967 1292.68 Q59.3254 1296.22 62.9365 1296.22 Q66.5707 1296.22 68.3763 1292.68 Q70.205 1289.11 70.205 1282.01 Q70.205 1274.88 68.3763 1271.33 Q66.5707 1267.77 62.9365 1267.77 M62.9365 1264.07 Q68.7467 1264.07 71.8022 1268.67 Q74.8809 1273.26 74.8809 1282.01 Q74.8809 1290.73 71.8022 1295.34 Q68.7467 1299.92 62.9365 1299.92 Q57.1264 1299.92 54.0477 1295.34 Q50.9921 1290.73 50.9921 1282.01 Q50.9921 1273.26 54.0477 1268.67 Q57.1264 1264.07 62.9365 1264.07 Z" fill="#000000" fill-rule="evenodd" fill-opacity="1" /><path clip-path="url(#clip540)" d="M83.0984 1293.37 L87.9827 1293.37 L87.9827 1299.25 L83.0984 1299.25 L83.0984 1293.37 Z" fill="#000000" fill-rule="evenodd" fill-opacity="1" /><path clip-path="url(#clip540)" d="M108.168 1267.77 Q104.557 1267.77 102.728 1271.33 Q100.922 1274.88 100.922 1282.01 Q100.922 1289.11 102.728 1292.68 Q104.557 1296.22 108.168 1296.22 Q111.802 1296.22 113.608 1292.68 Q115.436 1289.11 115.436 1282.01 Q115.436 1274.88 113.608 1271.33 Q111.802 1267.77 108.168 1267.77 M108.168 1264.07 Q113.978 1264.07 117.033 1268.67 Q120.112 1273.26 120.112 1282.01 Q120.112 1290.73 117.033 1295.34 Q113.978 1299.92 108.168 1299.92 Q102.358 1299.92 99.2789 1295.34 Q96.2234 1290.73 96.2234 1282.01 Q96.2234 1273.26 99.2789 1268.67 Q102.358 1264.07 108.168 1264.07 Z" fill="#000000" fill-rule="evenodd" fill-opacity="1" /><path clip-path="url(#clip540)" d="M138.33 1267.77 Q134.719 1267.77 132.89 1271.33 Q131.084 1274.88 131.084 1282.01 Q131.084 1289.11 132.89 1292.68 Q134.719 1296.22 138.33 1296.22 Q141.964 1296.22 143.769 1292.68 Q145.598 1289.11 145.598 1282.01 Q145.598 1274.88 143.769 1271.33 Q141.964 1267.77 138.33 1267.77 M138.33 1264.07 Q144.14 1264.07 147.195 1268.67 Q150.274 1273.26 150.274 1282.01 Q150.274 1290.73 147.195 1295.34 Q144.14 1299.92 138.33 1299.92 Q132.519 1299.92 129.441 1295.34 Q126.385 1290.73 126.385 1282.01 Q126.385 1273.26 129.441 1268.67 Q132.519 1264.07 138.33 1264.07 Z" fill="#000000" fill-rule="evenodd" fill-opacity="1" /><path clip-path="url(#clip540)" d="M63.9319 987.789 Q60.3208 987.789 58.4921 991.353 Q56.6865 994.895 56.6865 1002.02 Q56.6865 1009.13 58.4921 1012.7 Q60.3208 1016.24 63.9319 1016.24 Q67.5661 1016.24 69.3717 1012.7 Q71.2004 1009.13 71.2004 1002.02 Q71.2004 994.895 69.3717 991.353 Q67.5661 987.789 63.9319 987.789 M63.9319 984.085 Q69.742 984.085 72.7976 988.691 Q75.8763 993.275 75.8763 1002.02 Q75.8763 1010.75 72.7976 1015.36 Q69.742 1019.94 63.9319 1019.94 Q58.1217 1019.94 55.043 1015.36 Q51.9875 1010.75 51.9875 1002.02 Q51.9875 993.275 55.043 988.691 Q58.1217 984.085 63.9319 984.085 Z" fill="#000000" fill-rule="evenodd" fill-opacity="1" /><path clip-path="url(#clip540)" d="M84.0938 1013.39 L88.978 1013.39 L88.978 1019.27 L84.0938 1019.27 L84.0938 1013.39 Z" fill="#000000" fill-rule="evenodd" fill-opacity="1" /><path clip-path="url(#clip540)" d="M103.191 1015.33 L119.51 1015.33 L119.51 1019.27 L97.566 1019.27 L97.566 1015.33 Q100.228 1012.58 104.811 1007.95 Q109.418 1003.3 110.598 1001.96 Q112.844 999.432 113.723 997.696 Q114.626 995.937 114.626 994.247 Q114.626 991.492 112.682 989.756 Q110.76 988.02 107.658 988.02 Q105.459 988.02 103.006 988.784 Q100.575 989.548 97.7974 991.099 L97.7974 986.377 Q100.621 985.242 103.075 984.664 Q105.529 984.085 107.566 984.085 Q112.936 984.085 116.131 986.77 Q119.325 989.455 119.325 993.946 Q119.325 996.076 118.515 997.997 Q117.728 999.895 115.621 1002.49 Q115.043 1003.16 111.941 1006.38 Q108.839 1009.57 103.191 1015.33 Z" fill="#000000" fill-rule="evenodd" fill-opacity="1" /><path clip-path="url(#clip540)" d="M129.371 984.71 L147.728 984.71 L147.728 988.645 L133.654 988.645 L133.654 997.117 Q134.672 996.77 135.691 996.608 Q136.709 996.423 137.728 996.423 Q143.515 996.423 146.894 999.594 Q150.274 1002.77 150.274 1008.18 Q150.274 1013.76 146.802 1016.86 Q143.33 1019.94 137.01 1019.94 Q134.834 1019.94 132.566 1019.57 Q130.32 1019.2 127.913 1018.46 L127.913 1013.76 Q129.996 1014.89 132.219 1015.45 Q134.441 1016.01 136.918 1016.01 Q140.922 1016.01 143.26 1013.9 Q145.598 1011.79 145.598 1008.18 Q145.598 1004.57 143.26 1002.46 Q140.922 1000.36 136.918 1000.36 Q135.043 1000.36 133.168 1000.77 Q131.316 1001.19 129.371 1002.07 L129.371 984.71 Z" fill="#000000" fill-rule="evenodd" fill-opacity="1" /><path clip-path="url(#clip540)" d="M62.9365 707.808 Q59.3254 707.808 57.4967 711.372 Q55.6912 714.914 55.6912 722.044 Q55.6912 729.15 57.4967 732.715 Q59.3254 736.257 62.9365 736.257 Q66.5707 736.257 68.3763 732.715 Q70.205 729.15 70.205 722.044 Q70.205 714.914 68.3763 711.372 Q66.5707 707.808 62.9365 707.808 M62.9365 704.104 Q68.7467 704.104 71.8022 708.71 Q74.8809 713.294 74.8809 722.044 Q74.8809 730.77 71.8022 735.377 Q68.7467 739.96 62.9365 739.96 Q57.1264 739.96 54.0477 735.377 Q50.9921 730.77 50.9921 722.044 Q50.9921 713.294 54.0477 708.71 Q57.1264 704.104 62.9365 704.104 Z" fill="#000000" fill-rule="evenodd" fill-opacity="1" /><path clip-path="url(#clip540)" d="M83.0984 733.409 L87.9827 733.409 L87.9827 739.289 L83.0984 739.289 L83.0984 733.409 Z" fill="#000000" fill-rule="evenodd" fill-opacity="1" /><path clip-path="url(#clip540)" d="M98.2141 704.729 L116.57 704.729 L116.57 708.664 L102.496 708.664 L102.496 717.136 Q103.515 716.789 104.534 716.627 Q105.552 716.442 106.571 716.442 Q112.358 716.442 115.737 719.613 Q119.117 722.784 119.117 728.201 Q119.117 733.78 115.645 736.882 Q112.172 739.96 105.853 739.96 Q103.677 739.96 101.409 739.59 Q99.1632 739.219 96.7558 738.479 L96.7558 733.78 Q98.8391 734.914 101.061 735.469 Q103.284 736.025 105.76 736.025 Q109.765 736.025 112.103 733.919 Q114.441 731.812 114.441 728.201 Q114.441 724.59 112.103 722.483 Q109.765 720.377 105.76 720.377 Q103.885 720.377 102.01 720.794 Q100.159 721.21 98.2141 722.09 L98.2141 704.729 Z" fill="#000000" fill-rule="evenodd" fill-opacity="1" /><path clip-path="url(#clip540)" d="M138.33 707.808 Q134.719 707.808 132.89 711.372 Q131.084 714.914 131.084 722.044 Q131.084 729.15 132.89 732.715 Q134.719 736.257 138.33 736.257 Q141.964 736.257 143.769 732.715 Q145.598 729.15 145.598 722.044 Q145.598 714.914 143.769 711.372 Q141.964 707.808 138.33 707.808 M138.33 704.104 Q144.14 704.104 147.195 708.71 Q150.274 713.294 150.274 722.044 Q150.274 730.77 147.195 735.377 Q144.14 739.96 138.33 739.96 Q132.519 739.96 129.441 735.377 Q126.385 730.77 126.385 722.044 Q126.385 713.294 129.441 708.71 Q132.519 704.104 138.33 704.104 Z" fill="#000000" fill-rule="evenodd" fill-opacity="1" /><path clip-path="url(#clip540)" d="M63.9319 427.827 Q60.3208 427.827 58.4921 431.391 Q56.6865 434.933 56.6865 442.063 Q56.6865 449.169 58.4921 452.734 Q60.3208 456.276 63.9319 456.276 Q67.5661 456.276 69.3717 452.734 Q71.2004 449.169 71.2004 442.063 Q71.2004 434.933 69.3717 431.391 Q67.5661 427.827 63.9319 427.827 M63.9319 424.123 Q69.742 424.123 72.7976 428.729 Q75.8763 433.313 75.8763 442.063 Q75.8763 450.789 72.7976 455.396 Q69.742 459.979 63.9319 459.979 Q58.1217 459.979 55.043 455.396 Q51.9875 450.789 51.9875 442.063 Q51.9875 433.313 55.043 428.729 Q58.1217 424.123 63.9319 424.123 Z" fill="#000000" fill-rule="evenodd" fill-opacity="1" /><path clip-path="url(#clip540)" d="M84.0938 453.428 L88.978 453.428 L88.978 459.308 L84.0938 459.308 L84.0938 453.428 Z" fill="#000000" fill-rule="evenodd" fill-opacity="1" /><path clip-path="url(#clip540)" d="M97.9826 424.748 L120.205 424.748 L120.205 426.739 L107.658 459.308 L102.774 459.308 L114.58 428.683 L97.9826 428.683 L97.9826 424.748 Z" fill="#000000" fill-rule="evenodd" fill-opacity="1" /><path clip-path="url(#clip540)" d="M129.371 424.748 L147.728 424.748 L147.728 428.683 L133.654 428.683 L133.654 437.155 Q134.672 436.808 135.691 436.646 Q136.709 436.461 137.728 436.461 Q143.515 436.461 146.894 439.632 Q150.274 442.803 150.274 448.22 Q150.274 453.799 146.802 456.901 Q143.33 459.979 137.01 459.979 Q134.834 459.979 132.566 459.609 Q130.32 459.238 127.913 458.498 L127.913 453.799 Q129.996 454.933 132.219 455.488 Q134.441 456.044 136.918 456.044 Q140.922 456.044 143.26 453.938 Q145.598 451.831 145.598 448.22 Q145.598 444.609 143.26 442.502 Q140.922 440.396 136.918 440.396 Q135.043 440.396 133.168 440.813 Q131.316 441.229 129.371 442.109 L129.371 424.748 Z" fill="#000000" fill-rule="evenodd" fill-opacity="1" /><path clip-path="url(#clip540)" d="M53.7467 175.392 L61.3856 175.392 L61.3856 149.026 L53.0754 150.693 L53.0754 146.434 L61.3393 144.767 L66.0152 144.767 L66.0152 175.392 L73.654 175.392 L73.654 179.327 L53.7467 179.327 L53.7467 175.392 Z" fill="#000000" fill-rule="evenodd" fill-opacity="1" /><path clip-path="url(#clip540)" d="M83.0984 173.447 L87.9827 173.447 L87.9827 179.327 L83.0984 179.327 L83.0984 173.447 Z" fill="#000000" fill-rule="evenodd" fill-opacity="1" /><path clip-path="url(#clip540)" d="M108.168 147.846 Q104.557 147.846 102.728 151.41 Q100.922 154.952 100.922 162.082 Q100.922 169.188 102.728 172.753 Q104.557 176.295 108.168 176.295 Q111.802 176.295 113.608 172.753 Q115.436 169.188 115.436 162.082 Q115.436 154.952 113.608 151.41 Q111.802 147.846 108.168 147.846 M108.168 144.142 Q113.978 144.142 117.033 148.748 Q120.112 153.332 120.112 162.082 Q120.112 170.808 117.033 175.415 Q113.978 179.998 108.168 179.998 Q102.358 179.998 99.2789 175.415 Q96.2234 170.808 96.2234 162.082 Q96.2234 153.332 99.2789 148.748 Q102.358 144.142 108.168 144.142 Z" fill="#000000" fill-rule="evenodd" fill-opacity="1" /><path clip-path="url(#clip540)" d="M138.33 147.846 Q134.719 147.846 132.89 151.41 Q131.084 154.952 131.084 162.082 Q131.084 169.188 132.89 172.753 Q134.719 176.295 138.33 176.295 Q141.964 176.295 143.769 172.753 Q145.598 169.188 145.598 162.082 Q145.598 154.952 143.769 151.41 Q141.964 147.846 138.33 147.846 M138.33 144.142 Q144.14 144.142 147.195 148.748 Q150.274 153.332 150.274 162.082 Q150.274 170.808 147.195 175.415 Q144.14 179.998 138.33 179.998 Q132.519 179.998 129.441 175.415 Q126.385 170.808 126.385 162.082 Q126.385 153.332 129.441 148.748 Q132.519 144.142 138.33 144.142 Z" fill="#000000" fill-rule="evenodd" fill-opacity="1" /><path clip-path="url(#clip540)" d="M966.872 12.096 L1001.63 12.096 L1001.63 18.9825 L975.055 18.9825 L975.055 36.8065 L999.036 36.8065 L999.036 43.6931 L975.055 43.6931 L975.055 72.576 L966.872 72.576 L966.872 12.096 Z" fill="#000000" fill-rule="evenodd" fill-opacity="1" /><path clip-path="url(#clip540)" d="M1028.89 32.4315 Q1022.9 32.4315 1019.41 37.1306 Q1015.93 41.7891 1015.93 49.9314 Q1015.93 58.0738 1019.37 62.7728 Q1022.86 67.4314 1028.89 67.4314 Q1034.85 67.4314 1038.33 62.7323 Q1041.81 58.0333 1041.81 49.9314 Q1041.81 41.8701 1038.33 37.1711 Q1034.85 32.4315 1028.89 32.4315 M1028.89 26.1121 Q1038.61 26.1121 1044.16 32.4315 Q1049.71 38.7509 1049.71 49.9314 Q1049.71 61.0714 1044.16 67.4314 Q1038.61 73.7508 1028.89 73.7508 Q1019.13 73.7508 1013.58 67.4314 Q1008.07 61.0714 1008.07 49.9314 Q1008.07 38.7509 1013.58 32.4315 Q1019.13 26.1121 1028.89 26.1121 Z" fill="#000000" fill-rule="evenodd" fill-opacity="1" /><path clip-path="url(#clip540)" d="M1088.36 34.1734 Q1087.1 33.4443 1085.6 33.1202 Q1084.15 32.7556 1082.36 32.7556 Q1076.04 32.7556 1072.64 36.8875 Q1069.28 40.9789 1069.28 48.6757 L1069.28 72.576 L1061.78 72.576 L1061.78 27.2059 L1069.28 27.2059 L1069.28 34.2544 Q1071.63 30.1225 1075.4 28.1376 Q1079.16 26.1121 1084.55 26.1121 Q1085.32 26.1121 1086.25 26.2337 Q1087.18 26.3147 1088.32 26.5172 L1088.36 34.1734 Z" fill="#000000" fill-rule="evenodd" fill-opacity="1" /><path clip-path="url(#clip540)" d="M1130.04 35.9153 Q1132.84 30.8922 1136.73 28.5022 Q1140.62 26.1121 1145.88 26.1121 Q1152.97 26.1121 1156.82 31.0947 Q1160.67 36.0368 1160.67 45.1919 L1160.67 72.576 L1153.17 72.576 L1153.17 45.4349 Q1153.17 38.913 1150.86 35.7533 Q1148.55 32.5936 1143.82 32.5936 Q1138.02 32.5936 1134.66 36.4419 Q1131.3 40.2903 1131.3 46.9338 L1131.3 72.576 L1123.8 72.576 L1123.8 45.4349 Q1123.8 38.8725 1121.49 35.7533 Q1119.19 32.5936 1114.37 32.5936 Q1108.65 32.5936 1105.29 36.4824 Q1101.93 40.3308 1101.93 46.9338 L1101.93 72.576 L1094.43 72.576 L1094.43 27.2059 L1101.93 27.2059 L1101.93 34.2544 Q1104.48 30.082 1108.05 28.0971 Q1111.61 26.1121 1116.51 26.1121 Q1121.45 26.1121 1124.9 28.6237 Q1128.38 31.1352 1130.04 35.9153 Z" fill="#000000" fill-rule="evenodd" fill-opacity="1" /><path clip-path="url(#clip540)" d="M1224.87 9.54393 L1224.87 15.7418 L1217.74 15.7418 Q1213.73 15.7418 1212.15 17.3622 Q1210.61 18.9825 1210.61 23.1955 L1210.61 27.2059 L1222.89 27.2059 L1222.89 32.9987 L1210.61 32.9987 L1210.61 72.576 L1203.12 72.576 L1203.12 32.9987 L1195.99 32.9987 L1195.99 27.2059 L1203.12 27.2059 L1203.12 24.0462 Q1203.12 16.471 1206.64 13.0277 Q1210.17 9.54393 1217.83 9.54393 L1224.87 9.54393 Z" fill="#000000" fill-rule="evenodd" fill-opacity="1" /><path clip-path="url(#clip540)" d="M1230.34 54.671 L1230.34 27.2059 L1237.8 27.2059 L1237.8 54.3874 Q1237.8 60.8284 1240.31 64.0691 Q1242.82 67.2693 1247.84 67.2693 Q1253.88 67.2693 1257.36 63.421 Q1260.89 59.5726 1260.89 52.9291 L1260.89 27.2059 L1268.34 27.2059 L1268.34 72.576 L1260.89 72.576 L1260.89 65.6084 Q1258.17 69.7404 1254.57 71.7658 Q1251 73.7508 1246.26 73.7508 Q1238.44 73.7508 1234.39 68.8897 Q1230.34 64.0286 1230.34 54.671 M1249.1 26.1121 L1249.1 26.1121 Z" fill="#000000" fill-rule="evenodd" fill-opacity="1" /><path clip-path="url(#clip540)" d="M1321.41 45.1919 L1321.41 72.576 L1313.95 72.576 L1313.95 45.4349 Q1313.95 38.994 1311.44 35.7938 Q1308.93 32.5936 1303.91 32.5936 Q1297.87 32.5936 1294.39 36.4419 Q1290.9 40.2903 1290.9 46.9338 L1290.9 72.576 L1283.41 72.576 L1283.41 27.2059 L1290.9 27.2059 L1290.9 34.2544 Q1293.58 30.163 1297.18 28.1376 Q1300.83 26.1121 1305.57 26.1121 Q1313.39 26.1121 1317.4 30.9732 Q1321.41 35.7938 1321.41 45.1919 Z" fill="#000000" fill-rule="evenodd" fill-opacity="1" /><path clip-path="url(#clip540)" d="M1368.92 28.9478 L1368.92 35.9153 Q1365.76 34.1734 1362.56 33.3227 Q1359.4 32.4315 1356.16 32.4315 Q1348.91 32.4315 1344.9 37.0496 Q1340.89 41.6271 1340.89 49.9314 Q1340.89 58.2358 1344.9 62.8538 Q1348.91 67.4314 1356.16 67.4314 Q1359.4 67.4314 1362.56 66.5807 Q1365.76 65.6895 1368.92 63.9476 L1368.92 70.8341 Q1365.8 72.2924 1362.44 73.0216 Q1359.12 73.7508 1355.35 73.7508 Q1345.1 73.7508 1339.07 67.3098 Q1333.03 60.8689 1333.03 49.9314 Q1333.03 38.832 1339.11 32.472 Q1345.23 26.1121 1355.84 26.1121 Q1359.28 26.1121 1362.56 26.8413 Q1365.85 27.5299 1368.92 28.9478 Z" fill="#000000" fill-rule="evenodd" fill-opacity="1" /><path clip-path="url(#clip540)" d="M1389.26 14.324 L1389.26 27.2059 L1404.61 27.2059 L1404.61 32.9987 L1389.26 32.9987 L1389.26 57.6282 Q1389.26 63.1779 1390.76 64.7578 Q1392.3 66.3376 1396.96 66.3376 L1404.61 66.3376 L1404.61 72.576 L1396.96 72.576 Q1388.33 72.576 1385.05 69.3758 Q1381.77 66.1351 1381.77 57.6282 L1381.77 32.9987 L1376.3 32.9987 L1376.3 27.2059 L1381.77 27.2059 L1381.77 14.324 L1389.26 14.324 Z" fill="#000000" fill-rule="evenodd" fill-opacity="1" /><path clip-path="url(#clip540)" d="M1414.42 27.2059 L1421.87 27.2059 L1421.87 72.576 L1414.42 72.576 L1414.42 27.2059 M1414.42 9.54393 L1421.87 9.54393 L1421.87 18.9825 L1414.42 18.9825 L1414.42 9.54393 Z" fill="#000000" fill-rule="evenodd" fill-opacity="1" /><path clip-path="url(#clip540)" d="M1455.05 32.4315 Q1449.05 32.4315 1445.57 37.1306 Q1442.08 41.7891 1442.08 49.9314 Q1442.08 58.0738 1445.53 62.7728 Q1449.01 67.4314 1455.05 67.4314 Q1461 67.4314 1464.48 62.7323 Q1467.97 58.0333 1467.97 49.9314 Q1467.97 41.8701 1464.48 37.1711 Q1461 32.4315 1455.05 32.4315 M1455.05 26.1121 Q1464.77 26.1121 1470.32 32.4315 Q1475.87 38.7509 1475.87 49.9314 Q1475.87 61.0714 1470.32 67.4314 Q1464.77 73.7508 1455.05 73.7508 Q1445.28 73.7508 1439.73 67.4314 Q1434.22 61.0714 1434.22 49.9314 Q1434.22 38.7509 1439.73 32.4315 Q1445.28 26.1121 1455.05 26.1121 Z" fill="#000000" fill-rule="evenodd" fill-opacity="1" /><path clip-path="url(#clip540)" d="M1525.94 45.1919 L1525.94 72.576 L1518.48 72.576 L1518.48 45.4349 Q1518.48 38.994 1515.97 35.7938 Q1513.46 32.5936 1508.44 32.5936 Q1502.4 32.5936 1498.92 36.4419 Q1495.43 40.2903 1495.43 46.9338 L1495.43 72.576 L1487.94 72.576 L1487.94 27.2059 L1495.43 27.2059 L1495.43 34.2544 Q1498.11 30.163 1501.71 28.1376 Q1505.36 26.1121 1510.1 26.1121 Q1517.92 26.1121 1521.93 30.9732 Q1525.94 35.7938 1525.94 45.1919 Z" fill="#000000" fill-rule="evenodd" fill-opacity="1" /><path clip-path="url(#clip540)" d="M1569.73 28.5427 L1569.73 35.5912 Q1566.57 33.9709 1563.17 33.1607 Q1559.76 32.3505 1556.12 32.3505 Q1550.57 32.3505 1547.77 34.0519 Q1545.02 35.7533 1545.02 39.156 Q1545.02 41.7486 1547 43.2475 Q1548.99 44.7058 1554.98 46.0426 L1557.53 46.6097 Q1565.47 48.3111 1568.8 51.4303 Q1572.16 54.509 1572.16 60.0587 Q1572.16 66.3781 1567.13 70.0644 Q1562.15 73.7508 1553.4 73.7508 Q1549.76 73.7508 1545.79 73.0216 Q1541.86 72.3329 1537.48 70.9151 L1537.48 63.2184 Q1541.61 65.3654 1545.62 66.4591 Q1549.63 67.5124 1553.56 67.5124 Q1558.83 67.5124 1561.67 65.73 Q1564.5 63.9071 1564.5 60.6258 Q1564.5 57.5877 1562.44 55.9673 Q1560.41 54.3469 1553.48 52.8481 L1550.89 52.2405 Q1543.96 50.7821 1540.89 47.7845 Q1537.81 44.7463 1537.81 39.4801 Q1537.81 33.0797 1542.34 29.5959 Q1546.88 26.1121 1555.23 26.1121 Q1559.36 26.1121 1563 26.7198 Q1566.65 27.3274 1569.73 28.5427 Z" fill="#000000" fill-rule="evenodd" fill-opacity="1" /><polyline clip-path="url(#clip542)" style="stroke:#0000ff; stroke-linecap:butt; stroke-linejoin:round; stroke-width:12; stroke-opacity:1; fill:none" stroke-dasharray="48, 30" points="
  247.59,162.047 268.028,162.381 288.467,163.373 308.905,165.01 329.344,167.279 349.782,170.166 370.221,173.658 390.659,177.742 411.098,182.403 431.536,187.628 
  451.975,193.405 472.413,199.719 492.852,206.557 513.29,213.906 533.729,221.752 554.167,230.082 574.606,238.883 595.044,248.14 615.483,257.841 635.921,267.972 
  656.36,278.519 676.798,289.47 697.237,300.81 717.675,312.527 738.114,324.606 758.552,337.035 778.991,349.8 799.429,362.887 819.868,376.284 840.306,389.976 
  860.745,403.95 881.183,418.194 901.622,432.692 922.06,447.433 942.499,462.402 962.937,477.585 983.376,492.971 1003.81,508.545 1024.25,524.293 1044.69,540.203 
  1065.13,556.26 1085.57,572.452 1106.01,588.765 1126.45,605.185 1146.88,621.7 1167.32,638.295 1187.76,654.957 1208.2,671.673 1228.64,688.429 1249.08,705.212 
  1269.51,722.009 1289.95,738.806 1310.39,755.589 1330.83,772.345 1351.27,789.061 1371.71,805.723 1392.15,822.318 1412.58,838.833 1433.02,855.253 1453.46,871.566 
  1473.9,887.758 1494.34,903.815 1514.78,919.725 1535.22,935.473 1555.65,951.047 1576.09,966.432 1596.53,981.616 1616.97,996.585 1637.41,1011.33 1657.85,1025.82 
  1678.29,1040.07 1698.72,1054.04 1719.16,1067.73 1739.6,1081.13 1760.04,1094.22 1780.48,1106.98 1800.92,1119.41 1821.35,1131.49 1841.79,1143.21 1862.23,1154.55 
  1882.67,1165.5 1903.11,1176.05 1923.55,1186.18 1943.99,1195.88 1964.42,1205.14 1984.86,1213.94 2005.3,1222.27 2025.74,1230.11 2046.18,1237.46 2066.62,1244.3 
  2087.06,1250.61 2107.49,1256.39 2127.93,1261.62 2148.37,1266.28 2168.81,1270.36 2189.25,1273.85 2209.69,1276.74 2230.12,1279.01 2250.56,1280.64 2271,1281.64 
  2291.44,1281.97 
  "/>
<polyline clip-path="url(#clip542)" style="stroke:#ff0000; stroke-linecap:butt; stroke-linejoin:round; stroke-width:12; stroke-opacity:1; fill:none" stroke-dasharray="48, 30" points="
  247.59,1281.97 268.028,1270.99 288.467,1260.46 308.905,1250.36 329.344,1240.69 349.782,1231.43 370.221,1222.6 390.659,1214.17 411.098,1206.14 431.536,1198.5 
  451.975,1191.26 472.413,1184.39 492.852,1177.9 513.29,1171.77 533.729,1166.01 554.167,1160.6 574.606,1155.54 595.044,1150.81 615.483,1146.42 635.921,1142.36 
  656.36,1138.62 676.798,1135.19 697.237,1132.07 717.675,1129.25 738.114,1126.72 758.552,1124.48 778.991,1122.52 799.429,1120.83 819.868,1119.41 840.306,1118.25 
  860.745,1117.34 881.183,1116.68 901.622,1116.26 922.06,1116.07 942.499,1116.11 962.937,1116.36 983.376,1116.83 1003.81,1117.51 1024.25,1118.38 1044.69,1119.45 
  1065.13,1120.7 1085.57,1122.13 1106.01,1123.74 1126.45,1125.51 1146.88,1127.44 1167.32,1129.52 1187.76,1131.75 1208.2,1134.12 1228.64,1136.61 1249.08,1139.24 
  1269.51,1141.98 1289.95,1144.84 1310.39,1147.8 1330.83,1150.85 1351.27,1154 1371.71,1157.24 1392.15,1160.55 1412.58,1163.94 1433.02,1167.39 1453.46,1170.9 
  1473.9,1174.46 1494.34,1178.06 1514.78,1181.71 1535.22,1185.38 1555.65,1189.08 1576.09,1192.8 1596.53,1196.53 1616.97,1200.26 1637.41,1203.99 1657.85,1207.71 
  1678.29,1211.42 1698.72,1215.1 1719.16,1218.75 1739.6,1222.37 1760.04,1225.95 1780.48,1229.47 1800.92,1232.95 1821.35,1236.35 1841.79,1239.69 1862.23,1242.95 
  1882.67,1246.13 1903.11,1249.22 1923.55,1252.22 1943.99,1255.11 1964.42,1257.89 1984.86,1260.55 2005.3,1263.09 2025.74,1265.5 2046.18,1267.78 2066.62,1269.91 
  2087.06,1271.89 2107.49,1273.72 2127.93,1275.38 2148.37,1276.87 2168.81,1278.18 2189.25,1279.31 2209.69,1280.25 2230.12,1280.99 2250.56,1281.53 2271,1281.86 
  2291.44,1281.97 
  "/>
<polyline clip-path="url(#clip542)" style="stroke:#0000ff; stroke-linecap:butt; stroke-linejoin:round; stroke-width:12; stroke-opacity:1; fill:none" stroke-dasharray="6, 12" points="
  247.59,1281.97 268.028,1281.64 288.467,1280.64 308.905,1279.01 329.344,1276.74 349.782,1273.85 370.221,1270.36 390.659,1266.28 411.098,1261.62 431.536,1256.39 
  451.975,1250.61 472.413,1244.3 492.852,1237.46 513.29,1230.11 533.729,1222.27 554.167,1213.94 574.606,1205.14 595.044,1195.88 615.483,1186.18 635.921,1176.05 
  656.36,1165.5 676.798,1154.55 697.237,1143.21 717.675,1131.49 738.114,1119.41 758.552,1106.98 778.991,1094.22 799.429,1081.13 819.868,1067.73 840.306,1054.04 
  860.745,1040.07 881.183,1025.82 901.622,1011.33 922.06,996.585 942.499,981.616 962.937,966.432 983.376,951.047 1003.81,935.473 1024.25,919.725 1044.69,903.815 
  1065.13,887.758 1085.57,871.566 1106.01,855.253 1126.45,838.833 1146.88,822.318 1167.32,805.723 1187.76,789.061 1208.2,772.345 1228.64,755.589 1249.08,738.806 
  1269.51,722.009 1289.95,705.212 1310.39,688.429 1330.83,671.673 1351.27,654.957 1371.71,638.295 1392.15,621.7 1412.58,605.185 1433.02,588.765 1453.46,572.452 
  1473.9,556.26 1494.34,540.203 1514.78,524.293 1535.22,508.545 1555.65,492.971 1576.09,477.585 1596.53,462.402 1616.97,447.433 1637.41,432.692 1657.85,418.194 
  1678.29,403.95 1698.72,389.976 1719.16,376.284 1739.6,362.887 1760.04,349.8 1780.48,337.035 1800.92,324.606 1821.35,312.527 1841.79,300.81 1862.23,289.47 
  1882.67,278.519 1903.11,267.972 1923.55,257.841 1943.99,248.14 1964.42,238.883 1984.86,230.082 2005.3,221.752 2025.74,213.906 2046.18,206.557 2066.62,199.719 
  2087.06,193.405 2107.49,187.628 2127.93,182.403 2148.37,177.742 2168.81,173.658 2189.25,170.166 2209.69,167.279 2230.12,165.01 2250.56,163.373 2271,162.381 
  2291.44,162.047 
  "/>
<polyline clip-path="url(#clip542)" style="stroke:#ff0000; stroke-linecap:butt; stroke-linejoin:round; stroke-width:12; stroke-opacity:1; fill:none" stroke-dasharray="6, 12" points="
  247.59,1281.97 268.028,1282.08 288.467,1282.41 308.905,1282.95 329.344,1283.69 349.782,1284.63 370.221,1285.76 390.659,1287.07 411.098,1288.57 431.536,1290.23 
  451.975,1292.05 472.413,1294.03 492.852,1296.16 513.29,1298.44 533.729,1300.85 554.167,1303.39 574.606,1306.05 595.044,1308.83 615.483,1311.73 635.921,1314.72 
  656.36,1317.81 676.798,1320.99 697.237,1324.25 717.675,1327.59 738.114,1331 758.552,1334.47 778.991,1337.99 799.429,1341.57 819.868,1345.19 840.306,1348.84 
  860.745,1352.53 881.183,1356.23 901.622,1359.95 922.06,1363.68 942.499,1367.42 962.937,1371.14 983.376,1374.86 1003.81,1378.56 1024.25,1382.24 1044.69,1385.88 
  1065.13,1389.48 1085.57,1393.04 1106.01,1396.55 1126.45,1400 1146.88,1403.39 1167.32,1406.7 1187.76,1409.94 1208.2,1413.09 1228.64,1416.15 1249.08,1419.11 
  1269.51,1421.96 1289.95,1424.7 1310.39,1427.33 1330.83,1429.83 1351.27,1432.19 1371.71,1434.42 1392.15,1436.5 1412.58,1438.43 1433.02,1440.2 1453.46,1441.81 
  1473.9,1443.24 1494.34,1444.49 1514.78,1445.56 1535.22,1446.44 1555.65,1447.11 1576.09,1447.58 1596.53,1447.84 1616.97,1447.87 1637.41,1447.68 1657.85,1447.26 
  1678.29,1446.6 1698.72,1445.69 1719.16,1444.53 1739.6,1443.11 1760.04,1441.42 1780.48,1439.46 1800.92,1437.22 1821.35,1434.69 1841.79,1431.87 1862.23,1428.75 
  1882.67,1425.32 1903.11,1421.58 1923.55,1417.52 1943.99,1413.13 1964.42,1408.41 1984.86,1403.34 2005.3,1397.93 2025.74,1392.17 2046.18,1386.04 2066.62,1379.55 
  2087.06,1372.68 2107.49,1365.44 2127.93,1357.8 2148.37,1349.77 2168.81,1341.34 2189.25,1332.51 2209.69,1323.26 2230.12,1313.58 2250.56,1303.48 2271,1292.95 
  2291.44,1281.97 
  "/>
<path clip-path="url(#clip540)" d="
M1946.28 758.455 L2280.54 758.455 L2280.54 168.905 L1946.28 168.905  Z
  " fill="#ffffff" fill-rule="evenodd" fill-opacity="1"/>
<polyline clip-path="url(#clip540)" style="stroke:#000000; stroke-linecap:butt; stroke-linejoin:round; stroke-width:4; stroke-opacity:1; fill:none" points="
  1946.28,758.455 2280.54,758.455 2280.54,168.905 1946.28,168.905 1946.28,758.455 
  "/>
<polyline clip-path="url(#clip540)" style="stroke:#0000ff; stroke-linecap:butt; stroke-linejoin:round; stroke-width:7.5; stroke-opacity:1; fill:none" stroke-dasharray="30, 19" points="
  1970.35,286.815 2114.78,286.815 
  "/>
<path clip-path="url(#clip540)" d="M2179.9 243.079 L2157.18 243.079 L2157.18 241.111 L2179.9 241.111 L2179.9 243.079 Z" fill="#000000" fill-rule="evenodd" fill-opacity="1" /><path clip-path="url(#clip540)" d="M2186.02 291.279 Q2186.02 295.715 2183.74 300.15 Q2181.45 304.586 2177.72 308.012 Q2173.99 311.393 2168.89 313.589 Q2163.8 315.785 2158.48 315.961 L2155.06 329.355 Q2154.4 332.605 2154.05 332.956 Q2153.7 333.308 2153.17 333.308 Q2152.07 333.308 2152.07 332.298 Q2152.07 331.99 2154.05 324.393 L2156.16 315.961 Q2148.16 315.521 2143.51 310.91 Q2138.85 306.299 2138.85 299.667 Q2138.85 295.188 2141.14 290.752 Q2143.46 286.273 2147.2 282.891 Q2150.97 279.509 2156.07 277.357 Q2161.16 275.205 2166.39 275.03 L2171.62 254.257 Q2171.88 253.071 2172.1 252.764 Q2172.32 252.456 2172.98 252.456 Q2173.46 252.456 2173.72 252.676 Q2173.99 252.896 2173.99 253.115 L2174.03 253.335 L2173.77 254.608 L2168.72 275.03 Q2173.2 275.337 2176.67 276.918 Q2180.14 278.499 2182.11 280.871 Q2184.09 283.198 2185.05 285.833 Q2186.02 288.468 2186.02 291.279 M2165.86 277.006 Q2161.03 277.445 2156.95 279.817 Q2152.86 282.188 2150.23 285.702 Q2147.59 289.171 2146.14 293.343 Q2144.69 297.471 2144.69 301.556 Q2144.69 304.762 2145.75 307.221 Q2146.85 309.68 2148.65 311.086 Q2150.45 312.447 2152.42 313.194 Q2154.44 313.896 2156.6 313.984 L2165.86 277.006 M2180.14 289.391 Q2180.14 283.681 2176.84 280.476 Q2173.55 277.27 2168.19 277.006 L2158.92 313.984 Q2162.83 313.677 2166.26 312.052 Q2169.73 310.383 2172.23 307.924 Q2174.73 305.42 2176.53 302.346 Q2178.34 299.228 2179.21 295.934 Q2180.14 292.597 2180.14 289.391 Z" fill="#000000" fill-rule="evenodd" fill-opacity="1" /><path clip-path="url(#clip540)" d="M2195.16 322.109 L2195.16 320.141 Q2202.72 320.141 2206.62 316.114 Q2207.7 316.114 2207.88 316.36 Q2208.07 316.606 2208.07 317.743 L2208.07 353.066 Q2208.07 354.941 2208.99 355.525 Q2209.91 356.109 2213.94 356.109 L2215.94 356.109 L2215.94 358.046 Q2213.72 357.862 2205.73 357.862 Q2197.74 357.862 2195.56 358.046 L2195.56 356.109 L2197.55 356.109 Q2201.52 356.109 2202.47 355.556 Q2203.43 354.972 2203.43 353.066 L2203.43 320.449 Q2200.14 322.109 2195.16 322.109 Z" fill="#000000" fill-rule="evenodd" fill-opacity="1" /><polyline clip-path="url(#clip540)" style="stroke:#ff0000; stroke-linecap:butt; stroke-linejoin:round; stroke-width:7.5; stroke-opacity:1; fill:none" stroke-dasharray="30, 19" points="
  1970.35,404.725 2114.78,404.725 
  "/>
<path clip-path="url(#clip540)" d="M2179.9 360.989 L2157.18 360.989 L2157.18 359.021 L2179.9 359.021 L2179.9 360.989 Z" fill="#000000" fill-rule="evenodd" fill-opacity="1" /><path clip-path="url(#clip540)" d="M2186.02 409.189 Q2186.02 413.625 2183.74 418.06 Q2181.45 422.496 2177.72 425.922 Q2173.99 429.303 2168.89 431.499 Q2163.8 433.695 2158.48 433.871 L2155.06 447.265 Q2154.4 450.515 2154.05 450.866 Q2153.7 451.218 2153.17 451.218 Q2152.07 451.218 2152.07 450.208 Q2152.07 449.9 2154.05 442.303 L2156.16 433.871 Q2148.16 433.431 2143.51 428.82 Q2138.85 424.209 2138.85 417.577 Q2138.85 413.098 2141.14 408.662 Q2143.46 404.183 2147.2 400.801 Q2150.97 397.419 2156.07 395.267 Q2161.16 393.115 2166.39 392.94 L2171.62 372.167 Q2171.88 370.981 2172.1 370.674 Q2172.32 370.366 2172.98 370.366 Q2173.46 370.366 2173.72 370.586 Q2173.99 370.806 2173.99 371.025 L2174.03 371.245 L2173.77 372.518 L2168.72 392.94 Q2173.2 393.247 2176.67 394.828 Q2180.14 396.409 2182.11 398.781 Q2184.09 401.108 2185.05 403.743 Q2186.02 406.378 2186.02 409.189 M2165.86 394.916 Q2161.03 395.355 2156.95 397.727 Q2152.86 400.098 2150.23 403.612 Q2147.59 407.081 2146.14 411.253 Q2144.69 415.381 2144.69 419.466 Q2144.69 422.672 2145.75 425.131 Q2146.85 427.59 2148.65 428.996 Q2150.45 430.357 2152.42 431.104 Q2154.44 431.806 2156.6 431.894 L2165.86 394.916 M2180.14 407.301 Q2180.14 401.591 2176.84 398.386 Q2173.55 395.18 2168.19 394.916 L2158.92 431.894 Q2162.83 431.587 2166.26 429.962 Q2169.73 428.293 2172.23 425.834 Q2174.73 423.33 2176.53 420.256 Q2178.34 417.138 2179.21 413.844 Q2180.14 410.507 2180.14 407.301 Z" fill="#000000" fill-rule="evenodd" fill-opacity="1" /><path clip-path="url(#clip540)" d="M2195.16 475.956 Q2195.16 474.819 2195.25 474.48 Q2195.37 474.142 2195.86 473.62 L2207.95 460.155 Q2214.55 452.715 2214.55 446.229 Q2214.55 442.017 2212.34 439.004 Q2210.16 435.992 2206.13 435.992 Q2203.36 435.992 2201.03 437.682 Q2198.69 439.373 2197.62 442.386 Q2197.8 442.324 2198.45 442.324 Q2200.01 442.324 2200.87 443.308 Q2201.77 444.292 2201.77 445.614 Q2201.77 447.305 2200.66 448.135 Q2199.58 448.934 2198.51 448.934 Q2198.08 448.934 2197.49 448.842 Q2196.94 448.749 2196.05 447.889 Q2195.16 446.997 2195.16 445.429 Q2195.16 441.033 2198.48 437.529 Q2201.83 434.024 2206.93 434.024 Q2212.71 434.024 2216.49 437.467 Q2220.3 440.879 2220.3 446.229 Q2220.3 448.104 2219.72 449.825 Q2219.17 451.516 2218.4 452.838 Q2217.66 454.16 2215.63 456.281 Q2213.6 458.402 2211.97 459.909 Q2210.34 461.415 2206.68 464.612 L2200.01 471.099 L2211.36 471.099 Q2216.89 471.099 2217.32 470.607 Q2217.94 469.715 2218.71 465.012 L2220.3 465.012 L2218.52 475.956 L2195.16 475.956 Z" fill="#000000" fill-rule="evenodd" fill-opacity="1" /><polyline clip-path="url(#clip540)" style="stroke:#0000ff; stroke-linecap:butt; stroke-linejoin:round; stroke-width:7.5; stroke-opacity:1; fill:none" stroke-dasharray="4, 8" points="
  1970.35,522.635 2114.78,522.635 
  "/>
<path clip-path="url(#clip540)" d="M2179.9 478.215 L2157.18 478.215 L2157.18 476.248 L2179.9 476.248 L2179.9 478.215 Z" fill="#000000" fill-rule="evenodd" fill-opacity="1" /><path clip-path="url(#clip540)" d="M2186.02 526.416 Q2186.02 530.851 2183.74 535.287 Q2181.45 539.722 2177.72 543.148 Q2173.99 546.53 2168.89 548.725 Q2163.8 550.921 2158.48 551.097 L2155.06 564.492 Q2154.4 567.742 2154.05 568.093 Q2153.7 568.444 2153.17 568.444 Q2152.07 568.444 2152.07 567.434 Q2152.07 567.127 2154.05 559.529 L2156.16 551.097 Q2148.16 550.658 2143.51 546.046 Q2138.85 541.435 2138.85 534.804 Q2138.85 530.324 2141.14 525.889 Q2143.46 521.409 2147.2 518.027 Q2150.97 514.646 2156.07 512.494 Q2161.16 510.342 2166.39 510.166 L2171.62 489.393 Q2171.88 488.208 2172.1 487.9 Q2172.32 487.593 2172.98 487.593 Q2173.46 487.593 2173.72 487.812 Q2173.99 488.032 2173.99 488.252 L2174.03 488.471 L2173.77 489.745 L2168.72 510.166 Q2173.2 510.474 2176.67 512.055 Q2180.14 513.636 2182.11 516.007 Q2184.09 518.335 2185.05 520.97 Q2186.02 523.605 2186.02 526.416 M2165.86 512.142 Q2161.03 512.582 2156.95 514.953 Q2152.86 517.325 2150.23 520.838 Q2147.59 524.308 2146.14 528.48 Q2144.69 532.608 2144.69 536.692 Q2144.69 539.898 2145.75 542.357 Q2146.85 544.817 2148.65 546.222 Q2150.45 547.584 2152.42 548.33 Q2154.44 549.033 2156.6 549.121 L2165.86 512.142 M2180.14 524.527 Q2180.14 518.818 2176.84 515.612 Q2173.55 512.406 2168.19 512.142 L2158.92 549.121 Q2162.83 548.813 2166.26 547.188 Q2169.73 545.519 2172.23 543.06 Q2174.73 540.557 2176.53 537.483 Q2178.34 534.365 2179.21 531.071 Q2180.14 527.733 2180.14 524.527 Z" fill="#000000" fill-rule="evenodd" fill-opacity="1" /><path clip-path="url(#clip540)" d="M2195.16 584.698 Q2195.16 582.822 2196.23 581.931 Q2197.31 581.039 2198.69 581.039 Q2200.14 581.039 2201.15 581.992 Q2202.2 582.915 2202.2 584.544 Q2202.2 586.296 2200.97 587.28 Q2199.77 588.264 2198.05 588.018 Q2199.55 590.539 2202.32 591.676 Q2205.12 592.814 2207.7 592.814 Q2210.4 592.814 2212.59 590.477 Q2214.8 588.141 2214.8 582.423 Q2214.8 577.566 2212.89 574.768 Q2211.02 571.971 2207.3 571.971 L2204.53 571.971 Q2203.58 571.971 2203.3 571.878 Q2203.03 571.786 2203.03 571.263 Q2203.03 570.649 2203.98 570.526 Q2204.93 570.526 2206.44 570.341 Q2210.1 570.218 2212.03 567.052 Q2213.79 564.101 2213.79 559.889 Q2213.79 556.046 2211.94 554.448 Q2210.13 552.818 2207.76 552.818 Q2205.55 552.818 2203.12 553.741 Q2200.69 554.663 2199.37 556.723 Q2203.27 556.723 2203.27 559.889 Q2203.27 561.272 2202.38 562.195 Q2201.52 563.086 2200.08 563.086 Q2198.69 563.086 2197.77 562.225 Q2196.85 561.334 2196.85 559.827 Q2196.85 556.231 2200.04 553.741 Q2203.27 551.25 2208.01 551.25 Q2212.68 551.25 2216.12 553.71 Q2219.6 556.169 2219.6 559.95 Q2219.6 563.67 2217.14 566.714 Q2214.68 569.757 2210.77 571.018 Q2215.57 571.971 2218.43 575.229 Q2221.29 578.457 2221.29 582.423 Q2221.29 587.341 2217.41 590.969 Q2213.54 594.566 2207.88 594.566 Q2202.66 594.566 2198.91 591.738 Q2195.16 588.909 2195.16 584.698 Z" fill="#000000" fill-rule="evenodd" fill-opacity="1" /><polyline clip-path="url(#clip540)" style="stroke:#ff0000; stroke-linecap:butt; stroke-linejoin:round; stroke-width:7.5; stroke-opacity:1; fill:none" stroke-dasharray="4, 8" points="
  1970.35,640.545 2114.78,640.545 
  "/>
<path clip-path="url(#clip540)" d="M2179.9 596.599 L2157.18 596.599 L2157.18 594.631 L2179.9 594.631 L2179.9 596.599 Z" fill="#000000" fill-rule="evenodd" fill-opacity="1" /><path clip-path="url(#clip540)" d="M2186.02 644.799 Q2186.02 649.235 2183.74 653.67 Q2181.45 658.106 2177.72 661.532 Q2173.99 664.913 2168.89 667.109 Q2163.8 669.305 2158.48 669.481 L2155.06 682.875 Q2154.4 686.125 2154.05 686.476 Q2153.7 686.828 2153.17 686.828 Q2152.07 686.828 2152.07 685.818 Q2152.07 685.51 2154.05 677.913 L2156.16 669.481 Q2148.16 669.041 2143.51 664.43 Q2138.85 659.819 2138.85 653.187 Q2138.85 648.708 2141.14 644.272 Q2143.46 639.793 2147.2 636.411 Q2150.97 633.029 2156.07 630.877 Q2161.16 628.725 2166.39 628.55 L2171.62 607.777 Q2171.88 606.591 2172.1 606.284 Q2172.32 605.976 2172.98 605.976 Q2173.46 605.976 2173.72 606.196 Q2173.99 606.416 2173.99 606.635 L2174.03 606.855 L2173.77 608.128 L2168.72 628.55 Q2173.2 628.857 2176.67 630.438 Q2180.14 632.019 2182.11 634.391 Q2184.09 636.718 2185.05 639.353 Q2186.02 641.988 2186.02 644.799 M2165.86 630.526 Q2161.03 630.965 2156.95 633.337 Q2152.86 635.708 2150.23 639.222 Q2147.59 642.691 2146.14 646.863 Q2144.69 650.991 2144.69 655.076 Q2144.69 658.282 2145.75 660.741 Q2146.85 663.2 2148.65 664.606 Q2150.45 665.967 2152.42 666.714 Q2154.44 667.416 2156.6 667.504 L2165.86 630.526 M2180.14 642.911 Q2180.14 637.201 2176.84 633.996 Q2173.55 630.79 2168.19 630.526 L2158.92 667.504 Q2162.83 667.197 2166.26 665.572 Q2169.73 663.903 2172.23 661.444 Q2174.73 658.94 2176.53 655.866 Q2178.34 652.748 2179.21 649.454 Q2180.14 646.117 2180.14 642.911 Z" fill="#000000" fill-rule="evenodd" fill-opacity="1" /><path clip-path="url(#clip540)" d="M2195.16 701.595 L2195.16 699.659 L2214.49 670.116 Q2214.99 669.347 2215.75 669.378 Q2216.46 669.378 2216.61 669.654 Q2216.77 669.931 2216.77 671.007 L2216.77 699.659 L2223.07 699.659 L2223.07 701.595 L2216.77 701.595 L2216.77 707.067 Q2216.77 708.881 2217.51 709.465 Q2218.27 710.049 2221.53 710.049 L2222.86 710.049 L2222.86 711.986 Q2220.27 711.802 2214.31 711.802 Q2208.38 711.802 2205.79 711.986 L2205.79 710.049 L2207.12 710.049 Q2210.37 710.049 2211.14 709.496 Q2211.91 708.912 2211.91 707.067 L2211.91 701.595 L2195.16 701.595 M2196.94 699.659 L2212.28 699.659 L2212.28 676.172 L2196.94 699.659 Z" fill="#000000" fill-rule="evenodd" fill-opacity="1" /></svg>
