<?xml version="1.0" encoding="utf-8"?>
<svg xmlns="http://www.w3.org/2000/svg" xmlns:xlink="http://www.w3.org/1999/xlink" width="600" height="400" viewBox="0 0 2400 1600">
<defs>
  <clipPath id="clip210">
    <rect x="0" y="0" width="2400" height="1600"/>
  </clipPath>
</defs>
<path clip-path="url(#clip210)" d="
M0 1600 L2400 1600 L2400 0 L0 0  Z
  " fill="#ffffff" fill-rule="evenodd" fill-opacity="1"/>
<defs>
  <clipPath id="clip211">
    <rect x="480" y="0" width="1681" height="1600"/>
  </clipPath>
</defs>
<path clip-path="url(#clip210)" d="
M175.445 1423.18 L2352.76 1423.18 L2352.76 47.2441 L175.445 47.2441  Z
  " fill="#ffffff" fill-rule="evenodd" fill-opacity="1"/>
<defs>
  <clipPath id="clip212">
    <rect x="175" y="47" width="2178" height="1377"/>
  </clipPath>
</defs>
<polyline clip-path="url(#clip212)" style="stroke:#000000; stroke-linecap:butt; stroke-linejoin:round; stroke-width:2; stroke-opacity:0.1; fill:none" points="
  237.067,1423.18 237.067,47.2441 
  "/>
<polyline clip-path="url(#clip212)" style="stroke:#000000; stroke-linecap:butt; stroke-linejoin:round; stroke-width:2; stroke-opacity:0.1; fill:none" points="
  750.584,1423.18 750.584,47.2441 
  "/>
<polyline clip-path="url(#clip212)" style="stroke:#000000; stroke-linecap:butt; stroke-linejoin:round; stroke-width:2; stroke-opacity:0.1; fill:none" points="
  1264.1,1423.18 1264.1,47.2441 
  "/>
<polyline clip-path="url(#clip212)" style="stroke:#000000; stroke-linecap:butt; stroke-linejoin:round; stroke-width:2; stroke-opacity:0.1; fill:none" points="
  1777.62,1423.18 1777.62,47.2441 
  "/>
<polyline clip-path="url(#clip212)" style="stroke:#000000; stroke-linecap:butt; stroke-linejoin:round; stroke-width:2; stroke-opacity:0.1; fill:none" points="
  2291.13,1423.18 2291.13,47.2441 
  "/>
<polyline clip-path="url(#clip210)" style="stroke:#000000; stroke-linecap:butt; stroke-linejoin:round; stroke-width:4; stroke-opacity:1; fill:none" points="
  175.445,1423.18 2352.76,1423.18 
  "/>
<polyline clip-path="url(#clip210)" style="stroke:#000000; stroke-linecap:butt; stroke-linejoin:round; stroke-width:4; stroke-opacity:1; fill:none" points="
  237.067,1423.18 237.067,1404.28 
  "/>
<polyline clip-path="url(#clip210)" style="stroke:#000000; stroke-linecap:butt; stroke-linejoin:round; stroke-width:4; stroke-opacity:1; fill:none" points="
  750.584,1423.18 750.584,1404.28 
  "/>
<polyline clip-path="url(#clip210)" style="stroke:#000000; stroke-linecap:butt; stroke-linejoin:round; stroke-width:4; stroke-opacity:1; fill:none" points="
  1264.1,1423.18 1264.1,1404.28 
  "/>
<polyline clip-path="url(#clip210)" style="stroke:#000000; stroke-linecap:butt; stroke-linejoin:round; stroke-width:4; stroke-opacity:1; fill:none" points="
  1777.62,1423.18 1777.62,1404.28 
  "/>
<polyline clip-path="url(#clip210)" style="stroke:#000000; stroke-linecap:butt; stroke-linejoin:round; stroke-width:4; stroke-opacity:1; fill:none" points="
  2291.13,1423.18 2291.13,1404.28 
  "/>
<path clip-path="url(#clip210)" d="M199.371 1454.1 Q195.76 1454.1 193.931 1457.66 Q192.125 1461.2 192.125 1468.33 Q192.125 1475.44 193.931 1479.01 Q195.76 1482.55 199.371 1482.55 Q203.005 1482.55 204.81 1479.01 Q206.639 1475.44 206.639 1468.33 Q206.639 1461.2 204.81 1457.66 Q203.005 1454.1 199.371 1454.1 M199.371 1450.39 Q205.181 1450.39 208.236 1455 Q211.315 1459.58 211.315 1468.33 Q211.315 1477.06 208.236 1481.67 Q205.181 1486.25 199.371 1486.25 Q193.56 1486.25 190.482 1481.67 Q187.426 1477.06 187.426 1468.33 Q187.426 1459.58 190.482 1455 Q193.56 1450.39 199.371 1450.39 Z" fill="#000000" fill-rule="evenodd" fill-opacity="1" /><path clip-path="url(#clip210)" d="M219.533 1479.7 L224.417 1479.7 L224.417 1485.58 L219.533 1485.58 L219.533 1479.7 Z" fill="#000000" fill-rule="evenodd" fill-opacity="1" /><path clip-path="url(#clip210)" d="M244.602 1454.1 Q240.991 1454.1 239.162 1457.66 Q237.357 1461.2 237.357 1468.33 Q237.357 1475.44 239.162 1479.01 Q240.991 1482.55 244.602 1482.55 Q248.236 1482.55 250.042 1479.01 Q251.87 1475.44 251.87 1468.33 Q251.87 1461.2 250.042 1457.66 Q248.236 1454.1 244.602 1454.1 M244.602 1450.39 Q250.412 1450.39 253.468 1455 Q256.546 1459.58 256.546 1468.33 Q256.546 1477.06 253.468 1481.67 Q250.412 1486.25 244.602 1486.25 Q238.792 1486.25 235.713 1481.67 Q232.658 1477.06 232.658 1468.33 Q232.658 1459.58 235.713 1455 Q238.792 1450.39 244.602 1450.39 Z" fill="#000000" fill-rule="evenodd" fill-opacity="1" /><path clip-path="url(#clip210)" d="M274.764 1454.1 Q271.153 1454.1 269.324 1457.66 Q267.518 1461.2 267.518 1468.33 Q267.518 1475.44 269.324 1479.01 Q271.153 1482.55 274.764 1482.55 Q278.398 1482.55 280.204 1479.01 Q282.032 1475.44 282.032 1468.33 Q282.032 1461.2 280.204 1457.66 Q278.398 1454.1 274.764 1454.1 M274.764 1450.39 Q280.574 1450.39 283.629 1455 Q286.708 1459.58 286.708 1468.33 Q286.708 1477.06 283.629 1481.67 Q280.574 1486.25 274.764 1486.25 Q268.954 1486.25 265.875 1481.67 Q262.819 1477.06 262.819 1468.33 Q262.819 1459.58 265.875 1455 Q268.954 1450.39 274.764 1450.39 Z" fill="#000000" fill-rule="evenodd" fill-opacity="1" /><path clip-path="url(#clip210)" d="M713.385 1454.1 Q709.774 1454.1 707.945 1457.66 Q706.14 1461.2 706.14 1468.33 Q706.14 1475.44 707.945 1479.01 Q709.774 1482.55 713.385 1482.55 Q717.019 1482.55 718.825 1479.01 Q720.653 1475.44 720.653 1468.33 Q720.653 1461.2 718.825 1457.66 Q717.019 1454.1 713.385 1454.1 M713.385 1450.39 Q719.195 1450.39 722.251 1455 Q725.329 1459.58 725.329 1468.33 Q725.329 1477.06 722.251 1481.67 Q719.195 1486.25 713.385 1486.25 Q707.575 1486.25 704.496 1481.67 Q701.441 1477.06 701.441 1468.33 Q701.441 1459.58 704.496 1455 Q707.575 1450.39 713.385 1450.39 Z" fill="#000000" fill-rule="evenodd" fill-opacity="1" /><path clip-path="url(#clip210)" d="M733.547 1479.7 L738.431 1479.7 L738.431 1485.58 L733.547 1485.58 L733.547 1479.7 Z" fill="#000000" fill-rule="evenodd" fill-opacity="1" /><path clip-path="url(#clip210)" d="M752.644 1481.64 L768.963 1481.64 L768.963 1485.58 L747.019 1485.58 L747.019 1481.64 Q749.681 1478.89 754.264 1474.26 Q758.871 1469.61 760.051 1468.27 Q762.297 1465.74 763.176 1464.01 Q764.079 1462.25 764.079 1460.56 Q764.079 1457.8 762.135 1456.07 Q760.213 1454.33 757.112 1454.33 Q754.913 1454.33 752.459 1455.09 Q750.028 1455.86 747.251 1457.41 L747.251 1452.69 Q750.075 1451.55 752.528 1450.97 Q754.982 1450.39 757.019 1450.39 Q762.389 1450.39 765.584 1453.08 Q768.778 1455.77 768.778 1460.26 Q768.778 1462.39 767.968 1464.31 Q767.181 1466.2 765.075 1468.8 Q764.496 1469.47 761.394 1472.69 Q758.292 1475.88 752.644 1481.64 Z" fill="#000000" fill-rule="evenodd" fill-opacity="1" /><path clip-path="url(#clip210)" d="M778.824 1451.02 L797.181 1451.02 L797.181 1454.96 L783.107 1454.96 L783.107 1463.43 Q784.125 1463.08 785.144 1462.92 Q786.162 1462.73 787.181 1462.73 Q792.968 1462.73 796.348 1465.9 Q799.727 1469.08 799.727 1474.49 Q799.727 1480.07 796.255 1483.17 Q792.783 1486.25 786.463 1486.25 Q784.287 1486.25 782.019 1485.88 Q779.774 1485.51 777.366 1484.77 L777.366 1480.07 Q779.449 1481.2 781.672 1481.76 Q783.894 1482.32 786.371 1482.32 Q790.375 1482.32 792.713 1480.21 Q795.051 1478.1 795.051 1474.49 Q795.051 1470.88 792.713 1468.77 Q790.375 1466.67 786.371 1466.67 Q784.496 1466.67 782.621 1467.08 Q780.769 1467.5 778.824 1468.38 L778.824 1451.02 Z" fill="#000000" fill-rule="evenodd" fill-opacity="1" /><path clip-path="url(#clip210)" d="M1226.4 1454.1 Q1222.79 1454.1 1220.96 1457.66 Q1219.16 1461.2 1219.16 1468.33 Q1219.16 1475.44 1220.96 1479.01 Q1222.79 1482.55 1226.4 1482.55 Q1230.04 1482.55 1231.84 1479.01 Q1233.67 1475.44 1233.67 1468.33 Q1233.67 1461.2 1231.84 1457.66 Q1230.04 1454.1 1226.4 1454.1 M1226.4 1450.39 Q1232.21 1450.39 1235.27 1455 Q1238.35 1459.58 1238.35 1468.33 Q1238.35 1477.06 1235.27 1481.67 Q1232.21 1486.25 1226.4 1486.25 Q1220.59 1486.25 1217.52 1481.67 Q1214.46 1477.06 1214.46 1468.33 Q1214.46 1459.58 1217.52 1455 Q1220.59 1450.39 1226.4 1450.39 Z" fill="#000000" fill-rule="evenodd" fill-opacity="1" /><path clip-path="url(#clip210)" d="M1246.57 1479.7 L1251.45 1479.7 L1251.45 1485.58 L1246.57 1485.58 L1246.57 1479.7 Z" fill="#000000" fill-rule="evenodd" fill-opacity="1" /><path clip-path="url(#clip210)" d="M1261.68 1451.02 L1280.04 1451.02 L1280.04 1454.96 L1265.96 1454.96 L1265.96 1463.43 Q1266.98 1463.08 1268 1462.92 Q1269.02 1462.73 1270.04 1462.73 Q1275.83 1462.73 1279.2 1465.9 Q1282.58 1469.08 1282.58 1474.49 Q1282.58 1480.07 1279.11 1483.17 Q1275.64 1486.25 1269.32 1486.25 Q1267.14 1486.25 1264.88 1485.88 Q1262.63 1485.51 1260.22 1484.77 L1260.22 1480.07 Q1262.31 1481.2 1264.53 1481.76 Q1266.75 1482.32 1269.23 1482.32 Q1273.23 1482.32 1275.57 1480.21 Q1277.91 1478.1 1277.91 1474.49 Q1277.91 1470.88 1275.57 1468.77 Q1273.23 1466.67 1269.23 1466.67 Q1267.35 1466.67 1265.48 1467.08 Q1263.63 1467.5 1261.68 1468.38 L1261.68 1451.02 Z" fill="#000000" fill-rule="evenodd" fill-opacity="1" /><path clip-path="url(#clip210)" d="M1301.8 1454.1 Q1298.19 1454.1 1296.36 1457.66 Q1294.55 1461.2 1294.55 1468.33 Q1294.55 1475.44 1296.36 1479.01 Q1298.19 1482.55 1301.8 1482.55 Q1305.43 1482.55 1307.24 1479.01 Q1309.07 1475.44 1309.07 1468.33 Q1309.07 1461.2 1307.24 1457.66 Q1305.43 1454.1 1301.8 1454.1 M1301.8 1450.39 Q1307.61 1450.39 1310.66 1455 Q1313.74 1459.58 1313.74 1468.33 Q1313.74 1477.06 1310.66 1481.67 Q1307.61 1486.25 1301.8 1486.25 Q1295.99 1486.25 1292.91 1481.67 Q1289.85 1477.06 1289.85 1468.33 Q1289.85 1459.58 1292.91 1455 Q1295.99 1450.39 1301.8 1450.39 Z" fill="#000000" fill-rule="evenodd" fill-opacity="1" /><path clip-path="url(#clip210)" d="M1740.42 1454.1 Q1736.81 1454.1 1734.98 1457.66 Q1733.17 1461.2 1733.17 1468.33 Q1733.17 1475.44 1734.98 1479.01 Q1736.81 1482.55 1740.42 1482.55 Q1744.05 1482.55 1745.86 1479.01 Q1747.69 1475.44 1747.69 1468.33 Q1747.69 1461.2 1745.86 1457.66 Q1744.05 1454.1 1740.42 1454.1 M1740.42 1450.39 Q1746.23 1450.39 1749.28 1455 Q1752.36 1459.58 1752.36 1468.33 Q1752.36 1477.06 1749.28 1481.67 Q1746.23 1486.25 1740.42 1486.25 Q1734.61 1486.25 1731.53 1481.67 Q1728.47 1477.06 1728.47 1468.33 Q1728.47 1459.58 1731.53 1455 Q1734.61 1450.39 1740.42 1450.39 Z" fill="#000000" fill-rule="evenodd" fill-opacity="1" /><path clip-path="url(#clip210)" d="M1760.58 1479.7 L1765.46 1479.7 L1765.46 1485.58 L1760.58 1485.58 L1760.58 1479.7 Z" fill="#000000" fill-rule="evenodd" fill-opacity="1" /><path clip-path="url(#clip210)" d="M1774.47 1451.02 L1796.69 1451.02 L1796.69 1453.01 L1784.14 1485.58 L1779.26 1485.58 L1791.07 1454.96 L1774.47 1454.96 L1774.47 1451.02 Z" fill="#000000" fill-rule="evenodd" fill-opacity="1" /><path clip-path="url(#clip210)" d="M1805.86 1451.02 L1824.21 1451.02 L1824.21 1454.96 L1810.14 1454.96 L1810.14 1463.43 Q1811.16 1463.08 1812.18 1462.92 Q1813.2 1462.73 1814.21 1462.73 Q1820 1462.73 1823.38 1465.9 Q1826.76 1469.08 1826.76 1474.49 Q1826.76 1480.07 1823.29 1483.17 Q1819.82 1486.25 1813.5 1486.25 Q1811.32 1486.25 1809.05 1485.88 Q1806.81 1485.51 1804.4 1484.77 L1804.4 1480.07 Q1806.48 1481.2 1808.71 1481.76 Q1810.93 1482.32 1813.4 1482.32 Q1817.41 1482.32 1819.75 1480.21 Q1822.08 1478.1 1822.08 1474.49 Q1822.08 1470.88 1819.75 1468.77 Q1817.41 1466.67 1813.4 1466.67 Q1811.53 1466.67 1809.65 1467.08 Q1807.8 1467.5 1805.86 1468.38 L1805.86 1451.02 Z" fill="#000000" fill-rule="evenodd" fill-opacity="1" /><path clip-path="url(#clip210)" d="M2243.21 1481.64 L2250.84 1481.64 L2250.84 1455.28 L2242.53 1456.95 L2242.53 1452.69 L2250.8 1451.02 L2255.47 1451.02 L2255.47 1481.64 L2263.11 1481.64 L2263.11 1485.58 L2243.21 1485.58 L2243.21 1481.64 Z" fill="#000000" fill-rule="evenodd" fill-opacity="1" /><path clip-path="url(#clip210)" d="M2272.56 1479.7 L2277.44 1479.7 L2277.44 1485.58 L2272.56 1485.58 L2272.56 1479.7 Z" fill="#000000" fill-rule="evenodd" fill-opacity="1" /><path clip-path="url(#clip210)" d="M2297.63 1454.1 Q2294.02 1454.1 2292.19 1457.66 Q2290.38 1461.2 2290.38 1468.33 Q2290.38 1475.44 2292.19 1479.01 Q2294.02 1482.55 2297.63 1482.55 Q2301.26 1482.55 2303.07 1479.01 Q2304.9 1475.44 2304.9 1468.33 Q2304.9 1461.2 2303.07 1457.66 Q2301.26 1454.1 2297.63 1454.1 M2297.63 1450.39 Q2303.44 1450.39 2306.49 1455 Q2309.57 1459.58 2309.57 1468.33 Q2309.57 1477.06 2306.49 1481.67 Q2303.44 1486.25 2297.63 1486.25 Q2291.82 1486.25 2288.74 1481.67 Q2285.68 1477.06 2285.68 1468.33 Q2285.68 1459.58 2288.74 1455 Q2291.82 1450.39 2297.63 1450.39 Z" fill="#000000" fill-rule="evenodd" fill-opacity="1" /><path clip-path="url(#clip210)" d="M2327.79 1454.1 Q2324.18 1454.1 2322.35 1457.66 Q2320.54 1461.2 2320.54 1468.33 Q2320.54 1475.44 2322.35 1479.01 Q2324.18 1482.55 2327.79 1482.55 Q2331.42 1482.55 2333.23 1479.01 Q2335.06 1475.44 2335.06 1468.33 Q2335.06 1461.2 2333.23 1457.66 Q2331.42 1454.1 2327.79 1454.1 M2327.79 1450.39 Q2333.6 1450.39 2336.65 1455 Q2339.73 1459.58 2339.73 1468.33 Q2339.73 1477.06 2336.65 1481.67 Q2333.6 1486.25 2327.79 1486.25 Q2321.98 1486.25 2318.9 1481.67 Q2315.84 1477.06 2315.84 1468.33 Q2315.84 1459.58 2318.9 1455 Q2321.98 1450.39 2327.79 1450.39 Z" fill="#000000" fill-rule="evenodd" fill-opacity="1" /><path clip-path="url(#clip210)" d="M1280.72 1532.4 L1267.82 1549.74 L1281.38 1568.04 L1274.48 1568.04 L1264.1 1554.04 L1253.72 1568.04 L1246.82 1568.04 L1260.66 1549.39 L1248 1532.4 L1254.9 1532.4 L1264.36 1545.1 L1273.81 1532.4 L1280.72 1532.4 Z" fill="#000000" fill-rule="evenodd" fill-opacity="1" /><polyline clip-path="url(#clip212)" style="stroke:#000000; stroke-linecap:butt; stroke-linejoin:round; stroke-width:2; stroke-opacity:0.1; fill:none" points="
  175.445,1384.24 2352.76,1384.24 
  "/>
<polyline clip-path="url(#clip212)" style="stroke:#000000; stroke-linecap:butt; stroke-linejoin:round; stroke-width:2; stroke-opacity:0.1; fill:none" points="
  175.445,1095.78 2352.76,1095.78 
  "/>
<polyline clip-path="url(#clip212)" style="stroke:#000000; stroke-linecap:butt; stroke-linejoin:round; stroke-width:2; stroke-opacity:0.1; fill:none" points="
  175.445,807.326 2352.76,807.326 
  "/>
<polyline clip-path="url(#clip212)" style="stroke:#000000; stroke-linecap:butt; stroke-linejoin:round; stroke-width:2; stroke-opacity:0.1; fill:none" points="
  175.445,518.87 2352.76,518.87 
  "/>
<polyline clip-path="url(#clip212)" style="stroke:#000000; stroke-linecap:butt; stroke-linejoin:round; stroke-width:2; stroke-opacity:0.1; fill:none" points="
  175.445,230.414 2352.76,230.414 
  "/>
<polyline clip-path="url(#clip210)" style="stroke:#000000; stroke-linecap:butt; stroke-linejoin:round; stroke-width:4; stroke-opacity:1; fill:none" points="
  175.445,1423.18 175.445,47.2441 
  "/>
<polyline clip-path="url(#clip210)" style="stroke:#000000; stroke-linecap:butt; stroke-linejoin:round; stroke-width:4; stroke-opacity:1; fill:none" points="
  175.445,1384.24 194.343,1384.24 
  "/>
<polyline clip-path="url(#clip210)" style="stroke:#000000; stroke-linecap:butt; stroke-linejoin:round; stroke-width:4; stroke-opacity:1; fill:none" points="
  175.445,1095.78 194.343,1095.78 
  "/>
<polyline clip-path="url(#clip210)" style="stroke:#000000; stroke-linecap:butt; stroke-linejoin:round; stroke-width:4; stroke-opacity:1; fill:none" points="
  175.445,807.326 194.343,807.326 
  "/>
<polyline clip-path="url(#clip210)" style="stroke:#000000; stroke-linecap:butt; stroke-linejoin:round; stroke-width:4; stroke-opacity:1; fill:none" points="
  175.445,518.87 194.343,518.87 
  "/>
<polyline clip-path="url(#clip210)" style="stroke:#000000; stroke-linecap:butt; stroke-linejoin:round; stroke-width:4; stroke-opacity:1; fill:none" points="
  175.445,230.414 194.343,230.414 
  "/>
<path clip-path="url(#clip210)" d="M127.501 1370.04 Q123.89 1370.04 122.061 1373.6 Q120.255 1377.14 120.255 1384.27 Q120.255 1391.38 122.061 1394.94 Q123.89 1398.49 127.501 1398.49 Q131.135 1398.49 132.941 1394.94 Q134.769 1391.38 134.769 1384.27 Q134.769 1377.14 132.941 1373.6 Q131.135 1370.04 127.501 1370.04 M127.501 1366.33 Q133.311 1366.33 136.367 1370.94 Q139.445 1375.52 139.445 1384.27 Q139.445 1393 136.367 1397.61 Q133.311 1402.19 127.501 1402.19 Q121.691 1402.19 118.612 1397.61 Q115.556 1393 115.556 1384.27 Q115.556 1375.52 118.612 1370.94 Q121.691 1366.33 127.501 1366.33 Z" fill="#000000" fill-rule="evenodd" fill-opacity="1" /><path clip-path="url(#clip210)" d="M119.538 1109.13 L127.177 1109.13 L127.177 1082.76 L118.867 1084.43 L118.867 1080.17 L127.13 1078.5 L131.806 1078.5 L131.806 1109.13 L139.445 1109.13 L139.445 1113.06 L119.538 1113.06 L119.538 1109.13 Z" fill="#000000" fill-rule="evenodd" fill-opacity="1" /><path clip-path="url(#clip210)" d="M123.126 820.671 L139.445 820.671 L139.445 824.606 L117.501 824.606 L117.501 820.671 Q120.163 817.916 124.746 813.287 Q129.353 808.634 130.533 807.291 Q132.779 804.768 133.658 803.032 Q134.561 801.273 134.561 799.583 Q134.561 796.828 132.617 795.092 Q130.695 793.356 127.593 793.356 Q125.394 793.356 122.941 794.12 Q120.51 794.884 117.732 796.435 L117.732 791.713 Q120.556 790.578 123.01 790 Q125.464 789.421 127.501 789.421 Q132.871 789.421 136.066 792.106 Q139.26 794.791 139.26 799.282 Q139.26 801.412 138.45 803.333 Q137.663 805.231 135.556 807.824 Q134.978 808.495 131.876 811.713 Q128.774 814.907 123.126 820.671 Z" fill="#000000" fill-rule="evenodd" fill-opacity="1" /><path clip-path="url(#clip210)" d="M132.316 517.516 Q135.672 518.233 137.547 520.502 Q139.445 522.77 139.445 526.104 Q139.445 531.219 135.927 534.02 Q132.408 536.821 125.927 536.821 Q123.751 536.821 121.436 536.381 Q119.144 535.965 116.691 535.108 L116.691 530.594 Q118.635 531.729 120.95 532.307 Q123.265 532.886 125.788 532.886 Q130.186 532.886 132.478 531.15 Q134.792 529.414 134.792 526.104 Q134.792 523.048 132.64 521.335 Q130.51 519.599 126.691 519.599 L122.663 519.599 L122.663 515.756 L126.876 515.756 Q130.325 515.756 132.154 514.391 Q133.982 513.002 133.982 510.409 Q133.982 507.747 132.084 506.335 Q130.209 504.9 126.691 504.9 Q124.769 504.9 122.57 505.317 Q120.371 505.733 117.732 506.613 L117.732 502.446 Q120.394 501.706 122.709 501.335 Q125.047 500.965 127.107 500.965 Q132.431 500.965 135.533 503.395 Q138.635 505.803 138.635 509.923 Q138.635 512.794 136.992 514.784 Q135.348 516.752 132.316 517.516 Z" fill="#000000" fill-rule="evenodd" fill-opacity="1" /><path clip-path="url(#clip210)" d="M129.862 217.208 L118.056 235.657 L129.862 235.657 L129.862 217.208 M128.635 213.134 L134.515 213.134 L134.515 235.657 L139.445 235.657 L139.445 239.546 L134.515 239.546 L134.515 247.694 L129.862 247.694 L129.862 239.546 L114.26 239.546 L114.26 235.032 L128.635 213.134 Z" fill="#000000" fill-rule="evenodd" fill-opacity="1" /><path clip-path="url(#clip210)" d="M28.3562 802.418 L28.3562 796.561 L56.1743 789.241 L28.3562 781.952 L28.3562 775.045 L56.1743 767.725 L28.3562 760.436 L28.3562 754.58 L64.0042 763.905 L64.0042 770.812 L34.7856 778.483 L64.0042 786.185 L64.0042 793.092 L28.3562 802.418 Z" fill="#000000" fill-rule="evenodd" fill-opacity="1" /><path clip-path="url(#clip210)" d="M14.5426 731.631 Q21.8632 735.896 29.0246 737.965 Q36.186 740.034 43.5384 740.034 Q50.8908 740.034 58.1159 737.965 Q65.3091 735.864 72.5979 731.631 L72.5979 736.724 Q65.1182 741.498 57.8931 743.885 Q50.668 746.241 43.5384 746.241 Q36.4406 746.241 29.2474 743.885 Q22.0542 741.53 14.5426 736.724 L14.5426 731.631 Z" fill="#000000" fill-rule="evenodd" fill-opacity="1" /><path clip-path="url(#clip210)" d="M28.3562 690.636 L45.7028 703.527 L64.0042 689.968 L64.0042 696.875 L49.9996 707.251 L64.0042 717.627 L64.0042 724.533 L45.3526 710.688 L28.3562 723.356 L28.3562 716.449 L41.0558 706.996 L28.3562 697.543 L28.3562 690.636 Z" fill="#000000" fill-rule="evenodd" fill-opacity="1" /><path clip-path="url(#clip210)" d="M14.5426 682.615 L14.5426 677.523 Q22.0542 672.748 29.2474 670.393 Q36.4406 668.006 43.5384 668.006 Q50.668 668.006 57.8931 670.393 Q65.1182 672.748 72.5979 677.523 L72.5979 682.615 Q65.3091 678.382 58.1159 676.313 Q50.8908 674.213 43.5384 674.213 Q36.186 674.213 29.0246 676.313 Q21.8632 678.382 14.5426 682.615 Z" fill="#000000" fill-rule="evenodd" fill-opacity="1" /><polyline clip-path="url(#clip212)" style="stroke:#0000ff; stroke-linecap:butt; stroke-linejoin:round; stroke-width:4; stroke-opacity:1; fill:none" points="
  237.067,1384.24 345.176,1380.64 453.285,1369.86 561.394,1351.88 669.502,1326.71 777.611,1294.35 885.72,1254.79 993.829,1208.05 1101.94,1154.11 1210.05,1092.99 
  1318.15,1024.67 1426.26,949.157 1534.37,866.456 1642.48,776.563 1750.59,679.478 1858.7,575.203 1966.81,463.736 2074.92,345.077 2183.03,219.227 2291.13,86.1857 
  
  "/>
<circle clip-path="url(#clip212)" cx="291.122" cy="1383.34" r="14.4" fill="#ff0000" fill-rule="evenodd" fill-opacity="1" stroke="#000000" stroke-opacity="1" stroke-width="3.2"/>
<circle clip-path="url(#clip212)" cx="399.23" cy="1376.15" r="14.4" fill="#ff0000" fill-rule="evenodd" fill-opacity="1" stroke="#000000" stroke-opacity="1" stroke-width="3.2"/>
<circle clip-path="url(#clip212)" cx="507.339" cy="1361.77" r="14.4" fill="#ff0000" fill-rule="evenodd" fill-opacity="1" stroke="#000000" stroke-opacity="1" stroke-width="3.2"/>
<circle clip-path="url(#clip212)" cx="615.448" cy="1340.19" r="14.4" fill="#ff0000" fill-rule="evenodd" fill-opacity="1" stroke="#000000" stroke-opacity="1" stroke-width="3.2"/>
<circle clip-path="url(#clip212)" cx="723.557" cy="1311.43" r="14.4" fill="#ff0000" fill-rule="evenodd" fill-opacity="1" stroke="#000000" stroke-opacity="1" stroke-width="3.2"/>
<circle clip-path="url(#clip212)" cx="831.665" cy="1275.47" r="14.4" fill="#ff0000" fill-rule="evenodd" fill-opacity="1" stroke="#000000" stroke-opacity="1" stroke-width="3.2"/>
<circle clip-path="url(#clip212)" cx="939.774" cy="1232.32" r="14.4" fill="#ff0000" fill-rule="evenodd" fill-opacity="1" stroke="#000000" stroke-opacity="1" stroke-width="3.2"/>
<circle clip-path="url(#clip212)" cx="1047.88" cy="1181.98" r="14.4" fill="#ff0000" fill-rule="evenodd" fill-opacity="1" stroke="#000000" stroke-opacity="1" stroke-width="3.2"/>
<circle clip-path="url(#clip212)" cx="1155.99" cy="1124.45" r="14.4" fill="#ff0000" fill-rule="evenodd" fill-opacity="1" stroke="#000000" stroke-opacity="1" stroke-width="3.2"/>
<circle clip-path="url(#clip212)" cx="1264.1" cy="1059.73" r="14.4" fill="#ff0000" fill-rule="evenodd" fill-opacity="1" stroke="#000000" stroke-opacity="1" stroke-width="3.2"/>
<circle clip-path="url(#clip212)" cx="1372.21" cy="987.811" r="14.4" fill="#ff0000" fill-rule="evenodd" fill-opacity="1" stroke="#000000" stroke-opacity="1" stroke-width="3.2"/>
<circle clip-path="url(#clip212)" cx="1480.32" cy="908.705" r="14.4" fill="#ff0000" fill-rule="evenodd" fill-opacity="1" stroke="#000000" stroke-opacity="1" stroke-width="3.2"/>
<circle clip-path="url(#clip212)" cx="1588.43" cy="822.408" r="14.4" fill="#ff0000" fill-rule="evenodd" fill-opacity="1" stroke="#000000" stroke-opacity="1" stroke-width="3.2"/>
<circle clip-path="url(#clip212)" cx="1696.54" cy="728.919" r="14.4" fill="#ff0000" fill-rule="evenodd" fill-opacity="1" stroke="#000000" stroke-opacity="1" stroke-width="3.2"/>
<circle clip-path="url(#clip212)" cx="1804.64" cy="628.239" r="14.4" fill="#ff0000" fill-rule="evenodd" fill-opacity="1" stroke="#000000" stroke-opacity="1" stroke-width="3.2"/>
<circle clip-path="url(#clip212)" cx="1912.75" cy="520.368" r="14.4" fill="#ff0000" fill-rule="evenodd" fill-opacity="1" stroke="#000000" stroke-opacity="1" stroke-width="3.2"/>
<circle clip-path="url(#clip212)" cx="2020.86" cy="405.305" r="14.4" fill="#ff0000" fill-rule="evenodd" fill-opacity="1" stroke="#000000" stroke-opacity="1" stroke-width="3.2"/>
<circle clip-path="url(#clip212)" cx="2128.97" cy="283.051" r="14.4" fill="#ff0000" fill-rule="evenodd" fill-opacity="1" stroke="#000000" stroke-opacity="1" stroke-width="3.2"/>
<circle clip-path="url(#clip212)" cx="2237.08" cy="153.605" r="14.4" fill="#ff0000" fill-rule="evenodd" fill-opacity="1" stroke="#000000" stroke-opacity="1" stroke-width="3.2"/>
<path clip-path="url(#clip210)" d="
M248.022 248.629 L931.263 248.629 L931.263 93.1086 L248.022 93.1086  Z
  " fill="#ffffff" fill-rule="evenodd" fill-opacity="1"/>
<polyline clip-path="url(#clip210)" style="stroke:#000000; stroke-linecap:butt; stroke-linejoin:round; stroke-width:4; stroke-opacity:1; fill:none" points="
  248.022,248.629 931.263,248.629 931.263,93.1086 248.022,93.1086 248.022,248.629 
  "/>
<polyline clip-path="url(#clip210)" style="stroke:#0000ff; stroke-linecap:butt; stroke-linejoin:round; stroke-width:4; stroke-opacity:1; fill:none" points="
  272.215,144.949 417.369,144.949 
  "/>
<path clip-path="url(#clip210)" d="M457.394 132.275 L451.052 149.474 L463.76 149.474 L457.394 132.275 M454.755 127.669 L460.056 127.669 L473.227 162.229 L468.366 162.229 L465.218 153.363 L449.64 153.363 L446.491 162.229 L441.561 162.229 L454.755 127.669 Z" fill="#000000" fill-rule="evenodd" fill-opacity="1" /><path clip-path="url(#clip210)" d="M499.639 146.581 L499.639 162.229 L495.38 162.229 L495.38 146.719 Q495.38 143.039 493.945 141.21 Q492.51 139.382 489.639 139.382 Q486.19 139.382 484.2 141.581 Q482.209 143.78 482.209 147.576 L482.209 162.229 L477.927 162.229 L477.927 136.303 L482.209 136.303 L482.209 140.331 Q483.737 137.993 485.797 136.835 Q487.88 135.678 490.588 135.678 Q495.056 135.678 497.348 138.456 Q499.639 141.21 499.639 146.581 Z" fill="#000000" fill-rule="evenodd" fill-opacity="1" /><path clip-path="url(#clip210)" d="M519.917 149.196 Q514.755 149.196 512.764 150.377 Q510.774 151.557 510.774 154.405 Q510.774 156.673 512.255 158.016 Q513.76 159.335 516.329 159.335 Q519.871 159.335 522 156.835 Q524.153 154.312 524.153 150.145 L524.153 149.196 L519.917 149.196 M528.412 147.437 L528.412 162.229 L524.153 162.229 L524.153 158.293 Q522.695 160.655 520.519 161.789 Q518.343 162.9 515.195 162.9 Q511.213 162.9 508.852 160.678 Q506.514 158.432 506.514 154.682 Q506.514 150.307 509.431 148.085 Q512.371 145.863 518.181 145.863 L524.153 145.863 L524.153 145.446 Q524.153 142.507 522.209 140.909 Q520.287 139.289 516.792 139.289 Q514.57 139.289 512.463 139.821 Q510.357 140.354 508.412 141.419 L508.412 137.483 Q510.75 136.581 512.949 136.141 Q515.149 135.678 517.232 135.678 Q522.857 135.678 525.635 138.594 Q528.412 141.511 528.412 147.437 Z" fill="#000000" fill-rule="evenodd" fill-opacity="1" /><path clip-path="url(#clip210)" d="M537.185 126.21 L541.445 126.21 L541.445 162.229 L537.185 162.229 L537.185 126.21 Z" fill="#000000" fill-rule="evenodd" fill-opacity="1" /><path clip-path="url(#clip210)" d="M561.144 164.636 Q559.338 169.266 557.625 170.678 Q555.912 172.09 553.042 172.09 L549.639 172.09 L549.639 168.525 L552.139 168.525 Q553.898 168.525 554.871 167.692 Q555.843 166.858 557.023 163.756 L557.787 161.812 L547.301 136.303 L551.815 136.303 L559.917 156.581 L568.019 136.303 L572.532 136.303 L561.144 164.636 Z" fill="#000000" fill-rule="evenodd" fill-opacity="1" /><path clip-path="url(#clip210)" d="M582.625 128.942 L582.625 136.303 L591.398 136.303 L591.398 139.613 L582.625 139.613 L582.625 153.687 Q582.625 156.858 583.481 157.761 Q584.361 158.664 587.023 158.664 L591.398 158.664 L591.398 162.229 L587.023 162.229 Q582.093 162.229 580.218 160.4 Q578.343 158.548 578.343 153.687 L578.343 139.613 L575.218 139.613 L575.218 136.303 L578.343 136.303 L578.343 128.942 L582.625 128.942 Z" fill="#000000" fill-rule="evenodd" fill-opacity="1" /><path clip-path="url(#clip210)" d="M597 136.303 L601.259 136.303 L601.259 162.229 L597 162.229 L597 136.303 M597 126.21 L601.259 126.21 L601.259 131.604 L597 131.604 L597 126.21 Z" fill="#000000" fill-rule="evenodd" fill-opacity="1" /><path clip-path="url(#clip210)" d="M628.828 137.298 L628.828 141.28 Q627.023 140.284 625.194 139.798 Q623.389 139.289 621.537 139.289 Q617.393 139.289 615.102 141.928 Q612.81 144.544 612.81 149.289 Q612.81 154.034 615.102 156.673 Q617.393 159.289 621.537 159.289 Q623.389 159.289 625.194 158.803 Q627.023 158.293 628.828 157.298 L628.828 161.233 Q627.046 162.067 625.125 162.483 Q623.227 162.9 621.074 162.9 Q615.217 162.9 611.768 159.219 Q608.319 155.539 608.319 149.289 Q608.319 142.946 611.792 139.312 Q615.287 135.678 621.352 135.678 Q623.319 135.678 625.194 136.095 Q627.069 136.488 628.828 137.298 Z" fill="#000000" fill-rule="evenodd" fill-opacity="1" /><path clip-path="url(#clip210)" d="M648.018 149.196 Q642.856 149.196 640.865 150.377 Q638.875 151.557 638.875 154.405 Q638.875 156.673 640.356 158.016 Q641.861 159.335 644.43 159.335 Q647.972 159.335 650.102 156.835 Q652.254 154.312 652.254 150.145 L652.254 149.196 L648.018 149.196 M656.514 147.437 L656.514 162.229 L652.254 162.229 L652.254 158.293 Q650.796 160.655 648.62 161.789 Q646.444 162.9 643.296 162.9 Q639.315 162.9 636.953 160.678 Q634.615 158.432 634.615 154.682 Q634.615 150.307 637.532 148.085 Q640.472 145.863 646.282 145.863 L652.254 145.863 L652.254 145.446 Q652.254 142.507 650.31 140.909 Q648.389 139.289 644.893 139.289 Q642.671 139.289 640.565 139.821 Q638.458 140.354 636.514 141.419 L636.514 137.483 Q638.852 136.581 641.051 136.141 Q643.25 135.678 645.333 135.678 Q650.958 135.678 653.736 138.594 Q656.514 141.511 656.514 147.437 Z" fill="#000000" fill-rule="evenodd" fill-opacity="1" /><path clip-path="url(#clip210)" d="M665.287 126.21 L669.546 126.21 L669.546 162.229 L665.287 162.229 L665.287 126.21 Z" fill="#000000" fill-rule="evenodd" fill-opacity="1" /><path clip-path="url(#clip210)" d="M710.055 137.067 L710.055 141.094 Q708.249 140.169 706.305 139.706 Q704.36 139.243 702.277 139.243 Q699.106 139.243 697.509 140.215 Q695.935 141.187 695.935 143.131 Q695.935 144.613 697.069 145.469 Q698.203 146.303 701.629 147.067 L703.087 147.391 Q707.624 148.363 709.522 150.145 Q711.444 151.905 711.444 155.076 Q711.444 158.687 708.573 160.793 Q705.726 162.9 700.726 162.9 Q698.643 162.9 696.374 162.483 Q694.129 162.09 691.629 161.28 L691.629 156.881 Q693.99 158.108 696.282 158.733 Q698.573 159.335 700.819 159.335 Q703.828 159.335 705.448 158.317 Q707.069 157.275 707.069 155.4 Q707.069 153.664 705.888 152.738 Q704.731 151.812 700.773 150.956 L699.291 150.608 Q695.333 149.775 693.573 148.062 Q691.814 146.326 691.814 143.317 Q691.814 139.659 694.407 137.669 Q696.999 135.678 701.768 135.678 Q704.129 135.678 706.212 136.025 Q708.296 136.372 710.055 137.067 Z" fill="#000000" fill-rule="evenodd" fill-opacity="1" /><path clip-path="url(#clip210)" d="M728.272 139.289 Q724.846 139.289 722.856 141.974 Q720.865 144.636 720.865 149.289 Q720.865 153.942 722.833 156.627 Q724.823 159.289 728.272 159.289 Q731.675 159.289 733.666 156.604 Q735.657 153.918 735.657 149.289 Q735.657 144.682 733.666 141.997 Q731.675 139.289 728.272 139.289 M728.272 135.678 Q733.828 135.678 736.999 139.289 Q740.17 142.9 740.17 149.289 Q740.17 155.655 736.999 159.289 Q733.828 162.9 728.272 162.9 Q722.694 162.9 719.522 159.289 Q716.374 155.655 716.374 149.289 Q716.374 142.9 719.522 139.289 Q722.694 135.678 728.272 135.678 Z" fill="#000000" fill-rule="evenodd" fill-opacity="1" /><path clip-path="url(#clip210)" d="M747.231 126.21 L751.49 126.21 L751.49 162.229 L747.231 162.229 L747.231 126.21 Z" fill="#000000" fill-rule="evenodd" fill-opacity="1" /><path clip-path="url(#clip210)" d="M759.962 151.997 L759.962 136.303 L764.221 136.303 L764.221 151.835 Q764.221 155.516 765.656 157.368 Q767.092 159.196 769.962 159.196 Q773.411 159.196 775.402 156.997 Q777.416 154.798 777.416 151.002 L777.416 136.303 L781.675 136.303 L781.675 162.229 L777.416 162.229 L777.416 158.247 Q775.865 160.608 773.805 161.766 Q771.768 162.9 769.059 162.9 Q764.592 162.9 762.277 160.122 Q759.962 157.344 759.962 151.997 M770.68 135.678 L770.68 135.678 Z" fill="#000000" fill-rule="evenodd" fill-opacity="1" /><path clip-path="url(#clip210)" d="M794.661 128.942 L794.661 136.303 L803.434 136.303 L803.434 139.613 L794.661 139.613 L794.661 153.687 Q794.661 156.858 795.517 157.761 Q796.397 158.664 799.059 158.664 L803.434 158.664 L803.434 162.229 L799.059 162.229 Q794.129 162.229 792.254 160.4 Q790.379 158.548 790.379 153.687 L790.379 139.613 L787.254 139.613 L787.254 136.303 L790.379 136.303 L790.379 128.942 L794.661 128.942 Z" fill="#000000" fill-rule="evenodd" fill-opacity="1" /><path clip-path="url(#clip210)" d="M809.036 136.303 L813.295 136.303 L813.295 162.229 L809.036 162.229 L809.036 136.303 M809.036 126.21 L813.295 126.21 L813.295 131.604 L809.036 131.604 L809.036 126.21 Z" fill="#000000" fill-rule="evenodd" fill-opacity="1" /><path clip-path="url(#clip210)" d="M832.253 139.289 Q828.827 139.289 826.837 141.974 Q824.846 144.636 824.846 149.289 Q824.846 153.942 826.814 156.627 Q828.804 159.289 832.253 159.289 Q835.656 159.289 837.647 156.604 Q839.638 153.918 839.638 149.289 Q839.638 144.682 837.647 141.997 Q835.656 139.289 832.253 139.289 M832.253 135.678 Q837.809 135.678 840.98 139.289 Q844.151 142.9 844.151 149.289 Q844.151 155.655 840.98 159.289 Q837.809 162.9 832.253 162.9 Q826.675 162.9 823.503 159.289 Q820.355 155.655 820.355 149.289 Q820.355 142.9 823.503 139.289 Q826.675 135.678 832.253 135.678 Z" fill="#000000" fill-rule="evenodd" fill-opacity="1" /><path clip-path="url(#clip210)" d="M872.762 146.581 L872.762 162.229 L868.503 162.229 L868.503 146.719 Q868.503 143.039 867.068 141.21 Q865.633 139.382 862.762 139.382 Q859.313 139.382 857.323 141.581 Q855.332 143.78 855.332 147.576 L855.332 162.229 L851.05 162.229 L851.05 136.303 L855.332 136.303 L855.332 140.331 Q856.86 137.993 858.92 136.835 Q861.003 135.678 863.711 135.678 Q868.179 135.678 870.471 138.456 Q872.762 141.21 872.762 146.581 Z" fill="#000000" fill-rule="evenodd" fill-opacity="1" /><circle clip-path="url(#clip210)" cx="344.792" cy="196.789" r="23.04" fill="#ff0000" fill-rule="evenodd" fill-opacity="1" stroke="#000000" stroke-opacity="1" stroke-width="5.12"/>
<path clip-path="url(#clip210)" d="M441.561 179.509 L447.857 179.509 L463.181 208.421 L463.181 179.509 L467.718 179.509 L467.718 214.069 L461.422 214.069 L446.098 185.157 L446.098 214.069 L441.561 214.069 L441.561 179.509 Z" fill="#000000" fill-rule="evenodd" fill-opacity="1" /><path clip-path="url(#clip210)" d="M476.399 203.837 L476.399 188.143 L480.658 188.143 L480.658 203.675 Q480.658 207.356 482.093 209.208 Q483.528 211.036 486.399 211.036 Q489.848 211.036 491.838 208.837 Q493.852 206.638 493.852 202.842 L493.852 188.143 L498.112 188.143 L498.112 214.069 L493.852 214.069 L493.852 210.087 Q492.301 212.448 490.241 213.606 Q488.204 214.74 485.496 214.74 Q481.028 214.74 478.714 211.962 Q476.399 209.184 476.399 203.837 M487.116 187.518 L487.116 187.518 Z" fill="#000000" fill-rule="evenodd" fill-opacity="1" /><path clip-path="url(#clip210)" d="M527.07 193.12 Q528.667 190.249 530.889 188.884 Q533.111 187.518 536.121 187.518 Q540.172 187.518 542.371 190.365 Q544.57 193.189 544.57 198.421 L544.57 214.069 L540.287 214.069 L540.287 198.559 Q540.287 194.833 538.968 193.027 Q537.648 191.222 534.94 191.222 Q531.63 191.222 529.709 193.421 Q527.787 195.62 527.787 199.416 L527.787 214.069 L523.505 214.069 L523.505 198.559 Q523.505 194.809 522.186 193.027 Q520.866 191.222 518.111 191.222 Q514.848 191.222 512.926 193.444 Q511.005 195.643 511.005 199.416 L511.005 214.069 L506.723 214.069 L506.723 188.143 L511.005 188.143 L511.005 192.171 Q512.463 189.786 514.5 188.652 Q516.537 187.518 519.338 187.518 Q522.162 187.518 524.13 188.953 Q526.121 190.388 527.07 193.12 Z" fill="#000000" fill-rule="evenodd" fill-opacity="1" /><path clip-path="url(#clip210)" d="M575.241 200.041 L575.241 202.124 L555.658 202.124 Q555.935 206.522 558.296 208.837 Q560.681 211.129 564.917 211.129 Q567.37 211.129 569.662 210.527 Q571.977 209.925 574.245 208.721 L574.245 212.749 Q571.954 213.721 569.546 214.231 Q567.139 214.74 564.662 214.74 Q558.458 214.74 554.824 211.129 Q551.213 207.518 551.213 201.36 Q551.213 194.995 554.639 191.268 Q558.088 187.518 563.921 187.518 Q569.153 187.518 572.185 190.897 Q575.241 194.254 575.241 200.041 M570.982 198.791 Q570.935 195.296 569.014 193.212 Q567.116 191.129 563.968 191.129 Q560.403 191.129 558.25 193.143 Q556.121 195.157 555.796 198.814 L570.982 198.791 Z" fill="#000000" fill-rule="evenodd" fill-opacity="1" /><path clip-path="url(#clip210)" d="M597.255 192.124 Q596.537 191.708 595.681 191.522 Q594.847 191.314 593.829 191.314 Q590.218 191.314 588.273 193.675 Q586.352 196.013 586.352 200.411 L586.352 214.069 L582.069 214.069 L582.069 188.143 L586.352 188.143 L586.352 192.171 Q587.694 189.809 589.847 188.675 Q592 187.518 595.079 187.518 Q595.518 187.518 596.051 187.587 Q596.583 187.634 597.231 187.749 L597.255 192.124 Z" fill="#000000" fill-rule="evenodd" fill-opacity="1" /><path clip-path="url(#clip210)" d="M601.722 188.143 L605.981 188.143 L605.981 214.069 L601.722 214.069 L601.722 188.143 M601.722 178.05 L605.981 178.05 L605.981 183.444 L601.722 183.444 L601.722 178.05 Z" fill="#000000" fill-rule="evenodd" fill-opacity="1" /><path clip-path="url(#clip210)" d="M633.551 189.138 L633.551 193.12 Q631.745 192.124 629.916 191.638 Q628.111 191.129 626.259 191.129 Q622.116 191.129 619.824 193.768 Q617.532 196.384 617.532 201.129 Q617.532 205.874 619.824 208.513 Q622.116 211.129 626.259 211.129 Q628.111 211.129 629.916 210.643 Q631.745 210.133 633.551 209.138 L633.551 213.073 Q631.768 213.907 629.847 214.323 Q627.949 214.74 625.796 214.74 Q619.94 214.74 616.491 211.059 Q613.042 207.379 613.042 201.129 Q613.042 194.786 616.514 191.152 Q620.009 187.518 626.074 187.518 Q628.041 187.518 629.916 187.935 Q631.791 188.328 633.551 189.138 Z" fill="#000000" fill-rule="evenodd" fill-opacity="1" /><path clip-path="url(#clip210)" d="M652.74 201.036 Q647.578 201.036 645.588 202.217 Q643.597 203.397 643.597 206.245 Q643.597 208.513 645.078 209.856 Q646.583 211.175 649.152 211.175 Q652.694 211.175 654.824 208.675 Q656.976 206.152 656.976 201.985 L656.976 201.036 L652.74 201.036 M661.236 199.277 L661.236 214.069 L656.976 214.069 L656.976 210.133 Q655.518 212.495 653.342 213.629 Q651.166 214.74 648.018 214.74 Q644.037 214.74 641.676 212.518 Q639.338 210.272 639.338 206.522 Q639.338 202.147 642.254 199.925 Q645.194 197.703 651.004 197.703 L656.976 197.703 L656.976 197.286 Q656.976 194.347 655.032 192.749 Q653.111 191.129 649.615 191.129 Q647.393 191.129 645.287 191.661 Q643.18 192.194 641.236 193.259 L641.236 189.323 Q643.574 188.421 645.773 187.981 Q647.972 187.518 650.055 187.518 Q655.68 187.518 658.458 190.434 Q661.236 193.351 661.236 199.277 Z" fill="#000000" fill-rule="evenodd" fill-opacity="1" /><path clip-path="url(#clip210)" d="M670.009 178.05 L674.268 178.05 L674.268 214.069 L670.009 214.069 L670.009 178.05 Z" fill="#000000" fill-rule="evenodd" fill-opacity="1" /><path clip-path="url(#clip210)" d="M719.152 180.643 L719.152 185.203 Q716.49 183.93 714.129 183.305 Q711.768 182.68 709.569 182.68 Q705.749 182.68 703.666 184.161 Q701.606 185.643 701.606 188.374 Q701.606 190.666 702.972 191.847 Q704.36 193.004 708.203 193.722 L711.027 194.3 Q716.259 195.296 718.735 197.819 Q721.235 200.319 721.235 204.532 Q721.235 209.555 717.856 212.147 Q714.499 214.74 707.995 214.74 Q705.541 214.74 702.763 214.184 Q700.009 213.629 697.046 212.541 L697.046 207.726 Q699.893 209.323 702.624 210.133 Q705.356 210.944 707.995 210.944 Q711.999 210.944 714.175 209.37 Q716.351 207.796 716.351 204.879 Q716.351 202.333 714.777 200.897 Q713.226 199.462 709.661 198.745 L706.814 198.189 Q701.583 197.147 699.245 194.925 Q696.907 192.703 696.907 188.745 Q696.907 184.161 700.124 181.522 Q703.365 178.884 709.036 178.884 Q711.467 178.884 713.99 179.323 Q716.513 179.763 719.152 180.643 Z" fill="#000000" fill-rule="evenodd" fill-opacity="1" /><path clip-path="url(#clip210)" d="M738.388 191.129 Q734.962 191.129 732.971 193.814 Q730.981 196.476 730.981 201.129 Q730.981 205.782 732.948 208.467 Q734.939 211.129 738.388 211.129 Q741.791 211.129 743.782 208.444 Q745.772 205.758 745.772 201.129 Q745.772 196.522 743.782 193.837 Q741.791 191.129 738.388 191.129 M738.388 187.518 Q743.944 187.518 747.115 191.129 Q750.286 194.74 750.286 201.129 Q750.286 207.495 747.115 211.129 Q743.944 214.74 738.388 214.74 Q732.809 214.74 729.638 211.129 Q726.49 207.495 726.49 201.129 Q726.49 194.74 729.638 191.129 Q732.809 187.518 738.388 187.518 Z" fill="#000000" fill-rule="evenodd" fill-opacity="1" /><path clip-path="url(#clip210)" d="M757.346 178.05 L761.606 178.05 L761.606 214.069 L757.346 214.069 L757.346 178.05 Z" fill="#000000" fill-rule="evenodd" fill-opacity="1" /><path clip-path="url(#clip210)" d="M770.078 203.837 L770.078 188.143 L774.337 188.143 L774.337 203.675 Q774.337 207.356 775.772 209.208 Q777.207 211.036 780.078 211.036 Q783.527 211.036 785.517 208.837 Q787.531 206.638 787.531 202.842 L787.531 188.143 L791.791 188.143 L791.791 214.069 L787.531 214.069 L787.531 210.087 Q785.98 212.448 783.92 213.606 Q781.883 214.74 779.175 214.74 Q774.707 214.74 772.393 211.962 Q770.078 209.184 770.078 203.837 M780.795 187.518 L780.795 187.518 Z" fill="#000000" fill-rule="evenodd" fill-opacity="1" /><path clip-path="url(#clip210)" d="M804.777 180.782 L804.777 188.143 L813.55 188.143 L813.55 191.453 L804.777 191.453 L804.777 205.527 Q804.777 208.698 805.633 209.601 Q806.513 210.504 809.175 210.504 L813.55 210.504 L813.55 214.069 L809.175 214.069 Q804.244 214.069 802.369 212.24 Q800.494 210.388 800.494 205.527 L800.494 191.453 L797.369 191.453 L797.369 188.143 L800.494 188.143 L800.494 180.782 L804.777 180.782 Z" fill="#000000" fill-rule="evenodd" fill-opacity="1" /><path clip-path="url(#clip210)" d="M819.152 188.143 L823.411 188.143 L823.411 214.069 L819.152 214.069 L819.152 188.143 M819.152 178.05 L823.411 178.05 L823.411 183.444 L819.152 183.444 L819.152 178.05 Z" fill="#000000" fill-rule="evenodd" fill-opacity="1" /><path clip-path="url(#clip210)" d="M842.369 191.129 Q838.943 191.129 836.952 193.814 Q834.962 196.476 834.962 201.129 Q834.962 205.782 836.929 208.467 Q838.92 211.129 842.369 211.129 Q845.772 211.129 847.762 208.444 Q849.753 205.758 849.753 201.129 Q849.753 196.522 847.762 193.837 Q845.772 191.129 842.369 191.129 M842.369 187.518 Q847.925 187.518 851.096 191.129 Q854.267 194.74 854.267 201.129 Q854.267 207.495 851.096 211.129 Q847.925 214.74 842.369 214.74 Q836.79 214.74 833.619 211.129 Q830.471 207.495 830.471 201.129 Q830.471 194.74 833.619 191.129 Q836.79 187.518 842.369 187.518 Z" fill="#000000" fill-rule="evenodd" fill-opacity="1" /><path clip-path="url(#clip210)" d="M882.878 198.421 L882.878 214.069 L878.619 214.069 L878.619 198.559 Q878.619 194.879 877.184 193.05 Q875.748 191.222 872.878 191.222 Q869.429 191.222 867.438 193.421 Q865.448 195.62 865.448 199.416 L865.448 214.069 L861.165 214.069 L861.165 188.143 L865.448 188.143 L865.448 192.171 Q866.975 189.833 869.036 188.675 Q871.119 187.518 873.827 187.518 Q878.295 187.518 880.586 190.296 Q882.878 193.05 882.878 198.421 Z" fill="#000000" fill-rule="evenodd" fill-opacity="1" /></svg>
