<?xml version="1.0" encoding="utf-8"?>
<svg xmlns="http://www.w3.org/2000/svg" xmlns:xlink="http://www.w3.org/1999/xlink" width="600" height="400" viewBox="0 0 2400 1600">
<defs>
  <clipPath id="clip580">
    <rect x="0" y="0" width="2400" height="1600"/>
  </clipPath>
</defs>
<path clip-path="url(#clip580)" d="
M0 1600 L2400 1600 L2400 0 L0 0  Z
  " fill="#ffffff" fill-rule="evenodd" fill-opacity="1"/>
<defs>
  <clipPath id="clip581">
    <rect x="480" y="0" width="1681" height="1600"/>
  </clipPath>
</defs>
<path clip-path="url(#clip580)" d="
M249.542 1423.18 L2352.76 1423.18 L2352.76 47.2441 L249.542 47.2441  Z
  " fill="#ffffff" fill-rule="evenodd" fill-opacity="1"/>
<defs>
  <clipPath id="clip582">
    <rect x="249" y="47" width="2104" height="1377"/>
  </clipPath>
</defs>
<polyline clip-path="url(#clip582)" style="stroke:#000000; stroke-linecap:butt; stroke-linejoin:round; stroke-width:2; stroke-opacity:0.1; fill:none" points="
  309.067,1423.18 309.067,47.2441 
  "/>
<polyline clip-path="url(#clip582)" style="stroke:#000000; stroke-linecap:butt; stroke-linejoin:round; stroke-width:2; stroke-opacity:0.1; fill:none" points="
  805.108,1423.18 805.108,47.2441 
  "/>
<polyline clip-path="url(#clip582)" style="stroke:#000000; stroke-linecap:butt; stroke-linejoin:round; stroke-width:2; stroke-opacity:0.1; fill:none" points="
  1301.15,1423.18 1301.15,47.2441 
  "/>
<polyline clip-path="url(#clip582)" style="stroke:#000000; stroke-linecap:butt; stroke-linejoin:round; stroke-width:2; stroke-opacity:0.1; fill:none" points="
  1797.19,1423.18 1797.19,47.2441 
  "/>
<polyline clip-path="url(#clip582)" style="stroke:#000000; stroke-linecap:butt; stroke-linejoin:round; stroke-width:2; stroke-opacity:0.1; fill:none" points="
  2293.23,1423.18 2293.23,47.2441 
  "/>
<polyline clip-path="url(#clip580)" style="stroke:#000000; stroke-linecap:butt; stroke-linejoin:round; stroke-width:4; stroke-opacity:1; fill:none" points="
  249.542,1423.18 2352.76,1423.18 
  "/>
<polyline clip-path="url(#clip580)" style="stroke:#000000; stroke-linecap:butt; stroke-linejoin:round; stroke-width:4; stroke-opacity:1; fill:none" points="
  309.067,1423.18 309.067,1404.28 
  "/>
<polyline clip-path="url(#clip580)" style="stroke:#000000; stroke-linecap:butt; stroke-linejoin:round; stroke-width:4; stroke-opacity:1; fill:none" points="
  805.108,1423.18 805.108,1404.28 
  "/>
<polyline clip-path="url(#clip580)" style="stroke:#000000; stroke-linecap:butt; stroke-linejoin:round; stroke-width:4; stroke-opacity:1; fill:none" points="
  1301.15,1423.18 1301.15,1404.28 
  "/>
<polyline clip-path="url(#clip580)" style="stroke:#000000; stroke-linecap:butt; stroke-linejoin:round; stroke-width:4; stroke-opacity:1; fill:none" points="
  1797.19,1423.18 1797.19,1404.28 
  "/>
<polyline clip-path="url(#clip580)" style="stroke:#000000; stroke-linecap:butt; stroke-linejoin:round; stroke-width:4; stroke-opacity:1; fill:none" points="
  2293.23,1423.18 2293.23,1404.28 
  "/>
<path clip-path="url(#clip580)" d="M271.37 1454.1 Q267.759 1454.1 265.931 1457.66 Q264.125 1461.2 264.125 1468.33 Q264.125 1475.44 265.931 1479.01 Q267.759 1482.55 271.37 1482.55 Q275.005 1482.55 276.81 1479.01 Q278.639 1475.44 278.639 1468.33 Q278.639 1461.2 276.81 1457.66 Q275.005 1454.1 271.37 1454.1 M271.37 1450.39 Q277.181 1450.39 280.236 1455 Q283.315 1459.58 283.315 1468.33 Q283.315 1477.06 280.236 1481.67 Q277.181 1486.25 271.37 1486.25 Q265.56 1486.25 262.482 1481.67 Q259.426 1477.06 259.426 1468.33 Q259.426 1459.58 262.482 1455 Q265.56 1450.39 271.37 1450.39 Z" fill="#000000" fill-rule="evenodd" fill-opacity="1" /><path clip-path="url(#clip580)" d="M291.532 1479.7 L296.417 1479.7 L296.417 1485.58 L291.532 1485.58 L291.532 1479.7 Z" fill="#000000" fill-rule="evenodd" fill-opacity="1" /><path clip-path="url(#clip580)" d="M316.602 1454.1 Q312.991 1454.1 311.162 1457.66 Q309.356 1461.2 309.356 1468.33 Q309.356 1475.44 311.162 1479.01 Q312.991 1482.55 316.602 1482.55 Q320.236 1482.55 322.041 1479.01 Q323.87 1475.44 323.87 1468.33 Q323.87 1461.2 322.041 1457.66 Q320.236 1454.1 316.602 1454.1 M316.602 1450.39 Q322.412 1450.39 325.467 1455 Q328.546 1459.58 328.546 1468.33 Q328.546 1477.06 325.467 1481.67 Q322.412 1486.25 316.602 1486.25 Q310.791 1486.25 307.713 1481.67 Q304.657 1477.06 304.657 1468.33 Q304.657 1459.58 307.713 1455 Q310.791 1450.39 316.602 1450.39 Z" fill="#000000" fill-rule="evenodd" fill-opacity="1" /><path clip-path="url(#clip580)" d="M346.764 1454.1 Q343.152 1454.1 341.324 1457.66 Q339.518 1461.2 339.518 1468.33 Q339.518 1475.44 341.324 1479.01 Q343.152 1482.55 346.764 1482.55 Q350.398 1482.55 352.203 1479.01 Q354.032 1475.44 354.032 1468.33 Q354.032 1461.2 352.203 1457.66 Q350.398 1454.1 346.764 1454.1 M346.764 1450.39 Q352.574 1450.39 355.629 1455 Q358.708 1459.58 358.708 1468.33 Q358.708 1477.06 355.629 1481.67 Q352.574 1486.25 346.764 1486.25 Q340.953 1486.25 337.875 1481.67 Q334.819 1477.06 334.819 1468.33 Q334.819 1459.58 337.875 1455 Q340.953 1450.39 346.764 1450.39 Z" fill="#000000" fill-rule="evenodd" fill-opacity="1" /><path clip-path="url(#clip580)" d="M767.909 1454.1 Q764.298 1454.1 762.469 1457.66 Q760.664 1461.2 760.664 1468.33 Q760.664 1475.44 762.469 1479.01 Q764.298 1482.55 767.909 1482.55 Q771.543 1482.55 773.349 1479.01 Q775.178 1475.44 775.178 1468.33 Q775.178 1461.2 773.349 1457.66 Q771.543 1454.1 767.909 1454.1 M767.909 1450.39 Q773.719 1450.39 776.775 1455 Q779.853 1459.58 779.853 1468.33 Q779.853 1477.06 776.775 1481.67 Q773.719 1486.25 767.909 1486.25 Q762.099 1486.25 759.02 1481.67 Q755.965 1477.06 755.965 1468.33 Q755.965 1459.58 759.02 1455 Q762.099 1450.39 767.909 1450.39 Z" fill="#000000" fill-rule="evenodd" fill-opacity="1" /><path clip-path="url(#clip580)" d="M788.071 1479.7 L792.955 1479.7 L792.955 1485.58 L788.071 1485.58 L788.071 1479.7 Z" fill="#000000" fill-rule="evenodd" fill-opacity="1" /><path clip-path="url(#clip580)" d="M807.168 1481.64 L823.487 1481.64 L823.487 1485.58 L801.543 1485.58 L801.543 1481.64 Q804.205 1478.89 808.788 1474.26 Q813.395 1469.61 814.576 1468.27 Q816.821 1465.74 817.7 1464.01 Q818.603 1462.25 818.603 1460.56 Q818.603 1457.8 816.659 1456.07 Q814.738 1454.33 811.636 1454.33 Q809.437 1454.33 806.983 1455.09 Q804.552 1455.86 801.775 1457.41 L801.775 1452.69 Q804.599 1451.55 807.052 1450.97 Q809.506 1450.39 811.543 1450.39 Q816.913 1450.39 820.108 1453.08 Q823.302 1455.77 823.302 1460.26 Q823.302 1462.39 822.492 1464.31 Q821.705 1466.2 819.599 1468.8 Q819.02 1469.47 815.918 1472.69 Q812.816 1475.88 807.168 1481.64 Z" fill="#000000" fill-rule="evenodd" fill-opacity="1" /><path clip-path="url(#clip580)" d="M833.349 1451.02 L851.705 1451.02 L851.705 1454.96 L837.631 1454.96 L837.631 1463.43 Q838.649 1463.08 839.668 1462.92 Q840.686 1462.73 841.705 1462.73 Q847.492 1462.73 850.872 1465.9 Q854.251 1469.08 854.251 1474.49 Q854.251 1480.07 850.779 1483.17 Q847.307 1486.25 840.987 1486.25 Q838.811 1486.25 836.543 1485.88 Q834.298 1485.51 831.89 1484.77 L831.89 1480.07 Q833.974 1481.2 836.196 1481.76 Q838.418 1482.32 840.895 1482.32 Q844.899 1482.32 847.237 1480.21 Q849.575 1478.1 849.575 1474.49 Q849.575 1470.88 847.237 1468.77 Q844.899 1466.67 840.895 1466.67 Q839.02 1466.67 837.145 1467.08 Q835.293 1467.5 833.349 1468.38 L833.349 1451.02 Z" fill="#000000" fill-rule="evenodd" fill-opacity="1" /><path clip-path="url(#clip580)" d="M1263.45 1454.1 Q1259.84 1454.1 1258.01 1457.66 Q1256.21 1461.2 1256.21 1468.33 Q1256.21 1475.44 1258.01 1479.01 Q1259.84 1482.55 1263.45 1482.55 Q1267.09 1482.55 1268.89 1479.01 Q1270.72 1475.44 1270.72 1468.33 Q1270.72 1461.2 1268.89 1457.66 Q1267.09 1454.1 1263.45 1454.1 M1263.45 1450.39 Q1269.26 1450.39 1272.32 1455 Q1275.4 1459.58 1275.4 1468.33 Q1275.4 1477.06 1272.32 1481.67 Q1269.26 1486.25 1263.45 1486.25 Q1257.64 1486.25 1254.56 1481.67 Q1251.51 1477.06 1251.51 1468.33 Q1251.51 1459.58 1254.56 1455 Q1257.64 1450.39 1263.45 1450.39 Z" fill="#000000" fill-rule="evenodd" fill-opacity="1" /><path clip-path="url(#clip580)" d="M1283.61 1479.7 L1288.5 1479.7 L1288.5 1485.58 L1283.61 1485.58 L1283.61 1479.7 Z" fill="#000000" fill-rule="evenodd" fill-opacity="1" /><path clip-path="url(#clip580)" d="M1298.73 1451.02 L1317.09 1451.02 L1317.09 1454.96 L1303.01 1454.96 L1303.01 1463.43 Q1304.03 1463.08 1305.05 1462.92 Q1306.07 1462.73 1307.09 1462.73 Q1312.87 1462.73 1316.25 1465.9 Q1319.63 1469.08 1319.63 1474.49 Q1319.63 1480.07 1316.16 1483.17 Q1312.69 1486.25 1306.37 1486.25 Q1304.19 1486.25 1301.92 1485.88 Q1299.68 1485.51 1297.27 1484.77 L1297.27 1480.07 Q1299.35 1481.2 1301.58 1481.76 Q1303.8 1482.32 1306.28 1482.32 Q1310.28 1482.32 1312.62 1480.21 Q1314.96 1478.1 1314.96 1474.49 Q1314.96 1470.88 1312.62 1468.77 Q1310.28 1466.67 1306.28 1466.67 Q1304.4 1466.67 1302.53 1467.08 Q1300.67 1467.5 1298.73 1468.38 L1298.73 1451.02 Z" fill="#000000" fill-rule="evenodd" fill-opacity="1" /><path clip-path="url(#clip580)" d="M1338.85 1454.1 Q1335.23 1454.1 1333.41 1457.66 Q1331.6 1461.2 1331.6 1468.33 Q1331.6 1475.44 1333.41 1479.01 Q1335.23 1482.55 1338.85 1482.55 Q1342.48 1482.55 1344.29 1479.01 Q1346.11 1475.44 1346.11 1468.33 Q1346.11 1461.2 1344.29 1457.66 Q1342.48 1454.1 1338.85 1454.1 M1338.85 1450.39 Q1344.66 1450.39 1347.71 1455 Q1350.79 1459.58 1350.79 1468.33 Q1350.79 1477.06 1347.71 1481.67 Q1344.66 1486.25 1338.85 1486.25 Q1333.04 1486.25 1329.96 1481.67 Q1326.9 1477.06 1326.9 1468.33 Q1326.9 1459.58 1329.96 1455 Q1333.04 1450.39 1338.85 1450.39 Z" fill="#000000" fill-rule="evenodd" fill-opacity="1" /><path clip-path="url(#clip580)" d="M1759.99 1454.1 Q1756.38 1454.1 1754.55 1457.66 Q1752.75 1461.2 1752.75 1468.33 Q1752.75 1475.44 1754.55 1479.01 Q1756.38 1482.55 1759.99 1482.55 Q1763.63 1482.55 1765.43 1479.01 Q1767.26 1475.44 1767.26 1468.33 Q1767.26 1461.2 1765.43 1457.66 Q1763.63 1454.1 1759.99 1454.1 M1759.99 1450.39 Q1765.8 1450.39 1768.86 1455 Q1771.94 1459.58 1771.94 1468.33 Q1771.94 1477.06 1768.86 1481.67 Q1765.8 1486.25 1759.99 1486.25 Q1754.18 1486.25 1751.1 1481.67 Q1748.05 1477.06 1748.05 1468.33 Q1748.05 1459.58 1751.1 1455 Q1754.18 1450.39 1759.99 1450.39 Z" fill="#000000" fill-rule="evenodd" fill-opacity="1" /><path clip-path="url(#clip580)" d="M1780.15 1479.7 L1785.04 1479.7 L1785.04 1485.58 L1780.15 1485.58 L1780.15 1479.7 Z" fill="#000000" fill-rule="evenodd" fill-opacity="1" /><path clip-path="url(#clip580)" d="M1794.04 1451.02 L1816.26 1451.02 L1816.26 1453.01 L1803.72 1485.58 L1798.83 1485.58 L1810.64 1454.96 L1794.04 1454.96 L1794.04 1451.02 Z" fill="#000000" fill-rule="evenodd" fill-opacity="1" /><path clip-path="url(#clip580)" d="M1825.43 1451.02 L1843.79 1451.02 L1843.79 1454.96 L1829.71 1454.96 L1829.71 1463.43 Q1830.73 1463.08 1831.75 1462.92 Q1832.77 1462.73 1833.79 1462.73 Q1839.57 1462.73 1842.95 1465.9 Q1846.33 1469.08 1846.33 1474.49 Q1846.33 1480.07 1842.86 1483.17 Q1839.39 1486.25 1833.07 1486.25 Q1830.89 1486.25 1828.62 1485.88 Q1826.38 1485.51 1823.97 1484.77 L1823.97 1480.07 Q1826.06 1481.2 1828.28 1481.76 Q1830.5 1482.32 1832.98 1482.32 Q1836.98 1482.32 1839.32 1480.21 Q1841.66 1478.1 1841.66 1474.49 Q1841.66 1470.88 1839.32 1468.77 Q1836.98 1466.67 1832.98 1466.67 Q1831.1 1466.67 1829.23 1467.08 Q1827.38 1467.5 1825.43 1468.38 L1825.43 1451.02 Z" fill="#000000" fill-rule="evenodd" fill-opacity="1" /><path clip-path="url(#clip580)" d="M2245.3 1481.64 L2252.94 1481.64 L2252.94 1455.28 L2244.63 1456.95 L2244.63 1452.69 L2252.9 1451.02 L2257.57 1451.02 L2257.57 1481.64 L2265.21 1481.64 L2265.21 1485.58 L2245.3 1485.58 L2245.3 1481.64 Z" fill="#000000" fill-rule="evenodd" fill-opacity="1" /><path clip-path="url(#clip580)" d="M2274.65 1479.7 L2279.54 1479.7 L2279.54 1485.58 L2274.65 1485.58 L2274.65 1479.7 Z" fill="#000000" fill-rule="evenodd" fill-opacity="1" /><path clip-path="url(#clip580)" d="M2299.72 1454.1 Q2296.11 1454.1 2294.28 1457.66 Q2292.48 1461.2 2292.48 1468.33 Q2292.48 1475.44 2294.28 1479.01 Q2296.11 1482.55 2299.72 1482.55 Q2303.36 1482.55 2305.16 1479.01 Q2306.99 1475.44 2306.99 1468.33 Q2306.99 1461.2 2305.16 1457.66 Q2303.36 1454.1 2299.72 1454.1 M2299.72 1450.39 Q2305.53 1450.39 2308.59 1455 Q2311.67 1459.58 2311.67 1468.33 Q2311.67 1477.06 2308.59 1481.67 Q2305.53 1486.25 2299.72 1486.25 Q2293.91 1486.25 2290.84 1481.67 Q2287.78 1477.06 2287.78 1468.33 Q2287.78 1459.58 2290.84 1455 Q2293.91 1450.39 2299.72 1450.39 Z" fill="#000000" fill-rule="evenodd" fill-opacity="1" /><path clip-path="url(#clip580)" d="M2329.89 1454.1 Q2326.27 1454.1 2324.45 1457.66 Q2322.64 1461.2 2322.64 1468.33 Q2322.64 1475.44 2324.45 1479.01 Q2326.27 1482.55 2329.89 1482.55 Q2333.52 1482.55 2335.33 1479.01 Q2337.15 1475.44 2337.15 1468.33 Q2337.15 1461.2 2335.33 1457.66 Q2333.52 1454.1 2329.89 1454.1 M2329.89 1450.39 Q2335.7 1450.39 2338.75 1455 Q2341.83 1459.58 2341.83 1468.33 Q2341.83 1477.06 2338.75 1481.67 Q2335.7 1486.25 2329.89 1486.25 Q2324.08 1486.25 2321 1481.67 Q2317.94 1477.06 2317.94 1468.33 Q2317.94 1459.58 2321 1455 Q2324.08 1450.39 2329.89 1450.39 Z" fill="#000000" fill-rule="evenodd" fill-opacity="1" /><path clip-path="url(#clip580)" d="M1317.76 1532.4 L1304.87 1549.74 L1318.43 1568.04 L1311.53 1568.04 L1301.15 1554.04 L1290.77 1568.04 L1283.87 1568.04 L1297.71 1549.39 L1285.04 1532.4 L1291.95 1532.4 L1301.4 1545.1 L1310.86 1532.4 L1317.76 1532.4 Z" fill="#000000" fill-rule="evenodd" fill-opacity="1" /><polyline clip-path="url(#clip582)" style="stroke:#000000; stroke-linecap:butt; stroke-linejoin:round; stroke-width:2; stroke-opacity:0.1; fill:none" points="
  249.542,1384.24 2352.76,1384.24 
  "/>
<polyline clip-path="url(#clip582)" style="stroke:#000000; stroke-linecap:butt; stroke-linejoin:round; stroke-width:2; stroke-opacity:0.1; fill:none" points="
  249.542,1059.73 2352.76,1059.73 
  "/>
<polyline clip-path="url(#clip582)" style="stroke:#000000; stroke-linecap:butt; stroke-linejoin:round; stroke-width:2; stroke-opacity:0.1; fill:none" points="
  249.542,735.212 2352.76,735.212 
  "/>
<polyline clip-path="url(#clip582)" style="stroke:#000000; stroke-linecap:butt; stroke-linejoin:round; stroke-width:2; stroke-opacity:0.1; fill:none" points="
  249.542,410.699 2352.76,410.699 
  "/>
<polyline clip-path="url(#clip582)" style="stroke:#000000; stroke-linecap:butt; stroke-linejoin:round; stroke-width:2; stroke-opacity:0.1; fill:none" points="
  249.542,86.1857 2352.76,86.1857 
  "/>
<polyline clip-path="url(#clip580)" style="stroke:#000000; stroke-linecap:butt; stroke-linejoin:round; stroke-width:4; stroke-opacity:1; fill:none" points="
  249.542,1423.18 249.542,47.2441 
  "/>
<polyline clip-path="url(#clip580)" style="stroke:#000000; stroke-linecap:butt; stroke-linejoin:round; stroke-width:4; stroke-opacity:1; fill:none" points="
  249.542,1384.24 268.44,1384.24 
  "/>
<polyline clip-path="url(#clip580)" style="stroke:#000000; stroke-linecap:butt; stroke-linejoin:round; stroke-width:4; stroke-opacity:1; fill:none" points="
  249.542,1059.73 268.44,1059.73 
  "/>
<polyline clip-path="url(#clip580)" style="stroke:#000000; stroke-linecap:butt; stroke-linejoin:round; stroke-width:4; stroke-opacity:1; fill:none" points="
  249.542,735.212 268.44,735.212 
  "/>
<polyline clip-path="url(#clip580)" style="stroke:#000000; stroke-linecap:butt; stroke-linejoin:round; stroke-width:4; stroke-opacity:1; fill:none" points="
  249.542,410.699 268.44,410.699 
  "/>
<polyline clip-path="url(#clip580)" style="stroke:#000000; stroke-linecap:butt; stroke-linejoin:round; stroke-width:4; stroke-opacity:1; fill:none" points="
  249.542,86.1857 268.44,86.1857 
  "/>
<path clip-path="url(#clip580)" d="M126.205 1370.04 Q122.593 1370.04 120.765 1373.6 Q118.959 1377.14 118.959 1384.27 Q118.959 1391.38 120.765 1394.94 Q122.593 1398.49 126.205 1398.49 Q129.839 1398.49 131.644 1394.94 Q133.473 1391.38 133.473 1384.27 Q133.473 1377.14 131.644 1373.6 Q129.839 1370.04 126.205 1370.04 M126.205 1366.33 Q132.015 1366.33 135.07 1370.94 Q138.149 1375.52 138.149 1384.27 Q138.149 1393 135.07 1397.61 Q132.015 1402.19 126.205 1402.19 Q120.394 1402.19 117.316 1397.61 Q114.26 1393 114.26 1384.27 Q114.26 1375.52 117.316 1370.94 Q120.394 1366.33 126.205 1366.33 Z" fill="#000000" fill-rule="evenodd" fill-opacity="1" /><path clip-path="url(#clip580)" d="M146.366 1395.64 L151.251 1395.64 L151.251 1401.52 L146.366 1401.52 L146.366 1395.64 Z" fill="#000000" fill-rule="evenodd" fill-opacity="1" /><path clip-path="url(#clip580)" d="M171.436 1370.04 Q167.825 1370.04 165.996 1373.6 Q164.19 1377.14 164.19 1384.27 Q164.19 1391.38 165.996 1394.94 Q167.825 1398.49 171.436 1398.49 Q175.07 1398.49 176.876 1394.94 Q178.704 1391.38 178.704 1384.27 Q178.704 1377.14 176.876 1373.6 Q175.07 1370.04 171.436 1370.04 M171.436 1366.33 Q177.246 1366.33 180.301 1370.94 Q183.38 1375.52 183.38 1384.27 Q183.38 1393 180.301 1397.61 Q177.246 1402.19 171.436 1402.19 Q165.626 1402.19 162.547 1397.61 Q159.491 1393 159.491 1384.27 Q159.491 1375.52 162.547 1370.94 Q165.626 1366.33 171.436 1366.33 Z" fill="#000000" fill-rule="evenodd" fill-opacity="1" /><path clip-path="url(#clip580)" d="M201.598 1370.04 Q197.987 1370.04 196.158 1373.6 Q194.352 1377.14 194.352 1384.27 Q194.352 1391.38 196.158 1394.94 Q197.987 1398.49 201.598 1398.49 Q205.232 1398.49 207.037 1394.94 Q208.866 1391.38 208.866 1384.27 Q208.866 1377.14 207.037 1373.6 Q205.232 1370.04 201.598 1370.04 M201.598 1366.33 Q207.408 1366.33 210.463 1370.94 Q213.542 1375.52 213.542 1384.27 Q213.542 1393 210.463 1397.61 Q207.408 1402.19 201.598 1402.19 Q195.787 1402.19 192.709 1397.61 Q189.653 1393 189.653 1384.27 Q189.653 1375.52 192.709 1370.94 Q195.787 1366.33 201.598 1366.33 Z" fill="#000000" fill-rule="evenodd" fill-opacity="1" /><path clip-path="url(#clip580)" d="M127.2 1045.52 Q123.589 1045.52 121.76 1049.09 Q119.955 1052.63 119.955 1059.76 Q119.955 1066.87 121.76 1070.43 Q123.589 1073.97 127.2 1073.97 Q130.834 1073.97 132.64 1070.43 Q134.468 1066.87 134.468 1059.76 Q134.468 1052.63 132.64 1049.09 Q130.834 1045.52 127.2 1045.52 M127.2 1041.82 Q133.01 1041.82 136.066 1046.43 Q139.144 1051.01 139.144 1059.76 Q139.144 1068.49 136.066 1073.09 Q133.01 1077.68 127.2 1077.68 Q121.39 1077.68 118.311 1073.09 Q115.256 1068.49 115.256 1059.76 Q115.256 1051.01 118.311 1046.43 Q121.39 1041.82 127.2 1041.82 Z" fill="#000000" fill-rule="evenodd" fill-opacity="1" /><path clip-path="url(#clip580)" d="M147.362 1071.13 L152.246 1071.13 L152.246 1077.01 L147.362 1077.01 L147.362 1071.13 Z" fill="#000000" fill-rule="evenodd" fill-opacity="1" /><path clip-path="url(#clip580)" d="M166.459 1073.07 L182.778 1073.07 L182.778 1077.01 L160.834 1077.01 L160.834 1073.07 Q163.496 1070.32 168.079 1065.69 Q172.686 1061.03 173.866 1059.69 Q176.112 1057.17 176.991 1055.43 Q177.894 1053.67 177.894 1051.98 Q177.894 1049.23 175.95 1047.49 Q174.028 1045.76 170.927 1045.76 Q168.727 1045.76 166.274 1046.52 Q163.843 1047.28 161.065 1048.83 L161.065 1044.11 Q163.89 1042.98 166.343 1042.4 Q168.797 1041.82 170.834 1041.82 Q176.204 1041.82 179.399 1044.51 Q182.593 1047.19 182.593 1051.68 Q182.593 1053.81 181.783 1055.73 Q180.996 1057.63 178.889 1060.22 Q178.311 1060.89 175.209 1064.11 Q172.107 1067.31 166.459 1073.07 Z" fill="#000000" fill-rule="evenodd" fill-opacity="1" /><path clip-path="url(#clip580)" d="M192.639 1042.45 L210.996 1042.45 L210.996 1046.38 L196.922 1046.38 L196.922 1054.85 Q197.94 1054.51 198.959 1054.34 Q199.977 1054.16 200.996 1054.16 Q206.783 1054.16 210.162 1057.33 Q213.542 1060.5 213.542 1065.92 Q213.542 1071.5 210.07 1074.6 Q206.598 1077.68 200.278 1077.68 Q198.102 1077.68 195.834 1077.31 Q193.588 1076.94 191.181 1076.19 L191.181 1071.5 Q193.264 1072.63 195.487 1073.19 Q197.709 1073.74 200.186 1073.74 Q204.19 1073.74 206.528 1071.63 Q208.866 1069.53 208.866 1065.92 Q208.866 1062.31 206.528 1060.2 Q204.19 1058.09 200.186 1058.09 Q198.311 1058.09 196.436 1058.51 Q194.584 1058.93 192.639 1059.81 L192.639 1042.45 Z" fill="#000000" fill-rule="evenodd" fill-opacity="1" /><path clip-path="url(#clip580)" d="M126.205 721.011 Q122.593 721.011 120.765 724.575 Q118.959 728.117 118.959 735.247 Q118.959 742.353 120.765 745.918 Q122.593 749.46 126.205 749.46 Q129.839 749.46 131.644 745.918 Q133.473 742.353 133.473 735.247 Q133.473 728.117 131.644 724.575 Q129.839 721.011 126.205 721.011 M126.205 717.307 Q132.015 717.307 135.07 721.913 Q138.149 726.497 138.149 735.247 Q138.149 743.973 135.07 748.58 Q132.015 753.163 126.205 753.163 Q120.394 753.163 117.316 748.58 Q114.26 743.973 114.26 735.247 Q114.26 726.497 117.316 721.913 Q120.394 717.307 126.205 717.307 Z" fill="#000000" fill-rule="evenodd" fill-opacity="1" /><path clip-path="url(#clip580)" d="M146.366 746.612 L151.251 746.612 L151.251 752.492 L146.366 752.492 L146.366 746.612 Z" fill="#000000" fill-rule="evenodd" fill-opacity="1" /><path clip-path="url(#clip580)" d="M161.482 717.932 L179.839 717.932 L179.839 721.867 L165.765 721.867 L165.765 730.339 Q166.783 729.992 167.802 729.83 Q168.82 729.645 169.839 729.645 Q175.626 729.645 179.005 732.816 Q182.385 735.987 182.385 741.404 Q182.385 746.983 178.913 750.085 Q175.44 753.163 169.121 753.163 Q166.945 753.163 164.677 752.793 Q162.431 752.423 160.024 751.682 L160.024 746.983 Q162.107 748.117 164.329 748.673 Q166.552 749.228 169.028 749.228 Q173.033 749.228 175.371 747.122 Q177.709 745.015 177.709 741.404 Q177.709 737.793 175.371 735.687 Q173.033 733.58 169.028 733.58 Q167.153 733.58 165.278 733.997 Q163.427 734.413 161.482 735.293 L161.482 717.932 Z" fill="#000000" fill-rule="evenodd" fill-opacity="1" /><path clip-path="url(#clip580)" d="M201.598 721.011 Q197.987 721.011 196.158 724.575 Q194.352 728.117 194.352 735.247 Q194.352 742.353 196.158 745.918 Q197.987 749.46 201.598 749.46 Q205.232 749.46 207.037 745.918 Q208.866 742.353 208.866 735.247 Q208.866 728.117 207.037 724.575 Q205.232 721.011 201.598 721.011 M201.598 717.307 Q207.408 717.307 210.463 721.913 Q213.542 726.497 213.542 735.247 Q213.542 743.973 210.463 748.58 Q207.408 753.163 201.598 753.163 Q195.787 753.163 192.709 748.58 Q189.653 743.973 189.653 735.247 Q189.653 726.497 192.709 721.913 Q195.787 717.307 201.598 717.307 Z" fill="#000000" fill-rule="evenodd" fill-opacity="1" /><path clip-path="url(#clip580)" d="M127.2 396.498 Q123.589 396.498 121.76 400.062 Q119.955 403.604 119.955 410.734 Q119.955 417.84 121.76 421.405 Q123.589 424.946 127.2 424.946 Q130.834 424.946 132.64 421.405 Q134.468 417.84 134.468 410.734 Q134.468 403.604 132.64 400.062 Q130.834 396.498 127.2 396.498 M127.2 392.794 Q133.01 392.794 136.066 397.4 Q139.144 401.984 139.144 410.734 Q139.144 419.46 136.066 424.067 Q133.01 428.65 127.2 428.65 Q121.39 428.65 118.311 424.067 Q115.256 419.46 115.256 410.734 Q115.256 401.984 118.311 397.4 Q121.39 392.794 127.2 392.794 Z" fill="#000000" fill-rule="evenodd" fill-opacity="1" /><path clip-path="url(#clip580)" d="M147.362 422.099 L152.246 422.099 L152.246 427.979 L147.362 427.979 L147.362 422.099 Z" fill="#000000" fill-rule="evenodd" fill-opacity="1" /><path clip-path="url(#clip580)" d="M161.251 393.419 L183.473 393.419 L183.473 395.41 L170.927 427.979 L166.042 427.979 L177.848 397.354 L161.251 397.354 L161.251 393.419 Z" fill="#000000" fill-rule="evenodd" fill-opacity="1" /><path clip-path="url(#clip580)" d="M192.639 393.419 L210.996 393.419 L210.996 397.354 L196.922 397.354 L196.922 405.826 Q197.94 405.479 198.959 405.317 Q199.977 405.132 200.996 405.132 Q206.783 405.132 210.162 408.303 Q213.542 411.474 213.542 416.891 Q213.542 422.47 210.07 425.571 Q206.598 428.65 200.278 428.65 Q198.102 428.65 195.834 428.28 Q193.588 427.909 191.181 427.169 L191.181 422.47 Q193.264 423.604 195.487 424.159 Q197.709 424.715 200.186 424.715 Q204.19 424.715 206.528 422.608 Q208.866 420.502 208.866 416.891 Q208.866 413.28 206.528 411.173 Q204.19 409.067 200.186 409.067 Q198.311 409.067 196.436 409.484 Q194.584 409.9 192.639 410.78 L192.639 393.419 Z" fill="#000000" fill-rule="evenodd" fill-opacity="1" /><path clip-path="url(#clip580)" d="M117.015 99.5305 L124.654 99.5305 L124.654 73.1649 L116.343 74.8316 L116.343 70.5723 L124.607 68.9057 L129.283 68.9057 L129.283 99.5305 L136.922 99.5305 L136.922 103.466 L117.015 103.466 L117.015 99.5305 Z" fill="#000000" fill-rule="evenodd" fill-opacity="1" /><path clip-path="url(#clip580)" d="M146.366 97.5861 L151.251 97.5861 L151.251 103.466 L146.366 103.466 L146.366 97.5861 Z" fill="#000000" fill-rule="evenodd" fill-opacity="1" /><path clip-path="url(#clip580)" d="M171.436 71.9844 Q167.825 71.9844 165.996 75.5492 Q164.19 79.0908 164.19 86.2204 Q164.19 93.3268 165.996 96.8916 Q167.825 100.433 171.436 100.433 Q175.07 100.433 176.876 96.8916 Q178.704 93.3268 178.704 86.2204 Q178.704 79.0908 176.876 75.5492 Q175.07 71.9844 171.436 71.9844 M171.436 68.2807 Q177.246 68.2807 180.301 72.8871 Q183.38 77.4704 183.38 86.2204 Q183.38 94.9472 180.301 99.5537 Q177.246 104.137 171.436 104.137 Q165.626 104.137 162.547 99.5537 Q159.491 94.9472 159.491 86.2204 Q159.491 77.4704 162.547 72.8871 Q165.626 68.2807 171.436 68.2807 Z" fill="#000000" fill-rule="evenodd" fill-opacity="1" /><path clip-path="url(#clip580)" d="M201.598 71.9844 Q197.987 71.9844 196.158 75.5492 Q194.352 79.0908 194.352 86.2204 Q194.352 93.3268 196.158 96.8916 Q197.987 100.433 201.598 100.433 Q205.232 100.433 207.037 96.8916 Q208.866 93.3268 208.866 86.2204 Q208.866 79.0908 207.037 75.5492 Q205.232 71.9844 201.598 71.9844 M201.598 68.2807 Q207.408 68.2807 210.463 72.8871 Q213.542 77.4704 213.542 86.2204 Q213.542 94.9472 210.463 99.5537 Q207.408 104.137 201.598 104.137 Q195.787 104.137 192.709 99.5537 Q189.653 94.9472 189.653 86.2204 Q189.653 77.4704 192.709 72.8871 Q195.787 68.2807 201.598 68.2807 Z" fill="#000000" fill-rule="evenodd" fill-opacity="1" /><path clip-path="url(#clip580)" d="M28.3562 802.418 L28.3562 796.561 L56.1743 789.241 L28.3562 781.952 L28.3562 775.045 L56.1743 767.725 L28.3562 760.436 L28.3562 754.58 L64.0042 763.905 L64.0042 770.812 L34.7856 778.483 L64.0042 786.185 L64.0042 793.092 L28.3562 802.418 Z" fill="#000000" fill-rule="evenodd" fill-opacity="1" /><path clip-path="url(#clip580)" d="M14.5426 731.631 Q21.8632 735.896 29.0246 737.965 Q36.186 740.034 43.5384 740.034 Q50.8908 740.034 58.1159 737.965 Q65.3091 735.864 72.5979 731.631 L72.5979 736.724 Q65.1182 741.498 57.8931 743.885 Q50.668 746.241 43.5384 746.241 Q36.4406 746.241 29.2474 743.885 Q22.0542 741.53 14.5426 736.724 L14.5426 731.631 Z" fill="#000000" fill-rule="evenodd" fill-opacity="1" /><path clip-path="url(#clip580)" d="M28.3562 690.636 L45.7028 703.527 L64.0042 689.968 L64.0042 696.875 L49.9996 707.251 L64.0042 717.627 L64.0042 724.533 L45.3526 710.688 L28.3562 723.356 L28.3562 716.449 L41.0558 706.996 L28.3562 697.543 L28.3562 690.636 Z" fill="#000000" fill-rule="evenodd" fill-opacity="1" /><path clip-path="url(#clip580)" d="M14.5426 682.615 L14.5426 677.523 Q22.0542 672.748 29.2474 670.393 Q36.4406 668.006 43.5384 668.006 Q50.668 668.006 57.8931 670.393 Q65.1182 672.748 72.5979 677.523 L72.5979 682.615 Q65.3091 678.382 58.1159 676.313 Q50.8908 674.213 43.5384 674.213 Q36.186 674.213 29.0246 676.313 Q21.8632 678.382 14.5426 682.615 Z" fill="#000000" fill-rule="evenodd" fill-opacity="1" /><polyline clip-path="url(#clip582)" style="stroke:#0000ff; stroke-linecap:butt; stroke-linejoin:round; stroke-width:4; stroke-opacity:1; fill:none" points="
  309.067,1384.24 413.497,1384.24 517.926,1384.24 622.356,1384.24 726.786,1384.24 831.215,1384.24 935.645,1384.24 1040.07,1384.24 1144.5,1384.24 1248.93,1384.24 
  1353.36,1384.24 1457.79,1384.24 1562.22,1384.24 1666.65,1384.24 1771.08,1384.24 1875.51,1384.24 1979.94,1384.24 2084.37,1384.24 2188.8,1384.24 2293.23,1384.24 
  
  "/>
<circle clip-path="url(#clip582)" cx="361.282" cy="1384.24" r="14" fill="#ff0000" fill-rule="evenodd" fill-opacity="1" stroke="#000000" stroke-opacity="1" stroke-width="3.2"/>
<circle clip-path="url(#clip582)" cx="465.711" cy="1384.24" r="14" fill="#ff0000" fill-rule="evenodd" fill-opacity="1" stroke="#000000" stroke-opacity="1" stroke-width="3.2"/>
<circle clip-path="url(#clip582)" cx="570.141" cy="1384.24" r="14" fill="#ff0000" fill-rule="evenodd" fill-opacity="1" stroke="#000000" stroke-opacity="1" stroke-width="3.2"/>
<circle clip-path="url(#clip582)" cx="674.571" cy="1384.24" r="14" fill="#ff0000" fill-rule="evenodd" fill-opacity="1" stroke="#000000" stroke-opacity="1" stroke-width="3.2"/>
<circle clip-path="url(#clip582)" cx="779.001" cy="1384.24" r="14" fill="#ff0000" fill-rule="evenodd" fill-opacity="1" stroke="#000000" stroke-opacity="1" stroke-width="3.2"/>
<circle clip-path="url(#clip582)" cx="883.43" cy="1384.24" r="14" fill="#ff0000" fill-rule="evenodd" fill-opacity="1" stroke="#000000" stroke-opacity="1" stroke-width="3.2"/>
<circle clip-path="url(#clip582)" cx="987.86" cy="1384.24" r="14" fill="#ff0000" fill-rule="evenodd" fill-opacity="1" stroke="#000000" stroke-opacity="1" stroke-width="3.2"/>
<circle clip-path="url(#clip582)" cx="1092.29" cy="1384.24" r="14" fill="#ff0000" fill-rule="evenodd" fill-opacity="1" stroke="#000000" stroke-opacity="1" stroke-width="3.2"/>
<circle clip-path="url(#clip582)" cx="1196.72" cy="1384.24" r="14" fill="#ff0000" fill-rule="evenodd" fill-opacity="1" stroke="#000000" stroke-opacity="1" stroke-width="3.2"/>
<circle clip-path="url(#clip582)" cx="1301.15" cy="1384.24" r="14" fill="#ff0000" fill-rule="evenodd" fill-opacity="1" stroke="#000000" stroke-opacity="1" stroke-width="3.2"/>
<circle clip-path="url(#clip582)" cx="1405.58" cy="1384.24" r="14" fill="#ff0000" fill-rule="evenodd" fill-opacity="1" stroke="#000000" stroke-opacity="1" stroke-width="3.2"/>
<circle clip-path="url(#clip582)" cx="1510.01" cy="1384.24" r="14" fill="#ff0000" fill-rule="evenodd" fill-opacity="1" stroke="#000000" stroke-opacity="1" stroke-width="3.2"/>
<circle clip-path="url(#clip582)" cx="1614.44" cy="1384.24" r="14" fill="#ff0000" fill-rule="evenodd" fill-opacity="1" stroke="#000000" stroke-opacity="1" stroke-width="3.2"/>
<circle clip-path="url(#clip582)" cx="1718.87" cy="1384.24" r="14" fill="#ff0000" fill-rule="evenodd" fill-opacity="1" stroke="#000000" stroke-opacity="1" stroke-width="3.2"/>
<circle clip-path="url(#clip582)" cx="1823.3" cy="1384.24" r="14" fill="#ff0000" fill-rule="evenodd" fill-opacity="1" stroke="#000000" stroke-opacity="1" stroke-width="3.2"/>
<circle clip-path="url(#clip582)" cx="1927.73" cy="1384.24" r="14" fill="#ff0000" fill-rule="evenodd" fill-opacity="1" stroke="#000000" stroke-opacity="1" stroke-width="3.2"/>
<circle clip-path="url(#clip582)" cx="2032.16" cy="1384.24" r="14" fill="#ff0000" fill-rule="evenodd" fill-opacity="1" stroke="#000000" stroke-opacity="1" stroke-width="3.2"/>
<circle clip-path="url(#clip582)" cx="2136.59" cy="1384.24" r="14" fill="#ff0000" fill-rule="evenodd" fill-opacity="1" stroke="#000000" stroke-opacity="1" stroke-width="3.2"/>
<circle clip-path="url(#clip582)" cx="2241.02" cy="1384.24" r="14" fill="#ff0000" fill-rule="evenodd" fill-opacity="1" stroke="#000000" stroke-opacity="1" stroke-width="3.2"/>
<path clip-path="url(#clip580)" d="
M319.649 1377.32 L994.657 1377.32 L994.657 1221.8 L319.649 1221.8  Z
  " fill="#ffffff" fill-rule="evenodd" fill-opacity="1"/>
<polyline clip-path="url(#clip580)" style="stroke:#000000; stroke-linecap:butt; stroke-linejoin:round; stroke-width:4; stroke-opacity:1; fill:none" points="
  319.649,1377.32 994.657,1377.32 994.657,1221.8 319.649,1221.8 319.649,1377.32 
  "/>
<polyline clip-path="url(#clip580)" style="stroke:#0000ff; stroke-linecap:butt; stroke-linejoin:round; stroke-width:4; stroke-opacity:1; fill:none" points="
  343.018,1273.64 483.232,1273.64 
  "/>
<path clip-path="url(#clip580)" d="M522.435 1260.96 L516.092 1278.16 L528.8 1278.16 L522.435 1260.96 M519.796 1256.36 L525.097 1256.36 L538.268 1290.92 L533.407 1290.92 L530.259 1282.05 L514.68 1282.05 L511.532 1290.92 L506.602 1290.92 L519.796 1256.36 Z" fill="#000000" fill-rule="evenodd" fill-opacity="1" /><path clip-path="url(#clip580)" d="M564.68 1275.27 L564.68 1290.92 L560.421 1290.92 L560.421 1275.41 Q560.421 1271.73 558.985 1269.9 Q557.55 1268.07 554.68 1268.07 Q551.231 1268.07 549.24 1270.27 Q547.249 1272.47 547.249 1276.26 L547.249 1290.92 L542.967 1290.92 L542.967 1264.99 L547.249 1264.99 L547.249 1269.02 Q548.777 1266.68 550.837 1265.52 Q552.921 1264.36 555.629 1264.36 Q560.097 1264.36 562.388 1267.14 Q564.68 1269.9 564.68 1275.27 Z" fill="#000000" fill-rule="evenodd" fill-opacity="1" /><path clip-path="url(#clip580)" d="M584.958 1277.88 Q579.796 1277.88 577.805 1279.06 Q575.814 1280.24 575.814 1283.09 Q575.814 1285.36 577.296 1286.7 Q578.8 1288.02 581.37 1288.02 Q584.911 1288.02 587.041 1285.52 Q589.194 1283 589.194 1278.83 L589.194 1277.88 L584.958 1277.88 M593.453 1276.12 L593.453 1290.92 L589.194 1290.92 L589.194 1286.98 Q587.735 1289.34 585.559 1290.48 Q583.384 1291.59 580.235 1291.59 Q576.254 1291.59 573.893 1289.36 Q571.555 1287.12 571.555 1283.37 Q571.555 1278.99 574.472 1276.77 Q577.411 1274.55 583.221 1274.55 L589.194 1274.55 L589.194 1274.13 Q589.194 1271.19 587.249 1269.6 Q585.328 1267.98 581.833 1267.98 Q579.61 1267.98 577.504 1268.51 Q575.397 1269.04 573.453 1270.11 L573.453 1266.17 Q575.791 1265.27 577.99 1264.83 Q580.189 1264.36 582.272 1264.36 Q587.897 1264.36 590.675 1267.28 Q593.453 1270.2 593.453 1276.12 Z" fill="#000000" fill-rule="evenodd" fill-opacity="1" /><path clip-path="url(#clip580)" d="M602.226 1254.9 L606.485 1254.9 L606.485 1290.92 L602.226 1290.92 L602.226 1254.9 Z" fill="#000000" fill-rule="evenodd" fill-opacity="1" /><path clip-path="url(#clip580)" d="M626.184 1293.32 Q624.379 1297.95 622.666 1299.36 Q620.953 1300.78 618.082 1300.78 L614.68 1300.78 L614.68 1297.21 L617.18 1297.21 Q618.939 1297.21 619.911 1296.38 Q620.883 1295.54 622.064 1292.44 L622.828 1290.5 L612.342 1264.99 L616.856 1264.99 L624.957 1285.27 L633.059 1264.99 L637.573 1264.99 L626.184 1293.32 Z" fill="#000000" fill-rule="evenodd" fill-opacity="1" /><path clip-path="url(#clip580)" d="M647.666 1257.63 L647.666 1264.99 L656.439 1264.99 L656.439 1268.3 L647.666 1268.3 L647.666 1282.37 Q647.666 1285.54 648.522 1286.45 Q649.402 1287.35 652.064 1287.35 L656.439 1287.35 L656.439 1290.92 L652.064 1290.92 Q647.133 1290.92 645.258 1289.09 Q643.383 1287.23 643.383 1282.37 L643.383 1268.3 L640.258 1268.3 L640.258 1264.99 L643.383 1264.99 L643.383 1257.63 L647.666 1257.63 Z" fill="#000000" fill-rule="evenodd" fill-opacity="1" /><path clip-path="url(#clip580)" d="M662.04 1264.99 L666.3 1264.99 L666.3 1290.92 L662.04 1290.92 L662.04 1264.99 M662.04 1254.9 L666.3 1254.9 L666.3 1260.29 L662.04 1260.29 L662.04 1254.9 Z" fill="#000000" fill-rule="evenodd" fill-opacity="1" /><path clip-path="url(#clip580)" d="M693.869 1265.98 L693.869 1269.97 Q692.063 1268.97 690.235 1268.48 Q688.429 1267.98 686.577 1267.98 Q682.434 1267.98 680.142 1270.61 Q677.851 1273.23 677.851 1277.98 Q677.851 1282.72 680.142 1285.36 Q682.434 1287.98 686.577 1287.98 Q688.429 1287.98 690.235 1287.49 Q692.063 1286.98 693.869 1285.98 L693.869 1289.92 Q692.087 1290.75 690.165 1291.17 Q688.267 1291.59 686.114 1291.59 Q680.258 1291.59 676.809 1287.91 Q673.36 1284.23 673.36 1277.98 Q673.36 1271.63 676.832 1268 Q680.327 1264.36 686.392 1264.36 Q688.36 1264.36 690.235 1264.78 Q692.11 1265.17 693.869 1265.98 Z" fill="#000000" fill-rule="evenodd" fill-opacity="1" /><path clip-path="url(#clip580)" d="M713.059 1277.88 Q707.897 1277.88 705.906 1279.06 Q703.915 1280.24 703.915 1283.09 Q703.915 1285.36 705.397 1286.7 Q706.901 1288.02 709.471 1288.02 Q713.012 1288.02 715.142 1285.52 Q717.295 1283 717.295 1278.83 L717.295 1277.88 L713.059 1277.88 M721.554 1276.12 L721.554 1290.92 L717.295 1290.92 L717.295 1286.98 Q715.836 1289.34 713.661 1290.48 Q711.485 1291.59 708.337 1291.59 Q704.355 1291.59 701.994 1289.36 Q699.656 1287.12 699.656 1283.37 Q699.656 1278.99 702.573 1276.77 Q705.512 1274.55 711.323 1274.55 L717.295 1274.55 L717.295 1274.13 Q717.295 1271.19 715.35 1269.6 Q713.429 1267.98 709.934 1267.98 Q707.712 1267.98 705.605 1268.51 Q703.499 1269.04 701.554 1270.11 L701.554 1266.17 Q703.892 1265.27 706.091 1264.83 Q708.29 1264.36 710.374 1264.36 Q715.999 1264.36 718.776 1267.28 Q721.554 1270.2 721.554 1276.12 Z" fill="#000000" fill-rule="evenodd" fill-opacity="1" /><path clip-path="url(#clip580)" d="M730.327 1254.9 L734.586 1254.9 L734.586 1290.92 L730.327 1290.92 L730.327 1254.9 Z" fill="#000000" fill-rule="evenodd" fill-opacity="1" /><path clip-path="url(#clip580)" d="M775.095 1265.75 L775.095 1269.78 Q773.29 1268.86 771.345 1268.39 Q769.401 1267.93 767.318 1267.93 Q764.146 1267.93 762.549 1268.9 Q760.975 1269.87 760.975 1271.82 Q760.975 1273.3 762.109 1274.16 Q763.244 1274.99 766.67 1275.75 L768.128 1276.08 Q772.665 1277.05 774.563 1278.83 Q776.484 1280.59 776.484 1283.76 Q776.484 1287.37 773.614 1289.48 Q770.767 1291.59 765.767 1291.59 Q763.683 1291.59 761.415 1291.17 Q759.17 1290.78 756.67 1289.97 L756.67 1285.57 Q759.031 1286.79 761.322 1287.42 Q763.614 1288.02 765.859 1288.02 Q768.869 1288.02 770.489 1287 Q772.109 1285.96 772.109 1284.09 Q772.109 1282.35 770.929 1281.42 Q769.771 1280.5 765.813 1279.64 L764.332 1279.3 Q760.373 1278.46 758.614 1276.75 Q756.855 1275.01 756.855 1272 Q756.855 1268.35 759.447 1266.36 Q762.04 1264.36 766.808 1264.36 Q769.17 1264.36 771.253 1264.71 Q773.336 1265.06 775.095 1265.75 Z" fill="#000000" fill-rule="evenodd" fill-opacity="1" /><path clip-path="url(#clip580)" d="M793.313 1267.98 Q789.887 1267.98 787.896 1270.66 Q785.906 1273.32 785.906 1277.98 Q785.906 1282.63 787.873 1285.31 Q789.864 1287.98 793.313 1287.98 Q796.716 1287.98 798.706 1285.29 Q800.697 1282.61 800.697 1277.98 Q800.697 1273.37 798.706 1270.68 Q796.716 1267.98 793.313 1267.98 M793.313 1264.36 Q798.868 1264.36 802.04 1267.98 Q805.211 1271.59 805.211 1277.98 Q805.211 1284.34 802.04 1287.98 Q798.868 1291.59 793.313 1291.59 Q787.734 1291.59 784.563 1287.98 Q781.415 1284.34 781.415 1277.98 Q781.415 1271.59 784.563 1267.98 Q787.734 1264.36 793.313 1264.36 Z" fill="#000000" fill-rule="evenodd" fill-opacity="1" /><path clip-path="url(#clip580)" d="M812.271 1254.9 L816.53 1254.9 L816.53 1290.92 L812.271 1290.92 L812.271 1254.9 Z" fill="#000000" fill-rule="evenodd" fill-opacity="1" /><path clip-path="url(#clip580)" d="M825.003 1280.68 L825.003 1264.99 L829.262 1264.99 L829.262 1280.52 Q829.262 1284.2 830.697 1286.05 Q832.132 1287.88 835.003 1287.88 Q838.452 1287.88 840.442 1285.68 Q842.456 1283.48 842.456 1279.69 L842.456 1264.99 L846.715 1264.99 L846.715 1290.92 L842.456 1290.92 L842.456 1286.93 Q840.905 1289.29 838.845 1290.45 Q836.808 1291.59 834.1 1291.59 Q829.632 1291.59 827.317 1288.81 Q825.003 1286.03 825.003 1280.68 M835.72 1264.36 L835.72 1264.36 Z" fill="#000000" fill-rule="evenodd" fill-opacity="1" /><path clip-path="url(#clip580)" d="M859.701 1257.63 L859.701 1264.99 L868.475 1264.99 L868.475 1268.3 L859.701 1268.3 L859.701 1282.37 Q859.701 1285.54 860.558 1286.45 Q861.438 1287.35 864.1 1287.35 L868.475 1287.35 L868.475 1290.92 L864.1 1290.92 Q859.169 1290.92 857.294 1289.09 Q855.419 1287.23 855.419 1282.37 L855.419 1268.3 L852.294 1268.3 L852.294 1264.99 L855.419 1264.99 L855.419 1257.63 L859.701 1257.63 Z" fill="#000000" fill-rule="evenodd" fill-opacity="1" /><path clip-path="url(#clip580)" d="M874.076 1264.99 L878.336 1264.99 L878.336 1290.92 L874.076 1290.92 L874.076 1264.99 M874.076 1254.9 L878.336 1254.9 L878.336 1260.29 L874.076 1260.29 L874.076 1254.9 Z" fill="#000000" fill-rule="evenodd" fill-opacity="1" /><path clip-path="url(#clip580)" d="M897.294 1267.98 Q893.868 1267.98 891.877 1270.66 Q889.886 1273.32 889.886 1277.98 Q889.886 1282.63 891.854 1285.31 Q893.845 1287.98 897.294 1287.98 Q900.697 1287.98 902.687 1285.29 Q904.678 1282.61 904.678 1277.98 Q904.678 1273.37 902.687 1270.68 Q900.697 1267.98 897.294 1267.98 M897.294 1264.36 Q902.849 1264.36 906.021 1267.98 Q909.192 1271.59 909.192 1277.98 Q909.192 1284.34 906.021 1287.98 Q902.849 1291.59 897.294 1291.59 Q891.715 1291.59 888.544 1287.98 Q885.396 1284.34 885.396 1277.98 Q885.396 1271.59 888.544 1267.98 Q891.715 1264.36 897.294 1264.36 Z" fill="#000000" fill-rule="evenodd" fill-opacity="1" /><path clip-path="url(#clip580)" d="M937.803 1275.27 L937.803 1290.92 L933.544 1290.92 L933.544 1275.41 Q933.544 1271.73 932.108 1269.9 Q930.673 1268.07 927.803 1268.07 Q924.354 1268.07 922.363 1270.27 Q920.372 1272.47 920.372 1276.26 L920.372 1290.92 L916.09 1290.92 L916.09 1264.99 L920.372 1264.99 L920.372 1269.02 Q921.9 1266.68 923.96 1265.52 Q926.044 1264.36 928.752 1264.36 Q933.22 1264.36 935.511 1267.14 Q937.803 1269.9 937.803 1275.27 Z" fill="#000000" fill-rule="evenodd" fill-opacity="1" /><circle clip-path="url(#clip580)" cx="413.125" cy="1325.48" r="23" fill="#ff0000" fill-rule="evenodd" fill-opacity="1" stroke="#000000" stroke-opacity="1" stroke-width="5.12"/>
<path clip-path="url(#clip580)" d="M506.602 1308.2 L512.898 1308.2 L528.222 1337.11 L528.222 1308.2 L532.759 1308.2 L532.759 1342.76 L526.463 1342.76 L511.139 1313.84 L511.139 1342.76 L506.602 1342.76 L506.602 1308.2 Z" fill="#000000" fill-rule="evenodd" fill-opacity="1" /><path clip-path="url(#clip580)" d="M541.439 1332.52 L541.439 1316.83 L545.699 1316.83 L545.699 1332.36 Q545.699 1336.04 547.134 1337.89 Q548.569 1339.72 551.439 1339.72 Q554.888 1339.72 556.879 1337.52 Q558.893 1335.32 558.893 1331.53 L558.893 1316.83 L563.152 1316.83 L563.152 1342.76 L558.893 1342.76 L558.893 1338.77 Q557.342 1341.13 555.282 1342.29 Q553.245 1343.43 550.536 1343.43 Q546.069 1343.43 543.754 1340.65 Q541.439 1337.87 541.439 1332.52 M552.157 1316.2 L552.157 1316.2 Z" fill="#000000" fill-rule="evenodd" fill-opacity="1" /><path clip-path="url(#clip580)" d="M592.11 1321.81 Q593.708 1318.94 595.93 1317.57 Q598.152 1316.2 601.161 1316.2 Q605.212 1316.2 607.411 1319.05 Q609.61 1321.88 609.61 1327.11 L609.61 1342.76 L605.328 1342.76 L605.328 1327.25 Q605.328 1323.52 604.008 1321.71 Q602.689 1319.91 599.981 1319.91 Q596.67 1319.91 594.749 1322.11 Q592.828 1324.31 592.828 1328.1 L592.828 1342.76 L588.546 1342.76 L588.546 1327.25 Q588.546 1323.5 587.226 1321.71 Q585.907 1319.91 583.152 1319.91 Q579.888 1319.91 577.967 1322.13 Q576.046 1324.33 576.046 1328.1 L576.046 1342.76 L571.763 1342.76 L571.763 1316.83 L576.046 1316.83 L576.046 1320.86 Q577.504 1318.47 579.541 1317.34 Q581.578 1316.2 584.379 1316.2 Q587.203 1316.2 589.171 1317.64 Q591.161 1319.07 592.11 1321.81 Z" fill="#000000" fill-rule="evenodd" fill-opacity="1" /><path clip-path="url(#clip580)" d="M640.281 1328.73 L640.281 1330.81 L620.698 1330.81 Q620.976 1335.21 623.337 1337.52 Q625.721 1339.82 629.957 1339.82 Q632.411 1339.82 634.703 1339.21 Q637.017 1338.61 639.286 1337.41 L639.286 1341.44 Q636.994 1342.41 634.587 1342.92 Q632.18 1343.43 629.703 1343.43 Q623.499 1343.43 619.865 1339.82 Q616.254 1336.2 616.254 1330.05 Q616.254 1323.68 619.68 1319.95 Q623.129 1316.2 628.962 1316.2 Q634.193 1316.2 637.226 1319.58 Q640.281 1322.94 640.281 1328.73 M636.022 1327.48 Q635.976 1323.98 634.055 1321.9 Q632.156 1319.82 629.008 1319.82 Q625.443 1319.82 623.291 1321.83 Q621.161 1323.84 620.837 1327.5 L636.022 1327.48 Z" fill="#000000" fill-rule="evenodd" fill-opacity="1" /><path clip-path="url(#clip580)" d="M662.295 1320.81 Q661.578 1320.39 660.721 1320.21 Q659.888 1320 658.869 1320 Q655.258 1320 653.314 1322.36 Q651.392 1324.7 651.392 1329.1 L651.392 1342.76 L647.11 1342.76 L647.11 1316.83 L651.392 1316.83 L651.392 1320.86 Q652.735 1318.5 654.888 1317.36 Q657.041 1316.2 660.119 1316.2 Q660.559 1316.2 661.091 1316.27 Q661.624 1316.32 662.272 1316.44 L662.295 1320.81 Z" fill="#000000" fill-rule="evenodd" fill-opacity="1" /><path clip-path="url(#clip580)" d="M666.763 1316.83 L671.022 1316.83 L671.022 1342.76 L666.763 1342.76 L666.763 1316.83 M666.763 1306.74 L671.022 1306.74 L671.022 1312.13 L666.763 1312.13 L666.763 1306.74 Z" fill="#000000" fill-rule="evenodd" fill-opacity="1" /><path clip-path="url(#clip580)" d="M698.591 1317.82 L698.591 1321.81 Q696.786 1320.81 694.957 1320.32 Q693.151 1319.82 691.3 1319.82 Q687.156 1319.82 684.864 1322.45 Q682.573 1325.07 682.573 1329.82 Q682.573 1334.56 684.864 1337.2 Q687.156 1339.82 691.3 1339.82 Q693.151 1339.82 694.957 1339.33 Q696.786 1338.82 698.591 1337.82 L698.591 1341.76 Q696.809 1342.59 694.888 1343.01 Q692.989 1343.43 690.837 1343.43 Q684.98 1343.43 681.531 1339.75 Q678.082 1336.07 678.082 1329.82 Q678.082 1323.47 681.554 1319.84 Q685.05 1316.2 691.114 1316.2 Q693.082 1316.2 694.957 1316.62 Q696.832 1317.01 698.591 1317.82 Z" fill="#000000" fill-rule="evenodd" fill-opacity="1" /><path clip-path="url(#clip580)" d="M717.781 1329.72 Q712.619 1329.72 710.628 1330.9 Q708.637 1332.08 708.637 1334.93 Q708.637 1337.2 710.119 1338.54 Q711.624 1339.86 714.193 1339.86 Q717.735 1339.86 719.864 1337.36 Q722.017 1334.84 722.017 1330.67 L722.017 1329.72 L717.781 1329.72 M726.276 1327.96 L726.276 1342.76 L722.017 1342.76 L722.017 1338.82 Q720.559 1341.18 718.383 1342.32 Q716.207 1343.43 713.059 1343.43 Q709.077 1343.43 706.716 1341.2 Q704.378 1338.96 704.378 1335.21 Q704.378 1330.83 707.295 1328.61 Q710.235 1326.39 716.045 1326.39 L722.017 1326.39 L722.017 1325.97 Q722.017 1323.03 720.073 1321.44 Q718.151 1319.82 714.656 1319.82 Q712.434 1319.82 710.327 1320.35 Q708.221 1320.88 706.276 1321.95 L706.276 1318.01 Q708.614 1317.11 710.813 1316.67 Q713.012 1316.2 715.096 1316.2 Q720.721 1316.2 723.498 1319.12 Q726.276 1322.04 726.276 1327.96 Z" fill="#000000" fill-rule="evenodd" fill-opacity="1" /><path clip-path="url(#clip580)" d="M735.049 1306.74 L739.309 1306.74 L739.309 1342.76 L735.049 1342.76 L735.049 1306.74 Z" fill="#000000" fill-rule="evenodd" fill-opacity="1" /><path clip-path="url(#clip580)" d="M784.193 1309.33 L784.193 1313.89 Q781.531 1312.62 779.169 1311.99 Q776.808 1311.37 774.609 1311.37 Q770.79 1311.37 768.707 1312.85 Q766.646 1314.33 766.646 1317.06 Q766.646 1319.35 768.012 1320.53 Q769.401 1321.69 773.244 1322.41 L776.068 1322.99 Q781.299 1323.98 783.776 1326.51 Q786.276 1329.01 786.276 1333.22 Q786.276 1338.24 782.896 1340.83 Q779.54 1343.43 773.035 1343.43 Q770.582 1343.43 767.804 1342.87 Q765.049 1342.32 762.086 1341.23 L762.086 1336.41 Q764.933 1338.01 767.665 1338.82 Q770.396 1339.63 773.035 1339.63 Q777.04 1339.63 779.216 1338.06 Q781.392 1336.48 781.392 1333.57 Q781.392 1331.02 779.818 1329.58 Q778.267 1328.15 774.702 1327.43 L771.855 1326.88 Q766.623 1325.83 764.285 1323.61 Q761.947 1321.39 761.947 1317.43 Q761.947 1312.85 765.165 1310.21 Q768.406 1307.57 774.077 1307.57 Q776.507 1307.57 779.031 1308.01 Q781.554 1308.45 784.193 1309.33 Z" fill="#000000" fill-rule="evenodd" fill-opacity="1" /><path clip-path="url(#clip580)" d="M803.429 1319.82 Q800.003 1319.82 798.012 1322.5 Q796.021 1325.16 796.021 1329.82 Q796.021 1334.47 797.989 1337.15 Q799.98 1339.82 803.429 1339.82 Q806.831 1339.82 808.822 1337.13 Q810.813 1334.45 810.813 1329.82 Q810.813 1325.21 808.822 1322.52 Q806.831 1319.82 803.429 1319.82 M803.429 1316.2 Q808.984 1316.2 812.155 1319.82 Q815.327 1323.43 815.327 1329.82 Q815.327 1336.18 812.155 1339.82 Q808.984 1343.43 803.429 1343.43 Q797.85 1343.43 794.679 1339.82 Q791.531 1336.18 791.531 1329.82 Q791.531 1323.43 794.679 1319.82 Q797.85 1316.2 803.429 1316.2 Z" fill="#000000" fill-rule="evenodd" fill-opacity="1" /><path clip-path="url(#clip580)" d="M822.387 1306.74 L826.646 1306.74 L826.646 1342.76 L822.387 1342.76 L822.387 1306.74 Z" fill="#000000" fill-rule="evenodd" fill-opacity="1" /><path clip-path="url(#clip580)" d="M835.118 1332.52 L835.118 1316.83 L839.378 1316.83 L839.378 1332.36 Q839.378 1336.04 840.813 1337.89 Q842.248 1339.72 845.118 1339.72 Q848.567 1339.72 850.558 1337.52 Q852.572 1335.32 852.572 1331.53 L852.572 1316.83 L856.831 1316.83 L856.831 1342.76 L852.572 1342.76 L852.572 1338.77 Q851.021 1341.13 848.961 1342.29 Q846.924 1343.43 844.215 1343.43 Q839.748 1343.43 837.433 1340.65 Q835.118 1337.87 835.118 1332.52 M845.836 1316.2 L845.836 1316.2 Z" fill="#000000" fill-rule="evenodd" fill-opacity="1" /><path clip-path="url(#clip580)" d="M869.817 1309.47 L869.817 1316.83 L878.59 1316.83 L878.59 1320.14 L869.817 1320.14 L869.817 1334.21 Q869.817 1337.38 870.674 1338.29 Q871.553 1339.19 874.215 1339.19 L878.59 1339.19 L878.59 1342.76 L874.215 1342.76 Q869.285 1342.76 867.41 1340.93 Q865.535 1339.07 865.535 1334.21 L865.535 1320.14 L862.41 1320.14 L862.41 1316.83 L865.535 1316.83 L865.535 1309.47 L869.817 1309.47 Z" fill="#000000" fill-rule="evenodd" fill-opacity="1" /><path clip-path="url(#clip580)" d="M884.192 1316.83 L888.451 1316.83 L888.451 1342.76 L884.192 1342.76 L884.192 1316.83 M884.192 1306.74 L888.451 1306.74 L888.451 1312.13 L884.192 1312.13 L884.192 1306.74 Z" fill="#000000" fill-rule="evenodd" fill-opacity="1" /><path clip-path="url(#clip580)" d="M907.41 1319.82 Q903.984 1319.82 901.993 1322.5 Q900.002 1325.16 900.002 1329.82 Q900.002 1334.47 901.97 1337.15 Q903.96 1339.82 907.41 1339.82 Q910.812 1339.82 912.803 1337.13 Q914.794 1334.45 914.794 1329.82 Q914.794 1325.21 912.803 1322.52 Q910.812 1319.82 907.41 1319.82 M907.41 1316.2 Q912.965 1316.2 916.136 1319.82 Q919.308 1323.43 919.308 1329.82 Q919.308 1336.18 916.136 1339.82 Q912.965 1343.43 907.41 1343.43 Q901.831 1343.43 898.66 1339.82 Q895.511 1336.18 895.511 1329.82 Q895.511 1323.43 898.66 1319.82 Q901.831 1316.2 907.41 1316.2 Z" fill="#000000" fill-rule="evenodd" fill-opacity="1" /><path clip-path="url(#clip580)" d="M947.919 1327.11 L947.919 1342.76 L943.659 1342.76 L943.659 1327.25 Q943.659 1323.57 942.224 1321.74 Q940.789 1319.91 937.919 1319.91 Q934.47 1319.91 932.479 1322.11 Q930.488 1324.31 930.488 1328.1 L930.488 1342.76 L926.206 1342.76 L926.206 1316.83 L930.488 1316.83 L930.488 1320.86 Q932.016 1318.52 934.076 1317.36 Q936.159 1316.2 938.868 1316.2 Q943.335 1316.2 945.627 1318.98 Q947.919 1321.74 947.919 1327.11 Z" fill="#000000" fill-rule="evenodd" fill-opacity="1" /></svg>
