<?xml version="1.0" encoding="utf-8"?>
<svg xmlns="http://www.w3.org/2000/svg" xmlns:xlink="http://www.w3.org/1999/xlink" width="600" height="400" viewBox="0 0 2400 1600">
<defs>
  <clipPath id="clip960">
    <rect x="0" y="0" width="2400" height="1600"/>
  </clipPath>
</defs>
<path clip-path="url(#clip960)" d="
M0 1600 L2400 1600 L2400 0 L0 0  Z
  " fill="#ffffff" fill-rule="evenodd" fill-opacity="1"/>
<defs>
  <clipPath id="clip961">
    <rect x="480" y="0" width="1681" height="1600"/>
  </clipPath>
</defs>
<path clip-path="url(#clip960)" d="
M149.191 1486.45 L2352.76 1486.45 L2352.76 123.472 L149.191 123.472  Z
  " fill="#ffffff" fill-rule="evenodd" fill-opacity="1"/>
<defs>
  <clipPath id="clip962">
    <rect x="149" y="123" width="2205" height="1364"/>
  </clipPath>
</defs>
<polyline clip-path="url(#clip962)" style="stroke:#000000; stroke-linecap:butt; stroke-linejoin:round; stroke-width:2; stroke-opacity:0.1; fill:none" points="
  211.556,1486.45 211.556,123.472 
  "/>
<polyline clip-path="url(#clip962)" style="stroke:#000000; stroke-linecap:butt; stroke-linejoin:round; stroke-width:2; stroke-opacity:0.1; fill:none" points="
  731.265,1486.45 731.265,123.472 
  "/>
<polyline clip-path="url(#clip962)" style="stroke:#000000; stroke-linecap:butt; stroke-linejoin:round; stroke-width:2; stroke-opacity:0.1; fill:none" points="
  1250.97,1486.45 1250.97,123.472 
  "/>
<polyline clip-path="url(#clip962)" style="stroke:#000000; stroke-linecap:butt; stroke-linejoin:round; stroke-width:2; stroke-opacity:0.1; fill:none" points="
  1770.68,1486.45 1770.68,123.472 
  "/>
<polyline clip-path="url(#clip962)" style="stroke:#000000; stroke-linecap:butt; stroke-linejoin:round; stroke-width:2; stroke-opacity:0.1; fill:none" points="
  2290.39,1486.45 2290.39,123.472 
  "/>
<polyline clip-path="url(#clip960)" style="stroke:#000000; stroke-linecap:butt; stroke-linejoin:round; stroke-width:4; stroke-opacity:1; fill:none" points="
  149.191,1486.45 2352.76,1486.45 
  "/>
<polyline clip-path="url(#clip960)" style="stroke:#000000; stroke-linecap:butt; stroke-linejoin:round; stroke-width:4; stroke-opacity:1; fill:none" points="
  211.556,1486.45 211.556,1467.55 
  "/>
<polyline clip-path="url(#clip960)" style="stroke:#000000; stroke-linecap:butt; stroke-linejoin:round; stroke-width:4; stroke-opacity:1; fill:none" points="
  731.265,1486.45 731.265,1467.55 
  "/>
<polyline clip-path="url(#clip960)" style="stroke:#000000; stroke-linecap:butt; stroke-linejoin:round; stroke-width:4; stroke-opacity:1; fill:none" points="
  1250.97,1486.45 1250.97,1467.55 
  "/>
<polyline clip-path="url(#clip960)" style="stroke:#000000; stroke-linecap:butt; stroke-linejoin:round; stroke-width:4; stroke-opacity:1; fill:none" points="
  1770.68,1486.45 1770.68,1467.55 
  "/>
<polyline clip-path="url(#clip960)" style="stroke:#000000; stroke-linecap:butt; stroke-linejoin:round; stroke-width:4; stroke-opacity:1; fill:none" points="
  2290.39,1486.45 2290.39,1467.55 
  "/>
<path clip-path="url(#clip960)" d="M211.556 1517.37 Q207.945 1517.37 206.116 1520.93 Q204.311 1524.47 204.311 1531.6 Q204.311 1538.71 206.116 1542.27 Q207.945 1545.82 211.556 1545.82 Q215.19 1545.82 216.996 1542.27 Q218.824 1538.71 218.824 1531.6 Q218.824 1524.47 216.996 1520.93 Q215.19 1517.37 211.556 1517.37 M211.556 1513.66 Q217.366 1513.66 220.422 1518.27 Q223.5 1522.85 223.5 1531.6 Q223.5 1540.33 220.422 1544.94 Q217.366 1549.52 211.556 1549.52 Q205.746 1549.52 202.667 1544.94 Q199.612 1540.33 199.612 1531.6 Q199.612 1522.85 202.667 1518.27 Q205.746 1513.66 211.556 1513.66 Z" fill="#000000" fill-rule="evenodd" fill-opacity="1" /><path clip-path="url(#clip960)" d="M705.964 1514.29 L724.32 1514.29 L724.32 1518.22 L710.246 1518.22 L710.246 1526.7 Q711.265 1526.35 712.283 1526.19 Q713.302 1526 714.32 1526 Q720.107 1526 723.487 1529.17 Q726.867 1532.34 726.867 1537.76 Q726.867 1543.34 723.394 1546.44 Q719.922 1549.52 713.603 1549.52 Q711.427 1549.52 709.158 1549.15 Q706.913 1548.78 704.506 1548.04 L704.506 1543.34 Q706.589 1544.47 708.811 1545.03 Q711.033 1545.58 713.51 1545.58 Q717.515 1545.58 719.853 1543.48 Q722.191 1541.37 722.191 1537.76 Q722.191 1534.15 719.853 1532.04 Q717.515 1529.94 713.51 1529.94 Q711.635 1529.94 709.76 1530.35 Q707.908 1530.77 705.964 1531.65 L705.964 1514.29 Z" fill="#000000" fill-rule="evenodd" fill-opacity="1" /><path clip-path="url(#clip960)" d="M746.079 1517.37 Q742.468 1517.37 740.64 1520.93 Q738.834 1524.47 738.834 1531.6 Q738.834 1538.71 740.64 1542.27 Q742.468 1545.82 746.079 1545.82 Q749.714 1545.82 751.519 1542.27 Q753.348 1538.71 753.348 1531.6 Q753.348 1524.47 751.519 1520.93 Q749.714 1517.37 746.079 1517.37 M746.079 1513.66 Q751.89 1513.66 754.945 1518.27 Q758.024 1522.85 758.024 1531.6 Q758.024 1540.33 754.945 1544.94 Q751.89 1549.52 746.079 1549.52 Q740.269 1549.52 737.191 1544.94 Q734.135 1540.33 734.135 1531.6 Q734.135 1522.85 737.191 1518.27 Q740.269 1513.66 746.079 1513.66 Z" fill="#000000" fill-rule="evenodd" fill-opacity="1" /><path clip-path="url(#clip960)" d="M1210.58 1544.91 L1218.22 1544.91 L1218.22 1518.55 L1209.91 1520.21 L1209.91 1515.95 L1218.17 1514.29 L1222.85 1514.29 L1222.85 1544.91 L1230.49 1544.91 L1230.49 1548.85 L1210.58 1548.85 L1210.58 1544.91 Z" fill="#000000" fill-rule="evenodd" fill-opacity="1" /><path clip-path="url(#clip960)" d="M1249.93 1517.37 Q1246.32 1517.37 1244.49 1520.93 Q1242.69 1524.47 1242.69 1531.6 Q1242.69 1538.71 1244.49 1542.27 Q1246.32 1545.82 1249.93 1545.82 Q1253.57 1545.82 1255.37 1542.27 Q1257.2 1538.71 1257.2 1531.6 Q1257.2 1524.47 1255.37 1520.93 Q1253.57 1517.37 1249.93 1517.37 M1249.93 1513.66 Q1255.74 1513.66 1258.8 1518.27 Q1261.88 1522.85 1261.88 1531.6 Q1261.88 1540.33 1258.8 1544.94 Q1255.74 1549.52 1249.93 1549.52 Q1244.12 1549.52 1241.04 1544.94 Q1237.99 1540.33 1237.99 1531.6 Q1237.99 1522.85 1241.04 1518.27 Q1244.12 1513.66 1249.93 1513.66 Z" fill="#000000" fill-rule="evenodd" fill-opacity="1" /><path clip-path="url(#clip960)" d="M1280.09 1517.37 Q1276.48 1517.37 1274.65 1520.93 Q1272.85 1524.47 1272.85 1531.6 Q1272.85 1538.71 1274.65 1542.27 Q1276.48 1545.82 1280.09 1545.82 Q1283.73 1545.82 1285.53 1542.27 Q1287.36 1538.71 1287.36 1531.6 Q1287.36 1524.47 1285.53 1520.93 Q1283.73 1517.37 1280.09 1517.37 M1280.09 1513.66 Q1285.9 1513.66 1288.96 1518.27 Q1292.04 1522.85 1292.04 1531.6 Q1292.04 1540.33 1288.96 1544.94 Q1285.9 1549.52 1280.09 1549.52 Q1274.28 1549.52 1271.2 1544.94 Q1268.15 1540.33 1268.15 1531.6 Q1268.15 1522.85 1271.2 1518.27 Q1274.28 1513.66 1280.09 1513.66 Z" fill="#000000" fill-rule="evenodd" fill-opacity="1" /><path clip-path="url(#clip960)" d="M1730.29 1544.91 L1737.93 1544.91 L1737.93 1518.55 L1729.62 1520.21 L1729.62 1515.95 L1737.88 1514.29 L1742.56 1514.29 L1742.56 1544.91 L1750.2 1544.91 L1750.2 1548.85 L1730.29 1548.85 L1730.29 1544.91 Z" fill="#000000" fill-rule="evenodd" fill-opacity="1" /><path clip-path="url(#clip960)" d="M1759.69 1514.29 L1778.04 1514.29 L1778.04 1518.22 L1763.97 1518.22 L1763.97 1526.7 Q1764.99 1526.35 1766.01 1526.19 Q1767.02 1526 1768.04 1526 Q1773.83 1526 1777.21 1529.17 Q1780.59 1532.34 1780.59 1537.76 Q1780.59 1543.34 1777.12 1546.44 Q1773.65 1549.52 1767.33 1549.52 Q1765.15 1549.52 1762.88 1549.15 Q1760.64 1548.78 1758.23 1548.04 L1758.23 1543.34 Q1760.31 1544.47 1762.53 1545.03 Q1764.76 1545.58 1767.23 1545.58 Q1771.24 1545.58 1773.58 1543.48 Q1775.91 1541.37 1775.91 1537.76 Q1775.91 1534.15 1773.58 1532.04 Q1771.24 1529.94 1767.23 1529.94 Q1765.36 1529.94 1763.48 1530.35 Q1761.63 1530.77 1759.69 1531.65 L1759.69 1514.29 Z" fill="#000000" fill-rule="evenodd" fill-opacity="1" /><path clip-path="url(#clip960)" d="M1799.8 1517.37 Q1796.19 1517.37 1794.36 1520.93 Q1792.56 1524.47 1792.56 1531.6 Q1792.56 1538.71 1794.36 1542.27 Q1796.19 1545.82 1799.8 1545.82 Q1803.44 1545.82 1805.24 1542.27 Q1807.07 1538.71 1807.07 1531.6 Q1807.07 1524.47 1805.24 1520.93 Q1803.44 1517.37 1799.8 1517.37 M1799.8 1513.66 Q1805.61 1513.66 1808.67 1518.27 Q1811.75 1522.85 1811.75 1531.6 Q1811.75 1540.33 1808.67 1544.94 Q1805.61 1549.52 1799.8 1549.52 Q1793.99 1549.52 1790.91 1544.94 Q1787.86 1540.33 1787.86 1531.6 Q1787.86 1522.85 1790.91 1518.27 Q1793.99 1513.66 1799.8 1513.66 Z" fill="#000000" fill-rule="evenodd" fill-opacity="1" /><path clip-path="url(#clip960)" d="M2254.08 1544.91 L2270.4 1544.91 L2270.4 1548.85 L2248.46 1548.85 L2248.46 1544.91 Q2251.12 1542.16 2255.7 1537.53 Q2260.31 1532.88 2261.49 1531.53 Q2263.74 1529.01 2264.62 1527.27 Q2265.52 1525.51 2265.52 1523.82 Q2265.52 1521.07 2263.57 1519.33 Q2261.65 1517.6 2258.55 1517.6 Q2256.35 1517.6 2253.9 1518.36 Q2251.47 1519.13 2248.69 1520.68 L2248.69 1515.95 Q2251.51 1514.82 2253.97 1514.24 Q2256.42 1513.66 2258.46 1513.66 Q2263.83 1513.66 2267.02 1516.35 Q2270.22 1519.03 2270.22 1523.52 Q2270.22 1525.65 2269.41 1527.57 Q2268.62 1529.47 2266.51 1532.07 Q2265.93 1532.74 2262.83 1535.95 Q2259.73 1539.15 2254.08 1544.91 Z" fill="#000000" fill-rule="evenodd" fill-opacity="1" /><path clip-path="url(#clip960)" d="M2290.22 1517.37 Q2286.61 1517.37 2284.78 1520.93 Q2282.97 1524.47 2282.97 1531.6 Q2282.97 1538.71 2284.78 1542.27 Q2286.61 1545.82 2290.22 1545.82 Q2293.85 1545.82 2295.66 1542.27 Q2297.49 1538.71 2297.49 1531.6 Q2297.49 1524.47 2295.66 1520.93 Q2293.85 1517.37 2290.22 1517.37 M2290.22 1513.66 Q2296.03 1513.66 2299.08 1518.27 Q2302.16 1522.85 2302.16 1531.6 Q2302.16 1540.33 2299.08 1544.94 Q2296.03 1549.52 2290.22 1549.52 Q2284.41 1549.52 2281.33 1544.94 Q2278.27 1540.33 2278.27 1531.6 Q2278.27 1522.85 2281.33 1518.27 Q2284.41 1513.66 2290.22 1513.66 Z" fill="#000000" fill-rule="evenodd" fill-opacity="1" /><path clip-path="url(#clip960)" d="M2320.38 1517.37 Q2316.77 1517.37 2314.94 1520.93 Q2313.13 1524.47 2313.13 1531.6 Q2313.13 1538.71 2314.94 1542.27 Q2316.77 1545.82 2320.38 1545.82 Q2324.01 1545.82 2325.82 1542.27 Q2327.65 1538.71 2327.65 1531.6 Q2327.65 1524.47 2325.82 1520.93 Q2324.01 1517.37 2320.38 1517.37 M2320.38 1513.66 Q2326.19 1513.66 2329.24 1518.27 Q2332.32 1522.85 2332.32 1531.6 Q2332.32 1540.33 2329.24 1544.94 Q2326.19 1549.52 2320.38 1549.52 Q2314.57 1549.52 2311.49 1544.94 Q2308.43 1540.33 2308.43 1531.6 Q2308.43 1522.85 2311.49 1518.27 Q2314.57 1513.66 2320.38 1513.66 Z" fill="#000000" fill-rule="evenodd" fill-opacity="1" /><polyline clip-path="url(#clip962)" style="stroke:#000000; stroke-linecap:butt; stroke-linejoin:round; stroke-width:2; stroke-opacity:0.1; fill:none" points="
  149.191,1396.63 2352.76,1396.63 
  "/>
<polyline clip-path="url(#clip962)" style="stroke:#000000; stroke-linecap:butt; stroke-linejoin:round; stroke-width:2; stroke-opacity:0.1; fill:none" points="
  149.191,1087.98 2352.76,1087.98 
  "/>
<polyline clip-path="url(#clip962)" style="stroke:#000000; stroke-linecap:butt; stroke-linejoin:round; stroke-width:2; stroke-opacity:0.1; fill:none" points="
  149.191,779.338 2352.76,779.338 
  "/>
<polyline clip-path="url(#clip962)" style="stroke:#000000; stroke-linecap:butt; stroke-linejoin:round; stroke-width:2; stroke-opacity:0.1; fill:none" points="
  149.191,470.692 2352.76,470.692 
  "/>
<polyline clip-path="url(#clip962)" style="stroke:#000000; stroke-linecap:butt; stroke-linejoin:round; stroke-width:2; stroke-opacity:0.1; fill:none" points="
  149.191,162.047 2352.76,162.047 
  "/>
<polyline clip-path="url(#clip960)" style="stroke:#000000; stroke-linecap:butt; stroke-linejoin:round; stroke-width:4; stroke-opacity:1; fill:none" points="
  149.191,1486.45 149.191,123.472 
  "/>
<polyline clip-path="url(#clip960)" style="stroke:#000000; stroke-linecap:butt; stroke-linejoin:round; stroke-width:4; stroke-opacity:1; fill:none" points="
  149.191,1396.63 168.089,1396.63 
  "/>
<polyline clip-path="url(#clip960)" style="stroke:#000000; stroke-linecap:butt; stroke-linejoin:round; stroke-width:4; stroke-opacity:1; fill:none" points="
  149.191,1087.98 168.089,1087.98 
  "/>
<polyline clip-path="url(#clip960)" style="stroke:#000000; stroke-linecap:butt; stroke-linejoin:round; stroke-width:4; stroke-opacity:1; fill:none" points="
  149.191,779.338 168.089,779.338 
  "/>
<polyline clip-path="url(#clip960)" style="stroke:#000000; stroke-linecap:butt; stroke-linejoin:round; stroke-width:4; stroke-opacity:1; fill:none" points="
  149.191,470.692 168.089,470.692 
  "/>
<polyline clip-path="url(#clip960)" style="stroke:#000000; stroke-linecap:butt; stroke-linejoin:round; stroke-width:4; stroke-opacity:1; fill:none" points="
  149.191,162.047 168.089,162.047 
  "/>
<path clip-path="url(#clip960)" d="M50.9921 1397.08 L80.6679 1397.08 L80.6679 1401.02 L50.9921 1401.02 L50.9921 1397.08 Z" fill="#000000" fill-rule="evenodd" fill-opacity="1" /><path clip-path="url(#clip960)" d="M103.608 1383.42 L91.8021 1401.87 L103.608 1401.87 L103.608 1383.42 M102.381 1379.35 L108.26 1379.35 L108.26 1401.87 L113.191 1401.87 L113.191 1405.76 L108.26 1405.76 L108.26 1413.91 L103.608 1413.91 L103.608 1405.76 L88.0058 1405.76 L88.0058 1401.25 L102.381 1379.35 Z" fill="#000000" fill-rule="evenodd" fill-opacity="1" /><path clip-path="url(#clip960)" d="M52.1264 1088.43 L81.8021 1088.43 L81.8021 1092.37 L52.1264 1092.37 L52.1264 1088.43 Z" fill="#000000" fill-rule="evenodd" fill-opacity="1" /><path clip-path="url(#clip960)" d="M106.061 1086.63 Q109.418 1087.35 111.293 1089.62 Q113.191 1091.88 113.191 1095.22 Q113.191 1100.33 109.672 1103.13 Q106.154 1105.93 99.6724 1105.93 Q97.4965 1105.93 95.1817 1105.49 Q92.89 1105.08 90.4364 1104.22 L90.4364 1099.71 Q92.3808 1100.84 94.6956 1101.42 Q97.0104 1102 99.5335 1102 Q103.932 1102 106.223 1100.26 Q108.538 1098.53 108.538 1095.22 Q108.538 1092.16 106.385 1090.45 Q104.256 1088.71 100.436 1088.71 L96.4085 1088.71 L96.4085 1084.87 L100.621 1084.87 Q104.071 1084.87 105.899 1083.5 Q107.728 1082.12 107.728 1079.52 Q107.728 1076.86 105.83 1075.45 Q103.955 1074.01 100.436 1074.01 Q98.515 1074.01 96.316 1074.43 Q94.1169 1074.85 91.478 1075.73 L91.478 1071.56 Q94.14 1070.82 96.4548 1070.45 Q98.7928 1070.08 100.853 1070.08 Q106.177 1070.08 109.279 1072.51 Q112.381 1074.92 112.381 1079.04 Q112.381 1081.91 110.737 1083.9 Q109.094 1085.87 106.061 1086.63 Z" fill="#000000" fill-rule="evenodd" fill-opacity="1" /><path clip-path="url(#clip960)" d="M53.0754 779.789 L82.7512 779.789 L82.7512 783.724 L53.0754 783.724 L53.0754 779.789 Z" fill="#000000" fill-rule="evenodd" fill-opacity="1" /><path clip-path="url(#clip960)" d="M96.8715 792.683 L113.191 792.683 L113.191 796.618 L91.2465 796.618 L91.2465 792.683 Q93.9086 789.928 98.4919 785.299 Q103.098 780.646 104.279 779.303 Q106.524 776.78 107.404 775.044 Q108.307 773.285 108.307 771.595 Q108.307 768.84 106.362 767.104 Q104.441 765.368 101.339 765.368 Q99.14 765.368 96.6863 766.132 Q94.2558 766.896 91.478 768.447 L91.478 763.725 Q94.3021 762.59 96.7558 762.012 Q99.2095 761.433 101.246 761.433 Q106.617 761.433 109.811 764.118 Q113.006 766.803 113.006 771.294 Q113.006 773.424 112.196 775.345 Q111.408 777.243 109.302 779.836 Q108.723 780.507 105.621 783.724 Q102.52 786.919 96.8715 792.683 Z" fill="#000000" fill-rule="evenodd" fill-opacity="1" /><path clip-path="url(#clip960)" d="M52.7051 471.144 L82.3808 471.144 L82.3808 475.079 L52.7051 475.079 L52.7051 471.144 Z" fill="#000000" fill-rule="evenodd" fill-opacity="1" /><path clip-path="url(#clip960)" d="M93.2836 484.037 L100.922 484.037 L100.922 457.672 L92.6123 459.338 L92.6123 455.079 L100.876 453.412 L105.552 453.412 L105.552 484.037 L113.191 484.037 L113.191 487.972 L93.2836 487.972 L93.2836 484.037 Z" fill="#000000" fill-rule="evenodd" fill-opacity="1" /><path clip-path="url(#clip960)" d="M101.246 147.846 Q97.6354 147.846 95.8067 151.41 Q94.0012 154.952 94.0012 162.082 Q94.0012 169.188 95.8067 172.753 Q97.6354 176.295 101.246 176.295 Q104.881 176.295 106.686 172.753 Q108.515 169.188 108.515 162.082 Q108.515 154.952 106.686 151.41 Q104.881 147.846 101.246 147.846 M101.246 144.142 Q107.057 144.142 110.112 148.748 Q113.191 153.332 113.191 162.082 Q113.191 170.808 110.112 175.415 Q107.057 179.998 101.246 179.998 Q95.4363 179.998 92.3576 175.415 Q89.3021 170.808 89.3021 162.082 Q89.3021 153.332 92.3576 148.748 Q95.4363 144.142 101.246 144.142 Z" fill="#000000" fill-rule="evenodd" fill-opacity="1" /><path clip-path="url(#clip960)" d="M681.295 14.0809 L681.295 22.0612 Q676.636 19.8332 672.504 18.7395 Q668.372 17.6457 664.524 17.6457 Q657.84 17.6457 654.194 20.2383 Q650.589 22.8309 650.589 27.611 Q650.589 31.6214 652.979 33.6873 Q655.409 35.7128 662.134 36.9686 L667.076 37.9813 Q676.231 39.7232 680.566 44.1387 Q684.941 48.5136 684.941 55.8863 Q684.941 64.6767 679.026 69.2137 Q673.152 73.7508 661.769 73.7508 Q657.475 73.7508 652.614 72.7785 Q647.794 71.8063 642.609 69.9024 L642.609 61.4765 Q647.591 64.2716 652.371 65.6895 Q657.151 67.1073 661.769 67.1073 Q668.777 67.1073 672.585 64.3527 Q676.393 61.598 676.393 56.4939 Q676.393 52.0379 673.639 49.5264 Q670.924 47.0148 664.686 45.759 L659.703 44.7868 Q650.548 42.9639 646.457 39.075 Q642.366 35.1862 642.366 28.2591 Q642.366 20.2383 647.996 15.6203 Q653.668 11.0023 663.592 11.0023 Q667.846 11.0023 672.261 11.7719 Q676.677 12.5416 681.295 14.0809 Z" fill="#000000" fill-rule="evenodd" fill-opacity="1" /><path clip-path="url(#clip960)" d="M704.749 14.324 L704.749 27.2059 L720.102 27.2059 L720.102 32.9987 L704.749 32.9987 L704.749 57.6282 Q704.749 63.1779 706.248 64.7578 Q707.788 66.3376 712.446 66.3376 L720.102 66.3376 L720.102 72.576 L712.446 72.576 Q703.818 72.576 700.537 69.3758 Q697.255 66.1351 697.255 57.6282 L697.255 32.9987 L691.787 32.9987 L691.787 27.2059 L697.255 27.2059 L697.255 14.324 L704.749 14.324 Z" fill="#000000" fill-rule="evenodd" fill-opacity="1" /><path clip-path="url(#clip960)" d="M750.525 49.7694 Q741.491 49.7694 738.007 51.8354 Q734.524 53.9013 734.524 58.8839 Q734.524 62.8538 737.116 65.2034 Q739.749 67.5124 744.246 67.5124 Q750.444 67.5124 754.17 63.1374 Q757.938 58.7219 757.938 51.4303 L757.938 49.7694 L750.525 49.7694 M765.391 46.6907 L765.391 72.576 L757.938 72.576 L757.938 65.6895 Q755.386 69.8214 751.578 71.8063 Q747.77 73.7508 742.261 73.7508 Q735.293 73.7508 731.161 69.8619 Q727.07 65.9325 727.07 59.3701 Q727.07 51.7138 732.174 47.825 Q737.319 43.9361 747.487 43.9361 L757.938 43.9361 L757.938 43.2069 Q757.938 38.0623 754.535 35.2672 Q751.173 32.4315 745.056 32.4315 Q741.167 32.4315 737.481 33.3632 Q733.794 34.295 730.392 36.1584 L730.392 29.2718 Q734.483 27.692 738.331 26.9223 Q742.18 26.1121 745.826 26.1121 Q755.669 26.1121 760.53 31.2163 Q765.391 36.3204 765.391 46.6907 Z" fill="#000000" fill-rule="evenodd" fill-opacity="1" /><path clip-path="url(#clip960)" d="M788.117 14.324 L788.117 27.2059 L803.47 27.2059 L803.47 32.9987 L788.117 32.9987 L788.117 57.6282 Q788.117 63.1779 789.616 64.7578 Q791.155 66.3376 795.814 66.3376 L803.47 66.3376 L803.47 72.576 L795.814 72.576 Q787.185 72.576 783.904 69.3758 Q780.623 66.1351 780.623 57.6282 L780.623 32.9987 L775.154 32.9987 L775.154 27.2059 L780.623 27.2059 L780.623 14.324 L788.117 14.324 Z" fill="#000000" fill-rule="evenodd" fill-opacity="1" /><path clip-path="url(#clip960)" d="M813.273 27.2059 L820.727 27.2059 L820.727 72.576 L813.273 72.576 L813.273 27.2059 M813.273 9.54393 L820.727 9.54393 L820.727 18.9825 L813.273 18.9825 L813.273 9.54393 Z" fill="#000000" fill-rule="evenodd" fill-opacity="1" /><path clip-path="url(#clip960)" d="M868.973 28.9478 L868.973 35.9153 Q865.813 34.1734 862.613 33.3227 Q859.453 32.4315 856.213 32.4315 Q848.962 32.4315 844.951 37.0496 Q840.941 41.6271 840.941 49.9314 Q840.941 58.2358 844.951 62.8538 Q848.962 67.4314 856.213 67.4314 Q859.453 67.4314 862.613 66.5807 Q865.813 65.6895 868.973 63.9476 L868.973 70.8341 Q865.854 72.2924 862.492 73.0216 Q859.17 73.7508 855.403 73.7508 Q845.154 73.7508 839.118 67.3098 Q833.082 60.8689 833.082 49.9314 Q833.082 38.832 839.158 32.472 Q845.275 26.1121 855.889 26.1121 Q859.332 26.1121 862.613 26.8413 Q865.894 27.5299 868.973 28.9478 Z" fill="#000000" fill-rule="evenodd" fill-opacity="1" /><path clip-path="url(#clip960)" d="M940.877 49.9314 Q940.877 41.7081 937.474 37.0496 Q934.112 32.3505 928.197 32.3505 Q922.283 32.3505 918.88 37.0496 Q915.518 41.7081 915.518 49.9314 Q915.518 58.1548 918.88 62.8538 Q922.283 67.5124 928.197 67.5124 Q934.112 67.5124 937.474 62.8538 Q940.877 58.1548 940.877 49.9314 M915.518 34.0924 Q917.868 30.0415 921.432 28.0971 Q925.038 26.1121 930.02 26.1121 Q938.284 26.1121 943.429 32.6746 Q948.614 39.2371 948.614 49.9314 Q948.614 60.6258 943.429 67.1883 Q938.284 73.7508 930.02 73.7508 Q925.038 73.7508 921.432 71.8063 Q917.868 69.8214 915.518 65.7705 L915.518 72.576 L908.024 72.576 L908.024 9.54393 L915.518 9.54393 L915.518 34.0924 Z" fill="#000000" fill-rule="evenodd" fill-opacity="1" /><path clip-path="url(#clip960)" d="M999.777 48.0275 L999.777 51.6733 L965.506 51.6733 Q965.992 59.3701 970.124 63.421 Q974.297 67.4314 981.71 67.4314 Q986.004 67.4314 990.014 66.3781 Q994.065 65.3249 998.035 63.2184 L998.035 70.267 Q994.025 71.9684 989.812 72.8596 Q985.599 73.7508 981.264 73.7508 Q970.408 73.7508 964.048 67.4314 Q957.728 61.1119 957.728 50.3365 Q957.728 39.1965 963.724 32.6746 Q969.76 26.1121 979.968 26.1121 Q989.123 26.1121 994.43 32.0264 Q999.777 37.9003 999.777 48.0275 M992.323 45.84 Q992.242 39.7232 988.88 36.0774 Q985.558 32.4315 980.049 32.4315 Q973.811 32.4315 970.043 35.9558 Q966.316 39.4801 965.749 45.8805 L992.323 45.84 Z" fill="#000000" fill-rule="evenodd" fill-opacity="1" /><path clip-path="url(#clip960)" d="M1049.72 45.1919 L1049.72 72.576 L1042.27 72.576 L1042.27 45.4349 Q1042.27 38.994 1039.76 35.7938 Q1037.25 32.5936 1032.22 32.5936 Q1026.19 32.5936 1022.7 36.4419 Q1019.22 40.2903 1019.22 46.9338 L1019.22 72.576 L1011.73 72.576 L1011.73 27.2059 L1019.22 27.2059 L1019.22 34.2544 Q1021.89 30.163 1025.5 28.1376 Q1029.15 26.1121 1033.89 26.1121 Q1041.7 26.1121 1045.71 30.9732 Q1049.72 35.7938 1049.72 45.1919 Z" fill="#000000" fill-rule="evenodd" fill-opacity="1" /><path clip-path="url(#clip960)" d="M1094.45 34.0924 L1094.45 9.54393 L1101.9 9.54393 L1101.9 72.576 L1094.45 72.576 L1094.45 65.7705 Q1092.1 69.8214 1088.49 71.8063 Q1084.93 73.7508 1079.9 73.7508 Q1071.68 73.7508 1066.5 67.1883 Q1061.35 60.6258 1061.35 49.9314 Q1061.35 39.2371 1066.5 32.6746 Q1071.68 26.1121 1079.9 26.1121 Q1084.93 26.1121 1088.49 28.0971 Q1092.1 30.0415 1094.45 34.0924 M1069.05 49.9314 Q1069.05 58.1548 1072.41 62.8538 Q1075.81 67.5124 1081.73 67.5124 Q1087.64 67.5124 1091.04 62.8538 Q1094.45 58.1548 1094.45 49.9314 Q1094.45 41.7081 1091.04 37.0496 Q1087.64 32.3505 1081.73 32.3505 Q1075.81 32.3505 1072.41 37.0496 Q1069.05 41.7081 1069.05 49.9314 Z" fill="#000000" fill-rule="evenodd" fill-opacity="1" /><path clip-path="url(#clip960)" d="M1117.25 27.2059 L1124.71 27.2059 L1124.71 72.576 L1117.25 72.576 L1117.25 27.2059 M1117.25 9.54393 L1124.71 9.54393 L1124.71 18.9825 L1117.25 18.9825 L1117.25 9.54393 Z" fill="#000000" fill-rule="evenodd" fill-opacity="1" /><path clip-path="url(#clip960)" d="M1178.02 45.1919 L1178.02 72.576 L1170.56 72.576 L1170.56 45.4349 Q1170.56 38.994 1168.05 35.7938 Q1165.54 32.5936 1160.52 32.5936 Q1154.48 32.5936 1151 36.4419 Q1147.51 40.2903 1147.51 46.9338 L1147.51 72.576 L1140.02 72.576 L1140.02 27.2059 L1147.51 27.2059 L1147.51 34.2544 Q1150.19 30.163 1153.79 28.1376 Q1157.44 26.1121 1162.18 26.1121 Q1170 26.1121 1174.01 30.9732 Q1178.02 35.7938 1178.02 45.1919 Z" fill="#000000" fill-rule="evenodd" fill-opacity="1" /><path clip-path="url(#clip960)" d="M1222.74 49.3643 Q1222.74 41.2625 1219.38 36.8065 Q1216.05 32.3505 1210.02 32.3505 Q1204.02 32.3505 1200.66 36.8065 Q1197.34 41.2625 1197.34 49.3643 Q1197.34 57.4256 1200.66 61.8816 Q1204.02 66.3376 1210.02 66.3376 Q1216.05 66.3376 1219.38 61.8816 Q1222.74 57.4256 1222.74 49.3643 M1230.19 66.9452 Q1230.19 78.5308 1225.05 84.1616 Q1219.9 89.8329 1209.29 89.8329 Q1205.36 89.8329 1201.88 89.2252 Q1198.39 88.6581 1195.11 87.4428 L1195.11 80.1917 Q1198.39 81.9741 1201.59 82.8248 Q1204.79 83.6755 1208.11 83.6755 Q1215.45 83.6755 1219.09 79.8271 Q1222.74 76.0193 1222.74 68.282 L1222.74 64.5957 Q1220.43 68.6061 1216.82 70.5911 Q1213.22 72.576 1208.2 72.576 Q1199.85 72.576 1194.75 66.2161 Q1189.64 59.8562 1189.64 49.3643 Q1189.64 38.832 1194.75 32.472 Q1199.85 26.1121 1208.2 26.1121 Q1213.22 26.1121 1216.82 28.0971 Q1220.43 30.082 1222.74 34.0924 L1222.74 27.2059 L1230.19 27.2059 L1230.19 66.9452 Z" fill="#000000" fill-rule="evenodd" fill-opacity="1" /><path clip-path="url(#clip960)" d="M1247.45 62.2867 L1256 62.2867 L1256 69.2543 L1249.35 82.2172 L1244.13 82.2172 L1247.45 69.2543 L1247.45 62.2867 Z" fill="#000000" fill-rule="evenodd" fill-opacity="1" /><path clip-path="url(#clip960)" d="M1343.9 16.7545 L1343.9 25.383 Q1339.77 21.5346 1335.07 19.6307 Q1330.41 17.7268 1325.15 17.7268 Q1314.78 17.7268 1309.27 24.0867 Q1303.76 30.4061 1303.76 42.3968 Q1303.76 54.3469 1309.27 60.7069 Q1314.78 67.0263 1325.15 67.0263 Q1330.41 67.0263 1335.07 65.1223 Q1339.77 63.2184 1343.9 59.3701 L1343.9 67.9175 Q1339.61 70.8341 1334.79 72.2924 Q1330.01 73.7508 1324.66 73.7508 Q1310.93 73.7508 1303.03 65.3654 Q1295.13 56.9395 1295.13 42.3968 Q1295.13 27.8135 1303.03 19.4281 Q1310.93 11.0023 1324.66 11.0023 Q1330.09 11.0023 1334.87 12.4606 Q1339.69 13.8784 1343.9 16.7545 Z" fill="#000000" fill-rule="evenodd" fill-opacity="1" /><path clip-path="url(#clip960)" d="M1373.8 32.4315 Q1367.8 32.4315 1364.32 37.1306 Q1360.83 41.7891 1360.83 49.9314 Q1360.83 58.0738 1364.28 62.7728 Q1367.76 67.4314 1373.8 67.4314 Q1379.75 67.4314 1383.24 62.7323 Q1386.72 58.0333 1386.72 49.9314 Q1386.72 41.8701 1383.24 37.1711 Q1379.75 32.4315 1373.8 32.4315 M1373.8 26.1121 Q1383.52 26.1121 1389.07 32.4315 Q1394.62 38.7509 1394.62 49.9314 Q1394.62 61.0714 1389.07 67.4314 Q1383.52 73.7508 1373.8 73.7508 Q1364.03 73.7508 1358.48 67.4314 Q1352.98 61.0714 1352.98 49.9314 Q1352.98 38.7509 1358.48 32.4315 Q1364.03 26.1121 1373.8 26.1121 Z" fill="#000000" fill-rule="evenodd" fill-opacity="1" /><path clip-path="url(#clip960)" d="M1444.69 45.1919 L1444.69 72.576 L1437.23 72.576 L1437.23 45.4349 Q1437.23 38.994 1434.72 35.7938 Q1432.21 32.5936 1427.19 32.5936 Q1421.15 32.5936 1417.67 36.4419 Q1414.18 40.2903 1414.18 46.9338 L1414.18 72.576 L1406.69 72.576 L1406.69 27.2059 L1414.18 27.2059 L1414.18 34.2544 Q1416.86 30.163 1420.46 28.1376 Q1424.11 26.1121 1428.85 26.1121 Q1436.67 26.1121 1440.68 30.9732 Q1444.69 35.7938 1444.69 45.1919 Z" fill="#000000" fill-rule="evenodd" fill-opacity="1" /><path clip-path="url(#clip960)" d="M1488.48 28.5427 L1488.48 35.5912 Q1485.32 33.9709 1481.92 33.1607 Q1478.51 32.3505 1474.87 32.3505 Q1469.32 32.3505 1466.52 34.0519 Q1463.77 35.7533 1463.77 39.156 Q1463.77 41.7486 1465.75 43.2475 Q1467.74 44.7058 1473.73 46.0426 L1476.28 46.6097 Q1484.22 48.3111 1487.55 51.4303 Q1490.91 54.509 1490.91 60.0587 Q1490.91 66.3781 1485.89 70.0644 Q1480.9 73.7508 1472.15 73.7508 Q1468.51 73.7508 1464.54 73.0216 Q1460.61 72.3329 1456.23 70.9151 L1456.23 63.2184 Q1460.36 65.3654 1464.38 66.4591 Q1468.39 67.5124 1472.31 67.5124 Q1477.58 67.5124 1480.42 65.73 Q1483.25 63.9071 1483.25 60.6258 Q1483.25 57.5877 1481.19 55.9673 Q1479.16 54.3469 1472.23 52.8481 L1469.64 52.2405 Q1462.71 50.7821 1459.64 47.7845 Q1456.56 44.7463 1456.56 39.4801 Q1456.56 33.0797 1461.09 29.5959 Q1465.63 26.1121 1473.98 26.1121 Q1478.11 26.1121 1481.75 26.7198 Q1485.4 27.3274 1488.48 28.5427 Z" fill="#000000" fill-rule="evenodd" fill-opacity="1" /><path clip-path="url(#clip960)" d="M1510.15 14.324 L1510.15 27.2059 L1525.5 27.2059 L1525.5 32.9987 L1510.15 32.9987 L1510.15 57.6282 Q1510.15 63.1779 1511.65 64.7578 Q1513.19 66.3376 1517.85 66.3376 L1525.5 66.3376 L1525.5 72.576 L1517.85 72.576 Q1509.22 72.576 1505.94 69.3758 Q1502.66 66.1351 1502.66 57.6282 L1502.66 32.9987 L1497.19 32.9987 L1497.19 27.2059 L1502.66 27.2059 L1502.66 14.324 L1510.15 14.324 Z" fill="#000000" fill-rule="evenodd" fill-opacity="1" /><path clip-path="url(#clip960)" d="M1555.93 49.7694 Q1546.89 49.7694 1543.41 51.8354 Q1539.92 53.9013 1539.92 58.8839 Q1539.92 62.8538 1542.52 65.2034 Q1545.15 67.5124 1549.65 67.5124 Q1555.84 67.5124 1559.57 63.1374 Q1563.34 58.7219 1563.34 51.4303 L1563.34 49.7694 L1555.93 49.7694 M1570.79 46.6907 L1570.79 72.576 L1563.34 72.576 L1563.34 65.6895 Q1560.79 69.8214 1556.98 71.8063 Q1553.17 73.7508 1547.66 73.7508 Q1540.69 73.7508 1536.56 69.8619 Q1532.47 65.9325 1532.47 59.3701 Q1532.47 51.7138 1537.57 47.825 Q1542.72 43.9361 1552.89 43.9361 L1563.34 43.9361 L1563.34 43.2069 Q1563.34 38.0623 1559.94 35.2672 Q1556.57 32.4315 1550.46 32.4315 Q1546.57 32.4315 1542.88 33.3632 Q1539.2 34.295 1535.79 36.1584 L1535.79 29.2718 Q1539.88 27.692 1543.73 26.9223 Q1547.58 26.1121 1551.23 26.1121 Q1561.07 26.1121 1565.93 31.2163 Q1570.79 36.3204 1570.79 46.6907 Z" fill="#000000" fill-rule="evenodd" fill-opacity="1" /><path clip-path="url(#clip960)" d="M1623.86 45.1919 L1623.86 72.576 L1616.41 72.576 L1616.41 45.4349 Q1616.41 38.994 1613.89 35.7938 Q1611.38 32.5936 1606.36 32.5936 Q1600.32 32.5936 1596.84 36.4419 Q1593.36 40.2903 1593.36 46.9338 L1593.36 72.576 L1585.86 72.576 L1585.86 27.2059 L1593.36 27.2059 L1593.36 34.2544 Q1596.03 30.163 1599.63 28.1376 Q1603.28 26.1121 1608.02 26.1121 Q1615.84 26.1121 1619.85 30.9732 Q1623.86 35.7938 1623.86 45.1919 Z" fill="#000000" fill-rule="evenodd" fill-opacity="1" /><path clip-path="url(#clip960)" d="M1646.1 14.324 L1646.1 27.2059 L1661.45 27.2059 L1661.45 32.9987 L1646.1 32.9987 L1646.1 57.6282 Q1646.1 63.1779 1647.6 64.7578 Q1649.14 66.3376 1653.8 66.3376 L1661.45 66.3376 L1661.45 72.576 L1653.8 72.576 Q1645.17 72.576 1641.89 69.3758 Q1638.6 66.1351 1638.6 57.6282 L1638.6 32.9987 L1633.14 32.9987 L1633.14 27.2059 L1638.6 27.2059 L1638.6 14.324 L1646.1 14.324 Z" fill="#000000" fill-rule="evenodd" fill-opacity="1" /><path clip-path="url(#clip960)" d="M1697.63 9.54393 L1705.08 9.54393 L1705.08 72.576 L1697.63 72.576 L1697.63 9.54393 Z" fill="#000000" fill-rule="evenodd" fill-opacity="1" /><path clip-path="url(#clip960)" d="M1738.26 32.4315 Q1732.26 32.4315 1728.78 37.1306 Q1725.29 41.7891 1725.29 49.9314 Q1725.29 58.0738 1728.74 62.7728 Q1732.22 67.4314 1738.26 67.4314 Q1744.21 67.4314 1747.7 62.7323 Q1751.18 58.0333 1751.18 49.9314 Q1751.18 41.8701 1747.7 37.1711 Q1744.21 32.4315 1738.26 32.4315 M1738.26 26.1121 Q1747.98 26.1121 1753.53 32.4315 Q1759.08 38.7509 1759.08 49.9314 Q1759.08 61.0714 1753.53 67.4314 Q1747.98 73.7508 1738.26 73.7508 Q1728.49 73.7508 1722.94 67.4314 Q1717.44 61.0714 1717.44 49.9314 Q1717.44 38.7509 1722.94 32.4315 Q1728.49 26.1121 1738.26 26.1121 Z" fill="#000000" fill-rule="evenodd" fill-opacity="1" /><path clip-path="url(#clip960)" d="M1792.05 49.7694 Q1783.02 49.7694 1779.54 51.8354 Q1776.05 53.9013 1776.05 58.8839 Q1776.05 62.8538 1778.64 65.2034 Q1781.28 67.5124 1785.77 67.5124 Q1791.97 67.5124 1795.7 63.1374 Q1799.47 58.7219 1799.47 51.4303 L1799.47 49.7694 L1792.05 49.7694 M1806.92 46.6907 L1806.92 72.576 L1799.47 72.576 L1799.47 65.6895 Q1796.91 69.8214 1793.11 71.8063 Q1789.3 73.7508 1783.79 73.7508 Q1776.82 73.7508 1772.69 69.8619 Q1768.6 65.9325 1768.6 59.3701 Q1768.6 51.7138 1773.7 47.825 Q1778.85 43.9361 1789.01 43.9361 L1799.47 43.9361 L1799.47 43.2069 Q1799.47 38.0623 1796.06 35.2672 Q1792.7 32.4315 1786.58 32.4315 Q1782.7 32.4315 1779.01 33.3632 Q1775.32 34.295 1771.92 36.1584 L1771.92 29.2718 Q1776.01 27.692 1779.86 26.9223 Q1783.71 26.1121 1787.35 26.1121 Q1797.2 26.1121 1802.06 31.2163 Q1806.92 36.3204 1806.92 46.6907 Z" fill="#000000" fill-rule="evenodd" fill-opacity="1" /><path clip-path="url(#clip960)" d="M1852.13 34.0924 L1852.13 9.54393 L1859.58 9.54393 L1859.58 72.576 L1852.13 72.576 L1852.13 65.7705 Q1849.78 69.8214 1846.17 71.8063 Q1842.61 73.7508 1837.58 73.7508 Q1829.36 73.7508 1824.18 67.1883 Q1819.03 60.6258 1819.03 49.9314 Q1819.03 39.2371 1824.18 32.6746 Q1829.36 26.1121 1837.58 26.1121 Q1842.61 26.1121 1846.17 28.0971 Q1849.78 30.0415 1852.13 34.0924 M1826.73 49.9314 Q1826.73 58.1548 1830.09 62.8538 Q1833.49 67.5124 1839.41 67.5124 Q1845.32 67.5124 1848.72 62.8538 Q1852.13 58.1548 1852.13 49.9314 Q1852.13 41.7081 1848.72 37.0496 Q1845.32 32.3505 1839.41 32.3505 Q1833.49 32.3505 1830.09 37.0496 Q1826.73 41.7081 1826.73 49.9314 Z" fill="#000000" fill-rule="evenodd" fill-opacity="1" /><polyline clip-path="url(#clip962)" style="stroke:#000000; stroke-linecap:butt; stroke-linejoin:round; stroke-width:8; stroke-opacity:1; fill:none" points="
  211.556,162.047 212.717,162.053 213.877,162.072 215.038,162.104 216.199,162.148 217.359,162.205 218.52,162.274 219.681,162.355 220.842,162.449 222.002,162.555 
  223.163,162.674 224.324,162.805 225.484,162.948 226.645,163.104 227.806,163.271 228.967,163.451 230.127,163.643 231.288,163.847 232.449,164.062 233.609,164.29 
  234.77,164.53 235.931,164.782 237.092,165.046 238.252,165.321 239.413,165.608 240.574,165.907 241.734,166.218 242.895,166.54 244.056,166.874 245.217,167.22 
  246.377,167.577 247.538,167.946 248.699,168.326 249.859,168.717 251.02,169.121 252.181,169.535 253.342,169.961 254.502,170.398 255.663,170.846 256.824,171.306 
  257.984,171.776 259.145,172.258 260.306,172.751 261.467,173.255 262.627,173.77 263.788,174.296 264.949,174.833 266.109,175.381 267.27,175.94 268.431,176.509 
  269.592,177.09 270.752,177.681 271.913,178.283 273.074,178.895 274.234,179.519 275.395,180.153 276.556,180.797 277.716,181.452 278.877,182.117 280.038,182.793 
  281.199,183.479 282.359,184.176 283.52,184.883 284.681,185.6 285.841,186.328 287.002,187.066 288.163,187.814 289.324,188.572 290.484,189.34 291.645,190.119 
  292.806,190.907 293.966,191.705 295.127,192.514 296.288,193.332 297.449,194.16 298.609,194.998 299.77,195.846 300.931,196.703 302.091,197.571 303.252,198.448 
  304.413,199.334 305.574,200.23 306.734,201.136 307.895,202.052 309.056,202.976 310.216,203.911 311.377,204.854 312.538,205.808 313.699,206.77 314.859,207.742 
  316.02,208.723 317.181,209.713 318.341,210.713 319.502,211.721 320.663,212.739 321.824,213.766 322.984,214.802 324.145,215.847 325.306,216.9 326.466,217.963 
  327.627,219.035 328.788,220.115 329.949,221.205 331.109,222.303 332.27,223.41 333.431,224.525 334.591,225.649 335.752,226.782 336.913,227.923 338.074,229.073 
  339.234,230.232 340.395,231.399 341.556,232.574 342.716,233.758 343.877,234.95 345.038,236.15 346.198,237.359 347.359,238.576 348.52,239.801 349.681,241.034 
  350.841,242.276 352.002,243.525 353.163,244.783 354.323,246.048 355.484,247.322 356.645,248.603 357.806,249.893 358.966,251.19 360.127,252.495 361.288,253.808 
  362.448,255.128 363.609,256.456 364.77,257.792 365.931,259.136 367.091,260.487 368.252,261.846 369.413,263.212 370.573,264.586 371.734,265.967 372.895,267.355 
  374.056,268.751 375.216,270.154 376.377,271.565 377.538,272.983 378.698,274.407 379.859,275.84 381.02,277.279 382.181,278.725 383.341,280.179 384.502,281.639 
  385.663,283.106 386.823,284.581 387.984,286.062 389.145,287.55 390.306,289.045 391.466,290.547 392.627,292.055 393.788,293.57 394.948,295.092 396.109,296.621 
  397.27,298.156 398.431,299.697 399.591,301.245 400.752,302.8 401.913,304.361 403.073,305.929 404.234,307.502 405.395,309.083 406.556,310.669 407.716,312.262 
  408.877,313.861 410.038,315.466 411.198,317.077 412.359,318.694 413.52,320.318 414.68,321.947 415.841,323.583 417.002,325.224 418.163,326.871 419.323,328.524 
  420.484,330.183 421.645,331.848 422.805,333.519 423.966,335.195 425.127,336.877 426.288,338.564 427.448,340.258 428.609,341.956 429.77,343.661 430.93,345.37 
  432.091,347.086 433.252,348.806 434.413,350.532 435.573,352.264 436.734,354 437.895,355.742 439.055,357.489 440.216,359.241 441.377,360.999 442.538,362.761 
  
  "/>
<polyline clip-path="url(#clip962)" style="stroke:#000000; stroke-linecap:butt; stroke-linejoin:round; stroke-width:8; stroke-opacity:1; fill:none" points="
  442.538,362.761 443.698,364.529 444.859,366.302 446.02,368.079 447.18,369.862 448.341,371.65 449.502,373.442 450.663,375.239 451.823,377.042 452.984,378.849 
  454.145,380.661 455.305,382.477 456.466,384.299 457.627,386.125 458.788,387.956 459.948,389.792 461.109,391.632 462.27,393.477 463.43,395.326 464.591,397.18 
  465.752,399.038 466.913,400.901 468.073,402.769 469.234,404.641 470.395,406.517 471.555,408.398 472.716,410.283 473.877,412.172 475.038,414.066 476.198,415.963 
  477.359,417.866 478.52,419.772 479.68,421.682 480.841,423.597 482.002,425.516 483.162,427.439 484.323,429.366 485.484,431.297 486.645,433.232 487.805,435.171 
  488.966,437.114 490.127,439.06 491.287,441.011 492.448,442.966 493.609,444.924 494.77,446.886 495.93,448.852 497.091,450.822 498.252,452.796 499.412,454.773 
  500.573,456.754 501.734,458.738 502.895,460.726 504.055,462.718 505.216,464.713 506.377,466.712 507.537,468.714 508.698,470.72 509.859,472.729 511.02,474.742 
  512.18,476.758 513.341,478.777 514.502,480.799 515.662,482.825 516.823,484.855 517.984,486.887 519.145,488.923 520.305,490.961 521.466,493.003 522.627,495.048 
  523.787,497.096 524.948,499.148 526.109,501.202 527.27,503.259 528.43,505.319 529.591,507.382 530.752,509.448 531.912,511.517 533.073,513.589 534.234,515.664 
  535.395,517.741 536.555,519.822 537.716,521.905 538.877,523.99 540.037,526.079 541.198,528.17 542.359,530.263 543.52,532.36 544.68,534.459 545.841,536.56 
  547.002,538.664 548.162,540.77 549.323,542.879 550.484,544.991 551.644,547.104 552.805,549.22 553.966,551.339 555.127,553.46 556.287,555.583 557.448,557.708 
  558.609,559.836 559.769,561.965 560.93,564.097 562.091,566.231 563.252,568.368 564.412,570.506 565.573,572.646 566.734,574.789 567.894,576.933 569.055,579.079 
  570.216,581.228 571.377,583.378 572.537,585.53 573.698,587.684 574.859,589.84 576.019,591.997 577.18,594.157 578.341,596.318 579.502,598.48 580.662,600.645 
  581.823,602.811 582.984,604.979 584.144,607.148 585.305,609.319 586.466,611.492 587.627,613.666 588.787,615.841 589.948,618.018 591.109,620.197 592.269,622.377 
  593.43,624.558 594.591,626.74 595.752,628.924 596.912,631.109 598.073,633.296 599.234,635.483 600.394,637.672 601.555,639.862 602.716,642.053 603.877,644.245 
  605.037,646.439 606.198,648.633 607.359,650.828 608.519,653.025 609.68,655.222 610.841,657.42 612.002,659.62 613.162,661.82 614.323,664.021 615.484,666.223 
  616.644,668.425 617.805,670.629 618.966,672.833 620.126,675.038 621.287,677.243 622.448,679.449 623.609,681.656 624.769,683.863 625.93,686.071 627.091,688.28 
  628.251,690.489 629.412,692.698 630.573,694.908 631.734,697.119 632.894,699.33 634.055,701.541 635.216,703.752 636.376,705.964 637.537,708.176 638.698,710.388 
  639.859,712.601 641.019,714.814 642.18,717.027 643.341,719.24 644.501,721.453 645.662,723.666 646.823,725.879 647.984,728.093 649.144,730.306 650.305,732.519 
  651.466,734.733 652.626,736.946 653.787,739.159 654.948,741.372 656.109,743.585 657.269,745.797 658.43,748.009 659.591,750.221 660.751,752.433 661.912,754.645 
  663.073,756.856 664.234,759.066 665.394,761.277 666.555,763.486 667.716,765.696 668.876,767.905 670.037,770.113 671.198,772.321 672.359,774.528 673.519,776.735 
  
  "/>
<polyline clip-path="url(#clip962)" style="stroke:#000000; stroke-linecap:butt; stroke-linejoin:round; stroke-width:8; stroke-opacity:1; fill:none" points="
  673.519,776.735 674.68,778.941 675.841,781.146 677.001,783.351 678.162,785.555 679.323,787.758 680.484,789.961 681.644,792.163 682.805,794.364 683.966,796.564 
  685.126,798.764 686.287,800.962 687.448,803.16 688.608,805.357 689.769,807.553 690.93,809.748 692.091,811.942 693.251,814.136 694.412,816.328 695.573,818.519 
  696.733,820.71 697.894,822.899 699.055,825.087 700.216,827.275 701.376,829.461 702.537,831.646 703.698,833.83 704.858,836.013 706.019,838.194 707.18,840.375 
  708.341,842.554 709.501,844.732 710.662,846.909 711.823,849.085 712.983,851.259 714.144,853.432 715.305,855.604 716.466,857.775 717.626,859.944 718.787,862.112 
  719.948,864.278 721.108,866.443 722.269,868.607 723.43,870.769 724.591,872.93 725.751,875.089 726.912,877.247 728.073,879.403 729.233,881.558 730.394,883.711 
  731.555,885.862 732.716,888.012 733.876,890.161 735.037,892.307 736.198,894.453 737.358,896.596 738.519,898.738 739.68,900.878 740.841,903.016 742.001,905.153 
  743.162,907.288 744.323,909.421 745.483,911.552 746.644,913.681 747.805,915.809 748.966,917.935 750.126,920.059 751.287,922.181 752.448,924.301 753.608,926.419 
  754.769,928.535 755.93,930.649 757.09,932.761 758.251,934.872 759.412,936.98 760.573,939.086 761.733,941.19 762.894,943.292 764.055,945.392 765.215,947.49 
  766.376,949.585 767.537,951.679 768.698,953.77 769.858,955.859 771.019,957.946 772.18,960.03 773.34,962.113 774.501,964.193 775.662,966.271 776.823,968.346 
  777.983,970.419 779.144,972.49 780.305,974.558 781.465,976.624 782.626,978.688 783.787,980.749 784.948,982.808 786.108,984.864 787.269,986.918 788.43,988.969 
  789.59,991.018 790.751,993.064 791.912,995.108 793.073,997.149 794.233,999.187 795.394,1001.22 796.555,1003.26 797.715,1005.29 798.876,1007.31 800.037,1009.34 
  801.198,1011.36 802.358,1013.38 803.519,1015.4 804.68,1017.41 805.84,1019.42 807.001,1021.43 808.162,1023.44 809.323,1025.44 810.483,1027.44 811.644,1029.44 
  812.805,1031.43 813.965,1033.42 815.126,1035.41 816.287,1037.4 817.448,1039.38 818.608,1041.36 819.769,1043.34 820.93,1045.31 822.09,1047.28 823.251,1049.25 
  824.412,1051.21 825.572,1053.17 826.733,1055.13 827.894,1057.09 829.055,1059.04 830.215,1060.99 831.376,1062.93 832.537,1064.87 833.697,1066.81 834.858,1068.75 
  836.019,1070.68 837.18,1072.61 838.34,1074.53 839.501,1076.45 840.662,1078.37 841.822,1080.29 842.983,1082.2 844.144,1084.11 845.305,1086.01 846.465,1087.92 
  847.626,1089.81 848.787,1091.71 849.947,1093.6 851.108,1095.49 852.269,1097.37 853.43,1099.25 854.59,1101.13 855.751,1103 856.912,1104.87 858.072,1106.74 
  859.233,1108.6 860.394,1110.46 861.555,1112.31 862.715,1114.17 863.876,1116.01 865.037,1117.86 866.197,1119.7 867.358,1121.53 868.519,1123.36 869.68,1125.19 
  870.84,1127.02 872.001,1128.84 873.162,1130.65 874.322,1132.47 875.483,1134.28 876.644,1136.08 877.805,1137.88 878.965,1139.68 880.126,1141.47 881.287,1143.26 
  882.447,1145.05 883.608,1146.83 884.769,1148.6 885.93,1150.38 887.09,1152.15 888.251,1153.91 889.412,1155.67 890.572,1157.43 891.733,1159.18 892.894,1160.92 
  894.054,1162.67 895.215,1164.41 896.376,1166.14 897.537,1167.87 898.697,1169.6 899.858,1171.32 901.019,1173.04 902.179,1174.75 903.34,1176.46 904.501,1178.16 
  
  "/>
<polyline clip-path="url(#clip962)" style="stroke:#000000; stroke-linecap:butt; stroke-linejoin:round; stroke-width:8; stroke-opacity:1; fill:none" points="
  904.501,1178.16 905.662,1179.86 906.822,1181.56 907.983,1183.25 909.144,1184.94 910.304,1186.62 911.465,1188.3 912.626,1189.97 913.787,1191.64 914.947,1193.3 
  916.108,1194.96 917.269,1196.62 918.429,1198.27 919.59,1199.91 920.751,1201.55 921.912,1203.19 923.072,1204.82 924.233,1206.45 925.394,1208.07 926.554,1209.69 
  927.715,1211.3 928.876,1212.91 930.037,1214.52 931.197,1216.12 932.358,1217.71 933.519,1219.3 934.679,1220.89 935.84,1222.47 937.001,1224.05 938.162,1225.62 
  939.322,1227.19 940.483,1228.75 941.644,1230.31 942.804,1231.86 943.965,1233.41 945.126,1234.95 946.287,1236.49 947.447,1238.02 948.608,1239.55 949.769,1241.08 
  950.929,1242.6 952.09,1244.11 953.251,1245.62 954.412,1247.12 955.572,1248.62 956.733,1250.12 957.894,1251.61 959.054,1253.1 960.215,1254.58 961.376,1256.05 
  962.536,1257.52 963.697,1258.99 964.858,1260.45 966.019,1261.91 967.179,1263.36 968.34,1264.8 969.501,1266.24 970.661,1267.68 971.822,1269.11 972.983,1270.54 
  974.144,1271.96 975.304,1273.38 976.465,1274.79 977.626,1276.19 978.786,1277.59 979.947,1278.99 981.108,1280.38 982.269,1281.77 983.429,1283.15 984.59,1284.52 
  985.751,1285.9 986.911,1287.26 988.072,1288.62 989.233,1289.98 990.394,1291.33 991.554,1292.67 992.715,1294.01 993.876,1295.35 995.036,1296.68 996.197,1298 
  997.358,1299.32 998.519,1300.63 999.679,1301.94 1000.84,1303.25 1002,1304.55 1003.16,1305.84 1004.32,1307.13 1005.48,1308.41 1006.64,1309.69 1007.8,1310.96 
  1008.96,1312.23 1010.13,1313.49 1011.29,1314.74 1012.45,1315.99 1013.61,1317.24 1014.77,1318.48 1015.93,1319.72 1017.09,1320.94 1018.25,1322.17 1019.41,1323.39 
  1020.57,1324.6 1021.73,1325.81 1022.89,1327.01 1024.05,1328.21 1025.21,1329.4 1026.38,1330.59 1027.54,1331.77 1028.7,1332.94 1029.86,1334.11 1031.02,1335.28 
  1032.18,1336.44 1033.34,1337.59 1034.5,1338.74 1035.66,1339.88 1036.82,1341.02 1037.98,1342.15 1039.14,1343.28 1040.3,1344.4 1041.46,1345.51 1042.63,1346.62 
  1043.79,1347.73 1044.95,1348.82 1046.11,1349.92 1047.27,1351 1048.43,1352.09 1049.59,1353.16 1050.75,1354.23 1051.91,1355.3 1053.07,1356.36 1054.23,1357.41 
  1055.39,1358.46 1056.55,1359.5 1057.71,1360.54 1058.88,1361.57 1060.04,1362.59 1061.2,1363.61 1062.36,1364.62 1063.52,1365.63 1064.68,1366.63 1065.84,1367.63 
  1067,1368.62 1068.16,1369.6 1069.32,1370.58 1070.48,1371.56 1071.64,1372.52 1072.8,1373.48 1073.96,1374.44 1075.13,1375.39 1076.29,1376.33 1077.45,1377.27 
  1078.61,1378.2 1079.77,1379.13 1080.93,1380.05 1082.09,1380.97 1083.25,1381.88 1084.41,1382.78 1085.57,1383.68 1086.73,1384.57 1087.89,1385.45 1089.05,1386.33 
  1090.21,1387.2 1091.38,1388.07 1092.54,1388.93 1093.7,1389.79 1094.86,1390.64 1096.02,1391.48 1097.18,1392.32 1098.34,1393.15 1099.5,1393.97 1100.66,1394.79 
  1101.82,1395.61 1102.98,1396.41 1104.14,1397.21 1105.3,1398.01 1106.46,1398.8 1107.63,1399.58 1108.79,1400.36 1109.95,1401.13 1111.11,1401.89 1112.27,1402.65 
  1113.43,1403.4 1114.59,1404.15 1115.75,1404.89 1116.91,1405.62 1118.07,1406.35 1119.23,1407.07 1120.39,1407.79 1121.55,1408.49 1122.71,1409.2 1123.88,1409.89 
  1125.04,1410.58 1126.2,1411.27 1127.36,1411.94 1128.52,1412.62 1129.68,1413.28 1130.84,1413.94 1132,1414.59 1133.16,1415.24 1134.32,1415.88 1135.48,1416.51 
  
  "/>
<polyline clip-path="url(#clip962)" style="stroke:#000000; stroke-linecap:butt; stroke-linejoin:round; stroke-width:8; stroke-opacity:1; fill:none" points="
  1135.48,1416.51 1136.64,1417.14 1137.8,1417.76 1138.96,1418.37 1140.13,1418.98 1141.29,1419.58 1142.45,1420.18 1143.61,1420.77 1144.77,1421.35 1145.93,1421.93 
  1147.09,1422.5 1148.25,1423.06 1149.41,1423.62 1150.57,1424.17 1151.73,1424.72 1152.89,1425.26 1154.05,1425.79 1155.21,1426.31 1156.38,1426.83 1157.54,1427.35 
  1158.7,1427.85 1159.86,1428.35 1161.02,1428.85 1162.18,1429.34 1163.34,1429.82 1164.5,1430.29 1165.66,1430.76 1166.82,1431.22 1167.98,1431.68 1169.14,1432.13 
  1170.3,1432.57 1171.46,1433.01 1172.63,1433.44 1173.79,1433.87 1174.95,1434.28 1176.11,1434.7 1177.27,1435.1 1178.43,1435.5 1179.59,1435.89 1180.75,1436.28 
  1181.91,1436.66 1183.07,1437.03 1184.23,1437.4 1185.39,1437.76 1186.55,1438.12 1187.71,1438.46 1188.88,1438.81 1190.04,1439.14 1191.2,1439.47 1192.36,1439.8 
  1193.52,1440.11 1194.68,1440.42 1195.84,1440.73 1197,1441.02 1198.16,1441.32 1199.32,1441.6 1200.48,1441.88 1201.64,1442.15 1202.8,1442.42 1203.96,1442.68 
  1205.13,1442.93 1206.29,1443.18 1207.45,1443.42 1208.61,1443.65 1209.77,1443.88 1210.93,1444.1 1212.09,1444.32 1213.25,1444.53 1214.41,1444.73 1215.57,1444.93 
  1216.73,1445.12 1217.89,1445.3 1219.05,1445.48 1220.21,1445.65 1221.38,1445.81 1222.54,1445.97 1223.7,1446.12 1224.86,1446.27 1226.02,1446.41 1227.18,1446.54 
  1228.34,1446.67 1229.5,1446.79 1230.66,1446.9 1231.82,1447.01 1232.98,1447.11 1234.14,1447.21 1235.3,1447.3 1236.46,1447.38 1237.63,1447.45 1238.79,1447.52 
  1239.95,1447.59 1241.11,1447.65 1242.27,1447.7 1243.43,1447.74 1244.59,1447.78 1245.75,1447.81 1246.91,1447.84 1248.07,1447.85 1249.23,1447.87 1250.39,1447.87 
  1251.55,1447.87 1252.71,1447.87 1253.88,1447.85 1255.04,1447.84 1256.2,1447.81 1257.36,1447.78 1258.52,1447.74 1259.68,1447.7 1260.84,1447.65 1262,1447.59 
  1263.16,1447.52 1264.32,1447.45 1265.48,1447.38 1266.64,1447.3 1267.8,1447.21 1268.96,1447.11 1270.13,1447.01 1271.29,1446.9 1272.45,1446.79 1273.61,1446.67 
  1274.77,1446.54 1275.93,1446.41 1277.09,1446.27 1278.25,1446.12 1279.41,1445.97 1280.57,1445.81 1281.73,1445.65 1282.89,1445.48 1284.05,1445.3 1285.21,1445.12 
  1286.38,1444.93 1287.54,1444.73 1288.7,1444.53 1289.86,1444.32 1291.02,1444.1 1292.18,1443.88 1293.34,1443.65 1294.5,1443.42 1295.66,1443.18 1296.82,1442.93 
  1297.98,1442.68 1299.14,1442.42 1300.3,1442.15 1301.46,1441.88 1302.63,1441.6 1303.79,1441.32 1304.95,1441.02 1306.11,1440.73 1307.27,1440.42 1308.43,1440.11 
  1309.59,1439.8 1310.75,1439.47 1311.91,1439.14 1313.07,1438.81 1314.23,1438.46 1315.39,1438.12 1316.55,1437.76 1317.71,1437.4 1318.88,1437.03 1320.04,1436.66 
  1321.2,1436.28 1322.36,1435.89 1323.52,1435.5 1324.68,1435.1 1325.84,1434.7 1327,1434.28 1328.16,1433.87 1329.32,1433.44 1330.48,1433.01 1331.64,1432.57 
  1332.8,1432.13 1333.96,1431.68 1335.12,1431.22 1336.29,1430.76 1337.45,1430.29 1338.61,1429.82 1339.77,1429.34 1340.93,1428.85 1342.09,1428.35 1343.25,1427.85 
  1344.41,1427.35 1345.57,1426.83 1346.73,1426.31 1347.89,1425.79 1349.05,1425.26 1350.21,1424.72 1351.37,1424.17 1352.54,1423.62 1353.7,1423.06 1354.86,1422.5 
  1356.02,1421.93 1357.18,1421.35 1358.34,1420.77 1359.5,1420.18 1360.66,1419.58 1361.82,1418.98 1362.98,1418.37 1364.14,1417.76 1365.3,1417.14 1366.46,1416.51 
  
  "/>
<polyline clip-path="url(#clip962)" style="stroke:#000000; stroke-linecap:butt; stroke-linejoin:round; stroke-width:8; stroke-opacity:1; fill:none" points="
  1366.46,1416.51 1367.62,1415.88 1368.79,1415.24 1369.95,1414.59 1371.11,1413.94 1372.27,1413.28 1373.43,1412.62 1374.59,1411.94 1375.75,1411.27 1376.91,1410.58 
  1378.07,1409.89 1379.23,1409.2 1380.39,1408.49 1381.55,1407.79 1382.71,1407.07 1383.87,1406.35 1385.04,1405.62 1386.2,1404.89 1387.36,1404.15 1388.52,1403.4 
  1389.68,1402.65 1390.84,1401.89 1392,1401.13 1393.16,1400.36 1394.32,1399.58 1395.48,1398.8 1396.64,1398.01 1397.8,1397.21 1398.96,1396.41 1400.12,1395.61 
  1401.29,1394.79 1402.45,1393.97 1403.61,1393.15 1404.77,1392.32 1405.93,1391.48 1407.09,1390.64 1408.25,1389.79 1409.41,1388.93 1410.57,1388.07 1411.73,1387.2 
  1412.89,1386.33 1414.05,1385.45 1415.21,1384.57 1416.37,1383.68 1417.54,1382.78 1418.7,1381.88 1419.86,1380.97 1421.02,1380.05 1422.18,1379.13 1423.34,1378.2 
  1424.5,1377.27 1425.66,1376.33 1426.82,1375.39 1427.98,1374.44 1429.14,1373.48 1430.3,1372.52 1431.46,1371.56 1432.62,1370.58 1433.79,1369.6 1434.95,1368.62 
  1436.11,1367.63 1437.27,1366.63 1438.43,1365.63 1439.59,1364.62 1440.75,1363.61 1441.91,1362.59 1443.07,1361.57 1444.23,1360.54 1445.39,1359.5 1446.55,1358.46 
  1447.71,1357.41 1448.87,1356.36 1450.04,1355.3 1451.2,1354.23 1452.36,1353.16 1453.52,1352.09 1454.68,1351 1455.84,1349.92 1457,1348.82 1458.16,1347.73 
  1459.32,1346.62 1460.48,1345.51 1461.64,1344.4 1462.8,1343.28 1463.96,1342.15 1465.12,1341.02 1466.29,1339.88 1467.45,1338.74 1468.61,1337.59 1469.77,1336.44 
  1470.93,1335.28 1472.09,1334.11 1473.25,1332.94 1474.41,1331.77 1475.57,1330.59 1476.73,1329.4 1477.89,1328.21 1479.05,1327.01 1480.21,1325.81 1481.37,1324.6 
  1482.54,1323.39 1483.7,1322.17 1484.86,1320.94 1486.02,1319.72 1487.18,1318.48 1488.34,1317.24 1489.5,1315.99 1490.66,1314.74 1491.82,1313.49 1492.98,1312.23 
  1494.14,1310.96 1495.3,1309.69 1496.46,1308.41 1497.62,1307.13 1498.79,1305.84 1499.95,1304.55 1501.11,1303.25 1502.27,1301.94 1503.43,1300.63 1504.59,1299.32 
  1505.75,1298 1506.91,1296.68 1508.07,1295.35 1509.23,1294.01 1510.39,1292.67 1511.55,1291.33 1512.71,1289.98 1513.87,1288.62 1515.04,1287.26 1516.2,1285.9 
  1517.36,1284.52 1518.52,1283.15 1519.68,1281.77 1520.84,1280.38 1522,1278.99 1523.16,1277.59 1524.32,1276.19 1525.48,1274.79 1526.64,1273.38 1527.8,1271.96 
  1528.96,1270.54 1530.12,1269.11 1531.29,1267.68 1532.45,1266.24 1533.61,1264.8 1534.77,1263.36 1535.93,1261.91 1537.09,1260.45 1538.25,1258.99 1539.41,1257.52 
  1540.57,1256.05 1541.73,1254.58 1542.89,1253.1 1544.05,1251.61 1545.21,1250.12 1546.37,1248.62 1547.54,1247.12 1548.7,1245.62 1549.86,1244.11 1551.02,1242.6 
  1552.18,1241.08 1553.34,1239.55 1554.5,1238.02 1555.66,1236.49 1556.82,1234.95 1557.98,1233.41 1559.14,1231.86 1560.3,1230.31 1561.46,1228.75 1562.62,1227.19 
  1563.79,1225.62 1564.95,1224.05 1566.11,1222.47 1567.27,1220.89 1568.43,1219.3 1569.59,1217.71 1570.75,1216.12 1571.91,1214.52 1573.07,1212.91 1574.23,1211.3 
  1575.39,1209.69 1576.55,1208.07 1577.71,1206.45 1578.87,1204.82 1580.04,1203.19 1581.2,1201.55 1582.36,1199.91 1583.52,1198.27 1584.68,1196.62 1585.84,1194.96 
  1587,1193.3 1588.16,1191.64 1589.32,1189.97 1590.48,1188.3 1591.64,1186.62 1592.8,1184.94 1593.96,1183.25 1595.12,1181.56 1596.29,1179.86 1597.45,1178.16 
  
  "/>
<polyline clip-path="url(#clip962)" style="stroke:#000000; stroke-linecap:butt; stroke-linejoin:round; stroke-width:8; stroke-opacity:1; fill:none" points="
  1597.45,1178.16 1598.61,1176.46 1599.77,1174.75 1600.93,1173.04 1602.09,1171.32 1603.25,1169.6 1604.41,1167.87 1605.57,1166.14 1606.73,1164.41 1607.89,1162.67 
  1609.05,1160.92 1610.21,1159.18 1611.37,1157.43 1612.54,1155.67 1613.7,1153.91 1614.86,1152.15 1616.02,1150.38 1617.18,1148.6 1618.34,1146.83 1619.5,1145.05 
  1620.66,1143.26 1621.82,1141.47 1622.98,1139.68 1624.14,1137.88 1625.3,1136.08 1626.46,1134.28 1627.62,1132.47 1628.79,1130.65 1629.95,1128.84 1631.11,1127.02 
  1632.27,1125.19 1633.43,1123.36 1634.59,1121.53 1635.75,1119.7 1636.91,1117.86 1638.07,1116.01 1639.23,1114.17 1640.39,1112.31 1641.55,1110.46 1642.71,1108.6 
  1643.87,1106.74 1645.04,1104.87 1646.2,1103 1647.36,1101.13 1648.52,1099.25 1649.68,1097.37 1650.84,1095.49 1652,1093.6 1653.16,1091.71 1654.32,1089.81 
  1655.48,1087.92 1656.64,1086.01 1657.8,1084.11 1658.96,1082.2 1660.12,1080.29 1661.29,1078.37 1662.45,1076.45 1663.61,1074.53 1664.77,1072.61 1665.93,1070.68 
  1667.09,1068.75 1668.25,1066.81 1669.41,1064.87 1670.57,1062.93 1671.73,1060.99 1672.89,1059.04 1674.05,1057.09 1675.21,1055.13 1676.37,1053.17 1677.53,1051.21 
  1678.7,1049.25 1679.86,1047.28 1681.02,1045.31 1682.18,1043.34 1683.34,1041.36 1684.5,1039.38 1685.66,1037.4 1686.82,1035.41 1687.98,1033.42 1689.14,1031.43 
  1690.3,1029.44 1691.46,1027.44 1692.62,1025.44 1693.78,1023.44 1694.95,1021.43 1696.11,1019.42 1697.27,1017.41 1698.43,1015.4 1699.59,1013.38 1700.75,1011.36 
  1701.91,1009.34 1703.07,1007.31 1704.23,1005.29 1705.39,1003.26 1706.55,1001.22 1707.71,999.187 1708.87,997.149 1710.03,995.108 1711.2,993.064 1712.36,991.018 
  1713.52,988.969 1714.68,986.918 1715.84,984.864 1717,982.808 1718.16,980.749 1719.32,978.688 1720.48,976.624 1721.64,974.558 1722.8,972.49 1723.96,970.419 
  1725.12,968.346 1726.28,966.271 1727.45,964.193 1728.61,962.113 1729.77,960.03 1730.93,957.946 1732.09,955.859 1733.25,953.77 1734.41,951.679 1735.57,949.585 
  1736.73,947.49 1737.89,945.392 1739.05,943.292 1740.21,941.19 1741.37,939.086 1742.53,936.98 1743.7,934.872 1744.86,932.761 1746.02,930.649 1747.18,928.535 
  1748.34,926.419 1749.5,924.301 1750.66,922.181 1751.82,920.059 1752.98,917.935 1754.14,915.809 1755.3,913.681 1756.46,911.552 1757.62,909.421 1758.78,907.288 
  1759.95,905.153 1761.11,903.016 1762.27,900.878 1763.43,898.738 1764.59,896.596 1765.75,894.453 1766.91,892.307 1768.07,890.161 1769.23,888.012 1770.39,885.862 
  1771.55,883.711 1772.71,881.558 1773.87,879.403 1775.03,877.247 1776.2,875.089 1777.36,872.93 1778.52,870.769 1779.68,868.607 1780.84,866.443 1782,864.278 
  1783.16,862.112 1784.32,859.944 1785.48,857.775 1786.64,855.604 1787.8,853.432 1788.96,851.259 1790.12,849.085 1791.28,846.909 1792.45,844.732 1793.61,842.554 
  1794.77,840.375 1795.93,838.194 1797.09,836.013 1798.25,833.83 1799.41,831.646 1800.57,829.461 1801.73,827.275 1802.89,825.087 1804.05,822.899 1805.21,820.71 
  1806.37,818.519 1807.53,816.328 1808.7,814.136 1809.86,811.942 1811.02,809.748 1812.18,807.553 1813.34,805.357 1814.5,803.16 1815.66,800.962 1816.82,798.764 
  1817.98,796.564 1819.14,794.364 1820.3,792.163 1821.46,789.961 1822.62,787.758 1823.78,785.555 1824.95,783.351 1826.11,781.146 1827.27,778.941 1828.43,776.735 
  
  "/>
<polyline clip-path="url(#clip962)" style="stroke:#000000; stroke-linecap:butt; stroke-linejoin:round; stroke-width:8; stroke-opacity:1; fill:none" points="
  1828.43,776.735 1829.59,774.528 1830.75,772.321 1831.91,770.113 1833.07,767.905 1834.23,765.696 1835.39,763.486 1836.55,761.277 1837.71,759.066 1838.87,756.856 
  1840.03,754.645 1841.2,752.433 1842.36,750.221 1843.52,748.009 1844.68,745.797 1845.84,743.585 1847,741.372 1848.16,739.159 1849.32,736.946 1850.48,734.733 
  1851.64,732.519 1852.8,730.306 1853.96,728.093 1855.12,725.879 1856.28,723.666 1857.45,721.453 1858.61,719.24 1859.77,717.027 1860.93,714.814 1862.09,712.601 
  1863.25,710.388 1864.41,708.176 1865.57,705.964 1866.73,703.752 1867.89,701.541 1869.05,699.33 1870.21,697.119 1871.37,694.908 1872.53,692.698 1873.7,690.489 
  1874.86,688.28 1876.02,686.071 1877.18,683.863 1878.34,681.656 1879.5,679.449 1880.66,677.243 1881.82,675.038 1882.98,672.833 1884.14,670.629 1885.3,668.425 
  1886.46,666.223 1887.62,664.021 1888.78,661.82 1889.95,659.62 1891.11,657.42 1892.27,655.222 1893.43,653.025 1894.59,650.828 1895.75,648.633 1896.91,646.439 
  1898.07,644.245 1899.23,642.053 1900.39,639.862 1901.55,637.672 1902.71,635.483 1903.87,633.296 1905.03,631.109 1906.2,628.924 1907.36,626.74 1908.52,624.558 
  1909.68,622.377 1910.84,620.197 1912,618.018 1913.16,615.841 1914.32,613.666 1915.48,611.492 1916.64,609.319 1917.8,607.148 1918.96,604.979 1920.12,602.811 
  1921.28,600.645 1922.45,598.48 1923.61,596.318 1924.77,594.157 1925.93,591.997 1927.09,589.84 1928.25,587.684 1929.41,585.53 1930.57,583.378 1931.73,581.228 
  1932.89,579.079 1934.05,576.933 1935.21,574.789 1936.37,572.646 1937.53,570.506 1938.7,568.368 1939.86,566.231 1941.02,564.097 1942.18,561.965 1943.34,559.836 
  1944.5,557.708 1945.66,555.583 1946.82,553.46 1947.98,551.339 1949.14,549.22 1950.3,547.104 1951.46,544.991 1952.62,542.879 1953.78,540.77 1954.95,538.664 
  1956.11,536.56 1957.27,534.459 1958.43,532.36 1959.59,530.263 1960.75,528.17 1961.91,526.079 1963.07,523.99 1964.23,521.905 1965.39,519.822 1966.55,517.741 
  1967.71,515.664 1968.87,513.589 1970.03,511.517 1971.2,509.448 1972.36,507.382 1973.52,505.319 1974.68,503.259 1975.84,501.202 1977,499.148 1978.16,497.096 
  1979.32,495.048 1980.48,493.003 1981.64,490.961 1982.8,488.923 1983.96,486.887 1985.12,484.855 1986.28,482.825 1987.45,480.799 1988.61,478.777 1989.77,476.758 
  1990.93,474.742 1992.09,472.729 1993.25,470.72 1994.41,468.714 1995.57,466.712 1996.73,464.713 1997.89,462.718 1999.05,460.726 2000.21,458.738 2001.37,456.754 
  2002.53,454.773 2003.7,452.796 2004.86,450.822 2006.02,448.852 2007.18,446.886 2008.34,444.924 2009.5,442.966 2010.66,441.011 2011.82,439.06 2012.98,437.114 
  2014.14,435.171 2015.3,433.232 2016.46,431.297 2017.62,429.366 2018.78,427.439 2019.94,425.516 2021.11,423.597 2022.27,421.682 2023.43,419.772 2024.59,417.866 
  2025.75,415.963 2026.91,414.066 2028.07,412.172 2029.23,410.283 2030.39,408.398 2031.55,406.517 2032.71,404.641 2033.87,402.769 2035.03,400.901 2036.19,399.038 
  2037.36,397.18 2038.52,395.326 2039.68,393.477 2040.84,391.632 2042,389.792 2043.16,387.956 2044.32,386.125 2045.48,384.299 2046.64,382.477 2047.8,380.661 
  2048.96,378.849 2050.12,377.042 2051.28,375.239 2052.44,373.442 2053.61,371.65 2054.77,369.862 2055.93,368.079 2057.09,366.302 2058.25,364.529 2059.41,362.761 
  
  "/>
<polyline clip-path="url(#clip962)" style="stroke:#000000; stroke-linecap:butt; stroke-linejoin:round; stroke-width:8; stroke-opacity:1; fill:none" points="
  2059.41,362.761 2060.57,360.999 2061.73,359.241 2062.89,357.489 2064.05,355.742 2065.21,354 2066.37,352.264 2067.53,350.532 2068.69,348.806 2069.86,347.086 
  2071.02,345.37 2072.18,343.661 2073.34,341.956 2074.5,340.258 2075.66,338.564 2076.82,336.877 2077.98,335.195 2079.14,333.519 2080.3,331.848 2081.46,330.183 
  2082.62,328.524 2083.78,326.871 2084.94,325.224 2086.11,323.583 2087.27,321.947 2088.43,320.318 2089.59,318.694 2090.75,317.077 2091.91,315.466 2093.07,313.861 
  2094.23,312.262 2095.39,310.669 2096.55,309.083 2097.71,307.502 2098.87,305.929 2100.03,304.361 2101.19,302.8 2102.36,301.245 2103.52,299.697 2104.68,298.156 
  2105.84,296.621 2107,295.092 2108.16,293.57 2109.32,292.055 2110.48,290.547 2111.64,289.045 2112.8,287.55 2113.96,286.062 2115.12,284.581 2116.28,283.106 
  2117.44,281.639 2118.61,280.179 2119.77,278.725 2120.93,277.279 2122.09,275.84 2123.25,274.407 2124.41,272.983 2125.57,271.565 2126.73,270.154 2127.89,268.751 
  2129.05,267.355 2130.21,265.967 2131.37,264.586 2132.53,263.212 2133.69,261.846 2134.86,260.487 2136.02,259.136 2137.18,257.792 2138.34,256.456 2139.5,255.128 
  2140.66,253.808 2141.82,252.495 2142.98,251.19 2144.14,249.893 2145.3,248.603 2146.46,247.322 2147.62,246.048 2148.78,244.783 2149.94,243.525 2151.11,242.276 
  2152.27,241.034 2153.43,239.801 2154.59,238.576 2155.75,237.359 2156.91,236.15 2158.07,234.95 2159.23,233.758 2160.39,232.574 2161.55,231.399 2162.71,230.232 
  2163.87,229.073 2165.03,227.923 2166.19,226.782 2167.36,225.649 2168.52,224.525 2169.68,223.41 2170.84,222.303 2172,221.205 2173.16,220.115 2174.32,219.035 
  2175.48,217.963 2176.64,216.9 2177.8,215.847 2178.96,214.802 2180.12,213.766 2181.28,212.739 2182.44,211.721 2183.61,210.713 2184.77,209.713 2185.93,208.723 
  2187.09,207.742 2188.25,206.77 2189.41,205.808 2190.57,204.854 2191.73,203.911 2192.89,202.976 2194.05,202.052 2195.21,201.136 2196.37,200.23 2197.53,199.334 
  2198.69,198.448 2199.86,197.571 2201.02,196.703 2202.18,195.846 2203.34,194.998 2204.5,194.16 2205.66,193.332 2206.82,192.514 2207.98,191.705 2209.14,190.907 
  2210.3,190.119 2211.46,189.34 2212.62,188.572 2213.78,187.814 2214.94,187.066 2216.11,186.328 2217.27,185.6 2218.43,184.883 2219.59,184.176 2220.75,183.479 
  2221.91,182.793 2223.07,182.117 2224.23,181.452 2225.39,180.797 2226.55,180.153 2227.71,179.519 2228.87,178.895 2230.03,178.283 2231.19,177.681 2232.36,177.09 
  2233.52,176.509 2234.68,175.94 2235.84,175.381 2237,174.833 2238.16,174.296 2239.32,173.77 2240.48,173.255 2241.64,172.751 2242.8,172.258 2243.96,171.776 
  2245.12,171.306 2246.28,170.846 2247.44,170.398 2248.61,169.961 2249.77,169.535 2250.93,169.121 2252.09,168.717 2253.25,168.326 2254.41,167.946 2255.57,167.577 
  2256.73,167.22 2257.89,166.874 2259.05,166.54 2260.21,166.218 2261.37,165.907 2262.53,165.608 2263.69,165.321 2264.86,165.046 2266.02,164.782 2267.18,164.53 
  2268.34,164.29 2269.5,164.062 2270.66,163.847 2271.82,163.643 2272.98,163.451 2274.14,163.271 2275.3,163.104 2276.46,162.948 2277.62,162.805 2278.78,162.674 
  2279.94,162.555 2281.11,162.449 2282.27,162.355 2283.43,162.274 2284.59,162.205 2285.75,162.148 2286.91,162.104 2288.07,162.072 2289.23,162.053 2290.39,162.047 
  
  "/>
</svg>
