<?xml version="1.0" encoding="utf-8"?>
<svg xmlns="http://www.w3.org/2000/svg" xmlns:xlink="http://www.w3.org/1999/xlink" width="600" height="400" viewBox="0 0 2400 1600">
<defs>
  <clipPath id="clip980">
    <rect x="0" y="0" width="2400" height="1600"/>
  </clipPath>
</defs>
<path clip-path="url(#clip980)" d="
M0 1600 L2400 1600 L2400 0 L0 0  Z
  " fill="#ffffff" fill-rule="evenodd" fill-opacity="1"/>
<defs>
  <clipPath id="clip981">
    <rect x="480" y="0" width="1681" height="1600"/>
  </clipPath>
</defs>
<path clip-path="url(#clip980)" d="
M287.852 1423.18 L2352.76 1423.18 L2352.76 47.2441 L287.852 47.2441  Z
  " fill="#ffffff" fill-rule="evenodd" fill-opacity="1"/>
<defs>
  <clipPath id="clip982">
    <rect x="287" y="47" width="2066" height="1377"/>
  </clipPath>
</defs>
<polyline clip-path="url(#clip982)" style="stroke:#000000; stroke-linecap:butt; stroke-linejoin:round; stroke-width:2; stroke-opacity:0.1; fill:none" points="
  346.293,1423.18 346.293,47.2441 
  "/>
<polyline clip-path="url(#clip982)" style="stroke:#000000; stroke-linecap:butt; stroke-linejoin:round; stroke-width:2; stroke-opacity:0.1; fill:none" points="
  833.298,1423.18 833.298,47.2441 
  "/>
<polyline clip-path="url(#clip982)" style="stroke:#000000; stroke-linecap:butt; stroke-linejoin:round; stroke-width:2; stroke-opacity:0.1; fill:none" points="
  1320.3,1423.18 1320.3,47.2441 
  "/>
<polyline clip-path="url(#clip982)" style="stroke:#000000; stroke-linecap:butt; stroke-linejoin:round; stroke-width:2; stroke-opacity:0.1; fill:none" points="
  1807.31,1423.18 1807.31,47.2441 
  "/>
<polyline clip-path="url(#clip982)" style="stroke:#000000; stroke-linecap:butt; stroke-linejoin:round; stroke-width:2; stroke-opacity:0.1; fill:none" points="
  2294.32,1423.18 2294.32,47.2441 
  "/>
<polyline clip-path="url(#clip980)" style="stroke:#000000; stroke-linecap:butt; stroke-linejoin:round; stroke-width:4; stroke-opacity:1; fill:none" points="
  287.852,1423.18 2352.76,1423.18 
  "/>
<polyline clip-path="url(#clip980)" style="stroke:#000000; stroke-linecap:butt; stroke-linejoin:round; stroke-width:4; stroke-opacity:1; fill:none" points="
  346.293,1423.18 346.293,1404.28 
  "/>
<polyline clip-path="url(#clip980)" style="stroke:#000000; stroke-linecap:butt; stroke-linejoin:round; stroke-width:4; stroke-opacity:1; fill:none" points="
  833.298,1423.18 833.298,1404.28 
  "/>
<polyline clip-path="url(#clip980)" style="stroke:#000000; stroke-linecap:butt; stroke-linejoin:round; stroke-width:4; stroke-opacity:1; fill:none" points="
  1320.3,1423.18 1320.3,1404.28 
  "/>
<polyline clip-path="url(#clip980)" style="stroke:#000000; stroke-linecap:butt; stroke-linejoin:round; stroke-width:4; stroke-opacity:1; fill:none" points="
  1807.31,1423.18 1807.31,1404.28 
  "/>
<polyline clip-path="url(#clip980)" style="stroke:#000000; stroke-linecap:butt; stroke-linejoin:round; stroke-width:4; stroke-opacity:1; fill:none" points="
  2294.32,1423.18 2294.32,1404.28 
  "/>
<path clip-path="url(#clip980)" d="M308.596 1454.1 Q304.985 1454.1 303.156 1457.66 Q301.351 1461.2 301.351 1468.33 Q301.351 1475.44 303.156 1479.01 Q304.985 1482.55 308.596 1482.55 Q312.23 1482.55 314.036 1479.01 Q315.865 1475.44 315.865 1468.33 Q315.865 1461.2 314.036 1457.66 Q312.23 1454.1 308.596 1454.1 M308.596 1450.39 Q314.406 1450.39 317.462 1455 Q320.541 1459.58 320.541 1468.33 Q320.541 1477.06 317.462 1481.67 Q314.406 1486.25 308.596 1486.25 Q302.786 1486.25 299.707 1481.67 Q296.652 1477.06 296.652 1468.33 Q296.652 1459.58 299.707 1455 Q302.786 1450.39 308.596 1450.39 Z" fill="#000000" fill-rule="evenodd" fill-opacity="1" /><path clip-path="url(#clip980)" d="M328.758 1479.7 L333.642 1479.7 L333.642 1485.58 L328.758 1485.58 L328.758 1479.7 Z" fill="#000000" fill-rule="evenodd" fill-opacity="1" /><path clip-path="url(#clip980)" d="M353.827 1454.1 Q350.216 1454.1 348.388 1457.66 Q346.582 1461.2 346.582 1468.33 Q346.582 1475.44 348.388 1479.01 Q350.216 1482.55 353.827 1482.55 Q357.462 1482.55 359.267 1479.01 Q361.096 1475.44 361.096 1468.33 Q361.096 1461.2 359.267 1457.66 Q357.462 1454.1 353.827 1454.1 M353.827 1450.39 Q359.638 1450.39 362.693 1455 Q365.772 1459.58 365.772 1468.33 Q365.772 1477.06 362.693 1481.67 Q359.638 1486.25 353.827 1486.25 Q348.017 1486.25 344.939 1481.67 Q341.883 1477.06 341.883 1468.33 Q341.883 1459.58 344.939 1455 Q348.017 1450.39 353.827 1450.39 Z" fill="#000000" fill-rule="evenodd" fill-opacity="1" /><path clip-path="url(#clip980)" d="M383.989 1454.1 Q380.378 1454.1 378.549 1457.66 Q376.744 1461.2 376.744 1468.33 Q376.744 1475.44 378.549 1479.01 Q380.378 1482.55 383.989 1482.55 Q387.623 1482.55 389.429 1479.01 Q391.258 1475.44 391.258 1468.33 Q391.258 1461.2 389.429 1457.66 Q387.623 1454.1 383.989 1454.1 M383.989 1450.39 Q389.799 1450.39 392.855 1455 Q395.934 1459.58 395.934 1468.33 Q395.934 1477.06 392.855 1481.67 Q389.799 1486.25 383.989 1486.25 Q378.179 1486.25 375.1 1481.67 Q372.045 1477.06 372.045 1468.33 Q372.045 1459.58 375.1 1455 Q378.179 1450.39 383.989 1450.39 Z" fill="#000000" fill-rule="evenodd" fill-opacity="1" /><path clip-path="url(#clip980)" d="M796.099 1454.1 Q792.488 1454.1 790.66 1457.66 Q788.854 1461.2 788.854 1468.33 Q788.854 1475.44 790.66 1479.01 Q792.488 1482.55 796.099 1482.55 Q799.734 1482.55 801.539 1479.01 Q803.368 1475.44 803.368 1468.33 Q803.368 1461.2 801.539 1457.66 Q799.734 1454.1 796.099 1454.1 M796.099 1450.39 Q801.91 1450.39 804.965 1455 Q808.044 1459.58 808.044 1468.33 Q808.044 1477.06 804.965 1481.67 Q801.91 1486.25 796.099 1486.25 Q790.289 1486.25 787.211 1481.67 Q784.155 1477.06 784.155 1468.33 Q784.155 1459.58 787.211 1455 Q790.289 1450.39 796.099 1450.39 Z" fill="#000000" fill-rule="evenodd" fill-opacity="1" /><path clip-path="url(#clip980)" d="M816.261 1479.7 L821.146 1479.7 L821.146 1485.58 L816.261 1485.58 L816.261 1479.7 Z" fill="#000000" fill-rule="evenodd" fill-opacity="1" /><path clip-path="url(#clip980)" d="M835.358 1481.64 L851.678 1481.64 L851.678 1485.58 L829.734 1485.58 L829.734 1481.64 Q832.396 1478.89 836.979 1474.26 Q841.585 1469.61 842.766 1468.27 Q845.011 1465.74 845.891 1464.01 Q846.794 1462.25 846.794 1460.56 Q846.794 1457.8 844.849 1456.07 Q842.928 1454.33 839.826 1454.33 Q837.627 1454.33 835.173 1455.09 Q832.743 1455.86 829.965 1457.41 L829.965 1452.69 Q832.789 1451.55 835.243 1450.97 Q837.696 1450.39 839.733 1450.39 Q845.104 1450.39 848.298 1453.08 Q851.493 1455.77 851.493 1460.26 Q851.493 1462.39 850.682 1464.31 Q849.895 1466.2 847.789 1468.8 Q847.21 1469.47 844.108 1472.69 Q841.007 1475.88 835.358 1481.64 Z" fill="#000000" fill-rule="evenodd" fill-opacity="1" /><path clip-path="url(#clip980)" d="M861.539 1451.02 L879.895 1451.02 L879.895 1454.96 L865.821 1454.96 L865.821 1463.43 Q866.84 1463.08 867.858 1462.92 Q868.877 1462.73 869.895 1462.73 Q875.682 1462.73 879.062 1465.9 Q882.442 1469.08 882.442 1474.49 Q882.442 1480.07 878.969 1483.17 Q875.497 1486.25 869.178 1486.25 Q867.002 1486.25 864.733 1485.88 Q862.488 1485.51 860.081 1484.77 L860.081 1480.07 Q862.164 1481.2 864.386 1481.76 Q866.608 1482.32 869.085 1482.32 Q873.09 1482.32 875.428 1480.21 Q877.766 1478.1 877.766 1474.49 Q877.766 1470.88 875.428 1468.77 Q873.09 1466.67 869.085 1466.67 Q867.21 1466.67 865.335 1467.08 Q863.483 1467.5 861.539 1468.38 L861.539 1451.02 Z" fill="#000000" fill-rule="evenodd" fill-opacity="1" /><path clip-path="url(#clip980)" d="M1282.61 1454.1 Q1279 1454.1 1277.17 1457.66 Q1275.36 1461.2 1275.36 1468.33 Q1275.36 1475.44 1277.17 1479.01 Q1279 1482.55 1282.61 1482.55 Q1286.24 1482.55 1288.05 1479.01 Q1289.88 1475.44 1289.88 1468.33 Q1289.88 1461.2 1288.05 1457.66 Q1286.24 1454.1 1282.61 1454.1 M1282.61 1450.39 Q1288.42 1450.39 1291.47 1455 Q1294.55 1459.58 1294.55 1468.33 Q1294.55 1477.06 1291.47 1481.67 Q1288.42 1486.25 1282.61 1486.25 Q1276.8 1486.25 1273.72 1481.67 Q1270.66 1477.06 1270.66 1468.33 Q1270.66 1459.58 1273.72 1455 Q1276.8 1450.39 1282.61 1450.39 Z" fill="#000000" fill-rule="evenodd" fill-opacity="1" /><path clip-path="url(#clip980)" d="M1302.77 1479.7 L1307.65 1479.7 L1307.65 1485.58 L1302.77 1485.58 L1302.77 1479.7 Z" fill="#000000" fill-rule="evenodd" fill-opacity="1" /><path clip-path="url(#clip980)" d="M1317.88 1451.02 L1336.24 1451.02 L1336.24 1454.96 L1322.17 1454.96 L1322.17 1463.43 Q1323.19 1463.08 1324.2 1462.92 Q1325.22 1462.73 1326.24 1462.73 Q1332.03 1462.73 1335.41 1465.9 Q1338.79 1469.08 1338.79 1474.49 Q1338.79 1480.07 1335.32 1483.17 Q1331.84 1486.25 1325.52 1486.25 Q1323.35 1486.25 1321.08 1485.88 Q1318.83 1485.51 1316.43 1484.77 L1316.43 1480.07 Q1318.51 1481.2 1320.73 1481.76 Q1322.95 1482.32 1325.43 1482.32 Q1329.44 1482.32 1331.77 1480.21 Q1334.11 1478.1 1334.11 1474.49 Q1334.11 1470.88 1331.77 1468.77 Q1329.44 1466.67 1325.43 1466.67 Q1323.56 1466.67 1321.68 1467.08 Q1319.83 1467.5 1317.88 1468.38 L1317.88 1451.02 Z" fill="#000000" fill-rule="evenodd" fill-opacity="1" /><path clip-path="url(#clip980)" d="M1358 1454.1 Q1354.39 1454.1 1352.56 1457.66 Q1350.76 1461.2 1350.76 1468.33 Q1350.76 1475.44 1352.56 1479.01 Q1354.39 1482.55 1358 1482.55 Q1361.63 1482.55 1363.44 1479.01 Q1365.27 1475.44 1365.27 1468.33 Q1365.27 1461.2 1363.44 1457.66 Q1361.63 1454.1 1358 1454.1 M1358 1450.39 Q1363.81 1450.39 1366.87 1455 Q1369.94 1459.58 1369.94 1468.33 Q1369.94 1477.06 1366.87 1481.67 Q1363.81 1486.25 1358 1486.25 Q1352.19 1486.25 1349.11 1481.67 Q1346.06 1477.06 1346.06 1468.33 Q1346.06 1459.58 1349.11 1455 Q1352.19 1450.39 1358 1450.39 Z" fill="#000000" fill-rule="evenodd" fill-opacity="1" /><path clip-path="url(#clip980)" d="M1770.11 1454.1 Q1766.5 1454.1 1764.67 1457.66 Q1762.87 1461.2 1762.87 1468.33 Q1762.87 1475.44 1764.67 1479.01 Q1766.5 1482.55 1770.11 1482.55 Q1773.74 1482.55 1775.55 1479.01 Q1777.38 1475.44 1777.38 1468.33 Q1777.38 1461.2 1775.55 1457.66 Q1773.74 1454.1 1770.11 1454.1 M1770.11 1450.39 Q1775.92 1450.39 1778.98 1455 Q1782.06 1459.58 1782.06 1468.33 Q1782.06 1477.06 1778.98 1481.67 Q1775.92 1486.25 1770.11 1486.25 Q1764.3 1486.25 1761.22 1481.67 Q1758.17 1477.06 1758.17 1468.33 Q1758.17 1459.58 1761.22 1455 Q1764.3 1450.39 1770.11 1450.39 Z" fill="#000000" fill-rule="evenodd" fill-opacity="1" /><path clip-path="url(#clip980)" d="M1790.27 1479.7 L1795.16 1479.7 L1795.16 1485.58 L1790.27 1485.58 L1790.27 1479.7 Z" fill="#000000" fill-rule="evenodd" fill-opacity="1" /><path clip-path="url(#clip980)" d="M1804.16 1451.02 L1826.38 1451.02 L1826.38 1453.01 L1813.84 1485.58 L1808.95 1485.58 L1820.76 1454.96 L1804.16 1454.96 L1804.16 1451.02 Z" fill="#000000" fill-rule="evenodd" fill-opacity="1" /><path clip-path="url(#clip980)" d="M1835.55 1451.02 L1853.91 1451.02 L1853.91 1454.96 L1839.83 1454.96 L1839.83 1463.43 Q1840.85 1463.08 1841.87 1462.92 Q1842.89 1462.73 1843.91 1462.73 Q1849.69 1462.73 1853.07 1465.9 Q1856.45 1469.08 1856.45 1474.49 Q1856.45 1480.07 1852.98 1483.17 Q1849.51 1486.25 1843.19 1486.25 Q1841.01 1486.25 1838.74 1485.88 Q1836.5 1485.51 1834.09 1484.77 L1834.09 1480.07 Q1836.18 1481.2 1838.4 1481.76 Q1840.62 1482.32 1843.1 1482.32 Q1847.1 1482.32 1849.44 1480.21 Q1851.78 1478.1 1851.78 1474.49 Q1851.78 1470.88 1849.44 1468.77 Q1847.1 1466.67 1843.1 1466.67 Q1841.22 1466.67 1839.35 1467.08 Q1837.49 1467.5 1835.55 1468.38 L1835.55 1451.02 Z" fill="#000000" fill-rule="evenodd" fill-opacity="1" /><path clip-path="url(#clip980)" d="M2246.39 1481.64 L2254.03 1481.64 L2254.03 1455.28 L2245.72 1456.95 L2245.72 1452.69 L2253.98 1451.02 L2258.66 1451.02 L2258.66 1481.64 L2266.29 1481.64 L2266.29 1485.58 L2246.39 1485.58 L2246.39 1481.64 Z" fill="#000000" fill-rule="evenodd" fill-opacity="1" /><path clip-path="url(#clip980)" d="M2275.74 1479.7 L2280.62 1479.7 L2280.62 1485.58 L2275.74 1485.58 L2275.74 1479.7 Z" fill="#000000" fill-rule="evenodd" fill-opacity="1" /><path clip-path="url(#clip980)" d="M2300.81 1454.1 Q2297.2 1454.1 2295.37 1457.66 Q2293.56 1461.2 2293.56 1468.33 Q2293.56 1475.44 2295.37 1479.01 Q2297.2 1482.55 2300.81 1482.55 Q2304.44 1482.55 2306.25 1479.01 Q2308.08 1475.44 2308.08 1468.33 Q2308.08 1461.2 2306.25 1457.66 Q2304.44 1454.1 2300.81 1454.1 M2300.81 1450.39 Q2306.62 1450.39 2309.67 1455 Q2312.75 1459.58 2312.75 1468.33 Q2312.75 1477.06 2309.67 1481.67 Q2306.62 1486.25 2300.81 1486.25 Q2295 1486.25 2291.92 1481.67 Q2288.86 1477.06 2288.86 1468.33 Q2288.86 1459.58 2291.92 1455 Q2295 1450.39 2300.81 1450.39 Z" fill="#000000" fill-rule="evenodd" fill-opacity="1" /><path clip-path="url(#clip980)" d="M2330.97 1454.1 Q2327.36 1454.1 2325.53 1457.66 Q2323.72 1461.2 2323.72 1468.33 Q2323.72 1475.44 2325.53 1479.01 Q2327.36 1482.55 2330.97 1482.55 Q2334.6 1482.55 2336.41 1479.01 Q2338.24 1475.44 2338.24 1468.33 Q2338.24 1461.2 2336.41 1457.66 Q2334.6 1454.1 2330.97 1454.1 M2330.97 1450.39 Q2336.78 1450.39 2339.84 1455 Q2342.91 1459.58 2342.91 1468.33 Q2342.91 1477.06 2339.84 1481.67 Q2336.78 1486.25 2330.97 1486.25 Q2325.16 1486.25 2322.08 1481.67 Q2319.03 1477.06 2319.03 1468.33 Q2319.03 1459.58 2322.08 1455 Q2325.16 1450.39 2330.97 1450.39 Z" fill="#000000" fill-rule="evenodd" fill-opacity="1" /><path clip-path="url(#clip980)" d="M1336.92 1532.4 L1324.03 1549.74 L1337.59 1568.04 L1330.68 1568.04 L1320.3 1554.04 L1309.93 1568.04 L1303.02 1568.04 L1316.87 1549.39 L1304.2 1532.4 L1311.11 1532.4 L1320.56 1545.1 L1330.01 1532.4 L1336.92 1532.4 Z" fill="#000000" fill-rule="evenodd" fill-opacity="1" /><polyline clip-path="url(#clip982)" style="stroke:#000000; stroke-linecap:butt; stroke-linejoin:round; stroke-width:2; stroke-opacity:0.1; fill:none" points="
  287.852,1419.82 2352.76,1419.82 
  "/>
<polyline clip-path="url(#clip982)" style="stroke:#000000; stroke-linecap:butt; stroke-linejoin:round; stroke-width:2; stroke-opacity:0.1; fill:none" points="
  287.852,1086.41 2352.76,1086.41 
  "/>
<polyline clip-path="url(#clip982)" style="stroke:#000000; stroke-linecap:butt; stroke-linejoin:round; stroke-width:2; stroke-opacity:0.1; fill:none" points="
  287.852,753.004 2352.76,753.004 
  "/>
<polyline clip-path="url(#clip982)" style="stroke:#000000; stroke-linecap:butt; stroke-linejoin:round; stroke-width:2; stroke-opacity:0.1; fill:none" points="
  287.852,419.595 2352.76,419.595 
  "/>
<polyline clip-path="url(#clip982)" style="stroke:#000000; stroke-linecap:butt; stroke-linejoin:round; stroke-width:2; stroke-opacity:0.1; fill:none" points="
  287.852,86.1857 2352.76,86.1857 
  "/>
<polyline clip-path="url(#clip980)" style="stroke:#000000; stroke-linecap:butt; stroke-linejoin:round; stroke-width:4; stroke-opacity:1; fill:none" points="
  287.852,1423.18 287.852,47.2441 
  "/>
<polyline clip-path="url(#clip980)" style="stroke:#000000; stroke-linecap:butt; stroke-linejoin:round; stroke-width:4; stroke-opacity:1; fill:none" points="
  287.852,1419.82 306.75,1419.82 
  "/>
<polyline clip-path="url(#clip980)" style="stroke:#000000; stroke-linecap:butt; stroke-linejoin:round; stroke-width:4; stroke-opacity:1; fill:none" points="
  287.852,1086.41 306.75,1086.41 
  "/>
<polyline clip-path="url(#clip980)" style="stroke:#000000; stroke-linecap:butt; stroke-linejoin:round; stroke-width:4; stroke-opacity:1; fill:none" points="
  287.852,753.004 306.75,753.004 
  "/>
<polyline clip-path="url(#clip980)" style="stroke:#000000; stroke-linecap:butt; stroke-linejoin:round; stroke-width:4; stroke-opacity:1; fill:none" points="
  287.852,419.595 306.75,419.595 
  "/>
<polyline clip-path="url(#clip980)" style="stroke:#000000; stroke-linecap:butt; stroke-linejoin:round; stroke-width:4; stroke-opacity:1; fill:none" points="
  287.852,86.1857 306.75,86.1857 
  "/>
<path clip-path="url(#clip980)" d="M114.26 1420.27 L143.936 1420.27 L143.936 1424.21 L114.26 1424.21 L114.26 1420.27 Z" fill="#000000" fill-rule="evenodd" fill-opacity="1" /><path clip-path="url(#clip980)" d="M164.028 1405.62 Q160.417 1405.62 158.589 1409.19 Q156.783 1412.73 156.783 1419.86 Q156.783 1426.96 158.589 1430.53 Q160.417 1434.07 164.028 1434.07 Q167.663 1434.07 169.468 1430.53 Q171.297 1426.96 171.297 1419.86 Q171.297 1412.73 169.468 1409.19 Q167.663 1405.62 164.028 1405.62 M164.028 1401.92 Q169.839 1401.92 172.894 1406.52 Q175.973 1411.11 175.973 1419.86 Q175.973 1428.58 172.894 1433.19 Q169.839 1437.77 164.028 1437.77 Q158.218 1437.77 155.14 1433.19 Q152.084 1428.58 152.084 1419.86 Q152.084 1411.11 155.14 1406.52 Q158.218 1401.92 164.028 1401.92 Z" fill="#000000" fill-rule="evenodd" fill-opacity="1" /><path clip-path="url(#clip980)" d="M184.19 1431.22 L189.075 1431.22 L189.075 1437.1 L184.19 1437.1 L184.19 1431.22 Z" fill="#000000" fill-rule="evenodd" fill-opacity="1" /><path clip-path="url(#clip980)" d="M209.26 1405.62 Q205.649 1405.62 203.82 1409.19 Q202.014 1412.73 202.014 1419.86 Q202.014 1426.96 203.82 1430.53 Q205.649 1434.07 209.26 1434.07 Q212.894 1434.07 214.699 1430.53 Q216.528 1426.96 216.528 1419.86 Q216.528 1412.73 214.699 1409.19 Q212.894 1405.62 209.26 1405.62 M209.26 1401.92 Q215.07 1401.92 218.125 1406.52 Q221.204 1411.11 221.204 1419.86 Q221.204 1428.58 218.125 1433.19 Q215.07 1437.77 209.26 1437.77 Q203.449 1437.77 200.371 1433.19 Q197.315 1428.58 197.315 1419.86 Q197.315 1411.11 200.371 1406.52 Q203.449 1401.92 209.26 1401.92 Z" fill="#000000" fill-rule="evenodd" fill-opacity="1" /><path clip-path="url(#clip980)" d="M242.269 1406.62 L230.463 1425.07 L242.269 1425.07 L242.269 1406.62 M241.042 1402.54 L246.921 1402.54 L246.921 1425.07 L251.852 1425.07 L251.852 1428.95 L246.921 1428.95 L246.921 1437.1 L242.269 1437.1 L242.269 1428.95 L226.667 1428.95 L226.667 1424.44 L241.042 1402.54 Z" fill="#000000" fill-rule="evenodd" fill-opacity="1" /><path clip-path="url(#clip980)" d="M115.394 1086.86 L145.07 1086.86 L145.07 1090.8 L115.394 1090.8 L115.394 1086.86 Z" fill="#000000" fill-rule="evenodd" fill-opacity="1" /><path clip-path="url(#clip980)" d="M165.163 1072.21 Q161.552 1072.21 159.723 1075.78 Q157.917 1079.32 157.917 1086.45 Q157.917 1093.55 159.723 1097.12 Q161.552 1100.66 165.163 1100.66 Q168.797 1100.66 170.602 1097.12 Q172.431 1093.55 172.431 1086.45 Q172.431 1079.32 170.602 1075.78 Q168.797 1072.21 165.163 1072.21 M165.163 1068.51 Q170.973 1068.51 174.028 1073.11 Q177.107 1077.7 177.107 1086.45 Q177.107 1095.17 174.028 1099.78 Q170.973 1104.36 165.163 1104.36 Q159.353 1104.36 156.274 1099.78 Q153.218 1095.17 153.218 1086.45 Q153.218 1077.7 156.274 1073.11 Q159.353 1068.51 165.163 1068.51 Z" fill="#000000" fill-rule="evenodd" fill-opacity="1" /><path clip-path="url(#clip980)" d="M185.325 1097.81 L190.209 1097.81 L190.209 1103.69 L185.325 1103.69 L185.325 1097.81 Z" fill="#000000" fill-rule="evenodd" fill-opacity="1" /><path clip-path="url(#clip980)" d="M210.394 1072.21 Q206.783 1072.21 204.954 1075.78 Q203.149 1079.32 203.149 1086.45 Q203.149 1093.55 204.954 1097.12 Q206.783 1100.66 210.394 1100.66 Q214.028 1100.66 215.834 1097.12 Q217.662 1093.55 217.662 1086.45 Q217.662 1079.32 215.834 1075.78 Q214.028 1072.21 210.394 1072.21 M210.394 1068.51 Q216.204 1068.51 219.26 1073.11 Q222.338 1077.7 222.338 1086.45 Q222.338 1095.17 219.26 1099.78 Q216.204 1104.36 210.394 1104.36 Q204.584 1104.36 201.505 1099.78 Q198.45 1095.17 198.45 1086.45 Q198.45 1077.7 201.505 1073.11 Q204.584 1068.51 210.394 1068.51 Z" fill="#000000" fill-rule="evenodd" fill-opacity="1" /><path clip-path="url(#clip980)" d="M244.722 1085.06 Q248.079 1085.78 249.954 1088.05 Q251.852 1090.31 251.852 1093.65 Q251.852 1098.76 248.334 1101.56 Q244.815 1104.36 238.334 1104.36 Q236.158 1104.36 233.843 1103.92 Q231.551 1103.51 229.098 1102.65 L229.098 1098.14 Q231.042 1099.27 233.357 1099.85 Q235.672 1100.43 238.195 1100.43 Q242.593 1100.43 244.884 1098.69 Q247.199 1096.96 247.199 1093.65 Q247.199 1090.59 245.046 1088.88 Q242.917 1087.14 239.097 1087.14 L235.07 1087.14 L235.07 1083.3 L239.283 1083.3 Q242.732 1083.3 244.56 1081.93 Q246.389 1080.55 246.389 1077.95 Q246.389 1075.29 244.491 1073.88 Q242.616 1072.44 239.097 1072.44 Q237.176 1072.44 234.977 1072.86 Q232.778 1073.28 230.139 1074.16 L230.139 1069.99 Q232.801 1069.25 235.116 1068.88 Q237.454 1068.51 239.514 1068.51 Q244.838 1068.51 247.94 1070.94 Q251.042 1073.35 251.042 1077.47 Q251.042 1080.34 249.398 1082.33 Q247.755 1084.3 244.722 1085.06 Z" fill="#000000" fill-rule="evenodd" fill-opacity="1" /><path clip-path="url(#clip980)" d="M116.343 753.456 L146.019 753.456 L146.019 757.391 L116.343 757.391 L116.343 753.456 Z" fill="#000000" fill-rule="evenodd" fill-opacity="1" /><path clip-path="url(#clip980)" d="M166.112 738.803 Q162.501 738.803 160.672 742.368 Q158.866 745.909 158.866 753.039 Q158.866 760.145 160.672 763.71 Q162.501 767.252 166.112 767.252 Q169.746 767.252 171.552 763.71 Q173.38 760.145 173.38 753.039 Q173.38 745.909 171.552 742.368 Q169.746 738.803 166.112 738.803 M166.112 735.099 Q171.922 735.099 174.977 739.706 Q178.056 744.289 178.056 753.039 Q178.056 761.766 174.977 766.372 Q171.922 770.955 166.112 770.955 Q160.302 770.955 157.223 766.372 Q154.167 761.766 154.167 753.039 Q154.167 744.289 157.223 739.706 Q160.302 735.099 166.112 735.099 Z" fill="#000000" fill-rule="evenodd" fill-opacity="1" /><path clip-path="url(#clip980)" d="M186.274 764.405 L191.158 764.405 L191.158 770.284 L186.274 770.284 L186.274 764.405 Z" fill="#000000" fill-rule="evenodd" fill-opacity="1" /><path clip-path="url(#clip980)" d="M211.343 738.803 Q207.732 738.803 205.903 742.368 Q204.098 745.909 204.098 753.039 Q204.098 760.145 205.903 763.71 Q207.732 767.252 211.343 767.252 Q214.977 767.252 216.783 763.71 Q218.611 760.145 218.611 753.039 Q218.611 745.909 216.783 742.368 Q214.977 738.803 211.343 738.803 M211.343 735.099 Q217.153 735.099 220.209 739.706 Q223.287 744.289 223.287 753.039 Q223.287 761.766 220.209 766.372 Q217.153 770.955 211.343 770.955 Q205.533 770.955 202.454 766.372 Q199.399 761.766 199.399 753.039 Q199.399 744.289 202.454 739.706 Q205.533 735.099 211.343 735.099 Z" fill="#000000" fill-rule="evenodd" fill-opacity="1" /><path clip-path="url(#clip980)" d="M235.533 766.349 L251.852 766.349 L251.852 770.284 L229.908 770.284 L229.908 766.349 Q232.57 763.594 237.153 758.965 Q241.759 754.312 242.94 752.969 Q245.185 750.446 246.065 748.71 Q246.968 746.951 246.968 745.261 Q246.968 742.507 245.023 740.77 Q243.102 739.034 240 739.034 Q237.801 739.034 235.347 739.798 Q232.917 740.562 230.139 742.113 L230.139 737.391 Q232.963 736.257 235.417 735.678 Q237.871 735.099 239.908 735.099 Q245.278 735.099 248.472 737.784 Q251.667 740.469 251.667 744.96 Q251.667 747.09 250.857 749.011 Q250.07 750.909 247.963 753.502 Q247.384 754.173 244.283 757.391 Q241.181 760.585 235.533 766.349 Z" fill="#000000" fill-rule="evenodd" fill-opacity="1" /><path clip-path="url(#clip980)" d="M115.973 420.046 L145.649 420.046 L145.649 423.981 L115.973 423.981 L115.973 420.046 Z" fill="#000000" fill-rule="evenodd" fill-opacity="1" /><path clip-path="url(#clip980)" d="M165.741 405.394 Q162.13 405.394 160.302 408.958 Q158.496 412.5 158.496 419.63 Q158.496 426.736 160.302 430.301 Q162.13 433.843 165.741 433.843 Q169.376 433.843 171.181 430.301 Q173.01 426.736 173.01 419.63 Q173.01 412.5 171.181 408.958 Q169.376 405.394 165.741 405.394 M165.741 401.69 Q171.552 401.69 174.607 406.296 Q177.686 410.88 177.686 419.63 Q177.686 428.356 174.607 432.963 Q171.552 437.546 165.741 437.546 Q159.931 437.546 156.853 432.963 Q153.797 428.356 153.797 419.63 Q153.797 410.88 156.853 406.296 Q159.931 401.69 165.741 401.69 Z" fill="#000000" fill-rule="evenodd" fill-opacity="1" /><path clip-path="url(#clip980)" d="M185.903 430.995 L190.788 430.995 L190.788 436.875 L185.903 436.875 L185.903 430.995 Z" fill="#000000" fill-rule="evenodd" fill-opacity="1" /><path clip-path="url(#clip980)" d="M210.973 405.394 Q207.362 405.394 205.533 408.958 Q203.727 412.5 203.727 419.63 Q203.727 426.736 205.533 430.301 Q207.362 433.843 210.973 433.843 Q214.607 433.843 216.412 430.301 Q218.241 426.736 218.241 419.63 Q218.241 412.5 216.412 408.958 Q214.607 405.394 210.973 405.394 M210.973 401.69 Q216.783 401.69 219.838 406.296 Q222.917 410.88 222.917 419.63 Q222.917 428.356 219.838 432.963 Q216.783 437.546 210.973 437.546 Q205.162 437.546 202.084 432.963 Q199.028 428.356 199.028 419.63 Q199.028 410.88 202.084 406.296 Q205.162 401.69 210.973 401.69 Z" fill="#000000" fill-rule="evenodd" fill-opacity="1" /><path clip-path="url(#clip980)" d="M231.945 432.94 L239.584 432.94 L239.584 406.574 L231.273 408.241 L231.273 403.982 L239.537 402.315 L244.213 402.315 L244.213 432.94 L251.852 432.94 L251.852 436.875 L231.945 436.875 L231.945 432.94 Z" fill="#000000" fill-rule="evenodd" fill-opacity="1" /><path clip-path="url(#clip980)" d="M164.515 71.9844 Q160.903 71.9844 159.075 75.5492 Q157.269 79.0908 157.269 86.2204 Q157.269 93.3268 159.075 96.8916 Q160.903 100.433 164.515 100.433 Q168.149 100.433 169.954 96.8916 Q171.783 93.3268 171.783 86.2204 Q171.783 79.0908 169.954 75.5492 Q168.149 71.9844 164.515 71.9844 M164.515 68.2807 Q170.325 68.2807 173.38 72.8871 Q176.459 77.4704 176.459 86.2204 Q176.459 94.9472 173.38 99.5537 Q170.325 104.137 164.515 104.137 Q158.704 104.137 155.626 99.5537 Q152.57 94.9472 152.57 86.2204 Q152.57 77.4704 155.626 72.8871 Q158.704 68.2807 164.515 68.2807 Z" fill="#000000" fill-rule="evenodd" fill-opacity="1" /><path clip-path="url(#clip980)" d="M184.676 97.5861 L189.561 97.5861 L189.561 103.466 L184.676 103.466 L184.676 97.5861 Z" fill="#000000" fill-rule="evenodd" fill-opacity="1" /><path clip-path="url(#clip980)" d="M209.746 71.9844 Q206.135 71.9844 204.306 75.5492 Q202.5 79.0908 202.5 86.2204 Q202.5 93.3268 204.306 96.8916 Q206.135 100.433 209.746 100.433 Q213.38 100.433 215.186 96.8916 Q217.014 93.3268 217.014 86.2204 Q217.014 79.0908 215.186 75.5492 Q213.38 71.9844 209.746 71.9844 M209.746 68.2807 Q215.556 68.2807 218.611 72.8871 Q221.69 77.4704 221.69 86.2204 Q221.69 94.9472 218.611 99.5537 Q215.556 104.137 209.746 104.137 Q203.936 104.137 200.857 99.5537 Q197.801 94.9472 197.801 86.2204 Q197.801 77.4704 200.857 72.8871 Q203.936 68.2807 209.746 68.2807 Z" fill="#000000" fill-rule="evenodd" fill-opacity="1" /><path clip-path="url(#clip980)" d="M239.908 71.9844 Q236.297 71.9844 234.468 75.5492 Q232.662 79.0908 232.662 86.2204 Q232.662 93.3268 234.468 96.8916 Q236.297 100.433 239.908 100.433 Q243.542 100.433 245.347 96.8916 Q247.176 93.3268 247.176 86.2204 Q247.176 79.0908 245.347 75.5492 Q243.542 71.9844 239.908 71.9844 M239.908 68.2807 Q245.718 68.2807 248.773 72.8871 Q251.852 77.4704 251.852 86.2204 Q251.852 94.9472 248.773 99.5537 Q245.718 104.137 239.908 104.137 Q234.097 104.137 231.019 99.5537 Q227.963 94.9472 227.963 86.2204 Q227.963 77.4704 231.019 72.8871 Q234.097 68.2807 239.908 68.2807 Z" fill="#000000" fill-rule="evenodd" fill-opacity="1" /><path clip-path="url(#clip980)" d="M28.3562 802.418 L28.3562 796.561 L56.1743 789.241 L28.3562 781.952 L28.3562 775.045 L56.1743 767.725 L28.3562 760.436 L28.3562 754.58 L64.0042 763.905 L64.0042 770.812 L34.7856 778.483 L64.0042 786.185 L64.0042 793.092 L28.3562 802.418 Z" fill="#000000" fill-rule="evenodd" fill-opacity="1" /><path clip-path="url(#clip980)" d="M14.5426 731.631 Q21.8632 735.896 29.0246 737.965 Q36.186 740.034 43.5384 740.034 Q50.8908 740.034 58.1159 737.965 Q65.3091 735.864 72.5979 731.631 L72.5979 736.724 Q65.1182 741.498 57.8931 743.885 Q50.668 746.241 43.5384 746.241 Q36.4406 746.241 29.2474 743.885 Q22.0542 741.53 14.5426 736.724 L14.5426 731.631 Z" fill="#000000" fill-rule="evenodd" fill-opacity="1" /><path clip-path="url(#clip980)" d="M28.3562 690.636 L45.7028 703.527 L64.0042 689.968 L64.0042 696.875 L49.9996 707.251 L64.0042 717.627 L64.0042 724.533 L45.3526 710.688 L28.3562 723.356 L28.3562 716.449 L41.0558 706.996 L28.3562 697.543 L28.3562 690.636 Z" fill="#000000" fill-rule="evenodd" fill-opacity="1" /><path clip-path="url(#clip980)" d="M14.5426 682.615 L14.5426 677.523 Q22.0542 672.748 29.2474 670.393 Q36.4406 668.006 43.5384 668.006 Q50.668 668.006 57.8931 670.393 Q65.1182 672.748 72.5979 677.523 L72.5979 682.615 Q65.3091 678.382 58.1159 676.313 Q50.8908 674.213 43.5384 674.213 Q36.186 674.213 29.0246 676.313 Q21.8632 678.382 14.5426 682.615 Z" fill="#000000" fill-rule="evenodd" fill-opacity="1" /><polyline clip-path="url(#clip982)" style="stroke:#0000ff; stroke-linecap:butt; stroke-linejoin:round; stroke-width:4; stroke-opacity:1; fill:none" points="
  346.293,86.1857 448.82,304.351 551.348,515.672 653.875,714.009 756.403,893.991 858.93,1051.01 961.458,1181.23 1063.99,1281.58 1166.51,1349.76 1269.04,1384.24 
  1371.57,1384.24 1474.1,1349.76 1576.62,1281.58 1679.15,1181.23 1781.68,1051.01 1884.21,893.991 1986.73,714.009 2089.26,515.672 2191.79,304.351 2294.32,86.1857 
  
  "/>
<circle clip-path="url(#clip982)" cx="346.293" cy="86.1857" r="14" fill="#ff0000" fill-rule="evenodd" fill-opacity="1" stroke="#000000" stroke-opacity="1" stroke-width="3.2"/>
<circle clip-path="url(#clip982)" cx="448.82" cy="304.351" r="14" fill="#ff0000" fill-rule="evenodd" fill-opacity="1" stroke="#000000" stroke-opacity="1" stroke-width="3.2"/>
<circle clip-path="url(#clip982)" cx="551.348" cy="515.672" r="14" fill="#ff0000" fill-rule="evenodd" fill-opacity="1" stroke="#000000" stroke-opacity="1" stroke-width="3.2"/>
<circle clip-path="url(#clip982)" cx="653.875" cy="714.009" r="14" fill="#ff0000" fill-rule="evenodd" fill-opacity="1" stroke="#000000" stroke-opacity="1" stroke-width="3.2"/>
<circle clip-path="url(#clip982)" cx="756.403" cy="893.991" r="14" fill="#ff0000" fill-rule="evenodd" fill-opacity="1" stroke="#000000" stroke-opacity="1" stroke-width="3.2"/>
<circle clip-path="url(#clip982)" cx="858.93" cy="1051.01" r="14" fill="#ff0000" fill-rule="evenodd" fill-opacity="1" stroke="#000000" stroke-opacity="1" stroke-width="3.2"/>
<circle clip-path="url(#clip982)" cx="961.458" cy="1181.23" r="14" fill="#ff0000" fill-rule="evenodd" fill-opacity="1" stroke="#000000" stroke-opacity="1" stroke-width="3.2"/>
<circle clip-path="url(#clip982)" cx="1063.99" cy="1281.58" r="14" fill="#ff0000" fill-rule="evenodd" fill-opacity="1" stroke="#000000" stroke-opacity="1" stroke-width="3.2"/>
<circle clip-path="url(#clip982)" cx="1166.51" cy="1349.76" r="14" fill="#ff0000" fill-rule="evenodd" fill-opacity="1" stroke="#000000" stroke-opacity="1" stroke-width="3.2"/>
<circle clip-path="url(#clip982)" cx="1269.04" cy="1384.24" r="14" fill="#ff0000" fill-rule="evenodd" fill-opacity="1" stroke="#000000" stroke-opacity="1" stroke-width="3.2"/>
<circle clip-path="url(#clip982)" cx="1371.57" cy="1384.24" r="14" fill="#ff0000" fill-rule="evenodd" fill-opacity="1" stroke="#000000" stroke-opacity="1" stroke-width="3.2"/>
<circle clip-path="url(#clip982)" cx="1474.1" cy="1349.76" r="14" fill="#ff0000" fill-rule="evenodd" fill-opacity="1" stroke="#000000" stroke-opacity="1" stroke-width="3.2"/>
<circle clip-path="url(#clip982)" cx="1576.62" cy="1281.58" r="14" fill="#ff0000" fill-rule="evenodd" fill-opacity="1" stroke="#000000" stroke-opacity="1" stroke-width="3.2"/>
<circle clip-path="url(#clip982)" cx="1679.15" cy="1181.23" r="14" fill="#ff0000" fill-rule="evenodd" fill-opacity="1" stroke="#000000" stroke-opacity="1" stroke-width="3.2"/>
<circle clip-path="url(#clip982)" cx="1781.68" cy="1051.01" r="14" fill="#ff0000" fill-rule="evenodd" fill-opacity="1" stroke="#000000" stroke-opacity="1" stroke-width="3.2"/>
<circle clip-path="url(#clip982)" cx="1884.21" cy="893.991" r="14" fill="#ff0000" fill-rule="evenodd" fill-opacity="1" stroke="#000000" stroke-opacity="1" stroke-width="3.2"/>
<circle clip-path="url(#clip982)" cx="1986.73" cy="714.009" r="14" fill="#ff0000" fill-rule="evenodd" fill-opacity="1" stroke="#000000" stroke-opacity="1" stroke-width="3.2"/>
<circle clip-path="url(#clip982)" cx="2089.26" cy="515.672" r="14" fill="#ff0000" fill-rule="evenodd" fill-opacity="1" stroke="#000000" stroke-opacity="1" stroke-width="3.2"/>
<circle clip-path="url(#clip982)" cx="2191.79" cy="304.351" r="14" fill="#ff0000" fill-rule="evenodd" fill-opacity="1" stroke="#000000" stroke-opacity="1" stroke-width="3.2"/>
<circle clip-path="url(#clip982)" cx="448.82" cy="304.351" r="14" fill="#ff0000" fill-rule="evenodd" fill-opacity="1" stroke="#000000" stroke-opacity="1" stroke-width="3.2"/>
<circle clip-path="url(#clip982)" cx="551.348" cy="515.672" r="14" fill="#ff0000" fill-rule="evenodd" fill-opacity="1" stroke="#000000" stroke-opacity="1" stroke-width="3.2"/>
<circle clip-path="url(#clip982)" cx="653.875" cy="714.009" r="14" fill="#ff0000" fill-rule="evenodd" fill-opacity="1" stroke="#000000" stroke-opacity="1" stroke-width="3.2"/>
<circle clip-path="url(#clip982)" cx="756.403" cy="893.991" r="14" fill="#ff0000" fill-rule="evenodd" fill-opacity="1" stroke="#000000" stroke-opacity="1" stroke-width="3.2"/>
<circle clip-path="url(#clip982)" cx="858.93" cy="1051.01" r="14" fill="#ff0000" fill-rule="evenodd" fill-opacity="1" stroke="#000000" stroke-opacity="1" stroke-width="3.2"/>
<circle clip-path="url(#clip982)" cx="961.458" cy="1181.23" r="14" fill="#ff0000" fill-rule="evenodd" fill-opacity="1" stroke="#000000" stroke-opacity="1" stroke-width="3.2"/>
<circle clip-path="url(#clip982)" cx="1063.99" cy="1281.58" r="14" fill="#ff0000" fill-rule="evenodd" fill-opacity="1" stroke="#000000" stroke-opacity="1" stroke-width="3.2"/>
<circle clip-path="url(#clip982)" cx="1166.51" cy="1349.76" r="14" fill="#ff0000" fill-rule="evenodd" fill-opacity="1" stroke="#000000" stroke-opacity="1" stroke-width="3.2"/>
<circle clip-path="url(#clip982)" cx="1269.04" cy="1384.24" r="14" fill="#ff0000" fill-rule="evenodd" fill-opacity="1" stroke="#000000" stroke-opacity="1" stroke-width="3.2"/>
<circle clip-path="url(#clip982)" cx="1371.57" cy="1384.24" r="14" fill="#ff0000" fill-rule="evenodd" fill-opacity="1" stroke="#000000" stroke-opacity="1" stroke-width="3.2"/>
<circle clip-path="url(#clip982)" cx="1474.1" cy="1349.76" r="14" fill="#ff0000" fill-rule="evenodd" fill-opacity="1" stroke="#000000" stroke-opacity="1" stroke-width="3.2"/>
<circle clip-path="url(#clip982)" cx="1576.62" cy="1281.58" r="14" fill="#ff0000" fill-rule="evenodd" fill-opacity="1" stroke="#000000" stroke-opacity="1" stroke-width="3.2"/>
<circle clip-path="url(#clip982)" cx="1679.15" cy="1181.23" r="14" fill="#ff0000" fill-rule="evenodd" fill-opacity="1" stroke="#000000" stroke-opacity="1" stroke-width="3.2"/>
<circle clip-path="url(#clip982)" cx="1781.68" cy="1051.01" r="14" fill="#ff0000" fill-rule="evenodd" fill-opacity="1" stroke="#000000" stroke-opacity="1" stroke-width="3.2"/>
<circle clip-path="url(#clip982)" cx="1884.21" cy="893.991" r="14" fill="#ff0000" fill-rule="evenodd" fill-opacity="1" stroke="#000000" stroke-opacity="1" stroke-width="3.2"/>
<circle clip-path="url(#clip982)" cx="1986.73" cy="714.009" r="14" fill="#ff0000" fill-rule="evenodd" fill-opacity="1" stroke="#000000" stroke-opacity="1" stroke-width="3.2"/>
<circle clip-path="url(#clip982)" cx="2089.26" cy="515.672" r="14" fill="#ff0000" fill-rule="evenodd" fill-opacity="1" stroke="#000000" stroke-opacity="1" stroke-width="3.2"/>
<circle clip-path="url(#clip982)" cx="2191.79" cy="304.351" r="14" fill="#ff0000" fill-rule="evenodd" fill-opacity="1" stroke="#000000" stroke-opacity="1" stroke-width="3.2"/>
<circle clip-path="url(#clip982)" cx="2294.32" cy="86.1857" r="14" fill="#ff0000" fill-rule="evenodd" fill-opacity="1" stroke="#000000" stroke-opacity="1" stroke-width="3.2"/>
<path clip-path="url(#clip980)" d="
M700.833 248.629 L1366.19 248.629 L1366.19 93.1086 L700.833 93.1086  Z
  " fill="#ffffff" fill-rule="evenodd" fill-opacity="1"/>
<polyline clip-path="url(#clip980)" style="stroke:#000000; stroke-linecap:butt; stroke-linejoin:round; stroke-width:4; stroke-opacity:1; fill:none" points="
  700.833,248.629 1366.19,248.629 1366.19,93.1086 700.833,93.1086 700.833,248.629 
  "/>
<polyline clip-path="url(#clip980)" style="stroke:#0000ff; stroke-linecap:butt; stroke-linejoin:round; stroke-width:4; stroke-opacity:1; fill:none" points="
  723.777,144.949 861.437,144.949 
  "/>
<path clip-path="url(#clip980)" d="M900.214 132.275 L893.871 149.474 L906.579 149.474 L900.214 132.275 M897.575 127.669 L902.876 127.669 L916.047 162.229 L911.186 162.229 L908.038 153.363 L892.459 153.363 L889.311 162.229 L884.38 162.229 L897.575 127.669 Z" fill="#000000" fill-rule="evenodd" fill-opacity="1" /><path clip-path="url(#clip980)" d="M942.459 146.581 L942.459 162.229 L938.2 162.229 L938.2 146.719 Q938.2 143.039 936.764 141.21 Q935.329 139.382 932.459 139.382 Q929.01 139.382 927.019 141.581 Q925.028 143.78 925.028 147.576 L925.028 162.229 L920.746 162.229 L920.746 136.303 L925.028 136.303 L925.028 140.331 Q926.556 137.993 928.616 136.835 Q930.7 135.678 933.408 135.678 Q937.875 135.678 940.167 138.456 Q942.459 141.21 942.459 146.581 Z" fill="#000000" fill-rule="evenodd" fill-opacity="1" /><path clip-path="url(#clip980)" d="M962.736 149.196 Q957.574 149.196 955.584 150.377 Q953.593 151.557 953.593 154.405 Q953.593 156.673 955.074 158.016 Q956.579 159.335 959.148 159.335 Q962.69 159.335 964.82 156.835 Q966.973 154.312 966.973 150.145 L966.973 149.196 L962.736 149.196 M971.232 147.437 L971.232 162.229 L966.973 162.229 L966.973 158.293 Q965.514 160.655 963.338 161.789 Q961.162 162.9 958.014 162.9 Q954.033 162.9 951.672 160.678 Q949.334 158.432 949.334 154.682 Q949.334 150.307 952.25 148.085 Q955.19 145.863 961 145.863 L966.973 145.863 L966.973 145.446 Q966.973 142.507 965.028 140.909 Q963.107 139.289 959.611 139.289 Q957.389 139.289 955.283 139.821 Q953.176 140.354 951.232 141.419 L951.232 137.483 Q953.57 136.581 955.769 136.141 Q957.968 135.678 960.051 135.678 Q965.676 135.678 968.454 138.594 Q971.232 141.511 971.232 147.437 Z" fill="#000000" fill-rule="evenodd" fill-opacity="1" /><path clip-path="url(#clip980)" d="M980.005 126.21 L984.264 126.21 L984.264 162.229 L980.005 162.229 L980.005 126.21 Z" fill="#000000" fill-rule="evenodd" fill-opacity="1" /><path clip-path="url(#clip980)" d="M1003.96 164.636 Q1002.16 169.266 1000.44 170.678 Q998.732 172.09 995.861 172.09 L992.458 172.09 L992.458 168.525 L994.958 168.525 Q996.718 168.525 997.69 167.692 Q998.662 166.858 999.843 163.756 L1000.61 161.812 L990.121 136.303 L994.634 136.303 L1002.74 156.581 L1010.84 136.303 L1015.35 136.303 L1003.96 164.636 Z" fill="#000000" fill-rule="evenodd" fill-opacity="1" /><path clip-path="url(#clip980)" d="M1025.44 128.942 L1025.44 136.303 L1034.22 136.303 L1034.22 139.613 L1025.44 139.613 L1025.44 153.687 Q1025.44 156.858 1026.3 157.761 Q1027.18 158.664 1029.84 158.664 L1034.22 158.664 L1034.22 162.229 L1029.84 162.229 Q1024.91 162.229 1023.04 160.4 Q1021.16 158.548 1021.16 153.687 L1021.16 139.613 L1018.04 139.613 L1018.04 136.303 L1021.16 136.303 L1021.16 128.942 L1025.44 128.942 Z" fill="#000000" fill-rule="evenodd" fill-opacity="1" /><path clip-path="url(#clip980)" d="M1039.82 136.303 L1044.08 136.303 L1044.08 162.229 L1039.82 162.229 L1039.82 136.303 M1039.82 126.21 L1044.08 126.21 L1044.08 131.604 L1039.82 131.604 L1039.82 126.21 Z" fill="#000000" fill-rule="evenodd" fill-opacity="1" /><path clip-path="url(#clip980)" d="M1071.65 137.298 L1071.65 141.28 Q1069.84 140.284 1068.01 139.798 Q1066.21 139.289 1064.36 139.289 Q1060.21 139.289 1057.92 141.928 Q1055.63 144.544 1055.63 149.289 Q1055.63 154.034 1057.92 156.673 Q1060.21 159.289 1064.36 159.289 Q1066.21 159.289 1068.01 158.803 Q1069.84 158.293 1071.65 157.298 L1071.65 161.233 Q1069.87 162.067 1067.94 162.483 Q1066.05 162.9 1063.89 162.9 Q1058.04 162.9 1054.59 159.219 Q1051.14 155.539 1051.14 149.289 Q1051.14 142.946 1054.61 139.312 Q1058.11 135.678 1064.17 135.678 Q1066.14 135.678 1068.01 136.095 Q1069.89 136.488 1071.65 137.298 Z" fill="#000000" fill-rule="evenodd" fill-opacity="1" /><path clip-path="url(#clip980)" d="M1090.84 149.196 Q1085.68 149.196 1083.68 150.377 Q1081.69 151.557 1081.69 154.405 Q1081.69 156.673 1083.18 158.016 Q1084.68 159.335 1087.25 159.335 Q1090.79 159.335 1092.92 156.835 Q1095.07 154.312 1095.07 150.145 L1095.07 149.196 L1090.84 149.196 M1099.33 147.437 L1099.33 162.229 L1095.07 162.229 L1095.07 158.293 Q1093.62 160.655 1091.44 161.789 Q1089.26 162.9 1086.12 162.9 Q1082.13 162.9 1079.77 160.678 Q1077.43 158.432 1077.43 154.682 Q1077.43 150.307 1080.35 148.085 Q1083.29 145.863 1089.1 145.863 L1095.07 145.863 L1095.07 145.446 Q1095.07 142.507 1093.13 140.909 Q1091.21 139.289 1087.71 139.289 Q1085.49 139.289 1083.38 139.821 Q1081.28 140.354 1079.33 141.419 L1079.33 137.483 Q1081.67 136.581 1083.87 136.141 Q1086.07 135.678 1088.15 135.678 Q1093.78 135.678 1096.56 138.594 Q1099.33 141.511 1099.33 147.437 Z" fill="#000000" fill-rule="evenodd" fill-opacity="1" /><path clip-path="url(#clip980)" d="M1108.11 126.21 L1112.37 126.21 L1112.37 162.229 L1108.11 162.229 L1108.11 126.21 Z" fill="#000000" fill-rule="evenodd" fill-opacity="1" /><path clip-path="url(#clip980)" d="M1152.87 137.067 L1152.87 141.094 Q1151.07 140.169 1149.12 139.706 Q1147.18 139.243 1145.1 139.243 Q1141.93 139.243 1140.33 140.215 Q1138.75 141.187 1138.75 143.131 Q1138.75 144.613 1139.89 145.469 Q1141.02 146.303 1144.45 147.067 L1145.91 147.391 Q1150.44 148.363 1152.34 150.145 Q1154.26 151.905 1154.26 155.076 Q1154.26 158.687 1151.39 160.793 Q1148.55 162.9 1143.55 162.9 Q1141.46 162.9 1139.19 162.483 Q1136.95 162.09 1134.45 161.28 L1134.45 156.881 Q1136.81 158.108 1139.1 158.733 Q1141.39 159.335 1143.64 159.335 Q1146.65 159.335 1148.27 158.317 Q1149.89 157.275 1149.89 155.4 Q1149.89 153.664 1148.71 152.738 Q1147.55 151.812 1143.59 150.956 L1142.11 150.608 Q1138.15 149.775 1136.39 148.062 Q1134.63 146.326 1134.63 143.317 Q1134.63 139.659 1137.23 137.669 Q1139.82 135.678 1144.59 135.678 Q1146.95 135.678 1149.03 136.025 Q1151.12 136.372 1152.87 137.067 Z" fill="#000000" fill-rule="evenodd" fill-opacity="1" /><path clip-path="url(#clip980)" d="M1171.09 139.289 Q1167.67 139.289 1165.68 141.974 Q1163.68 144.636 1163.68 149.289 Q1163.68 153.942 1165.65 156.627 Q1167.64 159.289 1171.09 159.289 Q1174.49 159.289 1176.49 156.604 Q1178.48 153.918 1178.48 149.289 Q1178.48 144.682 1176.49 141.997 Q1174.49 139.289 1171.09 139.289 M1171.09 135.678 Q1176.65 135.678 1179.82 139.289 Q1182.99 142.9 1182.99 149.289 Q1182.99 155.655 1179.82 159.289 Q1176.65 162.9 1171.09 162.9 Q1165.51 162.9 1162.34 159.289 Q1159.19 155.655 1159.19 149.289 Q1159.19 142.9 1162.34 139.289 Q1165.51 135.678 1171.09 135.678 Z" fill="#000000" fill-rule="evenodd" fill-opacity="1" /><path clip-path="url(#clip980)" d="M1190.05 126.21 L1194.31 126.21 L1194.31 162.229 L1190.05 162.229 L1190.05 126.21 Z" fill="#000000" fill-rule="evenodd" fill-opacity="1" /><path clip-path="url(#clip980)" d="M1202.78 151.997 L1202.78 136.303 L1207.04 136.303 L1207.04 151.835 Q1207.04 155.516 1208.48 157.368 Q1209.91 159.196 1212.78 159.196 Q1216.23 159.196 1218.22 156.997 Q1220.24 154.798 1220.24 151.002 L1220.24 136.303 L1224.49 136.303 L1224.49 162.229 L1220.24 162.229 L1220.24 158.247 Q1218.68 160.608 1216.62 161.766 Q1214.59 162.9 1211.88 162.9 Q1207.41 162.9 1205.1 160.122 Q1202.78 157.344 1202.78 151.997 M1213.5 135.678 L1213.5 135.678 Z" fill="#000000" fill-rule="evenodd" fill-opacity="1" /><path clip-path="url(#clip980)" d="M1237.48 128.942 L1237.48 136.303 L1246.25 136.303 L1246.25 139.613 L1237.48 139.613 L1237.48 153.687 Q1237.48 156.858 1238.34 157.761 Q1239.22 158.664 1241.88 158.664 L1246.25 158.664 L1246.25 162.229 L1241.88 162.229 Q1236.95 162.229 1235.07 160.4 Q1233.2 158.548 1233.2 153.687 L1233.2 139.613 L1230.07 139.613 L1230.07 136.303 L1233.2 136.303 L1233.2 128.942 L1237.48 128.942 Z" fill="#000000" fill-rule="evenodd" fill-opacity="1" /><path clip-path="url(#clip980)" d="M1251.86 136.303 L1256.11 136.303 L1256.11 162.229 L1251.86 162.229 L1251.86 136.303 M1251.86 126.21 L1256.11 126.21 L1256.11 131.604 L1251.86 131.604 L1251.86 126.21 Z" fill="#000000" fill-rule="evenodd" fill-opacity="1" /><path clip-path="url(#clip980)" d="M1275.07 139.289 Q1271.65 139.289 1269.66 141.974 Q1267.67 144.636 1267.67 149.289 Q1267.67 153.942 1269.63 156.627 Q1271.62 159.289 1275.07 159.289 Q1278.48 159.289 1280.47 156.604 Q1282.46 153.918 1282.46 149.289 Q1282.46 144.682 1280.47 141.997 Q1278.48 139.289 1275.07 139.289 M1275.07 135.678 Q1280.63 135.678 1283.8 139.289 Q1286.97 142.9 1286.97 149.289 Q1286.97 155.655 1283.8 159.289 Q1280.63 162.9 1275.07 162.9 Q1269.49 162.9 1266.32 159.289 Q1263.17 155.655 1263.17 149.289 Q1263.17 142.9 1266.32 139.289 Q1269.49 135.678 1275.07 135.678 Z" fill="#000000" fill-rule="evenodd" fill-opacity="1" /><path clip-path="url(#clip980)" d="M1315.58 146.581 L1315.58 162.229 L1311.32 162.229 L1311.32 146.719 Q1311.32 143.039 1309.89 141.21 Q1308.45 139.382 1305.58 139.382 Q1302.13 139.382 1300.14 141.581 Q1298.15 143.78 1298.15 147.576 L1298.15 162.229 L1293.87 162.229 L1293.87 136.303 L1298.15 136.303 L1298.15 140.331 Q1299.68 137.993 1301.74 136.835 Q1303.82 135.678 1306.53 135.678 Q1311 135.678 1313.29 138.456 Q1315.58 141.21 1315.58 146.581 Z" fill="#000000" fill-rule="evenodd" fill-opacity="1" /><circle clip-path="url(#clip980)" cx="792.607" cy="196.789" r="23" fill="#ff0000" fill-rule="evenodd" fill-opacity="1" stroke="#000000" stroke-opacity="1" stroke-width="5.12"/>
<path clip-path="url(#clip980)" d="M884.38 179.509 L890.677 179.509 L906.001 208.421 L906.001 179.509 L910.538 179.509 L910.538 214.069 L904.241 214.069 L888.917 185.157 L888.917 214.069 L884.38 214.069 L884.38 179.509 Z" fill="#000000" fill-rule="evenodd" fill-opacity="1" /><path clip-path="url(#clip980)" d="M919.218 203.837 L919.218 188.143 L923.477 188.143 L923.477 203.675 Q923.477 207.356 924.913 209.208 Q926.348 211.036 929.218 211.036 Q932.667 211.036 934.658 208.837 Q936.672 206.638 936.672 202.842 L936.672 188.143 L940.931 188.143 L940.931 214.069 L936.672 214.069 L936.672 210.087 Q935.121 212.448 933.061 213.606 Q931.024 214.74 928.315 214.74 Q923.848 214.74 921.533 211.962 Q919.218 209.184 919.218 203.837 M929.936 187.518 L929.936 187.518 Z" fill="#000000" fill-rule="evenodd" fill-opacity="1" /><path clip-path="url(#clip980)" d="M969.889 193.12 Q971.486 190.249 973.709 188.884 Q975.931 187.518 978.94 187.518 Q982.991 187.518 985.19 190.365 Q987.389 193.189 987.389 198.421 L987.389 214.069 L983.107 214.069 L983.107 198.559 Q983.107 194.833 981.787 193.027 Q980.468 191.222 977.759 191.222 Q974.449 191.222 972.528 193.421 Q970.607 195.62 970.607 199.416 L970.607 214.069 L966.324 214.069 L966.324 198.559 Q966.324 194.809 965.005 193.027 Q963.685 191.222 960.931 191.222 Q957.667 191.222 955.746 193.444 Q953.824 195.643 953.824 199.416 L953.824 214.069 L949.542 214.069 L949.542 188.143 L953.824 188.143 L953.824 192.171 Q955.283 189.786 957.32 188.652 Q959.357 187.518 962.158 187.518 Q964.982 187.518 966.949 188.953 Q968.94 190.388 969.889 193.12 Z" fill="#000000" fill-rule="evenodd" fill-opacity="1" /><path clip-path="url(#clip980)" d="M1018.06 200.041 L1018.06 202.124 L998.477 202.124 Q998.755 206.522 1001.12 208.837 Q1003.5 211.129 1007.74 211.129 Q1010.19 211.129 1012.48 210.527 Q1014.8 209.925 1017.06 208.721 L1017.06 212.749 Q1014.77 213.721 1012.37 214.231 Q1009.96 214.74 1007.48 214.74 Q1001.28 214.74 997.644 211.129 Q994.033 207.518 994.033 201.36 Q994.033 194.995 997.458 191.268 Q1000.91 187.518 1006.74 187.518 Q1011.97 187.518 1015 190.897 Q1018.06 194.254 1018.06 200.041 M1013.8 198.791 Q1013.75 195.296 1011.83 193.212 Q1009.94 191.129 1006.79 191.129 Q1003.22 191.129 1001.07 193.143 Q998.94 195.157 998.616 198.814 L1013.8 198.791 Z" fill="#000000" fill-rule="evenodd" fill-opacity="1" /><path clip-path="url(#clip980)" d="M1040.07 192.124 Q1039.36 191.708 1038.5 191.522 Q1037.67 191.314 1036.65 191.314 Q1033.04 191.314 1031.09 193.675 Q1029.17 196.013 1029.17 200.411 L1029.17 214.069 L1024.89 214.069 L1024.89 188.143 L1029.17 188.143 L1029.17 192.171 Q1030.51 189.809 1032.67 188.675 Q1034.82 187.518 1037.9 187.518 Q1038.34 187.518 1038.87 187.587 Q1039.4 187.634 1040.05 187.749 L1040.07 192.124 Z" fill="#000000" fill-rule="evenodd" fill-opacity="1" /><path clip-path="url(#clip980)" d="M1044.54 188.143 L1048.8 188.143 L1048.8 214.069 L1044.54 214.069 L1044.54 188.143 M1044.54 178.05 L1048.8 178.05 L1048.8 183.444 L1044.54 183.444 L1044.54 178.05 Z" fill="#000000" fill-rule="evenodd" fill-opacity="1" /><path clip-path="url(#clip980)" d="M1076.37 189.138 L1076.37 193.12 Q1074.56 192.124 1072.74 191.638 Q1070.93 191.129 1069.08 191.129 Q1064.93 191.129 1062.64 193.768 Q1060.35 196.384 1060.35 201.129 Q1060.35 205.874 1062.64 208.513 Q1064.93 211.129 1069.08 211.129 Q1070.93 211.129 1072.74 210.643 Q1074.56 210.133 1076.37 209.138 L1076.37 213.073 Q1074.59 213.907 1072.67 214.323 Q1070.77 214.74 1068.62 214.74 Q1062.76 214.74 1059.31 211.059 Q1055.86 207.379 1055.86 201.129 Q1055.86 194.786 1059.33 191.152 Q1062.83 187.518 1068.89 187.518 Q1070.86 187.518 1072.74 187.935 Q1074.61 188.328 1076.37 189.138 Z" fill="#000000" fill-rule="evenodd" fill-opacity="1" /><path clip-path="url(#clip980)" d="M1095.56 201.036 Q1090.4 201.036 1088.41 202.217 Q1086.42 203.397 1086.42 206.245 Q1086.42 208.513 1087.9 209.856 Q1089.4 211.175 1091.97 211.175 Q1095.51 211.175 1097.64 208.675 Q1099.8 206.152 1099.8 201.985 L1099.8 201.036 L1095.56 201.036 M1104.06 199.277 L1104.06 214.069 L1099.8 214.069 L1099.8 210.133 Q1098.34 212.495 1096.16 213.629 Q1093.99 214.74 1090.84 214.74 Q1086.86 214.74 1084.5 212.518 Q1082.16 210.272 1082.16 206.522 Q1082.16 202.147 1085.07 199.925 Q1088.01 197.703 1093.82 197.703 L1099.8 197.703 L1099.8 197.286 Q1099.8 194.347 1097.85 192.749 Q1095.93 191.129 1092.43 191.129 Q1090.21 191.129 1088.11 191.661 Q1086 192.194 1084.06 193.259 L1084.06 189.323 Q1086.39 188.421 1088.59 187.981 Q1090.79 187.518 1092.87 187.518 Q1098.5 187.518 1101.28 190.434 Q1104.06 193.351 1104.06 199.277 Z" fill="#000000" fill-rule="evenodd" fill-opacity="1" /><path clip-path="url(#clip980)" d="M1112.83 178.05 L1117.09 178.05 L1117.09 214.069 L1112.83 214.069 L1112.83 178.05 Z" fill="#000000" fill-rule="evenodd" fill-opacity="1" /><path clip-path="url(#clip980)" d="M1157.6 188.907 L1157.6 192.934 Q1155.79 192.009 1153.85 191.546 Q1151.9 191.083 1149.82 191.083 Q1146.65 191.083 1145.05 192.055 Q1143.48 193.027 1143.48 194.971 Q1143.48 196.453 1144.61 197.309 Q1145.74 198.143 1149.17 198.907 L1150.63 199.231 Q1155.17 200.203 1157.06 201.985 Q1158.99 203.745 1158.99 206.916 Q1158.99 210.527 1156.12 212.633 Q1153.27 214.74 1148.27 214.74 Q1146.18 214.74 1143.92 214.323 Q1141.67 213.93 1139.17 213.12 L1139.17 208.721 Q1141.53 209.948 1143.82 210.573 Q1146.12 211.175 1148.36 211.175 Q1151.37 211.175 1152.99 210.157 Q1154.61 209.115 1154.61 207.24 Q1154.61 205.504 1153.43 204.578 Q1152.27 203.652 1148.31 202.796 L1146.83 202.448 Q1142.87 201.615 1141.12 199.902 Q1139.36 198.166 1139.36 195.157 Q1139.36 191.499 1141.95 189.509 Q1144.54 187.518 1149.31 187.518 Q1151.67 187.518 1153.75 187.865 Q1155.84 188.212 1157.6 188.907 Z" fill="#000000" fill-rule="evenodd" fill-opacity="1" /><path clip-path="url(#clip980)" d="M1175.81 191.129 Q1172.39 191.129 1170.4 193.814 Q1168.41 196.476 1168.41 201.129 Q1168.41 205.782 1170.37 208.467 Q1172.36 211.129 1175.81 211.129 Q1179.22 211.129 1181.21 208.444 Q1183.2 205.758 1183.2 201.129 Q1183.2 196.522 1181.21 193.837 Q1179.22 191.129 1175.81 191.129 M1175.81 187.518 Q1181.37 187.518 1184.54 191.129 Q1187.71 194.74 1187.71 201.129 Q1187.71 207.495 1184.54 211.129 Q1181.37 214.74 1175.81 214.74 Q1170.24 214.74 1167.06 211.129 Q1163.92 207.495 1163.92 201.129 Q1163.92 194.74 1167.06 191.129 Q1170.24 187.518 1175.81 187.518 Z" fill="#000000" fill-rule="evenodd" fill-opacity="1" /><path clip-path="url(#clip980)" d="M1194.77 178.05 L1199.03 178.05 L1199.03 214.069 L1194.77 214.069 L1194.77 178.05 Z" fill="#000000" fill-rule="evenodd" fill-opacity="1" /><path clip-path="url(#clip980)" d="M1207.5 203.837 L1207.5 188.143 L1211.76 188.143 L1211.76 203.675 Q1211.76 207.356 1213.2 209.208 Q1214.63 211.036 1217.5 211.036 Q1220.95 211.036 1222.94 208.837 Q1224.96 206.638 1224.96 202.842 L1224.96 188.143 L1229.22 188.143 L1229.22 214.069 L1224.96 214.069 L1224.96 210.087 Q1223.41 212.448 1221.35 213.606 Q1219.31 214.74 1216.6 214.74 Q1212.13 214.74 1209.82 211.962 Q1207.5 209.184 1207.5 203.837 M1218.22 187.518 L1218.22 187.518 Z" fill="#000000" fill-rule="evenodd" fill-opacity="1" /><path clip-path="url(#clip980)" d="M1242.2 180.782 L1242.2 188.143 L1250.98 188.143 L1250.98 191.453 L1242.2 191.453 L1242.2 205.527 Q1242.2 208.698 1243.06 209.601 Q1243.94 210.504 1246.6 210.504 L1250.98 210.504 L1250.98 214.069 L1246.6 214.069 Q1241.67 214.069 1239.8 212.24 Q1237.92 210.388 1237.92 205.527 L1237.92 191.453 L1234.8 191.453 L1234.8 188.143 L1237.92 188.143 L1237.92 180.782 L1242.2 180.782 Z" fill="#000000" fill-rule="evenodd" fill-opacity="1" /><path clip-path="url(#clip980)" d="M1256.58 188.143 L1260.84 188.143 L1260.84 214.069 L1256.58 214.069 L1256.58 188.143 M1256.58 178.05 L1260.84 178.05 L1260.84 183.444 L1256.58 183.444 L1256.58 178.05 Z" fill="#000000" fill-rule="evenodd" fill-opacity="1" /><path clip-path="url(#clip980)" d="M1279.79 191.129 Q1276.37 191.129 1274.38 193.814 Q1272.39 196.476 1272.39 201.129 Q1272.39 205.782 1274.36 208.467 Q1276.35 211.129 1279.79 211.129 Q1283.2 211.129 1285.19 208.444 Q1287.18 205.758 1287.18 201.129 Q1287.18 196.522 1285.19 193.837 Q1283.2 191.129 1279.79 191.129 M1279.79 187.518 Q1285.35 187.518 1288.52 191.129 Q1291.69 194.74 1291.69 201.129 Q1291.69 207.495 1288.52 211.129 Q1285.35 214.74 1279.79 214.74 Q1274.22 214.74 1271.04 211.129 Q1267.9 207.495 1267.9 201.129 Q1267.9 194.74 1271.04 191.129 Q1274.22 187.518 1279.79 187.518 Z" fill="#000000" fill-rule="evenodd" fill-opacity="1" /><path clip-path="url(#clip980)" d="M1320.3 198.421 L1320.3 214.069 L1316.04 214.069 L1316.04 198.559 Q1316.04 194.879 1314.61 193.05 Q1313.17 191.222 1310.3 191.222 Q1306.85 191.222 1304.86 193.421 Q1302.87 195.62 1302.87 199.416 L1302.87 214.069 L1298.59 214.069 L1298.59 188.143 L1302.87 188.143 L1302.87 192.171 Q1304.4 189.833 1306.46 188.675 Q1308.54 187.518 1311.25 187.518 Q1315.72 187.518 1318.01 190.296 Q1320.3 193.05 1320.3 198.421 Z" fill="#000000" fill-rule="evenodd" fill-opacity="1" /></svg>
