<?xml version="1.0" encoding="utf-8"?>
<svg xmlns="http://www.w3.org/2000/svg" xmlns:xlink="http://www.w3.org/1999/xlink" width="600" height="400" viewBox="0 0 2400 1600">
<defs>
  <clipPath id="clip670">
    <rect x="0" y="0" width="2400" height="1600"/>
  </clipPath>
</defs>
<path clip-path="url(#clip670)" d="
M0 1600 L2400 1600 L2400 0 L0 0  Z
  " fill="#ffffff" fill-rule="evenodd" fill-opacity="1"/>
<defs>
  <clipPath id="clip671">
    <rect x="480" y="0" width="1681" height="1600"/>
  </clipPath>
</defs>
<path clip-path="url(#clip670)" d="
M287.852 1423.18 L2352.76 1423.18 L2352.76 47.2441 L287.852 47.2441  Z
  " fill="#ffffff" fill-rule="evenodd" fill-opacity="1"/>
<defs>
  <clipPath id="clip672">
    <rect x="287" y="47" width="2066" height="1377"/>
  </clipPath>
</defs>
<polyline clip-path="url(#clip672)" style="stroke:#000000; stroke-linecap:butt; stroke-linejoin:round; stroke-width:2; stroke-opacity:0.1; fill:none" points="
  346.293,1423.18 346.293,47.2441 
  "/>
<polyline clip-path="url(#clip672)" style="stroke:#000000; stroke-linecap:butt; stroke-linejoin:round; stroke-width:2; stroke-opacity:0.1; fill:none" points="
  833.298,1423.18 833.298,47.2441 
  "/>
<polyline clip-path="url(#clip672)" style="stroke:#000000; stroke-linecap:butt; stroke-linejoin:round; stroke-width:2; stroke-opacity:0.1; fill:none" points="
  1320.3,1423.18 1320.3,47.2441 
  "/>
<polyline clip-path="url(#clip672)" style="stroke:#000000; stroke-linecap:butt; stroke-linejoin:round; stroke-width:2; stroke-opacity:0.1; fill:none" points="
  1807.31,1423.18 1807.31,47.2441 
  "/>
<polyline clip-path="url(#clip672)" style="stroke:#000000; stroke-linecap:butt; stroke-linejoin:round; stroke-width:2; stroke-opacity:0.1; fill:none" points="
  2294.32,1423.18 2294.32,47.2441 
  "/>
<polyline clip-path="url(#clip670)" style="stroke:#000000; stroke-linecap:butt; stroke-linejoin:round; stroke-width:4; stroke-opacity:1; fill:none" points="
  287.852,1423.18 2352.76,1423.18 
  "/>
<polyline clip-path="url(#clip670)" style="stroke:#000000; stroke-linecap:butt; stroke-linejoin:round; stroke-width:4; stroke-opacity:1; fill:none" points="
  346.293,1423.18 346.293,1404.28 
  "/>
<polyline clip-path="url(#clip670)" style="stroke:#000000; stroke-linecap:butt; stroke-linejoin:round; stroke-width:4; stroke-opacity:1; fill:none" points="
  833.298,1423.18 833.298,1404.28 
  "/>
<polyline clip-path="url(#clip670)" style="stroke:#000000; stroke-linecap:butt; stroke-linejoin:round; stroke-width:4; stroke-opacity:1; fill:none" points="
  1320.3,1423.18 1320.3,1404.28 
  "/>
<polyline clip-path="url(#clip670)" style="stroke:#000000; stroke-linecap:butt; stroke-linejoin:round; stroke-width:4; stroke-opacity:1; fill:none" points="
  1807.31,1423.18 1807.31,1404.28 
  "/>
<polyline clip-path="url(#clip670)" style="stroke:#000000; stroke-linecap:butt; stroke-linejoin:round; stroke-width:4; stroke-opacity:1; fill:none" points="
  2294.32,1423.18 2294.32,1404.28 
  "/>
<path clip-path="url(#clip670)" d="M308.596 1454.1 Q304.985 1454.1 303.156 1457.66 Q301.351 1461.2 301.351 1468.33 Q301.351 1475.44 303.156 1479.01 Q304.985 1482.55 308.596 1482.55 Q312.23 1482.55 314.036 1479.01 Q315.865 1475.44 315.865 1468.33 Q315.865 1461.2 314.036 1457.66 Q312.23 1454.1 308.596 1454.1 M308.596 1450.39 Q314.406 1450.39 317.462 1455 Q320.541 1459.58 320.541 1468.33 Q320.541 1477.06 317.462 1481.67 Q314.406 1486.25 308.596 1486.25 Q302.786 1486.25 299.707 1481.67 Q296.652 1477.06 296.652 1468.33 Q296.652 1459.58 299.707 1455 Q302.786 1450.39 308.596 1450.39 Z" fill="#000000" fill-rule="evenodd" fill-opacity="1" /><path clip-path="url(#clip670)" d="M328.758 1479.7 L333.642 1479.7 L333.642 1485.58 L328.758 1485.58 L328.758 1479.7 Z" fill="#000000" fill-rule="evenodd" fill-opacity="1" /><path clip-path="url(#clip670)" d="M353.827 1454.1 Q350.216 1454.1 348.388 1457.66 Q346.582 1461.2 346.582 1468.33 Q346.582 1475.44 348.388 1479.01 Q350.216 1482.55 353.827 1482.55 Q357.462 1482.55 359.267 1479.01 Q361.096 1475.44 361.096 1468.33 Q361.096 1461.2 359.267 1457.66 Q357.462 1454.1 353.827 1454.1 M353.827 1450.39 Q359.638 1450.39 362.693 1455 Q365.772 1459.58 365.772 1468.33 Q365.772 1477.06 362.693 1481.67 Q359.638 1486.25 353.827 1486.25 Q348.017 1486.25 344.939 1481.67 Q341.883 1477.06 341.883 1468.33 Q341.883 1459.58 344.939 1455 Q348.017 1450.39 353.827 1450.39 Z" fill="#000000" fill-rule="evenodd" fill-opacity="1" /><path clip-path="url(#clip670)" d="M383.989 1454.1 Q380.378 1454.1 378.549 1457.66 Q376.744 1461.2 376.744 1468.33 Q376.744 1475.44 378.549 1479.01 Q380.378 1482.55 383.989 1482.55 Q387.623 1482.55 389.429 1479.01 Q391.258 1475.44 391.258 1468.33 Q391.258 1461.2 389.429 1457.66 Q387.623 1454.1 383.989 1454.1 M383.989 1450.39 Q389.799 1450.39 392.855 1455 Q395.934 1459.58 395.934 1468.33 Q395.934 1477.06 392.855 1481.67 Q389.799 1486.25 383.989 1486.25 Q378.179 1486.25 375.1 1481.67 Q372.045 1477.06 372.045 1468.33 Q372.045 1459.58 375.1 1455 Q378.179 1450.39 383.989 1450.39 Z" fill="#000000" fill-rule="evenodd" fill-opacity="1" /><path clip-path="url(#clip670)" d="M796.099 1454.1 Q792.488 1454.1 790.66 1457.66 Q788.854 1461.2 788.854 1468.33 Q788.854 1475.44 790.66 1479.01 Q792.488 1482.55 796.099 1482.55 Q799.734 1482.55 801.539 1479.01 Q803.368 1475.44 803.368 1468.33 Q803.368 1461.2 801.539 1457.66 Q799.734 1454.1 796.099 1454.1 M796.099 1450.39 Q801.91 1450.39 804.965 1455 Q808.044 1459.58 808.044 1468.33 Q808.044 1477.06 804.965 1481.67 Q801.91 1486.25 796.099 1486.25 Q790.289 1486.25 787.211 1481.67 Q784.155 1477.06 784.155 1468.33 Q784.155 1459.58 787.211 1455 Q790.289 1450.39 796.099 1450.39 Z" fill="#000000" fill-rule="evenodd" fill-opacity="1" /><path clip-path="url(#clip670)" d="M816.261 1479.7 L821.146 1479.7 L821.146 1485.58 L816.261 1485.58 L816.261 1479.7 Z" fill="#000000" fill-rule="evenodd" fill-opacity="1" /><path clip-path="url(#clip670)" d="M835.358 1481.64 L851.678 1481.64 L851.678 1485.58 L829.734 1485.58 L829.734 1481.64 Q832.396 1478.89 836.979 1474.26 Q841.585 1469.61 842.766 1468.27 Q845.011 1465.74 845.891 1464.01 Q846.794 1462.25 846.794 1460.56 Q846.794 1457.8 844.849 1456.07 Q842.928 1454.33 839.826 1454.33 Q837.627 1454.33 835.173 1455.09 Q832.743 1455.86 829.965 1457.41 L829.965 1452.69 Q832.789 1451.55 835.243 1450.97 Q837.696 1450.39 839.733 1450.39 Q845.104 1450.39 848.298 1453.08 Q851.493 1455.77 851.493 1460.26 Q851.493 1462.39 850.682 1464.31 Q849.895 1466.2 847.789 1468.8 Q847.21 1469.47 844.108 1472.69 Q841.007 1475.88 835.358 1481.64 Z" fill="#000000" fill-rule="evenodd" fill-opacity="1" /><path clip-path="url(#clip670)" d="M861.539 1451.02 L879.895 1451.02 L879.895 1454.96 L865.821 1454.96 L865.821 1463.43 Q866.84 1463.08 867.858 1462.92 Q868.877 1462.73 869.895 1462.73 Q875.682 1462.73 879.062 1465.9 Q882.442 1469.08 882.442 1474.49 Q882.442 1480.07 878.969 1483.17 Q875.497 1486.25 869.178 1486.25 Q867.002 1486.25 864.733 1485.88 Q862.488 1485.51 860.081 1484.77 L860.081 1480.07 Q862.164 1481.2 864.386 1481.76 Q866.608 1482.32 869.085 1482.32 Q873.09 1482.32 875.428 1480.21 Q877.766 1478.1 877.766 1474.49 Q877.766 1470.88 875.428 1468.77 Q873.09 1466.67 869.085 1466.67 Q867.21 1466.67 865.335 1467.08 Q863.483 1467.5 861.539 1468.38 L861.539 1451.02 Z" fill="#000000" fill-rule="evenodd" fill-opacity="1" /><path clip-path="url(#clip670)" d="M1282.61 1454.1 Q1279 1454.1 1277.17 1457.66 Q1275.36 1461.2 1275.36 1468.33 Q1275.36 1475.44 1277.17 1479.01 Q1279 1482.55 1282.61 1482.55 Q1286.24 1482.55 1288.05 1479.01 Q1289.88 1475.44 1289.88 1468.33 Q1289.88 1461.2 1288.05 1457.66 Q1286.24 1454.1 1282.61 1454.1 M1282.61 1450.39 Q1288.42 1450.39 1291.47 1455 Q1294.55 1459.58 1294.55 1468.33 Q1294.55 1477.06 1291.47 1481.67 Q1288.42 1486.25 1282.61 1486.25 Q1276.8 1486.25 1273.72 1481.67 Q1270.66 1477.06 1270.66 1468.33 Q1270.66 1459.58 1273.72 1455 Q1276.8 1450.39 1282.61 1450.39 Z" fill="#000000" fill-rule="evenodd" fill-opacity="1" /><path clip-path="url(#clip670)" d="M1302.77 1479.7 L1307.65 1479.7 L1307.65 1485.58 L1302.77 1485.58 L1302.77 1479.7 Z" fill="#000000" fill-rule="evenodd" fill-opacity="1" /><path clip-path="url(#clip670)" d="M1317.88 1451.02 L1336.24 1451.02 L1336.24 1454.96 L1322.17 1454.96 L1322.17 1463.43 Q1323.19 1463.08 1324.2 1462.92 Q1325.22 1462.73 1326.24 1462.73 Q1332.03 1462.73 1335.41 1465.9 Q1338.79 1469.08 1338.79 1474.49 Q1338.79 1480.07 1335.32 1483.17 Q1331.84 1486.25 1325.52 1486.25 Q1323.35 1486.25 1321.08 1485.88 Q1318.83 1485.51 1316.43 1484.77 L1316.43 1480.07 Q1318.51 1481.2 1320.73 1481.76 Q1322.95 1482.32 1325.43 1482.32 Q1329.44 1482.32 1331.77 1480.21 Q1334.11 1478.1 1334.11 1474.49 Q1334.11 1470.88 1331.77 1468.77 Q1329.44 1466.67 1325.43 1466.67 Q1323.56 1466.67 1321.68 1467.08 Q1319.83 1467.5 1317.88 1468.38 L1317.88 1451.02 Z" fill="#000000" fill-rule="evenodd" fill-opacity="1" /><path clip-path="url(#clip670)" d="M1358 1454.1 Q1354.39 1454.1 1352.56 1457.66 Q1350.76 1461.2 1350.76 1468.33 Q1350.76 1475.44 1352.56 1479.01 Q1354.39 1482.55 1358 1482.55 Q1361.63 1482.55 1363.44 1479.01 Q1365.27 1475.44 1365.27 1468.33 Q1365.27 1461.2 1363.44 1457.66 Q1361.63 1454.1 1358 1454.1 M1358 1450.39 Q1363.81 1450.39 1366.87 1455 Q1369.94 1459.58 1369.94 1468.33 Q1369.94 1477.06 1366.87 1481.67 Q1363.81 1486.25 1358 1486.25 Q1352.19 1486.25 1349.11 1481.67 Q1346.06 1477.06 1346.06 1468.33 Q1346.06 1459.58 1349.11 1455 Q1352.19 1450.39 1358 1450.39 Z" fill="#000000" fill-rule="evenodd" fill-opacity="1" /><path clip-path="url(#clip670)" d="M1770.11 1454.1 Q1766.5 1454.1 1764.67 1457.66 Q1762.87 1461.2 1762.87 1468.33 Q1762.87 1475.44 1764.67 1479.01 Q1766.5 1482.55 1770.11 1482.55 Q1773.74 1482.55 1775.55 1479.01 Q1777.38 1475.44 1777.38 1468.33 Q1777.38 1461.2 1775.55 1457.66 Q1773.74 1454.1 1770.11 1454.1 M1770.11 1450.39 Q1775.92 1450.39 1778.98 1455 Q1782.06 1459.58 1782.06 1468.33 Q1782.06 1477.06 1778.98 1481.67 Q1775.92 1486.25 1770.11 1486.25 Q1764.3 1486.25 1761.22 1481.67 Q1758.17 1477.06 1758.17 1468.33 Q1758.17 1459.58 1761.22 1455 Q1764.3 1450.39 1770.11 1450.39 Z" fill="#000000" fill-rule="evenodd" fill-opacity="1" /><path clip-path="url(#clip670)" d="M1790.27 1479.7 L1795.16 1479.7 L1795.16 1485.58 L1790.27 1485.58 L1790.27 1479.7 Z" fill="#000000" fill-rule="evenodd" fill-opacity="1" /><path clip-path="url(#clip670)" d="M1804.16 1451.02 L1826.38 1451.02 L1826.38 1453.01 L1813.84 1485.58 L1808.95 1485.58 L1820.76 1454.96 L1804.16 1454.96 L1804.16 1451.02 Z" fill="#000000" fill-rule="evenodd" fill-opacity="1" /><path clip-path="url(#clip670)" d="M1835.55 1451.02 L1853.91 1451.02 L1853.91 1454.96 L1839.83 1454.96 L1839.83 1463.43 Q1840.85 1463.08 1841.87 1462.92 Q1842.89 1462.73 1843.91 1462.73 Q1849.69 1462.73 1853.07 1465.9 Q1856.45 1469.08 1856.45 1474.49 Q1856.45 1480.07 1852.98 1483.17 Q1849.51 1486.25 1843.19 1486.25 Q1841.01 1486.25 1838.74 1485.88 Q1836.5 1485.51 1834.09 1484.77 L1834.09 1480.07 Q1836.18 1481.2 1838.4 1481.76 Q1840.62 1482.32 1843.1 1482.32 Q1847.1 1482.32 1849.44 1480.21 Q1851.78 1478.1 1851.78 1474.49 Q1851.78 1470.88 1849.44 1468.77 Q1847.1 1466.67 1843.1 1466.67 Q1841.22 1466.67 1839.35 1467.08 Q1837.49 1467.5 1835.55 1468.38 L1835.55 1451.02 Z" fill="#000000" fill-rule="evenodd" fill-opacity="1" /><path clip-path="url(#clip670)" d="M2246.39 1481.64 L2254.03 1481.64 L2254.03 1455.28 L2245.72 1456.95 L2245.72 1452.69 L2253.98 1451.02 L2258.66 1451.02 L2258.66 1481.64 L2266.29 1481.64 L2266.29 1485.58 L2246.39 1485.58 L2246.39 1481.64 Z" fill="#000000" fill-rule="evenodd" fill-opacity="1" /><path clip-path="url(#clip670)" d="M2275.74 1479.7 L2280.62 1479.7 L2280.62 1485.58 L2275.74 1485.58 L2275.74 1479.7 Z" fill="#000000" fill-rule="evenodd" fill-opacity="1" /><path clip-path="url(#clip670)" d="M2300.81 1454.1 Q2297.2 1454.1 2295.37 1457.66 Q2293.56 1461.2 2293.56 1468.33 Q2293.56 1475.44 2295.37 1479.01 Q2297.2 1482.55 2300.81 1482.55 Q2304.44 1482.55 2306.25 1479.01 Q2308.08 1475.44 2308.08 1468.33 Q2308.08 1461.2 2306.25 1457.66 Q2304.44 1454.1 2300.81 1454.1 M2300.81 1450.39 Q2306.62 1450.39 2309.67 1455 Q2312.75 1459.58 2312.75 1468.33 Q2312.75 1477.06 2309.67 1481.67 Q2306.62 1486.25 2300.81 1486.25 Q2295 1486.25 2291.92 1481.67 Q2288.86 1477.06 2288.86 1468.33 Q2288.86 1459.58 2291.92 1455 Q2295 1450.39 2300.81 1450.39 Z" fill="#000000" fill-rule="evenodd" fill-opacity="1" /><path clip-path="url(#clip670)" d="M2330.97 1454.1 Q2327.36 1454.1 2325.53 1457.66 Q2323.72 1461.2 2323.72 1468.33 Q2323.72 1475.44 2325.53 1479.01 Q2327.36 1482.55 2330.97 1482.55 Q2334.6 1482.55 2336.41 1479.01 Q2338.24 1475.44 2338.24 1468.33 Q2338.24 1461.2 2336.41 1457.66 Q2334.6 1454.1 2330.97 1454.1 M2330.97 1450.39 Q2336.78 1450.39 2339.84 1455 Q2342.91 1459.58 2342.91 1468.33 Q2342.91 1477.06 2339.84 1481.67 Q2336.78 1486.25 2330.97 1486.25 Q2325.16 1486.25 2322.08 1481.67 Q2319.03 1477.06 2319.03 1468.33 Q2319.03 1459.58 2322.08 1455 Q2325.16 1450.39 2330.97 1450.39 Z" fill="#000000" fill-rule="evenodd" fill-opacity="1" /><path clip-path="url(#clip670)" d="M1336.92 1532.4 L1324.03 1549.74 L1337.59 1568.04 L1330.68 1568.04 L1320.3 1554.04 L1309.93 1568.04 L1303.02 1568.04 L1316.87 1549.39 L1304.2 1532.4 L1311.11 1532.4 L1320.56 1545.1 L1330.01 1532.4 L1336.92 1532.4 Z" fill="#000000" fill-rule="evenodd" fill-opacity="1" /><polyline clip-path="url(#clip672)" style="stroke:#000000; stroke-linecap:butt; stroke-linejoin:round; stroke-width:2; stroke-opacity:0.1; fill:none" points="
  287.852,1415.39 2352.76,1415.39 
  "/>
<polyline clip-path="url(#clip672)" style="stroke:#000000; stroke-linecap:butt; stroke-linejoin:round; stroke-width:2; stroke-opacity:0.1; fill:none" points="
  287.852,1083.09 2352.76,1083.09 
  "/>
<polyline clip-path="url(#clip672)" style="stroke:#000000; stroke-linecap:butt; stroke-linejoin:round; stroke-width:2; stroke-opacity:0.1; fill:none" points="
  287.852,750.79 2352.76,750.79 
  "/>
<polyline clip-path="url(#clip672)" style="stroke:#000000; stroke-linecap:butt; stroke-linejoin:round; stroke-width:2; stroke-opacity:0.1; fill:none" points="
  287.852,418.488 2352.76,418.488 
  "/>
<polyline clip-path="url(#clip672)" style="stroke:#000000; stroke-linecap:butt; stroke-linejoin:round; stroke-width:2; stroke-opacity:0.1; fill:none" points="
  287.852,86.1857 2352.76,86.1857 
  "/>
<polyline clip-path="url(#clip670)" style="stroke:#000000; stroke-linecap:butt; stroke-linejoin:round; stroke-width:4; stroke-opacity:1; fill:none" points="
  287.852,1423.18 287.852,47.2441 
  "/>
<polyline clip-path="url(#clip670)" style="stroke:#000000; stroke-linecap:butt; stroke-linejoin:round; stroke-width:4; stroke-opacity:1; fill:none" points="
  287.852,1415.39 306.75,1415.39 
  "/>
<polyline clip-path="url(#clip670)" style="stroke:#000000; stroke-linecap:butt; stroke-linejoin:round; stroke-width:4; stroke-opacity:1; fill:none" points="
  287.852,1083.09 306.75,1083.09 
  "/>
<polyline clip-path="url(#clip670)" style="stroke:#000000; stroke-linecap:butt; stroke-linejoin:round; stroke-width:4; stroke-opacity:1; fill:none" points="
  287.852,750.79 306.75,750.79 
  "/>
<polyline clip-path="url(#clip670)" style="stroke:#000000; stroke-linecap:butt; stroke-linejoin:round; stroke-width:4; stroke-opacity:1; fill:none" points="
  287.852,418.488 306.75,418.488 
  "/>
<polyline clip-path="url(#clip670)" style="stroke:#000000; stroke-linecap:butt; stroke-linejoin:round; stroke-width:4; stroke-opacity:1; fill:none" points="
  287.852,86.1857 306.75,86.1857 
  "/>
<path clip-path="url(#clip670)" d="M114.26 1415.84 L143.936 1415.84 L143.936 1419.78 L114.26 1419.78 L114.26 1415.84 Z" fill="#000000" fill-rule="evenodd" fill-opacity="1" /><path clip-path="url(#clip670)" d="M164.028 1401.19 Q160.417 1401.19 158.589 1404.76 Q156.783 1408.3 156.783 1415.43 Q156.783 1422.53 158.589 1426.1 Q160.417 1429.64 164.028 1429.64 Q167.663 1429.64 169.468 1426.1 Q171.297 1422.53 171.297 1415.43 Q171.297 1408.3 169.468 1404.76 Q167.663 1401.19 164.028 1401.19 M164.028 1397.49 Q169.839 1397.49 172.894 1402.1 Q175.973 1406.68 175.973 1415.43 Q175.973 1424.16 172.894 1428.76 Q169.839 1433.34 164.028 1433.34 Q158.218 1433.34 155.14 1428.76 Q152.084 1424.16 152.084 1415.43 Q152.084 1406.68 155.14 1402.1 Q158.218 1397.49 164.028 1397.49 Z" fill="#000000" fill-rule="evenodd" fill-opacity="1" /><path clip-path="url(#clip670)" d="M184.19 1426.79 L189.075 1426.79 L189.075 1432.67 L184.19 1432.67 L184.19 1426.79 Z" fill="#000000" fill-rule="evenodd" fill-opacity="1" /><path clip-path="url(#clip670)" d="M209.26 1401.19 Q205.649 1401.19 203.82 1404.76 Q202.014 1408.3 202.014 1415.43 Q202.014 1422.53 203.82 1426.1 Q205.649 1429.64 209.26 1429.64 Q212.894 1429.64 214.699 1426.1 Q216.528 1422.53 216.528 1415.43 Q216.528 1408.3 214.699 1404.76 Q212.894 1401.19 209.26 1401.19 M209.26 1397.49 Q215.07 1397.49 218.125 1402.1 Q221.204 1406.68 221.204 1415.43 Q221.204 1424.16 218.125 1428.76 Q215.07 1433.34 209.26 1433.34 Q203.449 1433.34 200.371 1428.76 Q197.315 1424.16 197.315 1415.43 Q197.315 1406.68 200.371 1402.1 Q203.449 1397.49 209.26 1397.49 Z" fill="#000000" fill-rule="evenodd" fill-opacity="1" /><path clip-path="url(#clip670)" d="M242.269 1402.19 L230.463 1420.64 L242.269 1420.64 L242.269 1402.19 M241.042 1398.11 L246.921 1398.11 L246.921 1420.64 L251.852 1420.64 L251.852 1424.53 L246.921 1424.53 L246.921 1432.67 L242.269 1432.67 L242.269 1424.53 L226.667 1424.53 L226.667 1420.01 L241.042 1398.11 Z" fill="#000000" fill-rule="evenodd" fill-opacity="1" /><path clip-path="url(#clip670)" d="M115.394 1083.54 L145.07 1083.54 L145.07 1087.48 L115.394 1087.48 L115.394 1083.54 Z" fill="#000000" fill-rule="evenodd" fill-opacity="1" /><path clip-path="url(#clip670)" d="M165.163 1068.89 Q161.552 1068.89 159.723 1072.46 Q157.917 1076 157.917 1083.13 Q157.917 1090.23 159.723 1093.8 Q161.552 1097.34 165.163 1097.34 Q168.797 1097.34 170.602 1093.8 Q172.431 1090.23 172.431 1083.13 Q172.431 1076 170.602 1072.46 Q168.797 1068.89 165.163 1068.89 M165.163 1065.19 Q170.973 1065.19 174.028 1069.79 Q177.107 1074.38 177.107 1083.13 Q177.107 1091.85 174.028 1096.46 Q170.973 1101.04 165.163 1101.04 Q159.353 1101.04 156.274 1096.46 Q153.218 1091.85 153.218 1083.13 Q153.218 1074.38 156.274 1069.79 Q159.353 1065.19 165.163 1065.19 Z" fill="#000000" fill-rule="evenodd" fill-opacity="1" /><path clip-path="url(#clip670)" d="M185.325 1094.49 L190.209 1094.49 L190.209 1100.37 L185.325 1100.37 L185.325 1094.49 Z" fill="#000000" fill-rule="evenodd" fill-opacity="1" /><path clip-path="url(#clip670)" d="M210.394 1068.89 Q206.783 1068.89 204.954 1072.46 Q203.149 1076 203.149 1083.13 Q203.149 1090.23 204.954 1093.8 Q206.783 1097.34 210.394 1097.34 Q214.028 1097.34 215.834 1093.8 Q217.662 1090.23 217.662 1083.13 Q217.662 1076 215.834 1072.46 Q214.028 1068.89 210.394 1068.89 M210.394 1065.19 Q216.204 1065.19 219.26 1069.79 Q222.338 1074.38 222.338 1083.13 Q222.338 1091.85 219.26 1096.46 Q216.204 1101.04 210.394 1101.04 Q204.584 1101.04 201.505 1096.46 Q198.45 1091.85 198.45 1083.13 Q198.45 1074.38 201.505 1069.79 Q204.584 1065.19 210.394 1065.19 Z" fill="#000000" fill-rule="evenodd" fill-opacity="1" /><path clip-path="url(#clip670)" d="M244.722 1081.74 Q248.079 1082.46 249.954 1084.72 Q251.852 1086.99 251.852 1090.33 Q251.852 1095.44 248.334 1098.24 Q244.815 1101.04 238.334 1101.04 Q236.158 1101.04 233.843 1100.6 Q231.551 1100.19 229.098 1099.33 L229.098 1094.82 Q231.042 1095.95 233.357 1096.53 Q235.672 1097.11 238.195 1097.11 Q242.593 1097.11 244.884 1095.37 Q247.199 1093.64 247.199 1090.33 Q247.199 1087.27 245.046 1085.56 Q242.917 1083.82 239.097 1083.82 L235.07 1083.82 L235.07 1079.98 L239.283 1079.98 Q242.732 1079.98 244.56 1078.61 Q246.389 1077.22 246.389 1074.63 Q246.389 1071.97 244.491 1070.56 Q242.616 1069.12 239.097 1069.12 Q237.176 1069.12 234.977 1069.54 Q232.778 1069.96 230.139 1070.83 L230.139 1066.67 Q232.801 1065.93 235.116 1065.56 Q237.454 1065.19 239.514 1065.19 Q244.838 1065.19 247.94 1067.62 Q251.042 1070.02 251.042 1074.14 Q251.042 1077.02 249.398 1079.01 Q247.755 1080.97 244.722 1081.74 Z" fill="#000000" fill-rule="evenodd" fill-opacity="1" /><path clip-path="url(#clip670)" d="M116.343 751.241 L146.019 751.241 L146.019 755.176 L116.343 755.176 L116.343 751.241 Z" fill="#000000" fill-rule="evenodd" fill-opacity="1" /><path clip-path="url(#clip670)" d="M166.112 736.588 Q162.501 736.588 160.672 740.153 Q158.866 743.695 158.866 750.824 Q158.866 757.931 160.672 761.496 Q162.501 765.037 166.112 765.037 Q169.746 765.037 171.552 761.496 Q173.38 757.931 173.38 750.824 Q173.38 743.695 171.552 740.153 Q169.746 736.588 166.112 736.588 M166.112 732.885 Q171.922 732.885 174.977 737.491 Q178.056 742.074 178.056 750.824 Q178.056 759.551 174.977 764.158 Q171.922 768.741 166.112 768.741 Q160.302 768.741 157.223 764.158 Q154.167 759.551 154.167 750.824 Q154.167 742.074 157.223 737.491 Q160.302 732.885 166.112 732.885 Z" fill="#000000" fill-rule="evenodd" fill-opacity="1" /><path clip-path="url(#clip670)" d="M186.274 762.19 L191.158 762.19 L191.158 768.07 L186.274 768.07 L186.274 762.19 Z" fill="#000000" fill-rule="evenodd" fill-opacity="1" /><path clip-path="url(#clip670)" d="M211.343 736.588 Q207.732 736.588 205.903 740.153 Q204.098 743.695 204.098 750.824 Q204.098 757.931 205.903 761.496 Q207.732 765.037 211.343 765.037 Q214.977 765.037 216.783 761.496 Q218.611 757.931 218.611 750.824 Q218.611 743.695 216.783 740.153 Q214.977 736.588 211.343 736.588 M211.343 732.885 Q217.153 732.885 220.209 737.491 Q223.287 742.074 223.287 750.824 Q223.287 759.551 220.209 764.158 Q217.153 768.741 211.343 768.741 Q205.533 768.741 202.454 764.158 Q199.399 759.551 199.399 750.824 Q199.399 742.074 202.454 737.491 Q205.533 732.885 211.343 732.885 Z" fill="#000000" fill-rule="evenodd" fill-opacity="1" /><path clip-path="url(#clip670)" d="M235.533 764.134 L251.852 764.134 L251.852 768.07 L229.908 768.07 L229.908 764.134 Q232.57 761.38 237.153 756.75 Q241.759 752.097 242.94 750.755 Q245.185 748.232 246.065 746.496 Q246.968 744.736 246.968 743.047 Q246.968 740.292 245.023 738.556 Q243.102 736.82 240 736.82 Q237.801 736.82 235.347 737.584 Q232.917 738.348 230.139 739.898 L230.139 735.176 Q232.963 734.042 235.417 733.463 Q237.871 732.885 239.908 732.885 Q245.278 732.885 248.472 735.57 Q251.667 738.255 251.667 742.746 Q251.667 744.875 250.857 746.797 Q250.07 748.695 247.963 751.287 Q247.384 751.959 244.283 755.176 Q241.181 758.371 235.533 764.134 Z" fill="#000000" fill-rule="evenodd" fill-opacity="1" /><path clip-path="url(#clip670)" d="M115.973 418.939 L145.649 418.939 L145.649 422.874 L115.973 422.874 L115.973 418.939 Z" fill="#000000" fill-rule="evenodd" fill-opacity="1" /><path clip-path="url(#clip670)" d="M165.741 404.286 Q162.13 404.286 160.302 407.851 Q158.496 411.393 158.496 418.522 Q158.496 425.629 160.302 429.194 Q162.13 432.735 165.741 432.735 Q169.376 432.735 171.181 429.194 Q173.01 425.629 173.01 418.522 Q173.01 411.393 171.181 407.851 Q169.376 404.286 165.741 404.286 M165.741 400.583 Q171.552 400.583 174.607 405.189 Q177.686 409.772 177.686 418.522 Q177.686 427.249 174.607 431.856 Q171.552 436.439 165.741 436.439 Q159.931 436.439 156.853 431.856 Q153.797 427.249 153.797 418.522 Q153.797 409.772 156.853 405.189 Q159.931 400.583 165.741 400.583 Z" fill="#000000" fill-rule="evenodd" fill-opacity="1" /><path clip-path="url(#clip670)" d="M185.903 429.888 L190.788 429.888 L190.788 435.768 L185.903 435.768 L185.903 429.888 Z" fill="#000000" fill-rule="evenodd" fill-opacity="1" /><path clip-path="url(#clip670)" d="M210.973 404.286 Q207.362 404.286 205.533 407.851 Q203.727 411.393 203.727 418.522 Q203.727 425.629 205.533 429.194 Q207.362 432.735 210.973 432.735 Q214.607 432.735 216.412 429.194 Q218.241 425.629 218.241 418.522 Q218.241 411.393 216.412 407.851 Q214.607 404.286 210.973 404.286 M210.973 400.583 Q216.783 400.583 219.838 405.189 Q222.917 409.772 222.917 418.522 Q222.917 427.249 219.838 431.856 Q216.783 436.439 210.973 436.439 Q205.162 436.439 202.084 431.856 Q199.028 427.249 199.028 418.522 Q199.028 409.772 202.084 405.189 Q205.162 400.583 210.973 400.583 Z" fill="#000000" fill-rule="evenodd" fill-opacity="1" /><path clip-path="url(#clip670)" d="M231.945 431.832 L239.584 431.832 L239.584 405.467 L231.273 407.134 L231.273 402.874 L239.537 401.208 L244.213 401.208 L244.213 431.832 L251.852 431.832 L251.852 435.768 L231.945 435.768 L231.945 431.832 Z" fill="#000000" fill-rule="evenodd" fill-opacity="1" /><path clip-path="url(#clip670)" d="M164.515 71.9844 Q160.903 71.9844 159.075 75.5492 Q157.269 79.0908 157.269 86.2204 Q157.269 93.3268 159.075 96.8916 Q160.903 100.433 164.515 100.433 Q168.149 100.433 169.954 96.8916 Q171.783 93.3268 171.783 86.2204 Q171.783 79.0908 169.954 75.5492 Q168.149 71.9844 164.515 71.9844 M164.515 68.2807 Q170.325 68.2807 173.38 72.8871 Q176.459 77.4704 176.459 86.2204 Q176.459 94.9472 173.38 99.5537 Q170.325 104.137 164.515 104.137 Q158.704 104.137 155.626 99.5537 Q152.57 94.9472 152.57 86.2204 Q152.57 77.4704 155.626 72.8871 Q158.704 68.2807 164.515 68.2807 Z" fill="#000000" fill-rule="evenodd" fill-opacity="1" /><path clip-path="url(#clip670)" d="M184.676 97.5861 L189.561 97.5861 L189.561 103.466 L184.676 103.466 L184.676 97.5861 Z" fill="#000000" fill-rule="evenodd" fill-opacity="1" /><path clip-path="url(#clip670)" d="M209.746 71.9844 Q206.135 71.9844 204.306 75.5492 Q202.5 79.0908 202.5 86.2204 Q202.5 93.3268 204.306 96.8916 Q206.135 100.433 209.746 100.433 Q213.38 100.433 215.186 96.8916 Q217.014 93.3268 217.014 86.2204 Q217.014 79.0908 215.186 75.5492 Q213.38 71.9844 209.746 71.9844 M209.746 68.2807 Q215.556 68.2807 218.611 72.8871 Q221.69 77.4704 221.69 86.2204 Q221.69 94.9472 218.611 99.5537 Q215.556 104.137 209.746 104.137 Q203.936 104.137 200.857 99.5537 Q197.801 94.9472 197.801 86.2204 Q197.801 77.4704 200.857 72.8871 Q203.936 68.2807 209.746 68.2807 Z" fill="#000000" fill-rule="evenodd" fill-opacity="1" /><path clip-path="url(#clip670)" d="M239.908 71.9844 Q236.297 71.9844 234.468 75.5492 Q232.662 79.0908 232.662 86.2204 Q232.662 93.3268 234.468 96.8916 Q236.297 100.433 239.908 100.433 Q243.542 100.433 245.347 96.8916 Q247.176 93.3268 247.176 86.2204 Q247.176 79.0908 245.347 75.5492 Q243.542 71.9844 239.908 71.9844 M239.908 68.2807 Q245.718 68.2807 248.773 72.8871 Q251.852 77.4704 251.852 86.2204 Q251.852 94.9472 248.773 99.5537 Q245.718 104.137 239.908 104.137 Q234.097 104.137 231.019 99.5537 Q227.963 94.9472 227.963 86.2204 Q227.963 77.4704 231.019 72.8871 Q234.097 68.2807 239.908 68.2807 Z" fill="#000000" fill-rule="evenodd" fill-opacity="1" /><path clip-path="url(#clip670)" d="M28.3562 802.418 L28.3562 796.561 L56.1743 789.241 L28.3562 781.952 L28.3562 775.045 L56.1743 767.725 L28.3562 760.436 L28.3562 754.58 L64.0042 763.905 L64.0042 770.812 L34.7856 778.483 L64.0042 786.185 L64.0042 793.092 L28.3562 802.418 Z" fill="#000000" fill-rule="evenodd" fill-opacity="1" /><path clip-path="url(#clip670)" d="M14.5426 731.631 Q21.8632 735.896 29.0246 737.965 Q36.186 740.034 43.5384 740.034 Q50.8908 740.034 58.1159 737.965 Q65.3091 735.864 72.5979 731.631 L72.5979 736.724 Q65.1182 741.498 57.8931 743.885 Q50.668 746.241 43.5384 746.241 Q36.4406 746.241 29.2474 743.885 Q22.0542 741.53 14.5426 736.724 L14.5426 731.631 Z" fill="#000000" fill-rule="evenodd" fill-opacity="1" /><path clip-path="url(#clip670)" d="M28.3562 690.636 L45.7028 703.527 L64.0042 689.968 L64.0042 696.875 L49.9996 707.251 L64.0042 717.627 L64.0042 724.533 L45.3526 710.688 L28.3562 723.356 L28.3562 716.449 L41.0558 706.996 L28.3562 697.543 L28.3562 690.636 Z" fill="#000000" fill-rule="evenodd" fill-opacity="1" /><path clip-path="url(#clip670)" d="M14.5426 682.615 L14.5426 677.523 Q22.0542 672.748 29.2474 670.393 Q36.4406 668.006 43.5384 668.006 Q50.668 668.006 57.8931 670.393 Q65.1182 672.748 72.5979 677.523 L72.5979 682.615 Q65.3091 678.382 58.1159 676.313 Q50.8908 674.213 43.5384 674.213 Q36.186 674.213 29.0246 676.313 Q21.8632 678.382 14.5426 682.615 Z" fill="#000000" fill-rule="evenodd" fill-opacity="1" /><polyline clip-path="url(#clip672)" style="stroke:#0000ff; stroke-linecap:butt; stroke-linejoin:round; stroke-width:4; stroke-opacity:1; fill:none" points="
  346.293,86.1857 448.82,303.626 551.348,514.246 653.875,711.924 756.403,891.308 858.93,1047.81 961.458,1177.59 1063.99,1277.61 1166.51,1345.57 1269.04,1379.93 
  1371.57,1379.93 1474.1,1345.57 1576.62,1277.61 1679.15,1177.59 1781.68,1047.81 1884.21,891.308 1986.73,711.924 2089.26,514.246 2191.79,303.626 2294.32,86.1857 
  
  "/>
<circle clip-path="url(#clip672)" cx="397.556" cy="195.344" r="14" fill="#ff0000" fill-rule="evenodd" fill-opacity="1" stroke="#000000" stroke-opacity="1" stroke-width="3.2"/>
<circle clip-path="url(#clip672)" cx="500.084" cy="410.187" r="14" fill="#ff0000" fill-rule="evenodd" fill-opacity="1" stroke="#000000" stroke-opacity="1" stroke-width="3.2"/>
<circle clip-path="url(#clip672)" cx="602.611" cy="615.053" r="14" fill="#ff0000" fill-rule="evenodd" fill-opacity="1" stroke="#000000" stroke-opacity="1" stroke-width="3.2"/>
<circle clip-path="url(#clip672)" cx="705.139" cy="804.206" r="14" fill="#ff0000" fill-rule="evenodd" fill-opacity="1" stroke="#000000" stroke-opacity="1" stroke-width="3.2"/>
<circle clip-path="url(#clip672)" cx="807.666" cy="972.673" r="14" fill="#ff0000" fill-rule="evenodd" fill-opacity="1" stroke="#000000" stroke-opacity="1" stroke-width="3.2"/>
<circle clip-path="url(#clip672)" cx="910.194" cy="1116.25" r="14" fill="#ff0000" fill-rule="evenodd" fill-opacity="1" stroke="#000000" stroke-opacity="1" stroke-width="3.2"/>
<circle clip-path="url(#clip672)" cx="1012.72" cy="1231.48" r="14" fill="#ff0000" fill-rule="evenodd" fill-opacity="1" stroke="#000000" stroke-opacity="1" stroke-width="3.2"/>
<circle clip-path="url(#clip672)" cx="1115.25" cy="1315.71" r="14" fill="#ff0000" fill-rule="evenodd" fill-opacity="1" stroke="#000000" stroke-opacity="1" stroke-width="3.2"/>
<circle clip-path="url(#clip672)" cx="1217.78" cy="1367.01" r="14" fill="#ff0000" fill-rule="evenodd" fill-opacity="1" stroke="#000000" stroke-opacity="1" stroke-width="3.2"/>
<circle clip-path="url(#clip672)" cx="1320.3" cy="1384.24" r="14" fill="#ff0000" fill-rule="evenodd" fill-opacity="1" stroke="#000000" stroke-opacity="1" stroke-width="3.2"/>
<circle clip-path="url(#clip672)" cx="1422.83" cy="1367.01" r="14" fill="#ff0000" fill-rule="evenodd" fill-opacity="1" stroke="#000000" stroke-opacity="1" stroke-width="3.2"/>
<circle clip-path="url(#clip672)" cx="1525.36" cy="1315.71" r="14" fill="#ff0000" fill-rule="evenodd" fill-opacity="1" stroke="#000000" stroke-opacity="1" stroke-width="3.2"/>
<circle clip-path="url(#clip672)" cx="1627.89" cy="1231.48" r="14" fill="#ff0000" fill-rule="evenodd" fill-opacity="1" stroke="#000000" stroke-opacity="1" stroke-width="3.2"/>
<circle clip-path="url(#clip672)" cx="1730.41" cy="1116.25" r="14" fill="#ff0000" fill-rule="evenodd" fill-opacity="1" stroke="#000000" stroke-opacity="1" stroke-width="3.2"/>
<circle clip-path="url(#clip672)" cx="1832.94" cy="972.673" r="14" fill="#ff0000" fill-rule="evenodd" fill-opacity="1" stroke="#000000" stroke-opacity="1" stroke-width="3.2"/>
<circle clip-path="url(#clip672)" cx="1935.47" cy="804.206" r="14" fill="#ff0000" fill-rule="evenodd" fill-opacity="1" stroke="#000000" stroke-opacity="1" stroke-width="3.2"/>
<circle clip-path="url(#clip672)" cx="2038" cy="615.053" r="14" fill="#ff0000" fill-rule="evenodd" fill-opacity="1" stroke="#000000" stroke-opacity="1" stroke-width="3.2"/>
<circle clip-path="url(#clip672)" cx="2140.52" cy="410.187" r="14" fill="#ff0000" fill-rule="evenodd" fill-opacity="1" stroke="#000000" stroke-opacity="1" stroke-width="3.2"/>
<circle clip-path="url(#clip672)" cx="2243.05" cy="195.344" r="14" fill="#ff0000" fill-rule="evenodd" fill-opacity="1" stroke="#000000" stroke-opacity="1" stroke-width="3.2"/>
<path clip-path="url(#clip670)" d="
M695.44 248.629 L1366.19 248.629 L1366.19 93.1086 L695.44 93.1086  Z
  " fill="#ffffff" fill-rule="evenodd" fill-opacity="1"/>
<polyline clip-path="url(#clip670)" style="stroke:#000000; stroke-linecap:butt; stroke-linejoin:round; stroke-width:4; stroke-opacity:1; fill:none" points="
  695.44,248.629 1366.19,248.629 1366.19,93.1086 695.44,93.1086 695.44,248.629 
  "/>
<polyline clip-path="url(#clip670)" style="stroke:#0000ff; stroke-linecap:butt; stroke-linejoin:round; stroke-width:4; stroke-opacity:1; fill:none" points="
  718.383,144.949 856.044,144.949 
  "/>
<path clip-path="url(#clip670)" d="M894.82 132.275 L888.478 149.474 L901.186 149.474 L894.82 132.275 M892.181 127.669 L897.482 127.669 L910.653 162.229 L905.792 162.229 L902.644 153.363 L887.066 153.363 L883.917 162.229 L878.987 162.229 L892.181 127.669 Z" fill="#000000" fill-rule="evenodd" fill-opacity="1" /><path clip-path="url(#clip670)" d="M937.065 146.581 L937.065 162.229 L932.806 162.229 L932.806 146.719 Q932.806 143.039 931.371 141.21 Q929.936 139.382 927.065 139.382 Q923.616 139.382 921.626 141.581 Q919.635 143.78 919.635 147.576 L919.635 162.229 L915.352 162.229 L915.352 136.303 L919.635 136.303 L919.635 140.331 Q921.163 137.993 923.223 136.835 Q925.306 135.678 928.014 135.678 Q932.482 135.678 934.774 138.456 Q937.065 141.21 937.065 146.581 Z" fill="#000000" fill-rule="evenodd" fill-opacity="1" /><path clip-path="url(#clip670)" d="M957.343 149.196 Q952.181 149.196 950.19 150.377 Q948.199 151.557 948.199 154.405 Q948.199 156.673 949.681 158.016 Q951.186 159.335 953.755 159.335 Q957.297 159.335 959.426 156.835 Q961.579 154.312 961.579 150.145 L961.579 149.196 L957.343 149.196 M965.838 147.437 L965.838 162.229 L961.579 162.229 L961.579 158.293 Q960.121 160.655 957.945 161.789 Q955.769 162.9 952.621 162.9 Q948.639 162.9 946.278 160.678 Q943.94 158.432 943.94 154.682 Q943.94 150.307 946.857 148.085 Q949.797 145.863 955.607 145.863 L961.579 145.863 L961.579 145.446 Q961.579 142.507 959.635 140.909 Q957.713 139.289 954.218 139.289 Q951.996 139.289 949.889 139.821 Q947.783 140.354 945.838 141.419 L945.838 137.483 Q948.176 136.581 950.375 136.141 Q952.574 135.678 954.658 135.678 Q960.283 135.678 963.061 138.594 Q965.838 141.511 965.838 147.437 Z" fill="#000000" fill-rule="evenodd" fill-opacity="1" /><path clip-path="url(#clip670)" d="M974.611 126.21 L978.871 126.21 L978.871 162.229 L974.611 162.229 L974.611 126.21 Z" fill="#000000" fill-rule="evenodd" fill-opacity="1" /><path clip-path="url(#clip670)" d="M998.57 164.636 Q996.764 169.266 995.051 170.678 Q993.338 172.09 990.468 172.09 L987.065 172.09 L987.065 168.525 L989.565 168.525 Q991.324 168.525 992.296 167.692 Q993.269 166.858 994.449 163.756 L995.213 161.812 L984.727 136.303 L989.241 136.303 L997.343 156.581 L1005.44 136.303 L1009.96 136.303 L998.57 164.636 Z" fill="#000000" fill-rule="evenodd" fill-opacity="1" /><path clip-path="url(#clip670)" d="M1020.05 128.942 L1020.05 136.303 L1028.82 136.303 L1028.82 139.613 L1020.05 139.613 L1020.05 153.687 Q1020.05 156.858 1020.91 157.761 Q1021.79 158.664 1024.45 158.664 L1028.82 158.664 L1028.82 162.229 L1024.45 162.229 Q1019.52 162.229 1017.64 160.4 Q1015.77 158.548 1015.77 153.687 L1015.77 139.613 L1012.64 139.613 L1012.64 136.303 L1015.77 136.303 L1015.77 128.942 L1020.05 128.942 Z" fill="#000000" fill-rule="evenodd" fill-opacity="1" /><path clip-path="url(#clip670)" d="M1034.43 136.303 L1038.69 136.303 L1038.69 162.229 L1034.43 162.229 L1034.43 136.303 M1034.43 126.21 L1038.69 126.21 L1038.69 131.604 L1034.43 131.604 L1034.43 126.21 Z" fill="#000000" fill-rule="evenodd" fill-opacity="1" /><path clip-path="url(#clip670)" d="M1066.25 137.298 L1066.25 141.28 Q1064.45 140.284 1062.62 139.798 Q1060.81 139.289 1058.96 139.289 Q1054.82 139.289 1052.53 141.928 Q1050.24 144.544 1050.24 149.289 Q1050.24 154.034 1052.53 156.673 Q1054.82 159.289 1058.96 159.289 Q1060.81 159.289 1062.62 158.803 Q1064.45 158.293 1066.25 157.298 L1066.25 161.233 Q1064.47 162.067 1062.55 162.483 Q1060.65 162.9 1058.5 162.9 Q1052.64 162.9 1049.19 159.219 Q1045.75 155.539 1045.75 149.289 Q1045.75 142.946 1049.22 139.312 Q1052.71 135.678 1058.78 135.678 Q1060.75 135.678 1062.62 136.095 Q1064.5 136.488 1066.25 137.298 Z" fill="#000000" fill-rule="evenodd" fill-opacity="1" /><path clip-path="url(#clip670)" d="M1085.44 149.196 Q1080.28 149.196 1078.29 150.377 Q1076.3 151.557 1076.3 154.405 Q1076.3 156.673 1077.78 158.016 Q1079.29 159.335 1081.86 159.335 Q1085.4 159.335 1087.53 156.835 Q1089.68 154.312 1089.68 150.145 L1089.68 149.196 L1085.44 149.196 M1093.94 147.437 L1093.94 162.229 L1089.68 162.229 L1089.68 158.293 Q1088.22 160.655 1086.05 161.789 Q1083.87 162.9 1080.72 162.9 Q1076.74 162.9 1074.38 160.678 Q1072.04 158.432 1072.04 154.682 Q1072.04 150.307 1074.96 148.085 Q1077.9 145.863 1083.71 145.863 L1089.68 145.863 L1089.68 145.446 Q1089.68 142.507 1087.74 140.909 Q1085.81 139.289 1082.32 139.289 Q1080.1 139.289 1077.99 139.821 Q1075.88 140.354 1073.94 141.419 L1073.94 137.483 Q1076.28 136.581 1078.48 136.141 Q1080.68 135.678 1082.76 135.678 Q1088.38 135.678 1091.16 138.594 Q1093.94 141.511 1093.94 147.437 Z" fill="#000000" fill-rule="evenodd" fill-opacity="1" /><path clip-path="url(#clip670)" d="M1102.71 126.21 L1106.97 126.21 L1106.97 162.229 L1102.71 162.229 L1102.71 126.21 Z" fill="#000000" fill-rule="evenodd" fill-opacity="1" /><path clip-path="url(#clip670)" d="M1147.48 137.067 L1147.48 141.094 Q1145.68 140.169 1143.73 139.706 Q1141.79 139.243 1139.7 139.243 Q1136.53 139.243 1134.93 140.215 Q1133.36 141.187 1133.36 143.131 Q1133.36 144.613 1134.49 145.469 Q1135.63 146.303 1139.05 147.067 L1140.51 147.391 Q1145.05 148.363 1146.95 150.145 Q1148.87 151.905 1148.87 155.076 Q1148.87 158.687 1146 160.793 Q1143.15 162.9 1138.15 162.9 Q1136.07 162.9 1133.8 162.483 Q1131.55 162.09 1129.05 161.28 L1129.05 156.881 Q1131.42 158.108 1133.71 158.733 Q1136 159.335 1138.24 159.335 Q1141.25 159.335 1142.87 158.317 Q1144.49 157.275 1144.49 155.4 Q1144.49 153.664 1143.31 152.738 Q1142.16 151.812 1138.2 150.956 L1136.72 150.608 Q1132.76 149.775 1131 148.062 Q1129.24 146.326 1129.24 143.317 Q1129.24 139.659 1131.83 137.669 Q1134.43 135.678 1139.19 135.678 Q1141.55 135.678 1143.64 136.025 Q1145.72 136.372 1147.48 137.067 Z" fill="#000000" fill-rule="evenodd" fill-opacity="1" /><path clip-path="url(#clip670)" d="M1165.7 139.289 Q1162.27 139.289 1160.28 141.974 Q1158.29 144.636 1158.29 149.289 Q1158.29 153.942 1160.26 156.627 Q1162.25 159.289 1165.7 159.289 Q1169.1 159.289 1171.09 156.604 Q1173.08 153.918 1173.08 149.289 Q1173.08 144.682 1171.09 141.997 Q1169.1 139.289 1165.7 139.289 M1165.7 135.678 Q1171.25 135.678 1174.43 139.289 Q1177.6 142.9 1177.6 149.289 Q1177.6 155.655 1174.43 159.289 Q1171.25 162.9 1165.7 162.9 Q1160.12 162.9 1156.95 159.289 Q1153.8 155.655 1153.8 149.289 Q1153.8 142.9 1156.95 139.289 Q1160.12 135.678 1165.7 135.678 Z" fill="#000000" fill-rule="evenodd" fill-opacity="1" /><path clip-path="url(#clip670)" d="M1184.66 126.21 L1188.92 126.21 L1188.92 162.229 L1184.66 162.229 L1184.66 126.21 Z" fill="#000000" fill-rule="evenodd" fill-opacity="1" /><path clip-path="url(#clip670)" d="M1197.39 151.997 L1197.39 136.303 L1201.65 136.303 L1201.65 151.835 Q1201.65 155.516 1203.08 157.368 Q1204.52 159.196 1207.39 159.196 Q1210.84 159.196 1212.83 156.997 Q1214.84 154.798 1214.84 151.002 L1214.84 136.303 L1219.1 136.303 L1219.1 162.229 L1214.84 162.229 L1214.84 158.247 Q1213.29 160.608 1211.23 161.766 Q1209.19 162.9 1206.49 162.9 Q1202.02 162.9 1199.7 160.122 Q1197.39 157.344 1197.39 151.997 M1208.11 135.678 L1208.11 135.678 Z" fill="#000000" fill-rule="evenodd" fill-opacity="1" /><path clip-path="url(#clip670)" d="M1232.09 128.942 L1232.09 136.303 L1240.86 136.303 L1240.86 139.613 L1232.09 139.613 L1232.09 153.687 Q1232.09 156.858 1232.94 157.761 Q1233.82 158.664 1236.48 158.664 L1240.86 158.664 L1240.86 162.229 L1236.48 162.229 Q1231.55 162.229 1229.68 160.4 Q1227.8 158.548 1227.8 153.687 L1227.8 139.613 L1224.68 139.613 L1224.68 136.303 L1227.8 136.303 L1227.8 128.942 L1232.09 128.942 Z" fill="#000000" fill-rule="evenodd" fill-opacity="1" /><path clip-path="url(#clip670)" d="M1246.46 136.303 L1250.72 136.303 L1250.72 162.229 L1246.46 162.229 L1246.46 136.303 M1246.46 126.21 L1250.72 126.21 L1250.72 131.604 L1246.46 131.604 L1246.46 126.21 Z" fill="#000000" fill-rule="evenodd" fill-opacity="1" /><path clip-path="url(#clip670)" d="M1269.68 139.289 Q1266.25 139.289 1264.26 141.974 Q1262.27 144.636 1262.27 149.289 Q1262.27 153.942 1264.24 156.627 Q1266.23 159.289 1269.68 159.289 Q1273.08 159.289 1275.07 156.604 Q1277.06 153.918 1277.06 149.289 Q1277.06 144.682 1275.07 141.997 Q1273.08 139.289 1269.68 139.289 M1269.68 135.678 Q1275.23 135.678 1278.41 139.289 Q1281.58 142.9 1281.58 149.289 Q1281.58 155.655 1278.41 159.289 Q1275.23 162.9 1269.68 162.9 Q1264.1 162.9 1260.93 159.289 Q1257.78 155.655 1257.78 149.289 Q1257.78 142.9 1260.93 139.289 Q1264.1 135.678 1269.68 135.678 Z" fill="#000000" fill-rule="evenodd" fill-opacity="1" /><path clip-path="url(#clip670)" d="M1310.19 146.581 L1310.19 162.229 L1305.93 162.229 L1305.93 146.719 Q1305.93 143.039 1304.49 141.21 Q1303.06 139.382 1300.19 139.382 Q1296.74 139.382 1294.75 141.581 Q1292.76 143.78 1292.76 147.576 L1292.76 162.229 L1288.48 162.229 L1288.48 136.303 L1292.76 136.303 L1292.76 140.331 Q1294.29 137.993 1296.35 136.835 Q1298.43 135.678 1301.14 135.678 Q1305.6 135.678 1307.9 138.456 Q1310.19 141.21 1310.19 146.581 Z" fill="#000000" fill-rule="evenodd" fill-opacity="1" /><circle clip-path="url(#clip670)" cx="787.213" cy="196.789" r="23" fill="#ff0000" fill-rule="evenodd" fill-opacity="1" stroke="#000000" stroke-opacity="1" stroke-width="5.12"/>
<path clip-path="url(#clip670)" d="M878.987 179.509 L885.283 179.509 L900.607 208.421 L900.607 179.509 L905.144 179.509 L905.144 214.069 L898.848 214.069 L883.524 185.157 L883.524 214.069 L878.987 214.069 L878.987 179.509 Z" fill="#000000" fill-rule="evenodd" fill-opacity="1" /><path clip-path="url(#clip670)" d="M913.825 203.837 L913.825 188.143 L918.084 188.143 L918.084 203.675 Q918.084 207.356 919.519 209.208 Q920.954 211.036 923.825 211.036 Q927.274 211.036 929.264 208.837 Q931.278 206.638 931.278 202.842 L931.278 188.143 L935.538 188.143 L935.538 214.069 L931.278 214.069 L931.278 210.087 Q929.727 212.448 927.667 213.606 Q925.63 214.74 922.922 214.74 Q918.454 214.74 916.139 211.962 Q913.825 209.184 913.825 203.837 M924.542 187.518 L924.542 187.518 Z" fill="#000000" fill-rule="evenodd" fill-opacity="1" /><path clip-path="url(#clip670)" d="M964.496 193.12 Q966.093 190.249 968.315 188.884 Q970.537 187.518 973.547 187.518 Q977.597 187.518 979.797 190.365 Q981.996 193.189 981.996 198.421 L981.996 214.069 L977.713 214.069 L977.713 198.559 Q977.713 194.833 976.394 193.027 Q975.074 191.222 972.366 191.222 Q969.056 191.222 967.135 193.421 Q965.213 195.62 965.213 199.416 L965.213 214.069 L960.931 214.069 L960.931 198.559 Q960.931 194.809 959.611 193.027 Q958.292 191.222 955.537 191.222 Q952.274 191.222 950.352 193.444 Q948.431 195.643 948.431 199.416 L948.431 214.069 L944.149 214.069 L944.149 188.143 L948.431 188.143 L948.431 192.171 Q949.889 189.786 951.926 188.652 Q953.963 187.518 956.764 187.518 Q959.588 187.518 961.556 188.953 Q963.547 190.388 964.496 193.12 Z" fill="#000000" fill-rule="evenodd" fill-opacity="1" /><path clip-path="url(#clip670)" d="M1012.67 200.041 L1012.67 202.124 L993.083 202.124 Q993.361 206.522 995.722 208.837 Q998.107 211.129 1002.34 211.129 Q1004.8 211.129 1007.09 210.527 Q1009.4 209.925 1011.67 208.721 L1011.67 212.749 Q1009.38 213.721 1006.97 214.231 Q1004.56 214.74 1002.09 214.74 Q995.884 214.74 992.25 211.129 Q988.639 207.518 988.639 201.36 Q988.639 194.995 992.065 191.268 Q995.514 187.518 1001.35 187.518 Q1006.58 187.518 1009.61 190.897 Q1012.67 194.254 1012.67 200.041 M1008.41 198.791 Q1008.36 195.296 1006.44 193.212 Q1004.54 191.129 1001.39 191.129 Q997.829 191.129 995.676 193.143 Q993.546 195.157 993.222 198.814 L1008.41 198.791 Z" fill="#000000" fill-rule="evenodd" fill-opacity="1" /><path clip-path="url(#clip670)" d="M1034.68 192.124 Q1033.96 191.708 1033.11 191.522 Q1032.27 191.314 1031.25 191.314 Q1027.64 191.314 1025.7 193.675 Q1023.78 196.013 1023.78 200.411 L1023.78 214.069 L1019.5 214.069 L1019.5 188.143 L1023.78 188.143 L1023.78 192.171 Q1025.12 189.809 1027.27 188.675 Q1029.43 187.518 1032.5 187.518 Q1032.94 187.518 1033.48 187.587 Q1034.01 187.634 1034.66 187.749 L1034.68 192.124 Z" fill="#000000" fill-rule="evenodd" fill-opacity="1" /><path clip-path="url(#clip670)" d="M1039.15 188.143 L1043.41 188.143 L1043.41 214.069 L1039.15 214.069 L1039.15 188.143 M1039.15 178.05 L1043.41 178.05 L1043.41 183.444 L1039.15 183.444 L1039.15 178.05 Z" fill="#000000" fill-rule="evenodd" fill-opacity="1" /><path clip-path="url(#clip670)" d="M1070.98 189.138 L1070.98 193.12 Q1069.17 192.124 1067.34 191.638 Q1065.54 191.129 1063.68 191.129 Q1059.54 191.129 1057.25 193.768 Q1054.96 196.384 1054.96 201.129 Q1054.96 205.874 1057.25 208.513 Q1059.54 211.129 1063.68 211.129 Q1065.54 211.129 1067.34 210.643 Q1069.17 210.133 1070.98 209.138 L1070.98 213.073 Q1069.19 213.907 1067.27 214.323 Q1065.37 214.74 1063.22 214.74 Q1057.37 214.74 1053.92 211.059 Q1050.47 207.379 1050.47 201.129 Q1050.47 194.786 1053.94 191.152 Q1057.43 187.518 1063.5 187.518 Q1065.47 187.518 1067.34 187.935 Q1069.22 188.328 1070.98 189.138 Z" fill="#000000" fill-rule="evenodd" fill-opacity="1" /><path clip-path="url(#clip670)" d="M1090.17 201.036 Q1085 201.036 1083.01 202.217 Q1081.02 203.397 1081.02 206.245 Q1081.02 208.513 1082.5 209.856 Q1084.01 211.175 1086.58 211.175 Q1090.12 211.175 1092.25 208.675 Q1094.4 206.152 1094.4 201.985 L1094.4 201.036 L1090.17 201.036 M1098.66 199.277 L1098.66 214.069 L1094.4 214.069 L1094.4 210.133 Q1092.94 212.495 1090.77 213.629 Q1088.59 214.74 1085.44 214.74 Q1081.46 214.74 1079.1 212.518 Q1076.76 210.272 1076.76 206.522 Q1076.76 202.147 1079.68 199.925 Q1082.62 197.703 1088.43 197.703 L1094.4 197.703 L1094.4 197.286 Q1094.4 194.347 1092.46 192.749 Q1090.54 191.129 1087.04 191.129 Q1084.82 191.129 1082.71 191.661 Q1080.61 192.194 1078.66 193.259 L1078.66 189.323 Q1081 188.421 1083.2 187.981 Q1085.4 187.518 1087.48 187.518 Q1093.11 187.518 1095.88 190.434 Q1098.66 193.351 1098.66 199.277 Z" fill="#000000" fill-rule="evenodd" fill-opacity="1" /><path clip-path="url(#clip670)" d="M1107.43 178.05 L1111.69 178.05 L1111.69 214.069 L1107.43 214.069 L1107.43 178.05 Z" fill="#000000" fill-rule="evenodd" fill-opacity="1" /><path clip-path="url(#clip670)" d="M1156.58 180.643 L1156.58 185.203 Q1153.92 183.93 1151.55 183.305 Q1149.19 182.68 1146.99 182.68 Q1143.18 182.68 1141.09 184.161 Q1139.03 185.643 1139.03 188.374 Q1139.03 190.666 1140.4 191.847 Q1141.79 193.004 1145.63 193.722 L1148.45 194.3 Q1153.68 195.296 1156.16 197.819 Q1158.66 200.319 1158.66 204.532 Q1158.66 209.555 1155.28 212.147 Q1151.93 214.74 1145.42 214.74 Q1142.97 214.74 1140.19 214.184 Q1137.43 213.629 1134.47 212.541 L1134.47 207.726 Q1137.32 209.323 1140.05 210.133 Q1142.78 210.944 1145.42 210.944 Q1149.43 210.944 1151.6 209.37 Q1153.78 207.796 1153.78 204.879 Q1153.78 202.333 1152.2 200.897 Q1150.65 199.462 1147.09 198.745 L1144.24 198.189 Q1139.01 197.147 1136.67 194.925 Q1134.33 192.703 1134.33 188.745 Q1134.33 184.161 1137.55 181.522 Q1140.79 178.884 1146.46 178.884 Q1148.89 178.884 1151.42 179.323 Q1153.94 179.763 1156.58 180.643 Z" fill="#000000" fill-rule="evenodd" fill-opacity="1" /><path clip-path="url(#clip670)" d="M1175.81 191.129 Q1172.39 191.129 1170.4 193.814 Q1168.41 196.476 1168.41 201.129 Q1168.41 205.782 1170.37 208.467 Q1172.36 211.129 1175.81 211.129 Q1179.22 211.129 1181.21 208.444 Q1183.2 205.758 1183.2 201.129 Q1183.2 196.522 1181.21 193.837 Q1179.22 191.129 1175.81 191.129 M1175.81 187.518 Q1181.37 187.518 1184.54 191.129 Q1187.71 194.74 1187.71 201.129 Q1187.71 207.495 1184.54 211.129 Q1181.37 214.74 1175.81 214.74 Q1170.24 214.74 1167.06 211.129 Q1163.92 207.495 1163.92 201.129 Q1163.92 194.74 1167.06 191.129 Q1170.24 187.518 1175.81 187.518 Z" fill="#000000" fill-rule="evenodd" fill-opacity="1" /><path clip-path="url(#clip670)" d="M1194.77 178.05 L1199.03 178.05 L1199.03 214.069 L1194.77 214.069 L1194.77 178.05 Z" fill="#000000" fill-rule="evenodd" fill-opacity="1" /><path clip-path="url(#clip670)" d="M1207.5 203.837 L1207.5 188.143 L1211.76 188.143 L1211.76 203.675 Q1211.76 207.356 1213.2 209.208 Q1214.63 211.036 1217.5 211.036 Q1220.95 211.036 1222.94 208.837 Q1224.96 206.638 1224.96 202.842 L1224.96 188.143 L1229.22 188.143 L1229.22 214.069 L1224.96 214.069 L1224.96 210.087 Q1223.41 212.448 1221.35 213.606 Q1219.31 214.74 1216.6 214.74 Q1212.13 214.74 1209.82 211.962 Q1207.5 209.184 1207.5 203.837 M1218.22 187.518 L1218.22 187.518 Z" fill="#000000" fill-rule="evenodd" fill-opacity="1" /><path clip-path="url(#clip670)" d="M1242.2 180.782 L1242.2 188.143 L1250.98 188.143 L1250.98 191.453 L1242.2 191.453 L1242.2 205.527 Q1242.2 208.698 1243.06 209.601 Q1243.94 210.504 1246.6 210.504 L1250.98 210.504 L1250.98 214.069 L1246.6 214.069 Q1241.67 214.069 1239.8 212.24 Q1237.92 210.388 1237.92 205.527 L1237.92 191.453 L1234.8 191.453 L1234.8 188.143 L1237.92 188.143 L1237.92 180.782 L1242.2 180.782 Z" fill="#000000" fill-rule="evenodd" fill-opacity="1" /><path clip-path="url(#clip670)" d="M1256.58 188.143 L1260.84 188.143 L1260.84 214.069 L1256.58 214.069 L1256.58 188.143 M1256.58 178.05 L1260.84 178.05 L1260.84 183.444 L1256.58 183.444 L1256.58 178.05 Z" fill="#000000" fill-rule="evenodd" fill-opacity="1" /><path clip-path="url(#clip670)" d="M1279.79 191.129 Q1276.37 191.129 1274.38 193.814 Q1272.39 196.476 1272.39 201.129 Q1272.39 205.782 1274.36 208.467 Q1276.35 211.129 1279.79 211.129 Q1283.2 211.129 1285.19 208.444 Q1287.18 205.758 1287.18 201.129 Q1287.18 196.522 1285.19 193.837 Q1283.2 191.129 1279.79 191.129 M1279.79 187.518 Q1285.35 187.518 1288.52 191.129 Q1291.69 194.74 1291.69 201.129 Q1291.69 207.495 1288.52 211.129 Q1285.35 214.74 1279.79 214.74 Q1274.22 214.74 1271.04 211.129 Q1267.9 207.495 1267.9 201.129 Q1267.9 194.74 1271.04 191.129 Q1274.22 187.518 1279.79 187.518 Z" fill="#000000" fill-rule="evenodd" fill-opacity="1" /><path clip-path="url(#clip670)" d="M1320.3 198.421 L1320.3 214.069 L1316.04 214.069 L1316.04 198.559 Q1316.04 194.879 1314.61 193.05 Q1313.17 191.222 1310.3 191.222 Q1306.85 191.222 1304.86 193.421 Q1302.87 195.62 1302.87 199.416 L1302.87 214.069 L1298.59 214.069 L1298.59 188.143 L1302.87 188.143 L1302.87 192.171 Q1304.4 189.833 1306.46 188.675 Q1308.54 187.518 1311.25 187.518 Q1315.72 187.518 1318.01 190.296 Q1320.3 193.05 1320.3 198.421 Z" fill="#000000" fill-rule="evenodd" fill-opacity="1" /></svg>
