<?xml version="1.0" encoding="utf-8"?>
<svg xmlns="http://www.w3.org/2000/svg" xmlns:xlink="http://www.w3.org/1999/xlink" width="600" height="400" viewBox="0 0 2400 1600">
<defs>
  <clipPath id="clip270">
    <rect x="0" y="0" width="2400" height="1600"/>
  </clipPath>
</defs>
<path clip-path="url(#clip270)" d="
M0 1600 L2400 1600 L2400 0 L0 0  Z
  " fill="#ffffff" fill-rule="evenodd" fill-opacity="1"/>
<defs>
  <clipPath id="clip271">
    <rect x="480" y="0" width="1681" height="1600"/>
  </clipPath>
</defs>
<path clip-path="url(#clip270)" d="
M256.556 1423.18 L2352.76 1423.18 L2352.76 47.2441 L256.556 47.2441  Z
  " fill="#ffffff" fill-rule="evenodd" fill-opacity="1"/>
<defs>
  <clipPath id="clip272">
    <rect x="256" y="47" width="2097" height="1377"/>
  </clipPath>
</defs>
<polyline clip-path="url(#clip272)" style="stroke:#000000; stroke-linecap:butt; stroke-linejoin:round; stroke-width:2; stroke-opacity:0.1; fill:none" points="
  260.95,1423.18 260.95,47.2441 
  "/>
<polyline clip-path="url(#clip272)" style="stroke:#000000; stroke-linecap:butt; stroke-linejoin:round; stroke-width:2; stroke-opacity:0.1; fill:none" points="
  782.803,1423.18 782.803,47.2441 
  "/>
<polyline clip-path="url(#clip272)" style="stroke:#000000; stroke-linecap:butt; stroke-linejoin:round; stroke-width:2; stroke-opacity:0.1; fill:none" points="
  1304.66,1423.18 1304.66,47.2441 
  "/>
<polyline clip-path="url(#clip272)" style="stroke:#000000; stroke-linecap:butt; stroke-linejoin:round; stroke-width:2; stroke-opacity:0.1; fill:none" points="
  1826.51,1423.18 1826.51,47.2441 
  "/>
<polyline clip-path="url(#clip272)" style="stroke:#000000; stroke-linecap:butt; stroke-linejoin:round; stroke-width:2; stroke-opacity:0.1; fill:none" points="
  2348.36,1423.18 2348.36,47.2441 
  "/>
<polyline clip-path="url(#clip270)" style="stroke:#000000; stroke-linecap:butt; stroke-linejoin:round; stroke-width:4; stroke-opacity:1; fill:none" points="
  256.556,1423.18 2352.76,1423.18 
  "/>
<polyline clip-path="url(#clip270)" style="stroke:#000000; stroke-linecap:butt; stroke-linejoin:round; stroke-width:4; stroke-opacity:1; fill:none" points="
  260.95,1423.18 260.95,1404.28 
  "/>
<polyline clip-path="url(#clip270)" style="stroke:#000000; stroke-linecap:butt; stroke-linejoin:round; stroke-width:4; stroke-opacity:1; fill:none" points="
  782.803,1423.18 782.803,1404.28 
  "/>
<polyline clip-path="url(#clip270)" style="stroke:#000000; stroke-linecap:butt; stroke-linejoin:round; stroke-width:4; stroke-opacity:1; fill:none" points="
  1304.66,1423.18 1304.66,1404.28 
  "/>
<polyline clip-path="url(#clip270)" style="stroke:#000000; stroke-linecap:butt; stroke-linejoin:round; stroke-width:4; stroke-opacity:1; fill:none" points="
  1826.51,1423.18 1826.51,1404.28 
  "/>
<polyline clip-path="url(#clip270)" style="stroke:#000000; stroke-linecap:butt; stroke-linejoin:round; stroke-width:4; stroke-opacity:1; fill:none" points="
  2348.36,1423.18 2348.36,1404.28 
  "/>
<path clip-path="url(#clip270)" d="M223.254 1454.1 Q219.643 1454.1 217.814 1457.66 Q216.009 1461.2 216.009 1468.33 Q216.009 1475.44 217.814 1479.01 Q219.643 1482.55 223.254 1482.55 Q226.888 1482.55 228.694 1479.01 Q230.522 1475.44 230.522 1468.33 Q230.522 1461.2 228.694 1457.66 Q226.888 1454.1 223.254 1454.1 M223.254 1450.39 Q229.064 1450.39 232.12 1455 Q235.198 1459.58 235.198 1468.33 Q235.198 1477.06 232.12 1481.67 Q229.064 1486.25 223.254 1486.25 Q217.444 1486.25 214.365 1481.67 Q211.309 1477.06 211.309 1468.33 Q211.309 1459.58 214.365 1455 Q217.444 1450.39 223.254 1450.39 Z" fill="#000000" fill-rule="evenodd" fill-opacity="1" /><path clip-path="url(#clip270)" d="M243.416 1479.7 L248.3 1479.7 L248.3 1485.58 L243.416 1485.58 L243.416 1479.7 Z" fill="#000000" fill-rule="evenodd" fill-opacity="1" /><path clip-path="url(#clip270)" d="M268.485 1454.1 Q264.874 1454.1 263.045 1457.66 Q261.24 1461.2 261.24 1468.33 Q261.24 1475.44 263.045 1479.01 Q264.874 1482.55 268.485 1482.55 Q272.119 1482.55 273.925 1479.01 Q275.754 1475.44 275.754 1468.33 Q275.754 1461.2 273.925 1457.66 Q272.119 1454.1 268.485 1454.1 M268.485 1450.39 Q274.295 1450.39 277.351 1455 Q280.429 1459.58 280.429 1468.33 Q280.429 1477.06 277.351 1481.67 Q274.295 1486.25 268.485 1486.25 Q262.675 1486.25 259.596 1481.67 Q256.541 1477.06 256.541 1468.33 Q256.541 1459.58 259.596 1455 Q262.675 1450.39 268.485 1450.39 Z" fill="#000000" fill-rule="evenodd" fill-opacity="1" /><path clip-path="url(#clip270)" d="M298.647 1454.1 Q295.036 1454.1 293.207 1457.66 Q291.402 1461.2 291.402 1468.33 Q291.402 1475.44 293.207 1479.01 Q295.036 1482.55 298.647 1482.55 Q302.281 1482.55 304.087 1479.01 Q305.915 1475.44 305.915 1468.33 Q305.915 1461.2 304.087 1457.66 Q302.281 1454.1 298.647 1454.1 M298.647 1450.39 Q304.457 1450.39 307.513 1455 Q310.591 1459.58 310.591 1468.33 Q310.591 1477.06 307.513 1481.67 Q304.457 1486.25 298.647 1486.25 Q292.837 1486.25 289.758 1481.67 Q286.703 1477.06 286.703 1468.33 Q286.703 1459.58 289.758 1455 Q292.837 1450.39 298.647 1450.39 Z" fill="#000000" fill-rule="evenodd" fill-opacity="1" /><path clip-path="url(#clip270)" d="M745.604 1454.1 Q741.993 1454.1 740.165 1457.66 Q738.359 1461.2 738.359 1468.33 Q738.359 1475.44 740.165 1479.01 Q741.993 1482.55 745.604 1482.55 Q749.239 1482.55 751.044 1479.01 Q752.873 1475.44 752.873 1468.33 Q752.873 1461.2 751.044 1457.66 Q749.239 1454.1 745.604 1454.1 M745.604 1450.39 Q751.414 1450.39 754.47 1455 Q757.549 1459.58 757.549 1468.33 Q757.549 1477.06 754.47 1481.67 Q751.414 1486.25 745.604 1486.25 Q739.794 1486.25 736.715 1481.67 Q733.66 1477.06 733.66 1468.33 Q733.66 1459.58 736.715 1455 Q739.794 1450.39 745.604 1450.39 Z" fill="#000000" fill-rule="evenodd" fill-opacity="1" /><path clip-path="url(#clip270)" d="M765.766 1479.7 L770.65 1479.7 L770.65 1485.58 L765.766 1485.58 L765.766 1479.7 Z" fill="#000000" fill-rule="evenodd" fill-opacity="1" /><path clip-path="url(#clip270)" d="M784.863 1481.64 L801.183 1481.64 L801.183 1485.58 L779.238 1485.58 L779.238 1481.64 Q781.9 1478.89 786.484 1474.26 Q791.09 1469.61 792.271 1468.27 Q794.516 1465.74 795.396 1464.01 Q796.298 1462.25 796.298 1460.56 Q796.298 1457.8 794.354 1456.07 Q792.433 1454.33 789.331 1454.33 Q787.132 1454.33 784.678 1455.09 Q782.248 1455.86 779.47 1457.41 L779.47 1452.69 Q782.294 1451.55 784.748 1450.97 Q787.201 1450.39 789.238 1450.39 Q794.609 1450.39 797.803 1453.08 Q800.998 1455.77 800.998 1460.26 Q800.998 1462.39 800.187 1464.31 Q799.4 1466.2 797.294 1468.8 Q796.715 1469.47 793.613 1472.69 Q790.511 1475.88 784.863 1481.64 Z" fill="#000000" fill-rule="evenodd" fill-opacity="1" /><path clip-path="url(#clip270)" d="M811.044 1451.02 L829.4 1451.02 L829.4 1454.96 L815.326 1454.96 L815.326 1463.43 Q816.345 1463.08 817.363 1462.92 Q818.382 1462.73 819.4 1462.73 Q825.187 1462.73 828.567 1465.9 Q831.946 1469.08 831.946 1474.49 Q831.946 1480.07 828.474 1483.17 Q825.002 1486.25 818.683 1486.25 Q816.507 1486.25 814.238 1485.88 Q811.993 1485.51 809.585 1484.77 L809.585 1480.07 Q811.669 1481.2 813.891 1481.76 Q816.113 1482.32 818.59 1482.32 Q822.595 1482.32 824.933 1480.21 Q827.271 1478.1 827.271 1474.49 Q827.271 1470.88 824.933 1468.77 Q822.595 1466.67 818.59 1466.67 Q816.715 1466.67 814.84 1467.08 Q812.988 1467.5 811.044 1468.38 L811.044 1451.02 Z" fill="#000000" fill-rule="evenodd" fill-opacity="1" /><path clip-path="url(#clip270)" d="M1266.96 1454.1 Q1263.35 1454.1 1261.52 1457.66 Q1259.71 1461.2 1259.71 1468.33 Q1259.71 1475.44 1261.52 1479.01 Q1263.35 1482.55 1266.96 1482.55 Q1270.59 1482.55 1272.4 1479.01 Q1274.23 1475.44 1274.23 1468.33 Q1274.23 1461.2 1272.4 1457.66 Q1270.59 1454.1 1266.96 1454.1 M1266.96 1450.39 Q1272.77 1450.39 1275.83 1455 Q1278.9 1459.58 1278.9 1468.33 Q1278.9 1477.06 1275.83 1481.67 Q1272.77 1486.25 1266.96 1486.25 Q1261.15 1486.25 1258.07 1481.67 Q1255.01 1477.06 1255.01 1468.33 Q1255.01 1459.58 1258.07 1455 Q1261.15 1450.39 1266.96 1450.39 Z" fill="#000000" fill-rule="evenodd" fill-opacity="1" /><path clip-path="url(#clip270)" d="M1287.12 1479.7 L1292.01 1479.7 L1292.01 1485.58 L1287.12 1485.58 L1287.12 1479.7 Z" fill="#000000" fill-rule="evenodd" fill-opacity="1" /><path clip-path="url(#clip270)" d="M1302.24 1451.02 L1320.59 1451.02 L1320.59 1454.96 L1306.52 1454.96 L1306.52 1463.43 Q1307.54 1463.08 1308.56 1462.92 Q1309.57 1462.73 1310.59 1462.73 Q1316.38 1462.73 1319.76 1465.9 Q1323.14 1469.08 1323.14 1474.49 Q1323.14 1480.07 1319.67 1483.17 Q1316.2 1486.25 1309.88 1486.25 Q1307.7 1486.25 1305.43 1485.88 Q1303.19 1485.51 1300.78 1484.77 L1300.78 1480.07 Q1302.86 1481.2 1305.08 1481.76 Q1307.31 1482.32 1309.78 1482.32 Q1313.79 1482.32 1316.13 1480.21 Q1318.46 1478.1 1318.46 1474.49 Q1318.46 1470.88 1316.13 1468.77 Q1313.79 1466.67 1309.78 1466.67 Q1307.91 1466.67 1306.03 1467.08 Q1304.18 1467.5 1302.24 1468.38 L1302.24 1451.02 Z" fill="#000000" fill-rule="evenodd" fill-opacity="1" /><path clip-path="url(#clip270)" d="M1342.35 1454.1 Q1338.74 1454.1 1336.91 1457.66 Q1335.11 1461.2 1335.11 1468.33 Q1335.11 1475.44 1336.91 1479.01 Q1338.74 1482.55 1342.35 1482.55 Q1345.99 1482.55 1347.79 1479.01 Q1349.62 1475.44 1349.62 1468.33 Q1349.62 1461.2 1347.79 1457.66 Q1345.99 1454.1 1342.35 1454.1 M1342.35 1450.39 Q1348.16 1450.39 1351.22 1455 Q1354.3 1459.58 1354.3 1468.33 Q1354.3 1477.06 1351.22 1481.67 Q1348.16 1486.25 1342.35 1486.25 Q1336.54 1486.25 1333.46 1481.67 Q1330.41 1477.06 1330.41 1468.33 Q1330.41 1459.58 1333.46 1455 Q1336.54 1450.39 1342.35 1450.39 Z" fill="#000000" fill-rule="evenodd" fill-opacity="1" /><path clip-path="url(#clip270)" d="M1789.31 1454.1 Q1785.7 1454.1 1783.87 1457.66 Q1782.06 1461.2 1782.06 1468.33 Q1782.06 1475.44 1783.87 1479.01 Q1785.7 1482.55 1789.31 1482.55 Q1792.94 1482.55 1794.75 1479.01 Q1796.58 1475.44 1796.58 1468.33 Q1796.58 1461.2 1794.75 1457.66 Q1792.94 1454.1 1789.31 1454.1 M1789.31 1450.39 Q1795.12 1450.39 1798.18 1455 Q1801.25 1459.58 1801.25 1468.33 Q1801.25 1477.06 1798.18 1481.67 Q1795.12 1486.25 1789.31 1486.25 Q1783.5 1486.25 1780.42 1481.67 Q1777.37 1477.06 1777.37 1468.33 Q1777.37 1459.58 1780.42 1455 Q1783.5 1450.39 1789.31 1450.39 Z" fill="#000000" fill-rule="evenodd" fill-opacity="1" /><path clip-path="url(#clip270)" d="M1809.47 1479.7 L1814.36 1479.7 L1814.36 1485.58 L1809.47 1485.58 L1809.47 1479.7 Z" fill="#000000" fill-rule="evenodd" fill-opacity="1" /><path clip-path="url(#clip270)" d="M1823.36 1451.02 L1845.58 1451.02 L1845.58 1453.01 L1833.04 1485.58 L1828.15 1485.58 L1839.96 1454.96 L1823.36 1454.96 L1823.36 1451.02 Z" fill="#000000" fill-rule="evenodd" fill-opacity="1" /><path clip-path="url(#clip270)" d="M1854.75 1451.02 L1873.11 1451.02 L1873.11 1454.96 L1859.03 1454.96 L1859.03 1463.43 Q1860.05 1463.08 1861.07 1462.92 Q1862.09 1462.73 1863.11 1462.73 Q1868.89 1462.73 1872.27 1465.9 Q1875.65 1469.08 1875.65 1474.49 Q1875.65 1480.07 1872.18 1483.17 Q1868.71 1486.25 1862.39 1486.25 Q1860.21 1486.25 1857.94 1485.88 Q1855.7 1485.51 1853.29 1484.77 L1853.29 1480.07 Q1855.37 1481.2 1857.6 1481.76 Q1859.82 1482.32 1862.3 1482.32 Q1866.3 1482.32 1868.64 1480.21 Q1870.98 1478.1 1870.98 1474.49 Q1870.98 1470.88 1868.64 1468.77 Q1866.3 1466.67 1862.3 1466.67 Q1860.42 1466.67 1858.55 1467.08 Q1856.69 1467.5 1854.75 1468.38 L1854.75 1451.02 Z" fill="#000000" fill-rule="evenodd" fill-opacity="1" /><path clip-path="url(#clip270)" d="M2300.43 1481.64 L2308.07 1481.64 L2308.07 1455.28 L2299.76 1456.95 L2299.76 1452.69 L2308.03 1451.02 L2312.7 1451.02 L2312.7 1481.64 L2320.34 1481.64 L2320.34 1485.58 L2300.43 1485.58 L2300.43 1481.64 Z" fill="#000000" fill-rule="evenodd" fill-opacity="1" /><path clip-path="url(#clip270)" d="M2329.79 1479.7 L2334.67 1479.7 L2334.67 1485.58 L2329.79 1485.58 L2329.79 1479.7 Z" fill="#000000" fill-rule="evenodd" fill-opacity="1" /><path clip-path="url(#clip270)" d="M2354.85 1454.1 Q2351.24 1454.1 2349.41 1457.66 Q2347.61 1461.2 2347.61 1468.33 Q2347.61 1475.44 2349.41 1479.01 Q2351.24 1482.55 2354.85 1482.55 Q2358.49 1482.55 2360.29 1479.01 Q2362.12 1475.44 2362.12 1468.33 Q2362.12 1461.2 2360.29 1457.66 Q2358.49 1454.1 2354.85 1454.1 M2354.85 1450.39 Q2360.66 1450.39 2363.72 1455 Q2366.8 1459.58 2366.8 1468.33 Q2366.8 1477.06 2363.72 1481.67 Q2360.66 1486.25 2354.85 1486.25 Q2349.04 1486.25 2345.97 1481.67 Q2342.91 1477.06 2342.91 1468.33 Q2342.91 1459.58 2345.97 1455 Q2349.04 1450.39 2354.85 1450.39 Z" fill="#000000" fill-rule="evenodd" fill-opacity="1" /><path clip-path="url(#clip270)" d="M2385.02 1454.1 Q2381.41 1454.1 2379.58 1457.66 Q2377.77 1461.2 2377.77 1468.33 Q2377.77 1475.44 2379.58 1479.01 Q2381.41 1482.55 2385.02 1482.55 Q2388.65 1482.55 2390.46 1479.01 Q2392.28 1475.44 2392.28 1468.33 Q2392.28 1461.2 2390.46 1457.66 Q2388.65 1454.1 2385.02 1454.1 M2385.02 1450.39 Q2390.83 1450.39 2393.88 1455 Q2396.96 1459.58 2396.96 1468.33 Q2396.96 1477.06 2393.88 1481.67 Q2390.83 1486.25 2385.02 1486.25 Q2379.21 1486.25 2376.13 1481.67 Q2373.07 1477.06 2373.07 1468.33 Q2373.07 1459.58 2376.13 1455 Q2379.21 1450.39 2385.02 1450.39 Z" fill="#000000" fill-rule="evenodd" fill-opacity="1" /><path clip-path="url(#clip270)" d="M1321.27 1532.4 L1308.38 1549.74 L1321.94 1568.04 L1315.03 1568.04 L1304.66 1554.04 L1294.28 1568.04 L1287.37 1568.04 L1301.22 1549.39 L1288.55 1532.4 L1295.46 1532.4 L1304.91 1545.1 L1314.36 1532.4 L1321.27 1532.4 Z" fill="#000000" fill-rule="evenodd" fill-opacity="1" /><polyline clip-path="url(#clip272)" style="stroke:#000000; stroke-linecap:butt; stroke-linejoin:round; stroke-width:2; stroke-opacity:0.1; fill:none" points="
  256.556,1162.29 2352.76,1162.29 
  "/>
<polyline clip-path="url(#clip272)" style="stroke:#000000; stroke-linecap:butt; stroke-linejoin:round; stroke-width:2; stroke-opacity:0.1; fill:none" points="
  256.556,803.384 2352.76,803.384 
  "/>
<polyline clip-path="url(#clip272)" style="stroke:#000000; stroke-linecap:butt; stroke-linejoin:round; stroke-width:2; stroke-opacity:0.1; fill:none" points="
  256.556,444.482 2352.76,444.482 
  "/>
<polyline clip-path="url(#clip272)" style="stroke:#000000; stroke-linecap:butt; stroke-linejoin:round; stroke-width:2; stroke-opacity:0.1; fill:none" points="
  256.556,85.5807 2352.76,85.5807 
  "/>
<polyline clip-path="url(#clip270)" style="stroke:#000000; stroke-linecap:butt; stroke-linejoin:round; stroke-width:4; stroke-opacity:1; fill:none" points="
  256.556,1423.18 256.556,47.2441 
  "/>
<polyline clip-path="url(#clip270)" style="stroke:#000000; stroke-linecap:butt; stroke-linejoin:round; stroke-width:4; stroke-opacity:1; fill:none" points="
  256.556,1162.29 275.454,1162.29 
  "/>
<polyline clip-path="url(#clip270)" style="stroke:#000000; stroke-linecap:butt; stroke-linejoin:round; stroke-width:4; stroke-opacity:1; fill:none" points="
  256.556,803.384 275.454,803.384 
  "/>
<polyline clip-path="url(#clip270)" style="stroke:#000000; stroke-linecap:butt; stroke-linejoin:round; stroke-width:4; stroke-opacity:1; fill:none" points="
  256.556,444.482 275.454,444.482 
  "/>
<polyline clip-path="url(#clip270)" style="stroke:#000000; stroke-linecap:butt; stroke-linejoin:round; stroke-width:4; stroke-opacity:1; fill:none" points="
  256.556,85.5807 275.454,85.5807 
  "/>
<path clip-path="url(#clip270)" d="M114.26 1162.74 L143.936 1162.74 L143.936 1166.67 L114.26 1166.67 L114.26 1162.74 Z" fill="#000000" fill-rule="evenodd" fill-opacity="1" /><path clip-path="url(#clip270)" d="M164.028 1148.08 Q160.417 1148.08 158.589 1151.65 Q156.783 1155.19 156.783 1162.32 Q156.783 1169.43 158.589 1172.99 Q160.417 1176.53 164.028 1176.53 Q167.663 1176.53 169.468 1172.99 Q171.297 1169.43 171.297 1162.32 Q171.297 1155.19 169.468 1151.65 Q167.663 1148.08 164.028 1148.08 M164.028 1144.38 Q169.839 1144.38 172.894 1148.99 Q175.973 1153.57 175.973 1162.32 Q175.973 1171.05 172.894 1175.65 Q169.839 1180.24 164.028 1180.24 Q158.218 1180.24 155.14 1175.65 Q152.084 1171.05 152.084 1162.32 Q152.084 1153.57 155.14 1148.99 Q158.218 1144.38 164.028 1144.38 Z" fill="#000000" fill-rule="evenodd" fill-opacity="1" /><path clip-path="url(#clip270)" d="M184.19 1173.69 L189.075 1173.69 L189.075 1179.57 L184.19 1179.57 L184.19 1173.69 Z" fill="#000000" fill-rule="evenodd" fill-opacity="1" /><path clip-path="url(#clip270)" d="M213.426 1160.93 Q216.783 1161.65 218.658 1163.92 Q220.556 1166.19 220.556 1169.52 Q220.556 1174.64 217.037 1177.44 Q213.519 1180.24 207.037 1180.24 Q204.862 1180.24 202.547 1179.8 Q200.255 1179.38 197.801 1178.52 L197.801 1174.01 Q199.746 1175.14 202.061 1175.72 Q204.375 1176.3 206.899 1176.3 Q211.297 1176.3 213.588 1174.57 Q215.903 1172.83 215.903 1169.52 Q215.903 1166.46 213.75 1164.75 Q211.621 1163.02 207.801 1163.02 L203.774 1163.02 L203.774 1159.17 L207.987 1159.17 Q211.436 1159.17 213.264 1157.81 Q215.093 1156.42 215.093 1153.83 Q215.093 1151.16 213.195 1149.75 Q211.32 1148.32 207.801 1148.32 Q205.88 1148.32 203.681 1148.73 Q201.482 1149.15 198.843 1150.03 L198.843 1145.86 Q201.505 1145.12 203.82 1144.75 Q206.158 1144.38 208.218 1144.38 Q213.542 1144.38 216.644 1146.81 Q219.746 1149.22 219.746 1153.34 Q219.746 1156.21 218.102 1158.2 Q216.459 1160.17 213.426 1160.93 Z" fill="#000000" fill-rule="evenodd" fill-opacity="1" /><path clip-path="url(#clip270)" d="M115.209 803.836 L144.885 803.836 L144.885 807.771 L115.209 807.771 L115.209 803.836 Z" fill="#000000" fill-rule="evenodd" fill-opacity="1" /><path clip-path="url(#clip270)" d="M164.977 789.183 Q161.366 789.183 159.538 792.748 Q157.732 796.289 157.732 803.419 Q157.732 810.525 159.538 814.09 Q161.366 817.632 164.977 817.632 Q168.612 817.632 170.417 814.09 Q172.246 810.525 172.246 803.419 Q172.246 796.289 170.417 792.748 Q168.612 789.183 164.977 789.183 M164.977 785.479 Q170.788 785.479 173.843 790.086 Q176.922 794.669 176.922 803.419 Q176.922 812.146 173.843 816.752 Q170.788 821.335 164.977 821.335 Q159.167 821.335 156.089 816.752 Q153.033 812.146 153.033 803.419 Q153.033 794.669 156.089 790.086 Q159.167 785.479 164.977 785.479 Z" fill="#000000" fill-rule="evenodd" fill-opacity="1" /><path clip-path="url(#clip270)" d="M185.139 814.785 L190.024 814.785 L190.024 820.664 L185.139 820.664 L185.139 814.785 Z" fill="#000000" fill-rule="evenodd" fill-opacity="1" /><path clip-path="url(#clip270)" d="M204.237 816.729 L220.556 816.729 L220.556 820.664 L198.612 820.664 L198.612 816.729 Q201.274 813.974 205.857 809.345 Q210.463 804.692 211.644 803.349 Q213.889 800.826 214.769 799.09 Q215.672 797.331 215.672 795.641 Q215.672 792.887 213.727 791.15 Q211.806 789.414 208.704 789.414 Q206.505 789.414 204.051 790.178 Q201.621 790.942 198.843 792.493 L198.843 787.771 Q201.667 786.637 204.121 786.058 Q206.574 785.479 208.612 785.479 Q213.982 785.479 217.176 788.164 Q220.371 790.849 220.371 795.34 Q220.371 797.47 219.561 799.391 Q218.773 801.289 216.667 803.882 Q216.088 804.553 212.986 807.771 Q209.885 810.965 204.237 816.729 Z" fill="#000000" fill-rule="evenodd" fill-opacity="1" /><path clip-path="url(#clip270)" d="M114.839 444.934 L144.515 444.934 L144.515 448.869 L114.839 448.869 L114.839 444.934 Z" fill="#000000" fill-rule="evenodd" fill-opacity="1" /><path clip-path="url(#clip270)" d="M164.607 430.281 Q160.996 430.281 159.167 433.846 Q157.362 437.388 157.362 444.517 Q157.362 451.624 159.167 455.188 Q160.996 458.73 164.607 458.73 Q168.241 458.73 170.047 455.188 Q171.876 451.624 171.876 444.517 Q171.876 437.388 170.047 433.846 Q168.241 430.281 164.607 430.281 M164.607 426.577 Q170.417 426.577 173.473 431.184 Q176.551 435.767 176.551 444.517 Q176.551 453.244 173.473 457.85 Q170.417 462.434 164.607 462.434 Q158.797 462.434 155.718 457.85 Q152.663 453.244 152.663 444.517 Q152.663 435.767 155.718 431.184 Q158.797 426.577 164.607 426.577 Z" fill="#000000" fill-rule="evenodd" fill-opacity="1" /><path clip-path="url(#clip270)" d="M184.769 455.883 L189.653 455.883 L189.653 461.762 L184.769 461.762 L184.769 455.883 Z" fill="#000000" fill-rule="evenodd" fill-opacity="1" /><path clip-path="url(#clip270)" d="M200.649 457.827 L208.287 457.827 L208.287 431.462 L199.977 433.128 L199.977 428.869 L208.241 427.202 L212.917 427.202 L212.917 457.827 L220.556 457.827 L220.556 461.762 L200.649 461.762 L200.649 457.827 Z" fill="#000000" fill-rule="evenodd" fill-opacity="1" /><path clip-path="url(#clip270)" d="M163.38 71.3793 Q159.769 71.3793 157.94 74.9441 Q156.135 78.4858 156.135 85.6154 Q156.135 92.7218 157.94 96.2866 Q159.769 99.8283 163.38 99.8283 Q167.015 99.8283 168.82 96.2866 Q170.649 92.7218 170.649 85.6154 Q170.649 78.4858 168.82 74.9441 Q167.015 71.3793 163.38 71.3793 M163.38 67.6757 Q169.19 67.6757 172.246 72.2821 Q175.325 76.8654 175.325 85.6154 Q175.325 94.3422 172.246 98.9486 Q169.19 103.532 163.38 103.532 Q157.57 103.532 154.491 98.9486 Q151.436 94.3422 151.436 85.6154 Q151.436 76.8654 154.491 72.2821 Q157.57 67.6757 163.38 67.6757 Z" fill="#000000" fill-rule="evenodd" fill-opacity="1" /><path clip-path="url(#clip270)" d="M183.542 96.9811 L188.426 96.9811 L188.426 102.861 L183.542 102.861 L183.542 96.9811 Z" fill="#000000" fill-rule="evenodd" fill-opacity="1" /><path clip-path="url(#clip270)" d="M208.612 71.3793 Q205 71.3793 203.172 74.9441 Q201.366 78.4858 201.366 85.6154 Q201.366 92.7218 203.172 96.2866 Q205 99.8283 208.612 99.8283 Q212.246 99.8283 214.051 96.2866 Q215.88 92.7218 215.88 85.6154 Q215.88 78.4858 214.051 74.9441 Q212.246 71.3793 208.612 71.3793 M208.612 67.6757 Q214.422 67.6757 217.477 72.2821 Q220.556 76.8654 220.556 85.6154 Q220.556 94.3422 217.477 98.9486 Q214.422 103.532 208.612 103.532 Q202.801 103.532 199.723 98.9486 Q196.667 94.3422 196.667 85.6154 Q196.667 76.8654 199.723 72.2821 Q202.801 67.6757 208.612 67.6757 Z" fill="#000000" fill-rule="evenodd" fill-opacity="1" /><path clip-path="url(#clip270)" d="M28.3562 802.418 L28.3562 796.561 L56.1743 789.241 L28.3562 781.952 L28.3562 775.045 L56.1743 767.725 L28.3562 760.436 L28.3562 754.58 L64.0042 763.905 L64.0042 770.812 L34.7856 778.483 L64.0042 786.185 L64.0042 793.092 L28.3562 802.418 Z" fill="#000000" fill-rule="evenodd" fill-opacity="1" /><path clip-path="url(#clip270)" d="M14.5426 731.631 Q21.8632 735.896 29.0246 737.965 Q36.186 740.034 43.5384 740.034 Q50.8908 740.034 58.1159 737.965 Q65.3091 735.864 72.5979 731.631 L72.5979 736.724 Q65.1182 741.498 57.8931 743.885 Q50.668 746.241 43.5384 746.241 Q36.4406 746.241 29.2474 743.885 Q22.0542 741.53 14.5426 736.724 L14.5426 731.631 Z" fill="#000000" fill-rule="evenodd" fill-opacity="1" /><path clip-path="url(#clip270)" d="M28.3562 690.636 L45.7028 703.527 L64.0042 689.968 L64.0042 696.875 L49.9996 707.251 L64.0042 717.627 L64.0042 724.533 L45.3526 710.688 L28.3562 723.356 L28.3562 716.449 L41.0558 706.996 L28.3562 697.543 L28.3562 690.636 Z" fill="#000000" fill-rule="evenodd" fill-opacity="1" /><path clip-path="url(#clip270)" d="M14.5426 682.615 L14.5426 677.523 Q22.0542 672.748 29.2474 670.393 Q36.4406 668.006 43.5384 668.006 Q50.668 668.006 57.8931 670.393 Q65.1182 672.748 72.5979 677.523 L72.5979 682.615 Q65.3091 678.382 58.1159 676.313 Q50.8908 674.213 43.5384 674.213 Q36.186 674.213 29.0246 676.313 Q21.8632 678.382 14.5426 682.615 Z" fill="#000000" fill-rule="evenodd" fill-opacity="1" /><polyline clip-path="url(#clip272)" style="stroke:#0000ff; stroke-linecap:butt; stroke-linejoin:round; stroke-width:8; stroke-opacity:1; fill:none" stroke-dasharray="4, 8" points="
  315.882,87.4121 425.746,101.492 535.61,128.23 645.473,166.221 755.337,214.143 865.201,270.758 975.065,334.909 1084.93,405.521 1194.79,481.603 1304.66,562.247 
  1414.52,646.625 1524.38,733.995 1634.25,823.696 1744.11,915.149 1853.97,1007.86 1963.84,1101.41 2073.7,1195.48 2183.57,1289.81 2293.43,1384.24 
  "/>
<polyline clip-path="url(#clip272)" style="stroke:#ff0000; stroke-linecap:butt; stroke-linejoin:round; stroke-width:8; stroke-opacity:1; fill:none" stroke-dasharray="4, 8" points="
  315.882,86.1857 425.746,90.7484 535.61,99.2016 645.473,110.916 755.337,125.336 865.201,141.969 975.065,160.391 1084.93,180.233 1194.79,201.182 1304.66,222.973 
  1414.52,245.389 1524.38,268.253 1634.25,291.425 1744.11,314.799 1853.97,338.295 1963.84,361.86 2073.7,385.456 2183.57,409.065 2293.43,432.676 
  "/>
<path clip-path="url(#clip270)" d="
M326.429 1377.32 L933.181 1377.32 L933.181 1221.8 L326.429 1221.8  Z
  " fill="#ffffff" fill-rule="evenodd" fill-opacity="1"/>
<polyline clip-path="url(#clip270)" style="stroke:#000000; stroke-linecap:butt; stroke-linejoin:round; stroke-width:4; stroke-opacity:1; fill:none" points="
  326.429,1377.32 933.181,1377.32 933.181,1221.8 326.429,1221.8 326.429,1377.32 
  "/>
<polyline clip-path="url(#clip270)" style="stroke:#0000ff; stroke-linecap:butt; stroke-linejoin:round; stroke-width:4; stroke-opacity:1; fill:none" stroke-dasharray="2, 4" points="
  349.72,1273.64 489.467,1273.64 
  "/>
<path clip-path="url(#clip270)" d="M540.628 1259.02 L540.628 1263.95 Q538.267 1261.75 535.582 1260.66 Q532.92 1259.57 529.911 1259.57 Q523.985 1259.57 520.837 1263.21 Q517.689 1266.82 517.689 1273.67 Q517.689 1280.5 520.837 1284.13 Q523.985 1287.74 529.911 1287.74 Q532.92 1287.74 535.582 1286.66 Q538.267 1285.57 540.628 1283.37 L540.628 1288.25 Q538.175 1289.92 535.42 1290.75 Q532.689 1291.59 529.633 1291.59 Q521.786 1291.59 517.272 1286.79 Q512.758 1281.98 512.758 1273.67 Q512.758 1265.34 517.272 1260.55 Q521.786 1255.73 529.633 1255.73 Q532.735 1255.73 535.466 1256.56 Q538.221 1257.37 540.628 1259.02 Z" fill="#000000" fill-rule="evenodd" fill-opacity="1" /><path clip-path="url(#clip270)" d="M557.712 1267.98 Q554.286 1267.98 552.295 1270.66 Q550.304 1273.32 550.304 1277.98 Q550.304 1282.63 552.272 1285.31 Q554.263 1287.98 557.712 1287.98 Q561.114 1287.98 563.105 1285.29 Q565.096 1282.61 565.096 1277.98 Q565.096 1273.37 563.105 1270.68 Q561.114 1267.98 557.712 1267.98 M557.712 1264.36 Q563.267 1264.36 566.438 1267.98 Q569.61 1271.59 569.61 1277.98 Q569.61 1284.34 566.438 1287.98 Q563.267 1291.59 557.712 1291.59 Q552.133 1291.59 548.962 1287.98 Q545.813 1284.34 545.813 1277.98 Q545.813 1271.59 548.962 1267.98 Q552.133 1264.36 557.712 1264.36 Z" fill="#000000" fill-rule="evenodd" fill-opacity="1" /><path clip-path="url(#clip270)" d="M598.221 1275.27 L598.221 1290.92 L593.961 1290.92 L593.961 1275.41 Q593.961 1271.73 592.526 1269.9 Q591.091 1268.07 588.221 1268.07 Q584.772 1268.07 582.781 1270.27 Q580.79 1272.47 580.79 1276.26 L580.79 1290.92 L576.508 1290.92 L576.508 1264.99 L580.79 1264.99 L580.79 1269.02 Q582.318 1266.68 584.378 1265.52 Q586.461 1264.36 589.17 1264.36 Q593.637 1264.36 595.929 1267.14 Q598.221 1269.9 598.221 1275.27 Z" fill="#000000" fill-rule="evenodd" fill-opacity="1" /><path clip-path="url(#clip270)" d="M623.244 1265.75 L623.244 1269.78 Q621.438 1268.86 619.494 1268.39 Q617.549 1267.93 615.466 1267.93 Q612.295 1267.93 610.697 1268.9 Q609.123 1269.87 609.123 1271.82 Q609.123 1273.3 610.258 1274.16 Q611.392 1274.99 614.818 1275.75 L616.276 1276.08 Q620.813 1277.05 622.711 1278.83 Q624.633 1280.59 624.633 1283.76 Q624.633 1287.37 621.762 1289.48 Q618.915 1291.59 613.915 1291.59 Q611.832 1291.59 609.563 1291.17 Q607.318 1290.78 604.818 1289.97 L604.818 1285.57 Q607.179 1286.79 609.471 1287.42 Q611.762 1288.02 614.008 1288.02 Q617.017 1288.02 618.637 1287 Q620.258 1285.96 620.258 1284.09 Q620.258 1282.35 619.077 1281.42 Q617.92 1280.5 613.961 1279.64 L612.48 1279.3 Q608.521 1278.46 606.762 1276.75 Q605.003 1275.01 605.003 1272 Q605.003 1268.35 607.596 1266.36 Q610.188 1264.36 614.957 1264.36 Q617.318 1264.36 619.401 1264.71 Q621.484 1265.06 623.244 1265.75 Z" fill="#000000" fill-rule="evenodd" fill-opacity="1" /><path clip-path="url(#clip270)" d="M635.628 1257.63 L635.628 1264.99 L644.401 1264.99 L644.401 1268.3 L635.628 1268.3 L635.628 1282.37 Q635.628 1285.54 636.484 1286.45 Q637.364 1287.35 640.026 1287.35 L644.401 1287.35 L644.401 1290.92 L640.026 1290.92 Q635.095 1290.92 633.22 1289.09 Q631.345 1287.23 631.345 1282.37 L631.345 1268.3 L628.22 1268.3 L628.22 1264.99 L631.345 1264.99 L631.345 1257.63 L635.628 1257.63 Z" fill="#000000" fill-rule="evenodd" fill-opacity="1" /><path clip-path="url(#clip270)" d="M661.785 1277.88 Q656.623 1277.88 654.632 1279.06 Q652.642 1280.24 652.642 1283.09 Q652.642 1285.36 654.123 1286.7 Q655.628 1288.02 658.197 1288.02 Q661.739 1288.02 663.868 1285.52 Q666.021 1283 666.021 1278.83 L666.021 1277.88 L661.785 1277.88 M670.28 1276.12 L670.28 1290.92 L666.021 1290.92 L666.021 1286.98 Q664.563 1289.34 662.387 1290.48 Q660.211 1291.59 657.063 1291.59 Q653.081 1291.59 650.72 1289.36 Q648.382 1287.12 648.382 1283.37 Q648.382 1278.99 651.299 1276.77 Q654.239 1274.55 660.049 1274.55 L666.021 1274.55 L666.021 1274.13 Q666.021 1271.19 664.077 1269.6 Q662.155 1267.98 658.66 1267.98 Q656.438 1267.98 654.331 1268.51 Q652.225 1269.04 650.281 1270.11 L650.281 1266.17 Q652.618 1265.27 654.818 1264.83 Q657.017 1264.36 659.1 1264.36 Q664.725 1264.36 667.503 1267.28 Q670.28 1270.2 670.28 1276.12 Z" fill="#000000" fill-rule="evenodd" fill-opacity="1" /><path clip-path="url(#clip270)" d="M700.604 1275.27 L700.604 1290.92 L696.345 1290.92 L696.345 1275.41 Q696.345 1271.73 694.91 1269.9 Q693.475 1268.07 690.604 1268.07 Q687.155 1268.07 685.165 1270.27 Q683.174 1272.47 683.174 1276.26 L683.174 1290.92 L678.891 1290.92 L678.891 1264.99 L683.174 1264.99 L683.174 1269.02 Q684.702 1266.68 686.762 1265.52 Q688.845 1264.36 691.553 1264.36 Q696.021 1264.36 698.313 1267.14 Q700.604 1269.9 700.604 1275.27 Z" fill="#000000" fill-rule="evenodd" fill-opacity="1" /><path clip-path="url(#clip270)" d="M713.313 1257.63 L713.313 1264.99 L722.086 1264.99 L722.086 1268.3 L713.313 1268.3 L713.313 1282.37 Q713.313 1285.54 714.169 1286.45 Q715.049 1287.35 717.711 1287.35 L722.086 1287.35 L722.086 1290.92 L717.711 1290.92 Q712.78 1290.92 710.905 1289.09 Q709.03 1287.23 709.03 1282.37 L709.03 1268.3 L705.905 1268.3 L705.905 1264.99 L709.03 1264.99 L709.03 1257.63 L713.313 1257.63 Z" fill="#000000" fill-rule="evenodd" fill-opacity="1" /><path clip-path="url(#clip270)" d="M742.757 1254.9 L747.016 1254.9 L747.016 1290.92 L742.757 1290.92 L742.757 1254.9 Z" fill="#000000" fill-rule="evenodd" fill-opacity="1" /><path clip-path="url(#clip270)" d="M765.974 1267.98 Q762.548 1267.98 760.558 1270.66 Q758.567 1273.32 758.567 1277.98 Q758.567 1282.63 760.535 1285.31 Q762.525 1287.98 765.974 1287.98 Q769.377 1287.98 771.368 1285.29 Q773.359 1282.61 773.359 1277.98 Q773.359 1273.37 771.368 1270.68 Q769.377 1267.98 765.974 1267.98 M765.974 1264.36 Q771.53 1264.36 774.701 1267.98 Q777.872 1271.59 777.872 1277.98 Q777.872 1284.34 774.701 1287.98 Q771.53 1291.59 765.974 1291.59 Q760.396 1291.59 757.224 1287.98 Q754.076 1284.34 754.076 1277.98 Q754.076 1271.59 757.224 1267.98 Q760.396 1264.36 765.974 1264.36 Z" fill="#000000" fill-rule="evenodd" fill-opacity="1" /><path clip-path="url(#clip270)" d="M796.715 1277.88 Q791.553 1277.88 789.562 1279.06 Q787.571 1280.24 787.571 1283.09 Q787.571 1285.36 789.053 1286.7 Q790.558 1288.02 793.127 1288.02 Q796.669 1288.02 798.798 1285.52 Q800.951 1283 800.951 1278.83 L800.951 1277.88 L796.715 1277.88 M805.21 1276.12 L805.21 1290.92 L800.951 1290.92 L800.951 1286.98 Q799.493 1289.34 797.317 1290.48 Q795.141 1291.59 791.993 1291.59 Q788.011 1291.59 785.65 1289.36 Q783.312 1287.12 783.312 1283.37 Q783.312 1278.99 786.229 1276.77 Q789.169 1274.55 794.979 1274.55 L800.951 1274.55 L800.951 1274.13 Q800.951 1271.19 799.007 1269.6 Q797.085 1267.98 793.59 1267.98 Q791.368 1267.98 789.261 1268.51 Q787.155 1269.04 785.21 1270.11 L785.21 1266.17 Q787.548 1265.27 789.747 1264.83 Q791.946 1264.36 794.03 1264.36 Q799.655 1264.36 802.432 1267.28 Q805.21 1270.2 805.21 1276.12 Z" fill="#000000" fill-rule="evenodd" fill-opacity="1" /><path clip-path="url(#clip270)" d="M831.043 1268.92 L831.043 1254.9 L835.303 1254.9 L835.303 1290.92 L831.043 1290.92 L831.043 1287.03 Q829.701 1289.34 827.641 1290.48 Q825.604 1291.59 822.733 1291.59 Q818.034 1291.59 815.071 1287.84 Q812.132 1284.09 812.132 1277.98 Q812.132 1271.86 815.071 1268.11 Q818.034 1264.36 822.733 1264.36 Q825.604 1264.36 827.641 1265.5 Q829.701 1266.61 831.043 1268.92 M816.53 1277.98 Q816.53 1282.67 818.451 1285.36 Q820.395 1288.02 823.775 1288.02 Q827.155 1288.02 829.099 1285.36 Q831.043 1282.67 831.043 1277.98 Q831.043 1273.28 829.099 1270.61 Q827.155 1267.93 823.775 1267.93 Q820.395 1267.93 818.451 1270.61 Q816.53 1273.28 816.53 1277.98 Z" fill="#000000" fill-rule="evenodd" fill-opacity="1" /><polyline clip-path="url(#clip270)" style="stroke:#ff0000; stroke-linecap:butt; stroke-linejoin:round; stroke-width:4; stroke-opacity:1; fill:none" stroke-dasharray="2, 4" points="
  349.72,1325.48 489.467,1325.48 
  "/>
<path clip-path="url(#clip270)" d="M517.434 1312.04 L517.434 1338.91 L523.082 1338.91 Q530.235 1338.91 533.545 1335.67 Q536.878 1332.43 536.878 1325.44 Q536.878 1318.5 533.545 1315.28 Q530.235 1312.04 523.082 1312.04 L517.434 1312.04 M512.758 1308.2 L522.365 1308.2 Q532.411 1308.2 537.11 1312.39 Q541.809 1316.55 541.809 1325.44 Q541.809 1334.38 537.087 1338.57 Q532.364 1342.76 522.365 1342.76 L512.758 1342.76 L512.758 1308.2 Z" fill="#000000" fill-rule="evenodd" fill-opacity="1" /><path clip-path="url(#clip270)" d="M571.253 1328.73 L571.253 1330.81 L551.67 1330.81 Q551.948 1335.21 554.309 1337.52 Q556.693 1339.82 560.929 1339.82 Q563.383 1339.82 565.674 1339.21 Q567.989 1338.61 570.258 1337.41 L570.258 1341.44 Q567.966 1342.41 565.559 1342.92 Q563.151 1343.43 560.675 1343.43 Q554.471 1343.43 550.837 1339.82 Q547.226 1336.2 547.226 1330.05 Q547.226 1323.68 550.651 1319.95 Q554.1 1316.2 559.934 1316.2 Q565.165 1316.2 568.198 1319.58 Q571.253 1322.94 571.253 1328.73 M566.994 1327.48 Q566.948 1323.98 565.026 1321.9 Q563.128 1319.82 559.98 1319.82 Q556.415 1319.82 554.263 1321.83 Q552.133 1323.84 551.809 1327.5 L566.994 1327.48 Z" fill="#000000" fill-rule="evenodd" fill-opacity="1" /><path clip-path="url(#clip270)" d="M596.901 1317.82 L596.901 1321.81 Q595.096 1320.81 593.267 1320.32 Q591.461 1319.82 589.61 1319.82 Q585.466 1319.82 583.174 1322.45 Q580.883 1325.07 580.883 1329.82 Q580.883 1334.56 583.174 1337.2 Q585.466 1339.82 589.61 1339.82 Q591.461 1339.82 593.267 1339.33 Q595.096 1338.82 596.901 1337.82 L596.901 1341.76 Q595.119 1342.59 593.197 1343.01 Q591.299 1343.43 589.147 1343.43 Q583.29 1343.43 579.841 1339.75 Q576.392 1336.07 576.392 1329.82 Q576.392 1323.47 579.864 1319.84 Q583.36 1316.2 589.424 1316.2 Q591.392 1316.2 593.267 1316.62 Q595.142 1317.01 596.901 1317.82 Z" fill="#000000" fill-rule="evenodd" fill-opacity="1" /><path clip-path="url(#clip270)" d="M619.332 1320.81 Q618.614 1320.39 617.758 1320.21 Q616.924 1320 615.906 1320 Q612.295 1320 610.35 1322.36 Q608.429 1324.7 608.429 1329.1 L608.429 1342.76 L604.147 1342.76 L604.147 1316.83 L608.429 1316.83 L608.429 1320.86 Q609.771 1318.5 611.924 1317.36 Q614.077 1316.2 617.156 1316.2 Q617.596 1316.2 618.128 1316.27 Q618.66 1316.32 619.308 1316.44 L619.332 1320.81 Z" fill="#000000" fill-rule="evenodd" fill-opacity="1" /><path clip-path="url(#clip270)" d="M644.933 1328.73 L644.933 1330.81 L625.35 1330.81 Q625.628 1335.21 627.989 1337.52 Q630.373 1339.82 634.609 1339.82 Q637.063 1339.82 639.355 1339.21 Q641.669 1338.61 643.938 1337.41 L643.938 1341.44 Q641.646 1342.41 639.239 1342.92 Q636.832 1343.43 634.355 1343.43 Q628.151 1343.43 624.517 1339.82 Q620.906 1336.2 620.906 1330.05 Q620.906 1323.68 624.332 1319.95 Q627.781 1316.2 633.614 1316.2 Q638.845 1316.2 641.878 1319.58 Q644.933 1322.94 644.933 1328.73 M640.674 1327.48 Q640.628 1323.98 638.707 1321.9 Q636.808 1319.82 633.66 1319.82 Q630.095 1319.82 627.943 1321.83 Q625.813 1323.84 625.489 1327.5 L640.674 1327.48 Z" fill="#000000" fill-rule="evenodd" fill-opacity="1" /><path clip-path="url(#clip270)" d="M663.706 1329.72 Q658.544 1329.72 656.554 1330.9 Q654.563 1332.08 654.563 1334.93 Q654.563 1337.2 656.044 1338.54 Q657.549 1339.86 660.118 1339.86 Q663.66 1339.86 665.79 1337.36 Q667.942 1334.84 667.942 1330.67 L667.942 1329.72 L663.706 1329.72 M672.202 1327.96 L672.202 1342.76 L667.942 1342.76 L667.942 1338.82 Q666.484 1341.18 664.308 1342.32 Q662.132 1343.43 658.984 1343.43 Q655.003 1343.43 652.642 1341.2 Q650.304 1338.96 650.304 1335.21 Q650.304 1330.83 653.22 1328.61 Q656.16 1326.39 661.97 1326.39 L667.942 1326.39 L667.942 1325.97 Q667.942 1323.03 665.998 1321.44 Q664.077 1319.82 660.581 1319.82 Q658.359 1319.82 656.253 1320.35 Q654.146 1320.88 652.202 1321.95 L652.202 1318.01 Q654.54 1317.11 656.739 1316.67 Q658.938 1316.2 661.021 1316.2 Q666.646 1316.2 669.424 1319.12 Q672.202 1322.04 672.202 1327.96 Z" fill="#000000" fill-rule="evenodd" fill-opacity="1" /><path clip-path="url(#clip270)" d="M697.502 1317.59 L697.502 1321.62 Q695.697 1320.7 693.753 1320.23 Q691.808 1319.77 689.725 1319.77 Q686.553 1319.77 684.956 1320.74 Q683.382 1321.71 683.382 1323.66 Q683.382 1325.14 684.516 1326 Q685.651 1326.83 689.077 1327.59 L690.535 1327.92 Q695.072 1328.89 696.97 1330.67 Q698.891 1332.43 698.891 1335.6 Q698.891 1339.21 696.021 1341.32 Q693.174 1343.43 688.174 1343.43 Q686.091 1343.43 683.822 1343.01 Q681.577 1342.62 679.077 1341.81 L679.077 1337.41 Q681.438 1338.63 683.729 1339.26 Q686.021 1339.86 688.266 1339.86 Q691.276 1339.86 692.896 1338.84 Q694.516 1337.8 694.516 1335.93 Q694.516 1334.19 693.336 1333.26 Q692.178 1332.34 688.22 1331.48 L686.739 1331.14 Q682.78 1330.3 681.021 1328.59 Q679.262 1326.85 679.262 1323.84 Q679.262 1320.19 681.854 1318.2 Q684.447 1316.2 689.215 1316.2 Q691.577 1316.2 693.66 1316.55 Q695.743 1316.9 697.502 1317.59 Z" fill="#000000" fill-rule="evenodd" fill-opacity="1" /><path clip-path="url(#clip270)" d="M705.674 1316.83 L709.933 1316.83 L709.933 1342.76 L705.674 1342.76 L705.674 1316.83 M705.674 1306.74 L709.933 1306.74 L709.933 1312.13 L705.674 1312.13 L705.674 1306.74 Z" fill="#000000" fill-rule="evenodd" fill-opacity="1" /><path clip-path="url(#clip270)" d="M740.396 1327.11 L740.396 1342.76 L736.137 1342.76 L736.137 1327.25 Q736.137 1323.57 734.701 1321.74 Q733.266 1319.91 730.396 1319.91 Q726.947 1319.91 724.956 1322.11 Q722.965 1324.31 722.965 1328.1 L722.965 1342.76 L718.683 1342.76 L718.683 1316.83 L722.965 1316.83 L722.965 1320.86 Q724.493 1318.52 726.553 1317.36 Q728.637 1316.2 731.345 1316.2 Q735.812 1316.2 738.104 1318.98 Q740.396 1321.74 740.396 1327.11 Z" fill="#000000" fill-rule="evenodd" fill-opacity="1" /><path clip-path="url(#clip270)" d="M765.951 1329.49 Q765.951 1324.86 764.03 1322.32 Q762.132 1319.77 758.683 1319.77 Q755.257 1319.77 753.336 1322.32 Q751.437 1324.86 751.437 1329.49 Q751.437 1334.1 753.336 1336.64 Q755.257 1339.19 758.683 1339.19 Q762.132 1339.19 764.03 1336.64 Q765.951 1334.1 765.951 1329.49 M770.21 1339.54 Q770.21 1346.16 767.271 1349.38 Q764.331 1352.62 758.266 1352.62 Q756.021 1352.62 754.03 1352.27 Q752.039 1351.95 750.164 1351.25 L750.164 1347.11 Q752.039 1348.13 753.868 1348.61 Q755.697 1349.1 757.595 1349.1 Q761.785 1349.1 763.868 1346.9 Q765.951 1344.72 765.951 1340.3 L765.951 1338.2 Q764.632 1340.49 762.572 1341.62 Q760.511 1342.76 757.641 1342.76 Q752.873 1342.76 749.956 1339.12 Q747.039 1335.49 747.039 1329.49 Q747.039 1323.47 749.956 1319.84 Q752.873 1316.2 757.641 1316.2 Q760.511 1316.2 762.572 1317.34 Q764.632 1318.47 765.951 1320.76 L765.951 1316.83 L770.21 1316.83 L770.21 1339.54 Z" fill="#000000" fill-rule="evenodd" fill-opacity="1" /><path clip-path="url(#clip270)" d="M794.053 1306.74 L798.312 1306.74 L798.312 1342.76 L794.053 1342.76 L794.053 1306.74 Z" fill="#000000" fill-rule="evenodd" fill-opacity="1" /><path clip-path="url(#clip270)" d="M817.27 1319.82 Q813.844 1319.82 811.854 1322.5 Q809.863 1325.16 809.863 1329.82 Q809.863 1334.47 811.831 1337.15 Q813.821 1339.82 817.27 1339.82 Q820.673 1339.82 822.664 1337.13 Q824.655 1334.45 824.655 1329.82 Q824.655 1325.21 822.664 1322.52 Q820.673 1319.82 817.27 1319.82 M817.27 1316.2 Q822.826 1316.2 825.997 1319.82 Q829.168 1323.43 829.168 1329.82 Q829.168 1336.18 825.997 1339.82 Q822.826 1343.43 817.27 1343.43 Q811.692 1343.43 808.52 1339.82 Q805.372 1336.18 805.372 1329.82 Q805.372 1323.43 808.52 1319.82 Q811.692 1316.2 817.27 1316.2 Z" fill="#000000" fill-rule="evenodd" fill-opacity="1" /><path clip-path="url(#clip270)" d="M848.011 1329.72 Q842.849 1329.72 840.858 1330.9 Q838.867 1332.08 838.867 1334.93 Q838.867 1337.2 840.349 1338.54 Q841.854 1339.86 844.423 1339.86 Q847.965 1339.86 850.094 1337.36 Q852.247 1334.84 852.247 1330.67 L852.247 1329.72 L848.011 1329.72 M856.506 1327.96 L856.506 1342.76 L852.247 1342.76 L852.247 1338.82 Q850.789 1341.18 848.613 1342.32 Q846.437 1343.43 843.289 1343.43 Q839.307 1343.43 836.946 1341.2 Q834.608 1338.96 834.608 1335.21 Q834.608 1330.83 837.525 1328.61 Q840.465 1326.39 846.275 1326.39 L852.247 1326.39 L852.247 1325.97 Q852.247 1323.03 850.303 1321.44 Q848.381 1319.82 844.886 1319.82 Q842.664 1319.82 840.557 1320.35 Q838.451 1320.88 836.506 1321.95 L836.506 1318.01 Q838.844 1317.11 841.043 1316.67 Q843.242 1316.2 845.326 1316.2 Q850.951 1316.2 853.729 1319.12 Q856.506 1322.04 856.506 1327.96 Z" fill="#000000" fill-rule="evenodd" fill-opacity="1" /><path clip-path="url(#clip270)" d="M882.339 1320.76 L882.339 1306.74 L886.599 1306.74 L886.599 1342.76 L882.339 1342.76 L882.339 1338.87 Q880.997 1341.18 878.937 1342.32 Q876.9 1343.43 874.029 1343.43 Q869.33 1343.43 866.367 1339.68 Q863.428 1335.93 863.428 1329.82 Q863.428 1323.7 866.367 1319.95 Q869.33 1316.2 874.029 1316.2 Q876.9 1316.2 878.937 1317.34 Q880.997 1318.45 882.339 1320.76 M867.826 1329.82 Q867.826 1334.51 869.747 1337.2 Q871.691 1339.86 875.071 1339.86 Q878.451 1339.86 880.395 1337.2 Q882.339 1334.51 882.339 1329.82 Q882.339 1325.12 880.395 1322.45 Q878.451 1319.77 875.071 1319.77 Q871.691 1319.77 869.747 1322.45 Q867.826 1325.12 867.826 1329.82 Z" fill="#000000" fill-rule="evenodd" fill-opacity="1" /></svg>
