<?xml version="1.0" encoding="utf-8"?>
<svg xmlns="http://www.w3.org/2000/svg" xmlns:xlink="http://www.w3.org/1999/xlink" width="600" height="400" viewBox="0 0 2400 1600">
<defs>
  <clipPath id="clip120">
    <rect x="0" y="0" width="2400" height="1600"/>
  </clipPath>
</defs>
<path clip-path="url(#clip120)" d="
M0 1600 L2400 1600 L2400 0 L0 0  Z
  " fill="#ffffff" fill-rule="evenodd" fill-opacity="1"/>
<defs>
  <clipPath id="clip121">
    <rect x="480" y="0" width="1681" height="1600"/>
  </clipPath>
</defs>
<path clip-path="url(#clip120)" d="
M256.556 1423.18 L2352.76 1423.18 L2352.76 47.2441 L256.556 47.2441  Z
  " fill="#ffffff" fill-rule="evenodd" fill-opacity="1"/>
<defs>
  <clipPath id="clip122">
    <rect x="256" y="47" width="2097" height="1377"/>
  </clipPath>
</defs>
<polyline clip-path="url(#clip122)" style="stroke:#000000; stroke-linecap:butt; stroke-linejoin:round; stroke-width:2; stroke-opacity:0.1; fill:none" points="
  315.882,1423.18 315.882,47.2441 
  "/>
<polyline clip-path="url(#clip122)" style="stroke:#000000; stroke-linecap:butt; stroke-linejoin:round; stroke-width:2; stroke-opacity:0.1; fill:none" points="
  810.269,1423.18 810.269,47.2441 
  "/>
<polyline clip-path="url(#clip122)" style="stroke:#000000; stroke-linecap:butt; stroke-linejoin:round; stroke-width:2; stroke-opacity:0.1; fill:none" points="
  1304.66,1423.18 1304.66,47.2441 
  "/>
<polyline clip-path="url(#clip122)" style="stroke:#000000; stroke-linecap:butt; stroke-linejoin:round; stroke-width:2; stroke-opacity:0.1; fill:none" points="
  1799.04,1423.18 1799.04,47.2441 
  "/>
<polyline clip-path="url(#clip122)" style="stroke:#000000; stroke-linecap:butt; stroke-linejoin:round; stroke-width:2; stroke-opacity:0.1; fill:none" points="
  2293.43,1423.18 2293.43,47.2441 
  "/>
<polyline clip-path="url(#clip120)" style="stroke:#000000; stroke-linecap:butt; stroke-linejoin:round; stroke-width:4; stroke-opacity:1; fill:none" points="
  256.556,1423.18 2352.76,1423.18 
  "/>
<polyline clip-path="url(#clip120)" style="stroke:#000000; stroke-linecap:butt; stroke-linejoin:round; stroke-width:4; stroke-opacity:1; fill:none" points="
  315.882,1423.18 315.882,1404.28 
  "/>
<polyline clip-path="url(#clip120)" style="stroke:#000000; stroke-linecap:butt; stroke-linejoin:round; stroke-width:4; stroke-opacity:1; fill:none" points="
  810.269,1423.18 810.269,1404.28 
  "/>
<polyline clip-path="url(#clip120)" style="stroke:#000000; stroke-linecap:butt; stroke-linejoin:round; stroke-width:4; stroke-opacity:1; fill:none" points="
  1304.66,1423.18 1304.66,1404.28 
  "/>
<polyline clip-path="url(#clip120)" style="stroke:#000000; stroke-linecap:butt; stroke-linejoin:round; stroke-width:4; stroke-opacity:1; fill:none" points="
  1799.04,1423.18 1799.04,1404.28 
  "/>
<polyline clip-path="url(#clip120)" style="stroke:#000000; stroke-linecap:butt; stroke-linejoin:round; stroke-width:4; stroke-opacity:1; fill:none" points="
  2293.43,1423.18 2293.43,1404.28 
  "/>
<path clip-path="url(#clip120)" d="M278.186 1454.1 Q274.575 1454.1 272.746 1457.66 Q270.94 1461.2 270.94 1468.33 Q270.94 1475.44 272.746 1479.01 Q274.575 1482.55 278.186 1482.55 Q281.82 1482.55 283.626 1479.01 Q285.454 1475.44 285.454 1468.33 Q285.454 1461.2 283.626 1457.66 Q281.82 1454.1 278.186 1454.1 M278.186 1450.39 Q283.996 1450.39 287.051 1455 Q290.13 1459.58 290.13 1468.33 Q290.13 1477.06 287.051 1481.67 Q283.996 1486.25 278.186 1486.25 Q272.376 1486.25 269.297 1481.67 Q266.241 1477.06 266.241 1468.33 Q266.241 1459.58 269.297 1455 Q272.376 1450.39 278.186 1450.39 Z" fill="#000000" fill-rule="evenodd" fill-opacity="1" /><path clip-path="url(#clip120)" d="M298.348 1479.7 L303.232 1479.7 L303.232 1485.58 L298.348 1485.58 L298.348 1479.7 Z" fill="#000000" fill-rule="evenodd" fill-opacity="1" /><path clip-path="url(#clip120)" d="M323.417 1454.1 Q319.806 1454.1 317.977 1457.66 Q316.172 1461.2 316.172 1468.33 Q316.172 1475.44 317.977 1479.01 Q319.806 1482.55 323.417 1482.55 Q327.051 1482.55 328.857 1479.01 Q330.685 1475.44 330.685 1468.33 Q330.685 1461.2 328.857 1457.66 Q327.051 1454.1 323.417 1454.1 M323.417 1450.39 Q329.227 1450.39 332.283 1455 Q335.361 1459.58 335.361 1468.33 Q335.361 1477.06 332.283 1481.67 Q329.227 1486.25 323.417 1486.25 Q317.607 1486.25 314.528 1481.67 Q311.473 1477.06 311.473 1468.33 Q311.473 1459.58 314.528 1455 Q317.607 1450.39 323.417 1450.39 Z" fill="#000000" fill-rule="evenodd" fill-opacity="1" /><path clip-path="url(#clip120)" d="M353.579 1454.1 Q349.968 1454.1 348.139 1457.66 Q346.334 1461.2 346.334 1468.33 Q346.334 1475.44 348.139 1479.01 Q349.968 1482.55 353.579 1482.55 Q357.213 1482.55 359.019 1479.01 Q360.847 1475.44 360.847 1468.33 Q360.847 1461.2 359.019 1457.66 Q357.213 1454.1 353.579 1454.1 M353.579 1450.39 Q359.389 1450.39 362.445 1455 Q365.523 1459.58 365.523 1468.33 Q365.523 1477.06 362.445 1481.67 Q359.389 1486.25 353.579 1486.25 Q347.769 1486.25 344.69 1481.67 Q341.634 1477.06 341.634 1468.33 Q341.634 1459.58 344.69 1455 Q347.769 1450.39 353.579 1450.39 Z" fill="#000000" fill-rule="evenodd" fill-opacity="1" /><path clip-path="url(#clip120)" d="M773.07 1454.1 Q769.459 1454.1 767.63 1457.66 Q765.825 1461.2 765.825 1468.33 Q765.825 1475.44 767.63 1479.01 Q769.459 1482.55 773.07 1482.55 Q776.704 1482.55 778.51 1479.01 Q780.339 1475.44 780.339 1468.33 Q780.339 1461.2 778.51 1457.66 Q776.704 1454.1 773.07 1454.1 M773.07 1450.39 Q778.88 1450.39 781.936 1455 Q785.015 1459.58 785.015 1468.33 Q785.015 1477.06 781.936 1481.67 Q778.88 1486.25 773.07 1486.25 Q767.26 1486.25 764.181 1481.67 Q761.126 1477.06 761.126 1468.33 Q761.126 1459.58 764.181 1455 Q767.26 1450.39 773.07 1450.39 Z" fill="#000000" fill-rule="evenodd" fill-opacity="1" /><path clip-path="url(#clip120)" d="M793.232 1479.7 L798.116 1479.7 L798.116 1485.58 L793.232 1485.58 L793.232 1479.7 Z" fill="#000000" fill-rule="evenodd" fill-opacity="1" /><path clip-path="url(#clip120)" d="M812.329 1481.64 L828.649 1481.64 L828.649 1485.58 L806.704 1485.58 L806.704 1481.64 Q809.366 1478.89 813.95 1474.26 Q818.556 1469.61 819.737 1468.27 Q821.982 1465.74 822.862 1464.01 Q823.764 1462.25 823.764 1460.56 Q823.764 1457.8 821.82 1456.07 Q819.899 1454.33 816.797 1454.33 Q814.598 1454.33 812.144 1455.09 Q809.714 1455.86 806.936 1457.41 L806.936 1452.69 Q809.76 1451.55 812.214 1450.97 Q814.667 1450.39 816.704 1450.39 Q822.075 1450.39 825.269 1453.08 Q828.463 1455.77 828.463 1460.26 Q828.463 1462.39 827.653 1464.31 Q826.866 1466.2 824.76 1468.8 Q824.181 1469.47 821.079 1472.69 Q817.977 1475.88 812.329 1481.64 Z" fill="#000000" fill-rule="evenodd" fill-opacity="1" /><path clip-path="url(#clip120)" d="M838.51 1451.02 L856.866 1451.02 L856.866 1454.96 L842.792 1454.96 L842.792 1463.43 Q843.811 1463.08 844.829 1462.92 Q845.848 1462.73 846.866 1462.73 Q852.653 1462.73 856.033 1465.9 Q859.412 1469.08 859.412 1474.49 Q859.412 1480.07 855.94 1483.17 Q852.468 1486.25 846.149 1486.25 Q843.973 1486.25 841.704 1485.88 Q839.459 1485.51 837.051 1484.77 L837.051 1480.07 Q839.135 1481.2 841.357 1481.76 Q843.579 1482.32 846.056 1482.32 Q850.061 1482.32 852.399 1480.21 Q854.736 1478.1 854.736 1474.49 Q854.736 1470.88 852.399 1468.77 Q850.061 1466.67 846.056 1466.67 Q844.181 1466.67 842.306 1467.08 Q840.454 1467.5 838.51 1468.38 L838.51 1451.02 Z" fill="#000000" fill-rule="evenodd" fill-opacity="1" /><path clip-path="url(#clip120)" d="M1266.96 1454.1 Q1263.35 1454.1 1261.52 1457.66 Q1259.71 1461.2 1259.71 1468.33 Q1259.71 1475.44 1261.52 1479.01 Q1263.35 1482.55 1266.96 1482.55 Q1270.59 1482.55 1272.4 1479.01 Q1274.23 1475.44 1274.23 1468.33 Q1274.23 1461.2 1272.4 1457.66 Q1270.59 1454.1 1266.96 1454.1 M1266.96 1450.39 Q1272.77 1450.39 1275.83 1455 Q1278.9 1459.58 1278.9 1468.33 Q1278.9 1477.06 1275.83 1481.67 Q1272.77 1486.25 1266.96 1486.25 Q1261.15 1486.25 1258.07 1481.67 Q1255.01 1477.06 1255.01 1468.33 Q1255.01 1459.58 1258.07 1455 Q1261.15 1450.39 1266.96 1450.39 Z" fill="#000000" fill-rule="evenodd" fill-opacity="1" /><path clip-path="url(#clip120)" d="M1287.12 1479.7 L1292.01 1479.7 L1292.01 1485.58 L1287.12 1485.58 L1287.12 1479.7 Z" fill="#000000" fill-rule="evenodd" fill-opacity="1" /><path clip-path="url(#clip120)" d="M1302.24 1451.02 L1320.59 1451.02 L1320.59 1454.96 L1306.52 1454.96 L1306.52 1463.43 Q1307.54 1463.08 1308.56 1462.92 Q1309.57 1462.73 1310.59 1462.73 Q1316.38 1462.73 1319.76 1465.9 Q1323.14 1469.08 1323.14 1474.49 Q1323.14 1480.07 1319.67 1483.17 Q1316.2 1486.25 1309.88 1486.25 Q1307.7 1486.25 1305.43 1485.88 Q1303.19 1485.51 1300.78 1484.77 L1300.78 1480.07 Q1302.86 1481.2 1305.08 1481.76 Q1307.31 1482.32 1309.78 1482.32 Q1313.79 1482.32 1316.13 1480.21 Q1318.46 1478.1 1318.46 1474.49 Q1318.46 1470.88 1316.13 1468.77 Q1313.79 1466.67 1309.78 1466.67 Q1307.91 1466.67 1306.03 1467.08 Q1304.18 1467.5 1302.24 1468.38 L1302.24 1451.02 Z" fill="#000000" fill-rule="evenodd" fill-opacity="1" /><path clip-path="url(#clip120)" d="M1342.35 1454.1 Q1338.74 1454.1 1336.91 1457.66 Q1335.11 1461.2 1335.11 1468.33 Q1335.11 1475.44 1336.91 1479.01 Q1338.74 1482.55 1342.35 1482.55 Q1345.99 1482.55 1347.79 1479.01 Q1349.62 1475.44 1349.62 1468.33 Q1349.62 1461.2 1347.79 1457.66 Q1345.99 1454.1 1342.35 1454.1 M1342.35 1450.39 Q1348.16 1450.39 1351.22 1455 Q1354.3 1459.58 1354.3 1468.33 Q1354.3 1477.06 1351.22 1481.67 Q1348.16 1486.25 1342.35 1486.25 Q1336.54 1486.25 1333.46 1481.67 Q1330.41 1477.06 1330.41 1468.33 Q1330.41 1459.58 1333.46 1455 Q1336.54 1450.39 1342.35 1450.39 Z" fill="#000000" fill-rule="evenodd" fill-opacity="1" /><path clip-path="url(#clip120)" d="M1761.84 1454.1 Q1758.23 1454.1 1756.4 1457.66 Q1754.6 1461.2 1754.6 1468.33 Q1754.6 1475.44 1756.4 1479.01 Q1758.23 1482.55 1761.84 1482.55 Q1765.48 1482.55 1767.28 1479.01 Q1769.11 1475.44 1769.11 1468.33 Q1769.11 1461.2 1767.28 1457.66 Q1765.48 1454.1 1761.84 1454.1 M1761.84 1450.39 Q1767.65 1450.39 1770.71 1455 Q1773.79 1459.58 1773.79 1468.33 Q1773.79 1477.06 1770.71 1481.67 Q1767.65 1486.25 1761.84 1486.25 Q1756.03 1486.25 1752.95 1481.67 Q1749.9 1477.06 1749.9 1468.33 Q1749.9 1459.58 1752.95 1455 Q1756.03 1450.39 1761.84 1450.39 Z" fill="#000000" fill-rule="evenodd" fill-opacity="1" /><path clip-path="url(#clip120)" d="M1782.01 1479.7 L1786.89 1479.7 L1786.89 1485.58 L1782.01 1485.58 L1782.01 1479.7 Z" fill="#000000" fill-rule="evenodd" fill-opacity="1" /><path clip-path="url(#clip120)" d="M1795.89 1451.02 L1818.12 1451.02 L1818.12 1453.01 L1805.57 1485.58 L1800.69 1485.58 L1812.49 1454.96 L1795.89 1454.96 L1795.89 1451.02 Z" fill="#000000" fill-rule="evenodd" fill-opacity="1" /><path clip-path="url(#clip120)" d="M1827.28 1451.02 L1845.64 1451.02 L1845.64 1454.96 L1831.57 1454.96 L1831.57 1463.43 Q1832.58 1463.08 1833.6 1462.92 Q1834.62 1462.73 1835.64 1462.73 Q1841.43 1462.73 1844.81 1465.9 Q1848.19 1469.08 1848.19 1474.49 Q1848.19 1480.07 1844.71 1483.17 Q1841.24 1486.25 1834.92 1486.25 Q1832.75 1486.25 1830.48 1485.88 Q1828.23 1485.51 1825.82 1484.77 L1825.82 1480.07 Q1827.91 1481.2 1830.13 1481.76 Q1832.35 1482.32 1834.83 1482.32 Q1838.83 1482.32 1841.17 1480.21 Q1843.51 1478.1 1843.51 1474.49 Q1843.51 1470.88 1841.17 1468.77 Q1838.83 1466.67 1834.83 1466.67 Q1832.95 1466.67 1831.08 1467.08 Q1829.23 1467.5 1827.28 1468.38 L1827.28 1451.02 Z" fill="#000000" fill-rule="evenodd" fill-opacity="1" /><path clip-path="url(#clip120)" d="M2245.5 1481.64 L2253.14 1481.64 L2253.14 1455.28 L2244.83 1456.95 L2244.83 1452.69 L2253.09 1451.02 L2257.77 1451.02 L2257.77 1481.64 L2265.41 1481.64 L2265.41 1485.58 L2245.5 1485.58 L2245.5 1481.64 Z" fill="#000000" fill-rule="evenodd" fill-opacity="1" /><path clip-path="url(#clip120)" d="M2274.85 1479.7 L2279.74 1479.7 L2279.74 1485.58 L2274.85 1485.58 L2274.85 1479.7 Z" fill="#000000" fill-rule="evenodd" fill-opacity="1" /><path clip-path="url(#clip120)" d="M2299.92 1454.1 Q2296.31 1454.1 2294.48 1457.66 Q2292.68 1461.2 2292.68 1468.33 Q2292.68 1475.44 2294.48 1479.01 Q2296.31 1482.55 2299.92 1482.55 Q2303.56 1482.55 2305.36 1479.01 Q2307.19 1475.44 2307.19 1468.33 Q2307.19 1461.2 2305.36 1457.66 Q2303.56 1454.1 2299.92 1454.1 M2299.92 1450.39 Q2305.73 1450.39 2308.79 1455 Q2311.87 1459.58 2311.87 1468.33 Q2311.87 1477.06 2308.79 1481.67 Q2305.73 1486.25 2299.92 1486.25 Q2294.11 1486.25 2291.03 1481.67 Q2287.98 1477.06 2287.98 1468.33 Q2287.98 1459.58 2291.03 1455 Q2294.11 1450.39 2299.92 1450.39 Z" fill="#000000" fill-rule="evenodd" fill-opacity="1" /><path clip-path="url(#clip120)" d="M2330.08 1454.1 Q2326.47 1454.1 2324.64 1457.66 Q2322.84 1461.2 2322.84 1468.33 Q2322.84 1475.44 2324.64 1479.01 Q2326.47 1482.55 2330.08 1482.55 Q2333.72 1482.55 2335.52 1479.01 Q2337.35 1475.44 2337.35 1468.33 Q2337.35 1461.2 2335.52 1457.66 Q2333.72 1454.1 2330.08 1454.1 M2330.08 1450.39 Q2335.89 1450.39 2338.95 1455 Q2342.03 1459.58 2342.03 1468.33 Q2342.03 1477.06 2338.95 1481.67 Q2335.89 1486.25 2330.08 1486.25 Q2324.27 1486.25 2321.2 1481.67 Q2318.14 1477.06 2318.14 1468.33 Q2318.14 1459.58 2321.2 1455 Q2324.27 1450.39 2330.08 1450.39 Z" fill="#000000" fill-rule="evenodd" fill-opacity="1" /><path clip-path="url(#clip120)" d="M1321.27 1532.4 L1308.38 1549.74 L1321.94 1568.04 L1315.03 1568.04 L1304.66 1554.04 L1294.28 1568.04 L1287.37 1568.04 L1301.22 1549.39 L1288.55 1532.4 L1295.46 1532.4 L1304.91 1545.1 L1314.36 1532.4 L1321.27 1532.4 Z" fill="#000000" fill-rule="evenodd" fill-opacity="1" /><polyline clip-path="url(#clip122)" style="stroke:#000000; stroke-linecap:butt; stroke-linejoin:round; stroke-width:2; stroke-opacity:0.1; fill:none" points="
  256.556,1124.63 2352.76,1124.63 
  "/>
<polyline clip-path="url(#clip122)" style="stroke:#000000; stroke-linecap:butt; stroke-linejoin:round; stroke-width:2; stroke-opacity:0.1; fill:none" points="
  256.556,778.48 2352.76,778.48 
  "/>
<polyline clip-path="url(#clip122)" style="stroke:#000000; stroke-linecap:butt; stroke-linejoin:round; stroke-width:2; stroke-opacity:0.1; fill:none" points="
  256.556,432.333 2352.76,432.333 
  "/>
<polyline clip-path="url(#clip122)" style="stroke:#000000; stroke-linecap:butt; stroke-linejoin:round; stroke-width:2; stroke-opacity:0.1; fill:none" points="
  256.556,86.1857 2352.76,86.1857 
  "/>
<polyline clip-path="url(#clip120)" style="stroke:#000000; stroke-linecap:butt; stroke-linejoin:round; stroke-width:4; stroke-opacity:1; fill:none" points="
  256.556,1423.18 256.556,47.2441 
  "/>
<polyline clip-path="url(#clip120)" style="stroke:#000000; stroke-linecap:butt; stroke-linejoin:round; stroke-width:4; stroke-opacity:1; fill:none" points="
  256.556,1124.63 275.454,1124.63 
  "/>
<polyline clip-path="url(#clip120)" style="stroke:#000000; stroke-linecap:butt; stroke-linejoin:round; stroke-width:4; stroke-opacity:1; fill:none" points="
  256.556,778.48 275.454,778.48 
  "/>
<polyline clip-path="url(#clip120)" style="stroke:#000000; stroke-linecap:butt; stroke-linejoin:round; stroke-width:4; stroke-opacity:1; fill:none" points="
  256.556,432.333 275.454,432.333 
  "/>
<polyline clip-path="url(#clip120)" style="stroke:#000000; stroke-linecap:butt; stroke-linejoin:round; stroke-width:4; stroke-opacity:1; fill:none" points="
  256.556,86.1857 275.454,86.1857 
  "/>
<path clip-path="url(#clip120)" d="M114.26 1125.08 L143.936 1125.08 L143.936 1129.01 L114.26 1129.01 L114.26 1125.08 Z" fill="#000000" fill-rule="evenodd" fill-opacity="1" /><path clip-path="url(#clip120)" d="M164.028 1110.43 Q160.417 1110.43 158.589 1113.99 Q156.783 1117.53 156.783 1124.66 Q156.783 1131.77 158.589 1135.33 Q160.417 1138.88 164.028 1138.88 Q167.663 1138.88 169.468 1135.33 Q171.297 1131.77 171.297 1124.66 Q171.297 1117.53 169.468 1113.99 Q167.663 1110.43 164.028 1110.43 M164.028 1106.72 Q169.839 1106.72 172.894 1111.33 Q175.973 1115.91 175.973 1124.66 Q175.973 1133.39 172.894 1138 Q169.839 1142.58 164.028 1142.58 Q158.218 1142.58 155.14 1138 Q152.084 1133.39 152.084 1124.66 Q152.084 1115.91 155.14 1111.33 Q158.218 1106.72 164.028 1106.72 Z" fill="#000000" fill-rule="evenodd" fill-opacity="1" /><path clip-path="url(#clip120)" d="M184.19 1136.03 L189.075 1136.03 L189.075 1141.91 L184.19 1141.91 L184.19 1136.03 Z" fill="#000000" fill-rule="evenodd" fill-opacity="1" /><path clip-path="url(#clip120)" d="M213.426 1123.27 Q216.783 1123.99 218.658 1126.26 Q220.556 1128.53 220.556 1131.86 Q220.556 1136.98 217.037 1139.78 Q213.519 1142.58 207.037 1142.58 Q204.862 1142.58 202.547 1142.14 Q200.255 1141.72 197.801 1140.87 L197.801 1136.35 Q199.746 1137.49 202.061 1138.07 Q204.375 1138.64 206.899 1138.64 Q211.297 1138.64 213.588 1136.91 Q215.903 1135.17 215.903 1131.86 Q215.903 1128.81 213.75 1127.09 Q211.621 1125.36 207.801 1125.36 L203.774 1125.36 L203.774 1121.51 L207.987 1121.51 Q211.436 1121.51 213.264 1120.15 Q215.093 1118.76 215.093 1116.17 Q215.093 1113.51 213.195 1112.09 Q211.32 1110.66 207.801 1110.66 Q205.88 1110.66 203.681 1111.07 Q201.482 1111.49 198.843 1112.37 L198.843 1108.2 Q201.505 1107.46 203.82 1107.09 Q206.158 1106.72 208.218 1106.72 Q213.542 1106.72 216.644 1109.15 Q219.746 1111.56 219.746 1115.68 Q219.746 1118.55 218.102 1120.54 Q216.459 1122.51 213.426 1123.27 Z" fill="#000000" fill-rule="evenodd" fill-opacity="1" /><path clip-path="url(#clip120)" d="M115.209 778.932 L144.885 778.932 L144.885 782.867 L115.209 782.867 L115.209 778.932 Z" fill="#000000" fill-rule="evenodd" fill-opacity="1" /><path clip-path="url(#clip120)" d="M164.977 764.279 Q161.366 764.279 159.538 767.844 Q157.732 771.386 157.732 778.515 Q157.732 785.622 159.538 789.186 Q161.366 792.728 164.977 792.728 Q168.612 792.728 170.417 789.186 Q172.246 785.622 172.246 778.515 Q172.246 771.386 170.417 767.844 Q168.612 764.279 164.977 764.279 M164.977 760.575 Q170.788 760.575 173.843 765.182 Q176.922 769.765 176.922 778.515 Q176.922 787.242 173.843 791.848 Q170.788 796.432 164.977 796.432 Q159.167 796.432 156.089 791.848 Q153.033 787.242 153.033 778.515 Q153.033 769.765 156.089 765.182 Q159.167 760.575 164.977 760.575 Z" fill="#000000" fill-rule="evenodd" fill-opacity="1" /><path clip-path="url(#clip120)" d="M185.139 789.881 L190.024 789.881 L190.024 795.76 L185.139 795.76 L185.139 789.881 Z" fill="#000000" fill-rule="evenodd" fill-opacity="1" /><path clip-path="url(#clip120)" d="M204.237 791.825 L220.556 791.825 L220.556 795.76 L198.612 795.76 L198.612 791.825 Q201.274 789.071 205.857 784.441 Q210.463 779.788 211.644 778.446 Q213.889 775.923 214.769 774.186 Q215.672 772.427 215.672 770.737 Q215.672 767.983 213.727 766.247 Q211.806 764.511 208.704 764.511 Q206.505 764.511 204.051 765.274 Q201.621 766.038 198.843 767.589 L198.843 762.867 Q201.667 761.733 204.121 761.154 Q206.574 760.575 208.612 760.575 Q213.982 760.575 217.176 763.261 Q220.371 765.946 220.371 770.436 Q220.371 772.566 219.561 774.487 Q218.773 776.385 216.667 778.978 Q216.088 779.649 212.986 782.867 Q209.885 786.061 204.237 791.825 Z" fill="#000000" fill-rule="evenodd" fill-opacity="1" /><path clip-path="url(#clip120)" d="M114.839 432.784 L144.515 432.784 L144.515 436.72 L114.839 436.72 L114.839 432.784 Z" fill="#000000" fill-rule="evenodd" fill-opacity="1" /><path clip-path="url(#clip120)" d="M164.607 418.132 Q160.996 418.132 159.167 421.697 Q157.362 425.238 157.362 432.368 Q157.362 439.474 159.167 443.039 Q160.996 446.581 164.607 446.581 Q168.241 446.581 170.047 443.039 Q171.876 439.474 171.876 432.368 Q171.876 425.238 170.047 421.697 Q168.241 418.132 164.607 418.132 M164.607 414.428 Q170.417 414.428 173.473 419.034 Q176.551 423.618 176.551 432.368 Q176.551 441.095 173.473 445.701 Q170.417 450.284 164.607 450.284 Q158.797 450.284 155.718 445.701 Q152.663 441.095 152.663 432.368 Q152.663 423.618 155.718 419.034 Q158.797 414.428 164.607 414.428 Z" fill="#000000" fill-rule="evenodd" fill-opacity="1" /><path clip-path="url(#clip120)" d="M184.769 443.733 L189.653 443.733 L189.653 449.613 L184.769 449.613 L184.769 443.733 Z" fill="#000000" fill-rule="evenodd" fill-opacity="1" /><path clip-path="url(#clip120)" d="M200.649 445.678 L208.287 445.678 L208.287 419.312 L199.977 420.979 L199.977 416.72 L208.241 415.053 L212.917 415.053 L212.917 445.678 L220.556 445.678 L220.556 449.613 L200.649 449.613 L200.649 445.678 Z" fill="#000000" fill-rule="evenodd" fill-opacity="1" /><path clip-path="url(#clip120)" d="M163.38 71.9844 Q159.769 71.9844 157.94 75.5492 Q156.135 79.0908 156.135 86.2204 Q156.135 93.3268 157.94 96.8916 Q159.769 100.433 163.38 100.433 Q167.015 100.433 168.82 96.8916 Q170.649 93.3268 170.649 86.2204 Q170.649 79.0908 168.82 75.5492 Q167.015 71.9844 163.38 71.9844 M163.38 68.2807 Q169.19 68.2807 172.246 72.8871 Q175.325 77.4704 175.325 86.2204 Q175.325 94.9472 172.246 99.5537 Q169.19 104.137 163.38 104.137 Q157.57 104.137 154.491 99.5537 Q151.436 94.9472 151.436 86.2204 Q151.436 77.4704 154.491 72.8871 Q157.57 68.2807 163.38 68.2807 Z" fill="#000000" fill-rule="evenodd" fill-opacity="1" /><path clip-path="url(#clip120)" d="M183.542 97.5861 L188.426 97.5861 L188.426 103.466 L183.542 103.466 L183.542 97.5861 Z" fill="#000000" fill-rule="evenodd" fill-opacity="1" /><path clip-path="url(#clip120)" d="M208.612 71.9844 Q205 71.9844 203.172 75.5492 Q201.366 79.0908 201.366 86.2204 Q201.366 93.3268 203.172 96.8916 Q205 100.433 208.612 100.433 Q212.246 100.433 214.051 96.8916 Q215.88 93.3268 215.88 86.2204 Q215.88 79.0908 214.051 75.5492 Q212.246 71.9844 208.612 71.9844 M208.612 68.2807 Q214.422 68.2807 217.477 72.8871 Q220.556 77.4704 220.556 86.2204 Q220.556 94.9472 217.477 99.5537 Q214.422 104.137 208.612 104.137 Q202.801 104.137 199.723 99.5537 Q196.667 94.9472 196.667 86.2204 Q196.667 77.4704 199.723 72.8871 Q202.801 68.2807 208.612 68.2807 Z" fill="#000000" fill-rule="evenodd" fill-opacity="1" /><path clip-path="url(#clip120)" d="M28.3562 802.418 L28.3562 796.561 L56.1743 789.241 L28.3562 781.952 L28.3562 775.045 L56.1743 767.725 L28.3562 760.436 L28.3562 754.58 L64.0042 763.905 L64.0042 770.812 L34.7856 778.483 L64.0042 786.185 L64.0042 793.092 L28.3562 802.418 Z" fill="#000000" fill-rule="evenodd" fill-opacity="1" /><path clip-path="url(#clip120)" d="M14.5426 731.631 Q21.8632 735.896 29.0246 737.965 Q36.186 740.034 43.5384 740.034 Q50.8908 740.034 58.1159 737.965 Q65.3091 735.864 72.5979 731.631 L72.5979 736.724 Q65.1182 741.498 57.8931 743.885 Q50.668 746.241 43.5384 746.241 Q36.4406 746.241 29.2474 743.885 Q22.0542 741.53 14.5426 736.724 L14.5426 731.631 Z" fill="#000000" fill-rule="evenodd" fill-opacity="1" /><path clip-path="url(#clip120)" d="M28.3562 690.636 L45.7028 703.527 L64.0042 689.968 L64.0042 696.875 L49.9996 707.251 L64.0042 717.627 L64.0042 724.533 L45.3526 710.688 L28.3562 723.356 L28.3562 716.449 L41.0558 706.996 L28.3562 697.543 L28.3562 690.636 Z" fill="#000000" fill-rule="evenodd" fill-opacity="1" /><path clip-path="url(#clip120)" d="M14.5426 682.615 L14.5426 677.523 Q22.0542 672.748 29.2474 670.393 Q36.4406 668.006 43.5384 668.006 Q50.668 668.006 57.8931 670.393 Q65.1182 672.748 72.5979 677.523 L72.5979 682.615 Q65.3091 678.382 58.1159 676.313 Q50.8908 674.213 43.5384 674.213 Q36.186 674.213 29.0246 676.313 Q21.8632 678.382 14.5426 682.615 Z" fill="#000000" fill-rule="evenodd" fill-opacity="1" /><polyline clip-path="url(#clip122)" style="stroke:#0000ff; stroke-linecap:butt; stroke-linejoin:round; stroke-width:4; stroke-opacity:1; fill:none" points="
  315.882,86.1857 419.964,93.1281 524.045,112.986 628.127,144.365 732.208,185.949 836.289,236.505 940.371,294.877 1044.45,359.988 1148.53,430.843 1252.62,506.526 
  1356.7,586.199 1460.78,669.106 1564.86,754.57 1668.94,841.993 1773.02,930.856 1877.1,1020.72 1981.19,1111.23 2085.27,1202.11 2189.35,1293.15 2293.43,1384.24 
  
  "/>
<circle clip-path="url(#clip122)" cx="367.923" cy="87.952" r="14.4" fill="#ff0000" fill-rule="evenodd" fill-opacity="1" stroke="#000000" stroke-opacity="1" stroke-width="3.2"/>
<circle clip-path="url(#clip122)" cx="472.004" cy="101.531" r="14.4" fill="#ff0000" fill-rule="evenodd" fill-opacity="1" stroke="#000000" stroke-opacity="1" stroke-width="3.2"/>
<circle clip-path="url(#clip122)" cx="576.086" cy="127.319" r="14.4" fill="#ff0000" fill-rule="evenodd" fill-opacity="1" stroke="#000000" stroke-opacity="1" stroke-width="3.2"/>
<circle clip-path="url(#clip122)" cx="680.167" cy="163.96" r="14.4" fill="#ff0000" fill-rule="evenodd" fill-opacity="1" stroke="#000000" stroke-opacity="1" stroke-width="3.2"/>
<circle clip-path="url(#clip122)" cx="784.249" cy="210.18" r="14.4" fill="#ff0000" fill-rule="evenodd" fill-opacity="1" stroke="#000000" stroke-opacity="1" stroke-width="3.2"/>
<circle clip-path="url(#clip122)" cx="888.33" cy="264.783" r="14.4" fill="#ff0000" fill-rule="evenodd" fill-opacity="1" stroke="#000000" stroke-opacity="1" stroke-width="3.2"/>
<circle clip-path="url(#clip122)" cx="992.412" cy="326.654" r="14.4" fill="#ff0000" fill-rule="evenodd" fill-opacity="1" stroke="#000000" stroke-opacity="1" stroke-width="3.2"/>
<circle clip-path="url(#clip122)" cx="1096.49" cy="394.756" r="14.4" fill="#ff0000" fill-rule="evenodd" fill-opacity="1" stroke="#000000" stroke-opacity="1" stroke-width="3.2"/>
<circle clip-path="url(#clip122)" cx="1200.57" cy="468.135" r="14.4" fill="#ff0000" fill-rule="evenodd" fill-opacity="1" stroke="#000000" stroke-opacity="1" stroke-width="3.2"/>
<circle clip-path="url(#clip122)" cx="1304.66" cy="545.912" r="14.4" fill="#ff0000" fill-rule="evenodd" fill-opacity="1" stroke="#000000" stroke-opacity="1" stroke-width="3.2"/>
<circle clip-path="url(#clip122)" cx="1408.74" cy="627.292" r="14.4" fill="#ff0000" fill-rule="evenodd" fill-opacity="1" stroke="#000000" stroke-opacity="1" stroke-width="3.2"/>
<circle clip-path="url(#clip122)" cx="1512.82" cy="711.558" r="14.4" fill="#ff0000" fill-rule="evenodd" fill-opacity="1" stroke="#000000" stroke-opacity="1" stroke-width="3.2"/>
<circle clip-path="url(#clip122)" cx="1616.9" cy="798.071" r="14.4" fill="#ff0000" fill-rule="evenodd" fill-opacity="1" stroke="#000000" stroke-opacity="1" stroke-width="3.2"/>
<circle clip-path="url(#clip122)" cx="1720.98" cy="886.273" r="14.4" fill="#ff0000" fill-rule="evenodd" fill-opacity="1" stroke="#000000" stroke-opacity="1" stroke-width="3.2"/>
<circle clip-path="url(#clip122)" cx="1825.06" cy="975.688" r="14.4" fill="#ff0000" fill-rule="evenodd" fill-opacity="1" stroke="#000000" stroke-opacity="1" stroke-width="3.2"/>
<circle clip-path="url(#clip122)" cx="1929.14" cy="1065.92" r="14.4" fill="#ff0000" fill-rule="evenodd" fill-opacity="1" stroke="#000000" stroke-opacity="1" stroke-width="3.2"/>
<circle clip-path="url(#clip122)" cx="2033.23" cy="1156.64" r="14.4" fill="#ff0000" fill-rule="evenodd" fill-opacity="1" stroke="#000000" stroke-opacity="1" stroke-width="3.2"/>
<circle clip-path="url(#clip122)" cx="2137.31" cy="1247.62" r="14.4" fill="#ff0000" fill-rule="evenodd" fill-opacity="1" stroke="#000000" stroke-opacity="1" stroke-width="3.2"/>
<circle clip-path="url(#clip122)" cx="2241.39" cy="1338.69" r="14.4" fill="#ff0000" fill-rule="evenodd" fill-opacity="1" stroke="#000000" stroke-opacity="1" stroke-width="3.2"/>
<path clip-path="url(#clip120)" d="
M326.429 1377.32 L1000.66 1377.32 L1000.66 1221.8 L326.429 1221.8  Z
  " fill="#ffffff" fill-rule="evenodd" fill-opacity="1"/>
<polyline clip-path="url(#clip120)" style="stroke:#000000; stroke-linecap:butt; stroke-linejoin:round; stroke-width:4; stroke-opacity:1; fill:none" points="
  326.429,1377.32 1000.66,1377.32 1000.66,1221.8 326.429,1221.8 326.429,1377.32 
  "/>
<polyline clip-path="url(#clip120)" style="stroke:#0000ff; stroke-linecap:butt; stroke-linejoin:round; stroke-width:4; stroke-opacity:1; fill:none" points="
  349.72,1273.64 489.467,1273.64 
  "/>
<path clip-path="url(#clip120)" d="M528.591 1260.96 L522.249 1278.16 L534.957 1278.16 L528.591 1260.96 M525.952 1256.36 L531.253 1256.36 L544.425 1290.92 L539.564 1290.92 L536.415 1282.05 L520.837 1282.05 L517.689 1290.92 L512.758 1290.92 L525.952 1256.36 Z" fill="#000000" fill-rule="evenodd" fill-opacity="1" /><path clip-path="url(#clip120)" d="M570.837 1275.27 L570.837 1290.92 L566.577 1290.92 L566.577 1275.41 Q566.577 1271.73 565.142 1269.9 Q563.707 1268.07 560.837 1268.07 Q557.387 1268.07 555.397 1270.27 Q553.406 1272.47 553.406 1276.26 L553.406 1290.92 L549.124 1290.92 L549.124 1264.99 L553.406 1264.99 L553.406 1269.02 Q554.934 1266.68 556.994 1265.52 Q559.077 1264.36 561.786 1264.36 Q566.253 1264.36 568.545 1267.14 Q570.837 1269.9 570.837 1275.27 Z" fill="#000000" fill-rule="evenodd" fill-opacity="1" /><path clip-path="url(#clip120)" d="M591.114 1277.88 Q585.952 1277.88 583.961 1279.06 Q581.971 1280.24 581.971 1283.09 Q581.971 1285.36 583.452 1286.7 Q584.957 1288.02 587.526 1288.02 Q591.068 1288.02 593.197 1285.52 Q595.35 1283 595.35 1278.83 L595.35 1277.88 L591.114 1277.88 M599.609 1276.12 L599.609 1290.92 L595.35 1290.92 L595.35 1286.98 Q593.892 1289.34 591.716 1290.48 Q589.54 1291.59 586.392 1291.59 Q582.411 1291.59 580.049 1289.36 Q577.711 1287.12 577.711 1283.37 Q577.711 1278.99 580.628 1276.77 Q583.568 1274.55 589.378 1274.55 L595.35 1274.55 L595.35 1274.13 Q595.35 1271.19 593.406 1269.6 Q591.485 1267.98 587.989 1267.98 Q585.767 1267.98 583.661 1268.51 Q581.554 1269.04 579.61 1270.11 L579.61 1266.17 Q581.948 1265.27 584.147 1264.83 Q586.346 1264.36 588.429 1264.36 Q594.054 1264.36 596.832 1267.28 Q599.609 1270.2 599.609 1276.12 Z" fill="#000000" fill-rule="evenodd" fill-opacity="1" /><path clip-path="url(#clip120)" d="M608.383 1254.9 L612.642 1254.9 L612.642 1290.92 L608.383 1290.92 L608.383 1254.9 Z" fill="#000000" fill-rule="evenodd" fill-opacity="1" /><path clip-path="url(#clip120)" d="M632.341 1293.32 Q630.535 1297.95 628.822 1299.36 Q627.109 1300.78 624.239 1300.78 L620.836 1300.78 L620.836 1297.21 L623.336 1297.21 Q625.095 1297.21 626.068 1296.38 Q627.04 1295.54 628.22 1292.44 L628.984 1290.5 L618.498 1264.99 L623.012 1264.99 L631.114 1285.27 L639.216 1264.99 L643.73 1264.99 L632.341 1293.32 Z" fill="#000000" fill-rule="evenodd" fill-opacity="1" /><path clip-path="url(#clip120)" d="M653.822 1257.63 L653.822 1264.99 L662.595 1264.99 L662.595 1268.3 L653.822 1268.3 L653.822 1282.37 Q653.822 1285.54 654.679 1286.45 Q655.558 1287.35 658.22 1287.35 L662.595 1287.35 L662.595 1290.92 L658.22 1290.92 Q653.29 1290.92 651.415 1289.09 Q649.54 1287.23 649.54 1282.37 L649.54 1268.3 L646.415 1268.3 L646.415 1264.99 L649.54 1264.99 L649.54 1257.63 L653.822 1257.63 Z" fill="#000000" fill-rule="evenodd" fill-opacity="1" /><path clip-path="url(#clip120)" d="M668.197 1264.99 L672.456 1264.99 L672.456 1290.92 L668.197 1290.92 L668.197 1264.99 M668.197 1254.9 L672.456 1254.9 L672.456 1260.29 L668.197 1260.29 L668.197 1254.9 Z" fill="#000000" fill-rule="evenodd" fill-opacity="1" /><path clip-path="url(#clip120)" d="M700.026 1265.98 L700.026 1269.97 Q698.22 1268.97 696.391 1268.48 Q694.586 1267.98 692.734 1267.98 Q688.591 1267.98 686.299 1270.61 Q684.007 1273.23 684.007 1277.98 Q684.007 1282.72 686.299 1285.36 Q688.591 1287.98 692.734 1287.98 Q694.586 1287.98 696.391 1287.49 Q698.22 1286.98 700.026 1285.98 L700.026 1289.92 Q698.243 1290.75 696.322 1291.17 Q694.424 1291.59 692.271 1291.59 Q686.415 1291.59 682.966 1287.91 Q679.516 1284.23 679.516 1277.98 Q679.516 1271.63 682.989 1268 Q686.484 1264.36 692.549 1264.36 Q694.516 1264.36 696.391 1264.78 Q698.266 1265.17 700.026 1265.98 Z" fill="#000000" fill-rule="evenodd" fill-opacity="1" /><path clip-path="url(#clip120)" d="M719.215 1277.88 Q714.053 1277.88 712.063 1279.06 Q710.072 1280.24 710.072 1283.09 Q710.072 1285.36 711.553 1286.7 Q713.058 1288.02 715.627 1288.02 Q719.169 1288.02 721.299 1285.52 Q723.451 1283 723.451 1278.83 L723.451 1277.88 L719.215 1277.88 M727.711 1276.12 L727.711 1290.92 L723.451 1290.92 L723.451 1286.98 Q721.993 1289.34 719.817 1290.48 Q717.641 1291.59 714.493 1291.59 Q710.512 1291.59 708.151 1289.36 Q705.813 1287.12 705.813 1283.37 Q705.813 1278.99 708.729 1276.77 Q711.669 1274.55 717.479 1274.55 L723.451 1274.55 L723.451 1274.13 Q723.451 1271.19 721.507 1269.6 Q719.586 1267.98 716.09 1267.98 Q713.868 1267.98 711.762 1268.51 Q709.655 1269.04 707.711 1270.11 L707.711 1266.17 Q710.049 1265.27 712.248 1264.83 Q714.447 1264.36 716.53 1264.36 Q722.155 1264.36 724.933 1267.28 Q727.711 1270.2 727.711 1276.12 Z" fill="#000000" fill-rule="evenodd" fill-opacity="1" /><path clip-path="url(#clip120)" d="M736.484 1254.9 L740.743 1254.9 L740.743 1290.92 L736.484 1290.92 L736.484 1254.9 Z" fill="#000000" fill-rule="evenodd" fill-opacity="1" /><path clip-path="url(#clip120)" d="M781.252 1265.75 L781.252 1269.78 Q779.446 1268.86 777.502 1268.39 Q775.558 1267.93 773.474 1267.93 Q770.303 1267.93 768.706 1268.9 Q767.132 1269.87 767.132 1271.82 Q767.132 1273.3 768.266 1274.16 Q769.4 1274.99 772.826 1275.75 L774.284 1276.08 Q778.821 1277.05 780.72 1278.83 Q782.641 1280.59 782.641 1283.76 Q782.641 1287.37 779.771 1289.48 Q776.923 1291.59 771.923 1291.59 Q769.84 1291.59 767.572 1291.17 Q765.326 1290.78 762.826 1289.97 L762.826 1285.57 Q765.187 1286.79 767.479 1287.42 Q769.771 1288.02 772.016 1288.02 Q775.025 1288.02 776.646 1287 Q778.266 1285.96 778.266 1284.09 Q778.266 1282.35 777.085 1281.42 Q775.928 1280.5 771.97 1279.64 L770.488 1279.3 Q766.53 1278.46 764.771 1276.75 Q763.011 1275.01 763.011 1272 Q763.011 1268.35 765.604 1266.36 Q768.197 1264.36 772.965 1264.36 Q775.326 1264.36 777.409 1264.71 Q779.493 1265.06 781.252 1265.75 Z" fill="#000000" fill-rule="evenodd" fill-opacity="1" /><path clip-path="url(#clip120)" d="M799.47 1267.98 Q796.044 1267.98 794.053 1270.66 Q792.062 1273.32 792.062 1277.98 Q792.062 1282.63 794.03 1285.31 Q796.02 1287.98 799.47 1287.98 Q802.872 1287.98 804.863 1285.29 Q806.854 1282.61 806.854 1277.98 Q806.854 1273.37 804.863 1270.68 Q802.872 1267.98 799.47 1267.98 M799.47 1264.36 Q805.025 1264.36 808.196 1267.98 Q811.368 1271.59 811.368 1277.98 Q811.368 1284.34 808.196 1287.98 Q805.025 1291.59 799.47 1291.59 Q793.891 1291.59 790.72 1287.98 Q787.571 1284.34 787.571 1277.98 Q787.571 1271.59 790.72 1267.98 Q793.891 1264.36 799.47 1264.36 Z" fill="#000000" fill-rule="evenodd" fill-opacity="1" /><path clip-path="url(#clip120)" d="M818.428 1254.9 L822.687 1254.9 L822.687 1290.92 L818.428 1290.92 L818.428 1254.9 Z" fill="#000000" fill-rule="evenodd" fill-opacity="1" /><path clip-path="url(#clip120)" d="M831.159 1280.68 L831.159 1264.99 L835.418 1264.99 L835.418 1280.52 Q835.418 1284.2 836.854 1286.05 Q838.289 1287.88 841.159 1287.88 Q844.608 1287.88 846.599 1285.68 Q848.613 1283.48 848.613 1279.69 L848.613 1264.99 L852.872 1264.99 L852.872 1290.92 L848.613 1290.92 L848.613 1286.93 Q847.062 1289.29 845.002 1290.45 Q842.965 1291.59 840.256 1291.59 Q835.789 1291.59 833.474 1288.81 Q831.159 1286.03 831.159 1280.68 M841.877 1264.36 L841.877 1264.36 Z" fill="#000000" fill-rule="evenodd" fill-opacity="1" /><path clip-path="url(#clip120)" d="M865.858 1257.63 L865.858 1264.99 L874.631 1264.99 L874.631 1268.3 L865.858 1268.3 L865.858 1282.37 Q865.858 1285.54 866.715 1286.45 Q867.594 1287.35 870.256 1287.35 L874.631 1287.35 L874.631 1290.92 L870.256 1290.92 Q865.326 1290.92 863.451 1289.09 Q861.576 1287.23 861.576 1282.37 L861.576 1268.3 L858.451 1268.3 L858.451 1264.99 L861.576 1264.99 L861.576 1257.63 L865.858 1257.63 Z" fill="#000000" fill-rule="evenodd" fill-opacity="1" /><path clip-path="url(#clip120)" d="M880.233 1264.99 L884.492 1264.99 L884.492 1290.92 L880.233 1290.92 L880.233 1264.99 M880.233 1254.9 L884.492 1254.9 L884.492 1260.29 L880.233 1260.29 L880.233 1254.9 Z" fill="#000000" fill-rule="evenodd" fill-opacity="1" /><path clip-path="url(#clip120)" d="M903.45 1267.98 Q900.025 1267.98 898.034 1270.66 Q896.043 1273.32 896.043 1277.98 Q896.043 1282.63 898.011 1285.31 Q900.001 1287.98 903.45 1287.98 Q906.853 1287.98 908.844 1285.29 Q910.835 1282.61 910.835 1277.98 Q910.835 1273.37 908.844 1270.68 Q906.853 1267.98 903.45 1267.98 M903.45 1264.36 Q909.006 1264.36 912.177 1267.98 Q915.349 1271.59 915.349 1277.98 Q915.349 1284.34 912.177 1287.98 Q909.006 1291.59 903.45 1291.59 Q897.872 1291.59 894.701 1287.98 Q891.552 1284.34 891.552 1277.98 Q891.552 1271.59 894.701 1267.98 Q897.872 1264.36 903.45 1264.36 Z" fill="#000000" fill-rule="evenodd" fill-opacity="1" /><path clip-path="url(#clip120)" d="M943.96 1275.27 L943.96 1290.92 L939.7 1290.92 L939.7 1275.41 Q939.7 1271.73 938.265 1269.9 Q936.83 1268.07 933.96 1268.07 Q930.511 1268.07 928.52 1270.27 Q926.529 1272.47 926.529 1276.26 L926.529 1290.92 L922.247 1290.92 L922.247 1264.99 L926.529 1264.99 L926.529 1269.02 Q928.057 1266.68 930.117 1265.52 Q932.2 1264.36 934.909 1264.36 Q939.376 1264.36 941.668 1267.14 Q943.96 1269.9 943.96 1275.27 Z" fill="#000000" fill-rule="evenodd" fill-opacity="1" /><circle clip-path="url(#clip120)" cx="419.594" cy="1325.48" r="23.04" fill="#ff0000" fill-rule="evenodd" fill-opacity="1" stroke="#000000" stroke-opacity="1" stroke-width="5.12"/>
<path clip-path="url(#clip120)" d="M512.758 1308.2 L519.054 1308.2 L534.378 1337.11 L534.378 1308.2 L538.915 1308.2 L538.915 1342.76 L532.619 1342.76 L517.295 1313.84 L517.295 1342.76 L512.758 1342.76 L512.758 1308.2 Z" fill="#000000" fill-rule="evenodd" fill-opacity="1" /><path clip-path="url(#clip120)" d="M547.596 1332.52 L547.596 1316.83 L551.855 1316.83 L551.855 1332.36 Q551.855 1336.04 553.29 1337.89 Q554.725 1339.72 557.596 1339.72 Q561.045 1339.72 563.036 1337.52 Q565.049 1335.32 565.049 1331.53 L565.049 1316.83 L569.309 1316.83 L569.309 1342.76 L565.049 1342.76 L565.049 1338.77 Q563.499 1341.13 561.438 1342.29 Q559.401 1343.43 556.693 1343.43 Q552.225 1343.43 549.911 1340.65 Q547.596 1337.87 547.596 1332.52 M558.313 1316.2 L558.313 1316.2 Z" fill="#000000" fill-rule="evenodd" fill-opacity="1" /><path clip-path="url(#clip120)" d="M598.267 1321.81 Q599.864 1318.94 602.086 1317.57 Q604.309 1316.2 607.318 1316.2 Q611.369 1316.2 613.568 1319.05 Q615.767 1321.88 615.767 1327.11 L615.767 1342.76 L611.484 1342.76 L611.484 1327.25 Q611.484 1323.52 610.165 1321.71 Q608.846 1319.91 606.137 1319.91 Q602.827 1319.91 600.906 1322.11 Q598.984 1324.31 598.984 1328.1 L598.984 1342.76 L594.702 1342.76 L594.702 1327.25 Q594.702 1323.5 593.383 1321.71 Q592.063 1319.91 589.309 1319.91 Q586.045 1319.91 584.123 1322.13 Q582.202 1324.33 582.202 1328.1 L582.202 1342.76 L577.92 1342.76 L577.92 1316.83 L582.202 1316.83 L582.202 1320.86 Q583.661 1318.47 585.698 1317.34 Q587.735 1316.2 590.535 1316.2 Q593.36 1316.2 595.327 1317.64 Q597.318 1319.07 598.267 1321.81 Z" fill="#000000" fill-rule="evenodd" fill-opacity="1" /><path clip-path="url(#clip120)" d="M646.438 1328.73 L646.438 1330.81 L626.855 1330.81 Q627.132 1335.21 629.494 1337.52 Q631.878 1339.82 636.114 1339.82 Q638.568 1339.82 640.859 1339.21 Q643.174 1338.61 645.443 1337.41 L645.443 1341.44 Q643.151 1342.41 640.744 1342.92 Q638.336 1343.43 635.859 1343.43 Q629.656 1343.43 626.021 1339.82 Q622.41 1336.2 622.41 1330.05 Q622.41 1323.68 625.836 1319.95 Q629.285 1316.2 635.119 1316.2 Q640.35 1316.2 643.382 1319.58 Q646.438 1322.94 646.438 1328.73 M642.179 1327.48 Q642.132 1323.98 640.211 1321.9 Q638.313 1319.82 635.165 1319.82 Q631.6 1319.82 629.447 1321.83 Q627.318 1323.84 626.994 1327.5 L642.179 1327.48 Z" fill="#000000" fill-rule="evenodd" fill-opacity="1" /><path clip-path="url(#clip120)" d="M668.452 1320.81 Q667.734 1320.39 666.878 1320.21 Q666.044 1320 665.026 1320 Q661.415 1320 659.47 1322.36 Q657.549 1324.7 657.549 1329.1 L657.549 1342.76 L653.267 1342.76 L653.267 1316.83 L657.549 1316.83 L657.549 1320.86 Q658.892 1318.5 661.044 1317.36 Q663.197 1316.2 666.276 1316.2 Q666.716 1316.2 667.248 1316.27 Q667.78 1316.32 668.429 1316.44 L668.452 1320.81 Z" fill="#000000" fill-rule="evenodd" fill-opacity="1" /><path clip-path="url(#clip120)" d="M672.919 1316.83 L677.179 1316.83 L677.179 1342.76 L672.919 1342.76 L672.919 1316.83 M672.919 1306.74 L677.179 1306.74 L677.179 1312.13 L672.919 1312.13 L672.919 1306.74 Z" fill="#000000" fill-rule="evenodd" fill-opacity="1" /><path clip-path="url(#clip120)" d="M704.748 1317.82 L704.748 1321.81 Q702.942 1320.81 701.114 1320.32 Q699.308 1319.82 697.456 1319.82 Q693.313 1319.82 691.021 1322.45 Q688.729 1325.07 688.729 1329.82 Q688.729 1334.56 691.021 1337.2 Q693.313 1339.82 697.456 1339.82 Q699.308 1339.82 701.114 1339.33 Q702.942 1338.82 704.748 1337.82 L704.748 1341.76 Q702.965 1342.59 701.044 1343.01 Q699.146 1343.43 696.993 1343.43 Q691.137 1343.43 687.688 1339.75 Q684.239 1336.07 684.239 1329.82 Q684.239 1323.47 687.711 1319.84 Q691.206 1316.2 697.271 1316.2 Q699.239 1316.2 701.114 1316.62 Q702.989 1317.01 704.748 1317.82 Z" fill="#000000" fill-rule="evenodd" fill-opacity="1" /><path clip-path="url(#clip120)" d="M723.938 1329.72 Q718.776 1329.72 716.785 1330.9 Q714.794 1332.08 714.794 1334.93 Q714.794 1337.2 716.276 1338.54 Q717.78 1339.86 720.35 1339.86 Q723.891 1339.86 726.021 1337.36 Q728.174 1334.84 728.174 1330.67 L728.174 1329.72 L723.938 1329.72 M732.433 1327.96 L732.433 1342.76 L728.174 1342.76 L728.174 1338.82 Q726.715 1341.18 724.539 1342.32 Q722.363 1343.43 719.215 1343.43 Q715.234 1343.43 712.873 1341.2 Q710.535 1338.96 710.535 1335.21 Q710.535 1330.83 713.451 1328.61 Q716.391 1326.39 722.201 1326.39 L728.174 1326.39 L728.174 1325.97 Q728.174 1323.03 726.229 1321.44 Q724.308 1319.82 720.813 1319.82 Q718.59 1319.82 716.484 1320.35 Q714.377 1320.88 712.433 1321.95 L712.433 1318.01 Q714.771 1317.11 716.97 1316.67 Q719.169 1316.2 721.252 1316.2 Q726.877 1316.2 729.655 1319.12 Q732.433 1322.04 732.433 1327.96 Z" fill="#000000" fill-rule="evenodd" fill-opacity="1" /><path clip-path="url(#clip120)" d="M741.206 1306.74 L745.465 1306.74 L745.465 1342.76 L741.206 1342.76 L741.206 1306.74 Z" fill="#000000" fill-rule="evenodd" fill-opacity="1" /><path clip-path="url(#clip120)" d="M790.349 1309.33 L790.349 1313.89 Q787.687 1312.62 785.326 1311.99 Q782.965 1311.37 780.766 1311.37 Q776.947 1311.37 774.863 1312.85 Q772.803 1314.33 772.803 1317.06 Q772.803 1319.35 774.169 1320.53 Q775.558 1321.69 779.4 1322.41 L782.224 1322.99 Q787.456 1323.98 789.933 1326.51 Q792.433 1329.01 792.433 1333.22 Q792.433 1338.24 789.053 1340.83 Q785.696 1343.43 779.192 1343.43 Q776.738 1343.43 773.96 1342.87 Q771.206 1342.32 768.243 1341.23 L768.243 1336.41 Q771.09 1338.01 773.822 1338.82 Q776.553 1339.63 779.192 1339.63 Q783.196 1339.63 785.372 1338.06 Q787.548 1336.48 787.548 1333.57 Q787.548 1331.02 785.974 1329.58 Q784.423 1328.15 780.859 1327.43 L778.011 1326.88 Q772.78 1325.83 770.442 1323.61 Q768.104 1321.39 768.104 1317.43 Q768.104 1312.85 771.322 1310.21 Q774.562 1307.57 780.234 1307.57 Q782.664 1307.57 785.187 1308.01 Q787.71 1308.45 790.349 1309.33 Z" fill="#000000" fill-rule="evenodd" fill-opacity="1" /><path clip-path="url(#clip120)" d="M809.585 1319.82 Q806.159 1319.82 804.169 1322.5 Q802.178 1325.16 802.178 1329.82 Q802.178 1334.47 804.145 1337.15 Q806.136 1339.82 809.585 1339.82 Q812.988 1339.82 814.979 1337.13 Q816.969 1334.45 816.969 1329.82 Q816.969 1325.21 814.979 1322.52 Q812.988 1319.82 809.585 1319.82 M809.585 1316.2 Q815.141 1316.2 818.312 1319.82 Q821.483 1323.43 821.483 1329.82 Q821.483 1336.18 818.312 1339.82 Q815.141 1343.43 809.585 1343.43 Q804.007 1343.43 800.835 1339.82 Q797.687 1336.18 797.687 1329.82 Q797.687 1323.43 800.835 1319.82 Q804.007 1316.2 809.585 1316.2 Z" fill="#000000" fill-rule="evenodd" fill-opacity="1" /><path clip-path="url(#clip120)" d="M828.543 1306.74 L832.803 1306.74 L832.803 1342.76 L828.543 1342.76 L828.543 1306.74 Z" fill="#000000" fill-rule="evenodd" fill-opacity="1" /><path clip-path="url(#clip120)" d="M841.275 1332.52 L841.275 1316.83 L845.534 1316.83 L845.534 1332.36 Q845.534 1336.04 846.969 1337.89 Q848.404 1339.72 851.275 1339.72 Q854.724 1339.72 856.715 1337.52 Q858.728 1335.32 858.728 1331.53 L858.728 1316.83 L862.988 1316.83 L862.988 1342.76 L858.728 1342.76 L858.728 1338.77 Q857.178 1341.13 855.117 1342.29 Q853.08 1343.43 850.372 1343.43 Q845.904 1343.43 843.59 1340.65 Q841.275 1337.87 841.275 1332.52 M851.992 1316.2 L851.992 1316.2 Z" fill="#000000" fill-rule="evenodd" fill-opacity="1" /><path clip-path="url(#clip120)" d="M875.974 1309.47 L875.974 1316.83 L884.747 1316.83 L884.747 1320.14 L875.974 1320.14 L875.974 1334.21 Q875.974 1337.38 876.83 1338.29 Q877.71 1339.19 880.372 1339.19 L884.747 1339.19 L884.747 1342.76 L880.372 1342.76 Q875.441 1342.76 873.566 1340.93 Q871.691 1339.07 871.691 1334.21 L871.691 1320.14 L868.566 1320.14 L868.566 1316.83 L871.691 1316.83 L871.691 1309.47 L875.974 1309.47 Z" fill="#000000" fill-rule="evenodd" fill-opacity="1" /><path clip-path="url(#clip120)" d="M890.349 1316.83 L894.608 1316.83 L894.608 1342.76 L890.349 1342.76 L890.349 1316.83 M890.349 1306.74 L894.608 1306.74 L894.608 1312.13 L890.349 1312.13 L890.349 1306.74 Z" fill="#000000" fill-rule="evenodd" fill-opacity="1" /><path clip-path="url(#clip120)" d="M913.566 1319.82 Q910.14 1319.82 908.15 1322.5 Q906.159 1325.16 906.159 1329.82 Q906.159 1334.47 908.126 1337.15 Q910.117 1339.82 913.566 1339.82 Q916.969 1339.82 918.96 1337.13 Q920.95 1334.45 920.95 1329.82 Q920.95 1325.21 918.96 1322.52 Q916.969 1319.82 913.566 1319.82 M913.566 1316.2 Q919.122 1316.2 922.293 1319.82 Q925.464 1323.43 925.464 1329.82 Q925.464 1336.18 922.293 1339.82 Q919.122 1343.43 913.566 1343.43 Q907.987 1343.43 904.816 1339.82 Q901.668 1336.18 901.668 1329.82 Q901.668 1323.43 904.816 1319.82 Q907.987 1316.2 913.566 1316.2 Z" fill="#000000" fill-rule="evenodd" fill-opacity="1" /><path clip-path="url(#clip120)" d="M954.075 1327.11 L954.075 1342.76 L949.816 1342.76 L949.816 1327.25 Q949.816 1323.57 948.381 1321.74 Q946.946 1319.91 944.075 1319.91 Q940.626 1319.91 938.635 1322.11 Q936.645 1324.31 936.645 1328.1 L936.645 1342.76 L932.362 1342.76 L932.362 1316.83 L936.645 1316.83 L936.645 1320.86 Q938.172 1318.52 940.233 1317.36 Q942.316 1316.2 945.024 1316.2 Q949.492 1316.2 951.784 1318.98 Q954.075 1321.74 954.075 1327.11 Z" fill="#000000" fill-rule="evenodd" fill-opacity="1" /></svg>
