<?xml version="1.0" encoding="utf-8"?>
<svg xmlns="http://www.w3.org/2000/svg" xmlns:xlink="http://www.w3.org/1999/xlink" width="600" height="400" viewBox="0 0 2400 1600">
<defs>
  <clipPath id="clip940">
    <rect x="0" y="0" width="2400" height="1600"/>
  </clipPath>
</defs>
<path clip-path="url(#clip940)" d="
M0 1600 L2400 1600 L2400 0 L0 0  Z
  " fill="#ffffff" fill-rule="evenodd" fill-opacity="1"/>
<defs>
  <clipPath id="clip941">
    <rect x="480" y="0" width="1681" height="1600"/>
  </clipPath>
</defs>
<path clip-path="url(#clip940)" d="
M149.191 1486.45 L2352.76 1486.45 L2352.76 47.2441 L149.191 47.2441  Z
  " fill="#ffffff" fill-rule="evenodd" fill-opacity="1"/>
<defs>
  <clipPath id="clip942">
    <rect x="149" y="47" width="2205" height="1440"/>
  </clipPath>
</defs>
<polyline clip-path="url(#clip942)" style="stroke:#000000; stroke-linecap:butt; stroke-linejoin:round; stroke-width:2; stroke-opacity:0.1; fill:none" points="
  211.556,1486.45 211.556,47.2441 
  "/>
<polyline clip-path="url(#clip942)" style="stroke:#000000; stroke-linecap:butt; stroke-linejoin:round; stroke-width:2; stroke-opacity:0.1; fill:none" points="
  731.265,1486.45 731.265,47.2441 
  "/>
<polyline clip-path="url(#clip942)" style="stroke:#000000; stroke-linecap:butt; stroke-linejoin:round; stroke-width:2; stroke-opacity:0.1; fill:none" points="
  1250.97,1486.45 1250.97,47.2441 
  "/>
<polyline clip-path="url(#clip942)" style="stroke:#000000; stroke-linecap:butt; stroke-linejoin:round; stroke-width:2; stroke-opacity:0.1; fill:none" points="
  1770.68,1486.45 1770.68,47.2441 
  "/>
<polyline clip-path="url(#clip942)" style="stroke:#000000; stroke-linecap:butt; stroke-linejoin:round; stroke-width:2; stroke-opacity:0.1; fill:none" points="
  2290.39,1486.45 2290.39,47.2441 
  "/>
<polyline clip-path="url(#clip940)" style="stroke:#000000; stroke-linecap:butt; stroke-linejoin:round; stroke-width:4; stroke-opacity:1; fill:none" points="
  149.191,1486.45 2352.76,1486.45 
  "/>
<polyline clip-path="url(#clip940)" style="stroke:#000000; stroke-linecap:butt; stroke-linejoin:round; stroke-width:4; stroke-opacity:1; fill:none" points="
  211.556,1486.45 211.556,1467.55 
  "/>
<polyline clip-path="url(#clip940)" style="stroke:#000000; stroke-linecap:butt; stroke-linejoin:round; stroke-width:4; stroke-opacity:1; fill:none" points="
  731.265,1486.45 731.265,1467.55 
  "/>
<polyline clip-path="url(#clip940)" style="stroke:#000000; stroke-linecap:butt; stroke-linejoin:round; stroke-width:4; stroke-opacity:1; fill:none" points="
  1250.97,1486.45 1250.97,1467.55 
  "/>
<polyline clip-path="url(#clip940)" style="stroke:#000000; stroke-linecap:butt; stroke-linejoin:round; stroke-width:4; stroke-opacity:1; fill:none" points="
  1770.68,1486.45 1770.68,1467.55 
  "/>
<polyline clip-path="url(#clip940)" style="stroke:#000000; stroke-linecap:butt; stroke-linejoin:round; stroke-width:4; stroke-opacity:1; fill:none" points="
  2290.39,1486.45 2290.39,1467.55 
  "/>
<path clip-path="url(#clip940)" d="M211.556 1517.37 Q207.945 1517.37 206.116 1520.93 Q204.311 1524.47 204.311 1531.6 Q204.311 1538.71 206.116 1542.27 Q207.945 1545.82 211.556 1545.82 Q215.19 1545.82 216.996 1542.27 Q218.824 1538.71 218.824 1531.6 Q218.824 1524.47 216.996 1520.93 Q215.19 1517.37 211.556 1517.37 M211.556 1513.66 Q217.366 1513.66 220.422 1518.27 Q223.5 1522.85 223.5 1531.6 Q223.5 1540.33 220.422 1544.94 Q217.366 1549.52 211.556 1549.52 Q205.746 1549.52 202.667 1544.94 Q199.612 1540.33 199.612 1531.6 Q199.612 1522.85 202.667 1518.27 Q205.746 1513.66 211.556 1513.66 Z" fill="#000000" fill-rule="evenodd" fill-opacity="1" /><path clip-path="url(#clip940)" d="M705.964 1514.29 L724.32 1514.29 L724.32 1518.22 L710.246 1518.22 L710.246 1526.7 Q711.265 1526.35 712.283 1526.19 Q713.302 1526 714.32 1526 Q720.107 1526 723.487 1529.17 Q726.867 1532.34 726.867 1537.76 Q726.867 1543.34 723.394 1546.44 Q719.922 1549.52 713.603 1549.52 Q711.427 1549.52 709.158 1549.15 Q706.913 1548.78 704.506 1548.04 L704.506 1543.34 Q706.589 1544.47 708.811 1545.03 Q711.033 1545.58 713.51 1545.58 Q717.515 1545.58 719.853 1543.48 Q722.191 1541.37 722.191 1537.76 Q722.191 1534.15 719.853 1532.04 Q717.515 1529.94 713.51 1529.94 Q711.635 1529.94 709.76 1530.35 Q707.908 1530.77 705.964 1531.65 L705.964 1514.29 Z" fill="#000000" fill-rule="evenodd" fill-opacity="1" /><path clip-path="url(#clip940)" d="M746.079 1517.37 Q742.468 1517.37 740.64 1520.93 Q738.834 1524.47 738.834 1531.6 Q738.834 1538.71 740.64 1542.27 Q742.468 1545.82 746.079 1545.82 Q749.714 1545.82 751.519 1542.27 Q753.348 1538.71 753.348 1531.6 Q753.348 1524.47 751.519 1520.93 Q749.714 1517.37 746.079 1517.37 M746.079 1513.66 Q751.89 1513.66 754.945 1518.27 Q758.024 1522.85 758.024 1531.6 Q758.024 1540.33 754.945 1544.94 Q751.89 1549.52 746.079 1549.52 Q740.269 1549.52 737.191 1544.94 Q734.135 1540.33 734.135 1531.6 Q734.135 1522.85 737.191 1518.27 Q740.269 1513.66 746.079 1513.66 Z" fill="#000000" fill-rule="evenodd" fill-opacity="1" /><path clip-path="url(#clip940)" d="M1210.58 1544.91 L1218.22 1544.91 L1218.22 1518.55 L1209.91 1520.21 L1209.91 1515.95 L1218.17 1514.29 L1222.85 1514.29 L1222.85 1544.91 L1230.49 1544.91 L1230.49 1548.85 L1210.58 1548.85 L1210.58 1544.91 Z" fill="#000000" fill-rule="evenodd" fill-opacity="1" /><path clip-path="url(#clip940)" d="M1249.93 1517.37 Q1246.32 1517.37 1244.49 1520.93 Q1242.69 1524.47 1242.69 1531.6 Q1242.69 1538.71 1244.49 1542.27 Q1246.32 1545.82 1249.93 1545.82 Q1253.57 1545.82 1255.37 1542.27 Q1257.2 1538.71 1257.2 1531.6 Q1257.2 1524.47 1255.37 1520.93 Q1253.57 1517.37 1249.93 1517.37 M1249.93 1513.66 Q1255.74 1513.66 1258.8 1518.27 Q1261.88 1522.85 1261.88 1531.6 Q1261.88 1540.33 1258.8 1544.94 Q1255.74 1549.52 1249.93 1549.52 Q1244.12 1549.52 1241.04 1544.94 Q1237.99 1540.33 1237.99 1531.6 Q1237.99 1522.85 1241.04 1518.27 Q1244.12 1513.66 1249.93 1513.66 Z" fill="#000000" fill-rule="evenodd" fill-opacity="1" /><path clip-path="url(#clip940)" d="M1280.09 1517.37 Q1276.48 1517.37 1274.65 1520.93 Q1272.85 1524.47 1272.85 1531.6 Q1272.85 1538.71 1274.65 1542.27 Q1276.48 1545.82 1280.09 1545.82 Q1283.73 1545.82 1285.53 1542.27 Q1287.36 1538.71 1287.36 1531.6 Q1287.36 1524.47 1285.53 1520.93 Q1283.73 1517.37 1280.09 1517.37 M1280.09 1513.66 Q1285.9 1513.66 1288.96 1518.27 Q1292.04 1522.85 1292.04 1531.6 Q1292.04 1540.33 1288.96 1544.94 Q1285.9 1549.52 1280.09 1549.52 Q1274.28 1549.52 1271.2 1544.94 Q1268.15 1540.33 1268.15 1531.6 Q1268.15 1522.85 1271.2 1518.27 Q1274.28 1513.66 1280.09 1513.66 Z" fill="#000000" fill-rule="evenodd" fill-opacity="1" /><path clip-path="url(#clip940)" d="M1730.29 1544.91 L1737.93 1544.91 L1737.93 1518.55 L1729.62 1520.21 L1729.62 1515.95 L1737.88 1514.29 L1742.56 1514.29 L1742.56 1544.91 L1750.2 1544.91 L1750.2 1548.85 L1730.29 1548.85 L1730.29 1544.91 Z" fill="#000000" fill-rule="evenodd" fill-opacity="1" /><path clip-path="url(#clip940)" d="M1759.69 1514.29 L1778.04 1514.29 L1778.04 1518.22 L1763.97 1518.22 L1763.97 1526.7 Q1764.99 1526.35 1766.01 1526.19 Q1767.02 1526 1768.04 1526 Q1773.83 1526 1777.21 1529.17 Q1780.59 1532.34 1780.59 1537.76 Q1780.59 1543.34 1777.12 1546.44 Q1773.65 1549.52 1767.33 1549.52 Q1765.15 1549.52 1762.88 1549.15 Q1760.64 1548.78 1758.23 1548.04 L1758.23 1543.34 Q1760.31 1544.47 1762.53 1545.03 Q1764.76 1545.58 1767.23 1545.58 Q1771.24 1545.58 1773.58 1543.48 Q1775.91 1541.37 1775.91 1537.76 Q1775.91 1534.15 1773.58 1532.04 Q1771.24 1529.94 1767.23 1529.94 Q1765.36 1529.94 1763.48 1530.35 Q1761.63 1530.77 1759.69 1531.65 L1759.69 1514.29 Z" fill="#000000" fill-rule="evenodd" fill-opacity="1" /><path clip-path="url(#clip940)" d="M1799.8 1517.37 Q1796.19 1517.37 1794.36 1520.93 Q1792.56 1524.47 1792.56 1531.6 Q1792.56 1538.71 1794.36 1542.27 Q1796.19 1545.82 1799.8 1545.82 Q1803.44 1545.82 1805.24 1542.27 Q1807.07 1538.71 1807.07 1531.6 Q1807.07 1524.47 1805.24 1520.93 Q1803.44 1517.37 1799.8 1517.37 M1799.8 1513.66 Q1805.61 1513.66 1808.67 1518.27 Q1811.75 1522.85 1811.75 1531.6 Q1811.75 1540.33 1808.67 1544.94 Q1805.61 1549.52 1799.8 1549.52 Q1793.99 1549.52 1790.91 1544.94 Q1787.86 1540.33 1787.86 1531.6 Q1787.86 1522.85 1790.91 1518.27 Q1793.99 1513.66 1799.8 1513.66 Z" fill="#000000" fill-rule="evenodd" fill-opacity="1" /><path clip-path="url(#clip940)" d="M2254.08 1544.91 L2270.4 1544.91 L2270.4 1548.85 L2248.46 1548.85 L2248.46 1544.91 Q2251.12 1542.16 2255.7 1537.53 Q2260.31 1532.88 2261.49 1531.53 Q2263.74 1529.01 2264.62 1527.27 Q2265.52 1525.51 2265.52 1523.82 Q2265.52 1521.07 2263.57 1519.33 Q2261.65 1517.6 2258.55 1517.6 Q2256.35 1517.6 2253.9 1518.36 Q2251.47 1519.13 2248.69 1520.68 L2248.69 1515.95 Q2251.51 1514.82 2253.97 1514.24 Q2256.42 1513.66 2258.46 1513.66 Q2263.83 1513.66 2267.02 1516.35 Q2270.22 1519.03 2270.22 1523.52 Q2270.22 1525.65 2269.41 1527.57 Q2268.62 1529.47 2266.51 1532.07 Q2265.93 1532.74 2262.83 1535.95 Q2259.73 1539.15 2254.08 1544.91 Z" fill="#000000" fill-rule="evenodd" fill-opacity="1" /><path clip-path="url(#clip940)" d="M2290.22 1517.37 Q2286.61 1517.37 2284.78 1520.93 Q2282.97 1524.47 2282.97 1531.6 Q2282.97 1538.71 2284.78 1542.27 Q2286.61 1545.82 2290.22 1545.82 Q2293.85 1545.82 2295.66 1542.27 Q2297.49 1538.71 2297.49 1531.6 Q2297.49 1524.47 2295.66 1520.93 Q2293.85 1517.37 2290.22 1517.37 M2290.22 1513.66 Q2296.03 1513.66 2299.08 1518.27 Q2302.16 1522.85 2302.16 1531.6 Q2302.16 1540.33 2299.08 1544.94 Q2296.03 1549.52 2290.22 1549.52 Q2284.41 1549.52 2281.33 1544.94 Q2278.27 1540.33 2278.27 1531.6 Q2278.27 1522.85 2281.33 1518.27 Q2284.41 1513.66 2290.22 1513.66 Z" fill="#000000" fill-rule="evenodd" fill-opacity="1" /><path clip-path="url(#clip940)" d="M2320.38 1517.37 Q2316.77 1517.37 2314.94 1520.93 Q2313.13 1524.47 2313.13 1531.6 Q2313.13 1538.71 2314.94 1542.27 Q2316.77 1545.82 2320.38 1545.82 Q2324.01 1545.82 2325.82 1542.27 Q2327.65 1538.71 2327.65 1531.6 Q2327.65 1524.47 2325.82 1520.93 Q2324.01 1517.37 2320.38 1517.37 M2320.38 1513.66 Q2326.19 1513.66 2329.24 1518.27 Q2332.32 1522.85 2332.32 1531.6 Q2332.32 1540.33 2329.24 1544.94 Q2326.19 1549.52 2320.38 1549.52 Q2314.57 1549.52 2311.49 1544.94 Q2308.43 1540.33 2308.43 1531.6 Q2308.43 1522.85 2311.49 1518.27 Q2314.57 1513.66 2320.38 1513.66 Z" fill="#000000" fill-rule="evenodd" fill-opacity="1" /><polyline clip-path="url(#clip942)" style="stroke:#000000; stroke-linecap:butt; stroke-linejoin:round; stroke-width:2; stroke-opacity:0.1; fill:none" points="
  149.191,1391.61 2352.76,1391.61 
  "/>
<polyline clip-path="url(#clip942)" style="stroke:#000000; stroke-linecap:butt; stroke-linejoin:round; stroke-width:2; stroke-opacity:0.1; fill:none" points="
  149.191,1065.7 2352.76,1065.7 
  "/>
<polyline clip-path="url(#clip942)" style="stroke:#000000; stroke-linecap:butt; stroke-linejoin:round; stroke-width:2; stroke-opacity:0.1; fill:none" points="
  149.191,739.791 2352.76,739.791 
  "/>
<polyline clip-path="url(#clip942)" style="stroke:#000000; stroke-linecap:butt; stroke-linejoin:round; stroke-width:2; stroke-opacity:0.1; fill:none" points="
  149.191,413.884 2352.76,413.884 
  "/>
<polyline clip-path="url(#clip942)" style="stroke:#000000; stroke-linecap:butt; stroke-linejoin:round; stroke-width:2; stroke-opacity:0.1; fill:none" points="
  149.191,87.9763 2352.76,87.9763 
  "/>
<polyline clip-path="url(#clip940)" style="stroke:#000000; stroke-linecap:butt; stroke-linejoin:round; stroke-width:4; stroke-opacity:1; fill:none" points="
  149.191,1486.45 149.191,47.2441 
  "/>
<polyline clip-path="url(#clip940)" style="stroke:#000000; stroke-linecap:butt; stroke-linejoin:round; stroke-width:4; stroke-opacity:1; fill:none" points="
  149.191,1391.61 168.089,1391.61 
  "/>
<polyline clip-path="url(#clip940)" style="stroke:#000000; stroke-linecap:butt; stroke-linejoin:round; stroke-width:4; stroke-opacity:1; fill:none" points="
  149.191,1065.7 168.089,1065.7 
  "/>
<polyline clip-path="url(#clip940)" style="stroke:#000000; stroke-linecap:butt; stroke-linejoin:round; stroke-width:4; stroke-opacity:1; fill:none" points="
  149.191,739.791 168.089,739.791 
  "/>
<polyline clip-path="url(#clip940)" style="stroke:#000000; stroke-linecap:butt; stroke-linejoin:round; stroke-width:4; stroke-opacity:1; fill:none" points="
  149.191,413.884 168.089,413.884 
  "/>
<polyline clip-path="url(#clip940)" style="stroke:#000000; stroke-linecap:butt; stroke-linejoin:round; stroke-width:4; stroke-opacity:1; fill:none" points="
  149.191,87.9763 168.089,87.9763 
  "/>
<path clip-path="url(#clip940)" d="M50.9921 1392.06 L80.6679 1392.06 L80.6679 1395.99 L50.9921 1395.99 L50.9921 1392.06 Z" fill="#000000" fill-rule="evenodd" fill-opacity="1" /><path clip-path="url(#clip940)" d="M103.608 1378.4 L91.8021 1396.85 L103.608 1396.85 L103.608 1378.4 M102.381 1374.33 L108.26 1374.33 L108.26 1396.85 L113.191 1396.85 L113.191 1400.74 L108.26 1400.74 L108.26 1408.89 L103.608 1408.89 L103.608 1400.74 L88.0058 1400.74 L88.0058 1396.22 L102.381 1374.33 Z" fill="#000000" fill-rule="evenodd" fill-opacity="1" /><path clip-path="url(#clip940)" d="M52.1264 1066.15 L81.8021 1066.15 L81.8021 1070.08 L52.1264 1070.08 L52.1264 1066.15 Z" fill="#000000" fill-rule="evenodd" fill-opacity="1" /><path clip-path="url(#clip940)" d="M106.061 1064.34 Q109.418 1065.06 111.293 1067.33 Q113.191 1069.6 113.191 1072.93 Q113.191 1078.05 109.672 1080.85 Q106.154 1083.65 99.6724 1083.65 Q97.4965 1083.65 95.1817 1083.21 Q92.89 1082.79 90.4364 1081.94 L90.4364 1077.42 Q92.3808 1078.56 94.6956 1079.14 Q97.0104 1079.71 99.5335 1079.71 Q103.932 1079.71 106.223 1077.98 Q108.538 1076.24 108.538 1072.93 Q108.538 1069.88 106.385 1068.16 Q104.256 1066.43 100.436 1066.43 L96.4085 1066.43 L96.4085 1062.58 L100.621 1062.58 Q104.071 1062.58 105.899 1061.22 Q107.728 1059.83 107.728 1057.24 Q107.728 1054.58 105.83 1053.16 Q103.955 1051.73 100.436 1051.73 Q98.515 1051.73 96.316 1052.15 Q94.1169 1052.56 91.478 1053.44 L91.478 1049.27 Q94.14 1048.53 96.4548 1048.16 Q98.7928 1047.79 100.853 1047.79 Q106.177 1047.79 109.279 1050.22 Q112.381 1052.63 112.381 1056.75 Q112.381 1059.62 110.737 1061.61 Q109.094 1063.58 106.061 1064.34 Z" fill="#000000" fill-rule="evenodd" fill-opacity="1" /><path clip-path="url(#clip940)" d="M53.0754 740.242 L82.7512 740.242 L82.7512 744.177 L53.0754 744.177 L53.0754 740.242 Z" fill="#000000" fill-rule="evenodd" fill-opacity="1" /><path clip-path="url(#clip940)" d="M96.8715 753.136 L113.191 753.136 L113.191 757.071 L91.2465 757.071 L91.2465 753.136 Q93.9086 750.381 98.4919 745.752 Q103.098 741.099 104.279 739.756 Q106.524 737.233 107.404 735.497 Q108.307 733.738 108.307 732.048 Q108.307 729.293 106.362 727.557 Q104.441 725.821 101.339 725.821 Q99.14 725.821 96.6863 726.585 Q94.2558 727.349 91.478 728.9 L91.478 724.178 Q94.3021 723.043 96.7558 722.465 Q99.2095 721.886 101.246 721.886 Q106.617 721.886 109.811 724.571 Q113.006 727.256 113.006 731.747 Q113.006 733.877 112.196 735.798 Q111.408 737.696 109.302 740.289 Q108.723 740.96 105.621 744.177 Q102.52 747.372 96.8715 753.136 Z" fill="#000000" fill-rule="evenodd" fill-opacity="1" /><path clip-path="url(#clip940)" d="M52.7051 414.335 L82.3808 414.335 L82.3808 418.27 L52.7051 418.27 L52.7051 414.335 Z" fill="#000000" fill-rule="evenodd" fill-opacity="1" /><path clip-path="url(#clip940)" d="M93.2836 427.228 L100.922 427.228 L100.922 400.863 L92.6123 402.53 L92.6123 398.27 L100.876 396.604 L105.552 396.604 L105.552 427.228 L113.191 427.228 L113.191 431.164 L93.2836 431.164 L93.2836 427.228 Z" fill="#000000" fill-rule="evenodd" fill-opacity="1" /><path clip-path="url(#clip940)" d="M101.246 73.775 Q97.6354 73.775 95.8067 77.3398 Q94.0012 80.8814 94.0012 88.011 Q94.0012 95.1174 95.8067 98.6822 Q97.6354 102.224 101.246 102.224 Q104.881 102.224 106.686 98.6822 Q108.515 95.1174 108.515 88.011 Q108.515 80.8814 106.686 77.3398 Q104.881 73.775 101.246 73.775 M101.246 70.0713 Q107.057 70.0713 110.112 74.6777 Q113.191 79.261 113.191 88.011 Q113.191 96.7378 110.112 101.344 Q107.057 105.928 101.246 105.928 Q95.4363 105.928 92.3576 101.344 Q89.3021 96.7378 89.3021 88.011 Q89.3021 79.261 92.3576 74.6777 Q95.4363 70.0713 101.246 70.0713 Z" fill="#000000" fill-rule="evenodd" fill-opacity="1" /><polyline clip-path="url(#clip942)" style="stroke:#000000; stroke-linecap:butt; stroke-linejoin:round; stroke-width:8; stroke-opacity:1; fill:none" points="
  211.556,87.9763 212.717,87.983 213.877,88.003 215.038,88.0363 216.199,88.0829 217.359,88.1427 218.52,88.2157 219.681,88.3018 220.842,88.401 222.002,88.5133 
  223.163,88.6385 224.324,88.7768 225.484,88.928 226.645,89.0921 227.806,89.269 228.967,89.4588 230.127,89.6613 231.288,89.8766 232.449,90.1046 233.609,90.3452 
  234.77,90.5984 235.931,90.8642 237.092,91.1426 238.252,91.4334 239.413,91.7367 240.574,92.0524 241.734,92.3804 242.895,92.7208 244.056,93.0735 245.217,93.4385 
  246.377,93.8156 247.538,94.2049 248.699,94.6064 249.859,95.0199 251.02,95.4455 252.181,95.8831 253.342,96.3326 254.502,96.7941 255.663,97.2675 256.824,97.7527 
  257.984,98.2497 259.145,98.7585 260.306,99.2791 261.467,99.8113 262.627,100.355 263.788,100.911 264.949,101.478 266.109,102.056 267.27,102.646 268.431,103.248 
  269.592,103.86 270.752,104.485 271.913,105.12 273.074,105.767 274.234,106.425 275.395,107.094 276.556,107.775 277.716,108.466 278.877,109.169 280.038,109.883 
  281.199,110.607 282.359,111.343 283.52,112.09 284.681,112.847 285.841,113.615 287.002,114.394 288.163,115.184 289.324,115.985 290.484,116.796 291.645,117.618 
  292.806,118.45 293.966,119.293 295.127,120.147 296.288,121.011 297.449,121.885 298.609,122.77 299.77,123.665 300.931,124.571 302.091,125.487 303.252,126.413 
  304.413,127.349 305.574,128.295 306.734,129.252 307.895,130.218 309.056,131.195 310.216,132.181 311.377,133.178 312.538,134.184 313.699,135.201 314.859,136.227 
  316.02,137.263 317.181,138.308 318.341,139.364 319.502,140.429 320.663,141.503 321.824,142.588 322.984,143.681 324.145,144.785 325.306,145.898 326.466,147.02 
  327.627,148.151 328.788,149.292 329.949,150.443 331.109,151.602 332.27,152.771 333.431,153.949 334.591,155.136 335.752,156.332 336.913,157.537 338.074,158.751 
  339.234,159.975 340.395,161.207 341.556,162.448 342.716,163.698 343.877,164.957 345.038,166.224 346.198,167.5 347.359,168.785 348.52,170.079 349.681,171.381 
  350.841,172.692 352.002,174.011 353.163,175.339 354.323,176.676 355.484,178.02 356.645,179.373 357.806,180.735 358.966,182.105 360.127,183.483 361.288,184.869 
  362.448,186.263 363.609,187.666 364.77,189.077 365.931,190.495 367.091,191.922 368.252,193.357 369.413,194.799 370.573,196.25 371.734,197.708 372.895,199.174 
  374.056,200.648 375.216,202.13 376.377,203.619 377.538,205.116 378.698,206.621 379.859,208.133 381.02,209.653 382.181,211.18 383.341,212.715 384.502,214.257 
  385.663,215.806 386.823,217.363 387.984,218.927 389.145,220.498 390.306,222.077 391.466,223.663 392.627,225.255 393.788,226.855 394.948,228.462 396.109,230.076 
  397.27,231.697 398.431,233.325 399.591,234.96 400.752,236.601 401.913,238.25 403.073,239.905 404.234,241.567 405.395,243.235 406.556,244.911 407.716,246.592 
  408.877,248.281 410.038,249.976 411.198,251.677 412.359,253.385 413.52,255.099 414.68,256.819 415.841,258.546 417.002,260.28 418.163,262.019 419.323,263.765 
  420.484,265.516 421.645,267.274 422.805,269.038 423.966,270.808 425.127,272.584 426.288,274.366 427.448,276.154 428.609,277.948 429.77,279.747 430.93,281.553 
  432.091,283.364 433.252,285.181 434.413,287.003 435.573,288.831 436.734,290.665 437.895,292.504 439.055,294.349 440.216,296.199 441.377,298.055 442.538,299.916 
  
  "/>
<polyline clip-path="url(#clip942)" style="stroke:#000000; stroke-linecap:butt; stroke-linejoin:round; stroke-width:8; stroke-opacity:1; fill:none" points="
  442.538,299.916 443.698,301.783 444.859,303.654 446.02,305.532 447.18,307.414 448.341,309.301 449.502,311.194 450.663,313.092 451.823,314.995 452.984,316.903 
  454.145,318.817 455.305,320.735 456.466,322.658 457.627,324.587 458.788,326.52 459.948,328.458 461.109,330.401 462.27,332.349 463.43,334.302 464.591,336.26 
  465.752,338.222 466.913,340.189 468.073,342.161 469.234,344.138 470.395,346.119 471.555,348.105 472.716,350.095 473.877,352.09 475.038,354.09 476.198,356.094 
  477.359,358.102 478.52,360.115 479.68,362.133 480.841,364.154 482.002,366.18 483.162,368.211 484.323,370.246 485.484,372.285 486.645,374.328 487.805,376.375 
  488.966,378.427 490.127,380.482 491.287,382.542 492.448,384.606 493.609,386.674 494.77,388.746 495.93,390.822 497.091,392.902 498.252,394.986 499.412,397.074 
  500.573,399.165 501.734,401.261 502.895,403.36 504.055,405.463 505.216,407.57 506.377,409.681 507.537,411.795 508.698,413.913 509.859,416.034 511.02,418.159 
  512.18,420.288 513.341,422.42 514.502,424.556 515.662,426.695 516.823,428.838 517.984,430.984 519.145,433.133 520.305,435.286 521.466,437.442 522.627,439.602 
  523.787,441.764 524.948,443.93 526.109,446.099 527.27,448.272 528.43,450.447 529.591,452.626 530.752,454.807 531.912,456.992 533.073,459.18 534.234,461.37 
  535.395,463.564 536.555,465.76 537.716,467.96 538.877,470.162 540.037,472.368 541.198,474.576 542.359,476.786 543.52,479 544.68,481.216 545.841,483.435 
  547.002,485.657 548.162,487.881 549.323,490.108 550.484,492.337 551.644,494.569 552.805,496.804 553.966,499.04 555.127,501.28 556.287,503.522 557.448,505.766 
  558.609,508.012 559.769,510.261 560.93,512.512 562.091,514.766 563.252,517.021 564.412,519.279 565.573,521.539 566.734,523.802 567.894,526.066 569.055,528.332 
  570.216,530.601 571.377,532.871 572.537,535.144 573.698,537.418 574.859,539.694 576.019,541.973 577.18,544.253 578.341,546.535 579.502,548.819 580.662,551.104 
  581.823,553.391 582.984,555.68 584.144,557.971 585.305,560.264 586.466,562.558 587.627,564.853 588.787,567.15 589.948,569.449 591.109,571.749 592.269,574.051 
  593.43,576.354 594.591,578.659 595.752,580.965 596.912,583.272 598.073,585.581 599.234,587.891 600.394,590.202 601.555,592.514 602.716,594.828 603.877,597.143 
  605.037,599.459 606.198,601.776 607.359,604.094 608.519,606.413 609.68,608.734 610.841,611.055 612.002,613.377 613.162,615.7 614.323,618.024 615.484,620.349 
  616.644,622.675 617.805,625.002 618.966,627.329 620.126,629.657 621.287,631.986 622.448,634.316 623.609,636.646 624.769,638.977 625.93,641.308 627.091,643.64 
  628.251,645.973 629.412,648.306 630.573,650.639 631.734,652.973 632.894,655.308 634.055,657.643 635.216,659.978 636.376,662.313 637.537,664.649 638.698,666.985 
  639.859,669.322 641.019,671.658 642.18,673.995 643.341,676.332 644.501,678.669 645.662,681.006 646.823,683.343 647.984,685.68 649.144,688.017 650.305,690.354 
  651.466,692.691 652.626,695.028 653.787,697.365 654.948,699.702 656.109,702.038 657.269,704.374 658.43,706.71 659.591,709.046 660.751,711.381 661.912,713.717 
  663.073,716.051 664.234,718.386 665.394,720.719 666.555,723.053 667.716,725.386 668.876,727.718 670.037,730.05 671.198,732.382 672.359,734.712 673.519,737.042 
  
  "/>
<polyline clip-path="url(#clip942)" style="stroke:#000000; stroke-linecap:butt; stroke-linejoin:round; stroke-width:8; stroke-opacity:1; fill:none" points="
  673.519,737.042 674.68,739.372 675.841,741.7 677.001,744.028 678.162,746.356 679.323,748.682 680.484,751.008 681.644,753.333 682.805,755.657 683.966,757.98 
  685.126,760.303 686.287,762.625 687.448,764.945 688.608,767.265 689.769,769.584 690.93,771.902 692.091,774.219 693.251,776.535 694.412,778.85 695.573,781.164 
  696.733,783.476 697.894,785.788 699.055,788.099 700.216,790.409 701.376,792.717 702.537,795.024 703.698,797.33 704.858,799.635 706.019,801.939 707.18,804.242 
  708.341,806.543 709.501,808.843 710.662,811.141 711.823,813.439 712.983,815.735 714.144,818.029 715.305,820.323 716.466,822.615 717.626,824.905 718.787,827.194 
  719.948,829.482 721.108,831.768 722.269,834.052 723.43,836.335 724.591,838.617 725.751,840.897 726.912,843.175 728.073,845.452 729.233,847.728 730.394,850.001 
  731.555,852.273 732.716,854.543 733.876,856.812 735.037,859.079 736.198,861.344 737.358,863.607 738.519,865.869 739.68,868.128 740.841,870.386 742.001,872.642 
  743.162,874.897 744.323,877.149 745.483,879.399 746.644,881.648 747.805,883.894 748.966,886.139 750.126,888.382 751.287,890.622 752.448,892.861 753.608,895.098 
  754.769,897.332 755.93,899.565 757.09,901.795 758.251,904.023 759.412,906.249 760.573,908.473 761.733,910.695 762.894,912.915 764.055,915.132 765.215,917.347 
  766.376,919.56 767.537,921.77 768.698,923.978 769.858,926.184 771.019,928.388 772.18,930.589 773.34,932.788 774.501,934.984 775.662,937.178 776.823,939.37 
  777.983,941.559 779.144,943.746 780.305,945.93 781.465,948.111 782.626,950.29 783.787,952.467 784.948,954.641 786.108,956.812 787.269,958.981 788.43,961.147 
  789.59,963.31 790.751,965.471 791.912,967.628 793.073,969.784 794.233,971.936 795.394,974.086 796.555,976.233 797.715,978.377 798.876,980.518 800.037,982.657 
  801.198,984.792 802.358,986.925 803.519,989.055 804.68,991.181 805.84,993.305 807.001,995.426 808.162,997.544 809.323,999.659 810.483,1001.77 811.644,1003.88 
  812.805,1005.99 813.965,1008.09 815.126,1010.19 816.287,1012.28 817.448,1014.38 818.608,1016.47 819.769,1018.55 820.93,1020.64 822.09,1022.72 823.251,1024.8 
  824.412,1026.87 825.572,1028.94 826.733,1031.01 827.894,1033.07 829.055,1035.13 830.215,1037.19 831.376,1039.24 832.537,1041.29 833.697,1043.34 834.858,1045.39 
  836.019,1047.43 837.18,1049.46 838.34,1051.5 839.501,1053.52 840.662,1055.55 841.822,1057.57 842.983,1059.59 844.144,1061.61 845.305,1063.62 846.465,1065.63 
  847.626,1067.63 848.787,1069.63 849.947,1071.63 851.108,1073.62 852.269,1075.61 853.43,1077.6 854.59,1079.58 855.751,1081.56 856.912,1083.53 858.072,1085.5 
  859.233,1087.47 860.394,1089.43 861.555,1091.39 862.715,1093.34 863.876,1095.3 865.037,1097.24 866.197,1099.18 867.358,1101.12 868.519,1103.06 869.68,1104.99 
  870.84,1106.92 872.001,1108.84 873.162,1110.76 874.322,1112.67 875.483,1114.58 876.644,1116.49 877.805,1118.39 878.965,1120.29 880.126,1122.18 881.287,1124.07 
  882.447,1125.95 883.608,1127.83 884.769,1129.71 885.93,1131.58 887.09,1133.45 888.251,1135.31 889.412,1137.17 890.572,1139.02 891.733,1140.87 892.894,1142.72 
  894.054,1144.56 895.215,1146.4 896.376,1148.23 897.537,1150.06 898.697,1151.88 899.858,1153.7 901.019,1155.51 902.179,1157.32 903.34,1159.12 904.501,1160.92 
  
  "/>
<polyline clip-path="url(#clip942)" style="stroke:#000000; stroke-linecap:butt; stroke-linejoin:round; stroke-width:8; stroke-opacity:1; fill:none" points="
  904.501,1160.92 905.662,1162.72 906.822,1164.51 907.983,1166.29 909.144,1168.07 910.304,1169.85 911.465,1171.62 912.626,1173.39 913.787,1175.15 914.947,1176.91 
  916.108,1178.66 917.269,1180.41 918.429,1182.15 919.59,1183.89 920.751,1185.62 921.912,1187.35 923.072,1189.07 924.233,1190.79 925.394,1192.5 926.554,1194.21 
  927.715,1195.92 928.876,1197.62 930.037,1199.31 931.197,1201 932.358,1202.68 933.519,1204.36 934.679,1206.04 935.84,1207.71 937.001,1209.37 938.162,1211.03 
  939.322,1212.69 940.483,1214.34 941.644,1215.98 942.804,1217.62 943.965,1219.26 945.126,1220.88 946.287,1222.51 947.447,1224.13 948.608,1225.74 949.769,1227.35 
  950.929,1228.96 952.09,1230.56 953.251,1232.15 954.412,1233.74 955.572,1235.32 956.733,1236.9 957.894,1238.48 959.054,1240.05 960.215,1241.61 961.376,1243.17 
  962.536,1244.72 963.697,1246.27 964.858,1247.81 966.019,1249.35 967.179,1250.88 968.34,1252.41 969.501,1253.93 970.661,1255.45 971.822,1256.96 972.983,1258.46 
  974.144,1259.96 975.304,1261.46 976.465,1262.95 977.626,1264.43 978.786,1265.91 979.947,1267.39 981.108,1268.86 982.269,1270.32 983.429,1271.78 984.59,1273.23 
  985.751,1274.68 986.911,1276.12 988.072,1277.56 989.233,1278.99 990.394,1280.41 991.554,1281.83 992.715,1283.25 993.876,1284.66 995.036,1286.06 996.197,1287.46 
  997.358,1288.85 998.519,1290.24 999.679,1291.62 1000.84,1293 1002,1294.37 1003.16,1295.74 1004.32,1297.1 1005.48,1298.45 1006.64,1299.8 1007.8,1301.14 
  1008.96,1302.48 1010.13,1303.81 1011.29,1305.14 1012.45,1306.46 1013.61,1307.78 1014.77,1309.09 1015.93,1310.39 1017.09,1311.69 1018.25,1312.98 1019.41,1314.27 
  1020.57,1315.55 1021.73,1316.83 1022.89,1318.1 1024.05,1319.36 1025.21,1320.62 1026.38,1321.87 1027.54,1323.12 1028.7,1324.36 1029.86,1325.59 1031.02,1326.82 
  1032.18,1328.05 1033.34,1329.27 1034.5,1330.48 1035.66,1331.69 1036.82,1332.89 1037.98,1334.08 1039.14,1335.27 1040.3,1336.45 1041.46,1337.63 1042.63,1338.8 
  1043.79,1339.97 1044.95,1341.13 1046.11,1342.28 1047.27,1343.43 1048.43,1344.57 1049.59,1345.71 1050.75,1346.84 1051.91,1347.96 1053.07,1349.08 1054.23,1350.19 
  1055.39,1351.3 1056.55,1352.4 1057.71,1353.49 1058.88,1354.58 1060.04,1355.66 1061.2,1356.74 1062.36,1357.81 1063.52,1358.87 1064.68,1359.93 1065.84,1360.98 
  1067,1362.03 1068.16,1363.07 1069.32,1364.1 1070.48,1365.13 1071.64,1366.15 1072.8,1367.17 1073.96,1368.18 1075.13,1369.18 1076.29,1370.18 1077.45,1371.17 
  1078.61,1372.15 1079.77,1373.13 1080.93,1374.1 1082.09,1375.07 1083.25,1376.03 1084.41,1376.98 1085.57,1377.93 1086.73,1378.87 1087.89,1379.8 1089.05,1380.73 
  1090.21,1381.65 1091.38,1382.57 1092.54,1383.48 1093.7,1384.38 1094.86,1385.28 1096.02,1386.17 1097.18,1387.05 1098.34,1387.93 1099.5,1388.8 1100.66,1389.67 
  1101.82,1390.53 1102.98,1391.38 1104.14,1392.22 1105.3,1393.06 1106.46,1393.9 1107.63,1394.72 1108.79,1395.54 1109.95,1396.36 1111.11,1397.16 1112.27,1397.96 
  1113.43,1398.76 1114.59,1399.55 1115.75,1400.33 1116.91,1401.1 1118.07,1401.87 1119.23,1402.63 1120.39,1403.39 1121.55,1404.13 1122.71,1404.88 1123.88,1405.61 
  1125.04,1406.34 1126.2,1407.06 1127.36,1407.78 1128.52,1408.49 1129.68,1409.19 1130.84,1409.88 1132,1410.57 1133.16,1411.26 1134.32,1411.93 1135.48,1412.6 
  
  "/>
<polyline clip-path="url(#clip942)" style="stroke:#000000; stroke-linecap:butt; stroke-linejoin:round; stroke-width:8; stroke-opacity:1; fill:none" points="
  1135.48,1412.6 1136.64,1413.26 1137.8,1413.92 1138.96,1414.57 1140.13,1415.21 1141.29,1415.85 1142.45,1416.47 1143.61,1417.1 1144.77,1417.71 1145.93,1418.32 
  1147.09,1418.92 1148.25,1419.52 1149.41,1420.11 1150.57,1420.69 1151.73,1421.26 1152.89,1421.83 1154.05,1422.39 1155.21,1422.95 1156.38,1423.5 1157.54,1424.04 
  1158.7,1424.58 1159.86,1425.1 1161.02,1425.63 1162.18,1426.14 1163.34,1426.65 1164.5,1427.15 1165.66,1427.65 1166.82,1428.13 1167.98,1428.62 1169.14,1429.09 
  1170.3,1429.56 1171.46,1430.02 1172.63,1430.48 1173.79,1430.92 1174.95,1431.37 1176.11,1431.8 1177.27,1432.23 1178.43,1432.65 1179.59,1433.07 1180.75,1433.47 
  1181.91,1433.87 1183.07,1434.27 1184.23,1434.66 1185.39,1435.04 1186.55,1435.41 1187.71,1435.78 1188.88,1436.14 1190.04,1436.5 1191.2,1436.84 1192.36,1437.19 
  1193.52,1437.52 1194.68,1437.85 1195.84,1438.17 1197,1438.48 1198.16,1438.79 1199.32,1439.09 1200.48,1439.39 1201.64,1439.67 1202.8,1439.96 1203.96,1440.23 
  1205.13,1440.5 1206.29,1440.76 1207.45,1441.01 1208.61,1441.26 1209.77,1441.5 1210.93,1441.74 1212.09,1441.96 1213.25,1442.18 1214.41,1442.4 1215.57,1442.6 
  1216.73,1442.81 1217.89,1443 1219.05,1443.19 1220.21,1443.37 1221.38,1443.54 1222.54,1443.71 1223.7,1443.87 1224.86,1444.02 1226.02,1444.17 1227.18,1444.31 
  1228.34,1444.44 1229.5,1444.57 1230.66,1444.69 1231.82,1444.81 1232.98,1444.91 1234.14,1445.01 1235.3,1445.11 1236.46,1445.19 1237.63,1445.27 1238.79,1445.35 
  1239.95,1445.41 1241.11,1445.47 1242.27,1445.53 1243.43,1445.58 1244.59,1445.62 1245.75,1445.65 1246.91,1445.68 1248.07,1445.7 1249.23,1445.71 1250.39,1445.72 
  1251.55,1445.72 1252.71,1445.71 1253.88,1445.7 1255.04,1445.68 1256.2,1445.65 1257.36,1445.62 1258.52,1445.58 1259.68,1445.53 1260.84,1445.47 1262,1445.41 
  1263.16,1445.35 1264.32,1445.27 1265.48,1445.19 1266.64,1445.11 1267.8,1445.01 1268.96,1444.91 1270.13,1444.81 1271.29,1444.69 1272.45,1444.57 1273.61,1444.44 
  1274.77,1444.31 1275.93,1444.17 1277.09,1444.02 1278.25,1443.87 1279.41,1443.71 1280.57,1443.54 1281.73,1443.37 1282.89,1443.19 1284.05,1443 1285.21,1442.81 
  1286.38,1442.6 1287.54,1442.4 1288.7,1442.18 1289.86,1441.96 1291.02,1441.74 1292.18,1441.5 1293.34,1441.26 1294.5,1441.01 1295.66,1440.76 1296.82,1440.5 
  1297.98,1440.23 1299.14,1439.96 1300.3,1439.67 1301.46,1439.39 1302.63,1439.09 1303.79,1438.79 1304.95,1438.48 1306.11,1438.17 1307.27,1437.85 1308.43,1437.52 
  1309.59,1437.19 1310.75,1436.84 1311.91,1436.5 1313.07,1436.14 1314.23,1435.78 1315.39,1435.41 1316.55,1435.04 1317.71,1434.66 1318.88,1434.27 1320.04,1433.87 
  1321.2,1433.47 1322.36,1433.07 1323.52,1432.65 1324.68,1432.23 1325.84,1431.8 1327,1431.37 1328.16,1430.92 1329.32,1430.48 1330.48,1430.02 1331.64,1429.56 
  1332.8,1429.09 1333.96,1428.62 1335.12,1428.13 1336.29,1427.65 1337.45,1427.15 1338.61,1426.65 1339.77,1426.14 1340.93,1425.63 1342.09,1425.1 1343.25,1424.58 
  1344.41,1424.04 1345.57,1423.5 1346.73,1422.95 1347.89,1422.39 1349.05,1421.83 1350.21,1421.26 1351.37,1420.69 1352.54,1420.11 1353.7,1419.52 1354.86,1418.92 
  1356.02,1418.32 1357.18,1417.71 1358.34,1417.1 1359.5,1416.47 1360.66,1415.85 1361.82,1415.21 1362.98,1414.57 1364.14,1413.92 1365.3,1413.26 1366.46,1412.6 
  
  "/>
<polyline clip-path="url(#clip942)" style="stroke:#000000; stroke-linecap:butt; stroke-linejoin:round; stroke-width:8; stroke-opacity:1; fill:none" points="
  1366.46,1412.6 1367.62,1411.93 1368.79,1411.26 1369.95,1410.57 1371.11,1409.88 1372.27,1409.19 1373.43,1408.49 1374.59,1407.78 1375.75,1407.06 1376.91,1406.34 
  1378.07,1405.61 1379.23,1404.88 1380.39,1404.13 1381.55,1403.39 1382.71,1402.63 1383.87,1401.87 1385.04,1401.1 1386.2,1400.33 1387.36,1399.55 1388.52,1398.76 
  1389.68,1397.96 1390.84,1397.16 1392,1396.36 1393.16,1395.54 1394.32,1394.72 1395.48,1393.9 1396.64,1393.06 1397.8,1392.22 1398.96,1391.38 1400.12,1390.53 
  1401.29,1389.67 1402.45,1388.8 1403.61,1387.93 1404.77,1387.05 1405.93,1386.17 1407.09,1385.28 1408.25,1384.38 1409.41,1383.48 1410.57,1382.57 1411.73,1381.65 
  1412.89,1380.73 1414.05,1379.8 1415.21,1378.87 1416.37,1377.93 1417.54,1376.98 1418.7,1376.03 1419.86,1375.07 1421.02,1374.1 1422.18,1373.13 1423.34,1372.15 
  1424.5,1371.17 1425.66,1370.18 1426.82,1369.18 1427.98,1368.18 1429.14,1367.17 1430.3,1366.15 1431.46,1365.13 1432.62,1364.1 1433.79,1363.07 1434.95,1362.03 
  1436.11,1360.98 1437.27,1359.93 1438.43,1358.87 1439.59,1357.81 1440.75,1356.74 1441.91,1355.66 1443.07,1354.58 1444.23,1353.49 1445.39,1352.4 1446.55,1351.3 
  1447.71,1350.19 1448.87,1349.08 1450.04,1347.96 1451.2,1346.84 1452.36,1345.71 1453.52,1344.57 1454.68,1343.43 1455.84,1342.28 1457,1341.13 1458.16,1339.97 
  1459.32,1338.8 1460.48,1337.63 1461.64,1336.45 1462.8,1335.27 1463.96,1334.08 1465.12,1332.89 1466.29,1331.69 1467.45,1330.48 1468.61,1329.27 1469.77,1328.05 
  1470.93,1326.82 1472.09,1325.59 1473.25,1324.36 1474.41,1323.12 1475.57,1321.87 1476.73,1320.62 1477.89,1319.36 1479.05,1318.1 1480.21,1316.83 1481.37,1315.55 
  1482.54,1314.27 1483.7,1312.98 1484.86,1311.69 1486.02,1310.39 1487.18,1309.09 1488.34,1307.78 1489.5,1306.46 1490.66,1305.14 1491.82,1303.81 1492.98,1302.48 
  1494.14,1301.14 1495.3,1299.8 1496.46,1298.45 1497.62,1297.1 1498.79,1295.74 1499.95,1294.37 1501.11,1293 1502.27,1291.62 1503.43,1290.24 1504.59,1288.85 
  1505.75,1287.46 1506.91,1286.06 1508.07,1284.66 1509.23,1283.25 1510.39,1281.83 1511.55,1280.41 1512.71,1278.99 1513.87,1277.56 1515.04,1276.12 1516.2,1274.68 
  1517.36,1273.23 1518.52,1271.78 1519.68,1270.32 1520.84,1268.86 1522,1267.39 1523.16,1265.91 1524.32,1264.43 1525.48,1262.95 1526.64,1261.46 1527.8,1259.96 
  1528.96,1258.46 1530.12,1256.96 1531.29,1255.45 1532.45,1253.93 1533.61,1252.41 1534.77,1250.88 1535.93,1249.35 1537.09,1247.81 1538.25,1246.27 1539.41,1244.72 
  1540.57,1243.17 1541.73,1241.61 1542.89,1240.05 1544.05,1238.48 1545.21,1236.9 1546.37,1235.32 1547.54,1233.74 1548.7,1232.15 1549.86,1230.56 1551.02,1228.96 
  1552.18,1227.35 1553.34,1225.74 1554.5,1224.13 1555.66,1222.51 1556.82,1220.88 1557.98,1219.26 1559.14,1217.62 1560.3,1215.98 1561.46,1214.34 1562.62,1212.69 
  1563.79,1211.03 1564.95,1209.37 1566.11,1207.71 1567.27,1206.04 1568.43,1204.36 1569.59,1202.68 1570.75,1201 1571.91,1199.31 1573.07,1197.62 1574.23,1195.92 
  1575.39,1194.21 1576.55,1192.5 1577.71,1190.79 1578.87,1189.07 1580.04,1187.35 1581.2,1185.62 1582.36,1183.89 1583.52,1182.15 1584.68,1180.41 1585.84,1178.66 
  1587,1176.91 1588.16,1175.15 1589.32,1173.39 1590.48,1171.62 1591.64,1169.85 1592.8,1168.07 1593.96,1166.29 1595.12,1164.51 1596.29,1162.72 1597.45,1160.92 
  
  "/>
<polyline clip-path="url(#clip942)" style="stroke:#000000; stroke-linecap:butt; stroke-linejoin:round; stroke-width:8; stroke-opacity:1; fill:none" points="
  1597.45,1160.92 1598.61,1159.12 1599.77,1157.32 1600.93,1155.51 1602.09,1153.7 1603.25,1151.88 1604.41,1150.06 1605.57,1148.23 1606.73,1146.4 1607.89,1144.56 
  1609.05,1142.72 1610.21,1140.87 1611.37,1139.02 1612.54,1137.17 1613.7,1135.31 1614.86,1133.45 1616.02,1131.58 1617.18,1129.71 1618.34,1127.83 1619.5,1125.95 
  1620.66,1124.07 1621.82,1122.18 1622.98,1120.29 1624.14,1118.39 1625.3,1116.49 1626.46,1114.58 1627.62,1112.67 1628.79,1110.76 1629.95,1108.84 1631.11,1106.92 
  1632.27,1104.99 1633.43,1103.06 1634.59,1101.12 1635.75,1099.18 1636.91,1097.24 1638.07,1095.3 1639.23,1093.34 1640.39,1091.39 1641.55,1089.43 1642.71,1087.47 
  1643.87,1085.5 1645.04,1083.53 1646.2,1081.56 1647.36,1079.58 1648.52,1077.6 1649.68,1075.61 1650.84,1073.62 1652,1071.63 1653.16,1069.63 1654.32,1067.63 
  1655.48,1065.63 1656.64,1063.62 1657.8,1061.61 1658.96,1059.59 1660.12,1057.57 1661.29,1055.55 1662.45,1053.52 1663.61,1051.5 1664.77,1049.46 1665.93,1047.43 
  1667.09,1045.39 1668.25,1043.34 1669.41,1041.29 1670.57,1039.24 1671.73,1037.19 1672.89,1035.13 1674.05,1033.07 1675.21,1031.01 1676.37,1028.94 1677.53,1026.87 
  1678.7,1024.8 1679.86,1022.72 1681.02,1020.64 1682.18,1018.55 1683.34,1016.47 1684.5,1014.38 1685.66,1012.28 1686.82,1010.19 1687.98,1008.09 1689.14,1005.99 
  1690.3,1003.88 1691.46,1001.77 1692.62,999.659 1693.78,997.544 1694.95,995.426 1696.11,993.305 1697.27,991.181 1698.43,989.055 1699.59,986.925 1700.75,984.792 
  1701.91,982.657 1703.07,980.518 1704.23,978.377 1705.39,976.233 1706.55,974.086 1707.71,971.936 1708.87,969.784 1710.03,967.628 1711.2,965.471 1712.36,963.31 
  1713.52,961.147 1714.68,958.981 1715.84,956.812 1717,954.641 1718.16,952.467 1719.32,950.29 1720.48,948.111 1721.64,945.93 1722.8,943.746 1723.96,941.559 
  1725.12,939.37 1726.28,937.178 1727.45,934.984 1728.61,932.788 1729.77,930.589 1730.93,928.388 1732.09,926.184 1733.25,923.978 1734.41,921.77 1735.57,919.56 
  1736.73,917.347 1737.89,915.132 1739.05,912.915 1740.21,910.695 1741.37,908.473 1742.53,906.249 1743.7,904.023 1744.86,901.795 1746.02,899.565 1747.18,897.332 
  1748.34,895.098 1749.5,892.861 1750.66,890.622 1751.82,888.382 1752.98,886.139 1754.14,883.894 1755.3,881.648 1756.46,879.399 1757.62,877.149 1758.78,874.897 
  1759.95,872.642 1761.11,870.386 1762.27,868.128 1763.43,865.869 1764.59,863.607 1765.75,861.344 1766.91,859.079 1768.07,856.812 1769.23,854.543 1770.39,852.273 
  1771.55,850.001 1772.71,847.728 1773.87,845.452 1775.03,843.175 1776.2,840.897 1777.36,838.617 1778.52,836.335 1779.68,834.052 1780.84,831.768 1782,829.482 
  1783.16,827.194 1784.32,824.905 1785.48,822.615 1786.64,820.323 1787.8,818.029 1788.96,815.735 1790.12,813.439 1791.28,811.141 1792.45,808.843 1793.61,806.543 
  1794.77,804.242 1795.93,801.939 1797.09,799.635 1798.25,797.33 1799.41,795.024 1800.57,792.717 1801.73,790.409 1802.89,788.099 1804.05,785.788 1805.21,783.476 
  1806.37,781.164 1807.53,778.85 1808.7,776.535 1809.86,774.219 1811.02,771.902 1812.18,769.584 1813.34,767.265 1814.5,764.945 1815.66,762.625 1816.82,760.303 
  1817.98,757.98 1819.14,755.657 1820.3,753.333 1821.46,751.008 1822.62,748.682 1823.78,746.356 1824.95,744.028 1826.11,741.7 1827.27,739.372 1828.43,737.042 
  
  "/>
<polyline clip-path="url(#clip942)" style="stroke:#000000; stroke-linecap:butt; stroke-linejoin:round; stroke-width:8; stroke-opacity:1; fill:none" points="
  1828.43,737.042 1829.59,734.712 1830.75,732.382 1831.91,730.05 1833.07,727.718 1834.23,725.386 1835.39,723.053 1836.55,720.719 1837.71,718.386 1838.87,716.051 
  1840.03,713.717 1841.2,711.381 1842.36,709.046 1843.52,706.71 1844.68,704.374 1845.84,702.038 1847,699.702 1848.16,697.365 1849.32,695.028 1850.48,692.691 
  1851.64,690.354 1852.8,688.017 1853.96,685.68 1855.12,683.343 1856.28,681.006 1857.45,678.669 1858.61,676.332 1859.77,673.995 1860.93,671.658 1862.09,669.322 
  1863.25,666.985 1864.41,664.649 1865.57,662.313 1866.73,659.978 1867.89,657.643 1869.05,655.308 1870.21,652.973 1871.37,650.639 1872.53,648.306 1873.7,645.973 
  1874.86,643.64 1876.02,641.308 1877.18,638.977 1878.34,636.646 1879.5,634.316 1880.66,631.986 1881.82,629.657 1882.98,627.329 1884.14,625.002 1885.3,622.675 
  1886.46,620.349 1887.62,618.024 1888.78,615.7 1889.95,613.377 1891.11,611.055 1892.27,608.734 1893.43,606.413 1894.59,604.094 1895.75,601.776 1896.91,599.459 
  1898.07,597.143 1899.23,594.828 1900.39,592.514 1901.55,590.202 1902.71,587.891 1903.87,585.581 1905.03,583.272 1906.2,580.965 1907.36,578.659 1908.52,576.354 
  1909.68,574.051 1910.84,571.749 1912,569.449 1913.16,567.15 1914.32,564.853 1915.48,562.558 1916.64,560.264 1917.8,557.971 1918.96,555.68 1920.12,553.391 
  1921.28,551.104 1922.45,548.819 1923.61,546.535 1924.77,544.253 1925.93,541.973 1927.09,539.694 1928.25,537.418 1929.41,535.144 1930.57,532.871 1931.73,530.601 
  1932.89,528.332 1934.05,526.066 1935.21,523.802 1936.37,521.539 1937.53,519.279 1938.7,517.021 1939.86,514.766 1941.02,512.512 1942.18,510.261 1943.34,508.012 
  1944.5,505.766 1945.66,503.522 1946.82,501.28 1947.98,499.04 1949.14,496.804 1950.3,494.569 1951.46,492.337 1952.62,490.108 1953.78,487.881 1954.95,485.657 
  1956.11,483.435 1957.27,481.216 1958.43,479 1959.59,476.786 1960.75,474.576 1961.91,472.368 1963.07,470.162 1964.23,467.96 1965.39,465.76 1966.55,463.564 
  1967.71,461.37 1968.87,459.18 1970.03,456.992 1971.2,454.807 1972.36,452.626 1973.52,450.447 1974.68,448.272 1975.84,446.099 1977,443.93 1978.16,441.764 
  1979.32,439.602 1980.48,437.442 1981.64,435.286 1982.8,433.133 1983.96,430.984 1985.12,428.838 1986.28,426.695 1987.45,424.556 1988.61,422.42 1989.77,420.288 
  1990.93,418.159 1992.09,416.034 1993.25,413.913 1994.41,411.795 1995.57,409.681 1996.73,407.57 1997.89,405.463 1999.05,403.36 2000.21,401.261 2001.37,399.165 
  2002.53,397.074 2003.7,394.986 2004.86,392.902 2006.02,390.822 2007.18,388.746 2008.34,386.674 2009.5,384.606 2010.66,382.542 2011.82,380.482 2012.98,378.427 
  2014.14,376.375 2015.3,374.328 2016.46,372.285 2017.62,370.246 2018.78,368.211 2019.94,366.18 2021.11,364.154 2022.27,362.133 2023.43,360.115 2024.59,358.102 
  2025.75,356.094 2026.91,354.09 2028.07,352.09 2029.23,350.095 2030.39,348.105 2031.55,346.119 2032.71,344.138 2033.87,342.161 2035.03,340.189 2036.19,338.222 
  2037.36,336.26 2038.52,334.302 2039.68,332.349 2040.84,330.401 2042,328.458 2043.16,326.52 2044.32,324.587 2045.48,322.658 2046.64,320.735 2047.8,318.817 
  2048.96,316.903 2050.12,314.995 2051.28,313.092 2052.44,311.194 2053.61,309.301 2054.77,307.414 2055.93,305.532 2057.09,303.654 2058.25,301.783 2059.41,299.916 
  
  "/>
<polyline clip-path="url(#clip942)" style="stroke:#000000; stroke-linecap:butt; stroke-linejoin:round; stroke-width:8; stroke-opacity:1; fill:none" points="
  2059.41,299.916 2060.57,298.055 2061.73,296.199 2062.89,294.349 2064.05,292.504 2065.21,290.665 2066.37,288.831 2067.53,287.003 2068.69,285.181 2069.86,283.364 
  2071.02,281.553 2072.18,279.747 2073.34,277.948 2074.5,276.154 2075.66,274.366 2076.82,272.584 2077.98,270.808 2079.14,269.038 2080.3,267.274 2081.46,265.516 
  2082.62,263.765 2083.78,262.019 2084.94,260.28 2086.11,258.546 2087.27,256.819 2088.43,255.099 2089.59,253.385 2090.75,251.677 2091.91,249.976 2093.07,248.281 
  2094.23,246.592 2095.39,244.911 2096.55,243.235 2097.71,241.567 2098.87,239.905 2100.03,238.25 2101.19,236.601 2102.36,234.96 2103.52,233.325 2104.68,231.697 
  2105.84,230.076 2107,228.462 2108.16,226.855 2109.32,225.255 2110.48,223.663 2111.64,222.077 2112.8,220.498 2113.96,218.927 2115.12,217.363 2116.28,215.806 
  2117.44,214.257 2118.61,212.715 2119.77,211.18 2120.93,209.653 2122.09,208.133 2123.25,206.621 2124.41,205.116 2125.57,203.619 2126.73,202.13 2127.89,200.648 
  2129.05,199.174 2130.21,197.708 2131.37,196.25 2132.53,194.799 2133.69,193.357 2134.86,191.922 2136.02,190.495 2137.18,189.077 2138.34,187.666 2139.5,186.263 
  2140.66,184.869 2141.82,183.483 2142.98,182.105 2144.14,180.735 2145.3,179.373 2146.46,178.02 2147.62,176.676 2148.78,175.339 2149.94,174.011 2151.11,172.692 
  2152.27,171.381 2153.43,170.079 2154.59,168.785 2155.75,167.5 2156.91,166.224 2158.07,164.957 2159.23,163.698 2160.39,162.448 2161.55,161.207 2162.71,159.975 
  2163.87,158.751 2165.03,157.537 2166.19,156.332 2167.36,155.136 2168.52,153.949 2169.68,152.771 2170.84,151.602 2172,150.443 2173.16,149.292 2174.32,148.151 
  2175.48,147.02 2176.64,145.898 2177.8,144.785 2178.96,143.681 2180.12,142.588 2181.28,141.503 2182.44,140.429 2183.61,139.364 2184.77,138.308 2185.93,137.263 
  2187.09,136.227 2188.25,135.201 2189.41,134.184 2190.57,133.178 2191.73,132.181 2192.89,131.195 2194.05,130.218 2195.21,129.252 2196.37,128.295 2197.53,127.349 
  2198.69,126.413 2199.86,125.487 2201.02,124.571 2202.18,123.665 2203.34,122.77 2204.5,121.885 2205.66,121.011 2206.82,120.147 2207.98,119.293 2209.14,118.45 
  2210.3,117.618 2211.46,116.796 2212.62,115.985 2213.78,115.184 2214.94,114.394 2216.11,113.615 2217.27,112.847 2218.43,112.09 2219.59,111.343 2220.75,110.607 
  2221.91,109.883 2223.07,109.169 2224.23,108.466 2225.39,107.775 2226.55,107.094 2227.71,106.425 2228.87,105.767 2230.03,105.12 2231.19,104.485 2232.36,103.86 
  2233.52,103.248 2234.68,102.646 2235.84,102.056 2237,101.478 2238.16,100.911 2239.32,100.355 2240.48,99.8113 2241.64,99.2791 2242.8,98.7585 2243.96,98.2497 
  2245.12,97.7527 2246.28,97.2675 2247.44,96.7941 2248.61,96.3326 2249.77,95.8831 2250.93,95.4455 2252.09,95.0199 2253.25,94.6064 2254.41,94.2049 2255.57,93.8156 
  2256.73,93.4385 2257.89,93.0735 2259.05,92.7208 2260.21,92.3804 2261.37,92.0524 2262.53,91.7367 2263.69,91.4334 2264.86,91.1426 2266.02,90.8642 2267.18,90.5984 
  2268.34,90.3452 2269.5,90.1046 2270.66,89.8766 2271.82,89.6613 2272.98,89.4588 2274.14,89.269 2275.3,89.0921 2276.46,88.928 2277.62,88.7768 2278.78,88.6385 
  2279.94,88.5133 2281.11,88.401 2282.27,88.3018 2283.43,88.2157 2284.59,88.1427 2285.75,88.0829 2286.91,88.0363 2288.07,88.003 2289.23,87.983 2290.39,87.9763 
  
  "/>
</svg>
